<?xml version="1.0" encoding="utf-8" standalone="no"?>
<!DOCTYPE svg PUBLIC "-//W3C//DTD SVG 1.1//EN"
  "http://www.w3.org/Graphics/SVG/1.1/DTD/svg11.dtd">
<svg xmlns:xlink="http://www.w3.org/1999/xlink" width="564.48pt" height="185.765625pt" viewBox="0 0 564.48 185.765625" xmlns="http://www.w3.org/2000/svg" version="1.1">
 <metadata>
  <rdf:RDF xmlns:dc="http://purl.org/dc/elements/1.1/" xmlns:cc="http://creativecommons.org/ns#" xmlns:rdf="http://www.w3.org/1999/02/22-rdf-syntax-ns#">
   <cc:Work>
    <dc:type rdf:resource="http://purl.org/dc/dcmitype/StillImage"/>
    <dc:date>2026-04-21T17:39:55.017282</dc:date>
    <dc:format>image/svg+xml</dc:format>
    <dc:creator>
     <cc:Agent>
      <dc:title>Matplotlib v3.10.8, https://matplotlib.org/</dc:title>
     </cc:Agent>
    </dc:creator>
   </cc:Work>
  </rdf:RDF>
 </metadata>
 <defs>
  <style type="text/css">*{stroke-linejoin: round; stroke-linecap: butt}</style>
 </defs>
 <g id="figure_1">
  <g id="patch_1">
   <path d="M 0 185.765625 
L 564.48 185.765625 
L 564.48 0 
L 0 0 
L 0 185.765625 
z
" style="fill: none"/>
  </g>
  <g id="axes_1">
   <g id="patch_2">
    <path d="M 57.7925 113.439625 
L 163.494472 113.439625 
L 163.494472 23.52975 
L 57.7925 23.52975 
L 57.7925 113.439625 
z
" style="fill: none"/>
   </g>
   <g id="FillBetweenPolyCollection_1">
    <defs>
     <path id="m3f3c30d87f" d="M 62.597135 -148.585808 
L 62.597135 -151.833585 
L 110.643486 -119.562186 
L 158.689837 -119.225973 
L 158.689837 -115.428476 
L 158.689837 -115.428476 
L 110.643486 -115.319651 
L 62.597135 -148.585808 
z
" style="stroke: #808080; stroke-opacity: 0.3"/>
    </defs>
    <g clip-path="url(#p58e7f1c421)">
     <use xlink:href="#m3f3c30d87f" x="0" y="185.765625" style="fill: #808080; fill-opacity: 0.3; stroke: #808080; stroke-opacity: 0.3"/>
    </g>
   </g>
   <g id="FillBetweenPolyCollection_2">
    <defs>
     <path id="m62707b4817" d="M 62.597135 -155.668747 
L 62.597135 -145.323962 
L 110.643486 -111.676973 
L 158.689837 -112.265725 
L 158.689837 -120.210119 
L 158.689837 -120.210119 
L 110.643486 -125.719607 
L 62.597135 -155.668747 
z
" style="stroke: #ff69b4; stroke-opacity: 0.3"/>
    </defs>
    <g clip-path="url(#p58e7f1c421)">
     <use xlink:href="#m62707b4817" x="0" y="185.765625" style="fill: #ff69b4; fill-opacity: 0.3; stroke: #ff69b4; stroke-opacity: 0.3"/>
    </g>
   </g>
   <g id="matplotlib.axis_1">
    <g id="xtick_1">
     <g id="line2d_1">
      <defs>
       <path id="mdbc3d7616d" d="M 0 0 
L 0 6 
" style="stroke: #000000"/>
      </defs>
      <g>
       <use xlink:href="#mdbc3d7616d" x="62.597135" y="113.439625" style="stroke: #000000"/>
      </g>
     </g>
     <g id="text_1">
      <!-- bias -->
      <g transform="translate(51.590885 131.54775) scale(0.12 -0.12)">
       <defs>
        <path id="Helvetica-62" d="M 369 4606 
L 916 4606 
L 916 2941 
Q 1100 3181 1356 3307 
Q 1613 3434 1913 3434 
Q 2538 3434 2927 3004 
Q 3316 2575 3316 1738 
Q 3316 944 2931 419 
Q 2547 -106 1866 -106 
Q 1484 -106 1222 78 
Q 1066 188 888 428 
L 888 0 
L 369 0 
L 369 4606 
z
M 1831 391 
Q 2288 391 2514 753 
Q 2741 1116 2741 1709 
Q 2741 2238 2514 2584 
Q 2288 2931 1847 2931 
Q 1463 2931 1173 2647 
Q 884 2363 884 1709 
Q 884 1238 1003 944 
Q 1225 391 1831 391 
z
" transform="scale(0.015625)"/>
        <path id="Helvetica-69" d="M 413 3331 
L 984 3331 
L 984 0 
L 413 0 
L 413 3331 
z
M 413 4591 
L 984 4591 
L 984 3953 
L 413 3953 
L 413 4591 
z
" transform="scale(0.015625)"/>
        <path id="Helvetica-61" d="M 844 891 
Q 844 647 1022 506 
Q 1200 366 1444 366 
Q 1741 366 2019 503 
Q 2488 731 2488 1250 
L 2488 1703 
Q 2384 1638 2221 1594 
Q 2059 1550 1903 1531 
L 1563 1488 
Q 1256 1447 1103 1359 
Q 844 1213 844 891 
z
M 2206 2028 
Q 2400 2053 2466 2191 
Q 2503 2266 2503 2406 
Q 2503 2694 2298 2823 
Q 2094 2953 1713 2953 
Q 1272 2953 1088 2716 
Q 984 2584 953 2325 
L 428 2325 
Q 444 2944 830 3186 
Q 1216 3428 1725 3428 
Q 2316 3428 2684 3203 
Q 3050 2978 3050 2503 
L 3050 575 
Q 3050 488 3086 434 
Q 3122 381 3238 381 
Q 3275 381 3322 386 
Q 3369 391 3422 400 
L 3422 -16 
Q 3291 -53 3222 -62 
Q 3153 -72 3034 -72 
Q 2744 -72 2613 134 
Q 2544 244 2516 444 
Q 2344 219 2022 53 
Q 1700 -113 1313 -113 
Q 847 -113 551 170 
Q 256 453 256 878 
Q 256 1344 547 1600 
Q 838 1856 1309 1916 
L 2206 2028 
z
M 1741 3428 
L 1741 3428 
z
" transform="scale(0.015625)"/>
        <path id="Helvetica-73" d="M 747 1050 
Q 772 769 888 619 
Q 1100 347 1625 347 
Q 1938 347 2175 483 
Q 2413 619 2413 903 
Q 2413 1119 2222 1231 
Q 2100 1300 1741 1391 
L 1294 1503 
Q 866 1609 663 1741 
Q 300 1969 300 2372 
Q 300 2847 642 3140 
Q 984 3434 1563 3434 
Q 2319 3434 2653 2991 
Q 2863 2709 2856 2384 
L 2325 2384 
Q 2309 2575 2191 2731 
Q 1997 2953 1519 2953 
Q 1200 2953 1036 2831 
Q 872 2709 872 2509 
Q 872 2291 1088 2159 
Q 1213 2081 1456 2022 
L 1828 1931 
Q 2434 1784 2641 1647 
Q 2969 1431 2969 969 
Q 2969 522 2630 197 
Q 2291 -128 1597 -128 
Q 850 -128 539 211 
Q 228 550 206 1050 
L 747 1050 
z
M 1578 3428 
L 1578 3428 
z
" transform="scale(0.015625)"/>
       </defs>
       <use xlink:href="#Helvetica-62"/>
       <use xlink:href="#Helvetica-69" transform="translate(55.615234 0)"/>
       <use xlink:href="#Helvetica-61" transform="translate(77.832031 0)"/>
       <use xlink:href="#Helvetica-73" transform="translate(133.447266 0)"/>
      </g>
     </g>
    </g>
    <g id="xtick_2">
     <g id="line2d_2">
      <g>
       <use xlink:href="#mdbc3d7616d" x="110.643486" y="113.439625" style="stroke: #000000"/>
      </g>
     </g>
     <g id="text_2">
      <!-- repeat -->
      <g transform="translate(93.632549 131.54775) scale(0.12 -0.12)">
       <defs>
        <path id="Helvetica-72" d="M 428 3347 
L 963 3347 
L 963 2769 
Q 1028 2938 1284 3180 
Q 1541 3422 1875 3422 
Q 1891 3422 1928 3419 
Q 1966 3416 2056 3406 
L 2056 2813 
Q 2006 2822 1964 2825 
Q 1922 2828 1872 2828 
Q 1447 2828 1219 2554 
Q 991 2281 991 1925 
L 991 0 
L 428 0 
L 428 3347 
z
" transform="scale(0.015625)"/>
        <path id="Helvetica-65" d="M 1806 3422 
Q 2163 3422 2497 3255 
Q 2831 3088 3006 2822 
Q 3175 2569 3231 2231 
Q 3281 2000 3281 1494 
L 828 1494 
Q 844 984 1069 676 
Q 1294 369 1766 369 
Q 2206 369 2469 659 
Q 2619 828 2681 1050 
L 3234 1050 
Q 3213 866 3089 639 
Q 2966 413 2813 269 
Q 2556 19 2178 -69 
Q 1975 -119 1719 -119 
Q 1094 -119 659 336 
Q 225 791 225 1609 
Q 225 2416 662 2919 
Q 1100 3422 1806 3422 
z
M 2703 1941 
Q 2669 2306 2544 2525 
Q 2313 2931 1772 2931 
Q 1384 2931 1121 2651 
Q 859 2372 844 1941 
L 2703 1941 
z
M 1753 3428 
L 1753 3428 
z
" transform="scale(0.015625)"/>
        <path id="Helvetica-70" d="M 1825 378 
Q 2219 378 2480 708 
Q 2741 1038 2741 1694 
Q 2741 2094 2625 2381 
Q 2406 2934 1825 2934 
Q 1241 2934 1025 2350 
Q 909 2038 909 1556 
Q 909 1169 1025 897 
Q 1244 378 1825 378 
z
M 369 3331 
L 916 3331 
L 916 2888 
Q 1084 3116 1284 3241 
Q 1569 3428 1953 3428 
Q 2522 3428 2919 2992 
Q 3316 2556 3316 1747 
Q 3316 653 2744 184 
Q 2381 -113 1900 -113 
Q 1522 -113 1266 53 
Q 1116 147 931 375 
L 931 -1334 
L 369 -1334 
L 369 3331 
z
" transform="scale(0.015625)"/>
        <path id="Helvetica-74" d="M 525 4281 
L 1094 4281 
L 1094 3347 
L 1628 3347 
L 1628 2888 
L 1094 2888 
L 1094 703 
Q 1094 528 1213 469 
Q 1278 434 1431 434 
Q 1472 434 1519 436 
Q 1566 438 1628 444 
L 1628 0 
Q 1531 -28 1426 -40 
Q 1322 -53 1200 -53 
Q 806 -53 665 148 
Q 525 350 525 672 
L 525 2888 
L 72 2888 
L 72 3347 
L 525 3347 
L 525 4281 
z
" transform="scale(0.015625)"/>
       </defs>
       <use xlink:href="#Helvetica-72"/>
       <use xlink:href="#Helvetica-65" transform="translate(33.300781 0)"/>
       <use xlink:href="#Helvetica-70" transform="translate(88.916016 0)"/>
       <use xlink:href="#Helvetica-65" transform="translate(144.53125 0)"/>
       <use xlink:href="#Helvetica-61" transform="translate(200.146484 0)"/>
       <use xlink:href="#Helvetica-74" transform="translate(255.761719 0)"/>
      </g>
      <!-- win -->
      <g transform="translate(101.640674 144.37875) scale(0.12 -0.12)">
       <defs>
        <path id="Helvetica-77" d="M 672 3347 
L 1316 709 
L 1969 3347 
L 2600 3347 
L 3256 725 
L 3941 3347 
L 4503 3347 
L 3531 0 
L 2947 0 
L 2266 2591 
L 1606 0 
L 1022 0 
L 56 3347 
L 672 3347 
z
" transform="scale(0.015625)"/>
        <path id="Helvetica-6e" d="M 413 3347 
L 947 3347 
L 947 2872 
Q 1184 3166 1450 3294 
Q 1716 3422 2041 3422 
Q 2753 3422 3003 2925 
Q 3141 2653 3141 2147 
L 3141 0 
L 2569 0 
L 2569 2109 
Q 2569 2416 2478 2603 
Q 2328 2916 1934 2916 
Q 1734 2916 1606 2875 
Q 1375 2806 1200 2600 
Q 1059 2434 1017 2257 
Q 975 2081 975 1753 
L 975 0 
L 413 0 
L 413 3347 
z
M 1734 3428 
L 1734 3428 
z
" transform="scale(0.015625)"/>
       </defs>
       <use xlink:href="#Helvetica-77"/>
       <use xlink:href="#Helvetica-69" transform="translate(72.216797 0)"/>
       <use xlink:href="#Helvetica-6e" transform="translate(94.433594 0)"/>
      </g>
     </g>
    </g>
    <g id="xtick_3">
     <g id="line2d_3">
      <g>
       <use xlink:href="#mdbc3d7616d" x="158.689837" y="113.439625" style="stroke: #000000"/>
      </g>
     </g>
     <g id="text_3">
      <!-- repeat -->
      <g transform="translate(141.6789 131.54775) scale(0.12 -0.12)">
       <use xlink:href="#Helvetica-72"/>
       <use xlink:href="#Helvetica-65" transform="translate(33.300781 0)"/>
       <use xlink:href="#Helvetica-70" transform="translate(88.916016 0)"/>
       <use xlink:href="#Helvetica-65" transform="translate(144.53125 0)"/>
       <use xlink:href="#Helvetica-61" transform="translate(200.146484 0)"/>
       <use xlink:href="#Helvetica-74" transform="translate(255.761719 0)"/>
      </g>
      <!-- loss -->
      <g transform="translate(148.02015 144.37875) scale(0.12 -0.12)">
       <defs>
        <path id="Helvetica-6c" d="M 428 4591 
L 991 4591 
L 991 0 
L 428 0 
L 428 4591 
z
" transform="scale(0.015625)"/>
        <path id="Helvetica-6f" d="M 1741 363 
Q 2300 363 2508 786 
Q 2716 1209 2716 1728 
Q 2716 2197 2566 2491 
Q 2328 2953 1747 2953 
Q 1231 2953 997 2559 
Q 763 2166 763 1609 
Q 763 1075 997 719 
Q 1231 363 1741 363 
z
M 1763 3444 
Q 2409 3444 2856 3012 
Q 3303 2581 3303 1744 
Q 3303 934 2909 406 
Q 2516 -122 1688 -122 
Q 997 -122 590 345 
Q 184 813 184 1600 
Q 184 2444 612 2944 
Q 1041 3444 1763 3444 
z
M 1744 3428 
L 1744 3428 
z
" transform="scale(0.015625)"/>
       </defs>
       <use xlink:href="#Helvetica-6c"/>
       <use xlink:href="#Helvetica-6f" transform="translate(22.216797 0)"/>
       <use xlink:href="#Helvetica-73" transform="translate(77.832031 0)"/>
       <use xlink:href="#Helvetica-73" transform="translate(127.832031 0)"/>
      </g>
     </g>
    </g>
   </g>
   <g id="matplotlib.axis_2">
    <g id="ytick_1">
     <g id="line2d_4">
      <defs>
       <path id="m601025ad92" d="M 0 0 
L -6 0 
" style="stroke: #000000"/>
      </defs>
      <g>
       <use xlink:href="#m601025ad92" x="57.7925" y="105.947135" style="stroke: #000000"/>
      </g>
     </g>
     <g id="text_4">
      <!-- −2.5 -->
      <g transform="translate(24.60375 110.251198) scale(0.12 -0.12)">
       <defs>
        <path id="Helvetica-2212" d="M 3547 1894 
L 3547 1369 
L 288 1369 
L 288 1894 
L 3547 1894 
z
" transform="scale(0.015625)"/>
        <path id="Helvetica-32" d="M 200 0 
Q 231 578 439 1006 
Q 647 1434 1250 1784 
L 1850 2131 
Q 2253 2366 2416 2531 
Q 2672 2791 2672 3125 
Q 2672 3516 2437 3745 
Q 2203 3975 1813 3975 
Q 1234 3975 1013 3538 
Q 894 3303 881 2888 
L 309 2888 
Q 319 3472 525 3841 
Q 891 4491 1816 4491 
Q 2584 4491 2939 4075 
Q 3294 3659 3294 3150 
Q 3294 2613 2916 2231 
Q 2697 2009 2131 1694 
L 1703 1456 
Q 1397 1288 1222 1134 
Q 909 863 828 531 
L 3272 531 
L 3272 0 
L 200 0 
z
" transform="scale(0.015625)"/>
        <path id="Helvetica-2e" d="M 547 681 
L 1200 681 
L 1200 0 
L 547 0 
L 547 681 
z
" transform="scale(0.015625)"/>
        <path id="Helvetica-35" d="M 791 1141 
Q 847 659 1238 475 
Q 1438 381 1700 381 
Q 2200 381 2440 700 
Q 2681 1019 2681 1406 
Q 2681 1875 2395 2131 
Q 2109 2388 1709 2388 
Q 1419 2388 1211 2275 
Q 1003 2163 856 1963 
L 369 1991 
L 709 4400 
L 3034 4400 
L 3034 3856 
L 1131 3856 
L 941 2613 
Q 1097 2731 1238 2791 
Q 1488 2894 1816 2894 
Q 2431 2894 2859 2497 
Q 3288 2100 3288 1491 
Q 3288 856 2895 371 
Q 2503 -113 1644 -113 
Q 1097 -113 676 195 
Q 256 503 206 1141 
L 791 1141 
z
" transform="scale(0.015625)"/>
       </defs>
       <use xlink:href="#Helvetica-2212"/>
       <use xlink:href="#Helvetica-32" transform="translate(58.398438 0)"/>
       <use xlink:href="#Helvetica-2e" transform="translate(114.013672 0)"/>
       <use xlink:href="#Helvetica-35" transform="translate(141.796875 0)"/>
      </g>
     </g>
    </g>
    <g id="ytick_2">
     <g id="line2d_5">
      <g>
       <use xlink:href="#m601025ad92" x="57.7925" y="68.484688" style="stroke: #000000"/>
      </g>
     </g>
     <g id="text_5">
      <!-- 0.0 -->
      <g transform="translate(31.6125 72.78875) scale(0.12 -0.12)">
       <defs>
        <path id="Helvetica-30" d="M 1731 4475 
Q 2600 4475 2988 3759 
Q 3288 3206 3288 2244 
Q 3288 1331 3016 734 
Q 2622 -122 1728 -122 
Q 922 -122 528 578 
Q 200 1163 200 2147 
Q 200 2909 397 3456 
Q 766 4475 1731 4475 
z
M 1725 391 
Q 2163 391 2422 778 
Q 2681 1166 2681 2222 
Q 2681 2984 2493 3476 
Q 2306 3969 1766 3969 
Q 1269 3969 1039 3501 
Q 809 3034 809 2125 
Q 809 1441 956 1025 
Q 1181 391 1725 391 
z
" transform="scale(0.015625)"/>
       </defs>
       <use xlink:href="#Helvetica-30"/>
       <use xlink:href="#Helvetica-2e" transform="translate(55.615234 0)"/>
       <use xlink:href="#Helvetica-30" transform="translate(83.398438 0)"/>
      </g>
     </g>
    </g>
    <g id="ytick_3">
     <g id="line2d_6">
      <g>
       <use xlink:href="#m601025ad92" x="57.7925" y="31.02224" style="stroke: #000000"/>
      </g>
     </g>
     <g id="text_6">
      <!-- 2.5 -->
      <g transform="translate(31.6125 35.326302) scale(0.12 -0.12)">
       <use xlink:href="#Helvetica-32"/>
       <use xlink:href="#Helvetica-2e" transform="translate(55.615234 0)"/>
       <use xlink:href="#Helvetica-35" transform="translate(83.398438 0)"/>
      </g>
     </g>
    </g>
    <g id="text_7">
     <!-- Weight ~ P(R) -->
     <g transform="translate(15.94875 106.326875) rotate(-90) scale(0.12 -0.12)">
      <defs>
       <path id="Helvetica-57" d="M 791 4591 
L 1656 856 
L 2694 4591 
L 3369 4591 
L 4406 856 
L 5272 4591 
L 5953 4591 
L 4747 0 
L 4094 0 
L 3034 3806 
L 1969 0 
L 1316 0 
L 116 4591 
L 791 4591 
z
" transform="scale(0.015625)"/>
       <path id="Helvetica-67" d="M 1594 3406 
Q 1988 3406 2281 3213 
Q 2441 3103 2606 2894 
L 2606 3316 
L 3125 3316 
L 3125 272 
Q 3125 -366 2938 -734 
Q 2588 -1416 1616 -1416 
Q 1075 -1416 706 -1173 
Q 338 -931 294 -416 
L 866 -416 
Q 906 -641 1028 -763 
Q 1219 -950 1628 -950 
Q 2275 -950 2475 -494 
Q 2594 -225 2584 466 
Q 2416 209 2178 84 
Q 1941 -41 1550 -41 
Q 1006 -41 598 345 
Q 191 731 191 1622 
Q 191 2463 602 2934 
Q 1013 3406 1594 3406 
z
M 2606 1688 
Q 2606 2309 2350 2609 
Q 2094 2909 1697 2909 
Q 1103 2909 884 2353 
Q 769 2056 769 1575 
Q 769 1009 998 714 
Q 1228 419 1616 419 
Q 2222 419 2469 966 
Q 2606 1275 2606 1688 
z
M 1659 3428 
L 1659 3428 
z
" transform="scale(0.015625)"/>
       <path id="Helvetica-68" d="M 413 4606 
L 975 4606 
L 975 2894 
Q 1175 3147 1334 3250 
Q 1606 3428 2013 3428 
Q 2741 3428 3000 2919 
Q 3141 2641 3141 2147 
L 3141 0 
L 2563 0 
L 2563 2109 
Q 2563 2478 2469 2650 
Q 2316 2925 1894 2925 
Q 1544 2925 1259 2684 
Q 975 2444 975 1775 
L 975 0 
L 413 0 
L 413 4606 
z
" transform="scale(0.015625)"/>
       <path id="Helvetica-20" transform="scale(0.015625)"/>
       <path id="Helvetica-7e" d="M 1028 2163 
Q 1119 2163 1219 2147 
Q 1397 2122 1563 2056 
L 2256 1784 
Q 2416 1722 2519 1691 
Q 2684 1644 2809 1644 
Q 3038 1644 3197 1823 
Q 3356 2003 3413 2266 
L 3775 2266 
Q 3697 1822 3467 1456 
Q 3238 1091 2772 1091 
Q 2631 1091 2438 1147 
Q 2325 1181 2103 1266 
L 1466 1509 
Q 1347 1556 1220 1581 
Q 1094 1606 1013 1606 
Q 750 1606 600 1403 
Q 513 1284 422 1000 
L 56 1000 
Q 109 1259 171 1442 
Q 234 1625 391 1856 
Q 522 2013 673 2088 
Q 825 2163 1028 2163 
z
" transform="scale(0.015625)"/>
       <path id="Helvetica-50" d="M 547 4591 
L 2613 4591 
Q 3225 4591 3600 4245 
Q 3975 3900 3975 3275 
Q 3975 2738 3640 2339 
Q 3306 1941 2613 1941 
L 1169 1941 
L 1169 0 
L 547 0 
L 547 4591 
z
M 3347 3272 
Q 3347 3778 2972 3959 
Q 2766 4056 2406 4056 
L 1169 4056 
L 1169 2466 
L 2406 2466 
Q 2825 2466 3086 2644 
Q 3347 2822 3347 3272 
z
" transform="scale(0.015625)"/>
       <path id="Helvetica-28" d="M 1894 4666 
Q 1403 3713 1256 3263 
Q 1034 2578 1034 1681 
Q 1034 775 1288 25 
Q 1444 -438 1903 -1306 
L 1525 -1306 
Q 1069 -594 959 -397 
Q 850 -200 722 138 
Q 547 600 478 1125 
Q 444 1397 444 1644 
Q 444 2569 734 3291 
Q 919 3750 1503 4666 
L 1894 4666 
z
" transform="scale(0.015625)"/>
       <path id="Helvetica-52" d="M 2622 2488 
Q 3059 2488 3314 2663 
Q 3569 2838 3569 3294 
Q 3569 3784 3213 3963 
Q 3022 4056 2703 4056 
L 1184 4056 
L 1184 2488 
L 2622 2488 
z
M 563 4591 
L 2688 4591 
Q 3213 4591 3553 4438 
Q 4200 4144 4200 3353 
Q 4200 2941 4029 2678 
Q 3859 2416 3553 2256 
Q 3822 2147 3958 1969 
Q 4094 1791 4109 1391 
L 4131 775 
Q 4141 513 4175 384 
Q 4231 166 4375 103 
L 4375 0 
L 3613 0 
Q 3581 59 3562 153 
Q 3544 247 3531 516 
L 3494 1281 
Q 3472 1731 3159 1884 
Q 2981 1969 2600 1969 
L 1184 1969 
L 1184 0 
L 563 0 
L 563 4591 
z
" transform="scale(0.015625)"/>
       <path id="Helvetica-29" d="M 222 -1306 
Q 719 -338 863 106 
Q 1081 778 1081 1681 
Q 1081 2584 828 3334 
Q 672 3797 213 4666 
L 591 4666 
Q 1072 3897 1173 3717 
Q 1275 3538 1394 3222 
Q 1544 2831 1608 2450 
Q 1672 2069 1672 1716 
Q 1672 791 1378 66 
Q 1194 -400 613 -1306 
L 222 -1306 
z
" transform="scale(0.015625)"/>
      </defs>
      <use xlink:href="#Helvetica-57"/>
      <use xlink:href="#Helvetica-65" transform="translate(94.384766 0)"/>
      <use xlink:href="#Helvetica-69" transform="translate(150 0)"/>
      <use xlink:href="#Helvetica-67" transform="translate(172.216797 0)"/>
      <use xlink:href="#Helvetica-68" transform="translate(227.832031 0)"/>
      <use xlink:href="#Helvetica-74" transform="translate(283.447266 0)"/>
      <use xlink:href="#Helvetica-20" transform="translate(311.230469 0)"/>
      <use xlink:href="#Helvetica-7e" transform="translate(339.013672 0)"/>
      <use xlink:href="#Helvetica-20" transform="translate(397.412109 0)"/>
      <use xlink:href="#Helvetica-50" transform="translate(425.195312 0)"/>
      <use xlink:href="#Helvetica-28" transform="translate(491.894531 0)"/>
      <use xlink:href="#Helvetica-52" transform="translate(525.195312 0)"/>
      <use xlink:href="#Helvetica-29" transform="translate(597.412109 0)"/>
     </g>
    </g>
   </g>
   <g id="line2d_7">
    <path d="M 57.7925 68.484688 
L 163.494472 68.484688 
" clip-path="url(#p58e7f1c421)" style="fill: none; stroke-dasharray: 3.7,1.6; stroke-dashoffset: 0; stroke: #808080; stroke-opacity: 0.7"/>
   </g>
   <g id="line2d_8">
    <path d="M 62.597135 35.555928 
L 110.643486 68.324707 
L 158.689837 68.438401 
" clip-path="url(#p58e7f1c421)" style="fill: none; stroke: #808080; stroke-linecap: square"/>
    <defs>
     <path id="m9b23f6cef7" d="M 0 4 
C 1.060812 4 2.078319 3.578535 2.828427 2.828427 
C 3.578535 2.078319 4 1.060812 4 0 
C 4 -1.060812 3.578535 -2.078319 2.828427 -2.828427 
C 2.078319 -3.578535 1.060812 -4 0 -4 
C -1.060812 -4 -2.078319 -3.578535 -2.828427 -2.828427 
C -3.578535 -2.078319 -4 -1.060812 -4 0 
C -4 1.060812 -3.578535 2.078319 -2.828427 2.828427 
C -2.078319 3.578535 -1.060812 4 0 4 
z
" style="stroke: #808080"/>
    </defs>
    <g clip-path="url(#p58e7f1c421)">
     <use xlink:href="#m9b23f6cef7" x="62.597135" y="35.555928" style="fill: #808080; stroke: #808080"/>
     <use xlink:href="#m9b23f6cef7" x="110.643486" y="68.324707" style="fill: #808080; stroke: #808080"/>
     <use xlink:href="#m9b23f6cef7" x="158.689837" y="68.438401" style="fill: #808080; stroke: #808080"/>
    </g>
   </g>
   <g id="line2d_9">
    <path d="M 62.597135 35.26927 
L 110.643486 67.067335 
L 158.689837 69.527703 
" clip-path="url(#p58e7f1c421)" style="fill: none; stroke: #ff69b4; stroke-linecap: square"/>
    <defs>
     <path id="mfd2c38a7b5" d="M 0 2.5 
C 0.663008 2.5 1.29895 2.236584 1.767767 1.767767 
C 2.236584 1.29895 2.5 0.663008 2.5 0 
C 2.5 -0.663008 2.236584 -1.29895 1.767767 -1.767767 
C 1.29895 -2.236584 0.663008 -2.5 0 -2.5 
C -0.663008 -2.5 -1.29895 -2.236584 -1.767767 -1.767767 
C -2.236584 -1.29895 -2.5 -0.663008 -2.5 0 
C -2.5 0.663008 -2.236584 1.29895 -1.767767 1.767767 
C -1.29895 2.236584 -0.663008 2.5 0 2.5 
z
" style="stroke: #ff69b4"/>
    </defs>
    <g clip-path="url(#p58e7f1c421)">
     <use xlink:href="#mfd2c38a7b5" x="62.597135" y="35.26927" style="fill: #ff69b4; stroke: #ff69b4"/>
     <use xlink:href="#mfd2c38a7b5" x="110.643486" y="67.067335" style="fill: #ff69b4; stroke: #ff69b4"/>
     <use xlink:href="#mfd2c38a7b5" x="158.689837" y="69.527703" style="fill: #ff69b4; stroke: #ff69b4"/>
    </g>
   </g>
   <g id="patch_3">
    <path d="M 57.7925 113.439625 
L 57.7925 23.52975 
" style="fill: none; stroke: #000000; stroke-linejoin: miter; stroke-linecap: square"/>
   </g>
   <g id="patch_4">
    <path d="M 57.7925 113.439625 
L 163.494472 113.439625 
" style="fill: none; stroke: #000000; stroke-linejoin: miter; stroke-linecap: square"/>
   </g>
   <g id="text_8">
    <!-- Biased -->
    <g transform="translate(88.629486 17.52975) scale(0.144 -0.144)">
     <defs>
      <path id="Helvetica-42" d="M 2213 2650 
Q 2606 2650 2825 2759 
Q 3169 2931 3169 3378 
Q 3169 3828 2803 3984 
Q 2597 4072 2191 4072 
L 1081 4072 
L 1081 2650 
L 2213 2650 
z
M 2422 531 
Q 2994 531 3238 863 
Q 3391 1072 3391 1369 
Q 3391 1869 2944 2050 
Q 2706 2147 2316 2147 
L 1081 2147 
L 1081 531 
L 2422 531 
z
M 472 4591 
L 2444 4591 
Q 3250 4591 3591 4109 
Q 3791 3825 3791 3453 
Q 3791 3019 3544 2741 
Q 3416 2594 3175 2472 
Q 3528 2338 3703 2169 
Q 4013 1869 4013 1341 
Q 4013 897 3734 538 
Q 3319 0 2413 0 
L 472 0 
L 472 4591 
z
" transform="scale(0.015625)"/>
      <path id="Helvetica-64" d="M 769 1634 
Q 769 1097 997 734 
Q 1225 372 1728 372 
Q 2119 372 2370 708 
Q 2622 1044 2622 1672 
Q 2622 2306 2362 2611 
Q 2103 2916 1722 2916 
Q 1297 2916 1033 2591 
Q 769 2266 769 1634 
z
M 1616 3406 
Q 2000 3406 2259 3244 
Q 2409 3150 2600 2916 
L 2600 4606 
L 3141 4606 
L 3141 0 
L 2634 0 
L 2634 466 
Q 2438 156 2169 18 
Q 1900 -119 1553 -119 
Q 994 -119 584 351 
Q 175 822 175 1603 
Q 175 2334 548 2870 
Q 922 3406 1616 3406 
z
" transform="scale(0.015625)"/>
     </defs>
     <use xlink:href="#Helvetica-42"/>
     <use xlink:href="#Helvetica-69" transform="translate(66.699219 0)"/>
     <use xlink:href="#Helvetica-61" transform="translate(88.916016 0)"/>
     <use xlink:href="#Helvetica-73" transform="translate(144.53125 0)"/>
     <use xlink:href="#Helvetica-65" transform="translate(194.53125 0)"/>
     <use xlink:href="#Helvetica-64" transform="translate(250.146484 0)"/>
    </g>
   </g>
  </g>
  <g id="axes_2">
   <g id="patch_5">
    <path d="M 189.054343 113.439625 
L 294.756315 113.439625 
L 294.756315 23.52975 
L 189.054343 23.52975 
L 189.054343 113.439625 
z
" style="fill: none"/>
   </g>
   <g id="FillBetweenPolyCollection_3">
    <defs>
     <path id="mcfb2b31291" d="M 193.858978 -116.214826 
L 193.858978 -118.431852 
L 241.905329 -151.304874 
L 289.95168 -151.261823 
L 289.95168 -148.281521 
L 289.95168 -148.281521 
L 241.905329 -148.636217 
L 193.858978 -116.214826 
z
" style="stroke: #808080; stroke-opacity: 0.3"/>
    </defs>
    <g clip-path="url(#pb90d3d62a6)">
     <use xlink:href="#mcfb2b31291" x="0" y="185.765625" style="fill: #808080; fill-opacity: 0.3; stroke: #808080; stroke-opacity: 0.3"/>
    </g>
   </g>
   <g id="FillBetweenPolyCollection_4">
    <defs>
     <path id="m289009d046" d="M 193.858978 -121.904811 
L 193.858978 -108.885603 
L 241.905329 -144.665386 
L 289.95168 -144.847639 
L 289.95168 -152.49789 
L 289.95168 -152.49789 
L 241.905329 -152.089913 
L 193.858978 -121.904811 
z
" style="stroke: #ff69b4; stroke-opacity: 0.3"/>
    </defs>
    <g clip-path="url(#pb90d3d62a6)">
     <use xlink:href="#m289009d046" x="0" y="185.765625" style="fill: #ff69b4; fill-opacity: 0.3; stroke: #ff69b4; stroke-opacity: 0.3"/>
    </g>
   </g>
   <g id="matplotlib.axis_3">
    <g id="xtick_4">
     <g id="line2d_10">
      <g>
       <use xlink:href="#mdbc3d7616d" x="193.858978" y="113.439625" style="stroke: #000000"/>
      </g>
     </g>
    </g>
    <g id="xtick_5">
     <g id="line2d_11">
      <g>
       <use xlink:href="#mdbc3d7616d" x="241.905329" y="113.439625" style="stroke: #000000"/>
      </g>
     </g>
    </g>
    <g id="xtick_6">
     <g id="line2d_12">
      <g>
       <use xlink:href="#mdbc3d7616d" x="289.95168" y="113.439625" style="stroke: #000000"/>
      </g>
     </g>
    </g>
   </g>
   <g id="matplotlib.axis_4"/>
   <g id="line2d_13">
    <path d="M 189.054343 68.484688 
L 294.756315 68.484688 
" clip-path="url(#pb90d3d62a6)" style="fill: none; stroke-dasharray: 3.7,1.6; stroke-dashoffset: 0; stroke: #808080; stroke-opacity: 0.7"/>
   </g>
   <g id="line2d_14">
    <path d="M 193.858978 68.442286 
L 241.905329 35.795079 
L 289.95168 35.993953 
" clip-path="url(#pb90d3d62a6)" style="fill: none; stroke: #808080; stroke-linecap: square"/>
    <g clip-path="url(#pb90d3d62a6)">
     <use xlink:href="#m9b23f6cef7" x="193.858978" y="68.442286" style="fill: #808080; stroke: #808080"/>
     <use xlink:href="#m9b23f6cef7" x="241.905329" y="35.795079" style="fill: #808080; stroke: #808080"/>
     <use xlink:href="#m9b23f6cef7" x="289.95168" y="35.993953" style="fill: #808080; stroke: #808080"/>
    </g>
   </g>
   <g id="line2d_15">
    <path d="M 193.858978 70.370418 
L 241.905329 37.387975 
L 289.95168 37.09286 
" clip-path="url(#pb90d3d62a6)" style="fill: none; stroke: #ff69b4; stroke-linecap: square"/>
    <g clip-path="url(#pb90d3d62a6)">
     <use xlink:href="#mfd2c38a7b5" x="193.858978" y="70.370418" style="fill: #ff69b4; stroke: #ff69b4"/>
     <use xlink:href="#mfd2c38a7b5" x="241.905329" y="37.387975" style="fill: #ff69b4; stroke: #ff69b4"/>
     <use xlink:href="#mfd2c38a7b5" x="289.95168" y="37.09286" style="fill: #ff69b4; stroke: #ff69b4"/>
    </g>
   </g>
   <g id="patch_6">
    <path d="M 189.054343 113.439625 
L 294.756315 113.439625 
" style="fill: none; stroke: #000000; stroke-linejoin: miter; stroke-linecap: square"/>
   </g>
   <g id="text_9">
    <!-- Perseverant -->
    <g transform="translate(203.088329 17.52975) scale(0.144 -0.144)">
     <defs>
      <path id="Helvetica-76" d="M 688 3347 
L 1581 622 
L 2516 3347 
L 3131 3347 
L 1869 0 
L 1269 0 
L 34 3347 
L 688 3347 
z
" transform="scale(0.015625)"/>
     </defs>
     <use xlink:href="#Helvetica-50"/>
     <use xlink:href="#Helvetica-65" transform="translate(66.699219 0)"/>
     <use xlink:href="#Helvetica-72" transform="translate(122.314453 0)"/>
     <use xlink:href="#Helvetica-73" transform="translate(155.615234 0)"/>
     <use xlink:href="#Helvetica-65" transform="translate(205.615234 0)"/>
     <use xlink:href="#Helvetica-76" transform="translate(261.230469 0)"/>
     <use xlink:href="#Helvetica-65" transform="translate(311.230469 0)"/>
     <use xlink:href="#Helvetica-72" transform="translate(366.845703 0)"/>
     <use xlink:href="#Helvetica-61" transform="translate(400.146484 0)"/>
     <use xlink:href="#Helvetica-6e" transform="translate(455.761719 0)"/>
     <use xlink:href="#Helvetica-74" transform="translate(511.376953 0)"/>
    </g>
   </g>
  </g>
  <g id="axes_3">
   <g id="patch_7">
    <path d="M 320.316185 113.439625 
L 426.018157 113.439625 
L 426.018157 23.52975 
L 320.316185 23.52975 
L 320.316185 113.439625 
z
" style="fill: none"/>
   </g>
   <g id="FillBetweenPolyCollection_5">
    <defs>
     <path id="mf6e756b0f6" d="M 325.12082 -116.122409 
L 325.12082 -118.191189 
L 373.167171 -151.661429 
L 421.213522 -86.030841 
L 421.213522 -83.170648 
L 421.213522 -83.170648 
L 373.167171 -148.512014 
L 325.12082 -116.122409 
z
" style="stroke: #808080; stroke-opacity: 0.3"/>
    </defs>
    <g clip-path="url(#p7eee459b5b)">
     <use xlink:href="#mf6e756b0f6" x="0" y="185.765625" style="fill: #808080; fill-opacity: 0.3; stroke: #808080; stroke-opacity: 0.3"/>
    </g>
   </g>
   <g id="FillBetweenPolyCollection_6">
    <defs>
     <path id="m76446e1ead" d="M 325.12082 -120.492526 
L 325.12082 -113.675838 
L 373.167171 -147.649016 
L 421.213522 -79.893682 
L 421.213522 -91.411711 
L 421.213522 -91.411711 
L 373.167171 -156.478992 
L 325.12082 -120.492526 
z
" style="stroke: #ff69b4; stroke-opacity: 0.3"/>
    </defs>
    <g clip-path="url(#p7eee459b5b)">
     <use xlink:href="#m76446e1ead" x="0" y="185.765625" style="fill: #ff69b4; fill-opacity: 0.3; stroke: #ff69b4; stroke-opacity: 0.3"/>
    </g>
   </g>
   <g id="matplotlib.axis_5">
    <g id="xtick_7">
     <g id="line2d_16">
      <g>
       <use xlink:href="#mdbc3d7616d" x="325.12082" y="113.439625" style="stroke: #000000"/>
      </g>
     </g>
    </g>
    <g id="xtick_8">
     <g id="line2d_17">
      <g>
       <use xlink:href="#mdbc3d7616d" x="373.167171" y="113.439625" style="stroke: #000000"/>
      </g>
     </g>
    </g>
    <g id="xtick_9">
     <g id="line2d_18">
      <g>
       <use xlink:href="#mdbc3d7616d" x="421.213522" y="113.439625" style="stroke: #000000"/>
      </g>
     </g>
    </g>
   </g>
   <g id="matplotlib.axis_6"/>
   <g id="line2d_19">
    <path d="M 320.316185 68.484688 
L 426.018157 68.484688 
" clip-path="url(#p7eee459b5b)" style="fill: none; stroke-dasharray: 3.7,1.6; stroke-dashoffset: 0; stroke: #808080; stroke-opacity: 0.7"/>
   </g>
   <g id="line2d_20">
    <path d="M 325.12082 68.608826 
L 373.167171 35.678903 
L 421.213522 101.16488 
" clip-path="url(#p7eee459b5b)" style="fill: none; stroke: #808080; stroke-linecap: square"/>
    <g clip-path="url(#p7eee459b5b)">
     <use xlink:href="#m9b23f6cef7" x="325.12082" y="68.608826" style="fill: #808080; stroke: #808080"/>
     <use xlink:href="#m9b23f6cef7" x="373.167171" y="35.678903" style="fill: #808080; stroke: #808080"/>
     <use xlink:href="#m9b23f6cef7" x="421.213522" y="101.16488" style="fill: #808080; stroke: #808080"/>
    </g>
   </g>
   <g id="line2d_21">
    <path d="M 325.12082 68.681443 
L 373.167171 33.701621 
L 421.213522 100.112929 
" clip-path="url(#p7eee459b5b)" style="fill: none; stroke: #ff69b4; stroke-linecap: square"/>
    <g clip-path="url(#p7eee459b5b)">
     <use xlink:href="#mfd2c38a7b5" x="325.12082" y="68.681443" style="fill: #ff69b4; stroke: #ff69b4"/>
     <use xlink:href="#mfd2c38a7b5" x="373.167171" y="33.701621" style="fill: #ff69b4; stroke: #ff69b4"/>
     <use xlink:href="#mfd2c38a7b5" x="421.213522" y="100.112929" style="fill: #ff69b4; stroke: #ff69b4"/>
    </g>
   </g>
   <g id="patch_8">
    <path d="M 320.316185 113.439625 
L 426.018157 113.439625 
" style="fill: none; stroke: #000000; stroke-linejoin: miter; stroke-linecap: square"/>
   </g>
   <g id="text_10">
    <!-- WSLS -->
    <g transform="translate(352.761921 17.52975) scale(0.144 -0.144)">
     <defs>
      <path id="Helvetica-53" d="M 894 1481 
Q 916 1091 1078 847 
Q 1388 391 2169 391 
Q 2519 391 2806 491 
Q 3363 684 3363 1184 
Q 3363 1559 3128 1719 
Q 2891 1875 2384 1991 
L 1763 2131 
Q 1153 2269 900 2434 
Q 463 2722 463 3294 
Q 463 3913 891 4309 
Q 1319 4706 2103 4706 
Q 2825 4706 3329 4357 
Q 3834 4009 3834 3244 
L 3250 3244 
Q 3203 3613 3050 3809 
Q 2766 4169 2084 4169 
Q 1534 4169 1293 3937 
Q 1053 3706 1053 3400 
Q 1053 3063 1334 2906 
Q 1519 2806 2169 2656 
L 2813 2509 
Q 3278 2403 3531 2219 
Q 3969 1897 3969 1284 
Q 3969 522 3414 194 
Q 2859 -134 2125 -134 
Q 1269 -134 784 303 
Q 300 738 309 1481 
L 894 1481 
z
M 2150 4716 
L 2150 4716 
z
" transform="scale(0.015625)"/>
      <path id="Helvetica-4c" d="M 488 4591 
L 1109 4591 
L 1109 547 
L 3434 547 
L 3434 0 
L 488 0 
L 488 4591 
z
" transform="scale(0.015625)"/>
     </defs>
     <use xlink:href="#Helvetica-57"/>
     <use xlink:href="#Helvetica-53" transform="translate(94.384766 0)"/>
     <use xlink:href="#Helvetica-4c" transform="translate(161.083984 0)"/>
     <use xlink:href="#Helvetica-53" transform="translate(216.699219 0)"/>
    </g>
   </g>
  </g>
  <g id="axes_4">
   <g id="patch_9">
    <path d="M 451.578028 113.439625 
L 557.28 113.439625 
L 557.28 23.52975 
L 451.578028 23.52975 
L 451.578028 113.439625 
z
" style="fill: none"/>
   </g>
   <g id="FillBetweenPolyCollection_7">
    <defs>
     <path id="m40b8fe4a9f" d="M 456.382663 -116.565957 
L 456.382663 -117.809574 
L 504.429014 -118.169934 
L 552.475365 -118.136144 
L 552.475365 -116.183826 
L 552.475365 -116.183826 
L 504.429014 -116.214973 
L 456.382663 -116.565957 
z
" style="stroke: #808080; stroke-opacity: 0.3"/>
    </defs>
    <g clip-path="url(#p97e6580dd4)">
     <use xlink:href="#m40b8fe4a9f" x="0" y="185.765625" style="fill: #808080; fill-opacity: 0.3; stroke: #808080; stroke-opacity: 0.3"/>
    </g>
   </g>
   <g id="FillBetweenPolyCollection_8">
    <defs>
     <path id="m113e52b091" d="M 456.382663 -118.568545 
L 456.382663 -116.228804 
L 504.429014 -113.867372 
L 552.475365 -115.267779 
L 552.475365 -119.169752 
L 552.475365 -119.169752 
L 504.429014 -118.134255 
L 456.382663 -118.568545 
z
" style="stroke: #ff69b4; stroke-opacity: 0.3"/>
    </defs>
    <g clip-path="url(#p97e6580dd4)">
     <use xlink:href="#m113e52b091" x="0" y="185.765625" style="fill: #ff69b4; fill-opacity: 0.3; stroke: #ff69b4; stroke-opacity: 0.3"/>
    </g>
   </g>
   <g id="matplotlib.axis_7">
    <g id="xtick_10">
     <g id="line2d_22">
      <g>
       <use xlink:href="#mdbc3d7616d" x="456.382663" y="113.439625" style="stroke: #000000"/>
      </g>
     </g>
    </g>
    <g id="xtick_11">
     <g id="line2d_23">
      <g>
       <use xlink:href="#mdbc3d7616d" x="504.429014" y="113.439625" style="stroke: #000000"/>
      </g>
     </g>
    </g>
    <g id="xtick_12">
     <g id="line2d_24">
      <g>
       <use xlink:href="#mdbc3d7616d" x="552.475365" y="113.439625" style="stroke: #000000"/>
      </g>
     </g>
    </g>
   </g>
   <g id="matplotlib.axis_8"/>
   <g id="line2d_25">
    <path d="M 451.578028 68.484688 
L 557.28 68.484688 
" clip-path="url(#p97e6580dd4)" style="fill: none; stroke-dasharray: 3.7,1.6; stroke-dashoffset: 0; stroke: #808080; stroke-opacity: 0.7"/>
   </g>
   <g id="line2d_26">
    <path d="M 456.382663 68.577859 
L 504.429014 68.573171 
L 552.475365 68.60564 
" clip-path="url(#p97e6580dd4)" style="fill: none; stroke: #808080; stroke-linecap: square"/>
    <g clip-path="url(#p97e6580dd4)">
     <use xlink:href="#m9b23f6cef7" x="456.382663" y="68.577859" style="fill: #808080; stroke: #808080"/>
     <use xlink:href="#m9b23f6cef7" x="504.429014" y="68.573171" style="fill: #808080; stroke: #808080"/>
     <use xlink:href="#m9b23f6cef7" x="552.475365" y="68.60564" style="fill: #808080; stroke: #808080"/>
    </g>
   </g>
   <g id="line2d_27">
    <path d="M 456.382663 68.36695 
L 504.429014 69.764811 
L 552.475365 68.546859 
" clip-path="url(#p97e6580dd4)" style="fill: none; stroke: #ff69b4; stroke-linecap: square"/>
    <g clip-path="url(#p97e6580dd4)">
     <use xlink:href="#mfd2c38a7b5" x="456.382663" y="68.36695" style="fill: #ff69b4; stroke: #ff69b4"/>
     <use xlink:href="#mfd2c38a7b5" x="504.429014" y="69.764811" style="fill: #ff69b4; stroke: #ff69b4"/>
     <use xlink:href="#mfd2c38a7b5" x="552.475365" y="68.546859" style="fill: #ff69b4; stroke: #ff69b4"/>
    </g>
   </g>
   <g id="patch_10">
    <path d="M 451.578028 113.439625 
L 557.28 113.439625 
" style="fill: none; stroke: #000000; stroke-linejoin: miter; stroke-linecap: square"/>
   </g>
   <g id="text_11">
    <!-- Random -->
    <g transform="translate(477.216389 17.52975) scale(0.144 -0.144)">
     <defs>
      <path id="Helvetica-6d" d="M 413 3347 
L 969 3347 
L 969 2872 
Q 1169 3119 1331 3231 
Q 1609 3422 1963 3422 
Q 2363 3422 2606 3225 
Q 2744 3113 2856 2894 
Q 3044 3163 3297 3292 
Q 3550 3422 3866 3422 
Q 4541 3422 4784 2934 
Q 4916 2672 4916 2228 
L 4916 0 
L 4331 0 
L 4331 2325 
Q 4331 2659 4164 2784 
Q 3997 2909 3756 2909 
Q 3425 2909 3186 2687 
Q 2947 2466 2947 1947 
L 2947 0 
L 2375 0 
L 2375 2184 
Q 2375 2525 2294 2681 
Q 2166 2916 1816 2916 
Q 1497 2916 1236 2669 
Q 975 2422 975 1775 
L 975 0 
L 413 0 
L 413 3347 
z
" transform="scale(0.015625)"/>
     </defs>
     <use xlink:href="#Helvetica-52"/>
     <use xlink:href="#Helvetica-61" transform="translate(72.216797 0)"/>
     <use xlink:href="#Helvetica-6e" transform="translate(127.832031 0)"/>
     <use xlink:href="#Helvetica-64" transform="translate(183.447266 0)"/>
     <use xlink:href="#Helvetica-6f" transform="translate(239.0625 0)"/>
     <use xlink:href="#Helvetica-6d" transform="translate(294.677734 0)"/>
    </g>
   </g>
  </g>
  <g id="legend_1">
   <g id="line2d_28">
    <path d="M 155.599688 166.910625 
L 167.599688 166.910625 
L 179.599688 166.910625 
" style="fill: none; stroke: #808080; stroke-linecap: square"/>
    <g>
     <use xlink:href="#m9b23f6cef7" x="167.599688" y="166.910625" style="fill: #808080; stroke: #808080"/>
    </g>
   </g>
   <g id="text_12">
    <!-- ground truth -->
    <g transform="translate(189.199688 171.110625) scale(0.12 -0.12)">
     <defs>
      <path id="Helvetica-75" d="M 975 3347 
L 975 1125 
Q 975 869 1056 706 
Q 1206 406 1616 406 
Q 2203 406 2416 931 
Q 2531 1213 2531 1703 
L 2531 3347 
L 3094 3347 
L 3094 0 
L 2563 0 
L 2569 494 
Q 2459 303 2297 172 
Q 1975 -91 1516 -91 
Q 800 -91 541 388 
Q 400 644 400 1072 
L 400 3347 
L 975 3347 
z
M 1747 3428 
L 1747 3428 
z
" transform="scale(0.015625)"/>
     </defs>
     <use xlink:href="#Helvetica-67"/>
     <use xlink:href="#Helvetica-72" transform="translate(55.615234 0)"/>
     <use xlink:href="#Helvetica-6f" transform="translate(88.916016 0)"/>
     <use xlink:href="#Helvetica-75" transform="translate(144.53125 0)"/>
     <use xlink:href="#Helvetica-6e" transform="translate(200.146484 0)"/>
     <use xlink:href="#Helvetica-64" transform="translate(255.761719 0)"/>
     <use xlink:href="#Helvetica-20" transform="translate(311.376953 0)"/>
     <use xlink:href="#Helvetica-74" transform="translate(339.160156 0)"/>
     <use xlink:href="#Helvetica-72" transform="translate(366.943359 0)"/>
     <use xlink:href="#Helvetica-75" transform="translate(400.244141 0)"/>
     <use xlink:href="#Helvetica-74" transform="translate(455.859375 0)"/>
     <use xlink:href="#Helvetica-68" transform="translate(483.642578 0)"/>
    </g>
   </g>
   <g id="line2d_29">
    <path d="M 277.904063 166.910625 
L 289.904063 166.910625 
L 301.904063 166.910625 
" style="fill: none; stroke: #ff69b4; stroke-linecap: square"/>
    <g>
     <use xlink:href="#mfd2c38a7b5" x="289.904063" y="166.910625" style="fill: #ff69b4; stroke: #ff69b4"/>
    </g>
   </g>
   <g id="text_13">
    <!-- recovered weights -->
    <g transform="translate(311.504063 171.110625) scale(0.12 -0.12)">
     <defs>
      <path id="Helvetica-63" d="M 1703 3444 
Q 2269 3444 2623 3169 
Q 2978 2894 3050 2222 
L 2503 2222 
Q 2453 2531 2275 2736 
Q 2097 2941 1703 2941 
Q 1166 2941 934 2416 
Q 784 2075 784 1575 
Q 784 1072 996 728 
Q 1209 384 1666 384 
Q 2016 384 2220 598 
Q 2425 813 2503 1184 
L 3050 1184 
Q 2956 519 2581 211 
Q 2206 -97 1622 -97 
Q 966 -97 575 383 
Q 184 863 184 1581 
Q 184 2463 612 2953 
Q 1041 3444 1703 3444 
z
M 1616 3428 
L 1616 3428 
z
" transform="scale(0.015625)"/>
     </defs>
     <use xlink:href="#Helvetica-72"/>
     <use xlink:href="#Helvetica-65" transform="translate(33.300781 0)"/>
     <use xlink:href="#Helvetica-63" transform="translate(88.916016 0)"/>
     <use xlink:href="#Helvetica-6f" transform="translate(138.916016 0)"/>
     <use xlink:href="#Helvetica-76" transform="translate(194.53125 0)"/>
     <use xlink:href="#Helvetica-65" transform="translate(244.53125 0)"/>
     <use xlink:href="#Helvetica-72" transform="translate(300.146484 0)"/>
     <use xlink:href="#Helvetica-65" transform="translate(333.447266 0)"/>
     <use xlink:href="#Helvetica-64" transform="translate(389.0625 0)"/>
     <use xlink:href="#Helvetica-20" transform="translate(444.677734 0)"/>
     <use xlink:href="#Helvetica-77" transform="translate(472.460938 0)"/>
     <use xlink:href="#Helvetica-65" transform="translate(544.677734 0)"/>
     <use xlink:href="#Helvetica-69" transform="translate(600.292969 0)"/>
     <use xlink:href="#Helvetica-67" transform="translate(622.509766 0)"/>
     <use xlink:href="#Helvetica-68" transform="translate(678.125 0)"/>
     <use xlink:href="#Helvetica-74" transform="translate(733.740234 0)"/>
     <use xlink:href="#Helvetica-73" transform="translate(761.523438 0)"/>
    </g>
   </g>
  </g>
 </g>
 <defs>
  <clipPath id="p58e7f1c421">
   <rect x="57.7925" y="23.52975" width="105.701972" height="89.909875"/>
  </clipPath>
  <clipPath id="pb90d3d62a6">
   <rect x="189.054343" y="23.52975" width="105.701972" height="89.909875"/>
  </clipPath>
  <clipPath id="p7eee459b5b">
   <rect x="320.316185" y="23.52975" width="105.701972" height="89.909875"/>
  </clipPath>
  <clipPath id="p97e6580dd4">
   <rect x="451.578028" y="23.52975" width="105.701972" height="89.909875"/>
  </clipPath>
 </defs>
</svg>
