<?xml version="1.0" encoding="UTF-8" standalone="no"?>
<!-- Created with Inkscape (http://www.inkscape.org/) -->

<svg
   width="62.719654mm"
   height="71.520584mm"
   viewBox="0 0 62.719654 71.520584"
   version="1.1"
   id="svg10026"
   inkscape:version="1.2.2 (b0a8486541, 2022-12-01)"
   sodipodi:docname="animal-experimenter-interaction.svg"
   xmlns:inkscape="http://www.inkscape.org/namespaces/inkscape"
   xmlns:sodipodi="http://sodipodi.sourceforge.net/DTD/sodipodi-0.dtd"
   xmlns="http://www.w3.org/2000/svg"
   xmlns:svg="http://www.w3.org/2000/svg">
  <sodipodi:namedview
     id="namedview10028"
     pagecolor="#ffffff"
     bordercolor="#000000"
     borderopacity="0.25"
     inkscape:showpageshadow="2"
     inkscape:pageopacity="0.0"
     inkscape:pagecheckerboard="0"
     inkscape:deskcolor="#d1d1d1"
     inkscape:document-units="mm"
     showgrid="false"
     inkscape:zoom="0.93806818"
     inkscape:cx="-22.919443"
     inkscape:cy="377.37129"
     inkscape:window-width="1633"
     inkscape:window-height="1379"
     inkscape:window-x="0"
     inkscape:window-y="59"
     inkscape:window-maximized="1"
     inkscape:current-layer="layer1" />
  <defs
     id="defs10023" />
  <g
     inkscape:label="Layer 1"
     inkscape:groupmode="layer"
     id="layer1"
     transform="translate(-78.358122,-48.855092)">
    <g
       id="g8537"
       transform="translate(43.983238,27.290504)">
      <path
         d="m 40.773138,85.079593 c 1.546611,1.61517 3.842795,2.780219 7.119544,2.884669 3.016974,0.09617 4.985452,0.403376 6.279819,0.797538 l 0.175227,-0.16395 C 50.101241,86.714678 44.223153,87.743829 41.327444,84.55036 37.949453,80.825019 39.299143,75.879138 39.299143,75.879138 L 38.458158,75.06528 c -0.87507,2.054109 -0.685613,6.880709 2.31498,10.014313 z"
         id="path2407"
         style="fill:#000000;fill-opacity:0.313725;fill-rule:evenodd;stroke:none;stroke-width:0.124;stroke-linecap:butt;stroke-linejoin:miter;stroke-miterlimit:4;stroke-dasharray:none;stroke-opacity:1" />
      <g
         id="g554"
         style="fill:#5a5a5a;fill-opacity:1;stroke-width:1.00118;stroke-dasharray:none"
         transform="matrix(-0.08461899,-0.09043957,0.09043957,-0.08461899,51.62387,98.704765)">
        <path
           d="m 227.1271,51.998016 c -1.88857,-23.2923 -78.06067,-85.61493 -144.789961,-22.66277 -66.72928,62.95215 -72.3949801,33.36464 -78.6901901,34.62368 -6.29522,1.25904 6.26581,14.89338 23.9218101,12.59043 43.43699,-5.66569 72.39498,-59.80455 112.684361,-59.17503 40.59797,0.63434 62.32264,35.88274 62.32264,35.88274 z"
           id="path3264"
           style="fill:#5a5a5a;fill-opacity:1;fill-rule:evenodd;stroke:#000000;stroke-width:1.00118;stroke-linecap:butt;stroke-linejoin:miter;stroke-miterlimit:4;stroke-dasharray:none;stroke-opacity:1" />
        <path
           d="m 317.14868,151.46242 c 0,56.98933 -61.81769,161.78704 -103.24154,161.78704 -42.58485,0 -103.24154,-104.79771 -103.24154,-161.78704 0,-56.989334 46.25221,-103.241544 103.24154,-103.241544 56.98933,0 103.24154,46.25221 103.24154,103.241544 z"
           id="path2383"
           style="fill:#5a5a5a;fill-opacity:1;fill-rule:nonzero;stroke:#000000;stroke-width:1.00118;stroke-linecap:round;stroke-linejoin:miter;stroke-miterlimit:4;stroke-dasharray:none;stroke-opacity:1" />
      </g>
      <path
         d="m 37.07834,58.757171 c 0.242963,-0.269441 0.498337,-0.52987 0.768092,-0.782264 5.154092,-4.822379 19.863275,-8.103706 23.36852,-4.357351 3.286594,3.512666 -0.03765,15.763637 -4.558364,21.549575 4.835346,-5.391046 8.636858,-18.640773 5.197261,-22.316967 -3.505244,-3.746355 -18.214428,-0.465027 -23.368519,4.357351 -0.519023,0.485619 -0.987251,1.003975 -1.40699,1.549656 z"
         id="path3397"
         style="fill:#000000;fill-opacity:0.313725;fill-rule:nonzero;stroke:none;stroke-width:0.124;stroke-linecap:round;stroke-linejoin:miter;stroke-miterlimit:4;stroke-dasharray:none;stroke-opacity:1" />
      <path
         d="m 48.527487,53.149155 c -2.24727,-1.973188 -5.669654,-1.956778 -7.898846,0.128947 -2.372767,2.220059 -2.496721,5.947988 -0.276659,8.320753 2.220058,2.372767 5.947984,2.49672 8.320752,0.276659 0.166772,-0.156039 0.323628,-0.321084 0.468148,-0.491022"
         id="path2386"
         style="fill:#5a5a5a;fill-opacity:1;fill-rule:nonzero;stroke:#000000;stroke-width:0.124;stroke-linecap:round;stroke-linejoin:miter;stroke-miterlimit:4;stroke-dasharray:none;stroke-opacity:1" />
      <path
         d="m 52.816967,65.217134 c -0.198329,0.143667 -0.390916,0.302152 -0.57437,0.473799 -2.372767,2.220059 -2.499364,5.945163 -0.279303,8.317926 2.220058,2.372767 5.947984,2.496721 8.320752,0.27666 2.284186,-2.137179 2.485576,-5.66943 0.516749,-8.047153"
         id="path2388"
         style="fill:#595959;fill-opacity:1;fill-rule:nonzero;stroke:#000000;stroke-width:0.124;stroke-linecap:round;stroke-linejoin:miter;stroke-miterlimit:4;stroke-dasharray:none;stroke-opacity:1" />
      <path
         d="m 58.929903,53.651514 c 0.554141,-0.518476 1.838105,-0.475784 2.156736,-0.135236 0.3586,0.383267 0.27594,1.624512 -0.2782,2.142988 -0.554139,0.518475 -0.91205,0.0099 -1.430525,-0.544234 -0.518476,-0.55414 -1.00215,-0.945043 -0.448011,-1.463518 z"
         id="path2390"
         style="fill:#000000;fill-opacity:1;fill-rule:nonzero;stroke:none;stroke-width:0.124;stroke-linecap:round;stroke-linejoin:miter;stroke-miterlimit:4;stroke-dasharray:none;stroke-opacity:1" />
      <path
         d="m 58.052943,60.145231 c 0.518811,-0.48576 1.237823,-0.560828 1.605687,-0.16766 0.367862,0.393166 0.245192,1.105595 -0.27395,1.591001 -0.518811,0.485761 -1.237822,0.560828 -1.605685,0.167662 -0.367864,-0.393168 -0.245194,-1.105597 0.273948,-1.591003 z"
         id="path2397"
         style="fill:#000000;fill-opacity:1;fill-rule:nonzero;stroke:#000000;stroke-width:0.124;stroke-linecap:round;stroke-linejoin:miter;stroke-miterlimit:4;stroke-dasharray:none;stroke-opacity:1" />
      <path
         d="m 53.25869,55.021202 c 0.518811,-0.485761 1.237823,-0.560828 1.605687,-0.16766 0.367863,0.393167 0.245192,1.105595 -0.27395,1.591001 -0.518811,0.48576 -1.237822,0.560829 -1.605685,0.167662 -0.367864,-0.393168 -0.245194,-1.105597 0.273948,-1.591003 z"
         id="path2399"
         style="fill:#000000;fill-opacity:1;fill-rule:nonzero;stroke:#000000;stroke-width:0.124;stroke-linecap:round;stroke-linejoin:miter;stroke-miterlimit:4;stroke-dasharray:none;stroke-opacity:1" />
      <path
         d="m 58.234018,60.77662 c 0.178084,-0.166762 0.406064,-0.212712 0.509082,-0.102607 0.10302,0.110105 0.04203,0.334529 -0.136196,0.501143 -0.178083,0.166761 -0.406063,0.212712 -0.509083,0.102606 -0.103018,-0.110104 -0.04203,-0.334528 0.136197,-0.501142 z"
         id="path2401"
         style="fill:#ffffff;fill-opacity:1;fill-rule:nonzero;stroke:none;stroke-width:0.124;stroke-linecap:round;stroke-linejoin:miter;stroke-miterlimit:4;stroke-dasharray:none;stroke-opacity:1" />
      <path
         d="m 53.65834,55.715022 c 0.178083,-0.166762 0.406063,-0.212713 0.509082,-0.102608 0.103019,0.110106 0.04203,0.33453 -0.136196,0.501143 -0.178084,0.166762 -0.406064,0.212712 -0.509083,0.102607 -0.103019,-0.110105 -0.04203,-0.334529 0.136197,-0.501142 z"
         id="path2403"
         style="fill:#ffffff;fill-opacity:1;fill-rule:nonzero;stroke:none;stroke-width:0.124;stroke-linecap:round;stroke-linejoin:miter;stroke-miterlimit:4;stroke-dasharray:none;stroke-opacity:1" />
      <path
         d="m 40.951871,61.016371 c 1.531438,1.591249 4.182055,1.914577 6.094645,0.848885 -1.207777,-0.291427 -2.396136,-0.96343 -3.362012,-1.995744 -1.941202,-2.074727 -2.374155,-4.943255 -1.224897,-6.974138 -2.925874,1.215765 -3.892872,5.603326 -1.679436,7.931821 0.05558,0.06507 0.112692,0.127858 0.171705,0.189172 z"
         id="path2427"
         style="fill:#000000;fill-opacity:0.313725;fill-rule:nonzero;stroke:none;stroke-width:0.124;stroke-linecap:round;stroke-linejoin:miter;stroke-miterlimit:4;stroke-dasharray:none;stroke-opacity:1" />
      <g
         transform="matrix(-0.11776765,-0.12586839,0.12714186,-0.11895917,12.188987,176.18089)"
         id="g3221"
         style="stroke:#000000;stroke-width:0.715763;stroke-linecap:round;stroke-miterlimit:4;stroke-dasharray:none;stroke-opacity:1">
        <path
           d="m 340.57116,672.76068 c 32.73512,-15.10851 47.84364,-1.25904 47.84364,-1.25904"
           id="path2445"
           style="fill:none;fill-opacity:0.75;fill-rule:evenodd;stroke:#000000;stroke-width:0.715763;stroke-linecap:round;stroke-linejoin:miter;stroke-miterlimit:4;stroke-dasharray:none;stroke-opacity:1" />
        <path
           d="m 337.42356,678.42638 c 23.92181,-15.10852 44.69602,9.44282 44.69602,9.44282"
           id="path2447"
           style="fill:none;fill-opacity:0.75;fill-rule:evenodd;stroke:#000000;stroke-width:0.715763;stroke-linecap:round;stroke-linejoin:miter;stroke-miterlimit:4;stroke-dasharray:none;stroke-opacity:1" />
        <path
           d="m 337.42356,681.57398 c 25.18086,-12.59043 29.58751,18.25613 29.58751,18.25613"
           id="path2449"
           style="fill:none;fill-opacity:0.75;fill-rule:evenodd;stroke:#000000;stroke-width:0.715763;stroke-linecap:round;stroke-linejoin:miter;stroke-miterlimit:4;stroke-dasharray:none;stroke-opacity:1" />
      </g>
      <g
         transform="matrix(0.11776765,0.12586839,0.12714186,-0.11895917,-64.501826,94.214843)"
         id="g3384"
         style="stroke:#000000;stroke-width:0.715763;stroke-linecap:round;stroke-miterlimit:4;stroke-dasharray:none;stroke-opacity:1">
        <path
           d="m 340.57116,672.76068 c 32.73512,-15.10851 47.84364,-1.25904 47.84364,-1.25904"
           id="path3386"
           style="fill:none;fill-opacity:0.75;fill-rule:evenodd;stroke:#000000;stroke-width:0.715763;stroke-linecap:round;stroke-linejoin:miter;stroke-miterlimit:4;stroke-dasharray:none;stroke-opacity:1" />
        <path
           d="m 337.42356,678.42638 c 23.92181,-15.10852 44.69602,9.44282 44.69602,9.44282"
           id="path3388"
           style="fill:none;fill-opacity:0.75;fill-rule:evenodd;stroke:#000000;stroke-width:0.715763;stroke-linecap:round;stroke-linejoin:miter;stroke-miterlimit:4;stroke-dasharray:none;stroke-opacity:1" />
        <path
           d="m 337.42356,681.57398 c 25.18086,-12.59043 29.58751,18.25613 29.58751,18.25613"
           id="path3390"
           style="fill:none;fill-opacity:0.75;fill-rule:evenodd;stroke:#000000;stroke-width:0.715763;stroke-linecap:round;stroke-linejoin:miter;stroke-miterlimit:4;stroke-dasharray:none;stroke-opacity:1" />
      </g>
      <path
         d="m 52.419053,73.272332 c -1.486007,-1.633754 -1.632554,-4.299994 -0.442171,-6.137572 0.210556,1.224469 0.802138,2.45484 1.768014,3.487155 1.941199,2.07473 4.774633,2.697268 6.877371,1.685451 -1.407432,2.838654 -5.849536,3.512072 -8.025861,1.148854 -0.06124,-0.05978 -0.120089,-0.120936 -0.177348,-0.183892 z"
         id="path3405"
         style="fill:#000000;fill-opacity:0.313725;fill-rule:nonzero;stroke:none;stroke-width:0.124;stroke-linecap:round;stroke-linejoin:miter;stroke-miterlimit:4;stroke-dasharray:none;stroke-opacity:1" />
      <path
         style="fill:#969696;fill-opacity:1;stroke-width:0.0326378"
         d="m 75.769458,51.996631 c -0.569398,-0.153134 -1.044688,-0.633357 -1.193929,-1.206325 -0.05914,-0.227067 -0.06695,-0.844179 -0.01389,-1.098563 0.12866,-0.616992 0.678536,-1.166863 1.295523,-1.295533 0.10995,-0.02291 0.659837,-0.03607 1.509499,-0.03607 h 1.336543 v -0.945736 -0.945731 l -6.617307,-0.01059 c -5.302907,-0.0085 -6.649719,-0.01908 -6.780497,-0.05312 -0.70406,-0.183362 -1.274092,-0.709664 -1.523359,-1.406484 l -0.07589,-0.212147 V 34.032195 c 0,-10.338126 0.0021,-10.761644 0.05987,-10.948141 0.119428,-0.386996 0.252517,-0.607934 0.543852,-0.902824 0.301317,-0.304997 0.582483,-0.470844 0.961589,-0.567212 0.172369,-0.04382 1.895325,-0.04943 15.128256,-0.04943 h 14.933739 l 0.24412,0.06737 c 0.67795,0.187094 1.24171,0.748262 1.45696,1.450283 0.0578,0.188447 0.06,0.59997 0.06,10.917332 0,10.336349 -0.002,10.72854 -0.0603,10.917333 -0.2286,0.741971 -0.753,1.255828 -1.50628,1.475995 -0.18333,0.05358 -0.61803,0.05783 -6.813138,0.06653 l -6.617298,0.0093 v 0.943854 0.94386 l 1.427899,0.01038 c 1.418415,0.01033 1.429204,0.0109 1.623726,0.08858 0.506408,0.202155 0.861725,0.558112 1.031562,1.033417 0.09696,0.271326 0.122731,0.949584 0.04818,1.266874 -0.142724,0.607215 -0.609276,1.085687 -1.211621,1.242585 -0.280914,0.0732 -8.975357,0.0716 -9.247784,-0.002 z m 8.952873,-1.056713 c 0.146042,-0.03386 0.262252,-0.112183 0.359526,-0.2423 0.05695,-0.07617 0.06869,-0.146095 0.0764,-0.454908 0.0082,-0.32984 0.0021,-0.377277 -0.0653,-0.493638 -0.04094,-0.07081 -0.125792,-0.158928 -0.18861,-0.195828 -0.110768,-0.06507 -0.171294,-0.06759 -2.007204,-0.08341 l -1.892988,-0.0163 -0.0084,-2.047659 -0.0084,-2.047658 7.139754,-0.0085 c 6.751878,-0.0081 7.146718,-0.01164 7.267798,-0.06633 0.21865,-0.09873 0.3989,-0.271902 0.50593,-0.486094 l 0.10038,-0.200876 V 34.028195 23.459993 l -0.0695,-0.185846 c -0.0821,-0.219528 -0.26783,-0.417296 -0.50199,-0.534632 l -0.16283,-0.0816 H 80.416701 c -12.285947,0 -14.871398,0.0075 -14.97304,0.04351 -0.191277,0.0677 -0.422238,0.270346 -0.529898,0.464932 l -0.09791,0.176977 -0.0083,10.619071 -0.0084,10.619072 0.08642,0.192573 c 0.09785,0.218034 0.273805,0.393967 0.497454,0.497375 l 0.150865,0.06976 7.131353,0.0163 7.131352,0.0163 v 2.039858 2.039858 l -1.91188,0.0163 -1.911875,0.0163 -0.115229,0.08791 c -0.138772,0.105871 -0.210386,0.246965 -0.240471,0.473759 -0.06154,0.463894 0.112902,0.811892 0.446437,0.890646 0.155416,0.0367 8.500806,0.03811 8.65879,0.0016 z M 67.189573,44.262462 c -0.24264,-0.06532 -0.340822,-0.122625 -0.524047,-0.305851 -0.1951,-0.195099 -0.292772,-0.388065 -0.334663,-0.661194 -0.02003,-0.130531 -0.02836,-3.55591 -0.02265,-9.328525 0.0085,-8.61898 0.01211,-9.130353 0.06642,-9.269119 0.08219,-0.210071 0.278083,-0.456276 0.460711,-0.579018 0.330715,-0.222274 -0.861415,-0.20433 13.546467,-0.2039 14.315876,3.46e-4 13.234956,-0.0152 13.564316,0.196137 0.27966,0.179456 0.46245,0.467793 0.51951,0.819462 0.0469,0.289039 0.0469,18.07758 0,18.366624 -0.0792,0.487903 -0.39754,0.844347 -0.86232,0.9654 -0.1739,0.04529 -1.55593,0.05038 -13.217967,0.04844 -11.137893,-0.0016 -13.048678,-0.0089 -13.195764,-0.04844 z M 93.373867,34.113763 V 25.040467 H 80.400351 67.426841 l -0.0084,9.040658 c -0.0047,4.972365 -0.0016,9.059038 0.0071,9.081501 0.01237,0.03261 2.625874,0.03916 12.981866,0.03266 l 12.96636,-0.0082 z"
         id="path1213" />
    </g>
  </g>
</svg>
