<?xml version="1.0" encoding="utf-8" standalone="no"?>
<!DOCTYPE svg PUBLIC "-//W3C//DTD SVG 1.1//EN"
  "http://www.w3.org/Graphics/SVG/1.1/DTD/svg11.dtd">
<svg xmlns:xlink="http://www.w3.org/1999/xlink" width="288pt" height="72pt" viewBox="0 0 288 72" xmlns="http://www.w3.org/2000/svg" version="1.1">
 <metadata>
  <rdf:RDF xmlns:dc="http://purl.org/dc/elements/1.1/" xmlns:cc="http://creativecommons.org/ns#" xmlns:rdf="http://www.w3.org/1999/02/22-rdf-syntax-ns#">
   <cc:Work>
    <dc:type rdf:resource="http://purl.org/dc/dcmitype/StillImage"/>
    <dc:date>2026-03-20T19:20:16.669438</dc:date>
    <dc:format>image/svg+xml</dc:format>
    <dc:creator>
     <cc:Agent>
      <dc:title>Matplotlib v3.10.8, https://matplotlib.org/</dc:title>
     </cc:Agent>
    </dc:creator>
   </cc:Work>
  </rdf:RDF>
 </metadata>
 <defs>
  <style type="text/css">*{stroke-linejoin: round; stroke-linecap: butt}</style>
 </defs>
 <g id="figure_1">
  <g id="patch_1">
   <path d="M 0 72 
L 288 72 
L 288 0 
L 0 0 
z
" style="fill: #ffffff"/>
  </g>
  <g id="axes_1">
   <g id="patch_2">
    <path d="M 36 64.08 
L 259.2 64.08 
L 259.2 8.64 
L 36 8.64 
z
" style="fill: #ffffff"/>
   </g>
   <g id="PathCollection_1">
    <defs>
     <path id="m377bc8f448" d="M 0 2.738613 
C 0.726289 2.738613 1.422928 2.450055 1.936492 1.936492 
C 2.450055 1.422928 2.738613 0.726289 2.738613 0 
C 2.738613 -0.726289 2.450055 -1.422928 1.936492 -1.936492 
C 1.422928 -2.450055 0.726289 -2.738613 0 -2.738613 
C -0.726289 -2.738613 -1.422928 -2.450055 -1.936492 -1.936492 
C -2.450055 -1.422928 -2.738613 -0.726289 -2.738613 0 
C -2.738613 0.726289 -2.450055 1.422928 -1.936492 1.936492 
C -1.422928 2.450055 -0.726289 2.738613 0 2.738613 
z
" style="stroke: #f45b69"/>
    </defs>
    <g clip-path="url(#p731f6e85d2)">
     <use xlink:href="#m377bc8f448" x="42.2" y="60.615" style="fill: #f45b69; stroke: #f45b69"/>
    </g>
   </g>
   <g id="PathCollection_2">
    <g clip-path="url(#p731f6e85d2)">
     <use xlink:href="#m377bc8f448" x="48.4" y="60.615" style="fill: #f45b69; stroke: #f45b69"/>
    </g>
   </g>
   <g id="PathCollection_3">
    <g clip-path="url(#p731f6e85d2)">
     <use xlink:href="#m377bc8f448" x="54.6" y="60.615" style="fill: #f45b69; stroke: #f45b69"/>
    </g>
   </g>
   <g id="PathCollection_4">
    <g clip-path="url(#p731f6e85d2)">
     <use xlink:href="#m377bc8f448" x="67" y="60.615" style="fill: #f45b69; stroke: #f45b69"/>
    </g>
   </g>
   <g id="PathCollection_5">
    <defs>
     <path id="m22b744dfeb" d="M 0 2.738613 
C 0.726289 2.738613 1.422928 2.450055 1.936492 1.936492 
C 2.450055 1.422928 2.738613 0.726289 2.738613 0 
C 2.738613 -0.726289 2.450055 -1.422928 1.936492 -1.936492 
C 1.422928 -2.450055 0.726289 -2.738613 0 -2.738613 
C -0.726289 -2.738613 -1.422928 -2.450055 -1.936492 -1.936492 
C -2.450055 -1.422928 -2.738613 -0.726289 -2.738613 0 
C -2.738613 0.726289 -2.450055 1.422928 -1.936492 1.936492 
C -1.422928 2.450055 -0.726289 2.738613 0 2.738613 
z
" style="stroke: #2a9df4"/>
    </defs>
    <g clip-path="url(#p731f6e85d2)">
     <use xlink:href="#m22b744dfeb" x="104.2" y="12.105" style="fill: #2a9df4; stroke: #2a9df4"/>
    </g>
   </g>
   <g id="PathCollection_6">
    <g clip-path="url(#p731f6e85d2)">
     <use xlink:href="#m22b744dfeb" x="110.4" y="12.105" style="fill: #2a9df4; stroke: #2a9df4"/>
    </g>
   </g>
   <g id="PathCollection_7">
    <g clip-path="url(#p731f6e85d2)">
     <use xlink:href="#m22b744dfeb" x="116.6" y="12.105" style="fill: #2a9df4; stroke: #2a9df4"/>
    </g>
   </g>
   <g id="PathCollection_8">
    <g clip-path="url(#p731f6e85d2)">
     <use xlink:href="#m22b744dfeb" x="122.8" y="12.105" style="fill: #2a9df4; stroke: #2a9df4"/>
    </g>
   </g>
   <g id="PathCollection_9">
    <g clip-path="url(#p731f6e85d2)">
     <use xlink:href="#m22b744dfeb" x="129" y="12.105" style="fill: #2a9df4; stroke: #2a9df4"/>
    </g>
   </g>
   <g id="PathCollection_10">
    <g clip-path="url(#p731f6e85d2)">
     <use xlink:href="#m377bc8f448" x="172.4" y="60.615" style="fill: #f45b69; stroke: #f45b69"/>
    </g>
   </g>
   <g id="PathCollection_11">
    <g clip-path="url(#p731f6e85d2)">
     <use xlink:href="#m377bc8f448" x="178.6" y="60.615" style="fill: #f45b69; stroke: #f45b69"/>
    </g>
   </g>
   <g id="PathCollection_12">
    <g clip-path="url(#p731f6e85d2)">
     <use xlink:href="#m22b744dfeb" x="191" y="12.105" style="fill: #2a9df4; stroke: #2a9df4"/>
    </g>
   </g>
   <g id="PathCollection_13">
    <g clip-path="url(#p731f6e85d2)">
     <use xlink:href="#m377bc8f448" x="197.2" y="60.615" style="fill: #f45b69; stroke: #f45b69"/>
    </g>
   </g>
   <g id="PathCollection_14">
    <g clip-path="url(#p731f6e85d2)">
     <use xlink:href="#m377bc8f448" x="215.8" y="60.615" style="fill: #f45b69; stroke: #f45b69"/>
    </g>
   </g>
   <g id="PathCollection_15">
    <g clip-path="url(#p731f6e85d2)">
     <use xlink:href="#m377bc8f448" x="228.2" y="60.615" style="fill: #f45b69; stroke: #f45b69"/>
    </g>
   </g>
   <g id="patch_3">
    <path d="M 70.1 64.08 
L 132.1 64.08 
L 132.1 8.64 
L 70.1 8.64 
z
" clip-path="url(#p731f6e85d2)" style="fill: #8b5cf6; opacity: 0.3"/>
   </g>
   <g id="matplotlib.axis_1"/>
   <g id="matplotlib.axis_2"/>
   <g id="line2d_1">
    <path d="M 42.2 36.36 
L 42.2 59.46 
" clip-path="url(#p731f6e85d2)" style="fill: none; stroke: #f45b69; stroke-linecap: square"/>
   </g>
   <g id="line2d_2">
    <path d="M 48.4 36.36 
L 48.4 59.46 
" clip-path="url(#p731f6e85d2)" style="fill: none; stroke: #f45b69; stroke-linecap: square"/>
   </g>
   <g id="line2d_3">
    <path d="M 54.6 36.36 
L 54.6 59.46 
" clip-path="url(#p731f6e85d2)" style="fill: none; stroke: #f45b69; stroke-linecap: square"/>
   </g>
   <g id="line2d_4">
    <path d="M 60.8 36.36 
L 60.8 59.46 
" clip-path="url(#p731f6e85d2)" style="fill: none; stroke: #f45b69; stroke-linecap: square"/>
   </g>
   <g id="line2d_5">
    <path d="M 67 36.36 
L 67 59.46 
" clip-path="url(#p731f6e85d2)" style="fill: none; stroke: #f45b69; stroke-linecap: square"/>
   </g>
   <g id="line2d_6">
    <path d="M 73.2 36.36 
L 73.2 59.46 
" clip-path="url(#p731f6e85d2)" style="fill: none; stroke: #f45b69; stroke-linecap: square"/>
   </g>
   <g id="line2d_7">
    <path d="M 79.4 36.36 
L 79.4 59.46 
" clip-path="url(#p731f6e85d2)" style="fill: none; stroke: #f45b69; stroke-linecap: square"/>
   </g>
   <g id="line2d_8">
    <path d="M 85.6 36.36 
L 85.6 59.46 
" clip-path="url(#p731f6e85d2)" style="fill: none; stroke: #f45b69; stroke-linecap: square"/>
   </g>
   <g id="line2d_9">
    <path d="M 91.8 36.36 
L 91.8 59.46 
" clip-path="url(#p731f6e85d2)" style="fill: none; stroke: #f45b69; stroke-linecap: square"/>
   </g>
   <g id="line2d_10">
    <path d="M 98 36.36 
L 98 59.46 
" clip-path="url(#p731f6e85d2)" style="fill: none; stroke: #f45b69; stroke-linecap: square"/>
   </g>
   <g id="line2d_11">
    <path d="M 104.2 36.36 
L 104.2 13.26 
" clip-path="url(#p731f6e85d2)" style="fill: none; stroke: #2a9df4; stroke-linecap: square"/>
   </g>
   <g id="line2d_12">
    <path d="M 110.4 36.36 
L 110.4 13.26 
" clip-path="url(#p731f6e85d2)" style="fill: none; stroke: #2a9df4; stroke-linecap: square"/>
   </g>
   <g id="line2d_13">
    <path d="M 116.6 36.36 
L 116.6 13.26 
" clip-path="url(#p731f6e85d2)" style="fill: none; stroke: #2a9df4; stroke-linecap: square"/>
   </g>
   <g id="line2d_14">
    <path d="M 122.8 36.36 
L 122.8 13.26 
" clip-path="url(#p731f6e85d2)" style="fill: none; stroke: #2a9df4; stroke-linecap: square"/>
   </g>
   <g id="line2d_15">
    <path d="M 129 36.36 
L 129 13.26 
" clip-path="url(#p731f6e85d2)" style="fill: none; stroke: #2a9df4; stroke-linecap: square"/>
   </g>
   <g id="line2d_16">
    <path d="M 135.2 36.36 
L 135.2 13.26 
" clip-path="url(#p731f6e85d2)" style="fill: none; stroke: #2a9df4; stroke-linecap: square"/>
   </g>
   <g id="line2d_17">
    <path d="M 141.4 36.36 
L 141.4 13.26 
" clip-path="url(#p731f6e85d2)" style="fill: none; stroke: #2a9df4; stroke-linecap: square"/>
   </g>
   <g id="line2d_18">
    <path d="M 147.6 36.36 
L 147.6 13.26 
" clip-path="url(#p731f6e85d2)" style="fill: none; stroke: #2a9df4; stroke-linecap: square"/>
   </g>
   <g id="line2d_19">
    <path d="M 153.8 36.36 
L 153.8 13.26 
" clip-path="url(#p731f6e85d2)" style="fill: none; stroke: #2a9df4; stroke-linecap: square"/>
   </g>
   <g id="line2d_20">
    <path d="M 160 36.36 
L 160 13.26 
" clip-path="url(#p731f6e85d2)" style="fill: none; stroke: #2a9df4; stroke-linecap: square"/>
   </g>
   <g id="line2d_21">
    <path d="M 166.2 36.36 
L 166.2 13.26 
" clip-path="url(#p731f6e85d2)" style="fill: none; stroke: #2a9df4; stroke-linecap: square"/>
   </g>
   <g id="line2d_22">
    <path d="M 172.4 36.36 
L 172.4 59.46 
" clip-path="url(#p731f6e85d2)" style="fill: none; stroke: #f45b69; stroke-linecap: square"/>
   </g>
   <g id="line2d_23">
    <path d="M 178.6 36.36 
L 178.6 59.46 
" clip-path="url(#p731f6e85d2)" style="fill: none; stroke: #f45b69; stroke-linecap: square"/>
   </g>
   <g id="line2d_24">
    <path d="M 184.8 36.36 
L 184.8 13.26 
" clip-path="url(#p731f6e85d2)" style="fill: none; stroke: #2a9df4; stroke-linecap: square"/>
   </g>
   <g id="line2d_25">
    <path d="M 191 36.36 
L 191 13.26 
" clip-path="url(#p731f6e85d2)" style="fill: none; stroke: #2a9df4; stroke-linecap: square"/>
   </g>
   <g id="line2d_26">
    <path d="M 197.2 36.36 
L 197.2 59.46 
" clip-path="url(#p731f6e85d2)" style="fill: none; stroke: #f45b69; stroke-linecap: square"/>
   </g>
   <g id="line2d_27">
    <path d="M 203.4 36.36 
L 203.4 59.46 
" clip-path="url(#p731f6e85d2)" style="fill: none; stroke: #f45b69; stroke-linecap: square"/>
   </g>
   <g id="line2d_28">
    <path d="M 209.6 36.36 
L 209.6 13.26 
" clip-path="url(#p731f6e85d2)" style="fill: none; stroke: #2a9df4; stroke-linecap: square"/>
   </g>
   <g id="line2d_29">
    <path d="M 215.8 36.36 
L 215.8 59.46 
" clip-path="url(#p731f6e85d2)" style="fill: none; stroke: #f45b69; stroke-linecap: square"/>
   </g>
   <g id="line2d_30">
    <path d="M 222 36.36 
L 222 13.26 
" clip-path="url(#p731f6e85d2)" style="fill: none; stroke: #2a9df4; stroke-linecap: square"/>
   </g>
   <g id="line2d_31">
    <path d="M 228.2 36.36 
L 228.2 59.46 
" clip-path="url(#p731f6e85d2)" style="fill: none; stroke: #f45b69; stroke-linecap: square"/>
   </g>
   <g id="line2d_32">
    <path d="M 36 36.36 
L 234.4 36.36 
" clip-path="url(#p731f6e85d2)" style="fill: none; stroke: #000000; stroke-width: 1.5; stroke-linecap: square"/>
   </g>
   <g id="text_1">
    <!-- Right bias -->
    <g style="fill: #f45b69" transform="translate(39.51375 75.63) scale(0.11 -0.11)">
     <defs>
      <path id="DejaVuSans-52" d="M 2841 2188 
Q 3044 2119 3236 1894 
Q 3428 1669 3622 1275 
L 4263 0 
L 3584 0 
L 2988 1197 
Q 2756 1666 2539 1819 
Q 2322 1972 1947 1972 
L 1259 1972 
L 1259 0 
L 628 0 
L 628 4666 
L 2053 4666 
Q 2853 4666 3247 4331 
Q 3641 3997 3641 3322 
Q 3641 2881 3436 2590 
Q 3231 2300 2841 2188 
z
M 1259 4147 
L 1259 2491 
L 2053 2491 
Q 2509 2491 2742 2702 
Q 2975 2913 2975 3322 
Q 2975 3731 2742 3939 
Q 2509 4147 2053 4147 
L 1259 4147 
z
" transform="scale(0.015625)"/>
      <path id="DejaVuSans-69" d="M 603 3500 
L 1178 3500 
L 1178 0 
L 603 0 
L 603 3500 
z
M 603 4863 
L 1178 4863 
L 1178 4134 
L 603 4134 
L 603 4863 
z
" transform="scale(0.015625)"/>
      <path id="DejaVuSans-67" d="M 2906 1791 
Q 2906 2416 2648 2759 
Q 2391 3103 1925 3103 
Q 1463 3103 1205 2759 
Q 947 2416 947 1791 
Q 947 1169 1205 825 
Q 1463 481 1925 481 
Q 2391 481 2648 825 
Q 2906 1169 2906 1791 
z
M 3481 434 
Q 3481 -459 3084 -895 
Q 2688 -1331 1869 -1331 
Q 1566 -1331 1297 -1286 
Q 1028 -1241 775 -1147 
L 775 -588 
Q 1028 -725 1275 -790 
Q 1522 -856 1778 -856 
Q 2344 -856 2625 -561 
Q 2906 -266 2906 331 
L 2906 616 
Q 2728 306 2450 153 
Q 2172 0 1784 0 
Q 1141 0 747 490 
Q 353 981 353 1791 
Q 353 2603 747 3093 
Q 1141 3584 1784 3584 
Q 2172 3584 2450 3431 
Q 2728 3278 2906 2969 
L 2906 3500 
L 3481 3500 
L 3481 434 
z
" transform="scale(0.015625)"/>
      <path id="DejaVuSans-68" d="M 3513 2113 
L 3513 0 
L 2938 0 
L 2938 2094 
Q 2938 2591 2744 2837 
Q 2550 3084 2163 3084 
Q 1697 3084 1428 2787 
Q 1159 2491 1159 1978 
L 1159 0 
L 581 0 
L 581 4863 
L 1159 4863 
L 1159 2956 
Q 1366 3272 1645 3428 
Q 1925 3584 2291 3584 
Q 2894 3584 3203 3211 
Q 3513 2838 3513 2113 
z
" transform="scale(0.015625)"/>
      <path id="DejaVuSans-74" d="M 1172 4494 
L 1172 3500 
L 2356 3500 
L 2356 3053 
L 1172 3053 
L 1172 1153 
Q 1172 725 1289 603 
Q 1406 481 1766 481 
L 2356 481 
L 2356 0 
L 1766 0 
Q 1100 0 847 248 
Q 594 497 594 1153 
L 594 3053 
L 172 3053 
L 172 3500 
L 594 3500 
L 594 4494 
L 1172 4494 
z
" transform="scale(0.015625)"/>
      <path id="DejaVuSans-20" transform="scale(0.015625)"/>
      <path id="DejaVuSans-62" d="M 3116 1747 
Q 3116 2381 2855 2742 
Q 2594 3103 2138 3103 
Q 1681 3103 1420 2742 
Q 1159 2381 1159 1747 
Q 1159 1113 1420 752 
Q 1681 391 2138 391 
Q 2594 391 2855 752 
Q 3116 1113 3116 1747 
z
M 1159 2969 
Q 1341 3281 1617 3432 
Q 1894 3584 2278 3584 
Q 2916 3584 3314 3078 
Q 3713 2572 3713 1747 
Q 3713 922 3314 415 
Q 2916 -91 2278 -91 
Q 1894 -91 1617 61 
Q 1341 213 1159 525 
L 1159 0 
L 581 0 
L 581 4863 
L 1159 4863 
L 1159 2969 
z
" transform="scale(0.015625)"/>
      <path id="DejaVuSans-61" d="M 2194 1759 
Q 1497 1759 1228 1600 
Q 959 1441 959 1056 
Q 959 750 1161 570 
Q 1363 391 1709 391 
Q 2188 391 2477 730 
Q 2766 1069 2766 1631 
L 2766 1759 
L 2194 1759 
z
M 3341 1997 
L 3341 0 
L 2766 0 
L 2766 531 
Q 2569 213 2275 61 
Q 1981 -91 1556 -91 
Q 1019 -91 701 211 
Q 384 513 384 1019 
Q 384 1609 779 1909 
Q 1175 2209 1959 2209 
L 2766 2209 
L 2766 2266 
Q 2766 2663 2505 2880 
Q 2244 3097 1772 3097 
Q 1472 3097 1187 3025 
Q 903 2953 641 2809 
L 641 3341 
Q 956 3463 1253 3523 
Q 1550 3584 1831 3584 
Q 2591 3584 2966 3190 
Q 3341 2797 3341 1997 
z
" transform="scale(0.015625)"/>
      <path id="DejaVuSans-73" d="M 2834 3397 
L 2834 2853 
Q 2591 2978 2328 3040 
Q 2066 3103 1784 3103 
Q 1356 3103 1142 2972 
Q 928 2841 928 2578 
Q 928 2378 1081 2264 
Q 1234 2150 1697 2047 
L 1894 2003 
Q 2506 1872 2764 1633 
Q 3022 1394 3022 966 
Q 3022 478 2636 193 
Q 2250 -91 1575 -91 
Q 1294 -91 989 -36 
Q 684 19 347 128 
L 347 722 
Q 666 556 975 473 
Q 1284 391 1588 391 
Q 1994 391 2212 530 
Q 2431 669 2431 922 
Q 2431 1156 2273 1281 
Q 2116 1406 1581 1522 
L 1381 1569 
Q 847 1681 609 1914 
Q 372 2147 372 2553 
Q 372 3047 722 3315 
Q 1072 3584 1716 3584 
Q 2034 3584 2315 3537 
Q 2597 3491 2834 3397 
z
" transform="scale(0.015625)"/>
     </defs>
     <use xlink:href="#DejaVuSans-52"/>
     <use xlink:href="#DejaVuSans-69" transform="translate(69.482422 0)"/>
     <use xlink:href="#DejaVuSans-67" transform="translate(97.265625 0)"/>
     <use xlink:href="#DejaVuSans-68" transform="translate(160.742188 0)"/>
     <use xlink:href="#DejaVuSans-74" transform="translate(224.121094 0)"/>
     <use xlink:href="#DejaVuSans-20" transform="translate(263.330078 0)"/>
     <use xlink:href="#DejaVuSans-62" transform="translate(295.117188 0)"/>
     <use xlink:href="#DejaVuSans-69" transform="translate(358.59375 0)"/>
     <use xlink:href="#DejaVuSans-61" transform="translate(386.376953 0)"/>
     <use xlink:href="#DejaVuSans-73" transform="translate(447.65625 0)"/>
    </g>
   </g>
   <g id="text_2">
    <!-- Left bias -->
    <g style="fill: #2a9df4" transform="translate(111.848203 7.485) scale(0.11 -0.11)">
     <defs>
      <path id="DejaVuSans-4c" d="M 628 4666 
L 1259 4666 
L 1259 531 
L 3531 531 
L 3531 0 
L 628 0 
L 628 4666 
z
" transform="scale(0.015625)"/>
      <path id="DejaVuSans-65" d="M 3597 1894 
L 3597 1613 
L 953 1613 
Q 991 1019 1311 708 
Q 1631 397 2203 397 
Q 2534 397 2845 478 
Q 3156 559 3463 722 
L 3463 178 
Q 3153 47 2828 -22 
Q 2503 -91 2169 -91 
Q 1331 -91 842 396 
Q 353 884 353 1716 
Q 353 2575 817 3079 
Q 1281 3584 2069 3584 
Q 2775 3584 3186 3129 
Q 3597 2675 3597 1894 
z
M 3022 2063 
Q 3016 2534 2758 2815 
Q 2500 3097 2075 3097 
Q 1594 3097 1305 2825 
Q 1016 2553 972 2059 
L 3022 2063 
z
" transform="scale(0.015625)"/>
      <path id="DejaVuSans-66" d="M 2375 4863 
L 2375 4384 
L 1825 4384 
Q 1516 4384 1395 4259 
Q 1275 4134 1275 3809 
L 1275 3500 
L 2222 3500 
L 2222 3053 
L 1275 3053 
L 1275 0 
L 697 0 
L 697 3053 
L 147 3053 
L 147 3500 
L 697 3500 
L 697 3744 
Q 697 4328 969 4595 
Q 1241 4863 1831 4863 
L 2375 4863 
z
" transform="scale(0.015625)"/>
     </defs>
     <use xlink:href="#DejaVuSans-4c"/>
     <use xlink:href="#DejaVuSans-65" transform="translate(53.962891 0)"/>
     <use xlink:href="#DejaVuSans-66" transform="translate(115.486328 0)"/>
     <use xlink:href="#DejaVuSans-74" transform="translate(148.941406 0)"/>
     <use xlink:href="#DejaVuSans-20" transform="translate(188.150391 0)"/>
     <use xlink:href="#DejaVuSans-62" transform="translate(219.9375 0)"/>
     <use xlink:href="#DejaVuSans-69" transform="translate(283.414062 0)"/>
     <use xlink:href="#DejaVuSans-61" transform="translate(311.197266 0)"/>
     <use xlink:href="#DejaVuSans-73" transform="translate(372.476562 0)"/>
    </g>
   </g>
   <g id="text_3">
    <!-- Stochastic -->
    <g transform="translate(174.933203 7.485) scale(0.11 -0.11)">
     <defs>
      <path id="DejaVuSans-53" d="M 3425 4513 
L 3425 3897 
Q 3066 4069 2747 4153 
Q 2428 4238 2131 4238 
Q 1616 4238 1336 4038 
Q 1056 3838 1056 3469 
Q 1056 3159 1242 3001 
Q 1428 2844 1947 2747 
L 2328 2669 
Q 3034 2534 3370 2195 
Q 3706 1856 3706 1288 
Q 3706 609 3251 259 
Q 2797 -91 1919 -91 
Q 1588 -91 1214 -16 
Q 841 59 441 206 
L 441 856 
Q 825 641 1194 531 
Q 1563 422 1919 422 
Q 2459 422 2753 634 
Q 3047 847 3047 1241 
Q 3047 1584 2836 1778 
Q 2625 1972 2144 2069 
L 1759 2144 
Q 1053 2284 737 2584 
Q 422 2884 422 3419 
Q 422 4038 858 4394 
Q 1294 4750 2059 4750 
Q 2388 4750 2728 4690 
Q 3069 4631 3425 4513 
z
" transform="scale(0.015625)"/>
      <path id="DejaVuSans-6f" d="M 1959 3097 
Q 1497 3097 1228 2736 
Q 959 2375 959 1747 
Q 959 1119 1226 758 
Q 1494 397 1959 397 
Q 2419 397 2687 759 
Q 2956 1122 2956 1747 
Q 2956 2369 2687 2733 
Q 2419 3097 1959 3097 
z
M 1959 3584 
Q 2709 3584 3137 3096 
Q 3566 2609 3566 1747 
Q 3566 888 3137 398 
Q 2709 -91 1959 -91 
Q 1206 -91 779 398 
Q 353 888 353 1747 
Q 353 2609 779 3096 
Q 1206 3584 1959 3584 
z
" transform="scale(0.015625)"/>
      <path id="DejaVuSans-63" d="M 3122 3366 
L 3122 2828 
Q 2878 2963 2633 3030 
Q 2388 3097 2138 3097 
Q 1578 3097 1268 2742 
Q 959 2388 959 1747 
Q 959 1106 1268 751 
Q 1578 397 2138 397 
Q 2388 397 2633 464 
Q 2878 531 3122 666 
L 3122 134 
Q 2881 22 2623 -34 
Q 2366 -91 2075 -91 
Q 1284 -91 818 406 
Q 353 903 353 1747 
Q 353 2603 823 3093 
Q 1294 3584 2113 3584 
Q 2378 3584 2631 3529 
Q 2884 3475 3122 3366 
z
" transform="scale(0.015625)"/>
     </defs>
     <use xlink:href="#DejaVuSans-53"/>
     <use xlink:href="#DejaVuSans-74" transform="translate(63.476562 0)"/>
     <use xlink:href="#DejaVuSans-6f" transform="translate(102.685547 0)"/>
     <use xlink:href="#DejaVuSans-63" transform="translate(163.867188 0)"/>
     <use xlink:href="#DejaVuSans-68" transform="translate(218.847656 0)"/>
     <use xlink:href="#DejaVuSans-61" transform="translate(282.226562 0)"/>
     <use xlink:href="#DejaVuSans-73" transform="translate(343.505859 0)"/>
     <use xlink:href="#DejaVuSans-74" transform="translate(395.605469 0)"/>
     <use xlink:href="#DejaVuSans-69" transform="translate(434.814453 0)"/>
     <use xlink:href="#DejaVuSans-63" transform="translate(462.597656 0)"/>
    </g>
   </g>
  </g>
 </g>
 <defs>
  <clipPath id="p731f6e85d2">
   <rect x="36" y="8.64" width="223.2" height="55.44"/>
  </clipPath>
 </defs>
</svg>
