<?xml version="1.0" encoding="utf-8" standalone="no"?>
<!DOCTYPE svg PUBLIC "-//W3C//DTD SVG 1.1//EN"
  "http://www.w3.org/Graphics/SVG/1.1/DTD/svg11.dtd">
<svg xmlns:xlink="http://www.w3.org/1999/xlink" width="478.8pt" height="163.688125pt" viewBox="0 0 478.8 163.688125" xmlns="http://www.w3.org/2000/svg" version="1.1">
 <metadata>
  <rdf:RDF xmlns:dc="http://purl.org/dc/elements/1.1/" xmlns:cc="http://creativecommons.org/ns#" xmlns:rdf="http://www.w3.org/1999/02/22-rdf-syntax-ns#">
   <cc:Work>
    <dc:type rdf:resource="http://purl.org/dc/dcmitype/StillImage"/>
    <dc:date>2025-10-17T14:35:37.750555</dc:date>
    <dc:format>image/svg+xml</dc:format>
    <dc:creator>
     <cc:Agent>
      <dc:title>Matplotlib v3.10.6, https://matplotlib.org/</dc:title>
     </cc:Agent>
    </dc:creator>
   </cc:Work>
  </rdf:RDF>
 </metadata>
 <defs>
  <style type="text/css">*{stroke-linejoin: round; stroke-linecap: butt}</style>
 </defs>
 <g id="figure_1">
  <g id="patch_1">
   <path d="M 0 163.688125 
L 478.8 163.688125 
L 478.8 0 
L 0 0 
L 0 163.688125 
z
" style="fill: none"/>
  </g>
  <g id="axes_1">
   <g id="patch_2">
    <path d="M 53.1 118.478438 
L 471.6 118.478438 
L 471.6 35.318438 
L 53.1 35.318438 
L 53.1 118.478438 
z
" style="fill: none"/>
   </g>
   <g id="PathCollection_1">
    <defs>
     <path id="mf12208856d" d="M 0 3.5 
C 0.928211 3.5 1.81853 3.131218 2.474874 2.474874 
C 3.131218 1.81853 3.5 0.928211 3.5 0 
C 3.5 -0.928211 3.131218 -1.81853 2.474874 -2.474874 
C 1.81853 -3.131218 0.928211 -3.5 0 -3.5 
C -0.928211 -3.5 -1.81853 -3.131218 -2.474874 -2.474874 
C -3.131218 -1.81853 -3.5 -0.928211 -3.5 0 
C -3.5 0.928211 -3.131218 1.81853 -2.474874 2.474874 
C -1.81853 3.131218 -0.928211 3.5 0 3.5 
z
"/>
    </defs>
    <g clip-path="url(#p9b430c8778)">
     <use xlink:href="#mf12208856d" x="72.122727" y="46.081053" style="fill: #2ca6a4"/>
     <use xlink:href="#mf12208856d" x="77.557792" y="46.073766" style="fill: #2ca6a4"/>
     <use xlink:href="#mf12208856d" x="82.992857" y="91.40196" style="fill: #2ca6a4"/>
     <use xlink:href="#mf12208856d" x="88.427922" y="101.480667" style="fill: #2ca6a4"/>
     <use xlink:href="#mf12208856d" x="93.862987" y="110.515222" style="fill: #2ca6a4"/>
     <use xlink:href="#mf12208856d" x="99.298052" y="88.507725" style="fill: #2ca6a4"/>
     <use xlink:href="#mf12208856d" x="104.733117" y="112.798777" style="fill: #2ca6a4"/>
     <use xlink:href="#mf12208856d" x="110.168182" y="106.424002" style="fill: #2ca6a4"/>
     <use xlink:href="#mf12208856d" x="115.603247" y="92.43748" style="fill: #2ca6a4"/>
     <use xlink:href="#mf12208856d" x="121.038312" y="90.85959" style="fill: #2ca6a4"/>
     <use xlink:href="#mf12208856d" x="126.473377" y="106.035034" style="fill: #2ca6a4"/>
     <use xlink:href="#mf12208856d" x="131.908442" y="101.091481" style="fill: #2ca6a4"/>
     <use xlink:href="#mf12208856d" x="137.343506" y="103.921484" style="fill: #2ca6a4"/>
     <use xlink:href="#mf12208856d" x="142.778571" y="84.449194" style="fill: #2ca6a4"/>
     <use xlink:href="#mf12208856d" x="148.213636" y="114.162121" style="fill: #2ca6a4"/>
     <use xlink:href="#mf12208856d" x="153.648701" y="107.426206" style="fill: #2ca6a4"/>
     <use xlink:href="#mf12208856d" x="159.083766" y="106.700045" style="fill: #2ca6a4"/>
     <use xlink:href="#mf12208856d" x="164.518831" y="110.164078" style="fill: #2ca6a4"/>
     <use xlink:href="#mf12208856d" x="169.953896" y="114.617447" style="fill: #2ca6a4"/>
     <use xlink:href="#mf12208856d" x="175.388961" y="89.333312" style="fill: #2ca6a4"/>
     <use xlink:href="#mf12208856d" x="180.824026" y="94.730406" style="fill: #2ca6a4"/>
     <use xlink:href="#mf12208856d" x="186.259091" y="105.803" style="fill: #2ca6a4"/>
     <use xlink:href="#mf12208856d" x="191.694156" y="107.864464" style="fill: #2ca6a4"/>
     <use xlink:href="#mf12208856d" x="197.129221" y="49.991303" style="fill: #2ca6a4"/>
     <use xlink:href="#mf12208856d" x="202.564286" y="88.05877" style="fill: #2ca6a4"/>
     <use xlink:href="#mf12208856d" x="207.999351" y="47.587654" style="fill: #2ca6a4"/>
     <use xlink:href="#mf12208856d" x="213.434416" y="70.913127" style="fill: #2ca6a4"/>
     <use xlink:href="#mf12208856d" x="218.869481" y="114.351382" style="fill: #2ca6a4"/>
     <use xlink:href="#mf12208856d" x="224.304545" y="114.621749" style="fill: #2ca6a4"/>
     <use xlink:href="#mf12208856d" x="229.73961" y="89.905516" style="fill: #2ca6a4"/>
     <use xlink:href="#mf12208856d" x="235.174675" y="94.465021" style="fill: #2ca6a4"/>
     <use xlink:href="#mf12208856d" x="240.60974" y="92.835183" style="fill: #2ca6a4"/>
     <use xlink:href="#mf12208856d" x="246.044805" y="105.306027" style="fill: #2ca6a4"/>
     <use xlink:href="#mf12208856d" x="251.47987" y="114.552459" style="fill: #2ca6a4"/>
     <use xlink:href="#mf12208856d" x="256.914935" y="100.582643" style="fill: #2ca6a4"/>
     <use xlink:href="#mf12208856d" x="262.35" y="100.183598" style="fill: #2ca6a4"/>
     <use xlink:href="#mf12208856d" x="267.785065" y="113.365634" style="fill: #2ca6a4"/>
     <use xlink:href="#mf12208856d" x="273.22013" y="107.005696" style="fill: #2ca6a4"/>
     <use xlink:href="#mf12208856d" x="278.655195" y="90.488543" style="fill: #2ca6a4"/>
     <use xlink:href="#mf12208856d" x="284.09026" y="104.964769" style="fill: #2ca6a4"/>
     <use xlink:href="#mf12208856d" x="289.525325" y="113.096137" style="fill: #2ca6a4"/>
     <use xlink:href="#mf12208856d" x="294.96039" y="94.033461" style="fill: #2ca6a4"/>
     <use xlink:href="#mf12208856d" x="300.395455" y="99.144938" style="fill: #2ca6a4"/>
     <use xlink:href="#mf12208856d" x="305.830519" y="76.996669" style="fill: #2ca6a4"/>
     <use xlink:href="#mf12208856d" x="311.265584" y="92.464587" style="fill: #2ca6a4"/>
     <use xlink:href="#mf12208856d" x="316.700649" y="107.015029" style="fill: #2ca6a4"/>
     <use xlink:href="#mf12208856d" x="322.135714" y="114.059015" style="fill: #2ca6a4"/>
     <use xlink:href="#mf12208856d" x="327.570779" y="114.331216" style="fill: #2ca6a4"/>
     <use xlink:href="#mf12208856d" x="333.005844" y="114.635351" style="fill: #2ca6a4"/>
     <use xlink:href="#mf12208856d" x="338.440909" y="84.939837" style="fill: #2ca6a4"/>
     <use xlink:href="#mf12208856d" x="343.875974" y="100.863282" style="fill: #2ca6a4"/>
     <use xlink:href="#mf12208856d" x="349.311039" y="113.673337" style="fill: #2ca6a4"/>
     <use xlink:href="#mf12208856d" x="354.746104" y="114.624371" style="fill: #2ca6a4"/>
     <use xlink:href="#mf12208856d" x="360.181169" y="113.948666" style="fill: #2ca6a4"/>
     <use xlink:href="#mf12208856d" x="365.616234" y="99.147663" style="fill: #2ca6a4"/>
     <use xlink:href="#mf12208856d" x="371.051299" y="104.865344" style="fill: #2ca6a4"/>
     <use xlink:href="#mf12208856d" x="376.486364" y="106.877587" style="fill: #2ca6a4"/>
     <use xlink:href="#mf12208856d" x="381.921429" y="112.420832" style="fill: #2ca6a4"/>
     <use xlink:href="#mf12208856d" x="387.356494" y="114.11565" style="fill: #2ca6a4"/>
     <use xlink:href="#mf12208856d" x="392.791558" y="113.803484" style="fill: #2ca6a4"/>
     <use xlink:href="#mf12208856d" x="398.226623" y="97.55136" style="fill: #2ca6a4"/>
     <use xlink:href="#mf12208856d" x="403.661688" y="113.210977" style="fill: #2ca6a4"/>
     <use xlink:href="#mf12208856d" x="409.096753" y="91.031182" style="fill: #2ca6a4"/>
     <use xlink:href="#mf12208856d" x="414.531818" y="103.493999" style="fill: #2ca6a4"/>
     <use xlink:href="#mf12208856d" x="419.966883" y="80.962111" style="fill: #2ca6a4"/>
     <use xlink:href="#mf12208856d" x="425.401948" y="113.546076" style="fill: #2ca6a4"/>
     <use xlink:href="#mf12208856d" x="430.837013" y="109.192193" style="fill: #2ca6a4"/>
     <use xlink:href="#mf12208856d" x="436.272078" y="94.061284" style="fill: #2ca6a4"/>
     <use xlink:href="#mf12208856d" x="441.707143" y="114.69477" style="fill: #2ca6a4"/>
     <use xlink:href="#mf12208856d" x="447.142208" y="91.068226" style="fill: #2ca6a4"/>
     <use xlink:href="#mf12208856d" x="452.577273" y="114.100977" style="fill: #2ca6a4"/>
    </g>
   </g>
   <g id="PathCollection_2">
    <defs>
     <path id="m042bdb9451" d="M 0 3.5 
C 0.928211 3.5 1.81853 3.131218 2.474874 2.474874 
C 3.131218 1.81853 3.5 0.928211 3.5 0 
C 3.5 -0.928211 3.131218 -1.81853 2.474874 -2.474874 
C 1.81853 -3.131218 0.928211 -3.5 0 -3.5 
C -0.928211 -3.5 -1.81853 -3.131218 -2.474874 -2.474874 
C -3.131218 -1.81853 -3.5 -0.928211 -3.5 0 
C -3.5 0.928211 -3.131218 1.81853 -2.474874 2.474874 
C -1.81853 3.131218 -0.928211 3.5 0 3.5 
z
"/>
    </defs>
    <g clip-path="url(#p9b430c8778)">
     <use xlink:href="#m042bdb9451" x="72.122727" y="114.638161" style="fill: #e3b505"/>
     <use xlink:href="#m042bdb9451" x="77.557792" y="114.636296" style="fill: #e3b505"/>
     <use xlink:href="#m042bdb9451" x="82.992857" y="69.389292" style="fill: #e3b505"/>
     <use xlink:href="#m042bdb9451" x="88.427922" y="60.273508" style="fill: #e3b505"/>
     <use xlink:href="#m042bdb9451" x="93.862987" y="50.205106" style="fill: #e3b505"/>
     <use xlink:href="#m042bdb9451" x="99.298052" y="72.461991" style="fill: #e3b505"/>
     <use xlink:href="#m042bdb9451" x="104.733117" y="91.035898" style="fill: #e3b505"/>
     <use xlink:href="#m042bdb9451" x="110.168182" y="54.41507" style="fill: #e3b505"/>
     <use xlink:href="#m042bdb9451" x="115.603247" y="68.71615" style="fill: #e3b505"/>
     <use xlink:href="#m042bdb9451" x="121.038312" y="69.915282" style="fill: #e3b505"/>
     <use xlink:href="#m042bdb9451" x="126.473377" y="54.757956" style="fill: #e3b505"/>
     <use xlink:href="#m042bdb9451" x="131.908442" y="59.755286" style="fill: #e3b505"/>
     <use xlink:href="#m042bdb9451" x="137.343506" y="56.835" style="fill: #e3b505"/>
     <use xlink:href="#m042bdb9451" x="142.778571" y="109.2503" style="fill: #e3b505"/>
     <use xlink:href="#m042bdb9451" x="148.213636" y="46.583423" style="fill: #e3b505"/>
     <use xlink:href="#m042bdb9451" x="153.648701" y="53.300021" style="fill: #e3b505"/>
     <use xlink:href="#m042bdb9451" x="159.083766" y="85.65959" style="fill: #e3b505"/>
     <use xlink:href="#m042bdb9451" x="164.518831" y="56.800536" style="fill: #e3b505"/>
     <use xlink:href="#m042bdb9451" x="169.953896" y="46.09726" style="fill: #e3b505"/>
     <use xlink:href="#m042bdb9451" x="175.388961" y="71.518846" style="fill: #e3b505"/>
     <use xlink:href="#m042bdb9451" x="180.824026" y="70.601512" style="fill: #e3b505"/>
     <use xlink:href="#m042bdb9451" x="186.259091" y="59.39657" style="fill: #e3b505"/>
     <use xlink:href="#m042bdb9451" x="191.694156" y="52.852447" style="fill: #e3b505"/>
     <use xlink:href="#m042bdb9451" x="197.129221" y="111.800744" style="fill: #e3b505"/>
     <use xlink:href="#m042bdb9451" x="202.564286" y="73.257007" style="fill: #e3b505"/>
     <use xlink:href="#m042bdb9451" x="207.999351" y="113.303431" style="fill: #e3b505"/>
     <use xlink:href="#m042bdb9451" x="213.434416" y="89.956099" style="fill: #e3b505"/>
     <use xlink:href="#m042bdb9451" x="218.869481" y="46.476848" style="fill: #e3b505"/>
     <use xlink:href="#m042bdb9451" x="224.304545" y="46.261407" style="fill: #e3b505"/>
     <use xlink:href="#m042bdb9451" x="229.73961" y="70.814135" style="fill: #e3b505"/>
     <use xlink:href="#m042bdb9451" x="235.174675" y="66.32201" style="fill: #e3b505"/>
     <use xlink:href="#m042bdb9451" x="240.60974" y="68.324782" style="fill: #e3b505"/>
     <use xlink:href="#m042bdb9451" x="246.044805" y="55.428144" style="fill: #e3b505"/>
     <use xlink:href="#m042bdb9451" x="251.47987" y="46.196778" style="fill: #e3b505"/>
     <use xlink:href="#m042bdb9451" x="256.914935" y="61.532515" style="fill: #e3b505"/>
     <use xlink:href="#m042bdb9451" x="262.35" y="78.006509" style="fill: #e3b505"/>
     <use xlink:href="#m042bdb9451" x="267.785065" y="47.344644" style="fill: #e3b505"/>
     <use xlink:href="#m042bdb9451" x="273.22013" y="72.99092" style="fill: #e3b505"/>
     <use xlink:href="#m042bdb9451" x="278.655195" y="70.301748" style="fill: #e3b505"/>
     <use xlink:href="#m042bdb9451" x="284.09026" y="113.196404" style="fill: #e3b505"/>
     <use xlink:href="#m042bdb9451" x="289.525325" y="50.354783" style="fill: #e3b505"/>
     <use xlink:href="#m042bdb9451" x="294.96039" y="103.916161" style="fill: #e3b505"/>
     <use xlink:href="#m042bdb9451" x="300.395455" y="111.216147" style="fill: #e3b505"/>
     <use xlink:href="#m042bdb9451" x="305.830519" y="91.417609" style="fill: #e3b505"/>
     <use xlink:href="#m042bdb9451" x="311.265584" y="112.867672" style="fill: #e3b505"/>
     <use xlink:href="#m042bdb9451" x="316.700649" y="108.832313" style="fill: #e3b505"/>
     <use xlink:href="#m042bdb9451" x="322.135714" y="114.192155" style="fill: #e3b505"/>
     <use xlink:href="#m042bdb9451" x="327.570779" y="114.054702" style="fill: #e3b505"/>
     <use xlink:href="#m042bdb9451" x="333.005844" y="114.612805" style="fill: #e3b505"/>
     <use xlink:href="#m042bdb9451" x="338.440909" y="75.862848" style="fill: #e3b505"/>
     <use xlink:href="#m042bdb9451" x="343.875974" y="114.550614" style="fill: #e3b505"/>
     <use xlink:href="#m042bdb9451" x="349.311039" y="114.561421" style="fill: #e3b505"/>
     <use xlink:href="#m042bdb9451" x="354.746104" y="114.052143" style="fill: #e3b505"/>
     <use xlink:href="#m042bdb9451" x="360.181169" y="114.698438" style="fill: #e3b505"/>
     <use xlink:href="#m042bdb9451" x="365.616234" y="114.679957" style="fill: #e3b505"/>
     <use xlink:href="#m042bdb9451" x="371.051299" y="114.678975" style="fill: #e3b505"/>
     <use xlink:href="#m042bdb9451" x="376.486364" y="114.263002" style="fill: #e3b505"/>
     <use xlink:href="#m042bdb9451" x="381.921429" y="114.694404" style="fill: #e3b505"/>
     <use xlink:href="#m042bdb9451" x="387.356494" y="114.621083" style="fill: #e3b505"/>
     <use xlink:href="#m042bdb9451" x="392.791558" y="114.672124" style="fill: #e3b505"/>
     <use xlink:href="#m042bdb9451" x="398.226623" y="63.495004" style="fill: #e3b505"/>
     <use xlink:href="#m042bdb9451" x="403.661688" y="114.68685" style="fill: #e3b505"/>
     <use xlink:href="#m042bdb9451" x="409.096753" y="114.643535" style="fill: #e3b505"/>
     <use xlink:href="#m042bdb9451" x="414.531818" y="114.654619" style="fill: #e3b505"/>
     <use xlink:href="#m042bdb9451" x="419.966883" y="114.634209" style="fill: #e3b505"/>
     <use xlink:href="#m042bdb9451" x="425.401948" y="85.21915" style="fill: #e3b505"/>
     <use xlink:href="#m042bdb9451" x="430.837013" y="86.599694" style="fill: #e3b505"/>
     <use xlink:href="#m042bdb9451" x="436.272078" y="103.242584" style="fill: #e3b505"/>
     <use xlink:href="#m042bdb9451" x="441.707143" y="114.665429" style="fill: #e3b505"/>
     <use xlink:href="#m042bdb9451" x="447.142208" y="71.666972" style="fill: #e3b505"/>
     <use xlink:href="#m042bdb9451" x="452.577273" y="52.273045" style="fill: #e3b505"/>
    </g>
   </g>
   <g id="PathCollection_3">
    <defs>
     <path id="mbd99eda087" d="M 0 3.5 
C 0.928211 3.5 1.81853 3.131218 2.474874 2.474874 
C 3.131218 1.81853 3.5 0.928211 3.5 0 
C 3.5 -0.928211 3.131218 -1.81853 2.474874 -2.474874 
C 1.81853 -3.131218 0.928211 -3.5 0 -3.5 
C -0.928211 -3.5 -1.81853 -3.131218 -2.474874 -2.474874 
C -3.131218 -1.81853 -3.5 -0.928211 -3.5 0 
C -3.5 0.928211 -3.131218 1.81853 -2.474874 2.474874 
C -1.81853 3.131218 -0.928211 3.5 0 3.5 
z
"/>
    </defs>
    <g clip-path="url(#p9b430c8778)">
     <use xlink:href="#mbd99eda087" x="72.122727" y="114.681711" style="fill: #4f6db8"/>
     <use xlink:href="#mbd99eda087" x="77.557792" y="114.690863" style="fill: #4f6db8"/>
     <use xlink:href="#mbd99eda087" x="82.992857" y="114.609672" style="fill: #4f6db8"/>
     <use xlink:href="#mbd99eda087" x="88.427922" y="113.64675" style="fill: #4f6db8"/>
     <use xlink:href="#mbd99eda087" x="93.862987" y="114.680597" style="fill: #4f6db8"/>
     <use xlink:href="#mbd99eda087" x="99.298052" y="114.431209" style="fill: #4f6db8"/>
     <use xlink:href="#mbd99eda087" x="104.733117" y="71.56625" style="fill: #4f6db8"/>
     <use xlink:href="#mbd99eda087" x="110.168182" y="114.561853" style="fill: #4f6db8"/>
     <use xlink:href="#mbd99eda087" x="115.603247" y="114.247295" style="fill: #4f6db8"/>
     <use xlink:href="#mbd99eda087" x="121.038312" y="114.626053" style="fill: #4f6db8"/>
     <use xlink:href="#mbd99eda087" x="126.473377" y="114.607934" style="fill: #4f6db8"/>
     <use xlink:href="#mbd99eda087" x="131.908442" y="114.554158" style="fill: #4f6db8"/>
     <use xlink:href="#mbd99eda087" x="137.343506" y="114.64444" style="fill: #4f6db8"/>
     <use xlink:href="#mbd99eda087" x="142.778571" y="81.701431" style="fill: #4f6db8"/>
     <use xlink:href="#mbd99eda087" x="148.213636" y="114.655381" style="fill: #4f6db8"/>
     <use xlink:href="#mbd99eda087" x="153.648701" y="114.674698" style="fill: #4f6db8"/>
     <use xlink:href="#mbd99eda087" x="159.083766" y="83.04129" style="fill: #4f6db8"/>
     <use xlink:href="#mbd99eda087" x="164.518831" y="108.436311" style="fill: #4f6db8"/>
     <use xlink:href="#mbd99eda087" x="169.953896" y="114.686218" style="fill: #4f6db8"/>
     <use xlink:href="#mbd99eda087" x="175.388961" y="114.548767" style="fill: #4f6db8"/>
     <use xlink:href="#mbd99eda087" x="180.824026" y="110.069007" style="fill: #4f6db8"/>
     <use xlink:href="#mbd99eda087" x="186.259091" y="110.201355" style="fill: #4f6db8"/>
     <use xlink:href="#mbd99eda087" x="191.694156" y="114.684014" style="fill: #4f6db8"/>
     <use xlink:href="#mbd99eda087" x="197.129221" y="113.608878" style="fill: #4f6db8"/>
     <use xlink:href="#mbd99eda087" x="202.564286" y="114.085148" style="fill: #4f6db8"/>
     <use xlink:href="#mbd99eda087" x="207.999351" y="114.50984" style="fill: #4f6db8"/>
     <use xlink:href="#mbd99eda087" x="213.434416" y="114.531699" style="fill: #4f6db8"/>
     <use xlink:href="#mbd99eda087" x="218.869481" y="114.572695" style="fill: #4f6db8"/>
     <use xlink:href="#mbd99eda087" x="224.304545" y="114.517769" style="fill: #4f6db8"/>
     <use xlink:href="#mbd99eda087" x="229.73961" y="114.681274" style="fill: #4f6db8"/>
     <use xlink:href="#mbd99eda087" x="235.174675" y="114.613893" style="fill: #4f6db8"/>
     <use xlink:href="#mbd99eda087" x="240.60974" y="114.24096" style="fill: #4f6db8"/>
     <use xlink:href="#mbd99eda087" x="246.044805" y="114.666753" style="fill: #4f6db8"/>
     <use xlink:href="#mbd99eda087" x="251.47987" y="114.651688" style="fill: #4f6db8"/>
     <use xlink:href="#mbd99eda087" x="256.914935" y="113.285767" style="fill: #4f6db8"/>
     <use xlink:href="#mbd99eda087" x="262.35" y="97.210817" style="fill: #4f6db8"/>
     <use xlink:href="#mbd99eda087" x="267.785065" y="114.690646" style="fill: #4f6db8"/>
     <use xlink:href="#mbd99eda087" x="273.22013" y="95.404309" style="fill: #4f6db8"/>
     <use xlink:href="#mbd99eda087" x="278.655195" y="114.610633" style="fill: #4f6db8"/>
     <use xlink:href="#mbd99eda087" x="284.09026" y="57.239751" style="fill: #4f6db8"/>
     <use xlink:href="#mbd99eda087" x="289.525325" y="111.950004" style="fill: #4f6db8"/>
     <use xlink:href="#mbd99eda087" x="294.96039" y="77.451302" style="fill: #4f6db8"/>
     <use xlink:href="#mbd99eda087" x="300.395455" y="65.03984" style="fill: #4f6db8"/>
     <use xlink:href="#mbd99eda087" x="305.830519" y="106.986647" style="fill: #4f6db8"/>
     <use xlink:href="#mbd99eda087" x="311.265584" y="70.068665" style="fill: #4f6db8"/>
     <use xlink:href="#mbd99eda087" x="316.700649" y="59.553582" style="fill: #4f6db8"/>
     <use xlink:href="#mbd99eda087" x="322.135714" y="47.149755" style="fill: #4f6db8"/>
     <use xlink:href="#mbd99eda087" x="327.570779" y="47.015007" style="fill: #4f6db8"/>
     <use xlink:href="#mbd99eda087" x="333.005844" y="46.152768" style="fill: #4f6db8"/>
     <use xlink:href="#mbd99eda087" x="338.440909" y="114.598239" style="fill: #4f6db8"/>
     <use xlink:href="#mbd99eda087" x="343.875974" y="59.987029" style="fill: #4f6db8"/>
     <use xlink:href="#mbd99eda087" x="349.311039" y="47.166167" style="fill: #4f6db8"/>
     <use xlink:href="#mbd99eda087" x="354.746104" y="46.72441" style="fill: #4f6db8"/>
     <use xlink:href="#mbd99eda087" x="360.181169" y="46.753822" style="fill: #4f6db8"/>
     <use xlink:href="#mbd99eda087" x="365.616234" y="61.573304" style="fill: #4f6db8"/>
     <use xlink:href="#mbd99eda087" x="371.051299" y="55.856606" style="fill: #4f6db8"/>
     <use xlink:href="#mbd99eda087" x="376.486364" y="54.260336" style="fill: #4f6db8"/>
     <use xlink:href="#mbd99eda087" x="381.921429" y="48.285689" style="fill: #4f6db8"/>
     <use xlink:href="#mbd99eda087" x="387.356494" y="46.664192" style="fill: #4f6db8"/>
     <use xlink:href="#mbd99eda087" x="392.791558" y="46.925316" style="fill: #4f6db8"/>
     <use xlink:href="#mbd99eda087" x="398.226623" y="114.35456" style="fill: #4f6db8"/>
     <use xlink:href="#mbd99eda087" x="403.661688" y="47.503097" style="fill: #4f6db8"/>
     <use xlink:href="#mbd99eda087" x="409.096753" y="69.726208" style="fill: #4f6db8"/>
     <use xlink:href="#mbd99eda087" x="414.531818" y="57.252307" style="fill: #4f6db8"/>
     <use xlink:href="#mbd99eda087" x="419.966883" y="79.804604" style="fill: #4f6db8"/>
     <use xlink:href="#mbd99eda087" x="425.401948" y="76.635699" style="fill: #4f6db8"/>
     <use xlink:href="#mbd99eda087" x="430.837013" y="79.609037" style="fill: #4f6db8"/>
     <use xlink:href="#mbd99eda087" x="436.272078" y="78.097056" style="fill: #4f6db8"/>
     <use xlink:href="#mbd99eda087" x="441.707143" y="46.040726" style="fill: #4f6db8"/>
     <use xlink:href="#mbd99eda087" x="447.142208" y="112.665726" style="fill: #4f6db8"/>
     <use xlink:href="#mbd99eda087" x="452.577273" y="109.026903" style="fill: #4f6db8"/>
    </g>
   </g>
   <g id="matplotlib.axis_1">
    <g id="xtick_1">
     <g id="line2d_1">
      <defs>
       <path id="m29cae435fe" d="M 0 0 
L 0 8.25 
" style="stroke: #000000; stroke-width: 1.4"/>
      </defs>
      <g>
       <use xlink:href="#m29cae435fe" x="66.687662" y="118.478438" style="stroke: #000000; stroke-width: 1.4"/>
      </g>
     </g>
     <g id="text_1">
      <!-- 0 -->
      <g transform="translate(62.870162 139.346563) scale(0.12 -0.12)">
       <defs>
        <path id="DejaVuSans-30" d="M 2034 4250 
Q 1547 4250 1301 3770 
Q 1056 3291 1056 2328 
Q 1056 1369 1301 889 
Q 1547 409 2034 409 
Q 2525 409 2770 889 
Q 3016 1369 3016 2328 
Q 3016 3291 2770 3770 
Q 2525 4250 2034 4250 
z
M 2034 4750 
Q 2819 4750 3233 4129 
Q 3647 3509 3647 2328 
Q 3647 1150 3233 529 
Q 2819 -91 2034 -91 
Q 1250 -91 836 529 
Q 422 1150 422 2328 
Q 422 3509 836 4129 
Q 1250 4750 2034 4750 
z
" transform="scale(0.015625)"/>
       </defs>
       <use xlink:href="#DejaVuSans-30"/>
      </g>
     </g>
    </g>
    <g id="xtick_2">
     <g id="line2d_2">
      <g>
       <use xlink:href="#m29cae435fe" x="121.038312" y="118.478438" style="stroke: #000000; stroke-width: 1.4"/>
      </g>
     </g>
     <g id="text_2">
      <!-- 10 -->
      <g transform="translate(113.403312 139.346563) scale(0.12 -0.12)">
       <defs>
        <path id="DejaVuSans-31" d="M 794 531 
L 1825 531 
L 1825 4091 
L 703 3866 
L 703 4441 
L 1819 4666 
L 2450 4666 
L 2450 531 
L 3481 531 
L 3481 0 
L 794 0 
L 794 531 
z
" transform="scale(0.015625)"/>
       </defs>
       <use xlink:href="#DejaVuSans-31"/>
       <use xlink:href="#DejaVuSans-30" transform="translate(63.623047 0)"/>
      </g>
     </g>
    </g>
    <g id="xtick_3">
     <g id="line2d_3">
      <g>
       <use xlink:href="#m29cae435fe" x="175.388961" y="118.478438" style="stroke: #000000; stroke-width: 1.4"/>
      </g>
     </g>
     <g id="text_3">
      <!-- 20 -->
      <g transform="translate(167.753961 139.346563) scale(0.12 -0.12)">
       <defs>
        <path id="DejaVuSans-32" d="M 1228 531 
L 3431 531 
L 3431 0 
L 469 0 
L 469 531 
Q 828 903 1448 1529 
Q 2069 2156 2228 2338 
Q 2531 2678 2651 2914 
Q 2772 3150 2772 3378 
Q 2772 3750 2511 3984 
Q 2250 4219 1831 4219 
Q 1534 4219 1204 4116 
Q 875 4013 500 3803 
L 500 4441 
Q 881 4594 1212 4672 
Q 1544 4750 1819 4750 
Q 2544 4750 2975 4387 
Q 3406 4025 3406 3419 
Q 3406 3131 3298 2873 
Q 3191 2616 2906 2266 
Q 2828 2175 2409 1742 
Q 1991 1309 1228 531 
z
" transform="scale(0.015625)"/>
       </defs>
       <use xlink:href="#DejaVuSans-32"/>
       <use xlink:href="#DejaVuSans-30" transform="translate(63.623047 0)"/>
      </g>
     </g>
    </g>
    <g id="xtick_4">
     <g id="line2d_4">
      <g>
       <use xlink:href="#m29cae435fe" x="229.73961" y="118.478438" style="stroke: #000000; stroke-width: 1.4"/>
      </g>
     </g>
     <g id="text_4">
      <!-- 30 -->
      <g transform="translate(222.10461 139.346563) scale(0.12 -0.12)">
       <defs>
        <path id="DejaVuSans-33" d="M 2597 2516 
Q 3050 2419 3304 2112 
Q 3559 1806 3559 1356 
Q 3559 666 3084 287 
Q 2609 -91 1734 -91 
Q 1441 -91 1130 -33 
Q 819 25 488 141 
L 488 750 
Q 750 597 1062 519 
Q 1375 441 1716 441 
Q 2309 441 2620 675 
Q 2931 909 2931 1356 
Q 2931 1769 2642 2001 
Q 2353 2234 1838 2234 
L 1294 2234 
L 1294 2753 
L 1863 2753 
Q 2328 2753 2575 2939 
Q 2822 3125 2822 3475 
Q 2822 3834 2567 4026 
Q 2313 4219 1838 4219 
Q 1578 4219 1281 4162 
Q 984 4106 628 3988 
L 628 4550 
Q 988 4650 1302 4700 
Q 1616 4750 1894 4750 
Q 2613 4750 3031 4423 
Q 3450 4097 3450 3541 
Q 3450 3153 3228 2886 
Q 3006 2619 2597 2516 
z
" transform="scale(0.015625)"/>
       </defs>
       <use xlink:href="#DejaVuSans-33"/>
       <use xlink:href="#DejaVuSans-30" transform="translate(63.623047 0)"/>
      </g>
     </g>
    </g>
    <g id="xtick_5">
     <g id="line2d_5">
      <g>
       <use xlink:href="#m29cae435fe" x="284.09026" y="118.478438" style="stroke: #000000; stroke-width: 1.4"/>
      </g>
     </g>
     <g id="text_5">
      <!-- 40 -->
      <g transform="translate(276.45526 139.346563) scale(0.12 -0.12)">
       <defs>
        <path id="DejaVuSans-34" d="M 2419 4116 
L 825 1625 
L 2419 1625 
L 2419 4116 
z
M 2253 4666 
L 3047 4666 
L 3047 1625 
L 3713 1625 
L 3713 1100 
L 3047 1100 
L 3047 0 
L 2419 0 
L 2419 1100 
L 313 1100 
L 313 1709 
L 2253 4666 
z
" transform="scale(0.015625)"/>
       </defs>
       <use xlink:href="#DejaVuSans-34"/>
       <use xlink:href="#DejaVuSans-30" transform="translate(63.623047 0)"/>
      </g>
     </g>
    </g>
    <g id="xtick_6">
     <g id="line2d_6">
      <g>
       <use xlink:href="#m29cae435fe" x="338.440909" y="118.478438" style="stroke: #000000; stroke-width: 1.4"/>
      </g>
     </g>
     <g id="text_6">
      <!-- 50 -->
      <g transform="translate(330.805909 139.346563) scale(0.12 -0.12)">
       <defs>
        <path id="DejaVuSans-35" d="M 691 4666 
L 3169 4666 
L 3169 4134 
L 1269 4134 
L 1269 2991 
Q 1406 3038 1543 3061 
Q 1681 3084 1819 3084 
Q 2600 3084 3056 2656 
Q 3513 2228 3513 1497 
Q 3513 744 3044 326 
Q 2575 -91 1722 -91 
Q 1428 -91 1123 -41 
Q 819 9 494 109 
L 494 744 
Q 775 591 1075 516 
Q 1375 441 1709 441 
Q 2250 441 2565 725 
Q 2881 1009 2881 1497 
Q 2881 1984 2565 2268 
Q 2250 2553 1709 2553 
Q 1456 2553 1204 2497 
Q 953 2441 691 2322 
L 691 4666 
z
" transform="scale(0.015625)"/>
       </defs>
       <use xlink:href="#DejaVuSans-35"/>
       <use xlink:href="#DejaVuSans-30" transform="translate(63.623047 0)"/>
      </g>
     </g>
    </g>
    <g id="xtick_7">
     <g id="line2d_7">
      <g>
       <use xlink:href="#m29cae435fe" x="392.791558" y="118.478438" style="stroke: #000000; stroke-width: 1.4"/>
      </g>
     </g>
     <g id="text_7">
      <!-- 60 -->
      <g transform="translate(385.156558 139.346563) scale(0.12 -0.12)">
       <defs>
        <path id="DejaVuSans-36" d="M 2113 2584 
Q 1688 2584 1439 2293 
Q 1191 2003 1191 1497 
Q 1191 994 1439 701 
Q 1688 409 2113 409 
Q 2538 409 2786 701 
Q 3034 994 3034 1497 
Q 3034 2003 2786 2293 
Q 2538 2584 2113 2584 
z
M 3366 4563 
L 3366 3988 
Q 3128 4100 2886 4159 
Q 2644 4219 2406 4219 
Q 1781 4219 1451 3797 
Q 1122 3375 1075 2522 
Q 1259 2794 1537 2939 
Q 1816 3084 2150 3084 
Q 2853 3084 3261 2657 
Q 3669 2231 3669 1497 
Q 3669 778 3244 343 
Q 2819 -91 2113 -91 
Q 1303 -91 875 529 
Q 447 1150 447 2328 
Q 447 3434 972 4092 
Q 1497 4750 2381 4750 
Q 2619 4750 2861 4703 
Q 3103 4656 3366 4563 
z
" transform="scale(0.015625)"/>
       </defs>
       <use xlink:href="#DejaVuSans-36"/>
       <use xlink:href="#DejaVuSans-30" transform="translate(63.623047 0)"/>
      </g>
     </g>
    </g>
    <g id="xtick_8">
     <g id="line2d_8">
      <g>
       <use xlink:href="#m29cae435fe" x="447.142208" y="118.478438" style="stroke: #000000; stroke-width: 1.4"/>
      </g>
     </g>
     <g id="text_8">
      <!-- 70 -->
      <g transform="translate(439.507208 139.346563) scale(0.12 -0.12)">
       <defs>
        <path id="DejaVuSans-37" d="M 525 4666 
L 3525 4666 
L 3525 4397 
L 1831 0 
L 1172 0 
L 2766 4134 
L 525 4134 
L 525 4666 
z
" transform="scale(0.015625)"/>
       </defs>
       <use xlink:href="#DejaVuSans-37"/>
       <use xlink:href="#DejaVuSans-30" transform="translate(63.623047 0)"/>
      </g>
     </g>
    </g>
    <g id="text_9">
     <!-- Sessions -->
     <g transform="translate(238.499766 154.200469) scale(0.11 -0.11)">
      <defs>
       <path id="DejaVuSans-53" d="M 3425 4513 
L 3425 3897 
Q 3066 4069 2747 4153 
Q 2428 4238 2131 4238 
Q 1616 4238 1336 4038 
Q 1056 3838 1056 3469 
Q 1056 3159 1242 3001 
Q 1428 2844 1947 2747 
L 2328 2669 
Q 3034 2534 3370 2195 
Q 3706 1856 3706 1288 
Q 3706 609 3251 259 
Q 2797 -91 1919 -91 
Q 1588 -91 1214 -16 
Q 841 59 441 206 
L 441 856 
Q 825 641 1194 531 
Q 1563 422 1919 422 
Q 2459 422 2753 634 
Q 3047 847 3047 1241 
Q 3047 1584 2836 1778 
Q 2625 1972 2144 2069 
L 1759 2144 
Q 1053 2284 737 2584 
Q 422 2884 422 3419 
Q 422 4038 858 4394 
Q 1294 4750 2059 4750 
Q 2388 4750 2728 4690 
Q 3069 4631 3425 4513 
z
" transform="scale(0.015625)"/>
       <path id="DejaVuSans-65" d="M 3597 1894 
L 3597 1613 
L 953 1613 
Q 991 1019 1311 708 
Q 1631 397 2203 397 
Q 2534 397 2845 478 
Q 3156 559 3463 722 
L 3463 178 
Q 3153 47 2828 -22 
Q 2503 -91 2169 -91 
Q 1331 -91 842 396 
Q 353 884 353 1716 
Q 353 2575 817 3079 
Q 1281 3584 2069 3584 
Q 2775 3584 3186 3129 
Q 3597 2675 3597 1894 
z
M 3022 2063 
Q 3016 2534 2758 2815 
Q 2500 3097 2075 3097 
Q 1594 3097 1305 2825 
Q 1016 2553 972 2059 
L 3022 2063 
z
" transform="scale(0.015625)"/>
       <path id="DejaVuSans-73" d="M 2834 3397 
L 2834 2853 
Q 2591 2978 2328 3040 
Q 2066 3103 1784 3103 
Q 1356 3103 1142 2972 
Q 928 2841 928 2578 
Q 928 2378 1081 2264 
Q 1234 2150 1697 2047 
L 1894 2003 
Q 2506 1872 2764 1633 
Q 3022 1394 3022 966 
Q 3022 478 2636 193 
Q 2250 -91 1575 -91 
Q 1294 -91 989 -36 
Q 684 19 347 128 
L 347 722 
Q 666 556 975 473 
Q 1284 391 1588 391 
Q 1994 391 2212 530 
Q 2431 669 2431 922 
Q 2431 1156 2273 1281 
Q 2116 1406 1581 1522 
L 1381 1569 
Q 847 1681 609 1914 
Q 372 2147 372 2553 
Q 372 3047 722 3315 
Q 1072 3584 1716 3584 
Q 2034 3584 2315 3537 
Q 2597 3491 2834 3397 
z
" transform="scale(0.015625)"/>
       <path id="DejaVuSans-69" d="M 603 3500 
L 1178 3500 
L 1178 0 
L 603 0 
L 603 3500 
z
M 603 4863 
L 1178 4863 
L 1178 4134 
L 603 4134 
L 603 4863 
z
" transform="scale(0.015625)"/>
       <path id="DejaVuSans-6f" d="M 1959 3097 
Q 1497 3097 1228 2736 
Q 959 2375 959 1747 
Q 959 1119 1226 758 
Q 1494 397 1959 397 
Q 2419 397 2687 759 
Q 2956 1122 2956 1747 
Q 2956 2369 2687 2733 
Q 2419 3097 1959 3097 
z
M 1959 3584 
Q 2709 3584 3137 3096 
Q 3566 2609 3566 1747 
Q 3566 888 3137 398 
Q 2709 -91 1959 -91 
Q 1206 -91 779 398 
Q 353 888 353 1747 
Q 353 2609 779 3096 
Q 1206 3584 1959 3584 
z
" transform="scale(0.015625)"/>
       <path id="DejaVuSans-6e" d="M 3513 2113 
L 3513 0 
L 2938 0 
L 2938 2094 
Q 2938 2591 2744 2837 
Q 2550 3084 2163 3084 
Q 1697 3084 1428 2787 
Q 1159 2491 1159 1978 
L 1159 0 
L 581 0 
L 581 3500 
L 1159 3500 
L 1159 2956 
Q 1366 3272 1645 3428 
Q 1925 3584 2291 3584 
Q 2894 3584 3203 3211 
Q 3513 2838 3513 2113 
z
" transform="scale(0.015625)"/>
      </defs>
      <use xlink:href="#DejaVuSans-53"/>
      <use xlink:href="#DejaVuSans-65" transform="translate(63.476562 0)"/>
      <use xlink:href="#DejaVuSans-73" transform="translate(125 0)"/>
      <use xlink:href="#DejaVuSans-73" transform="translate(177.099609 0)"/>
      <use xlink:href="#DejaVuSans-69" transform="translate(229.199219 0)"/>
      <use xlink:href="#DejaVuSans-6f" transform="translate(256.982422 0)"/>
      <use xlink:href="#DejaVuSans-6e" transform="translate(318.164062 0)"/>
      <use xlink:href="#DejaVuSans-73" transform="translate(381.542969 0)"/>
     </g>
    </g>
   </g>
   <g id="matplotlib.axis_2">
    <g id="ytick_1">
     <g id="line2d_9">
      <defs>
       <path id="mccf9878047" d="M 0 0 
L -8.25 0 
" style="stroke: #000000; stroke-width: 1.4"/>
      </defs>
      <g>
       <use xlink:href="#mccf9878047" x="53.1" y="114.714165" style="stroke: #000000; stroke-width: 1.4"/>
      </g>
     </g>
     <g id="text_10">
      <!-- 0.0 -->
      <g transform="translate(22.26625 119.273228) scale(0.12 -0.12)">
       <defs>
        <path id="DejaVuSans-2e" d="M 684 794 
L 1344 794 
L 1344 0 
L 684 0 
L 684 794 
z
" transform="scale(0.015625)"/>
       </defs>
       <use xlink:href="#DejaVuSans-30"/>
       <use xlink:href="#DejaVuSans-2e" transform="translate(63.623047 0)"/>
       <use xlink:href="#DejaVuSans-30" transform="translate(95.410156 0)"/>
      </g>
     </g>
    </g>
    <g id="ytick_2">
     <g id="line2d_10">
      <g>
       <use xlink:href="#mccf9878047" x="53.1" y="80.34338" style="stroke: #000000; stroke-width: 1.4"/>
      </g>
     </g>
     <g id="text_11">
      <!-- 0.5 -->
      <g transform="translate(22.26625 84.902442) scale(0.12 -0.12)">
       <use xlink:href="#DejaVuSans-30"/>
       <use xlink:href="#DejaVuSans-2e" transform="translate(63.623047 0)"/>
       <use xlink:href="#DejaVuSans-35" transform="translate(95.410156 0)"/>
      </g>
     </g>
    </g>
    <g id="ytick_3">
     <g id="line2d_11">
      <g>
       <use xlink:href="#mccf9878047" x="53.1" y="45.972595" style="stroke: #000000; stroke-width: 1.4"/>
      </g>
     </g>
     <g id="text_12">
      <!-- 1.0 -->
      <g transform="translate(22.26625 50.531657) scale(0.12 -0.12)">
       <use xlink:href="#DejaVuSans-31"/>
       <use xlink:href="#DejaVuSans-2e" transform="translate(63.623047 0)"/>
       <use xlink:href="#DejaVuSans-30" transform="translate(95.410156 0)"/>
      </g>
     </g>
    </g>
    <g id="text_13">
     <!-- P(state) -->
     <g transform="translate(15.978594 98.438672) rotate(-90) scale(0.11 -0.11)">
      <defs>
       <path id="DejaVuSans-50" d="M 1259 4147 
L 1259 2394 
L 2053 2394 
Q 2494 2394 2734 2622 
Q 2975 2850 2975 3272 
Q 2975 3691 2734 3919 
Q 2494 4147 2053 4147 
L 1259 4147 
z
M 628 4666 
L 2053 4666 
Q 2838 4666 3239 4311 
Q 3641 3956 3641 3272 
Q 3641 2581 3239 2228 
Q 2838 1875 2053 1875 
L 1259 1875 
L 1259 0 
L 628 0 
L 628 4666 
z
" transform="scale(0.015625)"/>
       <path id="DejaVuSans-28" d="M 1984 4856 
Q 1566 4138 1362 3434 
Q 1159 2731 1159 2009 
Q 1159 1288 1364 580 
Q 1569 -128 1984 -844 
L 1484 -844 
Q 1016 -109 783 600 
Q 550 1309 550 2009 
Q 550 2706 781 3412 
Q 1013 4119 1484 4856 
L 1984 4856 
z
" transform="scale(0.015625)"/>
       <path id="DejaVuSans-74" d="M 1172 4494 
L 1172 3500 
L 2356 3500 
L 2356 3053 
L 1172 3053 
L 1172 1153 
Q 1172 725 1289 603 
Q 1406 481 1766 481 
L 2356 481 
L 2356 0 
L 1766 0 
Q 1100 0 847 248 
Q 594 497 594 1153 
L 594 3053 
L 172 3053 
L 172 3500 
L 594 3500 
L 594 4494 
L 1172 4494 
z
" transform="scale(0.015625)"/>
       <path id="DejaVuSans-61" d="M 2194 1759 
Q 1497 1759 1228 1600 
Q 959 1441 959 1056 
Q 959 750 1161 570 
Q 1363 391 1709 391 
Q 2188 391 2477 730 
Q 2766 1069 2766 1631 
L 2766 1759 
L 2194 1759 
z
M 3341 1997 
L 3341 0 
L 2766 0 
L 2766 531 
Q 2569 213 2275 61 
Q 1981 -91 1556 -91 
Q 1019 -91 701 211 
Q 384 513 384 1019 
Q 384 1609 779 1909 
Q 1175 2209 1959 2209 
L 2766 2209 
L 2766 2266 
Q 2766 2663 2505 2880 
Q 2244 3097 1772 3097 
Q 1472 3097 1187 3025 
Q 903 2953 641 2809 
L 641 3341 
Q 956 3463 1253 3523 
Q 1550 3584 1831 3584 
Q 2591 3584 2966 3190 
Q 3341 2797 3341 1997 
z
" transform="scale(0.015625)"/>
       <path id="DejaVuSans-29" d="M 513 4856 
L 1013 4856 
Q 1481 4119 1714 3412 
Q 1947 2706 1947 2009 
Q 1947 1309 1714 600 
Q 1481 -109 1013 -844 
L 513 -844 
Q 928 -128 1133 580 
Q 1338 1288 1338 2009 
Q 1338 2731 1133 3434 
Q 928 4138 513 4856 
z
" transform="scale(0.015625)"/>
      </defs>
      <use xlink:href="#DejaVuSans-50"/>
      <use xlink:href="#DejaVuSans-28" transform="translate(60.302734 0)"/>
      <use xlink:href="#DejaVuSans-73" transform="translate(99.316406 0)"/>
      <use xlink:href="#DejaVuSans-74" transform="translate(151.416016 0)"/>
      <use xlink:href="#DejaVuSans-61" transform="translate(190.625 0)"/>
      <use xlink:href="#DejaVuSans-74" transform="translate(251.904297 0)"/>
      <use xlink:href="#DejaVuSans-65" transform="translate(291.113281 0)"/>
      <use xlink:href="#DejaVuSans-29" transform="translate(352.636719 0)"/>
     </g>
    </g>
   </g>
   <g id="line2d_12">
    <path d="M 72.122727 46.081053 
L 77.557792 46.073766 
L 82.992857 91.40196 
L 88.427922 101.480667 
L 93.862987 110.515222 
L 99.298052 88.507725 
L 104.733117 112.798777 
L 110.168182 106.424002 
L 115.603247 92.43748 
L 121.038312 90.85959 
L 126.473377 106.035034 
L 131.908442 101.091481 
L 137.343506 103.921484 
L 142.778571 84.449194 
L 148.213636 114.162121 
L 153.648701 107.426206 
L 159.083766 106.700045 
L 164.518831 110.164078 
L 169.953896 114.617447 
L 175.388961 89.333312 
L 180.824026 94.730406 
L 186.259091 105.803 
L 191.694156 107.864464 
L 197.129221 49.991303 
L 202.564286 88.05877 
L 207.999351 47.587654 
L 213.434416 70.913127 
L 218.869481 114.351382 
L 224.304545 114.621749 
L 229.73961 89.905516 
L 235.174675 94.465021 
L 240.60974 92.835183 
L 246.044805 105.306027 
L 251.47987 114.552459 
L 256.914935 100.582643 
L 262.35 100.183598 
L 267.785065 113.365634 
L 273.22013 107.005696 
L 278.655195 90.488543 
L 284.09026 104.964769 
L 289.525325 113.096137 
L 294.96039 94.033461 
L 300.395455 99.144938 
L 305.830519 76.996669 
L 311.265584 92.464587 
L 316.700649 107.015029 
L 322.135714 114.059015 
L 327.570779 114.331216 
L 333.005844 114.635351 
L 338.440909 84.939837 
L 343.875974 100.863282 
L 349.311039 113.673337 
L 354.746104 114.624371 
L 360.181169 113.948666 
L 365.616234 99.147663 
L 371.051299 104.865344 
L 376.486364 106.877587 
L 381.921429 112.420832 
L 387.356494 114.11565 
L 392.791558 113.803484 
L 398.226623 97.55136 
L 403.661688 113.210977 
L 409.096753 91.031182 
L 414.531818 103.493999 
L 419.966883 80.962111 
L 425.401948 113.546076 
L 430.837013 109.192193 
L 436.272078 94.061284 
L 441.707143 114.69477 
L 447.142208 91.068226 
L 452.577273 114.100977 
" clip-path="url(#p9b430c8778)" style="fill: none; stroke: #2ca6a4; stroke-width: 2; stroke-linecap: square"/>
   </g>
   <g id="line2d_13">
    <path d="M 72.122727 114.638161 
L 77.557792 114.636296 
L 82.992857 69.389292 
L 88.427922 60.273508 
L 93.862987 50.205106 
L 99.298052 72.461991 
L 104.733117 91.035898 
L 110.168182 54.41507 
L 115.603247 68.71615 
L 121.038312 69.915282 
L 126.473377 54.757956 
L 131.908442 59.755286 
L 137.343506 56.835 
L 142.778571 109.2503 
L 148.213636 46.583423 
L 153.648701 53.300021 
L 159.083766 85.65959 
L 164.518831 56.800536 
L 169.953896 46.09726 
L 175.388961 71.518846 
L 180.824026 70.601512 
L 186.259091 59.39657 
L 191.694156 52.852447 
L 197.129221 111.800744 
L 202.564286 73.257007 
L 207.999351 113.303431 
L 213.434416 89.956099 
L 218.869481 46.476848 
L 224.304545 46.261407 
L 229.73961 70.814135 
L 235.174675 66.32201 
L 240.60974 68.324782 
L 246.044805 55.428144 
L 251.47987 46.196778 
L 256.914935 61.532515 
L 262.35 78.006509 
L 267.785065 47.344644 
L 273.22013 72.99092 
L 278.655195 70.301748 
L 284.09026 113.196404 
L 289.525325 50.354783 
L 294.96039 103.916161 
L 300.395455 111.216147 
L 305.830519 91.417609 
L 311.265584 112.867672 
L 316.700649 108.832313 
L 322.135714 114.192155 
L 327.570779 114.054702 
L 333.005844 114.612805 
L 338.440909 75.862848 
L 343.875974 114.550614 
L 349.311039 114.561421 
L 354.746104 114.052143 
L 360.181169 114.698438 
L 365.616234 114.679957 
L 371.051299 114.678975 
L 376.486364 114.263002 
L 381.921429 114.694404 
L 387.356494 114.621083 
L 392.791558 114.672124 
L 398.226623 63.495004 
L 403.661688 114.68685 
L 409.096753 114.643535 
L 414.531818 114.654619 
L 419.966883 114.634209 
L 425.401948 85.21915 
L 430.837013 86.599694 
L 436.272078 103.242584 
L 441.707143 114.665429 
L 447.142208 71.666972 
L 452.577273 52.273045 
" clip-path="url(#p9b430c8778)" style="fill: none; stroke: #e3b505; stroke-width: 2; stroke-linecap: square"/>
   </g>
   <g id="line2d_14">
    <path d="M 72.122727 114.681711 
L 77.557792 114.690863 
L 82.992857 114.609672 
L 88.427922 113.64675 
L 93.862987 114.680597 
L 99.298052 114.431209 
L 104.733117 71.56625 
L 110.168182 114.561853 
L 115.603247 114.247295 
L 121.038312 114.626053 
L 126.473377 114.607934 
L 131.908442 114.554158 
L 137.343506 114.64444 
L 142.778571 81.701431 
L 148.213636 114.655381 
L 153.648701 114.674698 
L 159.083766 83.04129 
L 164.518831 108.436311 
L 169.953896 114.686218 
L 175.388961 114.548767 
L 180.824026 110.069007 
L 186.259091 110.201355 
L 191.694156 114.684014 
L 197.129221 113.608878 
L 202.564286 114.085148 
L 207.999351 114.50984 
L 213.434416 114.531699 
L 218.869481 114.572695 
L 224.304545 114.517769 
L 229.73961 114.681274 
L 235.174675 114.613893 
L 240.60974 114.24096 
L 246.044805 114.666753 
L 251.47987 114.651688 
L 256.914935 113.285767 
L 262.35 97.210817 
L 267.785065 114.690646 
L 273.22013 95.404309 
L 278.655195 114.610633 
L 284.09026 57.239751 
L 289.525325 111.950004 
L 294.96039 77.451302 
L 300.395455 65.03984 
L 305.830519 106.986647 
L 311.265584 70.068665 
L 316.700649 59.553582 
L 322.135714 47.149755 
L 327.570779 47.015007 
L 333.005844 46.152768 
L 338.440909 114.598239 
L 343.875974 59.987029 
L 349.311039 47.166167 
L 354.746104 46.72441 
L 360.181169 46.753822 
L 365.616234 61.573304 
L 371.051299 55.856606 
L 376.486364 54.260336 
L 381.921429 48.285689 
L 387.356494 46.664192 
L 392.791558 46.925316 
L 398.226623 114.35456 
L 403.661688 47.503097 
L 409.096753 69.726208 
L 414.531818 57.252307 
L 419.966883 79.804604 
L 425.401948 76.635699 
L 430.837013 79.609037 
L 436.272078 78.097056 
L 441.707143 46.040726 
L 447.142208 112.665726 
L 452.577273 109.026903 
" clip-path="url(#p9b430c8778)" style="fill: none; stroke: #4f6db8; stroke-width: 2; stroke-linecap: square"/>
   </g>
   <g id="line2d_15">
    <path d="M 72.122727 39.098438 
L 77.557792 39.098438 
" style="fill: none; stroke: #808080; stroke-width: 4; stroke-linecap: square"/>
   </g>
   <g id="line2d_16">
    <path d="M 82.992857 39.098438 
L 273.22013 39.098438 
" style="fill: none; stroke: #ffa500; stroke-width: 4; stroke-linecap: square"/>
   </g>
   <g id="line2d_17">
    <path d="M 278.655195 39.098438 
L 452.577273 39.098438 
" style="fill: none; stroke: #800080; stroke-width: 4; stroke-linecap: square"/>
   </g>
   <g id="patch_3">
    <path d="M 53.1 114.714165 
L 53.1 45.972595 
" style="fill: none; stroke: #000000; stroke-width: 1.2; stroke-linejoin: miter; stroke-linecap: square"/>
   </g>
   <g id="patch_4">
    <path d="M 53.1 118.478438 
L 471.6 118.478438 
" style="fill: none; stroke: #000000; stroke-width: 1.2; stroke-linejoin: miter; stroke-linecap: square"/>
   </g>
   <g id="text_14">
    <!-- 0 -->
    <g style="fill: #808080" transform="translate(71.02276 37.379898) scale(0.12 -0.12)">
     <use xlink:href="#DejaVuSans-30"/>
    </g>
   </g>
   <g id="text_15">
    <!-- 1 -->
    <g style="fill: #ffa500" transform="translate(174.288994 37.379898) scale(0.12 -0.12)">
     <use xlink:href="#DejaVuSans-31"/>
    </g>
   </g>
   <g id="text_16">
    <!-- 2 -->
    <g style="fill: #800080" transform="translate(361.798734 37.379898) scale(0.12 -0.12)">
     <use xlink:href="#DejaVuSans-32"/>
    </g>
   </g>
  </g>
  <g id="text_17">
   <!-- Algorithm -->
   <g transform="translate(7.2 36.398438) scale(0.1 -0.1)">
    <defs>
     <path id="DejaVuSans-41" d="M 2188 4044 
L 1331 1722 
L 3047 1722 
L 2188 4044 
z
M 1831 4666 
L 2547 4666 
L 4325 0 
L 3669 0 
L 3244 1197 
L 1141 1197 
L 716 0 
L 50 0 
L 1831 4666 
z
" transform="scale(0.015625)"/>
     <path id="DejaVuSans-6c" d="M 603 4863 
L 1178 4863 
L 1178 0 
L 603 0 
L 603 4863 
z
" transform="scale(0.015625)"/>
     <path id="DejaVuSans-67" d="M 2906 1791 
Q 2906 2416 2648 2759 
Q 2391 3103 1925 3103 
Q 1463 3103 1205 2759 
Q 947 2416 947 1791 
Q 947 1169 1205 825 
Q 1463 481 1925 481 
Q 2391 481 2648 825 
Q 2906 1169 2906 1791 
z
M 3481 434 
Q 3481 -459 3084 -895 
Q 2688 -1331 1869 -1331 
Q 1566 -1331 1297 -1286 
Q 1028 -1241 775 -1147 
L 775 -588 
Q 1028 -725 1275 -790 
Q 1522 -856 1778 -856 
Q 2344 -856 2625 -561 
Q 2906 -266 2906 331 
L 2906 616 
Q 2728 306 2450 153 
Q 2172 0 1784 0 
Q 1141 0 747 490 
Q 353 981 353 1791 
Q 353 2603 747 3093 
Q 1141 3584 1784 3584 
Q 2172 3584 2450 3431 
Q 2728 3278 2906 2969 
L 2906 3500 
L 3481 3500 
L 3481 434 
z
" transform="scale(0.015625)"/>
     <path id="DejaVuSans-72" d="M 2631 2963 
Q 2534 3019 2420 3045 
Q 2306 3072 2169 3072 
Q 1681 3072 1420 2755 
Q 1159 2438 1159 1844 
L 1159 0 
L 581 0 
L 581 3500 
L 1159 3500 
L 1159 2956 
Q 1341 3275 1631 3429 
Q 1922 3584 2338 3584 
Q 2397 3584 2469 3576 
Q 2541 3569 2628 3553 
L 2631 2963 
z
" transform="scale(0.015625)"/>
     <path id="DejaVuSans-68" d="M 3513 2113 
L 3513 0 
L 2938 0 
L 2938 2094 
Q 2938 2591 2744 2837 
Q 2550 3084 2163 3084 
Q 1697 3084 1428 2787 
Q 1159 2491 1159 1978 
L 1159 0 
L 581 0 
L 581 4863 
L 1159 4863 
L 1159 2956 
Q 1366 3272 1645 3428 
Q 1925 3584 2291 3584 
Q 2894 3584 3203 3211 
Q 3513 2838 3513 2113 
z
" transform="scale(0.015625)"/>
     <path id="DejaVuSans-6d" d="M 3328 2828 
Q 3544 3216 3844 3400 
Q 4144 3584 4550 3584 
Q 5097 3584 5394 3201 
Q 5691 2819 5691 2113 
L 5691 0 
L 5113 0 
L 5113 2094 
Q 5113 2597 4934 2840 
Q 4756 3084 4391 3084 
Q 3944 3084 3684 2787 
Q 3425 2491 3425 1978 
L 3425 0 
L 2847 0 
L 2847 2094 
Q 2847 2600 2669 2842 
Q 2491 3084 2119 3084 
Q 1678 3084 1418 2786 
Q 1159 2488 1159 1978 
L 1159 0 
L 581 0 
L 581 3500 
L 1159 3500 
L 1159 2956 
Q 1356 3278 1631 3431 
Q 1906 3584 2284 3584 
Q 2666 3584 2933 3390 
Q 3200 3197 3328 2828 
z
" transform="scale(0.015625)"/>
    </defs>
    <use xlink:href="#DejaVuSans-41"/>
    <use xlink:href="#DejaVuSans-6c" transform="translate(68.408203 0)"/>
    <use xlink:href="#DejaVuSans-67" transform="translate(96.191406 0)"/>
    <use xlink:href="#DejaVuSans-6f" transform="translate(159.667969 0)"/>
    <use xlink:href="#DejaVuSans-72" transform="translate(220.849609 0)"/>
    <use xlink:href="#DejaVuSans-69" transform="translate(261.962891 0)"/>
    <use xlink:href="#DejaVuSans-74" transform="translate(289.746094 0)"/>
    <use xlink:href="#DejaVuSans-68" transform="translate(328.955078 0)"/>
    <use xlink:href="#DejaVuSans-6d" transform="translate(392.333984 0)"/>
   </g>
  </g>
  <g id="text_18">
   <!-- States -->
   <g transform="translate(7.2 25.598438) scale(0.1 -0.1)">
    <use xlink:href="#DejaVuSans-53"/>
    <use xlink:href="#DejaVuSans-74" transform="translate(63.476562 0)"/>
    <use xlink:href="#DejaVuSans-61" transform="translate(102.685547 0)"/>
    <use xlink:href="#DejaVuSans-74" transform="translate(163.964844 0)"/>
    <use xlink:href="#DejaVuSans-65" transform="translate(203.173828 0)"/>
    <use xlink:href="#DejaVuSans-73" transform="translate(264.697266 0)"/>
   </g>
  </g>
  <g id="text_19">
   <!-- Bias -->
   <g style="fill: #2ca6a4" transform="translate(66.6 25.598438) scale(0.1 -0.1)">
    <defs>
     <path id="DejaVuSans-Bold-42" d="M 2456 2859 
Q 2741 2859 2887 2984 
Q 3034 3109 3034 3353 
Q 3034 3594 2887 3720 
Q 2741 3847 2456 3847 
L 1791 3847 
L 1791 2859 
L 2456 2859 
z
M 2497 819 
Q 2859 819 3042 972 
Q 3225 1125 3225 1434 
Q 3225 1738 3044 1889 
Q 2863 2041 2497 2041 
L 1791 2041 
L 1791 819 
L 2497 819 
z
M 3616 2497 
Q 4003 2384 4215 2081 
Q 4428 1778 4428 1338 
Q 4428 663 3972 331 
Q 3516 0 2584 0 
L 588 0 
L 588 4666 
L 2394 4666 
Q 3366 4666 3802 4372 
Q 4238 4078 4238 3431 
Q 4238 3091 4078 2852 
Q 3919 2613 3616 2497 
z
" transform="scale(0.015625)"/>
     <path id="DejaVuSans-Bold-69" d="M 538 3500 
L 1656 3500 
L 1656 0 
L 538 0 
L 538 3500 
z
M 538 4863 
L 1656 4863 
L 1656 3950 
L 538 3950 
L 538 4863 
z
" transform="scale(0.015625)"/>
     <path id="DejaVuSans-Bold-61" d="M 2106 1575 
Q 1756 1575 1579 1456 
Q 1403 1338 1403 1106 
Q 1403 894 1545 773 
Q 1688 653 1941 653 
Q 2256 653 2472 879 
Q 2688 1106 2688 1447 
L 2688 1575 
L 2106 1575 
z
M 3816 1997 
L 3816 0 
L 2688 0 
L 2688 519 
Q 2463 200 2181 54 
Q 1900 -91 1497 -91 
Q 953 -91 614 226 
Q 275 544 275 1050 
Q 275 1666 698 1953 
Q 1122 2241 2028 2241 
L 2688 2241 
L 2688 2328 
Q 2688 2594 2478 2717 
Q 2269 2841 1825 2841 
Q 1466 2841 1156 2769 
Q 847 2697 581 2553 
L 581 3406 
Q 941 3494 1303 3539 
Q 1666 3584 2028 3584 
Q 2975 3584 3395 3211 
Q 3816 2838 3816 1997 
z
" transform="scale(0.015625)"/>
     <path id="DejaVuSans-Bold-73" d="M 3272 3391 
L 3272 2541 
Q 2913 2691 2578 2766 
Q 2244 2841 1947 2841 
Q 1628 2841 1473 2761 
Q 1319 2681 1319 2516 
Q 1319 2381 1436 2309 
Q 1553 2238 1856 2203 
L 2053 2175 
Q 2913 2066 3209 1816 
Q 3506 1566 3506 1031 
Q 3506 472 3093 190 
Q 2681 -91 1863 -91 
Q 1516 -91 1145 -36 
Q 775 19 384 128 
L 384 978 
Q 719 816 1070 734 
Q 1422 653 1784 653 
Q 2113 653 2278 743 
Q 2444 834 2444 1013 
Q 2444 1163 2330 1236 
Q 2216 1309 1875 1350 
L 1678 1375 
Q 931 1469 631 1722 
Q 331 1975 331 2491 
Q 331 3047 712 3315 
Q 1094 3584 1881 3584 
Q 2191 3584 2531 3537 
Q 2872 3491 3272 3391 
z
" transform="scale(0.015625)"/>
    </defs>
    <use xlink:href="#DejaVuSans-Bold-42"/>
    <use xlink:href="#DejaVuSans-Bold-69" transform="translate(76.220703 0)"/>
    <use xlink:href="#DejaVuSans-Bold-61" transform="translate(110.498047 0)"/>
    <use xlink:href="#DejaVuSans-Bold-73" transform="translate(177.978516 0)"/>
   </g>
  </g>
  <g id="text_20">
   <!-- WSLS -->
   <g style="fill: #e3b505" transform="translate(93.6 25.598438) scale(0.1 -0.1)">
    <defs>
     <path id="DejaVuSans-Bold-57" d="M 191 4666 
L 1344 4666 
L 2150 1275 
L 2950 4666 
L 4109 4666 
L 4909 1275 
L 5716 4666 
L 6859 4666 
L 5759 0 
L 4372 0 
L 3525 3547 
L 2688 0 
L 1300 0 
L 191 4666 
z
" transform="scale(0.015625)"/>
     <path id="DejaVuSans-Bold-53" d="M 3834 4519 
L 3834 3531 
Q 3450 3703 3084 3790 
Q 2719 3878 2394 3878 
Q 1963 3878 1756 3759 
Q 1550 3641 1550 3391 
Q 1550 3203 1689 3098 
Q 1828 2994 2194 2919 
L 2706 2816 
Q 3484 2659 3812 2340 
Q 4141 2022 4141 1434 
Q 4141 663 3683 286 
Q 3225 -91 2284 -91 
Q 1841 -91 1394 -6 
Q 947 78 500 244 
L 500 1259 
Q 947 1022 1364 901 
Q 1781 781 2169 781 
Q 2563 781 2772 912 
Q 2981 1044 2981 1288 
Q 2981 1506 2839 1625 
Q 2697 1744 2272 1838 
L 1806 1941 
Q 1106 2091 782 2419 
Q 459 2747 459 3303 
Q 459 4000 909 4375 
Q 1359 4750 2203 4750 
Q 2588 4750 2994 4692 
Q 3400 4634 3834 4519 
z
" transform="scale(0.015625)"/>
     <path id="DejaVuSans-Bold-4c" d="M 588 4666 
L 1791 4666 
L 1791 909 
L 3903 909 
L 3903 0 
L 588 0 
L 588 4666 
z
" transform="scale(0.015625)"/>
    </defs>
    <use xlink:href="#DejaVuSans-Bold-57"/>
    <use xlink:href="#DejaVuSans-Bold-53" transform="translate(110.302734 0)"/>
    <use xlink:href="#DejaVuSans-Bold-4c" transform="translate(182.324219 0)"/>
    <use xlink:href="#DejaVuSans-Bold-53" transform="translate(246.044922 0)"/>
   </g>
  </g>
  <g id="text_21">
   <!-- Stochastic -->
   <g style="fill: #4f6db8" transform="translate(126 25.598438) scale(0.1 -0.1)">
    <defs>
     <path id="DejaVuSans-Bold-74" d="M 1759 4494 
L 1759 3500 
L 2913 3500 
L 2913 2700 
L 1759 2700 
L 1759 1216 
Q 1759 972 1856 886 
Q 1953 800 2241 800 
L 2816 800 
L 2816 0 
L 1856 0 
Q 1194 0 917 276 
Q 641 553 641 1216 
L 641 2700 
L 84 2700 
L 84 3500 
L 641 3500 
L 641 4494 
L 1759 4494 
z
" transform="scale(0.015625)"/>
     <path id="DejaVuSans-Bold-6f" d="M 2203 2784 
Q 1831 2784 1636 2517 
Q 1441 2250 1441 1747 
Q 1441 1244 1636 976 
Q 1831 709 2203 709 
Q 2569 709 2762 976 
Q 2956 1244 2956 1747 
Q 2956 2250 2762 2517 
Q 2569 2784 2203 2784 
z
M 2203 3584 
Q 3106 3584 3614 3096 
Q 4122 2609 4122 1747 
Q 4122 884 3614 396 
Q 3106 -91 2203 -91 
Q 1297 -91 786 396 
Q 275 884 275 1747 
Q 275 2609 786 3096 
Q 1297 3584 2203 3584 
z
" transform="scale(0.015625)"/>
     <path id="DejaVuSans-Bold-63" d="M 3366 3391 
L 3366 2478 
Q 3138 2634 2908 2709 
Q 2678 2784 2431 2784 
Q 1963 2784 1702 2511 
Q 1441 2238 1441 1747 
Q 1441 1256 1702 982 
Q 1963 709 2431 709 
Q 2694 709 2930 787 
Q 3166 866 3366 1019 
L 3366 103 
Q 3103 6 2833 -42 
Q 2563 -91 2291 -91 
Q 1344 -91 809 395 
Q 275 881 275 1747 
Q 275 2613 809 3098 
Q 1344 3584 2291 3584 
Q 2566 3584 2833 3536 
Q 3100 3488 3366 3391 
z
" transform="scale(0.015625)"/>
     <path id="DejaVuSans-Bold-68" d="M 4056 2131 
L 4056 0 
L 2931 0 
L 2931 347 
L 2931 1625 
Q 2931 2084 2911 2256 
Q 2891 2428 2841 2509 
Q 2775 2619 2662 2680 
Q 2550 2741 2406 2741 
Q 2056 2741 1856 2470 
Q 1656 2200 1656 1722 
L 1656 0 
L 538 0 
L 538 4863 
L 1656 4863 
L 1656 2988 
Q 1909 3294 2193 3439 
Q 2478 3584 2822 3584 
Q 3428 3584 3742 3212 
Q 4056 2841 4056 2131 
z
" transform="scale(0.015625)"/>
    </defs>
    <use xlink:href="#DejaVuSans-Bold-53"/>
    <use xlink:href="#DejaVuSans-Bold-74" transform="translate(72.021484 0)"/>
    <use xlink:href="#DejaVuSans-Bold-6f" transform="translate(119.824219 0)"/>
    <use xlink:href="#DejaVuSans-Bold-63" transform="translate(188.525391 0)"/>
    <use xlink:href="#DejaVuSans-Bold-68" transform="translate(247.802734 0)"/>
    <use xlink:href="#DejaVuSans-Bold-61" transform="translate(318.994141 0)"/>
    <use xlink:href="#DejaVuSans-Bold-73" transform="translate(386.474609 0)"/>
    <use xlink:href="#DejaVuSans-Bold-74" transform="translate(445.996094 0)"/>
    <use xlink:href="#DejaVuSans-Bold-69" transform="translate(493.798828 0)"/>
    <use xlink:href="#DejaVuSans-Bold-63" transform="translate(528.076172 0)"/>
   </g>
  </g>
  <g id="text_22">
   <!-- Monkey C -->
   <g transform="translate(7.2 14.798438) scale(0.1 -0.1)">
    <defs>
     <path id="DejaVuSans-4d" d="M 628 4666 
L 1569 4666 
L 2759 1491 
L 3956 4666 
L 4897 4666 
L 4897 0 
L 4281 0 
L 4281 4097 
L 3078 897 
L 2444 897 
L 1241 4097 
L 1241 0 
L 628 0 
L 628 4666 
z
" transform="scale(0.015625)"/>
     <path id="DejaVuSans-6b" d="M 581 4863 
L 1159 4863 
L 1159 1991 
L 2875 3500 
L 3609 3500 
L 1753 1863 
L 3688 0 
L 2938 0 
L 1159 1709 
L 1159 0 
L 581 0 
L 581 4863 
z
" transform="scale(0.015625)"/>
     <path id="DejaVuSans-79" d="M 2059 -325 
Q 1816 -950 1584 -1140 
Q 1353 -1331 966 -1331 
L 506 -1331 
L 506 -850 
L 844 -850 
Q 1081 -850 1212 -737 
Q 1344 -625 1503 -206 
L 1606 56 
L 191 3500 
L 800 3500 
L 1894 763 
L 2988 3500 
L 3597 3500 
L 2059 -325 
z
" transform="scale(0.015625)"/>
     <path id="DejaVuSans-20" transform="scale(0.015625)"/>
     <path id="DejaVuSans-43" d="M 4122 4306 
L 4122 3641 
Q 3803 3938 3442 4084 
Q 3081 4231 2675 4231 
Q 1875 4231 1450 3742 
Q 1025 3253 1025 2328 
Q 1025 1406 1450 917 
Q 1875 428 2675 428 
Q 3081 428 3442 575 
Q 3803 722 4122 1019 
L 4122 359 
Q 3791 134 3420 21 
Q 3050 -91 2638 -91 
Q 1578 -91 968 557 
Q 359 1206 359 2328 
Q 359 3453 968 4101 
Q 1578 4750 2638 4750 
Q 3056 4750 3426 4639 
Q 3797 4528 4122 4306 
z
" transform="scale(0.015625)"/>
    </defs>
    <use xlink:href="#DejaVuSans-4d"/>
    <use xlink:href="#DejaVuSans-6f" transform="translate(86.279297 0)"/>
    <use xlink:href="#DejaVuSans-6e" transform="translate(147.460938 0)"/>
    <use xlink:href="#DejaVuSans-6b" transform="translate(210.839844 0)"/>
    <use xlink:href="#DejaVuSans-65" transform="translate(265.125 0)"/>
    <use xlink:href="#DejaVuSans-79" transform="translate(326.648438 0)"/>
    <use xlink:href="#DejaVuSans-20" transform="translate(385.828125 0)"/>
    <use xlink:href="#DejaVuSans-43" transform="translate(417.615234 0)"/>
   </g>
  </g>
 </g>
 <defs>
  <clipPath id="p9b430c8778">
   <rect x="53.1" y="35.318438" width="418.5" height="83.16"/>
  </clipPath>
 </defs>
</svg>
