<?xml version="1.0" encoding="utf-8" standalone="no"?>
<!DOCTYPE svg PUBLIC "-//W3C//DTD SVG 1.1//EN"
  "http://www.w3.org/Graphics/SVG/1.1/DTD/svg11.dtd">
<svg xmlns:xlink="http://www.w3.org/1999/xlink" width="478.8pt" height="163.688125pt" viewBox="0 0 478.8 163.688125" xmlns="http://www.w3.org/2000/svg" version="1.1">
 <metadata>
  <rdf:RDF xmlns:dc="http://purl.org/dc/elements/1.1/" xmlns:cc="http://creativecommons.org/ns#" xmlns:rdf="http://www.w3.org/1999/02/22-rdf-syntax-ns#">
   <cc:Work>
    <dc:type rdf:resource="http://purl.org/dc/dcmitype/StillImage"/>
    <dc:date>2025-10-17T14:35:37.915089</dc:date>
    <dc:format>image/svg+xml</dc:format>
    <dc:creator>
     <cc:Agent>
      <dc:title>Matplotlib v3.10.6, https://matplotlib.org/</dc:title>
     </cc:Agent>
    </dc:creator>
   </cc:Work>
  </rdf:RDF>
 </metadata>
 <defs>
  <style type="text/css">*{stroke-linejoin: round; stroke-linecap: butt}</style>
 </defs>
 <g id="figure_1">
  <g id="patch_1">
   <path d="M 0 163.688125 
L 478.8 163.688125 
L 478.8 0 
L 0 0 
L 0 163.688125 
z
" style="fill: none"/>
  </g>
  <g id="axes_1">
   <g id="patch_2">
    <path d="M 53.1 118.478438 
L 471.6 118.478438 
L 471.6 35.318438 
L 53.1 35.318438 
L 53.1 118.478438 
z
" style="fill: none"/>
   </g>
   <g id="PathCollection_1">
    <defs>
     <path id="m4d34bb7485" d="M 0 3.5 
C 0.928211 3.5 1.81853 3.131218 2.474874 2.474874 
C 3.131218 1.81853 3.5 0.928211 3.5 0 
C 3.5 -0.928211 3.131218 -1.81853 2.474874 -2.474874 
C 1.81853 -3.131218 0.928211 -3.5 0 -3.5 
C -0.928211 -3.5 -1.81853 -3.131218 -2.474874 -2.474874 
C -3.131218 -1.81853 -3.5 -0.928211 -3.5 0 
C -3.5 0.928211 -3.131218 1.81853 -2.474874 2.474874 
C -1.81853 3.131218 -0.928211 3.5 0 3.5 
z
"/>
    </defs>
    <g clip-path="url(#pa866fa8673)">
     <use xlink:href="#m4d34bb7485" x="72.122727" y="55.310975" style="fill: #2ca6a4"/>
     <use xlink:href="#m4d34bb7485" x="75.746104" y="45.982081" style="fill: #2ca6a4"/>
     <use xlink:href="#m4d34bb7485" x="79.369481" y="45.990178" style="fill: #2ca6a4"/>
     <use xlink:href="#m4d34bb7485" x="82.992857" y="107.600539" style="fill: #2ca6a4"/>
     <use xlink:href="#m4d34bb7485" x="86.616234" y="110.063634" style="fill: #2ca6a4"/>
     <use xlink:href="#m4d34bb7485" x="90.23961" y="105.369139" style="fill: #2ca6a4"/>
     <use xlink:href="#m4d34bb7485" x="93.862987" y="105.574316" style="fill: #2ca6a4"/>
     <use xlink:href="#m4d34bb7485" x="97.486364" y="114.364112" style="fill: #2ca6a4"/>
     <use xlink:href="#m4d34bb7485" x="101.10974" y="99.063807" style="fill: #2ca6a4"/>
     <use xlink:href="#m4d34bb7485" x="104.733117" y="101.474528" style="fill: #2ca6a4"/>
     <use xlink:href="#m4d34bb7485" x="108.356494" y="108.975181" style="fill: #2ca6a4"/>
     <use xlink:href="#m4d34bb7485" x="111.97987" y="97.358833" style="fill: #2ca6a4"/>
     <use xlink:href="#m4d34bb7485" x="115.603247" y="114.44262" style="fill: #2ca6a4"/>
     <use xlink:href="#m4d34bb7485" x="119.226623" y="76.847231" style="fill: #2ca6a4"/>
     <use xlink:href="#m4d34bb7485" x="122.85" y="108.605429" style="fill: #2ca6a4"/>
     <use xlink:href="#m4d34bb7485" x="126.473377" y="103.204577" style="fill: #2ca6a4"/>
     <use xlink:href="#m4d34bb7485" x="130.096753" y="111.20379" style="fill: #2ca6a4"/>
     <use xlink:href="#m4d34bb7485" x="133.72013" y="102.625538" style="fill: #2ca6a4"/>
     <use xlink:href="#m4d34bb7485" x="137.343506" y="106.04346" style="fill: #2ca6a4"/>
     <use xlink:href="#m4d34bb7485" x="140.966883" y="114.075761" style="fill: #2ca6a4"/>
     <use xlink:href="#m4d34bb7485" x="144.59026" y="113.302559" style="fill: #2ca6a4"/>
     <use xlink:href="#m4d34bb7485" x="148.213636" y="112.595776" style="fill: #2ca6a4"/>
     <use xlink:href="#m4d34bb7485" x="151.837013" y="114.112558" style="fill: #2ca6a4"/>
     <use xlink:href="#m4d34bb7485" x="155.46039" y="108.329773" style="fill: #2ca6a4"/>
     <use xlink:href="#m4d34bb7485" x="159.083766" y="94.584384" style="fill: #2ca6a4"/>
     <use xlink:href="#m4d34bb7485" x="162.707143" y="106.093328" style="fill: #2ca6a4"/>
     <use xlink:href="#m4d34bb7485" x="166.330519" y="110.481019" style="fill: #2ca6a4"/>
     <use xlink:href="#m4d34bb7485" x="169.953896" y="106.024395" style="fill: #2ca6a4"/>
     <use xlink:href="#m4d34bb7485" x="173.577273" y="109.786046" style="fill: #2ca6a4"/>
     <use xlink:href="#m4d34bb7485" x="177.200649" y="111.727436" style="fill: #2ca6a4"/>
     <use xlink:href="#m4d34bb7485" x="180.824026" y="114.455994" style="fill: #2ca6a4"/>
     <use xlink:href="#m4d34bb7485" x="184.447403" y="114.386845" style="fill: #2ca6a4"/>
     <use xlink:href="#m4d34bb7485" x="188.070779" y="114.603242" style="fill: #2ca6a4"/>
     <use xlink:href="#m4d34bb7485" x="191.694156" y="111.851714" style="fill: #2ca6a4"/>
     <use xlink:href="#m4d34bb7485" x="195.317532" y="114.308455" style="fill: #2ca6a4"/>
     <use xlink:href="#m4d34bb7485" x="198.940909" y="95.446348" style="fill: #2ca6a4"/>
     <use xlink:href="#m4d34bb7485" x="202.564286" y="113.827505" style="fill: #2ca6a4"/>
     <use xlink:href="#m4d34bb7485" x="206.187662" y="114.167419" style="fill: #2ca6a4"/>
     <use xlink:href="#m4d34bb7485" x="209.811039" y="95.45653" style="fill: #2ca6a4"/>
     <use xlink:href="#m4d34bb7485" x="213.434416" y="114.545905" style="fill: #2ca6a4"/>
     <use xlink:href="#m4d34bb7485" x="217.057792" y="113.850352" style="fill: #2ca6a4"/>
     <use xlink:href="#m4d34bb7485" x="220.681169" y="112.241731" style="fill: #2ca6a4"/>
     <use xlink:href="#m4d34bb7485" x="224.304545" y="104.301497" style="fill: #2ca6a4"/>
     <use xlink:href="#m4d34bb7485" x="227.927922" y="114.374871" style="fill: #2ca6a4"/>
     <use xlink:href="#m4d34bb7485" x="231.551299" y="108.331741" style="fill: #2ca6a4"/>
     <use xlink:href="#m4d34bb7485" x="235.174675" y="103.285833" style="fill: #2ca6a4"/>
     <use xlink:href="#m4d34bb7485" x="238.798052" y="114.684537" style="fill: #2ca6a4"/>
     <use xlink:href="#m4d34bb7485" x="242.421429" y="114.690856" style="fill: #2ca6a4"/>
     <use xlink:href="#m4d34bb7485" x="246.044805" y="114.68871" style="fill: #2ca6a4"/>
     <use xlink:href="#m4d34bb7485" x="249.668182" y="114.675333" style="fill: #2ca6a4"/>
     <use xlink:href="#m4d34bb7485" x="253.291558" y="114.669055" style="fill: #2ca6a4"/>
     <use xlink:href="#m4d34bb7485" x="256.914935" y="114.686617" style="fill: #2ca6a4"/>
     <use xlink:href="#m4d34bb7485" x="260.538312" y="114.692279" style="fill: #2ca6a4"/>
     <use xlink:href="#m4d34bb7485" x="264.161688" y="114.688188" style="fill: #2ca6a4"/>
     <use xlink:href="#m4d34bb7485" x="267.785065" y="114.678646" style="fill: #2ca6a4"/>
     <use xlink:href="#m4d34bb7485" x="271.408442" y="106.358146" style="fill: #2ca6a4"/>
     <use xlink:href="#m4d34bb7485" x="275.031818" y="114.695404" style="fill: #2ca6a4"/>
     <use xlink:href="#m4d34bb7485" x="278.655195" y="114.688695" style="fill: #2ca6a4"/>
     <use xlink:href="#m4d34bb7485" x="282.278571" y="114.695537" style="fill: #2ca6a4"/>
     <use xlink:href="#m4d34bb7485" x="285.901948" y="114.69527" style="fill: #2ca6a4"/>
     <use xlink:href="#m4d34bb7485" x="289.525325" y="114.398959" style="fill: #2ca6a4"/>
     <use xlink:href="#m4d34bb7485" x="293.148701" y="114.691792" style="fill: #2ca6a4"/>
     <use xlink:href="#m4d34bb7485" x="296.772078" y="102.404604" style="fill: #2ca6a4"/>
     <use xlink:href="#m4d34bb7485" x="300.395455" y="107.157742" style="fill: #2ca6a4"/>
     <use xlink:href="#m4d34bb7485" x="304.018831" y="107.978878" style="fill: #2ca6a4"/>
     <use xlink:href="#m4d34bb7485" x="307.642208" y="108.637394" style="fill: #2ca6a4"/>
     <use xlink:href="#m4d34bb7485" x="311.265584" y="110.943135" style="fill: #2ca6a4"/>
     <use xlink:href="#m4d34bb7485" x="314.888961" y="112.369047" style="fill: #2ca6a4"/>
     <use xlink:href="#m4d34bb7485" x="318.512338" y="112.628709" style="fill: #2ca6a4"/>
     <use xlink:href="#m4d34bb7485" x="322.135714" y="111.039736" style="fill: #2ca6a4"/>
     <use xlink:href="#m4d34bb7485" x="325.759091" y="113.222605" style="fill: #2ca6a4"/>
     <use xlink:href="#m4d34bb7485" x="329.382468" y="114.194544" style="fill: #2ca6a4"/>
     <use xlink:href="#m4d34bb7485" x="333.005844" y="114.440431" style="fill: #2ca6a4"/>
     <use xlink:href="#m4d34bb7485" x="336.629221" y="111.689331" style="fill: #2ca6a4"/>
     <use xlink:href="#m4d34bb7485" x="340.252597" y="108.618799" style="fill: #2ca6a4"/>
     <use xlink:href="#m4d34bb7485" x="343.875974" y="114.294581" style="fill: #2ca6a4"/>
     <use xlink:href="#m4d34bb7485" x="347.499351" y="113.125999" style="fill: #2ca6a4"/>
     <use xlink:href="#m4d34bb7485" x="351.122727" y="114.345029" style="fill: #2ca6a4"/>
     <use xlink:href="#m4d34bb7485" x="354.746104" y="101.697135" style="fill: #2ca6a4"/>
     <use xlink:href="#m4d34bb7485" x="358.369481" y="112.712424" style="fill: #2ca6a4"/>
     <use xlink:href="#m4d34bb7485" x="361.992857" y="114.411936" style="fill: #2ca6a4"/>
     <use xlink:href="#m4d34bb7485" x="365.616234" y="113.441052" style="fill: #2ca6a4"/>
     <use xlink:href="#m4d34bb7485" x="369.23961" y="114.055604" style="fill: #2ca6a4"/>
     <use xlink:href="#m4d34bb7485" x="372.862987" y="114.424379" style="fill: #2ca6a4"/>
     <use xlink:href="#m4d34bb7485" x="376.486364" y="114.614619" style="fill: #2ca6a4"/>
     <use xlink:href="#m4d34bb7485" x="380.10974" y="114.588283" style="fill: #2ca6a4"/>
     <use xlink:href="#m4d34bb7485" x="383.733117" y="114.374325" style="fill: #2ca6a4"/>
     <use xlink:href="#m4d34bb7485" x="387.356494" y="112.694447" style="fill: #2ca6a4"/>
     <use xlink:href="#m4d34bb7485" x="390.97987" y="114.514944" style="fill: #2ca6a4"/>
     <use xlink:href="#m4d34bb7485" x="394.603247" y="114.610404" style="fill: #2ca6a4"/>
     <use xlink:href="#m4d34bb7485" x="398.226623" y="113.998853" style="fill: #2ca6a4"/>
     <use xlink:href="#m4d34bb7485" x="401.85" y="113.130092" style="fill: #2ca6a4"/>
     <use xlink:href="#m4d34bb7485" x="405.473377" y="109.231803" style="fill: #2ca6a4"/>
     <use xlink:href="#m4d34bb7485" x="409.096753" y="114.490764" style="fill: #2ca6a4"/>
     <use xlink:href="#m4d34bb7485" x="412.72013" y="113.883555" style="fill: #2ca6a4"/>
     <use xlink:href="#m4d34bb7485" x="416.343506" y="109.320262" style="fill: #2ca6a4"/>
     <use xlink:href="#m4d34bb7485" x="419.966883" y="111.857582" style="fill: #2ca6a4"/>
     <use xlink:href="#m4d34bb7485" x="423.59026" y="114.236962" style="fill: #2ca6a4"/>
     <use xlink:href="#m4d34bb7485" x="427.213636" y="113.860762" style="fill: #2ca6a4"/>
     <use xlink:href="#m4d34bb7485" x="430.837013" y="114.574889" style="fill: #2ca6a4"/>
     <use xlink:href="#m4d34bb7485" x="434.46039" y="113.996532" style="fill: #2ca6a4"/>
     <use xlink:href="#m4d34bb7485" x="438.083766" y="111.362589" style="fill: #2ca6a4"/>
     <use xlink:href="#m4d34bb7485" x="441.707143" y="110.052581" style="fill: #2ca6a4"/>
     <use xlink:href="#m4d34bb7485" x="445.330519" y="109.482223" style="fill: #2ca6a4"/>
     <use xlink:href="#m4d34bb7485" x="448.953896" y="112.704007" style="fill: #2ca6a4"/>
     <use xlink:href="#m4d34bb7485" x="452.577273" y="114.252025" style="fill: #2ca6a4"/>
    </g>
   </g>
   <g id="PathCollection_2">
    <defs>
     <path id="m55e7d58004" d="M 0 3.5 
C 0.928211 3.5 1.81853 3.131218 2.474874 2.474874 
C 3.131218 1.81853 3.5 0.928211 3.5 0 
C 3.5 -0.928211 3.131218 -1.81853 2.474874 -2.474874 
C 1.81853 -3.131218 0.928211 -3.5 0 -3.5 
C -0.928211 -3.5 -1.81853 -3.131218 -2.474874 -2.474874 
C -3.131218 -1.81853 -3.5 -0.928211 -3.5 0 
C -3.5 0.928211 -3.131218 1.81853 -2.474874 2.474874 
C -1.81853 3.131218 -0.928211 3.5 0 3.5 
z
"/>
    </defs>
    <g clip-path="url(#pa866fa8673)">
     <use xlink:href="#m55e7d58004" x="72.122727" y="114.668373" style="fill: #e3b505"/>
     <use xlink:href="#m55e7d58004" x="75.746104" y="114.697979" style="fill: #e3b505"/>
     <use xlink:href="#m55e7d58004" x="79.369481" y="114.697869" style="fill: #e3b505"/>
     <use xlink:href="#m55e7d58004" x="82.992857" y="105.070636" style="fill: #e3b505"/>
     <use xlink:href="#m55e7d58004" x="86.616234" y="101.54875" style="fill: #e3b505"/>
     <use xlink:href="#m55e7d58004" x="90.23961" y="72.243369" style="fill: #e3b505"/>
     <use xlink:href="#m55e7d58004" x="93.862987" y="100.25915" style="fill: #e3b505"/>
     <use xlink:href="#m55e7d58004" x="97.486364" y="80.383679" style="fill: #e3b505"/>
     <use xlink:href="#m55e7d58004" x="101.10974" y="103.16501" style="fill: #e3b505"/>
     <use xlink:href="#m55e7d58004" x="104.733117" y="100.813212" style="fill: #e3b505"/>
     <use xlink:href="#m55e7d58004" x="108.356494" y="74.608279" style="fill: #e3b505"/>
     <use xlink:href="#m55e7d58004" x="111.97987" y="87.92001" style="fill: #e3b505"/>
     <use xlink:href="#m55e7d58004" x="115.603247" y="66.262603" style="fill: #e3b505"/>
     <use xlink:href="#m55e7d58004" x="119.226623" y="105.906223" style="fill: #e3b505"/>
     <use xlink:href="#m55e7d58004" x="122.85" y="110.243843" style="fill: #e3b505"/>
     <use xlink:href="#m55e7d58004" x="126.473377" y="92.338297" style="fill: #e3b505"/>
     <use xlink:href="#m55e7d58004" x="130.096753" y="92.322416" style="fill: #e3b505"/>
     <use xlink:href="#m55e7d58004" x="133.72013" y="67.117766" style="fill: #e3b505"/>
     <use xlink:href="#m55e7d58004" x="137.343506" y="67.257084" style="fill: #e3b505"/>
     <use xlink:href="#m55e7d58004" x="140.966883" y="48.02854" style="fill: #e3b505"/>
     <use xlink:href="#m55e7d58004" x="144.59026" y="59.264214" style="fill: #e3b505"/>
     <use xlink:href="#m55e7d58004" x="148.213636" y="48.836759" style="fill: #e3b505"/>
     <use xlink:href="#m55e7d58004" x="151.837013" y="46.778877" style="fill: #e3b505"/>
     <use xlink:href="#m55e7d58004" x="155.46039" y="53.308965" style="fill: #e3b505"/>
     <use xlink:href="#m55e7d58004" x="159.083766" y="98.576865" style="fill: #e3b505"/>
     <use xlink:href="#m55e7d58004" x="162.707143" y="55.092086" style="fill: #e3b505"/>
     <use xlink:href="#m55e7d58004" x="166.330519" y="60.290686" style="fill: #e3b505"/>
     <use xlink:href="#m55e7d58004" x="169.953896" y="58.738933" style="fill: #e3b505"/>
     <use xlink:href="#m55e7d58004" x="173.577273" y="52.199832" style="fill: #e3b505"/>
     <use xlink:href="#m55e7d58004" x="177.200649" y="49.337345" style="fill: #e3b505"/>
     <use xlink:href="#m55e7d58004" x="180.824026" y="46.706652" style="fill: #e3b505"/>
     <use xlink:href="#m55e7d58004" x="184.447403" y="46.343928" style="fill: #e3b505"/>
     <use xlink:href="#m55e7d58004" x="188.070779" y="46.106726" style="fill: #e3b505"/>
     <use xlink:href="#m55e7d58004" x="191.694156" y="53.639267" style="fill: #e3b505"/>
     <use xlink:href="#m55e7d58004" x="195.317532" y="53.180005" style="fill: #e3b505"/>
     <use xlink:href="#m55e7d58004" x="198.940909" y="103.249287" style="fill: #e3b505"/>
     <use xlink:href="#m55e7d58004" x="202.564286" y="48.755735" style="fill: #e3b505"/>
     <use xlink:href="#m55e7d58004" x="206.187662" y="64.609678" style="fill: #e3b505"/>
     <use xlink:href="#m55e7d58004" x="209.811039" y="87.347955" style="fill: #e3b505"/>
     <use xlink:href="#m55e7d58004" x="213.434416" y="46.757634" style="fill: #e3b505"/>
     <use xlink:href="#m55e7d58004" x="217.057792" y="46.954025" style="fill: #e3b505"/>
     <use xlink:href="#m55e7d58004" x="220.681169" y="51.010643" style="fill: #e3b505"/>
     <use xlink:href="#m55e7d58004" x="224.304545" y="57.80326" style="fill: #e3b505"/>
     <use xlink:href="#m55e7d58004" x="227.927922" y="46.725836" style="fill: #e3b505"/>
     <use xlink:href="#m55e7d58004" x="231.551299" y="52.436303" style="fill: #e3b505"/>
     <use xlink:href="#m55e7d58004" x="235.174675" y="114.678411" style="fill: #e3b505"/>
     <use xlink:href="#m55e7d58004" x="238.798052" y="46.051182" style="fill: #e3b505"/>
     <use xlink:href="#m55e7d58004" x="242.421429" y="47.016226" style="fill: #e3b505"/>
     <use xlink:href="#m55e7d58004" x="246.044805" y="46.063114" style="fill: #e3b505"/>
     <use xlink:href="#m55e7d58004" x="249.668182" y="46.067712" style="fill: #e3b505"/>
     <use xlink:href="#m55e7d58004" x="253.291558" y="46.011975" style="fill: #e3b505"/>
     <use xlink:href="#m55e7d58004" x="256.914935" y="46.003603" style="fill: #e3b505"/>
     <use xlink:href="#m55e7d58004" x="260.538312" y="46.004376" style="fill: #e3b505"/>
     <use xlink:href="#m55e7d58004" x="264.161688" y="45.999892" style="fill: #e3b505"/>
     <use xlink:href="#m55e7d58004" x="267.785065" y="46.00788" style="fill: #e3b505"/>
     <use xlink:href="#m55e7d58004" x="271.408442" y="114.692097" style="fill: #e3b505"/>
     <use xlink:href="#m55e7d58004" x="275.031818" y="45.986044" style="fill: #e3b505"/>
     <use xlink:href="#m55e7d58004" x="278.655195" y="46.023034" style="fill: #e3b505"/>
     <use xlink:href="#m55e7d58004" x="282.278571" y="45.987176" style="fill: #e3b505"/>
     <use xlink:href="#m55e7d58004" x="285.901948" y="45.990173" style="fill: #e3b505"/>
     <use xlink:href="#m55e7d58004" x="289.525325" y="46.296295" style="fill: #e3b505"/>
     <use xlink:href="#m55e7d58004" x="293.148701" y="45.985556" style="fill: #e3b505"/>
     <use xlink:href="#m55e7d58004" x="296.772078" y="114.642308" style="fill: #e3b505"/>
     <use xlink:href="#m55e7d58004" x="300.395455" y="114.544905" style="fill: #e3b505"/>
     <use xlink:href="#m55e7d58004" x="304.018831" y="108.715352" style="fill: #e3b505"/>
     <use xlink:href="#m55e7d58004" x="307.642208" y="78.752295" style="fill: #e3b505"/>
     <use xlink:href="#m55e7d58004" x="311.265584" y="114.385042" style="fill: #e3b505"/>
     <use xlink:href="#m55e7d58004" x="314.888961" y="112.063366" style="fill: #e3b505"/>
     <use xlink:href="#m55e7d58004" x="318.512338" y="114.555478" style="fill: #e3b505"/>
     <use xlink:href="#m55e7d58004" x="322.135714" y="114.60815" style="fill: #e3b505"/>
     <use xlink:href="#m55e7d58004" x="325.759091" y="114.648407" style="fill: #e3b505"/>
     <use xlink:href="#m55e7d58004" x="329.382468" y="114.69462" style="fill: #e3b505"/>
     <use xlink:href="#m55e7d58004" x="333.005844" y="114.678769" style="fill: #e3b505"/>
     <use xlink:href="#m55e7d58004" x="336.629221" y="114.609932" style="fill: #e3b505"/>
     <use xlink:href="#m55e7d58004" x="340.252597" y="114.52449" style="fill: #e3b505"/>
     <use xlink:href="#m55e7d58004" x="343.875974" y="114.61822" style="fill: #e3b505"/>
     <use xlink:href="#m55e7d58004" x="347.499351" y="113.070988" style="fill: #e3b505"/>
     <use xlink:href="#m55e7d58004" x="351.122727" y="114.394895" style="fill: #e3b505"/>
     <use xlink:href="#m55e7d58004" x="354.746104" y="114.510833" style="fill: #e3b505"/>
     <use xlink:href="#m55e7d58004" x="358.369481" y="114.290766" style="fill: #e3b505"/>
     <use xlink:href="#m55e7d58004" x="361.992857" y="114.618862" style="fill: #e3b505"/>
     <use xlink:href="#m55e7d58004" x="365.616234" y="114.655661" style="fill: #e3b505"/>
     <use xlink:href="#m55e7d58004" x="369.23961" y="114.574944" style="fill: #e3b505"/>
     <use xlink:href="#m55e7d58004" x="372.862987" y="114.629514" style="fill: #e3b505"/>
     <use xlink:href="#m55e7d58004" x="376.486364" y="114.543915" style="fill: #e3b505"/>
     <use xlink:href="#m55e7d58004" x="380.10974" y="114.654699" style="fill: #e3b505"/>
     <use xlink:href="#m55e7d58004" x="383.733117" y="114.645953" style="fill: #e3b505"/>
     <use xlink:href="#m55e7d58004" x="387.356494" y="114.541392" style="fill: #e3b505"/>
     <use xlink:href="#m55e7d58004" x="390.97987" y="114.653133" style="fill: #e3b505"/>
     <use xlink:href="#m55e7d58004" x="394.603247" y="114.684595" style="fill: #e3b505"/>
     <use xlink:href="#m55e7d58004" x="398.226623" y="114.54598" style="fill: #e3b505"/>
     <use xlink:href="#m55e7d58004" x="401.85" y="114.66023" style="fill: #e3b505"/>
     <use xlink:href="#m55e7d58004" x="405.473377" y="114.574863" style="fill: #e3b505"/>
     <use xlink:href="#m55e7d58004" x="409.096753" y="114.667244" style="fill: #e3b505"/>
     <use xlink:href="#m55e7d58004" x="412.72013" y="114.638994" style="fill: #e3b505"/>
     <use xlink:href="#m55e7d58004" x="416.343506" y="114.295621" style="fill: #e3b505"/>
     <use xlink:href="#m55e7d58004" x="419.966883" y="114.68245" style="fill: #e3b505"/>
     <use xlink:href="#m55e7d58004" x="423.59026" y="113.883618" style="fill: #e3b505"/>
     <use xlink:href="#m55e7d58004" x="427.213636" y="114.320205" style="fill: #e3b505"/>
     <use xlink:href="#m55e7d58004" x="430.837013" y="114.650962" style="fill: #e3b505"/>
     <use xlink:href="#m55e7d58004" x="434.46039" y="114.593334" style="fill: #e3b505"/>
     <use xlink:href="#m55e7d58004" x="438.083766" y="114.559971" style="fill: #e3b505"/>
     <use xlink:href="#m55e7d58004" x="441.707143" y="114.535245" style="fill: #e3b505"/>
     <use xlink:href="#m55e7d58004" x="445.330519" y="87.612375" style="fill: #e3b505"/>
     <use xlink:href="#m55e7d58004" x="448.953896" y="114.685039" style="fill: #e3b505"/>
     <use xlink:href="#m55e7d58004" x="452.577273" y="114.690531" style="fill: #e3b505"/>
    </g>
   </g>
   <g id="PathCollection_3">
    <defs>
     <path id="m1871aa1aa9" d="M 0 3.5 
C 0.928211 3.5 1.81853 3.131218 2.474874 2.474874 
C 3.131218 1.81853 3.5 0.928211 3.5 0 
C 3.5 -0.928211 3.131218 -1.81853 2.474874 -2.474874 
C 1.81853 -3.131218 0.928211 -3.5 0 -3.5 
C -0.928211 -3.5 -1.81853 -3.131218 -2.474874 -2.474874 
C -3.131218 -1.81853 -3.5 -0.928211 -3.5 0 
C -3.5 0.928211 -3.131218 1.81853 -2.474874 2.474874 
C -1.81853 3.131218 -0.928211 3.5 0 3.5 
z
"/>
    </defs>
    <g clip-path="url(#pa866fa8673)">
     <use xlink:href="#m1871aa1aa9" x="72.122727" y="105.396438" style="fill: #4f6db8"/>
     <use xlink:href="#m1871aa1aa9" x="75.746104" y="114.695726" style="fill: #4f6db8"/>
     <use xlink:href="#m1871aa1aa9" x="79.369481" y="114.687739" style="fill: #4f6db8"/>
     <use xlink:href="#m1871aa1aa9" x="82.992857" y="62.704611" style="fill: #4f6db8"/>
     <use xlink:href="#m1871aa1aa9" x="86.616234" y="63.763402" style="fill: #4f6db8"/>
     <use xlink:href="#m1871aa1aa9" x="90.23961" y="97.763278" style="fill: #4f6db8"/>
     <use xlink:href="#m1871aa1aa9" x="93.862987" y="69.54232" style="fill: #4f6db8"/>
     <use xlink:href="#m1871aa1aa9" x="97.486364" y="80.627995" style="fill: #4f6db8"/>
     <use xlink:href="#m1871aa1aa9" x="101.10974" y="73.146969" style="fill: #4f6db8"/>
     <use xlink:href="#m1871aa1aa9" x="104.733117" y="73.088045" style="fill: #4f6db8"/>
     <use xlink:href="#m1871aa1aa9" x="108.356494" y="91.792326" style="fill: #4f6db8"/>
     <use xlink:href="#m1871aa1aa9" x="111.97987" y="90.096942" style="fill: #4f6db8"/>
     <use xlink:href="#m1871aa1aa9" x="115.603247" y="94.670562" style="fill: #4f6db8"/>
     <use xlink:href="#m1871aa1aa9" x="119.226623" y="92.622332" style="fill: #4f6db8"/>
     <use xlink:href="#m1871aa1aa9" x="122.85" y="56.526513" style="fill: #4f6db8"/>
     <use xlink:href="#m1871aa1aa9" x="126.473377" y="79.832912" style="fill: #4f6db8"/>
     <use xlink:href="#m1871aa1aa9" x="130.096753" y="71.84958" style="fill: #4f6db8"/>
     <use xlink:href="#m1871aa1aa9" x="133.72013" y="105.632481" style="fill: #4f6db8"/>
     <use xlink:href="#m1871aa1aa9" x="137.343506" y="102.075242" style="fill: #4f6db8"/>
     <use xlink:href="#m1871aa1aa9" x="140.966883" y="113.271485" style="fill: #4f6db8"/>
     <use xlink:href="#m1871aa1aa9" x="144.59026" y="102.809012" style="fill: #4f6db8"/>
     <use xlink:href="#m1871aa1aa9" x="148.213636" y="113.94325" style="fill: #4f6db8"/>
     <use xlink:href="#m1871aa1aa9" x="151.837013" y="114.484351" style="fill: #4f6db8"/>
     <use xlink:href="#m1871aa1aa9" x="155.46039" y="113.737048" style="fill: #4f6db8"/>
     <use xlink:href="#m1871aa1aa9" x="159.083766" y="82.214537" style="fill: #4f6db8"/>
     <use xlink:href="#m1871aa1aa9" x="162.707143" y="114.190372" style="fill: #4f6db8"/>
     <use xlink:href="#m1871aa1aa9" x="166.330519" y="104.60408" style="fill: #4f6db8"/>
     <use xlink:href="#m1871aa1aa9" x="169.953896" y="110.612458" style="fill: #4f6db8"/>
     <use xlink:href="#m1871aa1aa9" x="173.577273" y="113.389907" style="fill: #4f6db8"/>
     <use xlink:href="#m1871aa1aa9" x="177.200649" y="114.311004" style="fill: #4f6db8"/>
     <use xlink:href="#m1871aa1aa9" x="180.824026" y="114.21314" style="fill: #4f6db8"/>
     <use xlink:href="#m1871aa1aa9" x="184.447403" y="114.645013" style="fill: #4f6db8"/>
     <use xlink:href="#m1871aa1aa9" x="188.070779" y="114.665818" style="fill: #4f6db8"/>
     <use xlink:href="#m1871aa1aa9" x="191.694156" y="109.884804" style="fill: #4f6db8"/>
     <use xlink:href="#m1871aa1aa9" x="195.317532" y="107.887326" style="fill: #4f6db8"/>
     <use xlink:href="#m1871aa1aa9" x="198.940909" y="76.680151" style="fill: #4f6db8"/>
     <use xlink:href="#m1871aa1aa9" x="202.564286" y="112.792546" style="fill: #4f6db8"/>
     <use xlink:href="#m1871aa1aa9" x="206.187662" y="96.598689" style="fill: #4f6db8"/>
     <use xlink:href="#m1871aa1aa9" x="209.811039" y="92.571301" style="fill: #4f6db8"/>
     <use xlink:href="#m1871aa1aa9" x="213.434416" y="114.072247" style="fill: #4f6db8"/>
     <use xlink:href="#m1871aa1aa9" x="217.057792" y="114.571408" style="fill: #4f6db8"/>
     <use xlink:href="#m1871aa1aa9" x="220.681169" y="112.123411" style="fill: #4f6db8"/>
     <use xlink:href="#m1871aa1aa9" x="224.304545" y="113.271029" style="fill: #4f6db8"/>
     <use xlink:href="#m1871aa1aa9" x="227.927922" y="114.275079" style="fill: #4f6db8"/>
     <use xlink:href="#m1871aa1aa9" x="231.551299" y="114.607742" style="fill: #4f6db8"/>
     <use xlink:href="#m1871aa1aa9" x="235.174675" y="57.411542" style="fill: #4f6db8"/>
     <use xlink:href="#m1871aa1aa9" x="238.798052" y="114.640066" style="fill: #4f6db8"/>
     <use xlink:href="#m1871aa1aa9" x="242.421429" y="113.668704" style="fill: #4f6db8"/>
     <use xlink:href="#m1871aa1aa9" x="246.044805" y="114.623962" style="fill: #4f6db8"/>
     <use xlink:href="#m1871aa1aa9" x="249.668182" y="114.632741" style="fill: #4f6db8"/>
     <use xlink:href="#m1871aa1aa9" x="253.291558" y="114.694756" style="fill: #4f6db8"/>
     <use xlink:href="#m1871aa1aa9" x="256.914935" y="114.685566" style="fill: #4f6db8"/>
     <use xlink:href="#m1871aa1aa9" x="260.538312" y="114.679131" style="fill: #4f6db8"/>
     <use xlink:href="#m1871aa1aa9" x="264.161688" y="114.687706" style="fill: #4f6db8"/>
     <use xlink:href="#m1871aa1aa9" x="267.785065" y="114.68926" style="fill: #4f6db8"/>
     <use xlink:href="#m1871aa1aa9" x="271.408442" y="54.325543" style="fill: #4f6db8"/>
     <use xlink:href="#m1871aa1aa9" x="275.031818" y="114.694338" style="fill: #4f6db8"/>
     <use xlink:href="#m1871aa1aa9" x="278.655195" y="114.664057" style="fill: #4f6db8"/>
     <use xlink:href="#m1871aa1aa9" x="282.278571" y="114.693072" style="fill: #4f6db8"/>
     <use xlink:href="#m1871aa1aa9" x="285.901948" y="114.690343" style="fill: #4f6db8"/>
     <use xlink:href="#m1871aa1aa9" x="289.525325" y="114.680532" style="fill: #4f6db8"/>
     <use xlink:href="#m1871aa1aa9" x="293.148701" y="114.698438" style="fill: #4f6db8"/>
     <use xlink:href="#m1871aa1aa9" x="296.772078" y="58.328874" style="fill: #4f6db8"/>
     <use xlink:href="#m1871aa1aa9" x="300.395455" y="53.673139" style="fill: #4f6db8"/>
     <use xlink:href="#m1871aa1aa9" x="304.018831" y="58.681556" style="fill: #4f6db8"/>
     <use xlink:href="#m1871aa1aa9" x="307.642208" y="87.986096" style="fill: #4f6db8"/>
     <use xlink:href="#m1871aa1aa9" x="311.265584" y="50.047608" style="fill: #4f6db8"/>
     <use xlink:href="#m1871aa1aa9" x="314.888961" y="50.943372" style="fill: #4f6db8"/>
     <use xlink:href="#m1871aa1aa9" x="318.512338" y="48.191599" style="fill: #4f6db8"/>
     <use xlink:href="#m1871aa1aa9" x="322.135714" y="49.7279" style="fill: #4f6db8"/>
     <use xlink:href="#m1871aa1aa9" x="325.759091" y="47.504774" style="fill: #4f6db8"/>
     <use xlink:href="#m1871aa1aa9" x="329.382468" y="46.486622" style="fill: #4f6db8"/>
     <use xlink:href="#m1871aa1aa9" x="333.005844" y="46.256586" style="fill: #4f6db8"/>
     <use xlink:href="#m1871aa1aa9" x="336.629221" y="49.076522" style="fill: #4f6db8"/>
     <use xlink:href="#m1871aa1aa9" x="340.252597" y="52.232497" style="fill: #4f6db8"/>
     <use xlink:href="#m1871aa1aa9" x="343.875974" y="46.462984" style="fill: #4f6db8"/>
     <use xlink:href="#m1871aa1aa9" x="347.499351" y="49.178798" style="fill: #4f6db8"/>
     <use xlink:href="#m1871aa1aa9" x="351.122727" y="46.635862" style="fill: #4f6db8"/>
     <use xlink:href="#m1871aa1aa9" x="354.746104" y="59.167818" style="fill: #4f6db8"/>
     <use xlink:href="#m1871aa1aa9" x="358.369481" y="48.372595" style="fill: #4f6db8"/>
     <use xlink:href="#m1871aa1aa9" x="361.992857" y="46.344987" style="fill: #4f6db8"/>
     <use xlink:href="#m1871aa1aa9" x="365.616234" y="47.279073" style="fill: #4f6db8"/>
     <use xlink:href="#m1871aa1aa9" x="369.23961" y="46.745237" style="fill: #4f6db8"/>
     <use xlink:href="#m1871aa1aa9" x="372.862987" y="46.321892" style="fill: #4f6db8"/>
     <use xlink:href="#m1871aa1aa9" x="376.486364" y="46.217251" style="fill: #4f6db8"/>
     <use xlink:href="#m1871aa1aa9" x="380.10974" y="46.132804" style="fill: #4f6db8"/>
     <use xlink:href="#m1871aa1aa9" x="383.733117" y="46.355508" style="fill: #4f6db8"/>
     <use xlink:href="#m1871aa1aa9" x="387.356494" y="48.139946" style="fill: #4f6db8"/>
     <use xlink:href="#m1871aa1aa9" x="390.97987" y="46.207709" style="fill: #4f6db8"/>
     <use xlink:href="#m1871aa1aa9" x="394.603247" y="46.080787" style="fill: #4f6db8"/>
     <use xlink:href="#m1871aa1aa9" x="398.226623" y="46.830952" style="fill: #4f6db8"/>
     <use xlink:href="#m1871aa1aa9" x="401.85" y="47.585464" style="fill: #4f6db8"/>
     <use xlink:href="#m1871aa1aa9" x="405.473377" y="51.569119" style="fill: #4f6db8"/>
     <use xlink:href="#m1871aa1aa9" x="409.096753" y="46.217777" style="fill: #4f6db8"/>
     <use xlink:href="#m1871aa1aa9" x="412.72013" y="46.853237" style="fill: #4f6db8"/>
     <use xlink:href="#m1871aa1aa9" x="416.343506" y="51.759903" style="fill: #4f6db8"/>
     <use xlink:href="#m1871aa1aa9" x="419.966883" y="48.835754" style="fill: #4f6db8"/>
     <use xlink:href="#m1871aa1aa9" x="423.59026" y="47.255206" style="fill: #4f6db8"/>
     <use xlink:href="#m1871aa1aa9" x="427.213636" y="47.194818" style="fill: #4f6db8"/>
     <use xlink:href="#m1871aa1aa9" x="430.837013" y="46.149935" style="fill: #4f6db8"/>
     <use xlink:href="#m1871aa1aa9" x="434.46039" y="46.78592" style="fill: #4f6db8"/>
     <use xlink:href="#m1871aa1aa9" x="438.083766" y="49.453225" style="fill: #4f6db8"/>
     <use xlink:href="#m1871aa1aa9" x="441.707143" y="50.78796" style="fill: #4f6db8"/>
     <use xlink:href="#m1871aa1aa9" x="445.330519" y="78.281188" style="fill: #4f6db8"/>
     <use xlink:href="#m1871aa1aa9" x="448.953896" y="47.98674" style="fill: #4f6db8"/>
     <use xlink:href="#m1871aa1aa9" x="452.577273" y="46.43323" style="fill: #4f6db8"/>
    </g>
   </g>
   <g id="matplotlib.axis_1">
    <g id="xtick_1">
     <g id="line2d_1">
      <defs>
       <path id="mae7603105a" d="M 0 0 
L 0 8.25 
" style="stroke: #000000; stroke-width: 1.4"/>
      </defs>
      <g>
       <use xlink:href="#mae7603105a" x="68.499351" y="118.478438" style="stroke: #000000; stroke-width: 1.4"/>
      </g>
     </g>
     <g id="text_1">
      <!-- 0 -->
      <g transform="translate(64.681851 139.346563) scale(0.12 -0.12)">
       <defs>
        <path id="DejaVuSans-30" d="M 2034 4250 
Q 1547 4250 1301 3770 
Q 1056 3291 1056 2328 
Q 1056 1369 1301 889 
Q 1547 409 2034 409 
Q 2525 409 2770 889 
Q 3016 1369 3016 2328 
Q 3016 3291 2770 3770 
Q 2525 4250 2034 4250 
z
M 2034 4750 
Q 2819 4750 3233 4129 
Q 3647 3509 3647 2328 
Q 3647 1150 3233 529 
Q 2819 -91 2034 -91 
Q 1250 -91 836 529 
Q 422 1150 422 2328 
Q 422 3509 836 4129 
Q 1250 4750 2034 4750 
z
" transform="scale(0.015625)"/>
       </defs>
       <use xlink:href="#DejaVuSans-30"/>
      </g>
     </g>
    </g>
    <g id="xtick_2">
     <g id="line2d_2">
      <g>
       <use xlink:href="#mae7603105a" x="140.966883" y="118.478438" style="stroke: #000000; stroke-width: 1.4"/>
      </g>
     </g>
     <g id="text_2">
      <!-- 20 -->
      <g transform="translate(133.331883 139.346563) scale(0.12 -0.12)">
       <defs>
        <path id="DejaVuSans-32" d="M 1228 531 
L 3431 531 
L 3431 0 
L 469 0 
L 469 531 
Q 828 903 1448 1529 
Q 2069 2156 2228 2338 
Q 2531 2678 2651 2914 
Q 2772 3150 2772 3378 
Q 2772 3750 2511 3984 
Q 2250 4219 1831 4219 
Q 1534 4219 1204 4116 
Q 875 4013 500 3803 
L 500 4441 
Q 881 4594 1212 4672 
Q 1544 4750 1819 4750 
Q 2544 4750 2975 4387 
Q 3406 4025 3406 3419 
Q 3406 3131 3298 2873 
Q 3191 2616 2906 2266 
Q 2828 2175 2409 1742 
Q 1991 1309 1228 531 
z
" transform="scale(0.015625)"/>
       </defs>
       <use xlink:href="#DejaVuSans-32"/>
       <use xlink:href="#DejaVuSans-30" transform="translate(63.623047 0)"/>
      </g>
     </g>
    </g>
    <g id="xtick_3">
     <g id="line2d_3">
      <g>
       <use xlink:href="#mae7603105a" x="213.434416" y="118.478438" style="stroke: #000000; stroke-width: 1.4"/>
      </g>
     </g>
     <g id="text_3">
      <!-- 40 -->
      <g transform="translate(205.799416 139.346563) scale(0.12 -0.12)">
       <defs>
        <path id="DejaVuSans-34" d="M 2419 4116 
L 825 1625 
L 2419 1625 
L 2419 4116 
z
M 2253 4666 
L 3047 4666 
L 3047 1625 
L 3713 1625 
L 3713 1100 
L 3047 1100 
L 3047 0 
L 2419 0 
L 2419 1100 
L 313 1100 
L 313 1709 
L 2253 4666 
z
" transform="scale(0.015625)"/>
       </defs>
       <use xlink:href="#DejaVuSans-34"/>
       <use xlink:href="#DejaVuSans-30" transform="translate(63.623047 0)"/>
      </g>
     </g>
    </g>
    <g id="xtick_4">
     <g id="line2d_4">
      <g>
       <use xlink:href="#mae7603105a" x="285.901948" y="118.478438" style="stroke: #000000; stroke-width: 1.4"/>
      </g>
     </g>
     <g id="text_4">
      <!-- 60 -->
      <g transform="translate(278.266948 139.346563) scale(0.12 -0.12)">
       <defs>
        <path id="DejaVuSans-36" d="M 2113 2584 
Q 1688 2584 1439 2293 
Q 1191 2003 1191 1497 
Q 1191 994 1439 701 
Q 1688 409 2113 409 
Q 2538 409 2786 701 
Q 3034 994 3034 1497 
Q 3034 2003 2786 2293 
Q 2538 2584 2113 2584 
z
M 3366 4563 
L 3366 3988 
Q 3128 4100 2886 4159 
Q 2644 4219 2406 4219 
Q 1781 4219 1451 3797 
Q 1122 3375 1075 2522 
Q 1259 2794 1537 2939 
Q 1816 3084 2150 3084 
Q 2853 3084 3261 2657 
Q 3669 2231 3669 1497 
Q 3669 778 3244 343 
Q 2819 -91 2113 -91 
Q 1303 -91 875 529 
Q 447 1150 447 2328 
Q 447 3434 972 4092 
Q 1497 4750 2381 4750 
Q 2619 4750 2861 4703 
Q 3103 4656 3366 4563 
z
" transform="scale(0.015625)"/>
       </defs>
       <use xlink:href="#DejaVuSans-36"/>
       <use xlink:href="#DejaVuSans-30" transform="translate(63.623047 0)"/>
      </g>
     </g>
    </g>
    <g id="xtick_5">
     <g id="line2d_5">
      <g>
       <use xlink:href="#mae7603105a" x="358.369481" y="118.478438" style="stroke: #000000; stroke-width: 1.4"/>
      </g>
     </g>
     <g id="text_5">
      <!-- 80 -->
      <g transform="translate(350.734481 139.346563) scale(0.12 -0.12)">
       <defs>
        <path id="DejaVuSans-38" d="M 2034 2216 
Q 1584 2216 1326 1975 
Q 1069 1734 1069 1313 
Q 1069 891 1326 650 
Q 1584 409 2034 409 
Q 2484 409 2743 651 
Q 3003 894 3003 1313 
Q 3003 1734 2745 1975 
Q 2488 2216 2034 2216 
z
M 1403 2484 
Q 997 2584 770 2862 
Q 544 3141 544 3541 
Q 544 4100 942 4425 
Q 1341 4750 2034 4750 
Q 2731 4750 3128 4425 
Q 3525 4100 3525 3541 
Q 3525 3141 3298 2862 
Q 3072 2584 2669 2484 
Q 3125 2378 3379 2068 
Q 3634 1759 3634 1313 
Q 3634 634 3220 271 
Q 2806 -91 2034 -91 
Q 1263 -91 848 271 
Q 434 634 434 1313 
Q 434 1759 690 2068 
Q 947 2378 1403 2484 
z
M 1172 3481 
Q 1172 3119 1398 2916 
Q 1625 2713 2034 2713 
Q 2441 2713 2670 2916 
Q 2900 3119 2900 3481 
Q 2900 3844 2670 4047 
Q 2441 4250 2034 4250 
Q 1625 4250 1398 4047 
Q 1172 3844 1172 3481 
z
" transform="scale(0.015625)"/>
       </defs>
       <use xlink:href="#DejaVuSans-38"/>
       <use xlink:href="#DejaVuSans-30" transform="translate(63.623047 0)"/>
      </g>
     </g>
    </g>
    <g id="xtick_6">
     <g id="line2d_6">
      <g>
       <use xlink:href="#mae7603105a" x="430.837013" y="118.478438" style="stroke: #000000; stroke-width: 1.4"/>
      </g>
     </g>
     <g id="text_6">
      <!-- 100 -->
      <g transform="translate(419.384513 139.346563) scale(0.12 -0.12)">
       <defs>
        <path id="DejaVuSans-31" d="M 794 531 
L 1825 531 
L 1825 4091 
L 703 3866 
L 703 4441 
L 1819 4666 
L 2450 4666 
L 2450 531 
L 3481 531 
L 3481 0 
L 794 0 
L 794 531 
z
" transform="scale(0.015625)"/>
       </defs>
       <use xlink:href="#DejaVuSans-31"/>
       <use xlink:href="#DejaVuSans-30" transform="translate(63.623047 0)"/>
       <use xlink:href="#DejaVuSans-30" transform="translate(127.246094 0)"/>
      </g>
     </g>
    </g>
    <g id="text_7">
     <!-- Sessions -->
     <g transform="translate(238.499766 154.200469) scale(0.11 -0.11)">
      <defs>
       <path id="DejaVuSans-53" d="M 3425 4513 
L 3425 3897 
Q 3066 4069 2747 4153 
Q 2428 4238 2131 4238 
Q 1616 4238 1336 4038 
Q 1056 3838 1056 3469 
Q 1056 3159 1242 3001 
Q 1428 2844 1947 2747 
L 2328 2669 
Q 3034 2534 3370 2195 
Q 3706 1856 3706 1288 
Q 3706 609 3251 259 
Q 2797 -91 1919 -91 
Q 1588 -91 1214 -16 
Q 841 59 441 206 
L 441 856 
Q 825 641 1194 531 
Q 1563 422 1919 422 
Q 2459 422 2753 634 
Q 3047 847 3047 1241 
Q 3047 1584 2836 1778 
Q 2625 1972 2144 2069 
L 1759 2144 
Q 1053 2284 737 2584 
Q 422 2884 422 3419 
Q 422 4038 858 4394 
Q 1294 4750 2059 4750 
Q 2388 4750 2728 4690 
Q 3069 4631 3425 4513 
z
" transform="scale(0.015625)"/>
       <path id="DejaVuSans-65" d="M 3597 1894 
L 3597 1613 
L 953 1613 
Q 991 1019 1311 708 
Q 1631 397 2203 397 
Q 2534 397 2845 478 
Q 3156 559 3463 722 
L 3463 178 
Q 3153 47 2828 -22 
Q 2503 -91 2169 -91 
Q 1331 -91 842 396 
Q 353 884 353 1716 
Q 353 2575 817 3079 
Q 1281 3584 2069 3584 
Q 2775 3584 3186 3129 
Q 3597 2675 3597 1894 
z
M 3022 2063 
Q 3016 2534 2758 2815 
Q 2500 3097 2075 3097 
Q 1594 3097 1305 2825 
Q 1016 2553 972 2059 
L 3022 2063 
z
" transform="scale(0.015625)"/>
       <path id="DejaVuSans-73" d="M 2834 3397 
L 2834 2853 
Q 2591 2978 2328 3040 
Q 2066 3103 1784 3103 
Q 1356 3103 1142 2972 
Q 928 2841 928 2578 
Q 928 2378 1081 2264 
Q 1234 2150 1697 2047 
L 1894 2003 
Q 2506 1872 2764 1633 
Q 3022 1394 3022 966 
Q 3022 478 2636 193 
Q 2250 -91 1575 -91 
Q 1294 -91 989 -36 
Q 684 19 347 128 
L 347 722 
Q 666 556 975 473 
Q 1284 391 1588 391 
Q 1994 391 2212 530 
Q 2431 669 2431 922 
Q 2431 1156 2273 1281 
Q 2116 1406 1581 1522 
L 1381 1569 
Q 847 1681 609 1914 
Q 372 2147 372 2553 
Q 372 3047 722 3315 
Q 1072 3584 1716 3584 
Q 2034 3584 2315 3537 
Q 2597 3491 2834 3397 
z
" transform="scale(0.015625)"/>
       <path id="DejaVuSans-69" d="M 603 3500 
L 1178 3500 
L 1178 0 
L 603 0 
L 603 3500 
z
M 603 4863 
L 1178 4863 
L 1178 4134 
L 603 4134 
L 603 4863 
z
" transform="scale(0.015625)"/>
       <path id="DejaVuSans-6f" d="M 1959 3097 
Q 1497 3097 1228 2736 
Q 959 2375 959 1747 
Q 959 1119 1226 758 
Q 1494 397 1959 397 
Q 2419 397 2687 759 
Q 2956 1122 2956 1747 
Q 2956 2369 2687 2733 
Q 2419 3097 1959 3097 
z
M 1959 3584 
Q 2709 3584 3137 3096 
Q 3566 2609 3566 1747 
Q 3566 888 3137 398 
Q 2709 -91 1959 -91 
Q 1206 -91 779 398 
Q 353 888 353 1747 
Q 353 2609 779 3096 
Q 1206 3584 1959 3584 
z
" transform="scale(0.015625)"/>
       <path id="DejaVuSans-6e" d="M 3513 2113 
L 3513 0 
L 2938 0 
L 2938 2094 
Q 2938 2591 2744 2837 
Q 2550 3084 2163 3084 
Q 1697 3084 1428 2787 
Q 1159 2491 1159 1978 
L 1159 0 
L 581 0 
L 581 3500 
L 1159 3500 
L 1159 2956 
Q 1366 3272 1645 3428 
Q 1925 3584 2291 3584 
Q 2894 3584 3203 3211 
Q 3513 2838 3513 2113 
z
" transform="scale(0.015625)"/>
      </defs>
      <use xlink:href="#DejaVuSans-53"/>
      <use xlink:href="#DejaVuSans-65" transform="translate(63.476562 0)"/>
      <use xlink:href="#DejaVuSans-73" transform="translate(125 0)"/>
      <use xlink:href="#DejaVuSans-73" transform="translate(177.099609 0)"/>
      <use xlink:href="#DejaVuSans-69" transform="translate(229.199219 0)"/>
      <use xlink:href="#DejaVuSans-6f" transform="translate(256.982422 0)"/>
      <use xlink:href="#DejaVuSans-6e" transform="translate(318.164062 0)"/>
      <use xlink:href="#DejaVuSans-73" transform="translate(381.542969 0)"/>
     </g>
    </g>
   </g>
   <g id="matplotlib.axis_2">
    <g id="ytick_1">
     <g id="line2d_7">
      <defs>
       <path id="m14ff15caef" d="M 0 0 
L -8.25 0 
" style="stroke: #000000; stroke-width: 1.4"/>
      </defs>
      <g>
       <use xlink:href="#m14ff15caef" x="53.1" y="114.702142" style="stroke: #000000; stroke-width: 1.4"/>
      </g>
     </g>
     <g id="text_8">
      <!-- 0.0 -->
      <g transform="translate(22.26625 119.261205) scale(0.12 -0.12)">
       <defs>
        <path id="DejaVuSans-2e" d="M 684 794 
L 1344 794 
L 1344 0 
L 684 0 
L 684 794 
z
" transform="scale(0.015625)"/>
       </defs>
       <use xlink:href="#DejaVuSans-30"/>
       <use xlink:href="#DejaVuSans-2e" transform="translate(63.623047 0)"/>
       <use xlink:href="#DejaVuSans-30" transform="translate(95.410156 0)"/>
      </g>
     </g>
    </g>
    <g id="ytick_2">
     <g id="line2d_8">
      <g>
       <use xlink:href="#m14ff15caef" x="53.1" y="80.336822" style="stroke: #000000; stroke-width: 1.4"/>
      </g>
     </g>
     <g id="text_9">
      <!-- 0.5 -->
      <g transform="translate(22.26625 84.895884) scale(0.12 -0.12)">
       <defs>
        <path id="DejaVuSans-35" d="M 691 4666 
L 3169 4666 
L 3169 4134 
L 1269 4134 
L 1269 2991 
Q 1406 3038 1543 3061 
Q 1681 3084 1819 3084 
Q 2600 3084 3056 2656 
Q 3513 2228 3513 1497 
Q 3513 744 3044 326 
Q 2575 -91 1722 -91 
Q 1428 -91 1123 -41 
Q 819 9 494 109 
L 494 744 
Q 775 591 1075 516 
Q 1375 441 1709 441 
Q 2250 441 2565 725 
Q 2881 1009 2881 1497 
Q 2881 1984 2565 2268 
Q 2250 2553 1709 2553 
Q 1456 2553 1204 2497 
Q 953 2441 691 2322 
L 691 4666 
z
" transform="scale(0.015625)"/>
       </defs>
       <use xlink:href="#DejaVuSans-30"/>
       <use xlink:href="#DejaVuSans-2e" transform="translate(63.623047 0)"/>
       <use xlink:href="#DejaVuSans-35" transform="translate(95.410156 0)"/>
      </g>
     </g>
    </g>
    <g id="ytick_3">
     <g id="line2d_9">
      <g>
       <use xlink:href="#m14ff15caef" x="53.1" y="45.971502" style="stroke: #000000; stroke-width: 1.4"/>
      </g>
     </g>
     <g id="text_10">
      <!-- 1.0 -->
      <g transform="translate(22.26625 50.530564) scale(0.12 -0.12)">
       <use xlink:href="#DejaVuSans-31"/>
       <use xlink:href="#DejaVuSans-2e" transform="translate(63.623047 0)"/>
       <use xlink:href="#DejaVuSans-30" transform="translate(95.410156 0)"/>
      </g>
     </g>
    </g>
    <g id="text_11">
     <!-- P(state) -->
     <g transform="translate(15.978594 98.438672) rotate(-90) scale(0.11 -0.11)">
      <defs>
       <path id="DejaVuSans-50" d="M 1259 4147 
L 1259 2394 
L 2053 2394 
Q 2494 2394 2734 2622 
Q 2975 2850 2975 3272 
Q 2975 3691 2734 3919 
Q 2494 4147 2053 4147 
L 1259 4147 
z
M 628 4666 
L 2053 4666 
Q 2838 4666 3239 4311 
Q 3641 3956 3641 3272 
Q 3641 2581 3239 2228 
Q 2838 1875 2053 1875 
L 1259 1875 
L 1259 0 
L 628 0 
L 628 4666 
z
" transform="scale(0.015625)"/>
       <path id="DejaVuSans-28" d="M 1984 4856 
Q 1566 4138 1362 3434 
Q 1159 2731 1159 2009 
Q 1159 1288 1364 580 
Q 1569 -128 1984 -844 
L 1484 -844 
Q 1016 -109 783 600 
Q 550 1309 550 2009 
Q 550 2706 781 3412 
Q 1013 4119 1484 4856 
L 1984 4856 
z
" transform="scale(0.015625)"/>
       <path id="DejaVuSans-74" d="M 1172 4494 
L 1172 3500 
L 2356 3500 
L 2356 3053 
L 1172 3053 
L 1172 1153 
Q 1172 725 1289 603 
Q 1406 481 1766 481 
L 2356 481 
L 2356 0 
L 1766 0 
Q 1100 0 847 248 
Q 594 497 594 1153 
L 594 3053 
L 172 3053 
L 172 3500 
L 594 3500 
L 594 4494 
L 1172 4494 
z
" transform="scale(0.015625)"/>
       <path id="DejaVuSans-61" d="M 2194 1759 
Q 1497 1759 1228 1600 
Q 959 1441 959 1056 
Q 959 750 1161 570 
Q 1363 391 1709 391 
Q 2188 391 2477 730 
Q 2766 1069 2766 1631 
L 2766 1759 
L 2194 1759 
z
M 3341 1997 
L 3341 0 
L 2766 0 
L 2766 531 
Q 2569 213 2275 61 
Q 1981 -91 1556 -91 
Q 1019 -91 701 211 
Q 384 513 384 1019 
Q 384 1609 779 1909 
Q 1175 2209 1959 2209 
L 2766 2209 
L 2766 2266 
Q 2766 2663 2505 2880 
Q 2244 3097 1772 3097 
Q 1472 3097 1187 3025 
Q 903 2953 641 2809 
L 641 3341 
Q 956 3463 1253 3523 
Q 1550 3584 1831 3584 
Q 2591 3584 2966 3190 
Q 3341 2797 3341 1997 
z
" transform="scale(0.015625)"/>
       <path id="DejaVuSans-29" d="M 513 4856 
L 1013 4856 
Q 1481 4119 1714 3412 
Q 1947 2706 1947 2009 
Q 1947 1309 1714 600 
Q 1481 -109 1013 -844 
L 513 -844 
Q 928 -128 1133 580 
Q 1338 1288 1338 2009 
Q 1338 2731 1133 3434 
Q 928 4138 513 4856 
z
" transform="scale(0.015625)"/>
      </defs>
      <use xlink:href="#DejaVuSans-50"/>
      <use xlink:href="#DejaVuSans-28" transform="translate(60.302734 0)"/>
      <use xlink:href="#DejaVuSans-73" transform="translate(99.316406 0)"/>
      <use xlink:href="#DejaVuSans-74" transform="translate(151.416016 0)"/>
      <use xlink:href="#DejaVuSans-61" transform="translate(190.625 0)"/>
      <use xlink:href="#DejaVuSans-74" transform="translate(251.904297 0)"/>
      <use xlink:href="#DejaVuSans-65" transform="translate(291.113281 0)"/>
      <use xlink:href="#DejaVuSans-29" transform="translate(352.636719 0)"/>
     </g>
    </g>
   </g>
   <g id="line2d_10">
    <path d="M 72.122727 55.310975 
L 75.746104 45.982081 
L 79.369481 45.990178 
L 82.992857 107.600539 
L 86.616234 110.063634 
L 90.23961 105.369139 
L 93.862987 105.574316 
L 97.486364 114.364112 
L 101.10974 99.063807 
L 104.733117 101.474528 
L 108.356494 108.975181 
L 111.97987 97.358833 
L 115.603247 114.44262 
L 119.226623 76.847231 
L 122.85 108.605429 
L 126.473377 103.204577 
L 130.096753 111.20379 
L 133.72013 102.625538 
L 137.343506 106.04346 
L 140.966883 114.075761 
L 144.59026 113.302559 
L 148.213636 112.595776 
L 151.837013 114.112558 
L 155.46039 108.329773 
L 159.083766 94.584384 
L 162.707143 106.093328 
L 166.330519 110.481019 
L 169.953896 106.024395 
L 173.577273 109.786046 
L 177.200649 111.727436 
L 180.824026 114.455994 
L 184.447403 114.386845 
L 188.070779 114.603242 
L 191.694156 111.851714 
L 195.317532 114.308455 
L 198.940909 95.446348 
L 202.564286 113.827505 
L 206.187662 114.167419 
L 209.811039 95.45653 
L 213.434416 114.545905 
L 217.057792 113.850352 
L 220.681169 112.241731 
L 224.304545 104.301497 
L 227.927922 114.374871 
L 231.551299 108.331741 
L 235.174675 103.285833 
L 238.798052 114.684537 
L 242.421429 114.690856 
L 246.044805 114.68871 
L 249.668182 114.675333 
L 253.291558 114.669055 
L 256.914935 114.686617 
L 260.538312 114.692279 
L 264.161688 114.688188 
L 267.785065 114.678646 
L 271.408442 106.358146 
L 275.031818 114.695404 
L 278.655195 114.688695 
L 282.278571 114.695537 
L 285.901948 114.69527 
L 289.525325 114.398959 
L 293.148701 114.691792 
L 296.772078 102.404604 
L 300.395455 107.157742 
L 304.018831 107.978878 
L 307.642208 108.637394 
L 311.265584 110.943135 
L 314.888961 112.369047 
L 318.512338 112.628709 
L 322.135714 111.039736 
L 325.759091 113.222605 
L 329.382468 114.194544 
L 333.005844 114.440431 
L 336.629221 111.689331 
L 340.252597 108.618799 
L 343.875974 114.294581 
L 347.499351 113.125999 
L 351.122727 114.345029 
L 354.746104 101.697135 
L 358.369481 112.712424 
L 361.992857 114.411936 
L 365.616234 113.441052 
L 369.23961 114.055604 
L 372.862987 114.424379 
L 376.486364 114.614619 
L 380.10974 114.588283 
L 383.733117 114.374325 
L 387.356494 112.694447 
L 390.97987 114.514944 
L 394.603247 114.610404 
L 398.226623 113.998853 
L 401.85 113.130092 
L 405.473377 109.231803 
L 409.096753 114.490764 
L 412.72013 113.883555 
L 416.343506 109.320262 
L 419.966883 111.857582 
L 423.59026 114.236962 
L 427.213636 113.860762 
L 430.837013 114.574889 
L 434.46039 113.996532 
L 438.083766 111.362589 
L 441.707143 110.052581 
L 445.330519 109.482223 
L 448.953896 112.704007 
L 452.577273 114.252025 
" clip-path="url(#pa866fa8673)" style="fill: none; stroke: #2ca6a4; stroke-width: 2; stroke-linecap: square"/>
   </g>
   <g id="line2d_11">
    <path d="M 72.122727 114.668373 
L 75.746104 114.697979 
L 79.369481 114.697869 
L 82.992857 105.070636 
L 86.616234 101.54875 
L 90.23961 72.243369 
L 93.862987 100.25915 
L 97.486364 80.383679 
L 101.10974 103.16501 
L 104.733117 100.813212 
L 108.356494 74.608279 
L 111.97987 87.92001 
L 115.603247 66.262603 
L 119.226623 105.906223 
L 122.85 110.243843 
L 126.473377 92.338297 
L 130.096753 92.322416 
L 133.72013 67.117766 
L 137.343506 67.257084 
L 140.966883 48.02854 
L 144.59026 59.264214 
L 148.213636 48.836759 
L 151.837013 46.778877 
L 155.46039 53.308965 
L 159.083766 98.576865 
L 162.707143 55.092086 
L 166.330519 60.290686 
L 169.953896 58.738933 
L 173.577273 52.199832 
L 177.200649 49.337345 
L 180.824026 46.706652 
L 184.447403 46.343928 
L 188.070779 46.106726 
L 191.694156 53.639267 
L 195.317532 53.180005 
L 198.940909 103.249287 
L 202.564286 48.755735 
L 206.187662 64.609678 
L 209.811039 87.347955 
L 213.434416 46.757634 
L 217.057792 46.954025 
L 220.681169 51.010643 
L 224.304545 57.80326 
L 227.927922 46.725836 
L 231.551299 52.436303 
L 235.174675 114.678411 
L 238.798052 46.051182 
L 242.421429 47.016226 
L 246.044805 46.063114 
L 249.668182 46.067712 
L 253.291558 46.011975 
L 256.914935 46.003603 
L 260.538312 46.004376 
L 264.161688 45.999892 
L 267.785065 46.00788 
L 271.408442 114.692097 
L 275.031818 45.986044 
L 278.655195 46.023034 
L 282.278571 45.987176 
L 285.901948 45.990173 
L 289.525325 46.296295 
L 293.148701 45.985556 
L 296.772078 114.642308 
L 300.395455 114.544905 
L 304.018831 108.715352 
L 307.642208 78.752295 
L 311.265584 114.385042 
L 314.888961 112.063366 
L 318.512338 114.555478 
L 322.135714 114.60815 
L 325.759091 114.648407 
L 329.382468 114.69462 
L 333.005844 114.678769 
L 336.629221 114.609932 
L 340.252597 114.52449 
L 343.875974 114.61822 
L 347.499351 113.070988 
L 351.122727 114.394895 
L 354.746104 114.510833 
L 358.369481 114.290766 
L 361.992857 114.618862 
L 365.616234 114.655661 
L 369.23961 114.574944 
L 372.862987 114.629514 
L 376.486364 114.543915 
L 380.10974 114.654699 
L 383.733117 114.645953 
L 387.356494 114.541392 
L 390.97987 114.653133 
L 394.603247 114.684595 
L 398.226623 114.54598 
L 401.85 114.66023 
L 405.473377 114.574863 
L 409.096753 114.667244 
L 412.72013 114.638994 
L 416.343506 114.295621 
L 419.966883 114.68245 
L 423.59026 113.883618 
L 427.213636 114.320205 
L 430.837013 114.650962 
L 434.46039 114.593334 
L 438.083766 114.559971 
L 441.707143 114.535245 
L 445.330519 87.612375 
L 448.953896 114.685039 
L 452.577273 114.690531 
" clip-path="url(#pa866fa8673)" style="fill: none; stroke: #e3b505; stroke-width: 2; stroke-linecap: square"/>
   </g>
   <g id="line2d_12">
    <path d="M 72.122727 105.396438 
L 75.746104 114.695726 
L 79.369481 114.687739 
L 82.992857 62.704611 
L 86.616234 63.763402 
L 90.23961 97.763278 
L 93.862987 69.54232 
L 97.486364 80.627995 
L 101.10974 73.146969 
L 104.733117 73.088045 
L 108.356494 91.792326 
L 111.97987 90.096942 
L 115.603247 94.670562 
L 119.226623 92.622332 
L 122.85 56.526513 
L 126.473377 79.832912 
L 130.096753 71.84958 
L 133.72013 105.632481 
L 137.343506 102.075242 
L 140.966883 113.271485 
L 144.59026 102.809012 
L 148.213636 113.94325 
L 151.837013 114.484351 
L 155.46039 113.737048 
L 159.083766 82.214537 
L 162.707143 114.190372 
L 166.330519 104.60408 
L 169.953896 110.612458 
L 173.577273 113.389907 
L 177.200649 114.311004 
L 180.824026 114.21314 
L 184.447403 114.645013 
L 188.070779 114.665818 
L 191.694156 109.884804 
L 195.317532 107.887326 
L 198.940909 76.680151 
L 202.564286 112.792546 
L 206.187662 96.598689 
L 209.811039 92.571301 
L 213.434416 114.072247 
L 217.057792 114.571408 
L 220.681169 112.123411 
L 224.304545 113.271029 
L 227.927922 114.275079 
L 231.551299 114.607742 
L 235.174675 57.411542 
L 238.798052 114.640066 
L 242.421429 113.668704 
L 246.044805 114.623962 
L 249.668182 114.632741 
L 253.291558 114.694756 
L 256.914935 114.685566 
L 260.538312 114.679131 
L 264.161688 114.687706 
L 267.785065 114.68926 
L 271.408442 54.325543 
L 275.031818 114.694338 
L 278.655195 114.664057 
L 282.278571 114.693072 
L 285.901948 114.690343 
L 289.525325 114.680532 
L 293.148701 114.698438 
L 296.772078 58.328874 
L 300.395455 53.673139 
L 304.018831 58.681556 
L 307.642208 87.986096 
L 311.265584 50.047608 
L 314.888961 50.943372 
L 318.512338 48.191599 
L 322.135714 49.7279 
L 325.759091 47.504774 
L 329.382468 46.486622 
L 333.005844 46.256586 
L 336.629221 49.076522 
L 340.252597 52.232497 
L 343.875974 46.462984 
L 347.499351 49.178798 
L 351.122727 46.635862 
L 354.746104 59.167818 
L 358.369481 48.372595 
L 361.992857 46.344987 
L 365.616234 47.279073 
L 369.23961 46.745237 
L 372.862987 46.321892 
L 376.486364 46.217251 
L 380.10974 46.132804 
L 383.733117 46.355508 
L 387.356494 48.139946 
L 390.97987 46.207709 
L 394.603247 46.080787 
L 398.226623 46.830952 
L 401.85 47.585464 
L 405.473377 51.569119 
L 409.096753 46.217777 
L 412.72013 46.853237 
L 416.343506 51.759903 
L 419.966883 48.835754 
L 423.59026 47.255206 
L 427.213636 47.194818 
L 430.837013 46.149935 
L 434.46039 46.78592 
L 438.083766 49.453225 
L 441.707143 50.78796 
L 445.330519 78.281188 
L 448.953896 47.98674 
L 452.577273 46.43323 
" clip-path="url(#pa866fa8673)" style="fill: none; stroke: #4f6db8; stroke-width: 2; stroke-linecap: square"/>
   </g>
   <g id="line2d_13">
    <path d="M 72.122727 39.098438 
L 75.746104 39.098438 
" style="fill: none; stroke: #808080; stroke-width: 4; stroke-linecap: square"/>
   </g>
   <g id="line2d_14">
    <path d="M 79.369481 39.098438 
L 304.018831 39.098438 
" style="fill: none; stroke: #ffa500; stroke-width: 4; stroke-linecap: square"/>
   </g>
   <g id="line2d_15">
    <path d="M 307.642208 39.098438 
L 452.577273 39.098438 
" style="fill: none; stroke: #800080; stroke-width: 4; stroke-linecap: square"/>
   </g>
   <g id="patch_3">
    <path d="M 53.1 114.702142 
L 53.1 45.971502 
" style="fill: none; stroke: #000000; stroke-width: 1.2; stroke-linejoin: miter; stroke-linecap: square"/>
   </g>
   <g id="patch_4">
    <path d="M 53.1 118.478438 
L 471.6 118.478438 
" style="fill: none; stroke: #000000; stroke-width: 1.2; stroke-linejoin: miter; stroke-linecap: square"/>
   </g>
   <g id="text_12">
    <!-- 0 -->
    <g style="fill: #808080" transform="translate(70.116916 37.380171) scale(0.12 -0.12)">
     <use xlink:href="#DejaVuSans-30"/>
    </g>
   </g>
   <g id="text_13">
    <!-- 1 -->
    <g style="fill: #ffa500" transform="translate(187.876656 37.380171) scale(0.12 -0.12)">
     <use xlink:href="#DejaVuSans-31"/>
    </g>
   </g>
   <g id="text_14">
    <!-- 2 -->
    <g style="fill: #800080" transform="translate(376.29224 37.380171) scale(0.12 -0.12)">
     <use xlink:href="#DejaVuSans-32"/>
    </g>
   </g>
  </g>
  <g id="text_15">
   <!-- Algorithm -->
   <g transform="translate(7.2 36.398438) scale(0.1 -0.1)">
    <defs>
     <path id="DejaVuSans-41" d="M 2188 4044 
L 1331 1722 
L 3047 1722 
L 2188 4044 
z
M 1831 4666 
L 2547 4666 
L 4325 0 
L 3669 0 
L 3244 1197 
L 1141 1197 
L 716 0 
L 50 0 
L 1831 4666 
z
" transform="scale(0.015625)"/>
     <path id="DejaVuSans-6c" d="M 603 4863 
L 1178 4863 
L 1178 0 
L 603 0 
L 603 4863 
z
" transform="scale(0.015625)"/>
     <path id="DejaVuSans-67" d="M 2906 1791 
Q 2906 2416 2648 2759 
Q 2391 3103 1925 3103 
Q 1463 3103 1205 2759 
Q 947 2416 947 1791 
Q 947 1169 1205 825 
Q 1463 481 1925 481 
Q 2391 481 2648 825 
Q 2906 1169 2906 1791 
z
M 3481 434 
Q 3481 -459 3084 -895 
Q 2688 -1331 1869 -1331 
Q 1566 -1331 1297 -1286 
Q 1028 -1241 775 -1147 
L 775 -588 
Q 1028 -725 1275 -790 
Q 1522 -856 1778 -856 
Q 2344 -856 2625 -561 
Q 2906 -266 2906 331 
L 2906 616 
Q 2728 306 2450 153 
Q 2172 0 1784 0 
Q 1141 0 747 490 
Q 353 981 353 1791 
Q 353 2603 747 3093 
Q 1141 3584 1784 3584 
Q 2172 3584 2450 3431 
Q 2728 3278 2906 2969 
L 2906 3500 
L 3481 3500 
L 3481 434 
z
" transform="scale(0.015625)"/>
     <path id="DejaVuSans-72" d="M 2631 2963 
Q 2534 3019 2420 3045 
Q 2306 3072 2169 3072 
Q 1681 3072 1420 2755 
Q 1159 2438 1159 1844 
L 1159 0 
L 581 0 
L 581 3500 
L 1159 3500 
L 1159 2956 
Q 1341 3275 1631 3429 
Q 1922 3584 2338 3584 
Q 2397 3584 2469 3576 
Q 2541 3569 2628 3553 
L 2631 2963 
z
" transform="scale(0.015625)"/>
     <path id="DejaVuSans-68" d="M 3513 2113 
L 3513 0 
L 2938 0 
L 2938 2094 
Q 2938 2591 2744 2837 
Q 2550 3084 2163 3084 
Q 1697 3084 1428 2787 
Q 1159 2491 1159 1978 
L 1159 0 
L 581 0 
L 581 4863 
L 1159 4863 
L 1159 2956 
Q 1366 3272 1645 3428 
Q 1925 3584 2291 3584 
Q 2894 3584 3203 3211 
Q 3513 2838 3513 2113 
z
" transform="scale(0.015625)"/>
     <path id="DejaVuSans-6d" d="M 3328 2828 
Q 3544 3216 3844 3400 
Q 4144 3584 4550 3584 
Q 5097 3584 5394 3201 
Q 5691 2819 5691 2113 
L 5691 0 
L 5113 0 
L 5113 2094 
Q 5113 2597 4934 2840 
Q 4756 3084 4391 3084 
Q 3944 3084 3684 2787 
Q 3425 2491 3425 1978 
L 3425 0 
L 2847 0 
L 2847 2094 
Q 2847 2600 2669 2842 
Q 2491 3084 2119 3084 
Q 1678 3084 1418 2786 
Q 1159 2488 1159 1978 
L 1159 0 
L 581 0 
L 581 3500 
L 1159 3500 
L 1159 2956 
Q 1356 3278 1631 3431 
Q 1906 3584 2284 3584 
Q 2666 3584 2933 3390 
Q 3200 3197 3328 2828 
z
" transform="scale(0.015625)"/>
    </defs>
    <use xlink:href="#DejaVuSans-41"/>
    <use xlink:href="#DejaVuSans-6c" transform="translate(68.408203 0)"/>
    <use xlink:href="#DejaVuSans-67" transform="translate(96.191406 0)"/>
    <use xlink:href="#DejaVuSans-6f" transform="translate(159.667969 0)"/>
    <use xlink:href="#DejaVuSans-72" transform="translate(220.849609 0)"/>
    <use xlink:href="#DejaVuSans-69" transform="translate(261.962891 0)"/>
    <use xlink:href="#DejaVuSans-74" transform="translate(289.746094 0)"/>
    <use xlink:href="#DejaVuSans-68" transform="translate(328.955078 0)"/>
    <use xlink:href="#DejaVuSans-6d" transform="translate(392.333984 0)"/>
   </g>
  </g>
  <g id="text_16">
   <!-- States -->
   <g transform="translate(7.2 25.598438) scale(0.1 -0.1)">
    <use xlink:href="#DejaVuSans-53"/>
    <use xlink:href="#DejaVuSans-74" transform="translate(63.476562 0)"/>
    <use xlink:href="#DejaVuSans-61" transform="translate(102.685547 0)"/>
    <use xlink:href="#DejaVuSans-74" transform="translate(163.964844 0)"/>
    <use xlink:href="#DejaVuSans-65" transform="translate(203.173828 0)"/>
    <use xlink:href="#DejaVuSans-73" transform="translate(264.697266 0)"/>
   </g>
  </g>
  <g id="text_17">
   <!-- Bias -->
   <g style="fill: #2ca6a4" transform="translate(66.6 25.598438) scale(0.1 -0.1)">
    <defs>
     <path id="DejaVuSans-Bold-42" d="M 2456 2859 
Q 2741 2859 2887 2984 
Q 3034 3109 3034 3353 
Q 3034 3594 2887 3720 
Q 2741 3847 2456 3847 
L 1791 3847 
L 1791 2859 
L 2456 2859 
z
M 2497 819 
Q 2859 819 3042 972 
Q 3225 1125 3225 1434 
Q 3225 1738 3044 1889 
Q 2863 2041 2497 2041 
L 1791 2041 
L 1791 819 
L 2497 819 
z
M 3616 2497 
Q 4003 2384 4215 2081 
Q 4428 1778 4428 1338 
Q 4428 663 3972 331 
Q 3516 0 2584 0 
L 588 0 
L 588 4666 
L 2394 4666 
Q 3366 4666 3802 4372 
Q 4238 4078 4238 3431 
Q 4238 3091 4078 2852 
Q 3919 2613 3616 2497 
z
" transform="scale(0.015625)"/>
     <path id="DejaVuSans-Bold-69" d="M 538 3500 
L 1656 3500 
L 1656 0 
L 538 0 
L 538 3500 
z
M 538 4863 
L 1656 4863 
L 1656 3950 
L 538 3950 
L 538 4863 
z
" transform="scale(0.015625)"/>
     <path id="DejaVuSans-Bold-61" d="M 2106 1575 
Q 1756 1575 1579 1456 
Q 1403 1338 1403 1106 
Q 1403 894 1545 773 
Q 1688 653 1941 653 
Q 2256 653 2472 879 
Q 2688 1106 2688 1447 
L 2688 1575 
L 2106 1575 
z
M 3816 1997 
L 3816 0 
L 2688 0 
L 2688 519 
Q 2463 200 2181 54 
Q 1900 -91 1497 -91 
Q 953 -91 614 226 
Q 275 544 275 1050 
Q 275 1666 698 1953 
Q 1122 2241 2028 2241 
L 2688 2241 
L 2688 2328 
Q 2688 2594 2478 2717 
Q 2269 2841 1825 2841 
Q 1466 2841 1156 2769 
Q 847 2697 581 2553 
L 581 3406 
Q 941 3494 1303 3539 
Q 1666 3584 2028 3584 
Q 2975 3584 3395 3211 
Q 3816 2838 3816 1997 
z
" transform="scale(0.015625)"/>
     <path id="DejaVuSans-Bold-73" d="M 3272 3391 
L 3272 2541 
Q 2913 2691 2578 2766 
Q 2244 2841 1947 2841 
Q 1628 2841 1473 2761 
Q 1319 2681 1319 2516 
Q 1319 2381 1436 2309 
Q 1553 2238 1856 2203 
L 2053 2175 
Q 2913 2066 3209 1816 
Q 3506 1566 3506 1031 
Q 3506 472 3093 190 
Q 2681 -91 1863 -91 
Q 1516 -91 1145 -36 
Q 775 19 384 128 
L 384 978 
Q 719 816 1070 734 
Q 1422 653 1784 653 
Q 2113 653 2278 743 
Q 2444 834 2444 1013 
Q 2444 1163 2330 1236 
Q 2216 1309 1875 1350 
L 1678 1375 
Q 931 1469 631 1722 
Q 331 1975 331 2491 
Q 331 3047 712 3315 
Q 1094 3584 1881 3584 
Q 2191 3584 2531 3537 
Q 2872 3491 3272 3391 
z
" transform="scale(0.015625)"/>
    </defs>
    <use xlink:href="#DejaVuSans-Bold-42"/>
    <use xlink:href="#DejaVuSans-Bold-69" transform="translate(76.220703 0)"/>
    <use xlink:href="#DejaVuSans-Bold-61" transform="translate(110.498047 0)"/>
    <use xlink:href="#DejaVuSans-Bold-73" transform="translate(177.978516 0)"/>
   </g>
  </g>
  <g id="text_18">
   <!-- WSLS -->
   <g style="fill: #e3b505" transform="translate(93.6 25.598438) scale(0.1 -0.1)">
    <defs>
     <path id="DejaVuSans-Bold-57" d="M 191 4666 
L 1344 4666 
L 2150 1275 
L 2950 4666 
L 4109 4666 
L 4909 1275 
L 5716 4666 
L 6859 4666 
L 5759 0 
L 4372 0 
L 3525 3547 
L 2688 0 
L 1300 0 
L 191 4666 
z
" transform="scale(0.015625)"/>
     <path id="DejaVuSans-Bold-53" d="M 3834 4519 
L 3834 3531 
Q 3450 3703 3084 3790 
Q 2719 3878 2394 3878 
Q 1963 3878 1756 3759 
Q 1550 3641 1550 3391 
Q 1550 3203 1689 3098 
Q 1828 2994 2194 2919 
L 2706 2816 
Q 3484 2659 3812 2340 
Q 4141 2022 4141 1434 
Q 4141 663 3683 286 
Q 3225 -91 2284 -91 
Q 1841 -91 1394 -6 
Q 947 78 500 244 
L 500 1259 
Q 947 1022 1364 901 
Q 1781 781 2169 781 
Q 2563 781 2772 912 
Q 2981 1044 2981 1288 
Q 2981 1506 2839 1625 
Q 2697 1744 2272 1838 
L 1806 1941 
Q 1106 2091 782 2419 
Q 459 2747 459 3303 
Q 459 4000 909 4375 
Q 1359 4750 2203 4750 
Q 2588 4750 2994 4692 
Q 3400 4634 3834 4519 
z
" transform="scale(0.015625)"/>
     <path id="DejaVuSans-Bold-4c" d="M 588 4666 
L 1791 4666 
L 1791 909 
L 3903 909 
L 3903 0 
L 588 0 
L 588 4666 
z
" transform="scale(0.015625)"/>
    </defs>
    <use xlink:href="#DejaVuSans-Bold-57"/>
    <use xlink:href="#DejaVuSans-Bold-53" transform="translate(110.302734 0)"/>
    <use xlink:href="#DejaVuSans-Bold-4c" transform="translate(182.324219 0)"/>
    <use xlink:href="#DejaVuSans-Bold-53" transform="translate(246.044922 0)"/>
   </g>
  </g>
  <g id="text_19">
   <!-- Stochastic -->
   <g style="fill: #4f6db8" transform="translate(126 25.598438) scale(0.1 -0.1)">
    <defs>
     <path id="DejaVuSans-Bold-74" d="M 1759 4494 
L 1759 3500 
L 2913 3500 
L 2913 2700 
L 1759 2700 
L 1759 1216 
Q 1759 972 1856 886 
Q 1953 800 2241 800 
L 2816 800 
L 2816 0 
L 1856 0 
Q 1194 0 917 276 
Q 641 553 641 1216 
L 641 2700 
L 84 2700 
L 84 3500 
L 641 3500 
L 641 4494 
L 1759 4494 
z
" transform="scale(0.015625)"/>
     <path id="DejaVuSans-Bold-6f" d="M 2203 2784 
Q 1831 2784 1636 2517 
Q 1441 2250 1441 1747 
Q 1441 1244 1636 976 
Q 1831 709 2203 709 
Q 2569 709 2762 976 
Q 2956 1244 2956 1747 
Q 2956 2250 2762 2517 
Q 2569 2784 2203 2784 
z
M 2203 3584 
Q 3106 3584 3614 3096 
Q 4122 2609 4122 1747 
Q 4122 884 3614 396 
Q 3106 -91 2203 -91 
Q 1297 -91 786 396 
Q 275 884 275 1747 
Q 275 2609 786 3096 
Q 1297 3584 2203 3584 
z
" transform="scale(0.015625)"/>
     <path id="DejaVuSans-Bold-63" d="M 3366 3391 
L 3366 2478 
Q 3138 2634 2908 2709 
Q 2678 2784 2431 2784 
Q 1963 2784 1702 2511 
Q 1441 2238 1441 1747 
Q 1441 1256 1702 982 
Q 1963 709 2431 709 
Q 2694 709 2930 787 
Q 3166 866 3366 1019 
L 3366 103 
Q 3103 6 2833 -42 
Q 2563 -91 2291 -91 
Q 1344 -91 809 395 
Q 275 881 275 1747 
Q 275 2613 809 3098 
Q 1344 3584 2291 3584 
Q 2566 3584 2833 3536 
Q 3100 3488 3366 3391 
z
" transform="scale(0.015625)"/>
     <path id="DejaVuSans-Bold-68" d="M 4056 2131 
L 4056 0 
L 2931 0 
L 2931 347 
L 2931 1625 
Q 2931 2084 2911 2256 
Q 2891 2428 2841 2509 
Q 2775 2619 2662 2680 
Q 2550 2741 2406 2741 
Q 2056 2741 1856 2470 
Q 1656 2200 1656 1722 
L 1656 0 
L 538 0 
L 538 4863 
L 1656 4863 
L 1656 2988 
Q 1909 3294 2193 3439 
Q 2478 3584 2822 3584 
Q 3428 3584 3742 3212 
Q 4056 2841 4056 2131 
z
" transform="scale(0.015625)"/>
    </defs>
    <use xlink:href="#DejaVuSans-Bold-53"/>
    <use xlink:href="#DejaVuSans-Bold-74" transform="translate(72.021484 0)"/>
    <use xlink:href="#DejaVuSans-Bold-6f" transform="translate(119.824219 0)"/>
    <use xlink:href="#DejaVuSans-Bold-63" transform="translate(188.525391 0)"/>
    <use xlink:href="#DejaVuSans-Bold-68" transform="translate(247.802734 0)"/>
    <use xlink:href="#DejaVuSans-Bold-61" transform="translate(318.994141 0)"/>
    <use xlink:href="#DejaVuSans-Bold-73" transform="translate(386.474609 0)"/>
    <use xlink:href="#DejaVuSans-Bold-74" transform="translate(445.996094 0)"/>
    <use xlink:href="#DejaVuSans-Bold-69" transform="translate(493.798828 0)"/>
    <use xlink:href="#DejaVuSans-Bold-63" transform="translate(528.076172 0)"/>
   </g>
  </g>
  <g id="text_20">
   <!-- Monkey E -->
   <g transform="translate(7.2 14.798438) scale(0.1 -0.1)">
    <defs>
     <path id="DejaVuSans-4d" d="M 628 4666 
L 1569 4666 
L 2759 1491 
L 3956 4666 
L 4897 4666 
L 4897 0 
L 4281 0 
L 4281 4097 
L 3078 897 
L 2444 897 
L 1241 4097 
L 1241 0 
L 628 0 
L 628 4666 
z
" transform="scale(0.015625)"/>
     <path id="DejaVuSans-6b" d="M 581 4863 
L 1159 4863 
L 1159 1991 
L 2875 3500 
L 3609 3500 
L 1753 1863 
L 3688 0 
L 2938 0 
L 1159 1709 
L 1159 0 
L 581 0 
L 581 4863 
z
" transform="scale(0.015625)"/>
     <path id="DejaVuSans-79" d="M 2059 -325 
Q 1816 -950 1584 -1140 
Q 1353 -1331 966 -1331 
L 506 -1331 
L 506 -850 
L 844 -850 
Q 1081 -850 1212 -737 
Q 1344 -625 1503 -206 
L 1606 56 
L 191 3500 
L 800 3500 
L 1894 763 
L 2988 3500 
L 3597 3500 
L 2059 -325 
z
" transform="scale(0.015625)"/>
     <path id="DejaVuSans-20" transform="scale(0.015625)"/>
     <path id="DejaVuSans-45" d="M 628 4666 
L 3578 4666 
L 3578 4134 
L 1259 4134 
L 1259 2753 
L 3481 2753 
L 3481 2222 
L 1259 2222 
L 1259 531 
L 3634 531 
L 3634 0 
L 628 0 
L 628 4666 
z
" transform="scale(0.015625)"/>
    </defs>
    <use xlink:href="#DejaVuSans-4d"/>
    <use xlink:href="#DejaVuSans-6f" transform="translate(86.279297 0)"/>
    <use xlink:href="#DejaVuSans-6e" transform="translate(147.460938 0)"/>
    <use xlink:href="#DejaVuSans-6b" transform="translate(210.839844 0)"/>
    <use xlink:href="#DejaVuSans-65" transform="translate(265.125 0)"/>
    <use xlink:href="#DejaVuSans-79" transform="translate(326.648438 0)"/>
    <use xlink:href="#DejaVuSans-20" transform="translate(385.828125 0)"/>
    <use xlink:href="#DejaVuSans-45" transform="translate(417.615234 0)"/>
   </g>
  </g>
 </g>
 <defs>
  <clipPath id="pa866fa8673">
   <rect x="53.1" y="35.318438" width="418.5" height="83.16"/>
  </clipPath>
 </defs>
</svg>
