<?xml version="1.0" encoding="utf-8" standalone="no"?>
<!DOCTYPE svg PUBLIC "-//W3C//DTD SVG 1.1//EN"
  "http://www.w3.org/Graphics/SVG/1.1/DTD/svg11.dtd">
<svg xmlns:xlink="http://www.w3.org/1999/xlink" width="394.679687pt" height="136.34875pt" viewBox="0 0 394.679687 136.34875" xmlns="http://www.w3.org/2000/svg" version="1.1">
 <metadata>
  <rdf:RDF xmlns:dc="http://purl.org/dc/elements/1.1/" xmlns:cc="http://creativecommons.org/ns#" xmlns:rdf="http://www.w3.org/1999/02/22-rdf-syntax-ns#">
   <cc:Work>
    <dc:type rdf:resource="http://purl.org/dc/dcmitype/StillImage"/>
    <dc:date>2026-04-21T18:31:38.812572</dc:date>
    <dc:format>image/svg+xml</dc:format>
    <dc:creator>
     <cc:Agent>
      <dc:title>Matplotlib v3.10.8, https://matplotlib.org/</dc:title>
     </cc:Agent>
    </dc:creator>
   </cc:Work>
  </rdf:RDF>
 </metadata>
 <defs>
  <style type="text/css">*{stroke-linejoin: round; stroke-linecap: butt}</style>
 </defs>
 <g id="figure_1">
  <g id="patch_1">
   <path d="M 0 136.34875 
L 394.679687 136.34875 
L 394.679687 0 
L 0 0 
L 0 136.34875 
z
" style="fill: none"/>
  </g>
  <g id="axes_1">
   <g id="patch_2">
    <path d="M 52.679688 91.139063 
L 387.479688 91.139063 
L 387.479688 7.979063 
L 52.679688 7.979063 
L 52.679688 91.139063 
z
" style="fill: none"/>
   </g>
   <g id="line2d_1">
    <path d="M 67.897869 11.759063 
L 70.972249 23.622907 
L 74.04663 74.867283 
L 77.12101 83.425165 
L 80.19539 84.421067 
L 83.26977 85.263016 
L 86.34415 86.616081 
L 89.41853 87.078577 
L 92.492911 86.763341 
L 95.567291 86.145684 
L 98.641671 86.803148 
L 101.716051 87.226908 
L 104.790431 87.019594 
L 107.864811 85.960276 
L 110.939192 86.564671 
L 114.013572 86.22938 
L 117.087952 85.101663 
L 120.162332 86.039213 
L 123.236712 87.253084 
L 126.311092 87.306742 
L 129.385473 86.834859 
L 132.459853 87.232104 
L 135.534233 87.179173 
L 138.608613 86.73368 
L 141.682993 86.914297 
L 144.757373 85.703258 
L 147.831754 87.286527 
L 150.906134 87.113038 
L 153.980514 87.25437 
L 157.054894 87.311343 
L 160.129274 87.072572 
L 163.203654 87.329592 
L 166.278035 87.195868 
L 169.352415 87.268806 
L 172.426795 87.185465 
L 175.501175 87.292363 
L 178.575555 86.968784 
L 181.649935 87.085903 
L 184.724316 86.476422 
L 187.798696 85.366316 
L 190.873076 85.722565 
L 193.947456 86.301123 
L 197.021836 87.077937 
L 200.096216 87.057423 
L 203.170597 83.628569 
L 206.244977 81.04602 
L 209.319357 79.033322 
L 212.393737 73.578396 
L 215.468117 38.685535 
L 218.542497 17.825758 
L 221.616878 13.08304 
L 224.691258 12.376181 
L 227.765638 12.918405 
L 230.840018 15.242701 
L 233.914398 14.7064 
L 236.988778 13.399251 
L 240.063159 16.475892 
L 243.137539 19.005608 
L 246.211919 18.862057 
L 249.286299 22.305529 
L 252.360679 42.243775 
L 255.435059 78.925728 
L 258.50944 87.214721 
L 261.58382 86.987643 
L 264.6582 86.926903 
L 267.73258 84.923916 
L 270.80696 86.156371 
L 273.88134 86.816735 
L 276.955721 87.07267 
L 280.030101 86.712907 
L 283.104481 86.580337 
L 286.178861 79.136157 
L 289.253241 67.456557 
L 292.327621 74.238392 
L 295.402002 80.696102 
L 298.476382 87.109807 
L 301.550762 86.849601 
L 304.625142 85.154792 
L 307.699522 77.62204 
L 310.773902 72.809054 
L 313.848283 72.958064 
L 316.922663 70.369821 
L 319.997043 69.743019 
L 323.071423 76.823894 
L 326.145803 82.412817 
L 329.220183 81.322243 
L 332.294564 80.251414 
L 335.368944 84.35332 
L 338.443324 87.257953 
L 341.517704 87.059231 
L 344.592084 87.334824 
L 347.666464 87.25703 
L 350.740845 86.942392 
L 353.815225 84.290596 
L 356.889605 81.545261 
L 359.963985 78.117962 
L 363.038365 82.653295 
L 366.112745 85.959717 
L 369.187126 86.762242 
L 372.261506 86.418165 
" clip-path="url(#p3bb75d574f)" style="fill: none; stroke: #000000; stroke-width: 0.5; stroke-linecap: square"/>
   </g>
   <g id="line2d_2">
    <path d="M 67.897869 11.892414 
L 70.972249 13.944027 
L 74.04663 11.933281 
L 77.12101 12.916803 
L 80.19539 12.714002 
L 83.26977 12.10335 
L 86.34415 11.810438 
L 89.41853 13.032633 
L 92.492911 11.869575 
L 95.567291 14.776453 
L 98.641671 27.297232 
L 101.716051 30.906346 
L 104.790431 17.516496 
L 107.864811 12.530898 
L 110.939192 26.506272 
L 114.013572 15.063648 
L 117.087952 13.064519 
L 120.162332 14.457791 
L 123.236712 12.115343 
L 126.311092 12.01418 
L 129.385473 12.044135 
L 132.459853 12.838306 
L 135.534233 16.036351 
L 138.608613 15.793193 
L 141.682993 16.612542 
L 144.757373 15.12686 
L 147.831754 11.80636 
L 150.906134 11.795289 
L 153.980514 11.862533 
L 157.054894 14.692527 
L 160.129274 19.353711 
L 163.203654 12.199519 
L 166.278035 11.864734 
L 169.352415 12.06849 
L 172.426795 11.938001 
L 175.501175 12.648859 
L 178.575555 11.998513 
L 181.649935 12.161594 
L 184.724316 15.516364 
L 187.798696 13.552091 
L 190.873076 13.810776 
L 193.947456 12.659262 
L 197.021836 12.163173 
L 200.096216 12.784906 
L 203.170597 14.701027 
L 206.244977 19.224223 
L 209.319357 14.70311 
L 212.393737 14.525 
L 215.468117 17.285912 
L 218.542497 19.767341 
L 221.616878 17.920629 
L 224.691258 40.019415 
L 227.765638 75.89277 
L 230.840018 85.427823 
L 233.914398 86.462815 
L 236.988778 85.918929 
L 240.063159 83.651168 
L 243.137539 77.023758 
L 246.211919 36.775413 
L 249.286299 12.973812 
L 252.360679 13.120566 
L 255.435059 12.070488 
L 258.50944 12.440129 
L 261.58382 12.501534 
L 264.6582 23.426757 
L 267.73258 19.849454 
L 270.80696 66.311424 
L 273.88134 76.117368 
L 276.955721 83.685591 
L 280.030101 84.440448 
L 283.104481 84.298574 
L 286.178861 81.308242 
L 289.253241 76.315898 
L 292.327621 59.526215 
L 295.402002 17.446032 
L 298.476382 11.79243 
L 301.550762 11.914935 
L 304.625142 12.695285 
L 307.699522 12.71069 
L 310.773902 12.060236 
L 313.848283 11.778882 
L 316.922663 12.181302 
L 319.997043 12.001848 
L 323.071423 11.891749 
L 326.145803 14.961524 
L 329.220183 18.286438 
L 332.294564 12.041982 
L 335.368944 12.696191 
L 338.443324 17.762694 
L 341.517704 17.676571 
L 344.592084 16.214879 
L 347.666464 18.629874 
L 350.740845 15.161017 
L 353.815225 11.853656 
L 356.889605 12.086257 
L 359.963985 25.884752 
L 363.038365 57.995917 
L 366.112745 60.823555 
L 369.187126 49.929963 
L 372.261506 17.817102 
" clip-path="url(#p3bb75d574f)" style="fill: none; stroke: #000000; stroke-opacity: 0.2; stroke-width: 0.5; stroke-linecap: square"/>
   </g>
   <g id="line2d_3">
    <path d="M 67.897869 87.359062 
L 70.972249 84.760378 
L 74.04663 65.468233 
L 77.12101 39.249723 
L 80.19539 29.232641 
L 83.26977 19.188261 
L 86.34415 12.512058 
L 89.41853 13.310013 
L 92.492911 13.603963 
L 95.567291 13.798245 
L 98.641671 21.434472 
L 101.716051 22.979305 
L 104.790431 14.742001 
L 107.864811 12.231076 
L 110.939192 12.224379 
L 114.013572 12.247899 
L 117.087952 15.275078 
L 120.162332 19.09396 
L 123.236712 20.133739 
L 126.311092 29.082331 
L 129.385473 23.954064 
L 132.459853 18.75504 
L 135.534233 12.552717 
L 138.608613 12.940203 
L 141.682993 12.309235 
L 144.757373 12.159585 
L 147.831754 12.01518 
L 150.906134 12.302263 
L 153.980514 12.752358 
L 157.054894 13.397622 
L 160.129274 15.957862 
L 163.203654 16.377581 
L 166.278035 15.567944 
L 169.352415 28.55898 
L 172.426795 26.791881 
L 175.501175 15.213009 
L 178.575555 11.849585 
L 181.649935 12.099346 
L 184.724316 13.113764 
L 187.798696 12.789857 
L 190.873076 12.111044 
L 193.947456 12.33648 
L 197.021836 13.731842 
L 200.096216 15.885074 
L 203.170597 15.118671 
L 206.244977 17.589589 
L 209.319357 34.173947 
L 212.393737 42.429088 
L 215.468117 60.979594 
L 218.542497 73.726234 
L 221.616878 77.624551 
L 224.691258 69.577828 
L 227.765638 50.156726 
L 230.840018 29.681479 
L 233.914398 23.160303 
L 236.988778 14.778152 
L 240.063159 12.987262 
L 243.137539 13.301871 
L 246.211919 13.661648 
L 249.286299 16.481973 
L 252.360679 23.000594 
L 255.435059 22.031113 
L 258.50944 12.242589 
L 261.58382 12.721052 
L 264.6582 12.063533 
L 267.73258 13.227852 
L 270.80696 17.00982 
L 273.88134 21.26511 
L 276.955721 25.117608 
L 280.030101 28.581456 
L 283.104481 22.35566 
L 286.178861 14.631714 
L 289.253241 12.629796 
L 292.327621 12.235796 
L 295.402002 12.104607 
L 298.476382 12.14274 
L 301.550762 12.145383 
L 304.625142 13.327998 
L 307.699522 12.607052 
L 310.773902 15.060981 
L 313.848283 15.148468 
L 316.922663 15.800665 
L 319.997043 20.926669 
L 323.071423 28.251674 
L 326.145803 19.011581 
L 329.220183 12.323611 
L 332.294564 11.934545 
L 335.368944 12.472241 
L 338.443324 13.078261 
L 341.517704 12.340743 
L 344.592084 12.193748 
L 347.666464 12.335776 
L 350.740845 15.167079 
L 353.815225 14.213424 
L 356.889605 15.440005 
L 359.963985 20.520093 
L 363.038365 33.318983 
L 366.112745 39.232239 
L 369.187126 56.097823 
L 372.261506 51.351249 
" clip-path="url(#p3bb75d574f)" style="fill: none; stroke: #000000; stroke-opacity: 0.2; stroke-width: 0.5; stroke-linecap: square"/>
   </g>
   <g id="line2d_4">
    <path d="M 67.897869 11.759063 
L 70.972249 14.357747 
L 74.04663 33.649892 
L 77.12101 59.868402 
L 80.19539 69.885484 
L 83.26977 79.929864 
L 86.34415 86.606067 
L 89.41853 85.808112 
L 92.492911 85.514162 
L 95.567291 85.31988 
L 98.641671 77.683653 
L 101.716051 76.13882 
L 104.790431 84.376124 
L 107.864811 86.887049 
L 110.939192 86.893746 
L 114.013572 86.870226 
L 117.087952 83.843047 
L 120.162332 80.024166 
L 123.236712 78.984386 
L 126.311092 70.035794 
L 129.385473 75.164061 
L 132.459853 80.363085 
L 135.534233 86.565408 
L 138.608613 86.177922 
L 141.682993 86.80889 
L 144.757373 86.95854 
L 147.831754 87.102945 
L 150.906134 86.815862 
L 153.980514 86.365767 
L 157.054894 85.720503 
L 160.129274 83.160263 
L 163.203654 82.740544 
L 166.278035 83.550181 
L 169.352415 70.559145 
L 172.426795 72.326244 
L 175.501175 83.905116 
L 178.575555 87.26854 
L 181.649935 87.018779 
L 184.724316 86.004361 
L 187.798696 86.328268 
L 190.873076 87.007081 
L 193.947456 86.781645 
L 197.021836 85.386283 
L 200.096216 83.233051 
L 203.170597 83.999454 
L 206.244977 81.528536 
L 209.319357 64.944178 
L 212.393737 56.689037 
L 215.468117 38.138531 
L 218.542497 25.391891 
L 221.616878 21.493574 
L 224.691258 29.540297 
L 227.765638 48.961399 
L 230.840018 69.436646 
L 233.914398 75.957822 
L 236.988778 84.339973 
L 240.063159 86.130863 
L 243.137539 85.816255 
L 246.211919 85.456477 
L 249.286299 82.636152 
L 252.360679 76.117531 
L 255.435059 77.087012 
L 258.50944 86.875536 
L 261.58382 86.397073 
L 264.6582 87.054592 
L 267.73258 85.890273 
L 270.80696 82.108305 
L 273.88134 77.853015 
L 276.955721 74.000517 
L 280.030101 70.536669 
L 283.104481 76.762465 
L 286.178861 84.486411 
L 289.253241 86.488329 
L 292.327621 86.882329 
L 295.402002 87.013518 
L 298.476382 86.975385 
L 301.550762 86.972742 
L 304.625142 85.790127 
L 307.699522 86.511073 
L 310.773902 84.057144 
L 313.848283 83.969657 
L 316.922663 83.31746 
L 319.997043 78.191456 
L 323.071423 70.866451 
L 326.145803 80.106544 
L 329.220183 86.794514 
L 332.294564 87.18358 
L 335.368944 86.645884 
L 338.443324 86.039864 
L 341.517704 86.777382 
L 344.592084 86.924377 
L 347.666464 86.782349 
L 350.740845 83.951046 
L 353.815225 84.904701 
L 356.889605 83.67812 
L 359.963985 78.598032 
L 363.038365 65.799142 
L 366.112745 59.885886 
L 369.187126 43.020302 
L 372.261506 47.766876 
" clip-path="url(#p3bb75d574f)" style="fill: none; stroke: #000000; stroke-opacity: 0.2; stroke-width: 0.5; stroke-linecap: square"/>
   </g>
   <g id="line2d_5">
    <path d="M 67.897869 11.759063 
L 70.972249 13.210288 
L 74.04663 23.70666 
L 77.12101 28.974132 
L 80.19539 35.661694 
L 83.26977 46.2915 
L 86.34415 54.605281 
L 89.41853 57.738744 
L 92.492911 64.765881 
L 95.567291 76.063473 
L 98.641671 78.058705 
L 101.716051 83.024739 
L 104.790431 84.346918 
L 107.864811 86.274475 
L 110.939192 86.511534 
L 114.013572 78.103545 
L 117.087952 41.002886 
L 120.162332 15.882106 
L 123.236712 15.735499 
L 126.311092 27.450549 
L 129.385473 62.453307 
L 132.459853 73.04988 
L 135.534233 85.289617 
L 138.608613 85.438146 
L 141.682993 83.343219 
L 144.757373 80.853884 
L 147.831754 84.685815 
L 150.906134 85.157971 
L 153.980514 83.305428 
L 157.054894 78.359937 
L 160.129274 79.71188 
L 163.203654 82.6442 
L 166.278035 82.917679 
L 169.352415 84.699299 
L 172.426795 86.122509 
L 175.501175 86.147862 
L 178.575555 85.280781 
L 181.649935 83.075262 
L 184.724316 73.836023 
L 187.798696 68.924258 
L 190.873076 51.059604 
L 193.947456 25.945845 
L 197.021836 19.746243 
L 200.096216 15.787267 
L 203.170597 13.015628 
L 206.244977 13.184972 
L 209.319357 12.935014 
L 212.393737 13.251591 
L 215.468117 13.748748 
L 218.542497 13.273403 
L 221.616878 15.729033 
L 224.691258 17.929214 
L 227.765638 19.819122 
L 230.840018 23.92889 
L 233.914398 19.610167 
L 236.988778 14.372179 
L 240.063159 13.536425 
L 243.137539 13.294191 
L 246.211919 13.576657 
L 249.286299 14.610208 
L 252.360679 16.527598 
L 255.435059 13.090334 
L 258.50944 12.513233 
L 261.58382 12.068278 
L 264.6582 12.524604 
L 267.73258 14.195586 
L 270.80696 15.631222 
L 273.88134 14.864459 
L 276.955721 13.590687 
L 280.030101 14.082545 
L 283.104481 22.483576 
L 286.178861 24.842604 
L 289.253241 19.120872 
L 292.327621 13.874732 
L 295.402002 12.381899 
L 298.476382 13.71536 
L 301.550762 14.527447 
L 304.625142 13.538205 
L 307.699522 18.655893 
L 310.773902 31.13462 
L 313.848283 48.723037 
L 316.922663 61.586439 
L 319.997043 66.251914 
L 323.071423 76.993633 
L 326.145803 73.067525 
L 329.220183 65.30363 
L 332.294564 55.771287 
L 335.368944 50.947481 
L 338.443324 47.293973 
L 341.517704 39.308393 
L 344.592084 27.783008 
L 347.666464 22.001841 
L 350.740845 19.578261 
L 353.815225 21.035081 
L 356.889605 31.645573 
L 359.963985 35.321751 
L 363.038365 37.290235 
L 366.112745 47.244991 
L 369.187126 63.914143 
L 372.261506 67.513826 
" clip-path="url(#p3bb75d574f)" style="fill: none; stroke: #000000; stroke-opacity: 0.2; stroke-width: 0.5; stroke-linecap: square"/>
   </g>
   <g id="line2d_6">
    <path d="M 67.897869 87.359063 
L 70.972249 86.947666 
L 74.04663 87.103216 
L 77.12101 87.13029 
L 80.19539 87.149817 
L 83.26977 87.255842 
L 86.34415 86.455312 
L 89.41853 85.153056 
L 92.492911 84.316917 
L 95.567291 82.181035 
L 98.641671 81.740004 
L 101.716051 83.23656 
L 104.790431 86.992485 
L 107.864811 86.952922 
L 110.939192 84.497422 
L 114.013572 83.748328 
L 117.087952 75.554854 
L 120.162332 58.896245 
L 123.236712 25.855059 
L 126.311092 13.683618 
L 129.385473 12.446949 
L 132.459853 12.775208 
L 135.534233 12.648752 
L 138.608613 12.273154 
L 141.682993 12.778058 
L 144.757373 12.965033 
L 147.831754 15.24132 
L 150.906134 24.000197 
L 153.980514 35.539282 
L 157.054894 62.934923 
L 160.129274 83.876012 
L 163.203654 82.954066 
L 166.278035 85.481003 
L 169.352415 86.805753 
L 172.426795 83.935964 
L 175.501175 81.674781 
L 178.575555 80.460712 
L 181.649935 80.117653 
L 184.724316 81.268881 
L 187.798696 82.517514 
L 190.873076 83.657064 
L 193.947456 84.591973 
L 197.021836 85.424664 
L 200.096216 85.659176 
L 203.170597 85.608602 
L 206.244977 84.166105 
L 209.319357 82.650039 
L 212.393737 83.875065 
L 215.468117 85.553139 
L 218.542497 87.243924 
L 221.616878 87.20532 
L 224.691258 87.263636 
L 227.765638 86.375099 
L 230.840018 86.18151 
L 233.914398 87.292253 
L 236.988778 87.219657 
L 240.063159 87.14936 
L 243.137539 86.38713 
L 246.211919 86.120624 
L 249.286299 86.271061 
L 252.360679 86.062049 
L 255.435059 86.119796 
L 258.50944 86.3477 
L 261.58382 86.119179 
L 264.6582 85.313064 
L 267.73258 83.711241 
L 270.80696 83.73104 
L 273.88134 84.437727 
L 276.955721 86.563918 
L 280.030101 87.337621 
L 283.104481 87.240846 
L 286.178861 85.426646 
L 289.253241 82.490154 
L 292.327621 68.195222 
L 295.402002 64.892397 
L 298.476382 64.581366 
L 301.550762 64.316766 
L 304.625142 65.297264 
L 307.699522 54.069105 
L 310.773902 48.285694 
L 313.848283 46.037791 
L 316.922663 40.767474 
L 319.997043 38.923122 
L 323.071423 36.855631 
L 326.145803 35.829747 
L 329.220183 35.569001 
L 332.294564 23.308858 
L 335.368944 21.259923 
L 338.443324 19.143547 
L 341.517704 19.863022 
L 344.592084 23.909001 
L 347.666464 27.337814 
L 350.740845 28.029144 
L 353.815225 25.780055 
L 356.889605 23.958715 
L 359.963985 26.80889 
L 363.038365 43.018141 
L 366.112745 60.955802 
L 369.187126 65.767104 
L 372.261506 67.839399 
" clip-path="url(#p3bb75d574f)" style="fill: none; stroke: #000000; stroke-opacity: 0.2; stroke-width: 0.5; stroke-linecap: square"/>
   </g>
   <g id="line2d_7">
    <path d="M 67.897869 11.759063 
L 70.972249 12.170459 
L 74.04663 12.014909 
L 77.12101 11.987835 
L 80.19539 11.968308 
L 83.26977 11.862283 
L 86.34415 12.662813 
L 89.41853 13.965069 
L 92.492911 14.801208 
L 95.567291 16.93709 
L 98.641671 17.378121 
L 101.716051 15.881565 
L 104.790431 12.12564 
L 107.864811 12.165203 
L 110.939192 14.620703 
L 114.013572 15.369797 
L 117.087952 23.563271 
L 120.162332 40.22188 
L 123.236712 73.263066 
L 126.311092 85.434507 
L 129.385473 86.671176 
L 132.459853 86.342917 
L 135.534233 86.469373 
L 138.608613 86.844971 
L 141.682993 86.340067 
L 144.757373 86.153092 
L 147.831754 83.876805 
L 150.906134 75.117928 
L 153.980514 63.578843 
L 157.054894 36.183202 
L 160.129274 15.242113 
L 163.203654 16.164059 
L 166.278035 13.637122 
L 169.352415 12.312372 
L 172.426795 15.182161 
L 175.501175 17.443344 
L 178.575555 18.657413 
L 181.649935 19.000473 
L 184.724316 17.849244 
L 187.798696 16.600611 
L 190.873076 15.461061 
L 193.947456 14.526152 
L 197.021836 13.693461 
L 200.096216 13.458949 
L 203.170597 13.509523 
L 206.244977 14.95202 
L 209.319357 16.468086 
L 212.393737 15.243061 
L 215.468117 13.564986 
L 218.542497 11.874201 
L 221.616878 11.912805 
L 224.691258 11.854489 
L 227.765638 12.743026 
L 230.840018 12.936616 
L 233.914398 11.825872 
L 236.988778 11.898468 
L 240.063159 11.968765 
L 243.137539 12.730995 
L 246.211919 12.997501 
L 249.286299 12.847064 
L 252.360679 13.056076 
L 255.435059 12.998329 
L 258.50944 12.770425 
L 261.58382 12.998946 
L 264.6582 13.805061 
L 267.73258 15.406884 
L 270.80696 15.387085 
L 273.88134 14.680398 
L 276.955721 12.554207 
L 280.030101 11.780504 
L 283.104481 11.877279 
L 286.178861 13.691479 
L 289.253241 16.627971 
L 292.327621 30.922903 
L 295.402002 34.225728 
L 298.476382 34.536759 
L 301.550762 34.801359 
L 304.625142 33.820861 
L 307.699522 45.04902 
L 310.773902 50.832431 
L 313.848283 53.080334 
L 316.922663 58.350651 
L 319.997043 60.195003 
L 323.071423 62.262494 
L 326.145803 63.288378 
L 329.220183 63.549124 
L 332.294564 75.809267 
L 335.368944 77.858202 
L 338.443324 79.974578 
L 341.517704 79.255103 
L 344.592084 75.209124 
L 347.666464 71.780311 
L 350.740845 71.088981 
L 353.815225 73.33807 
L 356.889605 75.15941 
L 359.963985 72.309235 
L 363.038365 56.099984 
L 366.112745 38.162323 
L 369.187126 33.351021 
L 372.261506 31.278726 
" clip-path="url(#p3bb75d574f)" style="fill: none; stroke: #000000; stroke-opacity: 0.2; stroke-width: 0.5; stroke-linecap: square"/>
   </g>
   <g id="line2d_8">
    <path d="M 67.897869 83.390847 
L 70.972249 80.794057 
L 74.04663 83.394676 
L 77.12101 85.963005 
L 80.19539 83.620976 
L 83.26977 84.100884 
L 86.34415 84.472071 
L 89.41853 81.202916 
L 92.492911 68.989573 
L 95.567291 71.068682 
L 98.641671 70.959431 
L 101.716051 42.284599 
L 104.790431 29.146238 
L 107.864811 12.820503 
L 110.939192 13.504497 
L 114.013572 35.188607 
L 117.087952 35.625712 
L 120.162332 30.801607 
L 123.236712 29.848534 
L 126.311092 26.539139 
L 129.385473 12.51288 
L 132.459853 11.865038 
L 135.534233 23.673449 
L 138.608613 28.627962 
L 141.682993 37.808759 
L 144.757373 47.182893 
L 147.831754 58.941356 
L 150.906134 81.222662 
L 153.980514 86.217649 
L 157.054894 86.264139 
L 160.129274 84.818534 
L 163.203654 77.923294 
L 166.278035 58.740386 
L 169.352415 15.832739 
L 172.426795 21.718337 
L 175.501175 19.596787 
L 178.575555 14.892605 
L 181.649935 14.854649 
L 184.724316 14.585013 
L 187.798696 31.253548 
L 190.873076 37.56207 
L 193.947456 46.778312 
L 197.021836 35.354387 
L 200.096216 12.013313 
L 203.170597 11.929483 
L 206.244977 14.696973 
L 209.319357 28.104501 
L 212.393737 26.526998 
L 215.468117 17.187238 
L 218.542497 45.198702 
L 221.616878 74.806725 
L 224.691258 76.527545 
L 227.765638 68.864131 
L 230.840018 63.457125 
L 233.914398 59.691065 
L 236.988778 64.110587 
L 240.063159 81.198135 
L 243.137539 83.466557 
L 246.211919 84.315403 
L 249.286299 81.016694 
L 252.360679 76.42445 
L 255.435059 68.17278 
L 258.50944 38.071386 
L 261.58382 12.557442 
L 264.6582 20.352936 
L 267.73258 30.026658 
L 270.80696 55.199668 
L 273.88134 55.160642 
L 276.955721 50.409901 
L 280.030101 36.95095 
L 283.104481 51.144347 
L 286.178861 79.745473 
L 289.253241 83.262191 
L 292.327621 82.761189 
L 295.402002 77.093278 
L 298.476382 81.61507 
L 301.550762 84.118793 
L 304.625142 84.779969 
L 307.699522 85.987906 
L 310.773902 86.095942 
L 313.848283 85.185385 
L 316.922663 84.101533 
L 319.997043 74.540156 
L 323.071423 52.836344 
L 326.145803 26.64163 
L 329.220183 12.432093 
L 332.294564 14.174426 
L 335.368944 15.972661 
L 338.443324 12.424836 
L 341.517704 12.5053 
L 344.592084 17.796773 
L 347.666464 18.278629 
L 350.740845 26.159674 
L 353.815225 30.49248 
L 356.889605 48.716966 
L 359.963985 62.249701 
L 363.038365 71.765252 
L 366.112745 77.188441 
L 369.187126 81.661453 
L 372.261506 77.975998 
" clip-path="url(#p3bb75d574f)" style="fill: none; stroke: #000000; stroke-opacity: 0.2; stroke-width: 0.5; stroke-linecap: square"/>
   </g>
   <g id="line2d_9">
    <path d="M 67.897869 87.359062 
L 70.972249 87.140398 
L 74.04663 86.370772 
L 77.12101 84.615993 
L 80.19539 86.434974 
L 83.26977 87.26801 
L 86.34415 86.598133 
L 89.41853 77.888909 
L 92.492911 44.387016 
L 95.567291 13.49449 
L 98.641671 11.784152 
L 101.716051 11.832412 
L 104.790431 12.837899 
L 107.864811 21.238402 
L 110.939192 37.606498 
L 114.013572 37.670971 
L 117.087952 13.508724 
L 120.162332 70.045254 
L 123.236712 80.077534 
L 126.311092 74.714283 
L 129.385473 81.570964 
L 132.459853 83.026509 
L 135.534233 81.157321 
L 138.608613 75.137951 
L 141.682993 65.700835 
L 144.757373 82.59814 
L 147.831754 87.100684 
L 150.906134 86.975117 
L 153.980514 86.797389 
L 157.054894 86.487761 
L 160.129274 85.377577 
L 163.203654 80.675876 
L 166.278035 75.337155 
L 169.352415 56.055326 
L 172.426795 25.015415 
L 175.501175 11.784014 
L 178.575555 11.765356 
L 181.649935 11.784604 
L 184.724316 12.164756 
L 187.798696 12.126802 
L 190.873076 13.319881 
L 193.947456 12.062041 
L 197.021836 12.031374 
L 200.096216 12.197783 
L 203.170597 11.947566 
L 206.244977 11.932091 
L 209.319357 11.98651 
L 212.393737 11.845066 
L 215.468117 11.767909 
L 218.542497 11.767659 
L 221.616878 11.851232 
L 224.691258 12.22243 
L 227.765638 12.902457 
L 230.840018 13.123453 
L 233.914398 26.207008 
L 236.988778 29.51681 
L 240.063159 66.758749 
L 243.137539 80.914653 
L 246.211919 75.478835 
L 249.286299 58.657608 
L 252.360679 29.254192 
L 255.435059 13.917909 
L 258.50944 11.864162 
L 261.58382 11.782817 
L 264.6582 11.844245 
L 267.73258 12.082387 
L 270.80696 12.527942 
L 273.88134 39.070177 
L 276.955721 70.009072 
L 280.030101 85.280623 
L 283.104481 87.140801 
L 286.178861 86.309678 
L 289.253241 86.449343 
L 292.327621 86.799253 
L 295.402002 87.244398 
L 298.476382 87.267534 
L 301.550762 87.244699 
L 304.625142 87.243215 
L 307.699522 87.243026 
L 310.773902 87.24156 
L 313.848283 87.218721 
L 316.922663 86.985489 
L 319.997043 86.996803 
L 323.071423 87.024347 
L 326.145803 86.538285 
L 329.220183 82.667836 
L 332.294564 71.281367 
L 335.368944 36.565156 
L 338.443324 12.735249 
L 341.517704 13.817929 
L 344.592084 13.078202 
L 347.666464 11.926939 
L 350.740845 13.939536 
L 353.815225 13.147382 
L 356.889605 16.011578 
L 359.963985 27.861474 
L 363.038365 26.101588 
L 366.112745 12.718197 
L 369.187126 11.86489 
L 372.261506 18.762983 
" clip-path="url(#p3bb75d574f)" style="fill: none; stroke: #000000; stroke-opacity: 0.2; stroke-width: 0.5; stroke-linecap: square"/>
   </g>
   <g id="line2d_10">
    <path d="M 67.897869 87.359062 
L 70.972249 75.495218 
L 74.04663 24.250842 
L 77.12101 15.69296 
L 80.19539 14.697058 
L 83.26977 13.855109 
L 86.34415 12.502044 
L 89.41853 12.039548 
L 92.492911 12.354784 
L 95.567291 12.972441 
L 98.641671 12.314977 
L 101.716051 11.891217 
L 104.790431 12.098531 
L 107.864811 13.157849 
L 110.939192 12.553454 
L 114.013572 12.888745 
L 117.087952 14.016462 
L 120.162332 13.078912 
L 123.236712 11.865041 
L 126.311092 11.811383 
L 129.385473 12.283266 
L 132.459853 11.886021 
L 135.534233 11.938952 
L 138.608613 12.384445 
L 141.682993 12.203828 
L 144.757373 13.414867 
L 147.831754 11.831598 
L 150.906134 12.005087 
L 153.980514 11.863755 
L 157.054894 11.806782 
L 160.129274 12.045553 
L 163.203654 11.788533 
L 166.278035 11.922257 
L 169.352415 11.849319 
L 172.426795 11.93266 
L 175.501175 11.825762 
L 178.575555 12.149341 
L 181.649935 12.032222 
L 184.724316 12.641703 
L 187.798696 13.751809 
L 190.873076 13.39556 
L 193.947456 12.817002 
L 197.021836 12.040188 
L 200.096216 12.060702 
L 203.170597 15.489556 
L 206.244977 18.072105 
L 209.319357 20.084803 
L 212.393737 25.539729 
L 215.468117 60.432591 
L 218.542497 81.292367 
L 221.616878 86.035085 
L 224.691258 86.741944 
L 227.765638 86.19972 
L 230.840018 83.875424 
L 233.914398 84.411725 
L 236.988778 85.718874 
L 240.063159 82.642233 
L 243.137539 80.112517 
L 246.211919 80.256068 
L 249.286299 76.812597 
L 252.360679 56.87435 
L 255.435059 20.192397 
L 258.50944 11.903404 
L 261.58382 12.130482 
L 264.6582 12.191222 
L 267.73258 14.194209 
L 270.80696 12.961754 
L 273.88134 12.30139 
L 276.955721 12.045455 
L 280.030101 12.405218 
L 283.104481 12.537788 
L 286.178861 19.981968 
L 289.253241 31.661568 
L 292.327621 24.879733 
L 295.402002 18.422023 
L 298.476382 12.008318 
L 301.550762 12.268524 
L 304.625142 13.963333 
L 307.699522 21.496085 
L 310.773902 26.309071 
L 313.848283 26.160061 
L 316.922663 28.748304 
L 319.997043 29.375106 
L 323.071423 22.294231 
L 326.145803 16.705308 
L 329.220183 17.795882 
L 332.294564 18.866711 
L 335.368944 14.764805 
L 338.443324 11.860173 
L 341.517704 12.058895 
L 344.592084 11.783301 
L 347.666464 11.861095 
L 350.740845 12.175733 
L 353.815225 14.827529 
L 356.889605 17.572864 
L 359.963985 21.000163 
L 363.038365 16.46483 
L 366.112745 13.158408 
L 369.187126 12.355883 
L 372.261506 12.69996 
" clip-path="url(#p3bb75d574f)" style="fill: none; stroke: #000000; stroke-opacity: 0.2; stroke-width: 0.5; stroke-linecap: square"/>
   </g>
   <g id="line2d_11">
    <path d="M 67.897869 11.759063 
L 70.972249 23.622907 
L 74.04663 74.867283 
L 77.12101 83.425165 
L 80.19539 84.421067 
L 83.26977 85.263016 
L 86.34415 86.616081 
L 89.41853 87.078577 
L 92.492911 86.763341 
L 95.567291 86.145684 
L 98.641671 86.803148 
L 101.716051 87.226908 
L 104.790431 87.019594 
L 107.864811 85.960276 
L 110.939192 86.564671 
L 114.013572 86.22938 
L 117.087952 85.101663 
L 120.162332 86.039213 
L 123.236712 87.253084 
L 126.311092 87.306742 
L 129.385473 86.834859 
L 132.459853 87.232104 
L 135.534233 87.179173 
L 138.608613 86.73368 
L 141.682993 86.914297 
L 144.757373 85.703258 
L 147.831754 87.286527 
L 150.906134 87.113038 
L 153.980514 87.25437 
L 157.054894 87.311343 
L 160.129274 87.072572 
L 163.203654 87.329592 
L 166.278035 87.195868 
L 169.352415 87.268806 
L 172.426795 87.185465 
L 175.501175 87.292363 
L 178.575555 86.968784 
L 181.649935 87.085903 
L 184.724316 86.476422 
L 187.798696 85.366316 
L 190.873076 85.722565 
L 193.947456 86.301123 
L 197.021836 87.077937 
L 200.096216 87.057423 
L 203.170597 83.628569 
L 206.244977 81.04602 
L 209.319357 79.033322 
L 212.393737 73.578396 
L 215.468117 38.685535 
L 218.542497 17.825758 
L 221.616878 13.08304 
L 224.691258 12.376181 
L 227.765638 12.918405 
L 230.840018 15.242701 
L 233.914398 14.7064 
L 236.988778 13.399251 
L 240.063159 16.475892 
L 243.137539 19.005608 
L 246.211919 18.862057 
L 249.286299 22.305529 
L 252.360679 42.243775 
L 255.435059 78.925728 
L 258.50944 87.214721 
L 261.58382 86.987643 
L 264.6582 86.926903 
L 267.73258 84.923916 
L 270.80696 86.156371 
L 273.88134 86.816735 
L 276.955721 87.07267 
L 280.030101 86.712907 
L 283.104481 86.580337 
L 286.178861 79.136157 
L 289.253241 67.456557 
L 292.327621 74.238392 
L 295.402002 80.696102 
L 298.476382 87.109807 
L 301.550762 86.849601 
L 304.625142 85.154792 
L 307.699522 77.62204 
L 310.773902 72.809054 
L 313.848283 72.958064 
L 316.922663 70.369821 
L 319.997043 69.743019 
L 323.071423 76.823894 
L 326.145803 82.412817 
L 329.220183 81.322243 
L 332.294564 80.251414 
L 335.368944 84.35332 
L 338.443324 87.257953 
L 341.517704 87.059231 
L 344.592084 87.334824 
L 347.666464 87.25703 
L 350.740845 86.942392 
L 353.815225 84.290596 
L 356.889605 81.545261 
L 359.963985 78.117962 
L 363.038365 82.653295 
L 366.112745 85.959717 
L 369.187126 86.762242 
L 372.261506 86.418165 
" clip-path="url(#p3bb75d574f)" style="fill: none; stroke: #000000; stroke-opacity: 0.2; stroke-width: 0.5; stroke-linecap: square"/>
   </g>
   <g id="line2d_12">
    <path d="M 67.897869 87.357303 
L 70.972249 85.156775 
L 74.04663 84.244519 
L 77.12101 87.035937 
L 80.19539 87.046817 
L 83.26977 80.587466 
L 86.34415 72.174824 
L 89.41853 66.772804 
L 92.492911 51.327826 
L 95.567291 36.468596 
L 98.641671 34.133951 
L 101.716051 37.803842 
L 104.790431 36.68064 
L 107.864811 35.101792 
L 110.939192 34.138297 
L 114.013572 26.670626 
L 117.087952 15.783842 
L 120.162332 15.62316 
L 123.236712 27.290057 
L 126.311092 42.314453 
L 129.385473 52.355449 
L 132.459853 31.360509 
L 135.534233 19.29686 
L 138.608613 16.294076 
L 141.682993 18.770845 
L 144.757373 23.267111 
L 147.831754 24.887923 
L 150.906134 17.077305 
L 153.980514 17.250064 
L 157.054894 15.617676 
L 160.129274 13.521072 
L 163.203654 11.949687 
L 166.278035 12.082547 
L 169.352415 14.116231 
L 172.426795 15.055305 
L 175.501175 14.147396 
L 178.575555 13.514168 
L 181.649935 12.760296 
L 184.724316 12.886797 
L 187.798696 16.05694 
L 190.873076 30.919654 
L 193.947456 50.790821 
L 197.021836 71.759432 
L 200.096216 80.877315 
L 203.170597 86.18513 
L 206.244977 85.219626 
L 209.319357 86.468918 
L 212.393737 84.270208 
L 215.468117 82.614586 
L 218.542497 82.699654 
L 221.616878 77.756801 
L 224.691258 56.733568 
L 227.765638 24.768507 
L 230.840018 20.035417 
L 233.914398 15.081597 
L 236.988778 14.443242 
L 240.063159 18.912294 
L 243.137539 43.867293 
L 246.211919 70.724008 
L 249.286299 80.682087 
L 252.360679 79.506747 
L 255.435059 72.676903 
L 258.50944 48.106411 
L 261.58382 33.805448 
L 264.6582 41.963091 
L 267.73258 62.479162 
L 270.80696 73.143169 
L 273.88134 78.387271 
L 276.955721 86.070149 
L 280.030101 80.031879 
L 283.104481 72.929734 
L 286.178861 66.434804 
L 289.253241 59.942803 
L 292.327621 53.769804 
L 295.402002 48.553177 
L 298.476382 41.851145 
L 301.550762 36.072159 
L 304.625142 24.530403 
L 307.699522 17.783811 
L 310.773902 16.582324 
L 313.848283 16.889628 
L 316.922663 16.992206 
L 319.997043 17.663104 
L 323.071423 16.9865 
L 326.145803 29.568594 
L 329.220183 55.113831 
L 332.294564 82.418513 
L 335.368944 83.829221 
L 338.443324 86.875775 
L 341.517704 87.133108 
L 344.592084 82.503642 
L 347.666464 83.57615 
L 350.740845 86.998456 
L 353.815225 84.927791 
L 356.889605 81.535133 
L 359.963985 82.801925 
L 363.038365 85.910692 
L 366.112745 79.159459 
L 369.187126 74.570009 
L 372.261506 69.152382 
" clip-path="url(#p3bb75d574f)" style="fill: none; stroke: #000000; stroke-opacity: 0.2; stroke-width: 0.5; stroke-linecap: square"/>
   </g>
   <g id="line2d_13">
    <path d="M 67.897869 87.359062 
L 70.972249 86.734626 
L 74.04663 83.089037 
L 77.12101 74.438215 
L 80.19539 26.253322 
L 83.26977 11.827099 
L 86.34415 11.824438 
L 89.41853 11.833048 
L 92.492911 15.004852 
L 95.567291 25.811155 
L 98.641671 48.971002 
L 101.716051 43.536139 
L 104.790431 60.860063 
L 107.864811 55.596682 
L 110.939192 34.518134 
L 114.013572 67.618436 
L 117.087952 79.715957 
L 120.162332 61.815151 
L 123.236712 16.247358 
L 126.311092 12.639409 
L 129.385473 38.286023 
L 132.459853 81.390889 
L 135.534233 85.054744 
L 138.608613 72.812508 
L 141.682993 54.009689 
L 144.757373 15.664451 
L 147.831754 19.198199 
L 150.906134 12.258558 
L 153.980514 14.063021 
L 157.054894 12.665942 
L 160.129274 20.819143 
L 163.203654 30.892852 
L 166.278035 14.035076 
L 169.352415 13.822336 
L 172.426795 24.99889 
L 175.501175 15.099462 
L 178.575555 18.667215 
L 181.649935 49.553176 
L 184.724316 47.094452 
L 187.798696 19.921378 
L 190.873076 36.816763 
L 193.947456 65.095728 
L 197.021836 52.295442 
L 200.096216 25.684992 
L 203.170597 13.314492 
L 206.244977 48.260303 
L 209.319357 62.367468 
L 212.393737 62.723866 
L 215.468117 58.917844 
L 218.542497 33.465327 
L 221.616878 13.618589 
L 224.691258 12.809239 
L 227.765638 12.941163 
L 230.840018 14.699406 
L 233.914398 13.160036 
L 236.988778 15.7613 
L 240.063159 19.210924 
L 243.137539 18.869973 
L 246.211919 28.870697 
L 249.286299 25.555809 
L 252.360679 15.85603 
L 255.435059 14.019809 
L 258.50944 17.655217 
L 261.58382 21.016553 
L 264.6582 13.145135 
L 267.73258 11.864489 
L 270.80696 13.749233 
L 273.88134 11.908829 
L 276.955721 11.859581 
L 280.030101 12.122079 
L 283.104481 14.027742 
L 286.178861 15.086718 
L 289.253241 14.295022 
L 292.327621 28.652118 
L 295.402002 21.345807 
L 298.476382 23.48254 
L 301.550762 23.653337 
L 304.625142 19.148222 
L 307.699522 14.781572 
L 310.773902 14.348471 
L 313.848283 28.639886 
L 316.922663 29.594702 
L 319.997043 21.067517 
L 323.071423 14.123433 
L 326.145803 19.742202 
L 329.220183 34.377748 
L 332.294564 12.484275 
L 335.368944 12.488232 
L 338.443324 14.709528 
L 341.517704 24.697282 
L 344.592084 14.414879 
L 347.666464 18.424065 
L 350.740845 13.711518 
L 353.815225 20.076632 
L 356.889605 26.662191 
L 359.963985 29.268928 
L 363.038365 15.712733 
L 366.112745 12.829341 
L 369.187126 15.992527 
L 372.261506 18.934228 
" clip-path="url(#p3bb75d574f)" style="fill: none; stroke: #000000; stroke-opacity: 0.2; stroke-width: 0.5; stroke-linecap: square"/>
   </g>
   <g id="line2d_14">
    <path d="M 67.897869 55.539344 
L 70.972249 55.361212 
L 74.04663 55.84111 
L 77.12101 55.941538 
L 80.19539 52.423847 
L 83.26977 51.627724 
L 86.34415 51.569963 
L 89.41853 50.485286 
L 92.492911 46.141592 
L 95.567291 44.586435 
L 98.641671 47.379904 
L 101.716051 45.561871 
L 104.790431 44.895219 
L 107.864811 43.409761 
L 110.939192 44.178301 
L 114.013572 46.472517 
L 117.087952 41.338001 
L 120.162332 42.164954 
L 123.236712 39.889058 
L 126.311092 41.085532 
L 129.385473 46.381428 
L 132.459853 49.240459 
L 135.534233 50.655226 
L 138.608613 49.288184 
L 141.682993 47.800022 
L 144.757373 46.837309 
L 147.831754 48.664559 
L 150.906134 49.320106 
L 153.980514 49.737538 
L 157.054894 49.286863 
L 160.129274 50.079691 
L 163.203654 49.469984 
L 166.278035 46.027663 
L 169.352415 41.1624 
L 172.426795 40.183569 
L 175.501175 38.064896 
L 178.575555 37.789418 
L 181.649935 40.128663 
L 184.724316 39.453148 
L 187.798696 38.265783 
L 190.873076 40.07026 
L 193.947456 42.557199 
L 197.021836 41.725369 
L 200.096216 38.058329 
L 203.170597 37.370642 
L 206.244977 40.822714 
L 209.319357 42.826658 
L 212.393737 42.541425 
L 215.468117 41.573051 
L 218.542497 41.960538 
L 221.616878 42.419782 
L 224.691258 42.799649 
L 227.765638 42.711877 
L 230.840018 43.168874 
L 233.914398 43.130589 
L 236.988778 43.456452 
L 240.063159 48.385172 
L 243.137539 51.232567 
L 246.211919 50.591282 
L 249.286299 47.570883 
L 252.360679 44.003663 
L 255.435059 40.941883 
L 258.50944 36.50041 
L 261.58382 33.423871 
L 264.6582 35.050929 
L 267.73258 37.321009 
L 270.80696 44.493086 
L 273.88134 47.738593 
L 276.955721 51.081613 
L 280.030101 50.855242 
L 283.104481 52.448263 
L 286.178861 54.256825 
L 289.253241 53.061709 
L 292.327621 51.894807 
L 295.402002 46.784914 
L 298.476382 46.423204 
L 301.550762 46.240479 
L 304.625142 44.940806 
L 307.699522 44.543106 
L 310.773902 45.401461 
L 313.848283 47.982493 
L 316.922663 49.066337 
L 319.997043 47.989643 
L 323.071423 46.434198 
L 326.145803 45.656178 
L 329.220183 47.127996 
L 332.294564 45.460519 
L 335.368944 42.487776 
L 338.443324 40.763036 
L 341.517704 41.04108 
L 344.592084 39.09548 
L 347.666464 39.182656 
L 350.740845 39.40857 
L 353.815225 39.907283 
L 356.889605 42.834339 
L 359.963985 46.728576 
L 363.038365 49.344233 
L 366.112745 48.943197 
L 369.187126 49.60728 
L 372.261506 47.292574 
" clip-path="url(#p3bb75d574f)" style="fill: none; stroke: #000000; stroke-width: 2; stroke-linecap: square"/>
   </g>
   <g id="FillBetweenPolyCollection_1">
    <defs>
     <path id="md109d373d0" d="M 67.897869 -91.488588 
L 67.897869 -70.130225 
L 70.972249 -71.183083 
L 74.04663 -71.75006 
L 77.12101 -71.593999 
L 80.19539 -74.794702 
L 83.26977 -75.002691 
L 86.34415 -74.86872 
L 89.41853 -76.401717 
L 92.492911 -81.513657 
L 95.567291 -82.834576 
L 98.641671 -80.71864 
L 101.716051 -82.687723 
L 104.790431 -82.298934 
L 107.864811 -83.475594 
L 110.939192 -83.263416 
L 114.013572 -81.176081 
L 117.087952 -86.525919 
L 120.162332 -86.511806 
L 123.236712 -88.106983 
L 126.311092 -86.981081 
L 129.385473 -81.295302 
L 132.459853 -77.524316 
L 135.534233 -75.650383 
L 138.608613 -77.416735 
L 141.682993 -79.485803 
L 144.757373 -79.972821 
L 147.831754 -77.930763 
L 150.906134 -77.01307 
L 153.980514 -76.91503 
L 157.054894 -77.526869 
L 160.129274 -76.445217 
L 163.203654 -77.264091 
L 166.278035 -80.630068 
L 169.352415 -86.054601 
L 172.426795 -87.385325 
L 175.501175 -88.727151 
L 178.575555 -88.890863 
L 181.649935 -86.743942 
L 184.724316 -87.809403 
L 187.798696 -89.21711 
L 190.873076 -87.981738 
L 193.947456 -85.086054 
L 197.021836 -85.641728 
L 200.096216 -88.807765 
L 203.170597 -89.279009 
L 206.244977 -86.529836 
L 209.319357 -85.267617 
L 212.393737 -85.947284 
L 215.468117 -87.182093 
L 218.542497 -85.915108 
L 221.616878 -84.519011 
L 224.691258 -85.019566 
L 227.765638 -85.268701 
L 230.840018 -84.48406 
L 233.914398 -84.244716 
L 236.988778 -83.400624 
L 240.063159 -78.356539 
L 243.137539 -75.854644 
L 246.211919 -76.884707 
L 249.286299 -79.841801 
L 252.360679 -84.266499 
L 255.435059 -86.598616 
L 258.50944 -90.871345 
L 261.58382 -93.909899 
L 264.6582 -92.420207 
L 267.73258 -90.21494 
L 270.80696 -82.919733 
L 273.88134 -79.842438 
L 276.955721 -76.005585 
L 280.030101 -76.096544 
L 283.104481 -74.724605 
L 286.178861 -73.019891 
L 289.253241 -74.59459 
L 292.327621 -76.570198 
L 295.402002 -81.020125 
L 298.476382 -80.852762 
L 301.550762 -80.981069 
L 304.625142 -82.178148 
L 307.699522 -82.937858 
L 310.773902 -82.57863 
L 313.848283 -80.426114 
L 316.922663 -79.424316 
L 319.997043 -80.815227 
L 323.071423 -82.230308 
L 326.145803 -82.721179 
L 329.220183 -81.283028 
L 332.294564 -81.945452 
L 335.368944 -84.971151 
L 338.443324 -86.163523 
L 341.517704 -86.073876 
L 344.592084 -88.164759 
L 347.666464 -88.211673 
L 350.740845 -88.028406 
L 353.815225 -87.713714 
L 356.889605 -85.374774 
L 359.963985 -82.564574 
L 363.038365 -80.267886 
L 366.112745 -80.142322 
L 369.187126 -79.3869 
L 372.261506 -81.725715 
L 372.261506 -96.386636 
L 372.261506 -96.386636 
L 369.187126 -94.09604 
L 366.112745 -94.668785 
L 363.038365 -93.741149 
L 359.963985 -96.675775 
L 356.889605 -101.654047 
L 353.815225 -105.16922 
L 350.740845 -105.851954 
L 347.666464 -106.120515 
L 344.592084 -106.341781 
L 341.517704 -104.541464 
L 338.443324 -105.007905 
L 335.368944 -102.750796 
L 332.294564 -99.831011 
L 329.220183 -97.15848 
L 326.145803 -98.663965 
L 323.071423 -97.598795 
L 319.997043 -95.902986 
L 316.922663 -95.14051 
L 313.848283 -96.3064 
L 310.773902 -99.315949 
L 307.699522 -100.673429 
L 304.625142 -100.63774 
L 301.550762 -99.235474 
L 298.476382 -98.998329 
L 295.402002 -98.107547 
L 292.327621 -92.337688 
L 289.253241 -91.979492 
L 286.178861 -91.16396 
L 283.104481 -93.07637 
L 280.030101 -94.890473 
L 276.955721 -94.528689 
L 273.88134 -97.377875 
L 270.80696 -100.791595 
L 267.73258 -107.840541 
L 264.6582 -110.175436 
L 261.58382 -111.93986 
L 258.50944 -108.825336 
L 255.435059 -104.215117 
L 252.360679 -100.423674 
L 249.286299 -97.713934 
L 246.211919 -94.630229 
L 243.137539 -94.377722 
L 240.063159 -97.570616 
L 236.988778 -102.383972 
L 233.914398 -102.191607 
L 230.840018 -101.875692 
L 227.765638 -102.005044 
L 224.691258 -102.078636 
L 221.616878 -103.338925 
L 218.542497 -102.861315 
L 215.468117 -102.369305 
L 212.393737 -101.667365 
L 209.319357 -101.776567 
L 206.244977 -104.522237 
L 203.170597 -108.677208 
L 200.096216 -107.773076 
L 197.021836 -103.605035 
L 193.947456 -102.497049 
L 190.873076 -104.575241 
L 187.798696 -106.948824 
L 184.724316 -105.981801 
L 181.649935 -105.696232 
L 178.575555 -108.227801 
L 175.501175 -107.840556 
L 172.426795 -104.945036 
L 169.352415 -104.3181 
L 166.278035 -100.012106 
L 163.203654 -96.493441 
L 160.129274 -96.092901 
L 157.054894 -96.596904 
L 153.980514 -96.307394 
L 150.906134 -97.044218 
L 147.831754 -97.437618 
L 144.757373 -99.050061 
L 141.682993 -97.611653 
L 138.608613 -96.704396 
L 135.534233 -95.736664 
L 132.459853 -96.692267 
L 129.385473 -98.639342 
L 126.311092 -103.545355 
L 123.236712 -104.812401 
L 120.162332 -101.855787 
L 117.087952 -103.495579 
L 114.013572 -98.576384 
L 110.939192 -101.077483 
L 107.864811 -102.402384 
L 104.790431 -100.608128 
L 101.716051 -98.886035 
L 98.641671 -97.219052 
L 95.567291 -100.690053 
L 92.492911 -98.90066 
L 89.41853 -95.325211 
L 86.34415 -94.688853 
L 83.26977 -94.439362 
L 80.19539 -93.055105 
L 77.12101 -89.220424 
L 74.04663 -89.26522 
L 70.972249 -90.791992 
L 67.897869 -91.488588 
z
"/>
    </defs>
    <g clip-path="url(#p3bb75d574f)">
     <use xlink:href="#md109d373d0" x="0" y="136.34875" style="fill-opacity: 0.3"/>
    </g>
   </g>
   <g id="matplotlib.axis_1">
    <g id="xtick_1">
     <g id="line2d_15">
      <defs>
       <path id="m94644b2c19" d="M 0 0 
L 0 8.25 
" style="stroke: #000000; stroke-width: 1.4"/>
      </defs>
      <g>
       <use xlink:href="#m94644b2c19" x="67.897869" y="91.139063" style="stroke: #000000; stroke-width: 1.4"/>
      </g>
     </g>
     <g id="text_1">
      <!-- 0 -->
      <g transform="translate(64.080369 112.007188) scale(0.12 -0.12)">
       <defs>
        <path id="DejaVuSans-30" d="M 2034 4250 
Q 1547 4250 1301 3770 
Q 1056 3291 1056 2328 
Q 1056 1369 1301 889 
Q 1547 409 2034 409 
Q 2525 409 2770 889 
Q 3016 1369 3016 2328 
Q 3016 3291 2770 3770 
Q 2525 4250 2034 4250 
z
M 2034 4750 
Q 2819 4750 3233 4129 
Q 3647 3509 3647 2328 
Q 3647 1150 3233 529 
Q 2819 -91 2034 -91 
Q 1250 -91 836 529 
Q 422 1150 422 2328 
Q 422 3509 836 4129 
Q 1250 4750 2034 4750 
z
" transform="scale(0.015625)"/>
       </defs>
       <use xlink:href="#DejaVuSans-30"/>
      </g>
     </g>
    </g>
    <g id="xtick_2">
     <g id="line2d_16">
      <g>
       <use xlink:href="#m94644b2c19" x="221.616878" y="91.139063" style="stroke: #000000; stroke-width: 1.4"/>
      </g>
     </g>
     <g id="text_2">
      <!-- 50 -->
      <g transform="translate(213.981878 112.007188) scale(0.12 -0.12)">
       <defs>
        <path id="DejaVuSans-35" d="M 691 4666 
L 3169 4666 
L 3169 4134 
L 1269 4134 
L 1269 2991 
Q 1406 3038 1543 3061 
Q 1681 3084 1819 3084 
Q 2600 3084 3056 2656 
Q 3513 2228 3513 1497 
Q 3513 744 3044 326 
Q 2575 -91 1722 -91 
Q 1428 -91 1123 -41 
Q 819 9 494 109 
L 494 744 
Q 775 591 1075 516 
Q 1375 441 1709 441 
Q 2250 441 2565 725 
Q 2881 1009 2881 1497 
Q 2881 1984 2565 2268 
Q 2250 2553 1709 2553 
Q 1456 2553 1204 2497 
Q 953 2441 691 2322 
L 691 4666 
z
" transform="scale(0.015625)"/>
       </defs>
       <use xlink:href="#DejaVuSans-35"/>
       <use xlink:href="#DejaVuSans-30" transform="translate(63.623047 0)"/>
      </g>
     </g>
    </g>
    <g id="xtick_3">
     <g id="line2d_17">
      <g>
       <use xlink:href="#m94644b2c19" x="375.335886" y="91.139063" style="stroke: #000000; stroke-width: 1.4"/>
      </g>
     </g>
     <g id="text_3">
      <!-- 100 -->
      <g transform="translate(363.883386 112.007188) scale(0.12 -0.12)">
       <defs>
        <path id="DejaVuSans-31" d="M 794 531 
L 1825 531 
L 1825 4091 
L 703 3866 
L 703 4441 
L 1819 4666 
L 2450 4666 
L 2450 531 
L 3481 531 
L 3481 0 
L 794 0 
L 794 531 
z
" transform="scale(0.015625)"/>
       </defs>
       <use xlink:href="#DejaVuSans-31"/>
       <use xlink:href="#DejaVuSans-30" transform="translate(63.623047 0)"/>
       <use xlink:href="#DejaVuSans-30" transform="translate(127.246094 0)"/>
      </g>
     </g>
    </g>
    <g id="text_4">
     <!-- Session progress (%) -->
     <g transform="translate(162.343437 126.861094) scale(0.11 -0.11)">
      <defs>
       <path id="DejaVuSans-53" d="M 3425 4513 
L 3425 3897 
Q 3066 4069 2747 4153 
Q 2428 4238 2131 4238 
Q 1616 4238 1336 4038 
Q 1056 3838 1056 3469 
Q 1056 3159 1242 3001 
Q 1428 2844 1947 2747 
L 2328 2669 
Q 3034 2534 3370 2195 
Q 3706 1856 3706 1288 
Q 3706 609 3251 259 
Q 2797 -91 1919 -91 
Q 1588 -91 1214 -16 
Q 841 59 441 206 
L 441 856 
Q 825 641 1194 531 
Q 1563 422 1919 422 
Q 2459 422 2753 634 
Q 3047 847 3047 1241 
Q 3047 1584 2836 1778 
Q 2625 1972 2144 2069 
L 1759 2144 
Q 1053 2284 737 2584 
Q 422 2884 422 3419 
Q 422 4038 858 4394 
Q 1294 4750 2059 4750 
Q 2388 4750 2728 4690 
Q 3069 4631 3425 4513 
z
" transform="scale(0.015625)"/>
       <path id="DejaVuSans-65" d="M 3597 1894 
L 3597 1613 
L 953 1613 
Q 991 1019 1311 708 
Q 1631 397 2203 397 
Q 2534 397 2845 478 
Q 3156 559 3463 722 
L 3463 178 
Q 3153 47 2828 -22 
Q 2503 -91 2169 -91 
Q 1331 -91 842 396 
Q 353 884 353 1716 
Q 353 2575 817 3079 
Q 1281 3584 2069 3584 
Q 2775 3584 3186 3129 
Q 3597 2675 3597 1894 
z
M 3022 2063 
Q 3016 2534 2758 2815 
Q 2500 3097 2075 3097 
Q 1594 3097 1305 2825 
Q 1016 2553 972 2059 
L 3022 2063 
z
" transform="scale(0.015625)"/>
       <path id="DejaVuSans-73" d="M 2834 3397 
L 2834 2853 
Q 2591 2978 2328 3040 
Q 2066 3103 1784 3103 
Q 1356 3103 1142 2972 
Q 928 2841 928 2578 
Q 928 2378 1081 2264 
Q 1234 2150 1697 2047 
L 1894 2003 
Q 2506 1872 2764 1633 
Q 3022 1394 3022 966 
Q 3022 478 2636 193 
Q 2250 -91 1575 -91 
Q 1294 -91 989 -36 
Q 684 19 347 128 
L 347 722 
Q 666 556 975 473 
Q 1284 391 1588 391 
Q 1994 391 2212 530 
Q 2431 669 2431 922 
Q 2431 1156 2273 1281 
Q 2116 1406 1581 1522 
L 1381 1569 
Q 847 1681 609 1914 
Q 372 2147 372 2553 
Q 372 3047 722 3315 
Q 1072 3584 1716 3584 
Q 2034 3584 2315 3537 
Q 2597 3491 2834 3397 
z
" transform="scale(0.015625)"/>
       <path id="DejaVuSans-69" d="M 603 3500 
L 1178 3500 
L 1178 0 
L 603 0 
L 603 3500 
z
M 603 4863 
L 1178 4863 
L 1178 4134 
L 603 4134 
L 603 4863 
z
" transform="scale(0.015625)"/>
       <path id="DejaVuSans-6f" d="M 1959 3097 
Q 1497 3097 1228 2736 
Q 959 2375 959 1747 
Q 959 1119 1226 758 
Q 1494 397 1959 397 
Q 2419 397 2687 759 
Q 2956 1122 2956 1747 
Q 2956 2369 2687 2733 
Q 2419 3097 1959 3097 
z
M 1959 3584 
Q 2709 3584 3137 3096 
Q 3566 2609 3566 1747 
Q 3566 888 3137 398 
Q 2709 -91 1959 -91 
Q 1206 -91 779 398 
Q 353 888 353 1747 
Q 353 2609 779 3096 
Q 1206 3584 1959 3584 
z
" transform="scale(0.015625)"/>
       <path id="DejaVuSans-6e" d="M 3513 2113 
L 3513 0 
L 2938 0 
L 2938 2094 
Q 2938 2591 2744 2837 
Q 2550 3084 2163 3084 
Q 1697 3084 1428 2787 
Q 1159 2491 1159 1978 
L 1159 0 
L 581 0 
L 581 3500 
L 1159 3500 
L 1159 2956 
Q 1366 3272 1645 3428 
Q 1925 3584 2291 3584 
Q 2894 3584 3203 3211 
Q 3513 2838 3513 2113 
z
" transform="scale(0.015625)"/>
       <path id="DejaVuSans-20" transform="scale(0.015625)"/>
       <path id="DejaVuSans-70" d="M 1159 525 
L 1159 -1331 
L 581 -1331 
L 581 3500 
L 1159 3500 
L 1159 2969 
Q 1341 3281 1617 3432 
Q 1894 3584 2278 3584 
Q 2916 3584 3314 3078 
Q 3713 2572 3713 1747 
Q 3713 922 3314 415 
Q 2916 -91 2278 -91 
Q 1894 -91 1617 61 
Q 1341 213 1159 525 
z
M 3116 1747 
Q 3116 2381 2855 2742 
Q 2594 3103 2138 3103 
Q 1681 3103 1420 2742 
Q 1159 2381 1159 1747 
Q 1159 1113 1420 752 
Q 1681 391 2138 391 
Q 2594 391 2855 752 
Q 3116 1113 3116 1747 
z
" transform="scale(0.015625)"/>
       <path id="DejaVuSans-72" d="M 2631 2963 
Q 2534 3019 2420 3045 
Q 2306 3072 2169 3072 
Q 1681 3072 1420 2755 
Q 1159 2438 1159 1844 
L 1159 0 
L 581 0 
L 581 3500 
L 1159 3500 
L 1159 2956 
Q 1341 3275 1631 3429 
Q 1922 3584 2338 3584 
Q 2397 3584 2469 3576 
Q 2541 3569 2628 3553 
L 2631 2963 
z
" transform="scale(0.015625)"/>
       <path id="DejaVuSans-67" d="M 2906 1791 
Q 2906 2416 2648 2759 
Q 2391 3103 1925 3103 
Q 1463 3103 1205 2759 
Q 947 2416 947 1791 
Q 947 1169 1205 825 
Q 1463 481 1925 481 
Q 2391 481 2648 825 
Q 2906 1169 2906 1791 
z
M 3481 434 
Q 3481 -459 3084 -895 
Q 2688 -1331 1869 -1331 
Q 1566 -1331 1297 -1286 
Q 1028 -1241 775 -1147 
L 775 -588 
Q 1028 -725 1275 -790 
Q 1522 -856 1778 -856 
Q 2344 -856 2625 -561 
Q 2906 -266 2906 331 
L 2906 616 
Q 2728 306 2450 153 
Q 2172 0 1784 0 
Q 1141 0 747 490 
Q 353 981 353 1791 
Q 353 2603 747 3093 
Q 1141 3584 1784 3584 
Q 2172 3584 2450 3431 
Q 2728 3278 2906 2969 
L 2906 3500 
L 3481 3500 
L 3481 434 
z
" transform="scale(0.015625)"/>
       <path id="DejaVuSans-28" d="M 1984 4856 
Q 1566 4138 1362 3434 
Q 1159 2731 1159 2009 
Q 1159 1288 1364 580 
Q 1569 -128 1984 -844 
L 1484 -844 
Q 1016 -109 783 600 
Q 550 1309 550 2009 
Q 550 2706 781 3412 
Q 1013 4119 1484 4856 
L 1984 4856 
z
" transform="scale(0.015625)"/>
       <path id="DejaVuSans-25" d="M 4653 2053 
Q 4381 2053 4226 1822 
Q 4072 1591 4072 1178 
Q 4072 772 4226 539 
Q 4381 306 4653 306 
Q 4919 306 5073 539 
Q 5228 772 5228 1178 
Q 5228 1588 5073 1820 
Q 4919 2053 4653 2053 
z
M 4653 2450 
Q 5147 2450 5437 2106 
Q 5728 1763 5728 1178 
Q 5728 594 5436 251 
Q 5144 -91 4653 -91 
Q 4153 -91 3862 251 
Q 3572 594 3572 1178 
Q 3572 1766 3864 2108 
Q 4156 2450 4653 2450 
z
M 1428 4353 
Q 1159 4353 1004 4120 
Q 850 3888 850 3481 
Q 850 3069 1003 2837 
Q 1156 2606 1428 2606 
Q 1700 2606 1854 2837 
Q 2009 3069 2009 3481 
Q 2009 3884 1853 4118 
Q 1697 4353 1428 4353 
z
M 4250 4750 
L 4750 4750 
L 1831 -91 
L 1331 -91 
L 4250 4750 
z
M 1428 4750 
Q 1922 4750 2215 4408 
Q 2509 4066 2509 3481 
Q 2509 2891 2217 2550 
Q 1925 2209 1428 2209 
Q 931 2209 642 2551 
Q 353 2894 353 3481 
Q 353 4063 643 4406 
Q 934 4750 1428 4750 
z
" transform="scale(0.015625)"/>
       <path id="DejaVuSans-29" d="M 513 4856 
L 1013 4856 
Q 1481 4119 1714 3412 
Q 1947 2706 1947 2009 
Q 1947 1309 1714 600 
Q 1481 -109 1013 -844 
L 513 -844 
Q 928 -128 1133 580 
Q 1338 1288 1338 2009 
Q 1338 2731 1133 3434 
Q 928 4138 513 4856 
z
" transform="scale(0.015625)"/>
      </defs>
      <use xlink:href="#DejaVuSans-53"/>
      <use xlink:href="#DejaVuSans-65" transform="translate(63.476562 0)"/>
      <use xlink:href="#DejaVuSans-73" transform="translate(125 0)"/>
      <use xlink:href="#DejaVuSans-73" transform="translate(177.099609 0)"/>
      <use xlink:href="#DejaVuSans-69" transform="translate(229.199219 0)"/>
      <use xlink:href="#DejaVuSans-6f" transform="translate(256.982422 0)"/>
      <use xlink:href="#DejaVuSans-6e" transform="translate(318.164062 0)"/>
      <use xlink:href="#DejaVuSans-20" transform="translate(381.542969 0)"/>
      <use xlink:href="#DejaVuSans-70" transform="translate(413.330078 0)"/>
      <use xlink:href="#DejaVuSans-72" transform="translate(476.806641 0)"/>
      <use xlink:href="#DejaVuSans-6f" transform="translate(515.669922 0)"/>
      <use xlink:href="#DejaVuSans-67" transform="translate(576.851562 0)"/>
      <use xlink:href="#DejaVuSans-72" transform="translate(640.328125 0)"/>
      <use xlink:href="#DejaVuSans-65" transform="translate(679.191406 0)"/>
      <use xlink:href="#DejaVuSans-73" transform="translate(740.714844 0)"/>
      <use xlink:href="#DejaVuSans-73" transform="translate(792.814453 0)"/>
      <use xlink:href="#DejaVuSans-20" transform="translate(844.914062 0)"/>
      <use xlink:href="#DejaVuSans-28" transform="translate(876.701172 0)"/>
      <use xlink:href="#DejaVuSans-25" transform="translate(915.714844 0)"/>
      <use xlink:href="#DejaVuSans-29" transform="translate(1010.734375 0)"/>
     </g>
    </g>
   </g>
   <g id="matplotlib.axis_2">
    <g id="ytick_1">
     <g id="line2d_18">
      <defs>
       <path id="m91f77a25b4" d="M 0 0 
L -8.25 0 
" style="stroke: #000000; stroke-width: 1.4"/>
      </defs>
      <g>
       <use xlink:href="#m91f77a25b4" x="52.679688" y="87.359063" style="stroke: #000000; stroke-width: 1.4"/>
      </g>
     </g>
     <g id="text_5">
      <!-- 0.0 -->
      <g transform="translate(21.845938 91.918125) scale(0.12 -0.12)">
       <defs>
        <path id="DejaVuSans-2e" d="M 684 794 
L 1344 794 
L 1344 0 
L 684 0 
L 684 794 
z
" transform="scale(0.015625)"/>
       </defs>
       <use xlink:href="#DejaVuSans-30"/>
       <use xlink:href="#DejaVuSans-2e" transform="translate(63.623047 0)"/>
       <use xlink:href="#DejaVuSans-30" transform="translate(95.410156 0)"/>
      </g>
     </g>
    </g>
    <g id="ytick_2">
     <g id="line2d_19">
      <g>
       <use xlink:href="#m91f77a25b4" x="52.679688" y="49.559063" style="stroke: #000000; stroke-width: 1.4"/>
      </g>
     </g>
     <g id="text_6">
      <!-- 0.5 -->
      <g transform="translate(21.845938 54.118125) scale(0.12 -0.12)">
       <use xlink:href="#DejaVuSans-30"/>
       <use xlink:href="#DejaVuSans-2e" transform="translate(63.623047 0)"/>
       <use xlink:href="#DejaVuSans-35" transform="translate(95.410156 0)"/>
      </g>
     </g>
    </g>
    <g id="ytick_3">
     <g id="line2d_20">
      <g>
       <use xlink:href="#m91f77a25b4" x="52.679688" y="11.759062" style="stroke: #000000; stroke-width: 1.4"/>
      </g>
     </g>
     <g id="text_7">
      <!-- 1.0 -->
      <g transform="translate(21.845938 16.318125) scale(0.12 -0.12)">
       <use xlink:href="#DejaVuSans-31"/>
       <use xlink:href="#DejaVuSans-2e" transform="translate(63.623047 0)"/>
       <use xlink:href="#DejaVuSans-30" transform="translate(95.410156 0)"/>
      </g>
     </g>
    </g>
    <g id="text_8">
     <!-- P(state) -->
     <g transform="translate(15.558281 71.099297) rotate(-90) scale(0.11 -0.11)">
      <defs>
       <path id="DejaVuSans-50" d="M 1259 4147 
L 1259 2394 
L 2053 2394 
Q 2494 2394 2734 2622 
Q 2975 2850 2975 3272 
Q 2975 3691 2734 3919 
Q 2494 4147 2053 4147 
L 1259 4147 
z
M 628 4666 
L 2053 4666 
Q 2838 4666 3239 4311 
Q 3641 3956 3641 3272 
Q 3641 2581 3239 2228 
Q 2838 1875 2053 1875 
L 1259 1875 
L 1259 0 
L 628 0 
L 628 4666 
z
" transform="scale(0.015625)"/>
       <path id="DejaVuSans-74" d="M 1172 4494 
L 1172 3500 
L 2356 3500 
L 2356 3053 
L 1172 3053 
L 1172 1153 
Q 1172 725 1289 603 
Q 1406 481 1766 481 
L 2356 481 
L 2356 0 
L 1766 0 
Q 1100 0 847 248 
Q 594 497 594 1153 
L 594 3053 
L 172 3053 
L 172 3500 
L 594 3500 
L 594 4494 
L 1172 4494 
z
" transform="scale(0.015625)"/>
       <path id="DejaVuSans-61" d="M 2194 1759 
Q 1497 1759 1228 1600 
Q 959 1441 959 1056 
Q 959 750 1161 570 
Q 1363 391 1709 391 
Q 2188 391 2477 730 
Q 2766 1069 2766 1631 
L 2766 1759 
L 2194 1759 
z
M 3341 1997 
L 3341 0 
L 2766 0 
L 2766 531 
Q 2569 213 2275 61 
Q 1981 -91 1556 -91 
Q 1019 -91 701 211 
Q 384 513 384 1019 
Q 384 1609 779 1909 
Q 1175 2209 1959 2209 
L 2766 2209 
L 2766 2266 
Q 2766 2663 2505 2880 
Q 2244 3097 1772 3097 
Q 1472 3097 1187 3025 
Q 903 2953 641 2809 
L 641 3341 
Q 956 3463 1253 3523 
Q 1550 3584 1831 3584 
Q 2591 3584 2966 3190 
Q 3341 2797 3341 1997 
z
" transform="scale(0.015625)"/>
      </defs>
      <use xlink:href="#DejaVuSans-50"/>
      <use xlink:href="#DejaVuSans-28" transform="translate(60.302734 0)"/>
      <use xlink:href="#DejaVuSans-73" transform="translate(99.316406 0)"/>
      <use xlink:href="#DejaVuSans-74" transform="translate(151.416016 0)"/>
      <use xlink:href="#DejaVuSans-61" transform="translate(190.625 0)"/>
      <use xlink:href="#DejaVuSans-74" transform="translate(251.904297 0)"/>
      <use xlink:href="#DejaVuSans-65" transform="translate(291.113281 0)"/>
      <use xlink:href="#DejaVuSans-29" transform="translate(352.636719 0)"/>
     </g>
    </g>
   </g>
   <g id="patch_3">
    <path d="M 52.679688 87.359063 
L 52.679688 11.759062 
" style="fill: none; stroke: #000000; stroke-width: 1.2; stroke-linejoin: miter; stroke-linecap: square"/>
   </g>
   <g id="patch_4">
    <path d="M 67.897869 91.139063 
L 375.335886 91.139063 
" style="fill: none; stroke: #000000; stroke-width: 1.2; stroke-linejoin: miter; stroke-linecap: square"/>
   </g>
  </g>
 </g>
 <defs>
  <clipPath id="p3bb75d574f">
   <rect x="52.679688" y="7.979063" width="334.8" height="83.16"/>
  </clipPath>
 </defs>
</svg>
