<?xml version="1.0" encoding="utf-8" standalone="no"?>
<!DOCTYPE svg PUBLIC "-//W3C//DTD SVG 1.1//EN"
  "http://www.w3.org/Graphics/SVG/1.1/DTD/svg11.dtd">
<svg xmlns:xlink="http://www.w3.org/1999/xlink" width="394.679687pt" height="140.12875pt" viewBox="0 0 394.679687 140.12875" xmlns="http://www.w3.org/2000/svg" version="1.1">
 <metadata>
  <rdf:RDF xmlns:dc="http://purl.org/dc/elements/1.1/" xmlns:cc="http://creativecommons.org/ns#" xmlns:rdf="http://www.w3.org/1999/02/22-rdf-syntax-ns#">
   <cc:Work>
    <dc:type rdf:resource="http://purl.org/dc/dcmitype/StillImage"/>
    <dc:date>2026-04-10T11:45:23.961544</dc:date>
    <dc:format>image/svg+xml</dc:format>
    <dc:creator>
     <cc:Agent>
      <dc:title>Matplotlib v3.10.8, https://matplotlib.org/</dc:title>
     </cc:Agent>
    </dc:creator>
   </cc:Work>
  </rdf:RDF>
 </metadata>
 <defs>
  <style type="text/css">*{stroke-linejoin: round; stroke-linecap: butt}</style>
 </defs>
 <g id="figure_1">
  <g id="patch_1">
   <path d="M 0 140.12875 
L 394.679687 140.12875 
L 394.679687 0 
L 0 0 
L 0 140.12875 
z
" style="fill: none"/>
  </g>
  <g id="axes_1">
   <g id="patch_2">
    <path d="M 52.679688 94.919063 
L 387.479688 94.919063 
L 387.479688 11.759063 
L 52.679688 11.759063 
L 52.679688 94.919063 
z
" style="fill: none"/>
   </g>
   <g id="FillBetweenPolyCollection_1">
    <defs>
     <path id="m5982c7b693" d="M 67.897869 -108.365496 
L 67.897869 -86.855245 
L 70.972249 -86.046284 
L 74.04663 -94.021317 
L 77.12101 -106.129874 
L 80.19539 -106.329664 
L 83.26977 -105.822943 
L 86.34415 -101.401172 
L 89.41853 -102.556407 
L 92.492911 -105.665114 
L 95.567291 -100.318411 
L 98.641671 -98.005826 
L 101.716051 -87.648872 
L 104.790431 -94.676849 
L 107.864811 -100.363779 
L 110.939192 -101.526548 
L 114.013572 -102.086152 
L 117.087952 -92.97173 
L 120.162332 -92.837402 
L 123.236712 -95.619389 
L 126.311092 -92.834229 
L 129.385473 -96.199519 
L 132.459853 -101.449092 
L 135.534233 -101.471413 
L 138.608613 -94.704731 
L 141.682993 -90.668944 
L 144.757373 -92.575118 
L 147.831754 -97.656306 
L 150.906134 -106.639248 
L 153.980514 -94.796213 
L 157.054894 -89.556007 
L 160.129274 -81.33252 
L 163.203654 -91.167977 
L 166.278035 -90.189637 
L 169.352415 -81.035127 
L 172.426795 -83.031079 
L 175.501175 -84.040808 
L 178.575555 -81.266199 
L 181.649935 -81.976142 
L 184.724316 -85.308139 
L 187.798696 -83.841923 
L 190.873076 -86.693898 
L 193.947456 -83.395817 
L 197.021836 -79.944856 
L 200.096216 -76.223216 
L 203.170597 -74.302478 
L 206.244977 -71.061683 
L 209.319357 -66.232224 
L 212.393737 -64.160709 
L 215.468117 -68.153118 
L 218.542497 -73.386458 
L 221.616878 -76.928105 
L 224.691258 -76.987542 
L 227.765638 -78.210707 
L 230.840018 -76.928192 
L 233.914398 -76.031169 
L 236.988778 -76.659711 
L 240.063159 -78.333294 
L 243.137539 -81.027596 
L 246.211919 -82.789572 
L 249.286299 -85.373596 
L 252.360679 -78.673441 
L 255.435059 -78.072588 
L 258.50944 -73.266369 
L 261.58382 -67.195295 
L 264.6582 -69.75926 
L 267.73258 -76.128988 
L 270.80696 -81.72873 
L 273.88134 -76.178689 
L 276.955721 -79.095459 
L 280.030101 -83.03681 
L 283.104481 -89.166709 
L 286.178861 -85.37327 
L 289.253241 -91.36236 
L 292.327621 -91.464881 
L 295.402002 -90.342894 
L 298.476382 -85.799459 
L 301.550762 -92.75023 
L 304.625142 -89.667457 
L 307.699522 -89.347549 
L 310.773902 -88.884636 
L 313.848283 -87.425121 
L 316.922663 -92.902077 
L 319.997043 -96.318198 
L 323.071423 -99.762157 
L 326.145803 -99.789894 
L 329.220183 -100.220106 
L 332.294564 -93.063257 
L 335.368944 -92.488991 
L 338.443324 -88.071929 
L 341.517704 -85.928278 
L 344.592084 -85.463458 
L 347.666464 -78.126466 
L 350.740845 -72.997461 
L 353.815225 -71.346845 
L 356.889605 -69.389366 
L 359.963985 -77.628547 
L 363.038365 -77.154012 
L 366.112745 -81.807984 
L 369.187126 -80.295944 
L 372.261506 -84.648405 
L 372.261506 -100.462687 
L 372.261506 -100.462687 
L 369.187126 -97.508526 
L 366.112745 -98.958232 
L 363.038365 -93.719928 
L 359.963985 -94.601639 
L 356.889605 -86.610151 
L 353.815225 -89.368392 
L 350.740845 -90.947322 
L 347.666464 -96.274472 
L 344.592084 -103.1527 
L 341.517704 -104.536573 
L 338.443324 -107.064781 
L 335.368944 -110.344519 
L 332.294564 -109.245609 
L 329.220183 -115.095705 
L 326.145803 -114.944973 
L 323.071423 -115.45056 
L 319.997043 -113.238874 
L 316.922663 -111.599265 
L 313.848283 -106.643536 
L 310.773902 -107.307399 
L 307.699522 -108.304931 
L 304.625142 -108.334953 
L 301.550762 -110.505162 
L 298.476382 -104.91798 
L 295.402002 -108.369601 
L 292.327621 -108.380798 
L 289.253241 -109.809881 
L 286.178861 -103.702941 
L 283.104481 -107.402731 
L 280.030101 -101.743168 
L 276.955721 -96.883176 
L 273.88134 -93.877275 
L 270.80696 -99.996784 
L 267.73258 -94.610676 
L 264.6582 -88.50999 
L 261.58382 -84.670713 
L 258.50944 -92.388889 
L 255.435059 -98.175112 
L 252.360679 -97.458968 
L 249.286299 -102.420501 
L 246.211919 -101.374702 
L 243.137539 -98.61114 
L 240.063159 -96.143155 
L 236.988778 -95.413903 
L 233.914398 -94.008024 
L 230.840018 -95.790902 
L 227.765638 -95.163998 
L 224.691258 -95.604535 
L 221.616878 -96.369798 
L 218.542497 -91.369632 
L 215.468117 -85.893943 
L 212.393737 -81.671569 
L 209.319357 -85.349261 
L 206.244977 -89.758852 
L 203.170597 -94.849219 
L 200.096216 -96.273 
L 197.021836 -98.825888 
L 193.947456 -101.142594 
L 190.873076 -104.316105 
L 187.798696 -102.238236 
L 184.724316 -105.575497 
L 181.649935 -102.186086 
L 178.575555 -102.188425 
L 175.501175 -104.129721 
L 172.426795 -101.983229 
L 169.352415 -100.909264 
L 166.278035 -109.348794 
L 163.203654 -110.487097 
L 160.129274 -101.073482 
L 157.054894 -108.227512 
L 153.980514 -112.608301 
L 150.906134 -119.197976 
L 147.831754 -112.580336 
L 144.757373 -110.022308 
L 141.682993 -108.025652 
L 138.608613 -111.591039 
L 135.534233 -117.865707 
L 132.459853 -118.237789 
L 129.385473 -113.588045 
L 126.311092 -110.547385 
L 123.236712 -112.682822 
L 120.162332 -110.471257 
L 117.087952 -110.448295 
L 114.013572 -116.454299 
L 110.939192 -116.354253 
L 107.864811 -115.72873 
L 104.790431 -111.237778 
L 101.716051 -106.223738 
L 98.641671 -113.436918 
L 95.567291 -114.698172 
L 92.492911 -116.157617 
L 89.41853 -115.049652 
L 86.34415 -115.300635 
L 83.26977 -118.369578 
L 80.19539 -119.945873 
L 77.12101 -119.180315 
L 74.04663 -112.1084 
L 70.972249 -106.24448 
L 67.897869 -108.365496 
z
"/>
    </defs>
    <g clip-path="url(#pa4f39a91a0)">
     <use xlink:href="#m5982c7b693" x="0" y="140.12875" style="fill: #ffa500; fill-opacity: 0.3"/>
    </g>
   </g>
   <g id="FillBetweenPolyCollection_2">
    <defs>
     <path id="m4bbf825abe" d="M 67.897869 -92.15054 
L 67.897869 -64.83063 
L 70.972249 -67.737877 
L 74.04663 -59.919317 
L 77.12101 -52.711472 
L 80.19539 -51.002583 
L 83.26977 -53.495708 
L 86.34415 -58.25641 
L 89.41853 -56.806466 
L 92.492911 -51.255669 
L 95.567291 -52.542731 
L 98.641671 -55.118245 
L 101.716051 -63.510837 
L 104.790431 -54.931791 
L 107.864811 -50.099139 
L 110.939192 -49.420317 
L 114.013572 -48.893277 
L 117.087952 -48.969328 
L 120.162332 -50.033872 
L 123.236712 -50.287766 
L 126.311092 -49.683909 
L 129.385473 -49.740556 
L 132.459853 -48.768553 
L 135.534233 -49.340276 
L 138.608613 -53.481611 
L 141.682993 -57.483784 
L 144.757373 -58.191573 
L 147.831754 -59.755346 
L 150.906134 -52.923172 
L 153.980514 -59.704423 
L 157.054894 -65.018695 
L 160.129274 -75.391908 
L 163.203654 -58.879701 
L 166.278035 -57.429946 
L 169.352415 -63.837535 
L 172.426795 -62.70183 
L 175.501175 -62.148075 
L 178.575555 -64.472641 
L 181.649935 -63.324273 
L 184.724316 -57.953956 
L 187.798696 -64.828447 
L 190.873076 -59.983565 
L 193.947456 -63.488979 
L 197.021836 -63.659953 
L 200.096216 -65.209346 
L 203.170597 -67.693112 
L 206.244977 -75.822958 
L 209.319357 -83.758234 
L 212.393737 -89.210207 
L 215.468117 -81.473526 
L 218.542497 -76.134631 
L 221.616878 -71.644907 
L 224.691258 -70.63098 
L 227.765638 -67.6604 
L 230.840018 -66.101269 
L 233.914398 -68.804733 
L 236.988778 -67.12981 
L 240.063159 -75.260893 
L 243.137539 -77.236377 
L 246.211919 -78.481975 
L 249.286299 -76.160786 
L 252.360679 -81.177653 
L 255.435059 -75.161061 
L 258.50944 -75.404061 
L 261.58382 -80.144274 
L 264.6582 -73.950571 
L 267.73258 -67.905775 
L 270.80696 -63.584698 
L 273.88134 -75.581344 
L 276.955721 -75.798901 
L 280.030101 -67.968032 
L 283.104481 -60.77088 
L 286.178861 -69.654668 
L 289.253241 -59.346205 
L 292.327621 -61.386362 
L 295.402002 -60.346247 
L 298.476382 -66.398225 
L 301.550762 -59.806803 
L 304.625142 -59.660477 
L 307.699522 -59.021302 
L 310.773902 -60.710748 
L 313.848283 -62.856882 
L 316.922663 -56.761911 
L 319.997043 -54.290795 
L 323.071423 -51.691327 
L 326.145803 -53.615725 
L 329.220183 -54.875514 
L 332.294564 -63.655822 
L 335.368944 -57.668674 
L 338.443324 -61.496965 
L 341.517704 -64.520393 
L 344.592084 -63.648663 
L 347.666464 -70.117156 
L 350.740845 -76.494337 
L 353.815225 -78.699066 
L 356.889605 -86.15463 
L 359.963985 -77.345653 
L 363.038365 -81.040827 
L 366.112745 -72.265851 
L 369.187126 -76.906666 
L 372.261506 -72.196473 
L 372.261506 -92.426433 
L 372.261506 -92.426433 
L 369.187126 -98.572655 
L 366.112745 -93.884968 
L 363.038365 -102.732962 
L 359.963985 -100.702758 
L 356.889605 -109.866975 
L 353.815225 -102.339997 
L 350.740845 -99.447556 
L 347.666464 -93.464282 
L 344.592084 -84.796404 
L 341.517704 -87.05513 
L 338.443324 -84.58671 
L 335.368944 -81.624292 
L 332.294564 -85.583541 
L 329.220183 -72.680454 
L 326.145803 -72.032301 
L 323.071423 -69.935872 
L 319.997043 -72.923585 
L 316.922663 -79.368925 
L 313.848283 -87.098583 
L 310.773902 -81.996832 
L 307.699522 -81.654355 
L 304.625142 -82.655894 
L 301.550762 -83.110195 
L 298.476382 -92.740839 
L 295.402002 -83.751957 
L 292.327621 -81.301065 
L 289.253241 -82.355132 
L 286.178861 -93.845749 
L 283.104481 -84.236164 
L 280.030101 -91.546104 
L 276.955721 -98.982194 
L 273.88134 -99.969895 
L 270.80696 -86.201769 
L 267.73258 -92.909625 
L 264.6582 -100.991317 
L 261.58382 -104.976093 
L 258.50944 -102.810917 
L 255.435059 -102.77122 
L 252.360679 -106.349292 
L 249.286299 -99.097303 
L 246.211919 -103.822811 
L 243.137539 -101.210761 
L 240.063159 -99.563516 
L 236.988778 -92.785386 
L 233.914398 -93.727027 
L 230.840018 -91.716588 
L 227.765638 -88.157351 
L 224.691258 -95.251021 
L 221.616878 -96.508956 
L 218.542497 -99.016189 
L 215.468117 -103.773695 
L 212.393737 -112.181341 
L 209.319357 -109.363515 
L 206.244977 -98.740454 
L 203.170597 -92.571148 
L 200.096216 -89.040639 
L 197.021836 -88.621095 
L 193.947456 -88.156857 
L 190.873076 -83.308536 
L 187.798696 -87.715366 
L 184.724316 -81.833437 
L 181.649935 -88.045015 
L 178.575555 -90.498198 
L 175.501175 -86.391135 
L 172.426795 -87.093343 
L 169.352415 -89.394034 
L 166.278035 -81.442621 
L 163.203654 -82.48987 
L 160.129274 -100.190858 
L 157.054894 -88.785542 
L 153.980514 -82.081425 
L 150.906134 -64.086043 
L 147.831754 -79.819686 
L 144.757373 -81.752284 
L 141.682993 -79.288585 
L 138.608613 -68.208175 
L 135.534233 -52.239819 
L 132.459853 -49.132754 
L 129.385473 -66.99313 
L 126.311092 -67.76361 
L 123.236712 -54.118159 
L 120.162332 -57.049967 
L 117.087952 -53.519684 
L 114.013572 -50.308454 
L 110.939192 -52.894193 
L 107.864811 -55.368138 
L 104.790431 -72.807358 
L 101.716051 -88.479679 
L 98.641671 -72.597027 
L 95.567291 -67.614773 
L 92.492911 -64.540041 
L 89.41853 -75.350039 
L 86.34415 -78.378515 
L 83.26977 -66.841183 
L 80.19539 -66.015838 
L 77.12101 -61.921758 
L 74.04663 -82.549523 
L 70.972249 -93.150036 
L 67.897869 -92.15054 
z
"/>
    </defs>
    <g clip-path="url(#pa4f39a91a0)">
     <use xlink:href="#m4bbf825abe" x="0" y="140.12875" style="fill: #800080; fill-opacity: 0.3"/>
    </g>
   </g>
   <g id="matplotlib.axis_1">
    <g id="xtick_1">
     <g id="line2d_1">
      <defs>
       <path id="m6f85da86dc" d="M 0 0 
L 0 8.25 
" style="stroke: #000000; stroke-width: 1.4"/>
      </defs>
      <g>
       <use xlink:href="#m6f85da86dc" x="67.897869" y="94.919063" style="stroke: #000000; stroke-width: 1.4"/>
      </g>
     </g>
     <g id="text_1">
      <!-- 0 -->
      <g transform="translate(64.080369 115.787188) scale(0.12 -0.12)">
       <defs>
        <path id="DejaVuSans-30" d="M 2034 4250 
Q 1547 4250 1301 3770 
Q 1056 3291 1056 2328 
Q 1056 1369 1301 889 
Q 1547 409 2034 409 
Q 2525 409 2770 889 
Q 3016 1369 3016 2328 
Q 3016 3291 2770 3770 
Q 2525 4250 2034 4250 
z
M 2034 4750 
Q 2819 4750 3233 4129 
Q 3647 3509 3647 2328 
Q 3647 1150 3233 529 
Q 2819 -91 2034 -91 
Q 1250 -91 836 529 
Q 422 1150 422 2328 
Q 422 3509 836 4129 
Q 1250 4750 2034 4750 
z
" transform="scale(0.015625)"/>
       </defs>
       <use xlink:href="#DejaVuSans-30"/>
      </g>
     </g>
    </g>
    <g id="xtick_2">
     <g id="line2d_2">
      <g>
       <use xlink:href="#m6f85da86dc" x="221.616878" y="94.919063" style="stroke: #000000; stroke-width: 1.4"/>
      </g>
     </g>
     <g id="text_2">
      <!-- 50 -->
      <g transform="translate(213.981878 115.787188) scale(0.12 -0.12)">
       <defs>
        <path id="DejaVuSans-35" d="M 691 4666 
L 3169 4666 
L 3169 4134 
L 1269 4134 
L 1269 2991 
Q 1406 3038 1543 3061 
Q 1681 3084 1819 3084 
Q 2600 3084 3056 2656 
Q 3513 2228 3513 1497 
Q 3513 744 3044 326 
Q 2575 -91 1722 -91 
Q 1428 -91 1123 -41 
Q 819 9 494 109 
L 494 744 
Q 775 591 1075 516 
Q 1375 441 1709 441 
Q 2250 441 2565 725 
Q 2881 1009 2881 1497 
Q 2881 1984 2565 2268 
Q 2250 2553 1709 2553 
Q 1456 2553 1204 2497 
Q 953 2441 691 2322 
L 691 4666 
z
" transform="scale(0.015625)"/>
       </defs>
       <use xlink:href="#DejaVuSans-35"/>
       <use xlink:href="#DejaVuSans-30" transform="translate(63.623047 0)"/>
      </g>
     </g>
    </g>
    <g id="xtick_3">
     <g id="line2d_3">
      <g>
       <use xlink:href="#m6f85da86dc" x="375.335886" y="94.919063" style="stroke: #000000; stroke-width: 1.4"/>
      </g>
     </g>
     <g id="text_3">
      <!-- 100 -->
      <g transform="translate(363.883386 115.787188) scale(0.12 -0.12)">
       <defs>
        <path id="DejaVuSans-31" d="M 794 531 
L 1825 531 
L 1825 4091 
L 703 3866 
L 703 4441 
L 1819 4666 
L 2450 4666 
L 2450 531 
L 3481 531 
L 3481 0 
L 794 0 
L 794 531 
z
" transform="scale(0.015625)"/>
       </defs>
       <use xlink:href="#DejaVuSans-31"/>
       <use xlink:href="#DejaVuSans-30" transform="translate(63.623047 0)"/>
       <use xlink:href="#DejaVuSans-30" transform="translate(127.246094 0)"/>
      </g>
     </g>
    </g>
    <g id="text_4">
     <!-- Session progress (%) -->
     <g transform="translate(162.343437 130.641094) scale(0.11 -0.11)">
      <defs>
       <path id="DejaVuSans-53" d="M 3425 4513 
L 3425 3897 
Q 3066 4069 2747 4153 
Q 2428 4238 2131 4238 
Q 1616 4238 1336 4038 
Q 1056 3838 1056 3469 
Q 1056 3159 1242 3001 
Q 1428 2844 1947 2747 
L 2328 2669 
Q 3034 2534 3370 2195 
Q 3706 1856 3706 1288 
Q 3706 609 3251 259 
Q 2797 -91 1919 -91 
Q 1588 -91 1214 -16 
Q 841 59 441 206 
L 441 856 
Q 825 641 1194 531 
Q 1563 422 1919 422 
Q 2459 422 2753 634 
Q 3047 847 3047 1241 
Q 3047 1584 2836 1778 
Q 2625 1972 2144 2069 
L 1759 2144 
Q 1053 2284 737 2584 
Q 422 2884 422 3419 
Q 422 4038 858 4394 
Q 1294 4750 2059 4750 
Q 2388 4750 2728 4690 
Q 3069 4631 3425 4513 
z
" transform="scale(0.015625)"/>
       <path id="DejaVuSans-65" d="M 3597 1894 
L 3597 1613 
L 953 1613 
Q 991 1019 1311 708 
Q 1631 397 2203 397 
Q 2534 397 2845 478 
Q 3156 559 3463 722 
L 3463 178 
Q 3153 47 2828 -22 
Q 2503 -91 2169 -91 
Q 1331 -91 842 396 
Q 353 884 353 1716 
Q 353 2575 817 3079 
Q 1281 3584 2069 3584 
Q 2775 3584 3186 3129 
Q 3597 2675 3597 1894 
z
M 3022 2063 
Q 3016 2534 2758 2815 
Q 2500 3097 2075 3097 
Q 1594 3097 1305 2825 
Q 1016 2553 972 2059 
L 3022 2063 
z
" transform="scale(0.015625)"/>
       <path id="DejaVuSans-73" d="M 2834 3397 
L 2834 2853 
Q 2591 2978 2328 3040 
Q 2066 3103 1784 3103 
Q 1356 3103 1142 2972 
Q 928 2841 928 2578 
Q 928 2378 1081 2264 
Q 1234 2150 1697 2047 
L 1894 2003 
Q 2506 1872 2764 1633 
Q 3022 1394 3022 966 
Q 3022 478 2636 193 
Q 2250 -91 1575 -91 
Q 1294 -91 989 -36 
Q 684 19 347 128 
L 347 722 
Q 666 556 975 473 
Q 1284 391 1588 391 
Q 1994 391 2212 530 
Q 2431 669 2431 922 
Q 2431 1156 2273 1281 
Q 2116 1406 1581 1522 
L 1381 1569 
Q 847 1681 609 1914 
Q 372 2147 372 2553 
Q 372 3047 722 3315 
Q 1072 3584 1716 3584 
Q 2034 3584 2315 3537 
Q 2597 3491 2834 3397 
z
" transform="scale(0.015625)"/>
       <path id="DejaVuSans-69" d="M 603 3500 
L 1178 3500 
L 1178 0 
L 603 0 
L 603 3500 
z
M 603 4863 
L 1178 4863 
L 1178 4134 
L 603 4134 
L 603 4863 
z
" transform="scale(0.015625)"/>
       <path id="DejaVuSans-6f" d="M 1959 3097 
Q 1497 3097 1228 2736 
Q 959 2375 959 1747 
Q 959 1119 1226 758 
Q 1494 397 1959 397 
Q 2419 397 2687 759 
Q 2956 1122 2956 1747 
Q 2956 2369 2687 2733 
Q 2419 3097 1959 3097 
z
M 1959 3584 
Q 2709 3584 3137 3096 
Q 3566 2609 3566 1747 
Q 3566 888 3137 398 
Q 2709 -91 1959 -91 
Q 1206 -91 779 398 
Q 353 888 353 1747 
Q 353 2609 779 3096 
Q 1206 3584 1959 3584 
z
" transform="scale(0.015625)"/>
       <path id="DejaVuSans-6e" d="M 3513 2113 
L 3513 0 
L 2938 0 
L 2938 2094 
Q 2938 2591 2744 2837 
Q 2550 3084 2163 3084 
Q 1697 3084 1428 2787 
Q 1159 2491 1159 1978 
L 1159 0 
L 581 0 
L 581 3500 
L 1159 3500 
L 1159 2956 
Q 1366 3272 1645 3428 
Q 1925 3584 2291 3584 
Q 2894 3584 3203 3211 
Q 3513 2838 3513 2113 
z
" transform="scale(0.015625)"/>
       <path id="DejaVuSans-20" transform="scale(0.015625)"/>
       <path id="DejaVuSans-70" d="M 1159 525 
L 1159 -1331 
L 581 -1331 
L 581 3500 
L 1159 3500 
L 1159 2969 
Q 1341 3281 1617 3432 
Q 1894 3584 2278 3584 
Q 2916 3584 3314 3078 
Q 3713 2572 3713 1747 
Q 3713 922 3314 415 
Q 2916 -91 2278 -91 
Q 1894 -91 1617 61 
Q 1341 213 1159 525 
z
M 3116 1747 
Q 3116 2381 2855 2742 
Q 2594 3103 2138 3103 
Q 1681 3103 1420 2742 
Q 1159 2381 1159 1747 
Q 1159 1113 1420 752 
Q 1681 391 2138 391 
Q 2594 391 2855 752 
Q 3116 1113 3116 1747 
z
" transform="scale(0.015625)"/>
       <path id="DejaVuSans-72" d="M 2631 2963 
Q 2534 3019 2420 3045 
Q 2306 3072 2169 3072 
Q 1681 3072 1420 2755 
Q 1159 2438 1159 1844 
L 1159 0 
L 581 0 
L 581 3500 
L 1159 3500 
L 1159 2956 
Q 1341 3275 1631 3429 
Q 1922 3584 2338 3584 
Q 2397 3584 2469 3576 
Q 2541 3569 2628 3553 
L 2631 2963 
z
" transform="scale(0.015625)"/>
       <path id="DejaVuSans-67" d="M 2906 1791 
Q 2906 2416 2648 2759 
Q 2391 3103 1925 3103 
Q 1463 3103 1205 2759 
Q 947 2416 947 1791 
Q 947 1169 1205 825 
Q 1463 481 1925 481 
Q 2391 481 2648 825 
Q 2906 1169 2906 1791 
z
M 3481 434 
Q 3481 -459 3084 -895 
Q 2688 -1331 1869 -1331 
Q 1566 -1331 1297 -1286 
Q 1028 -1241 775 -1147 
L 775 -588 
Q 1028 -725 1275 -790 
Q 1522 -856 1778 -856 
Q 2344 -856 2625 -561 
Q 2906 -266 2906 331 
L 2906 616 
Q 2728 306 2450 153 
Q 2172 0 1784 0 
Q 1141 0 747 490 
Q 353 981 353 1791 
Q 353 2603 747 3093 
Q 1141 3584 1784 3584 
Q 2172 3584 2450 3431 
Q 2728 3278 2906 2969 
L 2906 3500 
L 3481 3500 
L 3481 434 
z
" transform="scale(0.015625)"/>
       <path id="DejaVuSans-28" d="M 1984 4856 
Q 1566 4138 1362 3434 
Q 1159 2731 1159 2009 
Q 1159 1288 1364 580 
Q 1569 -128 1984 -844 
L 1484 -844 
Q 1016 -109 783 600 
Q 550 1309 550 2009 
Q 550 2706 781 3412 
Q 1013 4119 1484 4856 
L 1984 4856 
z
" transform="scale(0.015625)"/>
       <path id="DejaVuSans-25" d="M 4653 2053 
Q 4381 2053 4226 1822 
Q 4072 1591 4072 1178 
Q 4072 772 4226 539 
Q 4381 306 4653 306 
Q 4919 306 5073 539 
Q 5228 772 5228 1178 
Q 5228 1588 5073 1820 
Q 4919 2053 4653 2053 
z
M 4653 2450 
Q 5147 2450 5437 2106 
Q 5728 1763 5728 1178 
Q 5728 594 5436 251 
Q 5144 -91 4653 -91 
Q 4153 -91 3862 251 
Q 3572 594 3572 1178 
Q 3572 1766 3864 2108 
Q 4156 2450 4653 2450 
z
M 1428 4353 
Q 1159 4353 1004 4120 
Q 850 3888 850 3481 
Q 850 3069 1003 2837 
Q 1156 2606 1428 2606 
Q 1700 2606 1854 2837 
Q 2009 3069 2009 3481 
Q 2009 3884 1853 4118 
Q 1697 4353 1428 4353 
z
M 4250 4750 
L 4750 4750 
L 1831 -91 
L 1331 -91 
L 4250 4750 
z
M 1428 4750 
Q 1922 4750 2215 4408 
Q 2509 4066 2509 3481 
Q 2509 2891 2217 2550 
Q 1925 2209 1428 2209 
Q 931 2209 642 2551 
Q 353 2894 353 3481 
Q 353 4063 643 4406 
Q 934 4750 1428 4750 
z
" transform="scale(0.015625)"/>
       <path id="DejaVuSans-29" d="M 513 4856 
L 1013 4856 
Q 1481 4119 1714 3412 
Q 1947 2706 1947 2009 
Q 1947 1309 1714 600 
Q 1481 -109 1013 -844 
L 513 -844 
Q 928 -128 1133 580 
Q 1338 1288 1338 2009 
Q 1338 2731 1133 3434 
Q 928 4138 513 4856 
z
" transform="scale(0.015625)"/>
      </defs>
      <use xlink:href="#DejaVuSans-53"/>
      <use xlink:href="#DejaVuSans-65" transform="translate(63.476562 0)"/>
      <use xlink:href="#DejaVuSans-73" transform="translate(125 0)"/>
      <use xlink:href="#DejaVuSans-73" transform="translate(177.099609 0)"/>
      <use xlink:href="#DejaVuSans-69" transform="translate(229.199219 0)"/>
      <use xlink:href="#DejaVuSans-6f" transform="translate(256.982422 0)"/>
      <use xlink:href="#DejaVuSans-6e" transform="translate(318.164062 0)"/>
      <use xlink:href="#DejaVuSans-20" transform="translate(381.542969 0)"/>
      <use xlink:href="#DejaVuSans-70" transform="translate(413.330078 0)"/>
      <use xlink:href="#DejaVuSans-72" transform="translate(476.806641 0)"/>
      <use xlink:href="#DejaVuSans-6f" transform="translate(515.669922 0)"/>
      <use xlink:href="#DejaVuSans-67" transform="translate(576.851562 0)"/>
      <use xlink:href="#DejaVuSans-72" transform="translate(640.328125 0)"/>
      <use xlink:href="#DejaVuSans-65" transform="translate(679.191406 0)"/>
      <use xlink:href="#DejaVuSans-73" transform="translate(740.714844 0)"/>
      <use xlink:href="#DejaVuSans-73" transform="translate(792.814453 0)"/>
      <use xlink:href="#DejaVuSans-20" transform="translate(844.914062 0)"/>
      <use xlink:href="#DejaVuSans-28" transform="translate(876.701172 0)"/>
      <use xlink:href="#DejaVuSans-25" transform="translate(915.714844 0)"/>
      <use xlink:href="#DejaVuSans-29" transform="translate(1010.734375 0)"/>
     </g>
    </g>
   </g>
   <g id="matplotlib.axis_2">
    <g id="ytick_1">
     <g id="line2d_4">
      <defs>
       <path id="mda4215ab84" d="M 0 0 
L -8.25 0 
" style="stroke: #000000; stroke-width: 1.4"/>
      </defs>
      <g>
       <use xlink:href="#mda4215ab84" x="52.679688" y="91.568584" style="stroke: #000000; stroke-width: 1.4"/>
      </g>
     </g>
     <g id="text_5">
      <!-- 0.0 -->
      <g transform="translate(21.845938 96.127646) scale(0.12 -0.12)">
       <defs>
        <path id="DejaVuSans-2e" d="M 684 794 
L 1344 794 
L 1344 0 
L 684 0 
L 684 794 
z
" transform="scale(0.015625)"/>
       </defs>
       <use xlink:href="#DejaVuSans-30"/>
       <use xlink:href="#DejaVuSans-2e" transform="translate(63.623047 0)"/>
       <use xlink:href="#DejaVuSans-30" transform="translate(95.410156 0)"/>
      </g>
     </g>
    </g>
    <g id="ytick_2">
     <g id="line2d_5">
      <g>
       <use xlink:href="#mda4215ab84" x="52.679688" y="51.663823" style="stroke: #000000; stroke-width: 1.4"/>
      </g>
     </g>
     <g id="text_6">
      <!-- 0.5 -->
      <g transform="translate(21.845938 56.222886) scale(0.12 -0.12)">
       <use xlink:href="#DejaVuSans-30"/>
       <use xlink:href="#DejaVuSans-2e" transform="translate(63.623047 0)"/>
       <use xlink:href="#DejaVuSans-35" transform="translate(95.410156 0)"/>
      </g>
     </g>
    </g>
    <g id="ytick_3">
     <g id="line2d_6">
      <g>
       <use xlink:href="#mda4215ab84" x="52.679688" y="11.759063" style="stroke: #000000; stroke-width: 1.4"/>
      </g>
     </g>
     <g id="text_7">
      <!-- 1.0 -->
      <g transform="translate(21.845938 16.318125) scale(0.12 -0.12)">
       <use xlink:href="#DejaVuSans-31"/>
       <use xlink:href="#DejaVuSans-2e" transform="translate(63.623047 0)"/>
       <use xlink:href="#DejaVuSans-30" transform="translate(95.410156 0)"/>
      </g>
     </g>
    </g>
    <g id="text_8">
     <!-- P(state) -->
     <g transform="translate(15.558281 74.879297) rotate(-90) scale(0.11 -0.11)">
      <defs>
       <path id="DejaVuSans-50" d="M 1259 4147 
L 1259 2394 
L 2053 2394 
Q 2494 2394 2734 2622 
Q 2975 2850 2975 3272 
Q 2975 3691 2734 3919 
Q 2494 4147 2053 4147 
L 1259 4147 
z
M 628 4666 
L 2053 4666 
Q 2838 4666 3239 4311 
Q 3641 3956 3641 3272 
Q 3641 2581 3239 2228 
Q 2838 1875 2053 1875 
L 1259 1875 
L 1259 0 
L 628 0 
L 628 4666 
z
" transform="scale(0.015625)"/>
       <path id="DejaVuSans-74" d="M 1172 4494 
L 1172 3500 
L 2356 3500 
L 2356 3053 
L 1172 3053 
L 1172 1153 
Q 1172 725 1289 603 
Q 1406 481 1766 481 
L 2356 481 
L 2356 0 
L 1766 0 
Q 1100 0 847 248 
Q 594 497 594 1153 
L 594 3053 
L 172 3053 
L 172 3500 
L 594 3500 
L 594 4494 
L 1172 4494 
z
" transform="scale(0.015625)"/>
       <path id="DejaVuSans-61" d="M 2194 1759 
Q 1497 1759 1228 1600 
Q 959 1441 959 1056 
Q 959 750 1161 570 
Q 1363 391 1709 391 
Q 2188 391 2477 730 
Q 2766 1069 2766 1631 
L 2766 1759 
L 2194 1759 
z
M 3341 1997 
L 3341 0 
L 2766 0 
L 2766 531 
Q 2569 213 2275 61 
Q 1981 -91 1556 -91 
Q 1019 -91 701 211 
Q 384 513 384 1019 
Q 384 1609 779 1909 
Q 1175 2209 1959 2209 
L 2766 2209 
L 2766 2266 
Q 2766 2663 2505 2880 
Q 2244 3097 1772 3097 
Q 1472 3097 1187 3025 
Q 903 2953 641 2809 
L 641 3341 
Q 956 3463 1253 3523 
Q 1550 3584 1831 3584 
Q 2591 3584 2966 3190 
Q 3341 2797 3341 1997 
z
" transform="scale(0.015625)"/>
      </defs>
      <use xlink:href="#DejaVuSans-50"/>
      <use xlink:href="#DejaVuSans-28" transform="translate(60.302734 0)"/>
      <use xlink:href="#DejaVuSans-73" transform="translate(99.316406 0)"/>
      <use xlink:href="#DejaVuSans-74" transform="translate(151.416016 0)"/>
      <use xlink:href="#DejaVuSans-61" transform="translate(190.625 0)"/>
      <use xlink:href="#DejaVuSans-74" transform="translate(251.904297 0)"/>
      <use xlink:href="#DejaVuSans-65" transform="translate(291.113281 0)"/>
      <use xlink:href="#DejaVuSans-29" transform="translate(352.636719 0)"/>
     </g>
    </g>
   </g>
   <g id="line2d_7">
    <path d="M 67.897869 42.518379 
L 70.972249 43.983368 
L 74.04663 37.063892 
L 77.12101 27.473655 
L 80.19539 26.990982 
L 83.26977 28.03249 
L 86.34415 31.777847 
L 89.41853 31.32572 
L 92.492911 29.217385 
L 95.567291 32.620458 
L 98.641671 34.407378 
L 101.716051 43.192445 
L 104.790431 37.171437 
L 107.864811 32.082496 
L 110.939192 31.18835 
L 114.013572 30.858525 
L 117.087952 38.418738 
L 120.162332 38.474421 
L 123.236712 35.977645 
L 126.311092 38.437943 
L 129.385473 35.234968 
L 132.459853 30.285309 
L 135.534233 30.46019 
L 138.608613 36.980865 
L 141.682993 40.781452 
L 144.757373 38.830037 
L 147.831754 35.010429 
L 150.906134 27.210138 
L 153.980514 36.426493 
L 157.054894 41.23699 
L 160.129274 48.925749 
L 163.203654 39.301213 
L 166.278035 40.359535 
L 169.352415 49.156555 
L 172.426795 47.621596 
L 175.501175 46.043486 
L 178.575555 48.401438 
L 181.649935 48.047636 
L 184.724316 44.686932 
L 187.798696 47.08867 
L 190.873076 44.623748 
L 193.947456 47.859544 
L 197.021836 50.743378 
L 200.096216 53.880642 
L 203.170597 55.552902 
L 206.244977 59.718482 
L 209.319357 64.338008 
L 212.393737 67.212611 
L 215.468117 63.10522 
L 218.542497 57.750705 
L 221.616878 53.479799 
L 224.691258 53.832711 
L 227.765638 53.441397 
L 230.840018 53.769203 
L 233.914398 55.109154 
L 236.988778 54.091943 
L 240.063159 52.890525 
L 243.137539 50.309382 
L 246.211919 48.046613 
L 249.286299 46.231701 
L 252.360679 52.062546 
L 255.435059 52.0049 
L 258.50944 57.301121 
L 261.58382 64.195746 
L 264.6582 60.994125 
L 267.73258 54.758918 
L 270.80696 49.265993 
L 273.88134 55.100768 
L 276.955721 52.139433 
L 280.030101 47.738761 
L 283.104481 41.84403 
L 286.178861 45.590645 
L 289.253241 39.542629 
L 292.327621 40.20591 
L 295.402002 40.772502 
L 298.476382 44.770031 
L 301.550762 38.501054 
L 304.625142 41.127545 
L 307.699522 41.30251 
L 310.773902 42.032733 
L 313.848283 43.094421 
L 316.922663 37.878079 
L 319.997043 35.350214 
L 323.071423 32.522392 
L 326.145803 32.761317 
L 329.220183 32.470844 
L 332.294564 38.974317 
L 335.368944 38.711995 
L 338.443324 42.560395 
L 341.517704 44.896325 
L 344.592084 45.820671 
L 347.666464 52.928281 
L 350.740845 58.156358 
L 353.815225 59.771131 
L 356.889605 62.128991 
L 359.963985 54.013657 
L 363.038365 54.69178 
L 366.112745 49.745642 
L 369.187126 51.226515 
L 372.261506 47.573204 
" clip-path="url(#pa4f39a91a0)" style="fill: none; stroke: #ffa500; stroke-width: 2; stroke-linecap: square"/>
   </g>
   <g id="line2d_8">
    <path d="M 67.897869 61.638165 
L 70.972249 59.684793 
L 74.04663 68.89433 
L 77.12101 82.812135 
L 80.19539 81.61954 
L 83.26977 79.960305 
L 86.34415 71.811287 
L 89.41853 74.050498 
L 92.492911 82.230895 
L 95.567291 80.049998 
L 98.641671 76.271114 
L 101.716051 64.133492 
L 104.790431 76.259175 
L 107.864811 87.395112 
L 110.939192 88.971495 
L 114.013572 90.527885 
L 117.087952 88.884244 
L 120.162332 86.58683 
L 123.236712 87.925788 
L 126.311092 81.40499 
L 129.385473 81.761907 
L 132.459853 91.178096 
L 135.534233 89.338702 
L 138.608613 79.283857 
L 141.682993 71.742565 
L 144.757373 70.156822 
L 147.831754 70.341234 
L 150.906134 81.624142 
L 153.980514 69.235826 
L 157.054894 63.226632 
L 160.129274 52.337367 
L 163.203654 69.443964 
L 166.278035 70.692466 
L 169.352415 63.512965 
L 172.426795 65.231163 
L 175.501175 65.859145 
L 178.575555 62.64333 
L 181.649935 64.444106 
L 184.724316 70.235053 
L 187.798696 63.856843 
L 190.873076 68.4827 
L 193.947456 64.305832 
L 197.021836 63.988226 
L 200.096216 63.003757 
L 203.170597 59.99662 
L 206.244977 52.847044 
L 209.319357 43.567876 
L 212.393737 39.432976 
L 215.468117 47.50514 
L 218.542497 52.55334 
L 221.616878 56.051819 
L 224.691258 57.187749 
L 227.765638 62.219874 
L 230.840018 61.219822 
L 233.914398 58.86287 
L 236.988778 60.171152 
L 240.063159 52.716546 
L 243.137539 50.905181 
L 246.211919 48.976357 
L 249.286299 52.499705 
L 252.360679 46.365278 
L 255.435059 51.162609 
L 258.50944 51.021261 
L 261.58382 47.568566 
L 264.6582 52.657806 
L 267.73258 59.72105 
L 270.80696 65.235516 
L 273.88134 52.353131 
L 276.955721 52.738202 
L 280.030101 60.371682 
L 283.104481 67.625228 
L 286.178861 58.378542 
L 289.253241 69.278082 
L 292.327621 68.785037 
L 295.402002 68.079648 
L 298.476382 60.559218 
L 301.550762 68.670251 
L 304.625142 68.970565 
L 307.699522 69.790921 
L 310.773902 68.77496 
L 313.848283 65.151018 
L 316.922663 72.063332 
L 319.997043 76.52156 
L 323.071423 79.315151 
L 326.145803 77.304737 
L 329.220183 76.350766 
L 332.294564 65.509069 
L 335.368944 70.482267 
L 338.443324 67.086913 
L 341.517704 64.340988 
L 344.592084 65.906217 
L 347.666464 58.338031 
L 350.740845 52.157803 
L 353.815225 49.609219 
L 356.889605 42.117948 
L 359.963985 51.104544 
L 363.038365 48.241855 
L 366.112745 57.053341 
L 369.187126 52.389089 
L 372.261506 57.817297 
" clip-path="url(#pa4f39a91a0)" style="fill: none; stroke: #800080; stroke-width: 2; stroke-linecap: square"/>
   </g>
   <g id="patch_3">
    <path d="M 52.679688 91.568584 
L 52.679688 11.759063 
" style="fill: none; stroke: #000000; stroke-width: 1.2; stroke-linejoin: miter; stroke-linecap: square"/>
   </g>
   <g id="patch_4">
    <path d="M 67.897869 94.919063 
L 375.335886 94.919063 
" style="fill: none; stroke: #000000; stroke-width: 1.2; stroke-linejoin: miter; stroke-linecap: square"/>
   </g>
  </g>
 </g>
 <defs>
  <clipPath id="pa4f39a91a0">
   <rect x="52.679688" y="11.759063" width="334.8" height="83.16"/>
  </clipPath>
 </defs>
</svg>
