<?xml version="1.0" encoding="utf-8" standalone="no"?>
<!DOCTYPE svg PUBLIC "-//W3C//DTD SVG 1.1//EN"
  "http://www.w3.org/Graphics/SVG/1.1/DTD/svg11.dtd">
<svg xmlns:xlink="http://www.w3.org/1999/xlink" width="394.679687pt" height="140.12875pt" viewBox="0 0 394.679687 140.12875" xmlns="http://www.w3.org/2000/svg" version="1.1">
 <metadata>
  <rdf:RDF xmlns:dc="http://purl.org/dc/elements/1.1/" xmlns:cc="http://creativecommons.org/ns#" xmlns:rdf="http://www.w3.org/1999/02/22-rdf-syntax-ns#">
   <cc:Work>
    <dc:type rdf:resource="http://purl.org/dc/dcmitype/StillImage"/>
    <dc:date>2026-04-08T17:58:11.003763</dc:date>
    <dc:format>image/svg+xml</dc:format>
    <dc:creator>
     <cc:Agent>
      <dc:title>Matplotlib v3.10.8, https://matplotlib.org/</dc:title>
     </cc:Agent>
    </dc:creator>
   </cc:Work>
  </rdf:RDF>
 </metadata>
 <defs>
  <style type="text/css">*{stroke-linejoin: round; stroke-linecap: butt}</style>
 </defs>
 <g id="figure_1">
  <g id="patch_1">
   <path d="M 0 140.12875 
L 394.679687 140.12875 
L 394.679687 0 
L 0 0 
L 0 140.12875 
z
" style="fill: none"/>
  </g>
  <g id="axes_1">
   <g id="patch_2">
    <path d="M 52.679688 94.919063 
L 387.479688 94.919063 
L 387.479688 11.759063 
L 52.679688 11.759063 
L 52.679688 94.919063 
z
" style="fill: none"/>
   </g>
   <g id="FillBetweenPolyCollection_1">
    <defs>
     <path id="mc4baeaa4c2" d="M 67.897869 -110.859335 
L 67.897869 -87.777904 
L 70.972249 -86.684421 
L 74.04663 -95.679052 
L 77.12101 -110.228844 
L 80.19539 -108.951283 
L 83.26977 -109.435246 
L 86.34415 -101.624479 
L 89.41853 -102.675153 
L 92.492911 -104.294522 
L 95.567291 -97.224132 
L 98.641671 -93.716953 
L 101.716051 -81.526963 
L 104.790431 -90.01967 
L 107.864811 -97.929358 
L 110.939192 -101.26875 
L 114.013572 -103.605213 
L 117.087952 -93.633792 
L 120.162332 -94.857599 
L 123.236712 -98.227419 
L 126.311092 -94.59795 
L 129.385473 -98.980296 
L 132.459853 -105.695762 
L 135.534233 -105.493042 
L 138.608613 -97.129486 
L 141.682993 -90.744329 
L 144.757373 -92.014754 
L 147.831754 -95.413722 
L 150.906134 -106.701894 
L 153.980514 -95.674817 
L 157.054894 -94.651652 
L 160.129274 -88.676513 
L 163.203654 -101.489412 
L 166.278035 -99.982239 
L 169.352415 -87.696449 
L 172.426795 -86.729634 
L 175.501175 -85.135167 
L 178.575555 -81.635491 
L 181.649935 -83.062549 
L 184.724316 -86.556574 
L 187.798696 -84.569848 
L 190.873076 -88.686619 
L 193.947456 -85.528929 
L 197.021836 -85.044937 
L 200.096216 -81.95308 
L 203.170597 -79.254032 
L 206.244977 -74.848282 
L 209.319357 -68.601768 
L 212.393737 -63.794119 
L 215.468117 -67.717517 
L 218.542497 -73.455345 
L 221.616878 -76.599425 
L 224.691258 -75.979433 
L 227.765638 -77.070108 
L 230.840018 -74.266491 
L 233.914398 -73.088378 
L 236.988778 -73.66757 
L 240.063159 -74.261205 
L 243.137539 -76.911013 
L 246.211919 -77.108491 
L 249.286299 -79.772858 
L 252.360679 -71.61296 
L 255.435059 -70.899543 
L 258.50944 -66.14408 
L 261.58382 -60.94554 
L 264.6582 -64.968787 
L 267.73258 -73.119422 
L 270.80696 -80.982387 
L 273.88134 -75.168117 
L 276.955721 -78.456045 
L 280.030101 -83.148167 
L 283.104481 -90.542639 
L 286.178861 -85.99407 
L 289.253241 -93.093354 
L 292.327621 -92.282926 
L 295.402002 -89.559124 
L 298.476382 -83.178629 
L 301.550762 -89.402363 
L 304.625142 -88.183024 
L 307.699522 -88.746795 
L 310.773902 -89.886899 
L 313.848283 -88.465312 
L 316.922663 -95.042613 
L 319.997043 -99.06653 
L 323.071423 -99.783134 
L 326.145803 -96.545859 
L 329.220183 -96.128697 
L 332.294564 -88.360589 
L 335.368944 -87.473538 
L 338.443324 -81.970377 
L 341.517704 -79.867139 
L 344.592084 -80.389286 
L 347.666464 -74.373775 
L 350.740845 -71.557511 
L 353.815225 -70.146785 
L 356.889605 -68.158425 
L 359.963985 -77.600618 
L 363.038365 -76.921957 
L 366.112745 -82.676978 
L 369.187126 -80.752951 
L 372.261506 -85.961358 
L 372.261506 -102.935273 
L 372.261506 -102.935273 
L 369.187126 -99.389502 
L 366.112745 -101.080628 
L 363.038365 -94.674141 
L 359.963985 -95.875915 
L 356.889605 -86.814892 
L 353.815225 -89.775749 
L 350.740845 -91.211175 
L 347.666464 -94.9742 
L 344.592084 -100.265959 
L 341.517704 -100.321565 
L 338.443324 -102.917725 
L 335.368944 -107.619827 
L 332.294564 -106.478317 
L 329.220183 -112.987106 
L 326.145803 -113.966543 
L 323.071423 -117.107791 
L 319.997043 -115.943031 
L 316.922663 -114.324981 
L 313.848283 -108.642587 
L 310.773902 -109.20146 
L 307.699522 -109.626848 
L 304.625142 -109.076814 
L 301.550762 -109.733057 
L 298.476382 -104.696037 
L 295.402002 -109.439164 
L 292.327621 -110.045159 
L 289.253241 -112.227736 
L 286.178861 -105.110347 
L 283.104481 -109.419747 
L 280.030101 -102.838812 
L 276.955721 -96.981608 
L 273.88134 -93.454282 
L 270.80696 -100.432873 
L 267.73258 -93.180846 
L 264.6582 -85.065153 
L 261.58382 -78.633112 
L 258.50944 -86.024978 
L 255.435059 -92.339731 
L 252.360679 -91.207189 
L 249.286299 -98.324246 
L 246.211919 -97.613258 
L 243.137539 -96.34507 
L 240.063159 -93.820623 
L 236.988778 -94.17865 
L 233.914398 -92.513969 
L 230.840018 -94.904838 
L 227.765638 -94.988107 
L 224.691258 -95.935453 
L 221.616878 -97.673697 
L 218.542497 -93.502984 
L 215.468117 -87.727946 
L 212.393737 -83.92095 
L 209.319357 -90.426486 
L 206.244977 -95.649343 
L 203.170597 -101.757294 
L 200.096216 -103.469498 
L 197.021836 -105.378382 
L 193.947456 -104.723432 
L 190.873076 -107.242632 
L 187.798696 -103.842388 
L 184.724316 -108.412438 
L 181.649935 -105.199287 
L 178.575555 -104.491592 
L 175.501175 -106.87317 
L 172.426795 -107.435976 
L 169.352415 -108.472683 
L 166.278035 -117.7788 
L 163.203654 -119.09301 
L 160.129274 -108.894405 
L 157.054894 -114.73687 
L 153.980514 -115.303919 
L 150.906134 -120.742123 
L 147.831754 -112.43113 
L 144.757373 -111.242193 
L 141.682993 -109.396705 
L 138.608613 -114.052961 
L 135.534233 -121.222256 
L 132.459853 -121.699302 
L 129.385473 -116.432977 
L 126.311092 -112.871868 
L 123.236712 -115.3289 
L 120.162332 -112.864554 
L 117.087952 -112.316396 
L 114.013572 -118.58931 
L 110.939192 -117.769378 
L 107.864811 -115.629828 
L 104.790431 -108.691958 
L 101.716051 -101.874823 
L 98.641671 -111.160407 
L 95.567291 -113.732163 
L 92.492911 -116.202865 
L 89.41853 -116.241248 
L 86.34415 -116.80243 
L 83.26977 -120.788655 
L 80.19539 -122.556502 
L 77.12101 -121.812895 
L 74.04663 -114.597411 
L 70.972249 -108.216488 
L 67.897869 -110.859335 
z
"/>
    </defs>
    <g clip-path="url(#pd25d1ba3e9)">
     <use xlink:href="#mc4baeaa4c2" x="0" y="140.12875" style="fill: #ffa500; fill-opacity: 0.3"/>
    </g>
   </g>
   <g id="FillBetweenPolyCollection_2">
    <defs>
     <path id="m32571b3cf7" d="M 67.897869 -92.207104 
L 67.897869 -64.929861 
L 70.972249 -67.832568 
L 74.04663 -60.026218 
L 77.12101 -52.82963 
L 80.19539 -51.12341 
L 83.26977 -53.612641 
L 86.34415 -58.365909 
L 89.41853 -56.918229 
L 92.492911 -51.376101 
L 95.567291 -52.661152 
L 98.641671 -55.232644 
L 101.716051 -63.612129 
L 104.790431 -55.046481 
L 107.864811 -50.221377 
L 110.939192 -49.543615 
L 114.013572 -49.017398 
L 117.087952 -49.09333 
L 120.162332 -50.156211 
L 123.236712 -50.409709 
L 126.311092 -49.806795 
L 129.385473 -49.863353 
L 132.459853 -48.892869 
L 135.534233 -49.463699 
L 138.608613 -53.598566 
L 141.682993 -57.594489 
L 144.757373 -58.301172 
L 147.831754 -59.862504 
L 150.906134 -53.040999 
L 153.980514 -59.81166 
L 157.054894 -65.117632 
L 160.129274 -75.474645 
L 163.203654 -58.988226 
L 166.278035 -57.540735 
L 169.352415 -63.938317 
L 172.426795 -62.804386 
L 175.501175 -62.251495 
L 178.575555 -64.572431 
L 181.649935 -63.425857 
L 184.724316 -58.063926 
L 187.798696 -64.927682 
L 190.873076 -60.090365 
L 193.947456 -63.590306 
L 197.021836 -63.761012 
L 200.096216 -65.307986 
L 203.170597 -67.787872 
L 206.244977 -75.905022 
L 209.319357 -83.827905 
L 212.393737 -89.271363 
L 215.468117 -81.546765 
L 218.542497 -76.216208 
L 221.616878 -71.733496 
L 224.691258 -70.721153 
L 227.765638 -67.755212 
L 230.840018 -66.198515 
L 233.914398 -68.897758 
L 236.988778 -67.22545 
L 240.063159 -75.343835 
L 243.137539 -77.316233 
L 246.211919 -78.559886 
L 249.286299 -76.242323 
L 252.360679 -81.251354 
L 255.435059 -75.244159 
L 258.50944 -75.48678 
L 261.58382 -80.219589 
L 264.6582 -74.035559 
L 267.73258 -68.000204 
L 270.80696 -63.685875 
L 273.88134 -75.663785 
L 276.955721 -75.881003 
L 280.030101 -68.062363 
L 283.104481 -60.876451 
L 286.178861 -69.746365 
L 289.253241 -59.454001 
L 292.327621 -61.490972 
L 295.402002 -60.452482 
L 298.476382 -66.495008 
L 301.550762 -59.913879 
L 304.625142 -59.767782 
L 307.699522 -59.129606 
L 310.773902 -60.816413 
L 313.848283 -62.959195 
L 316.922663 -56.873743 
L 319.997043 -54.406486 
L 323.071423 -51.811078 
L 326.145803 -53.732471 
L 329.220183 -54.990292 
L 332.294564 -63.756888 
L 335.368944 -57.779091 
L 338.443324 -61.601402 
L 341.517704 -64.620109 
L 344.592084 -63.74974 
L 347.666464 -70.208131 
L 350.740845 -76.575352 
L 353.815225 -78.776638 
L 356.889605 -86.220558 
L 359.963985 -77.425339 
L 363.038365 -81.114742 
L 366.112745 -72.35347 
L 369.187126 -76.987038 
L 372.261506 -72.284201 
L 372.261506 -92.482567 
L 372.261506 -92.482567 
L 369.187126 -98.61919 
L 366.112745 -93.938824 
L 363.038365 -102.773 
L 359.963985 -100.745967 
L 356.889605 -109.895871 
L 353.815225 -102.380649 
L 350.740845 -99.492725 
L 347.666464 -93.518795 
L 344.592084 -84.864454 
L 341.517704 -87.119653 
L 338.443324 -84.655087 
L 335.368944 -81.697296 
L 332.294564 -85.650361 
L 329.220183 -72.767426 
L 326.145803 -72.120285 
L 323.071423 -70.02713 
L 319.997043 -73.010177 
L 316.922663 -79.445451 
L 313.848283 -87.163037 
L 310.773902 -82.069254 
L 307.699522 -81.727312 
L 304.625142 -82.727287 
L 301.550762 -83.180878 
L 298.476382 -92.796482 
L 295.402002 -83.821638 
L 292.327621 -81.374573 
L 289.253241 -82.426994 
L 286.178861 -93.899666 
L 283.104481 -84.305089 
L 280.030101 -91.603613 
L 276.955721 -99.02809 
L 273.88134 -100.014247 
L 270.80696 -86.267624 
L 267.73258 -92.965004 
L 264.6582 -101.034075 
L 261.58382 -105.012628 
L 258.50944 -102.850833 
L 255.435059 -102.811198 
L 252.360679 -106.383682 
L 249.286299 -99.143019 
L 246.211919 -103.861147 
L 243.137539 -101.253176 
L 240.063159 -99.608503 
L 236.988778 -92.840959 
L 233.914398 -93.781129 
L 230.840018 -91.77383 
L 227.765638 -88.220152 
L 224.691258 -95.302744 
L 221.616878 -96.558714 
L 218.542497 -99.062031 
L 215.468117 -103.812107 
L 212.393737 -112.206623 
L 209.319357 -109.393197 
L 206.244977 -98.786727 
L 203.170597 -92.627056 
L 200.096216 -89.102061 
L 197.021836 -88.683172 
L 193.947456 -88.219659 
L 190.873076 -83.378909 
L 187.798696 -87.778857 
L 184.724316 -81.906115 
L 181.649935 -88.107991 
L 178.575555 -90.557343 
L 175.501175 -86.456695 
L 172.426795 -87.157806 
L 169.352415 -89.454904 
L 166.278035 -81.515909 
L 163.203654 -82.561522 
L 160.129274 -100.234866 
L 157.054894 -88.847362 
L 153.980514 -82.153715 
L 150.906134 -64.186437 
L 147.831754 -79.895508 
L 144.757373 -81.825088 
L 141.682993 -79.365236 
L 138.608613 -68.302131 
L 135.534233 -52.358713 
L 132.459853 -49.256501 
L 129.385473 -67.088984 
L 126.311092 -67.858261 
L 123.236712 -54.23412 
L 120.162332 -57.16135 
L 117.087952 -53.63658 
L 114.013572 -50.430365 
L 110.939192 -53.012066 
L 107.864811 -55.482147 
L 104.790431 -72.894132 
L 101.716051 -88.541977 
L 98.641671 -72.684129 
L 95.567291 -67.709656 
L 92.492911 -64.639725 
L 89.41853 -75.432841 
L 86.34415 -78.456588 
L 83.26977 -66.937274 
L 80.19539 -66.113218 
L 77.12101 -62.025532 
L 74.04663 -82.621082 
L 70.972249 -93.20504 
L 67.897869 -92.207104 
z
"/>
    </defs>
    <g clip-path="url(#pd25d1ba3e9)">
     <use xlink:href="#m32571b3cf7" x="0" y="140.12875" style="fill: #800080; fill-opacity: 0.3"/>
    </g>
   </g>
   <g id="matplotlib.axis_1">
    <g id="xtick_1">
     <g id="line2d_1">
      <defs>
       <path id="m4f99cab739" d="M 0 0 
L 0 8.25 
" style="stroke: #000000; stroke-width: 1.4"/>
      </defs>
      <g>
       <use xlink:href="#m4f99cab739" x="67.897869" y="94.919063" style="stroke: #000000; stroke-width: 1.4"/>
      </g>
     </g>
     <g id="text_1">
      <!-- 0 -->
      <g transform="translate(64.080369 115.787188) scale(0.12 -0.12)">
       <defs>
        <path id="DejaVuSans-30" d="M 2034 4250 
Q 1547 4250 1301 3770 
Q 1056 3291 1056 2328 
Q 1056 1369 1301 889 
Q 1547 409 2034 409 
Q 2525 409 2770 889 
Q 3016 1369 3016 2328 
Q 3016 3291 2770 3770 
Q 2525 4250 2034 4250 
z
M 2034 4750 
Q 2819 4750 3233 4129 
Q 3647 3509 3647 2328 
Q 3647 1150 3233 529 
Q 2819 -91 2034 -91 
Q 1250 -91 836 529 
Q 422 1150 422 2328 
Q 422 3509 836 4129 
Q 1250 4750 2034 4750 
z
" transform="scale(0.015625)"/>
       </defs>
       <use xlink:href="#DejaVuSans-30"/>
      </g>
     </g>
    </g>
    <g id="xtick_2">
     <g id="line2d_2">
      <g>
       <use xlink:href="#m4f99cab739" x="221.616878" y="94.919063" style="stroke: #000000; stroke-width: 1.4"/>
      </g>
     </g>
     <g id="text_2">
      <!-- 50 -->
      <g transform="translate(213.981878 115.787188) scale(0.12 -0.12)">
       <defs>
        <path id="DejaVuSans-35" d="M 691 4666 
L 3169 4666 
L 3169 4134 
L 1269 4134 
L 1269 2991 
Q 1406 3038 1543 3061 
Q 1681 3084 1819 3084 
Q 2600 3084 3056 2656 
Q 3513 2228 3513 1497 
Q 3513 744 3044 326 
Q 2575 -91 1722 -91 
Q 1428 -91 1123 -41 
Q 819 9 494 109 
L 494 744 
Q 775 591 1075 516 
Q 1375 441 1709 441 
Q 2250 441 2565 725 
Q 2881 1009 2881 1497 
Q 2881 1984 2565 2268 
Q 2250 2553 1709 2553 
Q 1456 2553 1204 2497 
Q 953 2441 691 2322 
L 691 4666 
z
" transform="scale(0.015625)"/>
       </defs>
       <use xlink:href="#DejaVuSans-35"/>
       <use xlink:href="#DejaVuSans-30" transform="translate(63.623047 0)"/>
      </g>
     </g>
    </g>
    <g id="xtick_3">
     <g id="line2d_3">
      <g>
       <use xlink:href="#m4f99cab739" x="375.335886" y="94.919063" style="stroke: #000000; stroke-width: 1.4"/>
      </g>
     </g>
     <g id="text_3">
      <!-- 100 -->
      <g transform="translate(363.883386 115.787188) scale(0.12 -0.12)">
       <defs>
        <path id="DejaVuSans-31" d="M 794 531 
L 1825 531 
L 1825 4091 
L 703 3866 
L 703 4441 
L 1819 4666 
L 2450 4666 
L 2450 531 
L 3481 531 
L 3481 0 
L 794 0 
L 794 531 
z
" transform="scale(0.015625)"/>
       </defs>
       <use xlink:href="#DejaVuSans-31"/>
       <use xlink:href="#DejaVuSans-30" transform="translate(63.623047 0)"/>
       <use xlink:href="#DejaVuSans-30" transform="translate(127.246094 0)"/>
      </g>
     </g>
    </g>
    <g id="text_4">
     <!-- Session progress (%) -->
     <g transform="translate(162.343437 130.641094) scale(0.11 -0.11)">
      <defs>
       <path id="DejaVuSans-53" d="M 3425 4513 
L 3425 3897 
Q 3066 4069 2747 4153 
Q 2428 4238 2131 4238 
Q 1616 4238 1336 4038 
Q 1056 3838 1056 3469 
Q 1056 3159 1242 3001 
Q 1428 2844 1947 2747 
L 2328 2669 
Q 3034 2534 3370 2195 
Q 3706 1856 3706 1288 
Q 3706 609 3251 259 
Q 2797 -91 1919 -91 
Q 1588 -91 1214 -16 
Q 841 59 441 206 
L 441 856 
Q 825 641 1194 531 
Q 1563 422 1919 422 
Q 2459 422 2753 634 
Q 3047 847 3047 1241 
Q 3047 1584 2836 1778 
Q 2625 1972 2144 2069 
L 1759 2144 
Q 1053 2284 737 2584 
Q 422 2884 422 3419 
Q 422 4038 858 4394 
Q 1294 4750 2059 4750 
Q 2388 4750 2728 4690 
Q 3069 4631 3425 4513 
z
" transform="scale(0.015625)"/>
       <path id="DejaVuSans-65" d="M 3597 1894 
L 3597 1613 
L 953 1613 
Q 991 1019 1311 708 
Q 1631 397 2203 397 
Q 2534 397 2845 478 
Q 3156 559 3463 722 
L 3463 178 
Q 3153 47 2828 -22 
Q 2503 -91 2169 -91 
Q 1331 -91 842 396 
Q 353 884 353 1716 
Q 353 2575 817 3079 
Q 1281 3584 2069 3584 
Q 2775 3584 3186 3129 
Q 3597 2675 3597 1894 
z
M 3022 2063 
Q 3016 2534 2758 2815 
Q 2500 3097 2075 3097 
Q 1594 3097 1305 2825 
Q 1016 2553 972 2059 
L 3022 2063 
z
" transform="scale(0.015625)"/>
       <path id="DejaVuSans-73" d="M 2834 3397 
L 2834 2853 
Q 2591 2978 2328 3040 
Q 2066 3103 1784 3103 
Q 1356 3103 1142 2972 
Q 928 2841 928 2578 
Q 928 2378 1081 2264 
Q 1234 2150 1697 2047 
L 1894 2003 
Q 2506 1872 2764 1633 
Q 3022 1394 3022 966 
Q 3022 478 2636 193 
Q 2250 -91 1575 -91 
Q 1294 -91 989 -36 
Q 684 19 347 128 
L 347 722 
Q 666 556 975 473 
Q 1284 391 1588 391 
Q 1994 391 2212 530 
Q 2431 669 2431 922 
Q 2431 1156 2273 1281 
Q 2116 1406 1581 1522 
L 1381 1569 
Q 847 1681 609 1914 
Q 372 2147 372 2553 
Q 372 3047 722 3315 
Q 1072 3584 1716 3584 
Q 2034 3584 2315 3537 
Q 2597 3491 2834 3397 
z
" transform="scale(0.015625)"/>
       <path id="DejaVuSans-69" d="M 603 3500 
L 1178 3500 
L 1178 0 
L 603 0 
L 603 3500 
z
M 603 4863 
L 1178 4863 
L 1178 4134 
L 603 4134 
L 603 4863 
z
" transform="scale(0.015625)"/>
       <path id="DejaVuSans-6f" d="M 1959 3097 
Q 1497 3097 1228 2736 
Q 959 2375 959 1747 
Q 959 1119 1226 758 
Q 1494 397 1959 397 
Q 2419 397 2687 759 
Q 2956 1122 2956 1747 
Q 2956 2369 2687 2733 
Q 2419 3097 1959 3097 
z
M 1959 3584 
Q 2709 3584 3137 3096 
Q 3566 2609 3566 1747 
Q 3566 888 3137 398 
Q 2709 -91 1959 -91 
Q 1206 -91 779 398 
Q 353 888 353 1747 
Q 353 2609 779 3096 
Q 1206 3584 1959 3584 
z
" transform="scale(0.015625)"/>
       <path id="DejaVuSans-6e" d="M 3513 2113 
L 3513 0 
L 2938 0 
L 2938 2094 
Q 2938 2591 2744 2837 
Q 2550 3084 2163 3084 
Q 1697 3084 1428 2787 
Q 1159 2491 1159 1978 
L 1159 0 
L 581 0 
L 581 3500 
L 1159 3500 
L 1159 2956 
Q 1366 3272 1645 3428 
Q 1925 3584 2291 3584 
Q 2894 3584 3203 3211 
Q 3513 2838 3513 2113 
z
" transform="scale(0.015625)"/>
       <path id="DejaVuSans-20" transform="scale(0.015625)"/>
       <path id="DejaVuSans-70" d="M 1159 525 
L 1159 -1331 
L 581 -1331 
L 581 3500 
L 1159 3500 
L 1159 2969 
Q 1341 3281 1617 3432 
Q 1894 3584 2278 3584 
Q 2916 3584 3314 3078 
Q 3713 2572 3713 1747 
Q 3713 922 3314 415 
Q 2916 -91 2278 -91 
Q 1894 -91 1617 61 
Q 1341 213 1159 525 
z
M 3116 1747 
Q 3116 2381 2855 2742 
Q 2594 3103 2138 3103 
Q 1681 3103 1420 2742 
Q 1159 2381 1159 1747 
Q 1159 1113 1420 752 
Q 1681 391 2138 391 
Q 2594 391 2855 752 
Q 3116 1113 3116 1747 
z
" transform="scale(0.015625)"/>
       <path id="DejaVuSans-72" d="M 2631 2963 
Q 2534 3019 2420 3045 
Q 2306 3072 2169 3072 
Q 1681 3072 1420 2755 
Q 1159 2438 1159 1844 
L 1159 0 
L 581 0 
L 581 3500 
L 1159 3500 
L 1159 2956 
Q 1341 3275 1631 3429 
Q 1922 3584 2338 3584 
Q 2397 3584 2469 3576 
Q 2541 3569 2628 3553 
L 2631 2963 
z
" transform="scale(0.015625)"/>
       <path id="DejaVuSans-67" d="M 2906 1791 
Q 2906 2416 2648 2759 
Q 2391 3103 1925 3103 
Q 1463 3103 1205 2759 
Q 947 2416 947 1791 
Q 947 1169 1205 825 
Q 1463 481 1925 481 
Q 2391 481 2648 825 
Q 2906 1169 2906 1791 
z
M 3481 434 
Q 3481 -459 3084 -895 
Q 2688 -1331 1869 -1331 
Q 1566 -1331 1297 -1286 
Q 1028 -1241 775 -1147 
L 775 -588 
Q 1028 -725 1275 -790 
Q 1522 -856 1778 -856 
Q 2344 -856 2625 -561 
Q 2906 -266 2906 331 
L 2906 616 
Q 2728 306 2450 153 
Q 2172 0 1784 0 
Q 1141 0 747 490 
Q 353 981 353 1791 
Q 353 2603 747 3093 
Q 1141 3584 1784 3584 
Q 2172 3584 2450 3431 
Q 2728 3278 2906 2969 
L 2906 3500 
L 3481 3500 
L 3481 434 
z
" transform="scale(0.015625)"/>
       <path id="DejaVuSans-28" d="M 1984 4856 
Q 1566 4138 1362 3434 
Q 1159 2731 1159 2009 
Q 1159 1288 1364 580 
Q 1569 -128 1984 -844 
L 1484 -844 
Q 1016 -109 783 600 
Q 550 1309 550 2009 
Q 550 2706 781 3412 
Q 1013 4119 1484 4856 
L 1984 4856 
z
" transform="scale(0.015625)"/>
       <path id="DejaVuSans-25" d="M 4653 2053 
Q 4381 2053 4226 1822 
Q 4072 1591 4072 1178 
Q 4072 772 4226 539 
Q 4381 306 4653 306 
Q 4919 306 5073 539 
Q 5228 772 5228 1178 
Q 5228 1588 5073 1820 
Q 4919 2053 4653 2053 
z
M 4653 2450 
Q 5147 2450 5437 2106 
Q 5728 1763 5728 1178 
Q 5728 594 5436 251 
Q 5144 -91 4653 -91 
Q 4153 -91 3862 251 
Q 3572 594 3572 1178 
Q 3572 1766 3864 2108 
Q 4156 2450 4653 2450 
z
M 1428 4353 
Q 1159 4353 1004 4120 
Q 850 3888 850 3481 
Q 850 3069 1003 2837 
Q 1156 2606 1428 2606 
Q 1700 2606 1854 2837 
Q 2009 3069 2009 3481 
Q 2009 3884 1853 4118 
Q 1697 4353 1428 4353 
z
M 4250 4750 
L 4750 4750 
L 1831 -91 
L 1331 -91 
L 4250 4750 
z
M 1428 4750 
Q 1922 4750 2215 4408 
Q 2509 4066 2509 3481 
Q 2509 2891 2217 2550 
Q 1925 2209 1428 2209 
Q 931 2209 642 2551 
Q 353 2894 353 3481 
Q 353 4063 643 4406 
Q 934 4750 1428 4750 
z
" transform="scale(0.015625)"/>
       <path id="DejaVuSans-29" d="M 513 4856 
L 1013 4856 
Q 1481 4119 1714 3412 
Q 1947 2706 1947 2009 
Q 1947 1309 1714 600 
Q 1481 -109 1013 -844 
L 513 -844 
Q 928 -128 1133 580 
Q 1338 1288 1338 2009 
Q 1338 2731 1133 3434 
Q 928 4138 513 4856 
z
" transform="scale(0.015625)"/>
      </defs>
      <use xlink:href="#DejaVuSans-53"/>
      <use xlink:href="#DejaVuSans-65" transform="translate(63.476562 0)"/>
      <use xlink:href="#DejaVuSans-73" transform="translate(125 0)"/>
      <use xlink:href="#DejaVuSans-73" transform="translate(177.099609 0)"/>
      <use xlink:href="#DejaVuSans-69" transform="translate(229.199219 0)"/>
      <use xlink:href="#DejaVuSans-6f" transform="translate(256.982422 0)"/>
      <use xlink:href="#DejaVuSans-6e" transform="translate(318.164062 0)"/>
      <use xlink:href="#DejaVuSans-20" transform="translate(381.542969 0)"/>
      <use xlink:href="#DejaVuSans-70" transform="translate(413.330078 0)"/>
      <use xlink:href="#DejaVuSans-72" transform="translate(476.806641 0)"/>
      <use xlink:href="#DejaVuSans-6f" transform="translate(515.669922 0)"/>
      <use xlink:href="#DejaVuSans-67" transform="translate(576.851562 0)"/>
      <use xlink:href="#DejaVuSans-72" transform="translate(640.328125 0)"/>
      <use xlink:href="#DejaVuSans-65" transform="translate(679.191406 0)"/>
      <use xlink:href="#DejaVuSans-73" transform="translate(740.714844 0)"/>
      <use xlink:href="#DejaVuSans-73" transform="translate(792.814453 0)"/>
      <use xlink:href="#DejaVuSans-20" transform="translate(844.914062 0)"/>
      <use xlink:href="#DejaVuSans-28" transform="translate(876.701172 0)"/>
      <use xlink:href="#DejaVuSans-25" transform="translate(915.714844 0)"/>
      <use xlink:href="#DejaVuSans-29" transform="translate(1010.734375 0)"/>
     </g>
    </g>
   </g>
   <g id="matplotlib.axis_2">
    <g id="ytick_1">
     <g id="line2d_4">
      <defs>
       <path id="m7e498adbcc" d="M 0 0 
L -8.25 0 
" style="stroke: #000000; stroke-width: 1.4"/>
      </defs>
      <g>
       <use xlink:href="#m7e498adbcc" x="52.679688" y="91.443943" style="stroke: #000000; stroke-width: 1.4"/>
      </g>
     </g>
     <g id="text_5">
      <!-- 0.0 -->
      <g transform="translate(21.845938 96.003005) scale(0.12 -0.12)">
       <defs>
        <path id="DejaVuSans-2e" d="M 684 794 
L 1344 794 
L 1344 0 
L 684 0 
L 684 794 
z
" transform="scale(0.015625)"/>
       </defs>
       <use xlink:href="#DejaVuSans-30"/>
       <use xlink:href="#DejaVuSans-2e" transform="translate(63.623047 0)"/>
       <use xlink:href="#DejaVuSans-30" transform="translate(95.410156 0)"/>
      </g>
     </g>
    </g>
    <g id="ytick_2">
     <g id="line2d_5">
      <g>
       <use xlink:href="#m7e498adbcc" x="52.679688" y="51.601503" style="stroke: #000000; stroke-width: 1.4"/>
      </g>
     </g>
     <g id="text_6">
      <!-- 0.5 -->
      <g transform="translate(21.845938 56.160565) scale(0.12 -0.12)">
       <use xlink:href="#DejaVuSans-30"/>
       <use xlink:href="#DejaVuSans-2e" transform="translate(63.623047 0)"/>
       <use xlink:href="#DejaVuSans-35" transform="translate(95.410156 0)"/>
      </g>
     </g>
    </g>
    <g id="ytick_3">
     <g id="line2d_6">
      <g>
       <use xlink:href="#m7e498adbcc" x="52.679688" y="11.759063" style="stroke: #000000; stroke-width: 1.4"/>
      </g>
     </g>
     <g id="text_7">
      <!-- 1.0 -->
      <g transform="translate(21.845938 16.318125) scale(0.12 -0.12)">
       <use xlink:href="#DejaVuSans-31"/>
       <use xlink:href="#DejaVuSans-2e" transform="translate(63.623047 0)"/>
       <use xlink:href="#DejaVuSans-30" transform="translate(95.410156 0)"/>
      </g>
     </g>
    </g>
    <g id="text_8">
     <!-- P(state) -->
     <g transform="translate(15.558281 74.879297) rotate(-90) scale(0.11 -0.11)">
      <defs>
       <path id="DejaVuSans-50" d="M 1259 4147 
L 1259 2394 
L 2053 2394 
Q 2494 2394 2734 2622 
Q 2975 2850 2975 3272 
Q 2975 3691 2734 3919 
Q 2494 4147 2053 4147 
L 1259 4147 
z
M 628 4666 
L 2053 4666 
Q 2838 4666 3239 4311 
Q 3641 3956 3641 3272 
Q 3641 2581 3239 2228 
Q 2838 1875 2053 1875 
L 1259 1875 
L 1259 0 
L 628 0 
L 628 4666 
z
" transform="scale(0.015625)"/>
       <path id="DejaVuSans-74" d="M 1172 4494 
L 1172 3500 
L 2356 3500 
L 2356 3053 
L 1172 3053 
L 1172 1153 
Q 1172 725 1289 603 
Q 1406 481 1766 481 
L 2356 481 
L 2356 0 
L 1766 0 
Q 1100 0 847 248 
Q 594 497 594 1153 
L 594 3053 
L 172 3053 
L 172 3500 
L 594 3500 
L 594 4494 
L 1172 4494 
z
" transform="scale(0.015625)"/>
       <path id="DejaVuSans-61" d="M 2194 1759 
Q 1497 1759 1228 1600 
Q 959 1441 959 1056 
Q 959 750 1161 570 
Q 1363 391 1709 391 
Q 2188 391 2477 730 
Q 2766 1069 2766 1631 
L 2766 1759 
L 2194 1759 
z
M 3341 1997 
L 3341 0 
L 2766 0 
L 2766 531 
Q 2569 213 2275 61 
Q 1981 -91 1556 -91 
Q 1019 -91 701 211 
Q 384 513 384 1019 
Q 384 1609 779 1909 
Q 1175 2209 1959 2209 
L 2766 2209 
L 2766 2266 
Q 2766 2663 2505 2880 
Q 2244 3097 1772 3097 
Q 1472 3097 1187 3025 
Q 903 2953 641 2809 
L 641 3341 
Q 956 3463 1253 3523 
Q 1550 3584 1831 3584 
Q 2591 3584 2966 3190 
Q 3341 2797 3341 1997 
z
" transform="scale(0.015625)"/>
      </defs>
      <use xlink:href="#DejaVuSans-50"/>
      <use xlink:href="#DejaVuSans-28" transform="translate(60.302734 0)"/>
      <use xlink:href="#DejaVuSans-73" transform="translate(99.316406 0)"/>
      <use xlink:href="#DejaVuSans-74" transform="translate(151.416016 0)"/>
      <use xlink:href="#DejaVuSans-61" transform="translate(190.625 0)"/>
      <use xlink:href="#DejaVuSans-74" transform="translate(251.904297 0)"/>
      <use xlink:href="#DejaVuSans-65" transform="translate(291.113281 0)"/>
      <use xlink:href="#DejaVuSans-29" transform="translate(352.636719 0)"/>
     </g>
    </g>
   </g>
   <g id="line2d_7">
    <path d="M 67.897869 40.81013 
L 70.972249 42.678295 
L 74.04663 34.990518 
L 77.12101 24.107881 
L 80.19539 24.374857 
L 83.26977 25.016799 
L 86.34415 30.915296 
L 89.41853 30.67055 
L 92.492911 29.880057 
L 95.567291 34.650603 
L 98.641671 37.69007 
L 101.716051 48.427857 
L 104.790431 40.772936 
L 107.864811 33.349157 
L 110.939192 30.609686 
L 114.013572 29.031489 
L 117.087952 37.153656 
L 120.162332 36.267673 
L 123.236712 33.35059 
L 126.311092 36.393841 
L 129.385473 32.422114 
L 132.459853 26.431218 
L 135.534233 26.771101 
L 138.608613 34.537526 
L 141.682993 40.058233 
L 144.757373 38.500276 
L 147.831754 36.206324 
L 150.906134 26.406741 
L 153.980514 34.639382 
L 157.054894 35.434489 
L 160.129274 41.343291 
L 163.203654 29.837539 
L 166.278035 31.24823 
L 169.352415 42.044184 
L 172.426795 43.045945 
L 175.501175 44.124581 
L 178.575555 47.065209 
L 181.649935 45.997832 
L 184.724316 42.644244 
L 187.798696 45.922632 
L 190.873076 42.164125 
L 193.947456 45.002569 
L 197.021836 44.91709 
L 200.096216 47.417461 
L 203.170597 49.623087 
L 206.244977 54.879937 
L 209.319357 60.614623 
L 212.393737 66.271215 
L 215.468117 62.406019 
L 218.542497 56.649586 
L 221.616878 52.992189 
L 224.691258 54.171307 
L 227.765638 54.099642 
L 230.840018 55.543086 
L 233.914398 57.327577 
L 236.988778 56.20564 
L 240.063159 56.087836 
L 243.137539 53.500709 
L 246.211919 52.767876 
L 249.286299 51.080198 
L 252.360679 58.718676 
L 255.435059 58.509113 
L 258.50944 64.044221 
L 261.58382 70.339424 
L 264.6582 65.11178 
L 267.73258 56.978616 
L 270.80696 49.42112 
L 273.88134 55.817551 
L 276.955721 52.409924 
L 280.030101 47.135261 
L 283.104481 40.147557 
L 286.178861 44.576542 
L 289.253241 37.468205 
L 292.327621 38.964708 
L 295.402002 40.629606 
L 298.476382 46.191417 
L 301.550762 40.56104 
L 304.625142 41.498831 
L 307.699522 40.941928 
L 310.773902 40.58457 
L 313.848283 41.5748 
L 316.922663 35.444953 
L 319.997043 32.62397 
L 323.071423 31.683288 
L 326.145803 34.872549 
L 329.220183 35.570848 
L 332.294564 42.709297 
L 335.368944 42.582068 
L 338.443324 47.684699 
L 341.517704 50.034398 
L 344.592084 49.801128 
L 347.666464 55.454762 
L 350.740845 58.744407 
L 353.815225 60.167483 
L 356.889605 62.642091 
L 359.963985 53.390484 
L 363.038365 54.330701 
L 366.112745 48.249947 
L 369.187126 50.057523 
L 372.261506 45.680435 
" clip-path="url(#pd25d1ba3e9)" style="fill: none; stroke: #ffa500; stroke-width: 2; stroke-linecap: square"/>
   </g>
   <g id="line2d_8">
    <path d="M 67.897869 61.560267 
L 70.972249 59.609946 
L 74.04663 68.8051 
L 77.12101 82.701169 
L 80.19539 81.510436 
L 83.26977 79.853792 
L 86.34415 71.717502 
L 89.41853 73.953215 
L 92.492911 82.120837 
L 95.567291 79.943346 
L 98.641671 76.170364 
L 101.716051 64.051697 
L 104.790431 76.158443 
L 107.864811 87.276988 
L 110.939192 88.85091 
L 114.013572 90.404869 
L 117.087952 88.763795 
L 120.162332 86.469969 
L 123.236712 87.806836 
L 126.311092 81.296222 
L 129.385473 81.652581 
L 132.459853 91.054065 
L 135.534233 89.217544 
L 138.608613 79.178401 
L 141.682993 71.648887 
L 144.757373 70.06562 
L 147.831754 70.249744 
L 150.906134 81.515032 
L 153.980514 69.146063 
L 157.054894 63.146253 
L 160.129274 52.273994 
L 163.203654 69.353876 
L 166.278035 70.600428 
L 169.352415 63.43214 
L 172.426795 65.147654 
L 175.501175 65.774655 
L 178.575555 62.563863 
L 181.649935 64.361826 
L 184.724316 70.14373 
L 187.798696 63.77548 
L 190.873076 68.394113 
L 193.947456 64.223768 
L 197.021836 63.906658 
L 200.096216 62.923727 
L 203.170597 59.921286 
L 206.244977 52.782875 
L 209.319357 43.518199 
L 212.393737 39.389757 
L 215.468117 47.449314 
L 218.542497 52.48963 
L 221.616878 55.982645 
L 224.691258 57.116802 
L 227.765638 62.141068 
L 230.840018 61.142577 
L 233.914398 58.789306 
L 236.988778 60.095546 
L 240.063159 52.652581 
L 243.137539 50.844046 
L 246.211919 48.918233 
L 249.286299 52.436079 
L 252.360679 46.311232 
L 255.435059 51.101072 
L 258.50944 50.959944 
L 261.58382 47.512642 
L 264.6582 52.593933 
L 267.73258 59.646146 
L 270.80696 65.152 
L 273.88134 52.289734 
L 276.955721 52.674204 
L 280.030101 60.295762 
L 283.104481 67.53798 
L 286.178861 58.305734 
L 289.253241 69.188252 
L 292.327621 68.695977 
L 295.402002 67.99169 
L 298.476382 60.483005 
L 301.550762 68.581371 
L 304.625142 68.881215 
L 307.699522 69.700291 
L 310.773902 68.685916 
L 313.848283 65.067634 
L 316.922663 71.969153 
L 319.997043 76.420419 
L 323.071423 79.209646 
L 326.145803 77.202372 
L 329.220183 76.249891 
L 332.294564 65.425125 
L 335.368944 70.390557 
L 338.443324 67.000505 
L 341.517704 64.258869 
L 344.592084 65.821653 
L 347.666464 58.265287 
L 350.740845 52.094711 
L 353.815225 49.550107 
L 356.889605 42.070535 
L 359.963985 51.043097 
L 363.038365 48.184879 
L 366.112745 56.982603 
L 369.187126 52.325636 
L 372.261506 57.745366 
" clip-path="url(#pd25d1ba3e9)" style="fill: none; stroke: #800080; stroke-width: 2; stroke-linecap: square"/>
   </g>
   <g id="patch_3">
    <path d="M 52.679688 91.443943 
L 52.679688 11.759063 
" style="fill: none; stroke: #000000; stroke-width: 1.2; stroke-linejoin: miter; stroke-linecap: square"/>
   </g>
   <g id="patch_4">
    <path d="M 67.897869 94.919063 
L 375.335886 94.919063 
" style="fill: none; stroke: #000000; stroke-width: 1.2; stroke-linejoin: miter; stroke-linecap: square"/>
   </g>
  </g>
 </g>
 <defs>
  <clipPath id="pd25d1ba3e9">
   <rect x="52.679688" y="11.759063" width="334.8" height="83.16"/>
  </clipPath>
 </defs>
</svg>
