<?xml version="1.0" encoding="utf-8" standalone="no"?>
<!DOCTYPE svg PUBLIC "-//W3C//DTD SVG 1.1//EN"
  "http://www.w3.org/Graphics/SVG/1.1/DTD/svg11.dtd">
<svg xmlns:xlink="http://www.w3.org/1999/xlink" width="324pt" height="108pt" viewBox="0 0 324 108" xmlns="http://www.w3.org/2000/svg" version="1.1">
 <metadata>
  <rdf:RDF xmlns:dc="http://purl.org/dc/elements/1.1/" xmlns:cc="http://creativecommons.org/ns#" xmlns:rdf="http://www.w3.org/1999/02/22-rdf-syntax-ns#">
   <cc:Work>
    <dc:type rdf:resource="http://purl.org/dc/dcmitype/StillImage"/>
    <dc:date>2026-04-16T15:31:46.562114</dc:date>
    <dc:format>image/svg+xml</dc:format>
    <dc:creator>
     <cc:Agent>
      <dc:title>Matplotlib v3.10.8, https://matplotlib.org/</dc:title>
     </cc:Agent>
    </dc:creator>
   </cc:Work>
  </rdf:RDF>
 </metadata>
 <defs>
  <style type="text/css">*{stroke-linejoin: round; stroke-linecap: butt}</style>
 </defs>
 <g id="figure_1">
  <g id="patch_1">
   <path d="M 0 108 
L 324 108 
L 324 0 
L 0 0 
L 0 108 
z
" style="fill: none"/>
  </g>
  <g id="axes_1">
   <g id="patch_2">
    <path d="M 40.5 70.2 
L 291.6 70.2 
L 291.6 12.96 
L 40.5 12.96 
L 40.5 70.2 
z
" style="fill: none"/>
   </g>
   <g id="PathCollection_1">
    <defs>
     <path id="m5d217645c2" d="M 0 1.936492 
C 0.513564 1.936492 1.006162 1.732451 1.369306 1.369306 
C 1.732451 1.006162 1.936492 0.513564 1.936492 0 
C 1.936492 -0.513564 1.732451 -1.006162 1.369306 -1.369306 
C 1.006162 -1.732451 0.513564 -1.936492 0 -1.936492 
C -0.513564 -1.936492 -1.006162 -1.732451 -1.369306 -1.369306 
C -1.732451 -1.006162 -1.936492 -0.513564 -1.936492 0 
C -1.936492 0.513564 -1.732451 1.006162 -1.369306 1.369306 
C -1.006162 1.732451 -0.513564 1.936492 0 1.936492 
z
"/>
    </defs>
    <g clip-path="url(#pbb2cc8cd3b)">
     <use xlink:href="#m5d217645c2" x="40.5" y="19.970002" style="fill-opacity: 0.2"/>
     <use xlink:href="#m5d217645c2" x="43.803947" y="20.679617" style="fill-opacity: 0.2"/>
     <use xlink:href="#m5d217645c2" x="47.107895" y="18.960205" style="fill-opacity: 0.2"/>
     <use xlink:href="#m5d217645c2" x="50.411842" y="20.559077" style="fill-opacity: 0.2"/>
     <use xlink:href="#m5d217645c2" x="53.715789" y="19.656926" style="fill-opacity: 0.2"/>
     <use xlink:href="#m5d217645c2" x="57.019737" y="18.841083" style="fill-opacity: 0.2"/>
     <use xlink:href="#m5d217645c2" x="60.323684" y="19.204266" style="fill-opacity: 0.2"/>
     <use xlink:href="#m5d217645c2" x="63.627632" y="20.861376" style="fill-opacity: 0.2"/>
     <use xlink:href="#m5d217645c2" x="66.931579" y="18.908863" style="fill-opacity: 0.2"/>
     <use xlink:href="#m5d217645c2" x="70.235526" y="18.77486" style="fill-opacity: 0.2"/>
     <use xlink:href="#m5d217645c2" x="73.539474" y="21.205275" style="fill-opacity: 0.2"/>
     <use xlink:href="#m5d217645c2" x="76.843421" y="19.93339" style="fill-opacity: 0.2"/>
     <use xlink:href="#m5d217645c2" x="80.147368" y="20.485614" style="fill-opacity: 0.2"/>
     <use xlink:href="#m5d217645c2" x="83.451316" y="18.16107" style="fill-opacity: 0.2"/>
     <use xlink:href="#m5d217645c2" x="86.755263" y="20.591073" style="fill-opacity: 0.2"/>
     <use xlink:href="#m5d217645c2" x="90.059211" y="18.864334" style="fill-opacity: 0.2"/>
     <use xlink:href="#m5d217645c2" x="93.363158" y="24.220039" style="fill-opacity: 0.2"/>
     <use xlink:href="#m5d217645c2" x="96.667105" y="25.477042" style="fill-opacity: 0.2"/>
     <use xlink:href="#m5d217645c2" x="99.971053" y="32.98982" style="fill-opacity: 0.2"/>
     <use xlink:href="#m5d217645c2" x="103.275" y="40.964362" style="fill-opacity: 0.2"/>
     <use xlink:href="#m5d217645c2" x="106.578947" y="21.268567" style="fill-opacity: 0.2"/>
     <use xlink:href="#m5d217645c2" x="109.882895" y="25.141087" style="fill-opacity: 0.2"/>
     <use xlink:href="#m5d217645c2" x="113.186842" y="35.966439" style="fill-opacity: 0.2"/>
     <use xlink:href="#m5d217645c2" x="116.490789" y="35.211287" style="fill-opacity: 0.2"/>
     <use xlink:href="#m5d217645c2" x="119.794737" y="43.289166" style="fill-opacity: 0.2"/>
     <use xlink:href="#m5d217645c2" x="123.098684" y="29.222967" style="fill-opacity: 0.2"/>
     <use xlink:href="#m5d217645c2" x="126.402632" y="23.447072" style="fill-opacity: 0.2"/>
     <use xlink:href="#m5d217645c2" x="129.706579" y="32.595476" style="fill-opacity: 0.2"/>
     <use xlink:href="#m5d217645c2" x="133.010526" y="34.714797" style="fill-opacity: 0.2"/>
     <use xlink:href="#m5d217645c2" x="136.314474" y="25.210063" style="fill-opacity: 0.2"/>
     <use xlink:href="#m5d217645c2" x="139.618421" y="29.298582" style="fill-opacity: 0.2"/>
     <use xlink:href="#m5d217645c2" x="142.922368" y="25.138055" style="fill-opacity: 0.2"/>
     <use xlink:href="#m5d217645c2" x="146.226316" y="36.668947" style="fill-opacity: 0.2"/>
     <use xlink:href="#m5d217645c2" x="149.530263" y="26.814471" style="fill-opacity: 0.2"/>
     <use xlink:href="#m5d217645c2" x="152.834211" y="24.734328" style="fill-opacity: 0.2"/>
     <use xlink:href="#m5d217645c2" x="156.138158" y="23.957647" style="fill-opacity: 0.2"/>
     <use xlink:href="#m5d217645c2" x="159.442105" y="33.437521" style="fill-opacity: 0.2"/>
     <use xlink:href="#m5d217645c2" x="162.746053" y="33.004128" style="fill-opacity: 0.2"/>
     <use xlink:href="#m5d217645c2" x="166.05" y="31.942985" style="fill-opacity: 0.2"/>
     <use xlink:href="#m5d217645c2" x="169.353947" y="48.348825" style="fill-opacity: 0.2"/>
     <use xlink:href="#m5d217645c2" x="172.657895" y="22.838786" style="fill-opacity: 0.2"/>
     <use xlink:href="#m5d217645c2" x="175.961842" y="26.362671" style="fill-opacity: 0.2"/>
     <use xlink:href="#m5d217645c2" x="179.265789" y="41.979751" style="fill-opacity: 0.2"/>
     <use xlink:href="#m5d217645c2" x="182.569737" y="58.244896" style="fill-opacity: 0.2"/>
     <use xlink:href="#m5d217645c2" x="185.873684" y="47.246546" style="fill-opacity: 0.2"/>
     <use xlink:href="#m5d217645c2" x="189.177632" y="21.24902" style="fill-opacity: 0.2"/>
     <use xlink:href="#m5d217645c2" x="192.481579" y="28.278617" style="fill-opacity: 0.2"/>
     <use xlink:href="#m5d217645c2" x="195.785526" y="19.877393" style="fill-opacity: 0.2"/>
     <use xlink:href="#m5d217645c2" x="199.089474" y="20.898402" style="fill-opacity: 0.2"/>
     <use xlink:href="#m5d217645c2" x="202.393421" y="20.605029" style="fill-opacity: 0.2"/>
     <use xlink:href="#m5d217645c2" x="205.697368" y="19.673755" style="fill-opacity: 0.2"/>
     <use xlink:href="#m5d217645c2" x="209.001316" y="20.494413" style="fill-opacity: 0.2"/>
     <use xlink:href="#m5d217645c2" x="212.305263" y="22.050576" style="fill-opacity: 0.2"/>
     <use xlink:href="#m5d217645c2" x="215.609211" y="20.558343" style="fill-opacity: 0.2"/>
     <use xlink:href="#m5d217645c2" x="218.913158" y="18.741513" style="fill-opacity: 0.2"/>
     <use xlink:href="#m5d217645c2" x="222.217105" y="19.306896" style="fill-opacity: 0.2"/>
     <use xlink:href="#m5d217645c2" x="225.521053" y="20.9329" style="fill-opacity: 0.2"/>
     <use xlink:href="#m5d217645c2" x="228.825" y="21.397555" style="fill-opacity: 0.2"/>
     <use xlink:href="#m5d217645c2" x="232.128947" y="19.744647" style="fill-opacity: 0.2"/>
     <use xlink:href="#m5d217645c2" x="235.432895" y="18.941812" style="fill-opacity: 0.2"/>
     <use xlink:href="#m5d217645c2" x="238.736842" y="20.096644" style="fill-opacity: 0.2"/>
     <use xlink:href="#m5d217645c2" x="242.040789" y="20.597526" style="fill-opacity: 0.2"/>
     <use xlink:href="#m5d217645c2" x="245.344737" y="19.03063" style="fill-opacity: 0.2"/>
     <use xlink:href="#m5d217645c2" x="248.648684" y="19.896596" style="fill-opacity: 0.2"/>
     <use xlink:href="#m5d217645c2" x="251.952632" y="20.10803" style="fill-opacity: 0.2"/>
     <use xlink:href="#m5d217645c2" x="255.256579" y="20.567686" style="fill-opacity: 0.2"/>
     <use xlink:href="#m5d217645c2" x="258.560526" y="19.107772" style="fill-opacity: 0.2"/>
     <use xlink:href="#m5d217645c2" x="261.864474" y="19.854802" style="fill-opacity: 0.2"/>
     <use xlink:href="#m5d217645c2" x="265.168421" y="19.022946" style="fill-opacity: 0.2"/>
     <use xlink:href="#m5d217645c2" x="268.472368" y="18.799441" style="fill-opacity: 0.2"/>
     <use xlink:href="#m5d217645c2" x="271.776316" y="20.049152" style="fill-opacity: 0.2"/>
     <use xlink:href="#m5d217645c2" x="275.080263" y="18.929849" style="fill-opacity: 0.2"/>
     <use xlink:href="#m5d217645c2" x="278.384211" y="19.264506" style="fill-opacity: 0.2"/>
     <use xlink:href="#m5d217645c2" x="281.688158" y="18.607014" style="fill-opacity: 0.2"/>
     <use xlink:href="#m5d217645c2" x="284.992105" y="19.30593" style="fill-opacity: 0.2"/>
     <use xlink:href="#m5d217645c2" x="288.296053" y="18.454672" style="fill-opacity: 0.2"/>
    </g>
   </g>
   <g id="patch_3">
    <path d="M 86.755263 70.2 
L 189.177632 70.2 
L 189.177632 12.96 
L 86.755263 12.96 
z
" clip-path="url(#pbb2cc8cd3b)" style="fill: #0000ff; opacity: 0.1"/>
   </g>
   <g id="patch_4">
    <path d="M 37.196053 70.2 
L 86.755263 70.2 
L 86.755263 12.96 
L 37.196053 12.96 
z
" clip-path="url(#pbb2cc8cd3b)" style="fill: #808080; opacity: 0.3"/>
   </g>
   <g id="patch_5">
    <path d="M 189.177632 70.2 
L 291.6 70.2 
L 291.6 12.96 
L 189.177632 12.96 
z
" clip-path="url(#pbb2cc8cd3b)" style="fill: #808080; opacity: 0.3"/>
   </g>
   <g id="matplotlib.axis_1">
    <g id="xtick_1">
     <g id="line2d_1">
      <defs>
       <path id="m53537c52e0" d="M 0 0 
L 0 8.25 
" style="stroke: #000000; stroke-width: 1.4"/>
      </defs>
      <g>
       <use xlink:href="#m53537c52e0" x="40.5" y="70.2" style="stroke: #000000; stroke-width: 1.4"/>
      </g>
     </g>
     <g id="text_1">
      <!-- 1 -->
      <g transform="translate(36.6825 91.068125) scale(0.12 -0.12)">
       <defs>
        <path id="DejaVuSans-31" d="M 794 531 
L 1825 531 
L 1825 4091 
L 703 3866 
L 703 4441 
L 1819 4666 
L 2450 4666 
L 2450 531 
L 3481 531 
L 3481 0 
L 794 0 
L 794 531 
z
" transform="scale(0.015625)"/>
       </defs>
       <use xlink:href="#DejaVuSans-31"/>
      </g>
     </g>
    </g>
    <g id="xtick_2">
     <g id="line2d_2">
      <g>
       <use xlink:href="#m53537c52e0" x="136.314474" y="70.2" style="stroke: #000000; stroke-width: 1.4"/>
      </g>
     </g>
     <g id="text_2">
      <!-- 30 -->
      <g transform="translate(128.679474 91.068125) scale(0.12 -0.12)">
       <defs>
        <path id="DejaVuSans-33" d="M 2597 2516 
Q 3050 2419 3304 2112 
Q 3559 1806 3559 1356 
Q 3559 666 3084 287 
Q 2609 -91 1734 -91 
Q 1441 -91 1130 -33 
Q 819 25 488 141 
L 488 750 
Q 750 597 1062 519 
Q 1375 441 1716 441 
Q 2309 441 2620 675 
Q 2931 909 2931 1356 
Q 2931 1769 2642 2001 
Q 2353 2234 1838 2234 
L 1294 2234 
L 1294 2753 
L 1863 2753 
Q 2328 2753 2575 2939 
Q 2822 3125 2822 3475 
Q 2822 3834 2567 4026 
Q 2313 4219 1838 4219 
Q 1578 4219 1281 4162 
Q 984 4106 628 3988 
L 628 4550 
Q 988 4650 1302 4700 
Q 1616 4750 1894 4750 
Q 2613 4750 3031 4423 
Q 3450 4097 3450 3541 
Q 3450 3153 3228 2886 
Q 3006 2619 2597 2516 
z
" transform="scale(0.015625)"/>
        <path id="DejaVuSans-30" d="M 2034 4250 
Q 1547 4250 1301 3770 
Q 1056 3291 1056 2328 
Q 1056 1369 1301 889 
Q 1547 409 2034 409 
Q 2525 409 2770 889 
Q 3016 1369 3016 2328 
Q 3016 3291 2770 3770 
Q 2525 4250 2034 4250 
z
M 2034 4750 
Q 2819 4750 3233 4129 
Q 3647 3509 3647 2328 
Q 3647 1150 3233 529 
Q 2819 -91 2034 -91 
Q 1250 -91 836 529 
Q 422 1150 422 2328 
Q 422 3509 836 4129 
Q 1250 4750 2034 4750 
z
" transform="scale(0.015625)"/>
       </defs>
       <use xlink:href="#DejaVuSans-33"/>
       <use xlink:href="#DejaVuSans-30" transform="translate(63.623047 0)"/>
      </g>
     </g>
    </g>
    <g id="xtick_3">
     <g id="line2d_3">
      <g>
       <use xlink:href="#m53537c52e0" x="235.432895" y="70.2" style="stroke: #000000; stroke-width: 1.4"/>
      </g>
     </g>
     <g id="text_3">
      <!-- 60 -->
      <g transform="translate(227.797895 91.068125) scale(0.12 -0.12)">
       <defs>
        <path id="DejaVuSans-36" d="M 2113 2584 
Q 1688 2584 1439 2293 
Q 1191 2003 1191 1497 
Q 1191 994 1439 701 
Q 1688 409 2113 409 
Q 2538 409 2786 701 
Q 3034 994 3034 1497 
Q 3034 2003 2786 2293 
Q 2538 2584 2113 2584 
z
M 3366 4563 
L 3366 3988 
Q 3128 4100 2886 4159 
Q 2644 4219 2406 4219 
Q 1781 4219 1451 3797 
Q 1122 3375 1075 2522 
Q 1259 2794 1537 2939 
Q 1816 3084 2150 3084 
Q 2853 3084 3261 2657 
Q 3669 2231 3669 1497 
Q 3669 778 3244 343 
Q 2819 -91 2113 -91 
Q 1303 -91 875 529 
Q 447 1150 447 2328 
Q 447 3434 972 4092 
Q 1497 4750 2381 4750 
Q 2619 4750 2861 4703 
Q 3103 4656 3366 4563 
z
" transform="scale(0.015625)"/>
       </defs>
       <use xlink:href="#DejaVuSans-36"/>
       <use xlink:href="#DejaVuSans-30" transform="translate(63.623047 0)"/>
      </g>
     </g>
    </g>
    <g id="text_4">
     <!-- Sessions -->
     <g transform="translate(142.199766 105.922031) scale(0.11 -0.11)">
      <defs>
       <path id="DejaVuSans-53" d="M 3425 4513 
L 3425 3897 
Q 3066 4069 2747 4153 
Q 2428 4238 2131 4238 
Q 1616 4238 1336 4038 
Q 1056 3838 1056 3469 
Q 1056 3159 1242 3001 
Q 1428 2844 1947 2747 
L 2328 2669 
Q 3034 2534 3370 2195 
Q 3706 1856 3706 1288 
Q 3706 609 3251 259 
Q 2797 -91 1919 -91 
Q 1588 -91 1214 -16 
Q 841 59 441 206 
L 441 856 
Q 825 641 1194 531 
Q 1563 422 1919 422 
Q 2459 422 2753 634 
Q 3047 847 3047 1241 
Q 3047 1584 2836 1778 
Q 2625 1972 2144 2069 
L 1759 2144 
Q 1053 2284 737 2584 
Q 422 2884 422 3419 
Q 422 4038 858 4394 
Q 1294 4750 2059 4750 
Q 2388 4750 2728 4690 
Q 3069 4631 3425 4513 
z
" transform="scale(0.015625)"/>
       <path id="DejaVuSans-65" d="M 3597 1894 
L 3597 1613 
L 953 1613 
Q 991 1019 1311 708 
Q 1631 397 2203 397 
Q 2534 397 2845 478 
Q 3156 559 3463 722 
L 3463 178 
Q 3153 47 2828 -22 
Q 2503 -91 2169 -91 
Q 1331 -91 842 396 
Q 353 884 353 1716 
Q 353 2575 817 3079 
Q 1281 3584 2069 3584 
Q 2775 3584 3186 3129 
Q 3597 2675 3597 1894 
z
M 3022 2063 
Q 3016 2534 2758 2815 
Q 2500 3097 2075 3097 
Q 1594 3097 1305 2825 
Q 1016 2553 972 2059 
L 3022 2063 
z
" transform="scale(0.015625)"/>
       <path id="DejaVuSans-73" d="M 2834 3397 
L 2834 2853 
Q 2591 2978 2328 3040 
Q 2066 3103 1784 3103 
Q 1356 3103 1142 2972 
Q 928 2841 928 2578 
Q 928 2378 1081 2264 
Q 1234 2150 1697 2047 
L 1894 2003 
Q 2506 1872 2764 1633 
Q 3022 1394 3022 966 
Q 3022 478 2636 193 
Q 2250 -91 1575 -91 
Q 1294 -91 989 -36 
Q 684 19 347 128 
L 347 722 
Q 666 556 975 473 
Q 1284 391 1588 391 
Q 1994 391 2212 530 
Q 2431 669 2431 922 
Q 2431 1156 2273 1281 
Q 2116 1406 1581 1522 
L 1381 1569 
Q 847 1681 609 1914 
Q 372 2147 372 2553 
Q 372 3047 722 3315 
Q 1072 3584 1716 3584 
Q 2034 3584 2315 3537 
Q 2597 3491 2834 3397 
z
" transform="scale(0.015625)"/>
       <path id="DejaVuSans-69" d="M 603 3500 
L 1178 3500 
L 1178 0 
L 603 0 
L 603 3500 
z
M 603 4863 
L 1178 4863 
L 1178 4134 
L 603 4134 
L 603 4863 
z
" transform="scale(0.015625)"/>
       <path id="DejaVuSans-6f" d="M 1959 3097 
Q 1497 3097 1228 2736 
Q 959 2375 959 1747 
Q 959 1119 1226 758 
Q 1494 397 1959 397 
Q 2419 397 2687 759 
Q 2956 1122 2956 1747 
Q 2956 2369 2687 2733 
Q 2419 3097 1959 3097 
z
M 1959 3584 
Q 2709 3584 3137 3096 
Q 3566 2609 3566 1747 
Q 3566 888 3137 398 
Q 2709 -91 1959 -91 
Q 1206 -91 779 398 
Q 353 888 353 1747 
Q 353 2609 779 3096 
Q 1206 3584 1959 3584 
z
" transform="scale(0.015625)"/>
       <path id="DejaVuSans-6e" d="M 3513 2113 
L 3513 0 
L 2938 0 
L 2938 2094 
Q 2938 2591 2744 2837 
Q 2550 3084 2163 3084 
Q 1697 3084 1428 2787 
Q 1159 2491 1159 1978 
L 1159 0 
L 581 0 
L 581 3500 
L 1159 3500 
L 1159 2956 
Q 1366 3272 1645 3428 
Q 1925 3584 2291 3584 
Q 2894 3584 3203 3211 
Q 3513 2838 3513 2113 
z
" transform="scale(0.015625)"/>
      </defs>
      <use xlink:href="#DejaVuSans-53"/>
      <use xlink:href="#DejaVuSans-65" transform="translate(63.476562 0)"/>
      <use xlink:href="#DejaVuSans-73" transform="translate(125 0)"/>
      <use xlink:href="#DejaVuSans-73" transform="translate(177.099609 0)"/>
      <use xlink:href="#DejaVuSans-69" transform="translate(229.199219 0)"/>
      <use xlink:href="#DejaVuSans-6f" transform="translate(256.982422 0)"/>
      <use xlink:href="#DejaVuSans-6e" transform="translate(318.164062 0)"/>
      <use xlink:href="#DejaVuSans-73" transform="translate(381.542969 0)"/>
     </g>
    </g>
   </g>
   <g id="matplotlib.axis_2">
    <g id="ytick_1">
     <g id="line2d_4">
      <defs>
       <path id="m45f6e6fdf5" d="M 0 0 
L -8.25 0 
" style="stroke: #000000; stroke-width: 1.4"/>
      </defs>
      <g>
       <use xlink:href="#m45f6e6fdf5" x="40.5" y="66.832941" style="stroke: #000000; stroke-width: 1.4"/>
      </g>
     </g>
     <g id="text_5">
      <!-- 0 -->
      <g transform="translate(21.115 71.392004) scale(0.12 -0.12)">
       <use xlink:href="#DejaVuSans-30"/>
      </g>
     </g>
    </g>
    <g id="ytick_2">
     <g id="line2d_5">
      <g>
       <use xlink:href="#m45f6e6fdf5" x="40.5" y="16.327059" style="stroke: #000000; stroke-width: 1.4"/>
      </g>
     </g>
     <g id="text_6">
      <!-- 3 -->
      <g transform="translate(21.115 20.886121) scale(0.12 -0.12)">
       <use xlink:href="#DejaVuSans-33"/>
      </g>
     </g>
    </g>
    <g id="text_7">
     <!-- Entropy -->
     <g transform="translate(14.827344 62.946641) rotate(-90) scale(0.11 -0.11)">
      <defs>
       <path id="DejaVuSans-45" d="M 628 4666 
L 3578 4666 
L 3578 4134 
L 1259 4134 
L 1259 2753 
L 3481 2753 
L 3481 2222 
L 1259 2222 
L 1259 531 
L 3634 531 
L 3634 0 
L 628 0 
L 628 4666 
z
" transform="scale(0.015625)"/>
       <path id="DejaVuSans-74" d="M 1172 4494 
L 1172 3500 
L 2356 3500 
L 2356 3053 
L 1172 3053 
L 1172 1153 
Q 1172 725 1289 603 
Q 1406 481 1766 481 
L 2356 481 
L 2356 0 
L 1766 0 
Q 1100 0 847 248 
Q 594 497 594 1153 
L 594 3053 
L 172 3053 
L 172 3500 
L 594 3500 
L 594 4494 
L 1172 4494 
z
" transform="scale(0.015625)"/>
       <path id="DejaVuSans-72" d="M 2631 2963 
Q 2534 3019 2420 3045 
Q 2306 3072 2169 3072 
Q 1681 3072 1420 2755 
Q 1159 2438 1159 1844 
L 1159 0 
L 581 0 
L 581 3500 
L 1159 3500 
L 1159 2956 
Q 1341 3275 1631 3429 
Q 1922 3584 2338 3584 
Q 2397 3584 2469 3576 
Q 2541 3569 2628 3553 
L 2631 2963 
z
" transform="scale(0.015625)"/>
       <path id="DejaVuSans-70" d="M 1159 525 
L 1159 -1331 
L 581 -1331 
L 581 3500 
L 1159 3500 
L 1159 2969 
Q 1341 3281 1617 3432 
Q 1894 3584 2278 3584 
Q 2916 3584 3314 3078 
Q 3713 2572 3713 1747 
Q 3713 922 3314 415 
Q 2916 -91 2278 -91 
Q 1894 -91 1617 61 
Q 1341 213 1159 525 
z
M 3116 1747 
Q 3116 2381 2855 2742 
Q 2594 3103 2138 3103 
Q 1681 3103 1420 2742 
Q 1159 2381 1159 1747 
Q 1159 1113 1420 752 
Q 1681 391 2138 391 
Q 2594 391 2855 752 
Q 3116 1113 3116 1747 
z
" transform="scale(0.015625)"/>
       <path id="DejaVuSans-79" d="M 2059 -325 
Q 1816 -950 1584 -1140 
Q 1353 -1331 966 -1331 
L 506 -1331 
L 506 -850 
L 844 -850 
Q 1081 -850 1212 -737 
Q 1344 -625 1503 -206 
L 1606 56 
L 191 3500 
L 800 3500 
L 1894 763 
L 2988 3500 
L 3597 3500 
L 2059 -325 
z
" transform="scale(0.015625)"/>
      </defs>
      <use xlink:href="#DejaVuSans-45"/>
      <use xlink:href="#DejaVuSans-6e" transform="translate(63.183594 0)"/>
      <use xlink:href="#DejaVuSans-74" transform="translate(126.5625 0)"/>
      <use xlink:href="#DejaVuSans-72" transform="translate(165.771484 0)"/>
      <use xlink:href="#DejaVuSans-6f" transform="translate(204.634766 0)"/>
      <use xlink:href="#DejaVuSans-70" transform="translate(265.816406 0)"/>
      <use xlink:href="#DejaVuSans-79" transform="translate(329.292969 0)"/>
     </g>
    </g>
   </g>
   <g id="line2d_6">
    <path d="M 40.5 19.970002 
L 43.803947 20.679617 
L 47.107895 18.960205 
L 50.411842 20.559077 
L 53.715789 19.656926 
L 57.019737 18.841083 
L 60.323684 19.204266 
L 63.627632 20.861376 
L 66.931579 18.908863 
L 70.235526 18.77486 
L 73.539474 21.205275 
L 76.843421 19.93339 
L 80.147368 20.485614 
L 83.451316 18.16107 
L 86.755263 20.591073 
L 90.059211 18.864334 
L 93.363158 24.220039 
L 96.667105 25.477042 
L 99.971053 32.98982 
L 103.275 40.964362 
L 106.578947 21.268567 
L 109.882895 25.141087 
L 113.186842 35.966439 
L 116.490789 35.211287 
L 119.794737 43.289166 
L 123.098684 29.222967 
L 126.402632 23.447072 
L 129.706579 32.595476 
L 133.010526 34.714797 
L 136.314474 25.210063 
L 139.618421 29.298582 
L 142.922368 25.138055 
L 146.226316 36.668947 
L 149.530263 26.814471 
L 152.834211 24.734328 
L 156.138158 23.957647 
L 159.442105 33.437521 
L 162.746053 33.004128 
L 166.05 31.942985 
L 169.353947 48.348825 
L 172.657895 22.838786 
L 175.961842 26.362671 
L 179.265789 41.979751 
L 182.569737 58.244896 
L 185.873684 47.246546 
L 189.177632 21.24902 
L 192.481579 28.278617 
L 195.785526 19.877393 
L 199.089474 20.898402 
L 202.393421 20.605029 
L 205.697368 19.673755 
L 209.001316 20.494413 
L 212.305263 22.050576 
L 215.609211 20.558343 
L 218.913158 18.741513 
L 222.217105 19.306896 
L 225.521053 20.9329 
L 228.825 21.397555 
L 232.128947 19.744647 
L 235.432895 18.941812 
L 238.736842 20.096644 
L 242.040789 20.597526 
L 245.344737 19.03063 
L 248.648684 19.896596 
L 251.952632 20.10803 
L 255.256579 20.567686 
L 258.560526 19.107772 
L 261.864474 19.854802 
L 265.168421 19.022946 
L 268.472368 18.799441 
L 271.776316 20.049152 
L 275.080263 18.929849 
L 278.384211 19.264506 
L 281.688158 18.607014 
L 284.992105 19.30593 
L 288.296053 18.454672 
" clip-path="url(#pbb2cc8cd3b)" style="fill: none; stroke: #000000; stroke-opacity: 0.2; stroke-width: 2; stroke-linecap: square"/>
   </g>
   <g id="patch_6">
    <path d="M 40.5 66.832941 
L 40.5 16.327059 
" style="fill: none; stroke: #000000; stroke-width: 1.2; stroke-linejoin: miter; stroke-linecap: square"/>
   </g>
   <g id="patch_7">
    <path d="M 291.6 70.2 
L 291.6 12.96 
" style="fill: none; stroke: #0000ff; stroke-width: 1.2; stroke-linejoin: miter; stroke-linecap: square"/>
   </g>
   <g id="patch_8">
    <path d="M 40.5 70.2 
L 291.6 70.2 
" style="fill: none; stroke: #000000; stroke-width: 1.2; stroke-linejoin: miter; stroke-linecap: square"/>
   </g>
   <g id="text_8">
    <!-- Mouse vs Mouse -->
    <g style="fill: #0000ff" transform="translate(100.896291 11.088281) scale(0.09 -0.09)">
     <defs>
      <path id="DejaVuSans-4d" d="M 628 4666 
L 1569 4666 
L 2759 1491 
L 3956 4666 
L 4897 4666 
L 4897 0 
L 4281 0 
L 4281 4097 
L 3078 897 
L 2444 897 
L 1241 4097 
L 1241 0 
L 628 0 
L 628 4666 
z
" transform="scale(0.015625)"/>
      <path id="DejaVuSans-75" d="M 544 1381 
L 544 3500 
L 1119 3500 
L 1119 1403 
Q 1119 906 1312 657 
Q 1506 409 1894 409 
Q 2359 409 2629 706 
Q 2900 1003 2900 1516 
L 2900 3500 
L 3475 3500 
L 3475 0 
L 2900 0 
L 2900 538 
Q 2691 219 2414 64 
Q 2138 -91 1772 -91 
Q 1169 -91 856 284 
Q 544 659 544 1381 
z
M 1991 3584 
L 1991 3584 
z
" transform="scale(0.015625)"/>
      <path id="DejaVuSans-20" transform="scale(0.015625)"/>
      <path id="DejaVuSans-76" d="M 191 3500 
L 800 3500 
L 1894 563 
L 2988 3500 
L 3597 3500 
L 2284 0 
L 1503 0 
L 191 3500 
z
" transform="scale(0.015625)"/>
     </defs>
     <use xlink:href="#DejaVuSans-4d"/>
     <use xlink:href="#DejaVuSans-6f" transform="translate(86.279297 0)"/>
     <use xlink:href="#DejaVuSans-75" transform="translate(147.460938 0)"/>
     <use xlink:href="#DejaVuSans-73" transform="translate(210.839844 0)"/>
     <use xlink:href="#DejaVuSans-65" transform="translate(262.939453 0)"/>
     <use xlink:href="#DejaVuSans-20" transform="translate(324.462891 0)"/>
     <use xlink:href="#DejaVuSans-76" transform="translate(356.25 0)"/>
     <use xlink:href="#DejaVuSans-73" transform="translate(415.429688 0)"/>
     <use xlink:href="#DejaVuSans-20" transform="translate(467.529297 0)"/>
     <use xlink:href="#DejaVuSans-4d" transform="translate(499.316406 0)"/>
     <use xlink:href="#DejaVuSans-6f" transform="translate(585.595703 0)"/>
     <use xlink:href="#DejaVuSans-75" transform="translate(646.777344 0)"/>
     <use xlink:href="#DejaVuSans-73" transform="translate(710.15625 0)"/>
     <use xlink:href="#DejaVuSans-65" transform="translate(762.255859 0)"/>
    </g>
   </g>
   <g id="text_9">
    <!-- Mouse vs CPU -->
    <g style="fill: #808080" transform="translate(22.097664 11.088281) scale(0.09 -0.09)">
     <defs>
      <path id="DejaVuSans-43" d="M 4122 4306 
L 4122 3641 
Q 3803 3938 3442 4084 
Q 3081 4231 2675 4231 
Q 1875 4231 1450 3742 
Q 1025 3253 1025 2328 
Q 1025 1406 1450 917 
Q 1875 428 2675 428 
Q 3081 428 3442 575 
Q 3803 722 4122 1019 
L 4122 359 
Q 3791 134 3420 21 
Q 3050 -91 2638 -91 
Q 1578 -91 968 557 
Q 359 1206 359 2328 
Q 359 3453 968 4101 
Q 1578 4750 2638 4750 
Q 3056 4750 3426 4639 
Q 3797 4528 4122 4306 
z
" transform="scale(0.015625)"/>
      <path id="DejaVuSans-50" d="M 1259 4147 
L 1259 2394 
L 2053 2394 
Q 2494 2394 2734 2622 
Q 2975 2850 2975 3272 
Q 2975 3691 2734 3919 
Q 2494 4147 2053 4147 
L 1259 4147 
z
M 628 4666 
L 2053 4666 
Q 2838 4666 3239 4311 
Q 3641 3956 3641 3272 
Q 3641 2581 3239 2228 
Q 2838 1875 2053 1875 
L 1259 1875 
L 1259 0 
L 628 0 
L 628 4666 
z
" transform="scale(0.015625)"/>
      <path id="DejaVuSans-55" d="M 556 4666 
L 1191 4666 
L 1191 1831 
Q 1191 1081 1462 751 
Q 1734 422 2344 422 
Q 2950 422 3222 751 
Q 3494 1081 3494 1831 
L 3494 4666 
L 4128 4666 
L 4128 1753 
Q 4128 841 3676 375 
Q 3225 -91 2344 -91 
Q 1459 -91 1007 375 
Q 556 841 556 1753 
L 556 4666 
z
" transform="scale(0.015625)"/>
     </defs>
     <use xlink:href="#DejaVuSans-4d"/>
     <use xlink:href="#DejaVuSans-6f" transform="translate(86.279297 0)"/>
     <use xlink:href="#DejaVuSans-75" transform="translate(147.460938 0)"/>
     <use xlink:href="#DejaVuSans-73" transform="translate(210.839844 0)"/>
     <use xlink:href="#DejaVuSans-65" transform="translate(262.939453 0)"/>
     <use xlink:href="#DejaVuSans-20" transform="translate(324.462891 0)"/>
     <use xlink:href="#DejaVuSans-76" transform="translate(356.25 0)"/>
     <use xlink:href="#DejaVuSans-73" transform="translate(415.429688 0)"/>
     <use xlink:href="#DejaVuSans-20" transform="translate(467.529297 0)"/>
     <use xlink:href="#DejaVuSans-43" transform="translate(499.316406 0)"/>
     <use xlink:href="#DejaVuSans-50" transform="translate(569.140625 0)"/>
     <use xlink:href="#DejaVuSans-55" transform="translate(629.443359 0)"/>
    </g>
   </g>
   <g id="text_10">
    <!-- Mouse vs CPU -->
    <g style="fill: #808080" transform="translate(203.81477 11.088281) scale(0.09 -0.09)">
     <use xlink:href="#DejaVuSans-4d"/>
     <use xlink:href="#DejaVuSans-6f" transform="translate(86.279297 0)"/>
     <use xlink:href="#DejaVuSans-75" transform="translate(147.460938 0)"/>
     <use xlink:href="#DejaVuSans-73" transform="translate(210.839844 0)"/>
     <use xlink:href="#DejaVuSans-65" transform="translate(262.939453 0)"/>
     <use xlink:href="#DejaVuSans-20" transform="translate(324.462891 0)"/>
     <use xlink:href="#DejaVuSans-76" transform="translate(356.25 0)"/>
     <use xlink:href="#DejaVuSans-73" transform="translate(415.429688 0)"/>
     <use xlink:href="#DejaVuSans-20" transform="translate(467.529297 0)"/>
     <use xlink:href="#DejaVuSans-43" transform="translate(499.316406 0)"/>
     <use xlink:href="#DejaVuSans-50" transform="translate(569.140625 0)"/>
     <use xlink:href="#DejaVuSans-55" transform="translate(629.443359 0)"/>
    </g>
   </g>
  </g>
  <g id="axes_2">
   <g id="line2d_7">
    <path d="M 40.5 41.58 
L 291.6 41.58 
" clip-path="url(#pbb2cc8cd3b)" style="fill: none; stroke-dasharray: 3.7,1.6; stroke-dashoffset: 0; stroke: #0000ff"/>
   </g>
   <g id="PathCollection_2">
    <defs>
     <path id="mf0ba131ce1" d="M 0 1.936492 
C 0.513564 1.936492 1.006162 1.732451 1.369306 1.369306 
C 1.732451 1.006162 1.936492 0.513564 1.936492 0 
C 1.936492 -0.513564 1.732451 -1.006162 1.369306 -1.369306 
C 1.006162 -1.732451 0.513564 -1.936492 0 -1.936492 
C -0.513564 -1.936492 -1.006162 -1.732451 -1.369306 -1.369306 
C -1.732451 -1.006162 -1.936492 -0.513564 -1.936492 0 
C -1.936492 0.513564 -1.732451 1.006162 -1.369306 1.369306 
C -1.006162 1.732451 -0.513564 1.936492 0 1.936492 
z
"/>
    </defs>
    <g clip-path="url(#pbb2cc8cd3b)">
     <use xlink:href="#mf0ba131ce1" x="40.5" y="41.074346" style="fill: #0000ff"/>
     <use xlink:href="#mf0ba131ce1" x="43.803947" y="42.846372" style="fill: #0000ff"/>
     <use xlink:href="#mf0ba131ce1" x="47.107895" y="42.051758" style="fill: #0000ff"/>
     <use xlink:href="#mf0ba131ce1" x="50.411842" y="44.888671" style="fill: #0000ff"/>
     <use xlink:href="#mf0ba131ce1" x="53.715789" y="37.606871" style="fill: #0000ff"/>
     <use xlink:href="#mf0ba131ce1" x="57.019737" y="38.12044" style="fill: #0000ff"/>
     <use xlink:href="#mf0ba131ce1" x="60.323684" y="40.766932" style="fill: #0000ff"/>
     <use xlink:href="#mf0ba131ce1" x="63.627632" y="43.793702" style="fill: #0000ff"/>
     <use xlink:href="#mf0ba131ce1" x="66.931579" y="39.78591" style="fill: #0000ff"/>
     <use xlink:href="#mf0ba131ce1" x="70.235526" y="41.502439" style="fill: #0000ff"/>
     <use xlink:href="#mf0ba131ce1" x="73.539474" y="44.416216" style="fill: #0000ff"/>
     <use xlink:href="#mf0ba131ce1" x="76.843421" y="41.922072" style="fill: #0000ff"/>
     <use xlink:href="#mf0ba131ce1" x="80.147368" y="43.17" style="fill: #0000ff"/>
     <use xlink:href="#mf0ba131ce1" x="83.451316" y="42.562059" style="fill: #0000ff"/>
     <use xlink:href="#mf0ba131ce1" x="86.755263" y="43.047692" style="fill: #0000ff"/>
     <use xlink:href="#mf0ba131ce1" x="90.059211" y="43.668155" style="fill: #0000ff"/>
     <use xlink:href="#mf0ba131ce1" x="93.363158" y="36.69907" style="fill: #0000ff"/>
     <use xlink:href="#mf0ba131ce1" x="96.667105" y="45.429474" style="fill: #0000ff"/>
     <use xlink:href="#mf0ba131ce1" x="99.971053" y="35.520391" style="fill: #0000ff"/>
     <use xlink:href="#mf0ba131ce1" x="103.275" y="27.024686" style="fill: #0000ff"/>
     <use xlink:href="#mf0ba131ce1" x="106.578947" y="40.261974" style="fill: #0000ff"/>
     <use xlink:href="#mf0ba131ce1" x="109.882895" y="38.978182" style="fill: #0000ff"/>
     <use xlink:href="#mf0ba131ce1" x="113.186842" y="33.948" style="fill: #0000ff"/>
     <use xlink:href="#mf0ba131ce1" x="116.490789" y="45.892603" style="fill: #0000ff"/>
     <use xlink:href="#mf0ba131ce1" x="119.794737" y="25.68" style="fill: #0000ff"/>
     <use xlink:href="#mf0ba131ce1" x="123.098684" y="46.369469" style="fill: #0000ff"/>
     <use xlink:href="#mf0ba131ce1" x="126.402632" y="46.065224" style="fill: #0000ff"/>
     <use xlink:href="#mf0ba131ce1" x="129.706579" y="39.847954" style="fill: #0000ff"/>
     <use xlink:href="#mf0ba131ce1" x="133.010526" y="27.892174" style="fill: #0000ff"/>
     <use xlink:href="#mf0ba131ce1" x="136.314474" y="36.946286" style="fill: #0000ff"/>
     <use xlink:href="#mf0ba131ce1" x="139.618421" y="40.712727" style="fill: #0000ff"/>
     <use xlink:href="#mf0ba131ce1" x="142.922368" y="40.651327" style="fill: #0000ff"/>
     <use xlink:href="#mf0ba131ce1" x="146.226316" y="42.145613" style="fill: #0000ff"/>
     <use xlink:href="#mf0ba131ce1" x="149.530263" y="34.627119" style="fill: #0000ff"/>
     <use xlink:href="#mf0ba131ce1" x="152.834211" y="33.247595" style="fill: #0000ff"/>
     <use xlink:href="#mf0ba131ce1" x="156.138158" y="39.358356" style="fill: #0000ff"/>
     <use xlink:href="#mf0ba131ce1" x="159.442105" y="46.135837" style="fill: #0000ff"/>
     <use xlink:href="#mf0ba131ce1" x="162.746053" y="35.480656" style="fill: #0000ff"/>
     <use xlink:href="#mf0ba131ce1" x="166.05" y="45.413832" style="fill: #0000ff"/>
     <use xlink:href="#mf0ba131ce1" x="169.353947" y="31.737143" style="fill: #0000ff"/>
     <use xlink:href="#mf0ba131ce1" x="172.657895" y="41.4528" style="fill: #0000ff"/>
     <use xlink:href="#mf0ba131ce1" x="175.961842" y="41.232389" style="fill: #0000ff"/>
     <use xlink:href="#mf0ba131ce1" x="179.265789" y="28.224" style="fill: #0000ff"/>
     <use xlink:href="#mf0ba131ce1" x="182.569737" y="32.536506" style="fill: #0000ff"/>
     <use xlink:href="#mf0ba131ce1" x="185.873684" y="37.563158" style="fill: #0000ff"/>
     <use xlink:href="#mf0ba131ce1" x="189.177632" y="46.645487" style="fill: #0000ff"/>
     <use xlink:href="#mf0ba131ce1" x="192.481579" y="48.70481" style="fill: #0000ff"/>
     <use xlink:href="#mf0ba131ce1" x="195.785526" y="45.351628" style="fill: #0000ff"/>
     <use xlink:href="#mf0ba131ce1" x="199.089474" y="46.885955" style="fill: #0000ff"/>
     <use xlink:href="#mf0ba131ce1" x="202.393421" y="42.696878" style="fill: #0000ff"/>
     <use xlink:href="#mf0ba131ce1" x="205.697368" y="44.730211" style="fill: #0000ff"/>
     <use xlink:href="#mf0ba131ce1" x="209.001316" y="44.67659" style="fill: #0000ff"/>
     <use xlink:href="#mf0ba131ce1" x="212.305263" y="42.092379" style="fill: #0000ff"/>
     <use xlink:href="#mf0ba131ce1" x="215.609211" y="43.467033" style="fill: #0000ff"/>
     <use xlink:href="#mf0ba131ce1" x="218.913158" y="45.0144" style="fill: #0000ff"/>
     <use xlink:href="#mf0ba131ce1" x="222.217105" y="40.885714" style="fill: #0000ff"/>
     <use xlink:href="#mf0ba131ce1" x="225.521053" y="43.229774" style="fill: #0000ff"/>
     <use xlink:href="#mf0ba131ce1" x="228.825" y="43.399769" style="fill: #0000ff"/>
     <use xlink:href="#mf0ba131ce1" x="232.128947" y="43.995974" style="fill: #0000ff"/>
     <use xlink:href="#mf0ba131ce1" x="235.432895" y="44.830471" style="fill: #0000ff"/>
     <use xlink:href="#mf0ba131ce1" x="238.736842" y="41.103" style="fill: #0000ff"/>
     <use xlink:href="#mf0ba131ce1" x="242.040789" y="39.954667" style="fill: #0000ff"/>
     <use xlink:href="#mf0ba131ce1" x="245.344737" y="41.806544" style="fill: #0000ff"/>
     <use xlink:href="#mf0ba131ce1" x="248.648684" y="45.054104" style="fill: #0000ff"/>
     <use xlink:href="#mf0ba131ce1" x="251.952632" y="40.233176" style="fill: #0000ff"/>
     <use xlink:href="#mf0ba131ce1" x="255.256579" y="43.312446" style="fill: #0000ff"/>
     <use xlink:href="#mf0ba131ce1" x="258.560526" y="42.097674" style="fill: #0000ff"/>
     <use xlink:href="#mf0ba131ce1" x="261.864474" y="43.959915" style="fill: #0000ff"/>
     <use xlink:href="#mf0ba131ce1" x="265.168421" y="41.773378" style="fill: #0000ff"/>
     <use xlink:href="#mf0ba131ce1" x="268.472368" y="41.987692" style="fill: #0000ff"/>
     <use xlink:href="#mf0ba131ce1" x="271.776316" y="46.5229" style="fill: #0000ff"/>
     <use xlink:href="#mf0ba131ce1" x="275.080263" y="43.568337" style="fill: #0000ff"/>
     <use xlink:href="#mf0ba131ce1" x="278.384211" y="43.172855" style="fill: #0000ff"/>
     <use xlink:href="#mf0ba131ce1" x="281.688158" y="45.356833" style="fill: #0000ff"/>
     <use xlink:href="#mf0ba131ce1" x="284.992105" y="42.976098" style="fill: #0000ff"/>
     <use xlink:href="#mf0ba131ce1" x="288.296053" y="42.748163" style="fill: #0000ff"/>
    </g>
   </g>
   <g id="matplotlib.axis_3">
    <g id="ytick_3">
     <g id="line2d_8">
      <defs>
       <path id="m94bf4b0b72" d="M 0 0 
L 8.25 0 
" style="stroke: #0000ff; stroke-width: 1.4"/>
      </defs>
      <g>
       <use xlink:href="#m94bf4b0b72" x="291.6" y="70.2" style="fill: #0000ff; stroke: #0000ff; stroke-width: 1.4"/>
      </g>
     </g>
     <g id="text_11">
      <!-- 0 -->
      <g style="fill: #0000ff" transform="translate(303.35 74.759062) scale(0.12 -0.12)">
       <use xlink:href="#DejaVuSans-30"/>
      </g>
     </g>
    </g>
    <g id="ytick_4">
     <g id="line2d_9">
      <g>
       <use xlink:href="#m94bf4b0b72" x="291.6" y="12.96" style="fill: #0000ff; stroke: #0000ff; stroke-width: 1.4"/>
      </g>
     </g>
     <g id="text_12">
      <!-- 1 -->
      <g style="fill: #0000ff" transform="translate(303.35 17.519062) scale(0.12 -0.12)">
       <use xlink:href="#DejaVuSans-31"/>
      </g>
     </g>
    </g>
    <g id="text_13">
     <!-- Reward rate -->
     <g style="fill: #0000ff" transform="translate(323.343281 74.983047) rotate(-90) scale(0.11 -0.11)">
      <defs>
       <path id="DejaVuSans-52" d="M 2841 2188 
Q 3044 2119 3236 1894 
Q 3428 1669 3622 1275 
L 4263 0 
L 3584 0 
L 2988 1197 
Q 2756 1666 2539 1819 
Q 2322 1972 1947 1972 
L 1259 1972 
L 1259 0 
L 628 0 
L 628 4666 
L 2053 4666 
Q 2853 4666 3247 4331 
Q 3641 3997 3641 3322 
Q 3641 2881 3436 2590 
Q 3231 2300 2841 2188 
z
M 1259 4147 
L 1259 2491 
L 2053 2491 
Q 2509 2491 2742 2702 
Q 2975 2913 2975 3322 
Q 2975 3731 2742 3939 
Q 2509 4147 2053 4147 
L 1259 4147 
z
" transform="scale(0.015625)"/>
       <path id="DejaVuSans-77" d="M 269 3500 
L 844 3500 
L 1563 769 
L 2278 3500 
L 2956 3500 
L 3675 769 
L 4391 3500 
L 4966 3500 
L 4050 0 
L 3372 0 
L 2619 2869 
L 1863 0 
L 1184 0 
L 269 3500 
z
" transform="scale(0.015625)"/>
       <path id="DejaVuSans-61" d="M 2194 1759 
Q 1497 1759 1228 1600 
Q 959 1441 959 1056 
Q 959 750 1161 570 
Q 1363 391 1709 391 
Q 2188 391 2477 730 
Q 2766 1069 2766 1631 
L 2766 1759 
L 2194 1759 
z
M 3341 1997 
L 3341 0 
L 2766 0 
L 2766 531 
Q 2569 213 2275 61 
Q 1981 -91 1556 -91 
Q 1019 -91 701 211 
Q 384 513 384 1019 
Q 384 1609 779 1909 
Q 1175 2209 1959 2209 
L 2766 2209 
L 2766 2266 
Q 2766 2663 2505 2880 
Q 2244 3097 1772 3097 
Q 1472 3097 1187 3025 
Q 903 2953 641 2809 
L 641 3341 
Q 956 3463 1253 3523 
Q 1550 3584 1831 3584 
Q 2591 3584 2966 3190 
Q 3341 2797 3341 1997 
z
" transform="scale(0.015625)"/>
       <path id="DejaVuSans-64" d="M 2906 2969 
L 2906 4863 
L 3481 4863 
L 3481 0 
L 2906 0 
L 2906 525 
Q 2725 213 2448 61 
Q 2172 -91 1784 -91 
Q 1150 -91 751 415 
Q 353 922 353 1747 
Q 353 2572 751 3078 
Q 1150 3584 1784 3584 
Q 2172 3584 2448 3432 
Q 2725 3281 2906 2969 
z
M 947 1747 
Q 947 1113 1208 752 
Q 1469 391 1925 391 
Q 2381 391 2643 752 
Q 2906 1113 2906 1747 
Q 2906 2381 2643 2742 
Q 2381 3103 1925 3103 
Q 1469 3103 1208 2742 
Q 947 2381 947 1747 
z
" transform="scale(0.015625)"/>
      </defs>
      <use xlink:href="#DejaVuSans-52"/>
      <use xlink:href="#DejaVuSans-65" transform="translate(64.982422 0)"/>
      <use xlink:href="#DejaVuSans-77" transform="translate(126.505859 0)"/>
      <use xlink:href="#DejaVuSans-61" transform="translate(208.292969 0)"/>
      <use xlink:href="#DejaVuSans-72" transform="translate(269.572266 0)"/>
      <use xlink:href="#DejaVuSans-64" transform="translate(308.935547 0)"/>
      <use xlink:href="#DejaVuSans-20" transform="translate(372.412109 0)"/>
      <use xlink:href="#DejaVuSans-72" transform="translate(404.199219 0)"/>
      <use xlink:href="#DejaVuSans-61" transform="translate(445.3125 0)"/>
      <use xlink:href="#DejaVuSans-74" transform="translate(506.591797 0)"/>
      <use xlink:href="#DejaVuSans-65" transform="translate(545.800781 0)"/>
     </g>
    </g>
   </g>
   <g id="line2d_10">
    <path d="M 40.5 41.074346 
L 43.803947 42.846372 
L 47.107895 42.051758 
L 50.411842 44.888671 
L 53.715789 37.606871 
L 57.019737 38.12044 
L 60.323684 40.766932 
L 63.627632 43.793702 
L 66.931579 39.78591 
L 70.235526 41.502439 
L 73.539474 44.416216 
L 76.843421 41.922072 
L 80.147368 43.17 
L 83.451316 42.562059 
L 86.755263 43.047692 
L 90.059211 43.668155 
L 93.363158 36.69907 
L 96.667105 45.429474 
L 99.971053 35.520391 
L 103.275 27.024686 
L 106.578947 40.261974 
L 109.882895 38.978182 
L 113.186842 33.948 
L 116.490789 45.892603 
L 119.794737 25.68 
L 123.098684 46.369469 
L 126.402632 46.065224 
L 129.706579 39.847954 
L 133.010526 27.892174 
L 136.314474 36.946286 
L 139.618421 40.712727 
L 142.922368 40.651327 
L 146.226316 42.145613 
L 149.530263 34.627119 
L 152.834211 33.247595 
L 156.138158 39.358356 
L 159.442105 46.135837 
L 162.746053 35.480656 
L 166.05 45.413832 
L 169.353947 31.737143 
L 172.657895 41.4528 
L 175.961842 41.232389 
L 179.265789 28.224 
L 182.569737 32.536506 
L 185.873684 37.563158 
L 189.177632 46.645487 
L 192.481579 48.70481 
L 195.785526 45.351628 
L 199.089474 46.885955 
L 202.393421 42.696878 
L 205.697368 44.730211 
L 209.001316 44.67659 
L 212.305263 42.092379 
L 215.609211 43.467033 
L 218.913158 45.0144 
L 222.217105 40.885714 
L 225.521053 43.229774 
L 228.825 43.399769 
L 232.128947 43.995974 
L 235.432895 44.830471 
L 238.736842 41.103 
L 242.040789 39.954667 
L 245.344737 41.806544 
L 248.648684 45.054104 
L 251.952632 40.233176 
L 255.256579 43.312446 
L 258.560526 42.097674 
L 261.864474 43.959915 
L 265.168421 41.773378 
L 268.472368 41.987692 
L 271.776316 46.5229 
L 275.080263 43.568337 
L 278.384211 43.172855 
L 281.688158 45.356833 
L 284.992105 42.976098 
L 288.296053 42.748163 
" clip-path="url(#pbb2cc8cd3b)" style="fill: none; stroke: #0000ff; stroke-width: 2; stroke-linecap: square"/>
   </g>
   <g id="patch_9">
    <path d="M 40.5 70.2 
L 40.5 12.96 
" style="fill: none; stroke: #000000; stroke-width: 1.2; stroke-linejoin: miter; stroke-linecap: square"/>
   </g>
   <g id="patch_10">
    <path d="M 40.5 70.2 
L 291.6 70.2 
" style="fill: none; stroke: #000000; stroke-width: 1.2; stroke-linejoin: miter; stroke-linecap: square"/>
   </g>
  </g>
 </g>
 <defs>
  <clipPath id="pbb2cc8cd3b">
   <rect x="40.5" y="12.96" width="251.1" height="57.24"/>
  </clipPath>
 </defs>
</svg>
