<?xml version="1.0" encoding="utf-8" standalone="no"?>
<!DOCTYPE svg PUBLIC "-//W3C//DTD SVG 1.1//EN"
  "http://www.w3.org/Graphics/SVG/1.1/DTD/svg11.dtd">
<svg xmlns:xlink="http://www.w3.org/1999/xlink" width="722.937821pt" height="230.254292pt" viewBox="0 0 722.937821 230.254292" xmlns="http://www.w3.org/2000/svg" version="1.1">
 <metadata>
  <rdf:RDF xmlns:dc="http://purl.org/dc/elements/1.1/" xmlns:cc="http://creativecommons.org/ns#" xmlns:rdf="http://www.w3.org/1999/02/22-rdf-syntax-ns#">
   <cc:Work>
    <dc:type rdf:resource="http://purl.org/dc/dcmitype/StillImage"/>
    <dc:date>2025-10-08T13:28:14.483390</dc:date>
    <dc:format>image/svg+xml</dc:format>
    <dc:creator>
     <cc:Agent>
      <dc:title>Matplotlib v3.10.6, https://matplotlib.org/</dc:title>
     </cc:Agent>
    </dc:creator>
   </cc:Work>
  </rdf:RDF>
 </metadata>
 <defs>
  <style type="text/css">*{stroke-linejoin: round; stroke-linecap: butt}</style>
 </defs>
 <g id="figure_1">
  <g id="patch_1">
   <path d="M 0 230.254292 
L 722.937821 230.254292 
L 722.937821 -0 
L 0 -0 
L 0 230.254292 
z
" style="fill: none"/>
  </g>
  <g id="axes_1">
   <g id="patch_2">
    <path d="M 41.230938 185.044604 
L 710.830938 185.044604 
L 710.830938 18.724604 
L 41.230938 18.724604 
L 41.230938 185.044604 
z
" style="fill: none"/>
   </g>
   <g id="matplotlib.axis_1">
    <g id="xtick_1">
     <g id="line2d_1">
      <defs>
       <path id="m01b0fe4326" d="M 0 0 
L 0 8.25 
" style="stroke: #000000; stroke-width: 1.4"/>
      </defs>
      <g>
       <use xlink:href="#m01b0fe4326" x="59.574983" y="185.044604" style="stroke: #000000; stroke-width: 1.4"/>
      </g>
     </g>
     <g id="text_1">
      <!-- 1 -->
      <g transform="translate(55.757483 205.912729) scale(0.12 -0.12)">
       <defs>
        <path id="DejaVuSans-31" d="M 794 531 
L 1825 531 
L 1825 4091 
L 703 3866 
L 703 4441 
L 1819 4666 
L 2450 4666 
L 2450 531 
L 3481 531 
L 3481 0 
L 794 0 
L 794 531 
z
" transform="scale(0.015625)"/>
       </defs>
       <use xlink:href="#DejaVuSans-31"/>
      </g>
     </g>
    </g>
    <g id="xtick_2">
     <g id="line2d_2">
      <g>
       <use xlink:href="#m01b0fe4326" x="700.467821" y="185.044604" style="stroke: #000000; stroke-width: 1.4"/>
      </g>
     </g>
     <g id="text_2">
      <!-- 2650 -->
      <g transform="translate(685.197821 205.912729) scale(0.12 -0.12)">
       <defs>
        <path id="DejaVuSans-32" d="M 1228 531 
L 3431 531 
L 3431 0 
L 469 0 
L 469 531 
Q 828 903 1448 1529 
Q 2069 2156 2228 2338 
Q 2531 2678 2651 2914 
Q 2772 3150 2772 3378 
Q 2772 3750 2511 3984 
Q 2250 4219 1831 4219 
Q 1534 4219 1204 4116 
Q 875 4013 500 3803 
L 500 4441 
Q 881 4594 1212 4672 
Q 1544 4750 1819 4750 
Q 2544 4750 2975 4387 
Q 3406 4025 3406 3419 
Q 3406 3131 3298 2873 
Q 3191 2616 2906 2266 
Q 2828 2175 2409 1742 
Q 1991 1309 1228 531 
z
" transform="scale(0.015625)"/>
        <path id="DejaVuSans-36" d="M 2113 2584 
Q 1688 2584 1439 2293 
Q 1191 2003 1191 1497 
Q 1191 994 1439 701 
Q 1688 409 2113 409 
Q 2538 409 2786 701 
Q 3034 994 3034 1497 
Q 3034 2003 2786 2293 
Q 2538 2584 2113 2584 
z
M 3366 4563 
L 3366 3988 
Q 3128 4100 2886 4159 
Q 2644 4219 2406 4219 
Q 1781 4219 1451 3797 
Q 1122 3375 1075 2522 
Q 1259 2794 1537 2939 
Q 1816 3084 2150 3084 
Q 2853 3084 3261 2657 
Q 3669 2231 3669 1497 
Q 3669 778 3244 343 
Q 2819 -91 2113 -91 
Q 1303 -91 875 529 
Q 447 1150 447 2328 
Q 447 3434 972 4092 
Q 1497 4750 2381 4750 
Q 2619 4750 2861 4703 
Q 3103 4656 3366 4563 
z
" transform="scale(0.015625)"/>
        <path id="DejaVuSans-35" d="M 691 4666 
L 3169 4666 
L 3169 4134 
L 1269 4134 
L 1269 2991 
Q 1406 3038 1543 3061 
Q 1681 3084 1819 3084 
Q 2600 3084 3056 2656 
Q 3513 2228 3513 1497 
Q 3513 744 3044 326 
Q 2575 -91 1722 -91 
Q 1428 -91 1123 -41 
Q 819 9 494 109 
L 494 744 
Q 775 591 1075 516 
Q 1375 441 1709 441 
Q 2250 441 2565 725 
Q 2881 1009 2881 1497 
Q 2881 1984 2565 2268 
Q 2250 2553 1709 2553 
Q 1456 2553 1204 2497 
Q 953 2441 691 2322 
L 691 4666 
z
" transform="scale(0.015625)"/>
        <path id="DejaVuSans-30" d="M 2034 4250 
Q 1547 4250 1301 3770 
Q 1056 3291 1056 2328 
Q 1056 1369 1301 889 
Q 1547 409 2034 409 
Q 2525 409 2770 889 
Q 3016 1369 3016 2328 
Q 3016 3291 2770 3770 
Q 2525 4250 2034 4250 
z
M 2034 4750 
Q 2819 4750 3233 4129 
Q 3647 3509 3647 2328 
Q 3647 1150 3233 529 
Q 2819 -91 2034 -91 
Q 1250 -91 836 529 
Q 422 1150 422 2328 
Q 422 3509 836 4129 
Q 1250 4750 2034 4750 
z
" transform="scale(0.015625)"/>
       </defs>
       <use xlink:href="#DejaVuSans-32"/>
       <use xlink:href="#DejaVuSans-36" transform="translate(63.623047 0)"/>
       <use xlink:href="#DejaVuSans-35" transform="translate(127.246094 0)"/>
       <use xlink:href="#DejaVuSans-30" transform="translate(190.869141 0)"/>
      </g>
     </g>
    </g>
    <g id="text_3">
     <!-- Trials -->
     <g transform="translate(361.930313 220.766636) scale(0.11 -0.11)">
      <defs>
       <path id="DejaVuSans-54" d="M -19 4666 
L 3928 4666 
L 3928 4134 
L 2272 4134 
L 2272 0 
L 1638 0 
L 1638 4134 
L -19 4134 
L -19 4666 
z
" transform="scale(0.015625)"/>
       <path id="DejaVuSans-72" d="M 2631 2963 
Q 2534 3019 2420 3045 
Q 2306 3072 2169 3072 
Q 1681 3072 1420 2755 
Q 1159 2438 1159 1844 
L 1159 0 
L 581 0 
L 581 3500 
L 1159 3500 
L 1159 2956 
Q 1341 3275 1631 3429 
Q 1922 3584 2338 3584 
Q 2397 3584 2469 3576 
Q 2541 3569 2628 3553 
L 2631 2963 
z
" transform="scale(0.015625)"/>
       <path id="DejaVuSans-69" d="M 603 3500 
L 1178 3500 
L 1178 0 
L 603 0 
L 603 3500 
z
M 603 4863 
L 1178 4863 
L 1178 4134 
L 603 4134 
L 603 4863 
z
" transform="scale(0.015625)"/>
       <path id="DejaVuSans-61" d="M 2194 1759 
Q 1497 1759 1228 1600 
Q 959 1441 959 1056 
Q 959 750 1161 570 
Q 1363 391 1709 391 
Q 2188 391 2477 730 
Q 2766 1069 2766 1631 
L 2766 1759 
L 2194 1759 
z
M 3341 1997 
L 3341 0 
L 2766 0 
L 2766 531 
Q 2569 213 2275 61 
Q 1981 -91 1556 -91 
Q 1019 -91 701 211 
Q 384 513 384 1019 
Q 384 1609 779 1909 
Q 1175 2209 1959 2209 
L 2766 2209 
L 2766 2266 
Q 2766 2663 2505 2880 
Q 2244 3097 1772 3097 
Q 1472 3097 1187 3025 
Q 903 2953 641 2809 
L 641 3341 
Q 956 3463 1253 3523 
Q 1550 3584 1831 3584 
Q 2591 3584 2966 3190 
Q 3341 2797 3341 1997 
z
" transform="scale(0.015625)"/>
       <path id="DejaVuSans-6c" d="M 603 4863 
L 1178 4863 
L 1178 0 
L 603 0 
L 603 4863 
z
" transform="scale(0.015625)"/>
       <path id="DejaVuSans-73" d="M 2834 3397 
L 2834 2853 
Q 2591 2978 2328 3040 
Q 2066 3103 1784 3103 
Q 1356 3103 1142 2972 
Q 928 2841 928 2578 
Q 928 2378 1081 2264 
Q 1234 2150 1697 2047 
L 1894 2003 
Q 2506 1872 2764 1633 
Q 3022 1394 3022 966 
Q 3022 478 2636 193 
Q 2250 -91 1575 -91 
Q 1294 -91 989 -36 
Q 684 19 347 128 
L 347 722 
Q 666 556 975 473 
Q 1284 391 1588 391 
Q 1994 391 2212 530 
Q 2431 669 2431 922 
Q 2431 1156 2273 1281 
Q 2116 1406 1581 1522 
L 1381 1569 
Q 847 1681 609 1914 
Q 372 2147 372 2553 
Q 372 3047 722 3315 
Q 1072 3584 1716 3584 
Q 2034 3584 2315 3537 
Q 2597 3491 2834 3397 
z
" transform="scale(0.015625)"/>
      </defs>
      <use xlink:href="#DejaVuSans-54"/>
      <use xlink:href="#DejaVuSans-72" transform="translate(46.333984 0)"/>
      <use xlink:href="#DejaVuSans-69" transform="translate(87.447266 0)"/>
      <use xlink:href="#DejaVuSans-61" transform="translate(115.230469 0)"/>
      <use xlink:href="#DejaVuSans-6c" transform="translate(176.509766 0)"/>
      <use xlink:href="#DejaVuSans-73" transform="translate(204.292969 0)"/>
     </g>
    </g>
   </g>
   <g id="matplotlib.axis_2">
    <g id="ytick_1">
     <g id="line2d_3">
      <defs>
       <path id="m3a38637feb" d="M 0 0 
L -8.25 0 
" style="stroke: #000000; stroke-width: 1.4"/>
      </defs>
      <g>
       <use xlink:href="#m3a38637feb" x="41.230938" y="177.484604" style="stroke: #000000; stroke-width: 1.4"/>
      </g>
     </g>
     <g id="text_4">
      <!-- 0 -->
      <g transform="translate(21.845938 182.043667) scale(0.12 -0.12)">
       <use xlink:href="#DejaVuSans-30"/>
      </g>
     </g>
    </g>
    <g id="ytick_2">
     <g id="line2d_4">
      <g>
       <use xlink:href="#m3a38637feb" x="41.230938" y="126.645177" style="stroke: #000000; stroke-width: 1.4"/>
      </g>
     </g>
     <g id="text_5">
      <!-- 1 -->
      <g transform="translate(21.845938 131.20424) scale(0.12 -0.12)">
       <use xlink:href="#DejaVuSans-31"/>
      </g>
     </g>
    </g>
    <g id="ytick_3">
     <g id="line2d_5">
      <g>
       <use xlink:href="#m3a38637feb" x="41.230938" y="75.80575" style="stroke: #000000; stroke-width: 1.4"/>
      </g>
     </g>
     <g id="text_6">
      <!-- 2 -->
      <g transform="translate(21.845938 80.364813) scale(0.12 -0.12)">
       <use xlink:href="#DejaVuSans-32"/>
      </g>
     </g>
    </g>
    <g id="ytick_4">
     <g id="line2d_6">
      <g>
       <use xlink:href="#m3a38637feb" x="41.230938" y="24.966323" style="stroke: #000000; stroke-width: 1.4"/>
      </g>
     </g>
     <g id="text_7">
      <!-- 3 -->
      <g transform="translate(21.845938 29.525385) scale(0.12 -0.12)">
       <defs>
        <path id="DejaVuSans-33" d="M 2597 2516 
Q 3050 2419 3304 2112 
Q 3559 1806 3559 1356 
Q 3559 666 3084 287 
Q 2609 -91 1734 -91 
Q 1441 -91 1130 -33 
Q 819 25 488 141 
L 488 750 
Q 750 597 1062 519 
Q 1375 441 1716 441 
Q 2309 441 2620 675 
Q 2931 909 2931 1356 
Q 2931 1769 2642 2001 
Q 2353 2234 1838 2234 
L 1294 2234 
L 1294 2753 
L 1863 2753 
Q 2328 2753 2575 2939 
Q 2822 3125 2822 3475 
Q 2822 3834 2567 4026 
Q 2313 4219 1838 4219 
Q 1578 4219 1281 4162 
Q 984 4106 628 3988 
L 628 4550 
Q 988 4650 1302 4700 
Q 1616 4750 1894 4750 
Q 2613 4750 3031 4423 
Q 3450 4097 3450 3541 
Q 3450 3153 3228 2886 
Q 3006 2619 2597 2516 
z
" transform="scale(0.015625)"/>
       </defs>
       <use xlink:href="#DejaVuSans-33"/>
      </g>
     </g>
    </g>
    <g id="text_8">
     <!-- Entropy (max 3 bits) -->
     <g transform="translate(15.558281 158.310308) rotate(-90) scale(0.11 -0.11)">
      <defs>
       <path id="DejaVuSans-45" d="M 628 4666 
L 3578 4666 
L 3578 4134 
L 1259 4134 
L 1259 2753 
L 3481 2753 
L 3481 2222 
L 1259 2222 
L 1259 531 
L 3634 531 
L 3634 0 
L 628 0 
L 628 4666 
z
" transform="scale(0.015625)"/>
       <path id="DejaVuSans-6e" d="M 3513 2113 
L 3513 0 
L 2938 0 
L 2938 2094 
Q 2938 2591 2744 2837 
Q 2550 3084 2163 3084 
Q 1697 3084 1428 2787 
Q 1159 2491 1159 1978 
L 1159 0 
L 581 0 
L 581 3500 
L 1159 3500 
L 1159 2956 
Q 1366 3272 1645 3428 
Q 1925 3584 2291 3584 
Q 2894 3584 3203 3211 
Q 3513 2838 3513 2113 
z
" transform="scale(0.015625)"/>
       <path id="DejaVuSans-74" d="M 1172 4494 
L 1172 3500 
L 2356 3500 
L 2356 3053 
L 1172 3053 
L 1172 1153 
Q 1172 725 1289 603 
Q 1406 481 1766 481 
L 2356 481 
L 2356 0 
L 1766 0 
Q 1100 0 847 248 
Q 594 497 594 1153 
L 594 3053 
L 172 3053 
L 172 3500 
L 594 3500 
L 594 4494 
L 1172 4494 
z
" transform="scale(0.015625)"/>
       <path id="DejaVuSans-6f" d="M 1959 3097 
Q 1497 3097 1228 2736 
Q 959 2375 959 1747 
Q 959 1119 1226 758 
Q 1494 397 1959 397 
Q 2419 397 2687 759 
Q 2956 1122 2956 1747 
Q 2956 2369 2687 2733 
Q 2419 3097 1959 3097 
z
M 1959 3584 
Q 2709 3584 3137 3096 
Q 3566 2609 3566 1747 
Q 3566 888 3137 398 
Q 2709 -91 1959 -91 
Q 1206 -91 779 398 
Q 353 888 353 1747 
Q 353 2609 779 3096 
Q 1206 3584 1959 3584 
z
" transform="scale(0.015625)"/>
       <path id="DejaVuSans-70" d="M 1159 525 
L 1159 -1331 
L 581 -1331 
L 581 3500 
L 1159 3500 
L 1159 2969 
Q 1341 3281 1617 3432 
Q 1894 3584 2278 3584 
Q 2916 3584 3314 3078 
Q 3713 2572 3713 1747 
Q 3713 922 3314 415 
Q 2916 -91 2278 -91 
Q 1894 -91 1617 61 
Q 1341 213 1159 525 
z
M 3116 1747 
Q 3116 2381 2855 2742 
Q 2594 3103 2138 3103 
Q 1681 3103 1420 2742 
Q 1159 2381 1159 1747 
Q 1159 1113 1420 752 
Q 1681 391 2138 391 
Q 2594 391 2855 752 
Q 3116 1113 3116 1747 
z
" transform="scale(0.015625)"/>
       <path id="DejaVuSans-79" d="M 2059 -325 
Q 1816 -950 1584 -1140 
Q 1353 -1331 966 -1331 
L 506 -1331 
L 506 -850 
L 844 -850 
Q 1081 -850 1212 -737 
Q 1344 -625 1503 -206 
L 1606 56 
L 191 3500 
L 800 3500 
L 1894 763 
L 2988 3500 
L 3597 3500 
L 2059 -325 
z
" transform="scale(0.015625)"/>
       <path id="DejaVuSans-20" transform="scale(0.015625)"/>
       <path id="DejaVuSans-28" d="M 1984 4856 
Q 1566 4138 1362 3434 
Q 1159 2731 1159 2009 
Q 1159 1288 1364 580 
Q 1569 -128 1984 -844 
L 1484 -844 
Q 1016 -109 783 600 
Q 550 1309 550 2009 
Q 550 2706 781 3412 
Q 1013 4119 1484 4856 
L 1984 4856 
z
" transform="scale(0.015625)"/>
       <path id="DejaVuSans-6d" d="M 3328 2828 
Q 3544 3216 3844 3400 
Q 4144 3584 4550 3584 
Q 5097 3584 5394 3201 
Q 5691 2819 5691 2113 
L 5691 0 
L 5113 0 
L 5113 2094 
Q 5113 2597 4934 2840 
Q 4756 3084 4391 3084 
Q 3944 3084 3684 2787 
Q 3425 2491 3425 1978 
L 3425 0 
L 2847 0 
L 2847 2094 
Q 2847 2600 2669 2842 
Q 2491 3084 2119 3084 
Q 1678 3084 1418 2786 
Q 1159 2488 1159 1978 
L 1159 0 
L 581 0 
L 581 3500 
L 1159 3500 
L 1159 2956 
Q 1356 3278 1631 3431 
Q 1906 3584 2284 3584 
Q 2666 3584 2933 3390 
Q 3200 3197 3328 2828 
z
" transform="scale(0.015625)"/>
       <path id="DejaVuSans-78" d="M 3513 3500 
L 2247 1797 
L 3578 0 
L 2900 0 
L 1881 1375 
L 863 0 
L 184 0 
L 1544 1831 
L 300 3500 
L 978 3500 
L 1906 2253 
L 2834 3500 
L 3513 3500 
z
" transform="scale(0.015625)"/>
       <path id="DejaVuSans-62" d="M 3116 1747 
Q 3116 2381 2855 2742 
Q 2594 3103 2138 3103 
Q 1681 3103 1420 2742 
Q 1159 2381 1159 1747 
Q 1159 1113 1420 752 
Q 1681 391 2138 391 
Q 2594 391 2855 752 
Q 3116 1113 3116 1747 
z
M 1159 2969 
Q 1341 3281 1617 3432 
Q 1894 3584 2278 3584 
Q 2916 3584 3314 3078 
Q 3713 2572 3713 1747 
Q 3713 922 3314 415 
Q 2916 -91 2278 -91 
Q 1894 -91 1617 61 
Q 1341 213 1159 525 
L 1159 0 
L 581 0 
L 581 4863 
L 1159 4863 
L 1159 2969 
z
" transform="scale(0.015625)"/>
       <path id="DejaVuSans-29" d="M 513 4856 
L 1013 4856 
Q 1481 4119 1714 3412 
Q 1947 2706 1947 2009 
Q 1947 1309 1714 600 
Q 1481 -109 1013 -844 
L 513 -844 
Q 928 -128 1133 580 
Q 1338 1288 1338 2009 
Q 1338 2731 1133 3434 
Q 928 4138 513 4856 
z
" transform="scale(0.015625)"/>
      </defs>
      <use xlink:href="#DejaVuSans-45"/>
      <use xlink:href="#DejaVuSans-6e" transform="translate(63.183594 0)"/>
      <use xlink:href="#DejaVuSans-74" transform="translate(126.5625 0)"/>
      <use xlink:href="#DejaVuSans-72" transform="translate(165.771484 0)"/>
      <use xlink:href="#DejaVuSans-6f" transform="translate(204.634766 0)"/>
      <use xlink:href="#DejaVuSans-70" transform="translate(265.816406 0)"/>
      <use xlink:href="#DejaVuSans-79" transform="translate(329.292969 0)"/>
      <use xlink:href="#DejaVuSans-20" transform="translate(388.472656 0)"/>
      <use xlink:href="#DejaVuSans-28" transform="translate(420.259766 0)"/>
      <use xlink:href="#DejaVuSans-6d" transform="translate(459.273438 0)"/>
      <use xlink:href="#DejaVuSans-61" transform="translate(556.685547 0)"/>
      <use xlink:href="#DejaVuSans-78" transform="translate(617.964844 0)"/>
      <use xlink:href="#DejaVuSans-20" transform="translate(677.144531 0)"/>
      <use xlink:href="#DejaVuSans-33" transform="translate(708.931641 0)"/>
      <use xlink:href="#DejaVuSans-20" transform="translate(772.554688 0)"/>
      <use xlink:href="#DejaVuSans-62" transform="translate(804.341797 0)"/>
      <use xlink:href="#DejaVuSans-69" transform="translate(867.818359 0)"/>
      <use xlink:href="#DejaVuSans-74" transform="translate(895.601562 0)"/>
      <use xlink:href="#DejaVuSans-73" transform="translate(934.810547 0)"/>
      <use xlink:href="#DejaVuSans-29" transform="translate(986.910156 0)"/>
     </g>
    </g>
   </g>
   <g id="line2d_7">
    <path d="M 125.115345 185.044604 
L 125.115345 18.724604 
" clip-path="url(#p68044ea986)" style="fill: none; stroke: #808080; stroke-opacity: 0.5; stroke-linecap: square"/>
   </g>
   <g id="line2d_8">
    <path d="M 186.544319 185.044604 
L 186.544319 18.724604 
" clip-path="url(#p68044ea986)" style="fill: none; stroke: #808080; stroke-opacity: 0.5; stroke-linecap: square"/>
   </g>
   <g id="line2d_9">
    <path d="M 225.723429 185.044604 
L 225.723429 18.724604 
" clip-path="url(#p68044ea986)" style="fill: none; stroke: #808080; stroke-opacity: 0.5; stroke-linecap: square"/>
   </g>
   <g id="line2d_10">
    <path d="M 253.293913 185.044604 
L 253.293913 18.724604 
" clip-path="url(#p68044ea986)" style="fill: none; stroke: #808080; stroke-opacity: 0.5; stroke-linecap: square"/>
   </g>
   <g id="line2d_11">
    <path d="M 285.943171 185.044604 
L 285.943171 18.724604 
" clip-path="url(#p68044ea986)" style="fill: none; stroke: #808080; stroke-opacity: 0.5; stroke-linecap: square"/>
   </g>
   <g id="line2d_12">
    <path d="M 322.945663 185.044604 
L 322.945663 18.724604 
" clip-path="url(#p68044ea986)" style="fill: none; stroke: #808080; stroke-opacity: 0.5; stroke-linecap: square"/>
   </g>
   <g id="line2d_13">
    <path d="M 364.059543 185.044604 
L 364.059543 18.724604 
" clip-path="url(#p68044ea986)" style="fill: none; stroke: #808080; stroke-opacity: 0.5; stroke-linecap: square"/>
   </g>
   <g id="line2d_14">
    <path d="M 410.252197 185.044604 
L 410.252197 18.724604 
" clip-path="url(#p68044ea986)" style="fill: none; stroke: #808080; stroke-opacity: 0.5; stroke-linecap: square"/>
   </g>
   <g id="line2d_15">
    <path d="M 470.471939 185.044604 
L 470.471939 18.724604 
" clip-path="url(#p68044ea986)" style="fill: none; stroke: #808080; stroke-opacity: 0.5; stroke-linecap: square"/>
   </g>
   <g id="line2d_16">
    <path d="M 501.428272 185.044604 
L 501.428272 18.724604 
" clip-path="url(#p68044ea986)" style="fill: none; stroke: #808080; stroke-opacity: 0.5; stroke-linecap: square"/>
   </g>
   <g id="line2d_17">
    <path d="M 530.207988 185.044604 
L 530.207988 18.724604 
" clip-path="url(#p68044ea986)" style="fill: none; stroke: #808080; stroke-opacity: 0.5; stroke-linecap: square"/>
   </g>
   <g id="line2d_18">
    <path d="M 564.308324 185.044604 
L 564.308324 18.724604 
" clip-path="url(#p68044ea986)" style="fill: none; stroke: #808080; stroke-opacity: 0.5; stroke-linecap: square"/>
   </g>
   <g id="line2d_19">
    <path d="M 609.775439 185.044604 
L 609.775439 18.724604 
" clip-path="url(#p68044ea986)" style="fill: none; stroke: #808080; stroke-opacity: 0.5; stroke-linecap: square"/>
   </g>
   <g id="line2d_20">
    <path d="M 647.745316 185.044604 
L 647.745316 18.724604 
" clip-path="url(#p68044ea986)" style="fill: none; stroke: #808080; stroke-opacity: 0.5; stroke-linecap: square"/>
   </g>
   <g id="line2d_21">
    <path d="M 71.667301 73.427794 
L 72.150994 78.018176 
L 73.118379 78.018176 
L 73.843918 71.094405 
L 74.569457 71.094405 
L 75.05315 75.562313 
L 75.294996 80.073533 
L 75.778689 93.594101 
L 76.020536 96.217345 
L 76.262382 96.217345 
L 76.746075 101.932462 
L 76.987921 108.925593 
L 77.471614 115.243332 
L 77.71346 114.366225 
L 78.438999 125.463257 
L 78.922692 125.463257 
L 79.164538 121.719528 
L 79.890077 121.719528 
L 80.37377 114.366225 
L 80.857463 114.366225 
L 81.583002 103.586229 
L 82.308541 92.932266 
L 83.275926 92.932266 
L 83.517772 89.877781 
L 84.727004 67.105116 
L 85.210697 66.021517 
L 85.936236 56.158232 
L 86.178082 56.158232 
L 86.903621 48.268207 
L 88.596546 48.268207 
L 89.322085 42.1434 
L 89.563931 42.1434 
L 89.805778 43.49777 
L 90.047624 43.49777 
L 90.28947 41.950875 
L 90.531317 41.689566 
L 90.773163 41.950875 
L 91.256856 45.392715 
L 91.740549 49.739235 
L 92.466088 44.289878 
L 92.707934 43.759607 
L 92.94978 43.759607 
L 93.191627 44.289878 
L 93.433473 43.759607 
L 93.675319 43.759607 
L 94.642705 34.675837 
L 94.884551 34.990061 
L 95.126397 34.990061 
L 95.368244 35.384367 
L 95.61009 36.308945 
L 95.851937 35.994721 
L 96.335629 36.62317 
L 96.577476 38.678526 
L 96.819322 42.583038 
L 97.061168 43.158571 
L 97.544861 43.158571 
L 97.786707 44.777327 
L 98.2704 44.201794 
L 98.754093 40.754171 
L 98.995939 39.75409 
L 99.237785 39.75409 
L 99.963325 36.766851 
L 100.205171 36.499861 
L 100.447017 31.922424 
L 100.688864 31.922424 
L 100.93071 31.049509 
L 101.414403 30.392551 
L 101.656249 30.392551 
L 101.898095 30.621114 
L 102.139942 31.049509 
L 102.623634 30.392551 
L 102.865481 30.392551 
L 103.107327 30.659541 
L 103.59102 30.659541 
L 103.832866 30.392551 
L 104.074713 30.392551 
L 104.558405 31.155094 
L 104.800252 31.155094 
L 105.042098 29.055056 
L 105.283944 28.110379 
L 105.525791 28.110379 
L 105.767637 27.522334 
L 106.009483 27.843389 
L 106.25133 27.119455 
L 106.493176 27.119455 
L 106.735022 26.852466 
L 106.976869 26.852466 
L 107.460562 28.043403 
L 107.702408 28.916318 
L 108.186101 32.171716 
L 108.669793 35.961095 
L 109.153486 38.400068 
L 109.637179 42.643358 
L 110.120871 42.643358 
L 110.362718 41.919424 
L 110.84641 41.919424 
L 111.088257 41.15613 
L 111.330103 41.550437 
L 111.57195 41.15613 
L 111.813796 39.033702 
L 112.297489 43.759607 
L 112.781181 49.739235 
L 113.748567 62.171326 
L 113.990413 64.881378 
L 114.474106 64.881378 
L 114.715952 66.62251 
L 115.925184 91.083593 
L 116.16703 91.083593 
L 116.650723 85.156629 
L 117.376262 94.123438 
L 121.48765 94.123438 
L 122.455035 115.325132 
L 122.696882 111.488396 
L 122.938728 114.283124 
L 123.180575 110.948435 
L 123.664267 98.797335 
L 123.906114 98.797335 
L 125.115345 91.760114 
M 137.449509 154.930628 
L 139.867973 154.930628 
L 140.593512 177.484604 
L 155.587986 177.484604 
L 157.039064 134.859483 
L 157.28091 134.859483 
L 158.006449 117.294584 
L 158.248296 117.294584 
L 158.973835 103.896161 
L 159.699374 103.896161 
L 160.424913 92.776612 
L 161.875991 92.776612 
L 162.60153 83.415497 
L 163.327069 83.415497 
L 164.052608 75.562313 
L 166.954765 75.562313 
L 167.196611 78.018176 
L 168.163996 103.111353 
L 168.405843 105.836973 
L 168.647689 105.836973 
L 169.373228 115.243332 
L 169.615074 114.366225 
L 170.340614 125.463257 
L 171.066153 125.463257 
L 171.791692 138.573957 
L 172.033538 138.573957 
L 172.759077 125.463257 
L 173.000923 125.463257 
L 173.24277 121.719528 
L 173.968309 121.719528 
L 174.452002 114.366225 
L 174.693848 114.366225 
L 175.419387 125.463257 
L 179.530775 125.463257 
L 180.256314 114.366225 
L 181.465546 114.366225 
L 181.707392 115.243332 
L 183.400317 115.243332 
L 184.125856 126.234386 
L 184.367702 126.234386 
L 185.335087 144.3975 
L 185.81878 144.3975 
L 186.060627 139.186243 
L 186.544319 139.186243 
M 198.878483 146.973744 
L 201.78064 146.973744 
L 202.748025 177.484604 
L 211.69634 177.484604 
L 212.905572 135.233228 
L 213.389265 135.233228 
L 213.631111 134.359758 
L 213.872957 134.359758 
L 216.049574 80.748431 
L 216.775113 72.634757 
L 217.258806 59.608913 
L 217.500653 54.684735 
L 217.742499 53.204566 
L 217.984345 53.673677 
L 218.468038 52.336436 
L 218.709884 52.171051 
L 219.193577 54.559572 
L 219.435423 54.995732 
L 219.919116 56.767404 
L 220.644655 61.47246 
L 221.370194 66.829133 
L 221.853887 72.330328 
L 222.095733 75.804253 
L 222.579426 78.874151 
L 223.063119 87.067393 
L 223.304965 88.460908 
L 223.546811 93.454373 
L 223.788658 94.74459 
L 225.239736 126.696941 
L 225.481582 134.153137 
L 225.723429 134.859483 
M 238.057593 144.3975 
L 238.299439 139.186243 
L 239.024978 139.186243 
L 239.266824 134.829606 
L 239.750517 134.829606 
L 239.992363 139.186243 
L 240.476056 139.186243 
L 240.959749 130.511987 
L 241.201595 123.254452 
L 241.685288 115.353848 
L 242.410827 115.353848 
L 242.652673 111.733126 
L 243.620059 85.832256 
L 243.861905 82.448453 
L 244.103751 82.448453 
L 244.345598 81.10808 
L 247.005908 81.10808 
L 247.247754 79.728914 
L 247.731447 79.728914 
L 247.973293 78.309559 
L 249.182525 78.309559 
L 249.424371 76.870904 
L 249.666218 76.304478 
L 250.391757 62.91525 
L 251.117296 62.91525 
L 251.842835 53.596503 
L 252.084681 54.58412 
L 252.326527 56.443965 
L 252.568374 57.200805 
L 253.052067 64.69988 
L 253.293913 63.231569 
M 265.628077 177.484604 
L 285.943171 177.484604 
M 298.277335 49.012281 
L 298.761027 47.125327 
L 299.002874 41.564356 
L 299.24472 41.116824 
L 299.486566 39.900034 
L 299.970259 39.900034 
L 300.212106 39.302878 
L 300.695798 34.711231 
L 300.937645 33.329943 
L 301.421337 33.329943 
L 301.663184 34.030433 
L 301.90503 32.614816 
L 302.146876 32.614816 
L 302.388723 33.178104 
L 302.630569 32.663315 
L 302.872415 34.221548 
L 303.114262 36.72742 
L 303.356108 37.501657 
L 303.597955 37.501657 
L 304.081647 38.15232 
L 304.323494 37.440476 
L 305.290879 42.360121 
L 305.532725 41.694135 
L 305.774572 39.745726 
L 306.016418 39.115412 
L 306.258264 38.810628 
L 306.741957 36.143229 
L 307.22565 33.705448 
L 307.467496 33.705448 
L 308.193035 38.241926 
L 309.160421 46.975527 
L 309.88596 46.975527 
L 310.127806 48.214329 
L 310.369652 50.978038 
L 310.853345 58.071919 
L 311.095191 60.98193 
L 311.337038 67.610037 
L 311.578884 68.333971 
L 311.820731 67.610037 
L 312.304423 62.320131 
L 313.029962 62.320131 
L 313.271809 64.568444 
L 313.513655 65.292378 
L 314.722887 65.292378 
L 314.964733 67.610037 
L 315.690272 77.482781 
L 316.657658 77.482781 
L 318.108736 93.766572 
L 318.350582 94.711249 
L 318.592428 97.817177 
L 319.076121 97.817177 
L 319.559814 95.438697 
L 319.80166 95.438697 
L 320.043507 92.300947 
L 320.769046 88.708698 
L 321.010892 86.287773 
L 321.252738 87.794935 
L 321.494585 87.794935 
L 321.978277 81.662396 
L 322.46197 78.835884 
L 322.703816 80.39548 
L 322.945663 86.816928 
M 335.279827 177.484604 
L 364.059543 177.484604 
M 376.393707 177.484604 
L 394.77403 177.484604 
L 395.499569 154.930628 
L 403.480499 154.930628 
L 404.206038 139.186243 
L 404.68973 137.939774 
L 406.140809 137.939774 
L 406.866348 154.148113 
L 410.252197 154.148113 
M 422.586361 154.148113 
L 423.3119 177.484604 
L 435.162371 177.484604 
L 435.646064 154.351615 
L 435.88791 153.683281 
L 436.855296 111.446397 
L 437.338988 114.845996 
L 437.822681 114.845996 
L 438.064527 116.408003 
L 438.306374 116.408003 
L 438.54822 111.114083 
L 438.790066 101.057317 
L 439.031913 96.350471 
L 439.273759 94.501014 
L 439.757452 94.501014 
L 439.999298 91.243663 
L 440.241144 85.011563 
L 440.482991 83.022902 
L 440.724837 78.113364 
L 440.966684 80.135813 
L 441.20853 78.113364 
L 441.450376 78.113364 
L 441.692223 80.135813 
L 442.175915 76.007696 
L 442.417762 78.113364 
L 442.659608 78.113364 
L 442.901454 76.007696 
L 443.143301 76.007696 
L 443.626993 69.908937 
L 444.110686 65.894652 
L 444.352532 67.892514 
L 444.594379 67.892514 
L 444.836225 65.894652 
L 445.319918 65.894652 
L 445.561764 67.892514 
L 446.045457 67.892514 
L 446.287303 69.834907 
L 446.52915 67.892514 
L 446.770996 69.540735 
L 447.012842 78.839043 
L 447.254689 83.02003 
L 447.738381 102.696211 
L 447.980228 102.696211 
L 448.222074 107.048814 
L 448.46392 105.527473 
L 448.705767 105.527473 
L 448.947613 103.939442 
L 449.18946 103.939442 
L 449.431306 107.789601 
L 449.673152 113.454453 
L 449.914999 113.454453 
L 450.156845 119.267847 
L 450.398691 120.726533 
L 450.640538 120.726533 
L 451.12423 135.419615 
L 451.366077 136.510136 
L 451.607923 143.876959 
L 451.849769 144.754503 
L 452.333462 144.754503 
L 452.575309 145.583279 
L 453.059001 145.583279 
L 453.542694 147.110349 
L 454.026387 147.110349 
L 454.268233 147.815503 
L 454.751926 167.28508 
L 454.993772 167.524689 
L 455.235618 177.484604 
L 461.76547 177.484604 
L 462.007316 167.524689 
L 462.249163 167.28508 
L 462.732855 147.110349 
L 465.876858 147.110349 
L 466.118704 147.815503 
L 466.360551 147.815503 
L 466.602397 148.485719 
L 466.844243 148.485719 
L 467.569782 130.068186 
L 467.811629 131.008073 
L 468.053475 131.008073 
L 468.295322 131.908172 
L 468.537168 131.908172 
L 468.779014 132.771 
L 469.020861 132.771 
L 469.7464 135.15802 
L 469.988246 135.15802 
L 470.471939 136.600708 
M 482.806103 154.930628 
L 491.512571 154.930628 
L 492.238111 177.484604 
L 498.526116 177.484604 
L 499.251655 154.930628 
L 501.428272 154.930628 
M 513.762436 177.484604 
L 530.207988 177.484604 
M 542.542152 177.484604 
L 559.95509 177.484604 
L 560.680629 150.865696 
L 561.164321 150.865696 
L 561.406168 150.311566 
L 561.648014 150.311566 
L 562.6154 147.815503 
L 563.582785 144.754503 
L 564.308324 141.956629 
M 576.642488 177.484604 
L 602.278202 177.484604 
L 603.003741 150.311566 
L 603.971126 150.311566 
L 604.212972 149.731511 
L 604.696665 149.731511 
L 604.938511 150.311566 
L 605.422204 150.311566 
L 606.38959 152.389288 
L 606.631436 152.389288 
L 606.873282 152.855752 
L 607.115129 152.855752 
L 607.356975 152.389288 
L 607.840668 153.303646 
L 608.566207 153.303646 
L 609.291746 136.600708 
L 609.775439 136.600708 
M 622.109603 34.110746 
L 622.351449 32.721626 
L 622.593295 32.191354 
L 623.318834 32.191354 
L 623.560681 32.017602 
L 623.802527 33.186168 
L 624.044373 32.990588 
L 624.28622 34.379708 
L 624.528066 32.990588 
L 624.769912 33.186168 
L 625.011759 32.816835 
L 625.253605 32.816835 
L 625.737298 33.516237 
L 626.220991 37.101301 
L 626.462837 37.101301 
L 626.704683 38.448127 
L 626.94653 38.448127 
L 627.188376 37.254587 
L 627.672069 32.99041 
L 627.913915 32.99041 
L 628.155761 34.18395 
L 628.397608 36.175399 
L 628.8813 38.346802 
L 629.364993 41.159294 
L 629.848686 41.159294 
L 630.332379 39.742233 
L 630.816071 35.698592 
L 631.54161 35.698592 
L 632.508996 42.394933 
L 632.992689 46.975527 
L 633.234535 46.975527 
L 633.960074 55.091985 
L 634.443767 60.716477 
L 635.169306 60.716477 
L 635.652998 67.515502 
L 636.378537 80.041085 
L 637.104077 68.862327 
L 637.345923 68.862327 
L 638.071462 79.754802 
L 638.555155 91.429787 
L 639.52254 108.863708 
L 639.764386 108.863708 
L 640.006233 107.802351 
L 640.973618 107.802351 
L 641.215465 112.043583 
L 641.941004 133.472058 
L 642.18285 137.939774 
L 642.424696 133.472058 
L 642.908389 142.123845 
L 643.150235 147.15515 
L 643.875774 145.409122 
L 644.359467 133.598863 
L 644.601313 133.598863 
L 645.085006 131.908172 
L 645.326853 131.908172 
L 646.052392 129.085771 
L 646.777931 129.085771 
L 647.019777 128.05783 
L 647.261623 128.05783 
L 647.50347 126.981087 
L 647.745316 126.981087 
M 660.07948 159.685526 
L 660.563173 177.484604 
L 664.432715 177.484604 
L 665.158254 151.395653 
L 666.851178 151.395653 
L 667.093024 151.903032 
L 667.334871 151.395653 
L 667.818563 151.395653 
L 668.06041 151.903032 
L 668.302256 151.903032 
L 668.544103 152.389288 
L 669.269642 135.893073 
L 669.753334 137.282466 
L 669.995181 137.282466 
L 670.478873 135.893073 
L 671.204412 135.893073 
L 671.688105 134.393885 
L 671.929951 134.393885 
L 672.413644 132.771 
L 672.655491 132.771 
L 673.139183 131.008073 
L 673.38103 125.965957 
L 673.622876 124.954287 
L 673.864722 119.915246 
L 674.348415 117.619136 
L 674.590261 112.531469 
L 674.832108 111.244942 
L 675.073954 111.244942 
L 675.799493 107.048814 
L 676.525032 123.420338 
L 676.766879 123.420338 
L 677.734264 117.726352 
L 678.217957 114.366225 
L 678.459803 114.366225 
L 679.185342 108.506704 
L 679.427188 108.506704 
L 679.669035 116.896201 
L 679.910881 118.80461 
L 680.152728 125.530365 
L 680.394574 125.530365 
L 680.394574 125.530365 
" clip-path="url(#p68044ea986)" style="fill: none; stroke: #228833; stroke-width: 2; stroke-linecap: square"/>
   </g>
   <g id="line2d_22">
    <path d="M 71.667301 30.429755 
L 71.909147 30.234176 
L 72.150994 30.234176 
L 72.39284 30.653455 
L 72.634687 30.339231 
L 72.876533 31.507797 
L 73.602072 36.012816 
L 73.843918 36.382149 
L 74.085765 37.620951 
L 74.569457 43.601108 
L 74.811304 45.11575 
L 75.778689 45.11575 
L 76.020536 47.048731 
L 76.262382 47.910743 
L 76.504228 49.457638 
L 77.229767 59.809816 
L 77.71346 59.809816 
L 78.438999 52.963337 
L 80.857463 52.963337 
L 81.099309 55.727045 
L 81.341155 59.91192 
L 81.824848 70.654836 
L 82.792233 79.921498 
L 83.03408 79.921498 
L 83.275926 77.866142 
L 83.517772 77.049588 
L 83.759619 77.049588 
L 84.001465 79.933233 
L 84.727004 79.933233 
L 85.452543 90.082961 
L 85.69439 90.082961 
L 86.661775 75.594739 
L 87.145468 64.351107 
L 88.112853 51.2584 
L 89.080239 41.15613 
L 89.322085 43.759607 
L 89.563931 43.759607 
L 89.805778 44.468138 
L 90.531317 44.468138 
L 92.224241 63.290564 
L 94.159012 63.290564 
L 94.400858 66.98523 
L 94.642705 66.98523 
L 95.126397 68.045773 
L 96.335629 51.2584 
L 97.061168 42.970994 
L 98.2704 57.144285 
L 98.512246 60.716477 
L 98.754093 62.063303 
L 98.995939 62.063303 
L 99.237785 62.98788 
L 100.205171 78.16416 
L 100.447017 78.16416 
L 100.688864 74.886208 
L 100.93071 74.886208 
L 101.414403 81.101628 
L 105.767637 81.101628 
L 106.009483 84.48543 
L 106.25133 85.015701 
L 106.493176 87.995635 
L 106.735022 87.179081 
L 107.218715 88.920213 
L 107.460562 91.960058 
L 107.702408 91.960058 
L 107.944254 92.776612 
L 108.186101 94.517744 
L 108.427947 97.606364 
L 108.669793 97.606364 
L 109.153486 91.083593 
L 109.395332 84.189585 
L 109.879025 78.368472 
L 110.120871 81.252117 
L 110.604564 81.252117 
L 110.84641 78.368472 
L 111.57195 78.368472 
L 112.297489 87.179081 
L 113.50672 73.398933 
L 113.748567 71.003105 
L 117.376262 71.003105 
L 117.618108 73.398933 
L 118.585494 93.017239 
L 118.82734 93.017239 
L 119.311033 96.533604 
L 119.552879 99.698158 
L 120.036572 99.698158 
L 120.762111 110.581596 
L 121.48765 110.581596 
L 122.213189 122.108771 
L 123.180575 122.108771 
L 123.664267 114.368232 
L 123.906114 114.368232 
L 124.873499 131.247914 
L 125.115345 131.247914 
M 137.449509 27.470288 
L 137.691356 28.663828 
L 137.933202 28.663828 
L 138.175048 29.344417 
L 138.658741 29.344417 
L 138.900588 30.733537 
L 139.142434 30.733537 
L 139.38428 31.728351 
L 139.867973 34.990061 
L 140.109819 34.990061 
L 140.351666 37.239521 
L 140.593512 36.385179 
L 141.319051 36.385179 
L 141.560897 37.239521 
L 141.802744 37.083205 
L 142.04459 38.408088 
L 142.528283 35.914639 
L 142.770129 37.655771 
L 143.011976 36.801429 
L 143.253822 36.801429 
L 143.495668 35.876851 
L 143.737515 34.487731 
L 143.979361 38.392243 
L 144.221207 37.972963 
L 144.463054 37.972963 
L 144.7049 38.681494 
L 144.946746 40.600885 
L 145.188593 36.382149 
L 145.430439 36.382149 
L 145.914132 34.847218 
L 146.155978 34.847218 
L 146.639671 35.70156 
L 147.123364 31.922392 
L 147.36521 31.922392 
L 147.848903 34.046508 
L 148.090749 34.046508 
L 148.332595 34.714221 
L 148.574442 34.242088 
L 148.816288 34.714221 
L 149.058134 34.242088 
L 149.541827 31.922392 
L 149.783673 32.341672 
L 150.02552 33.091021 
L 150.509213 31.371832 
L 150.751059 31.371832 
L 150.992905 30.51749 
L 151.234752 30.51749 
L 151.476598 31.371832 
L 152.68583 31.371832 
L 152.927676 32.696714 
L 153.169522 33.272248 
L 153.411369 32.852968 
L 153.653215 32.852968 
L 153.895061 33.272248 
L 154.136908 32.696714 
L 154.378754 31.371832 
L 154.620601 32.226174 
L 154.862447 34.28153 
L 155.104293 38.500267 
L 155.34614 39.510925 
L 155.587986 38.917892 
L 155.829832 38.917892 
L 156.071679 39.493426 
L 156.313525 38.917892 
L 156.555371 35.01338 
L 156.797218 34.437846 
L 157.039064 35.01338 
L 157.28091 35.01338 
L 157.764603 33.583442 
L 158.006449 33.583442 
L 158.248296 34.332791 
L 158.490142 34.5941 
L 158.731989 34.332791 
L 158.973835 33.583442 
L 159.215681 34.332791 
L 159.457528 34.332791 
L 159.699374 33.583442 
L 159.94122 33.583442 
L 160.183067 33.409689 
L 160.424913 34.002722 
L 160.666759 34.972562 
L 160.908606 36.535435 
L 161.150452 37.020444 
L 161.392298 37.17676 
L 161.634145 37.17676 
L 161.875991 37.020444 
L 162.117837 36.535435 
L 162.60153 40.285006 
L 162.843377 41.176419 
L 163.085223 40.508706 
L 163.327069 40.993715 
L 163.568916 38.744255 
L 164.294455 36.256805 
L 164.536301 36.256805 
L 164.778147 36.651111 
L 165.019994 36.256805 
L 165.26184 33.52086 
L 165.745533 33.03708 
L 165.987379 31.236655 
L 166.229226 31.121139 
L 166.712918 29.049208 
L 166.954765 29.049208 
L 167.196611 28.415741 
L 167.438457 28.415741 
L 167.680304 28.836932 
L 168.405843 28.836932 
L 168.647689 28.628017 
L 168.889535 28.109939 
L 169.131382 28.109939 
L 169.373228 28.628017 
L 169.615074 28.109939 
L 169.856921 28.628017 
L 170.098767 28.109939 
L 171.307999 28.109939 
L 171.549845 27.77429 
L 172.033538 27.77429 
L 172.517231 27.256212 
L 172.759077 28.013052 
L 173.484616 28.013052 
L 173.726462 28.292178 
L 173.968309 27.535338 
L 174.210155 27.535338 
L 174.452002 27.256212 
L 174.693848 27.256212 
L 174.935694 26.641438 
L 175.177541 26.377601 
L 175.419387 26.704633 
L 175.661233 26.644813 
L 175.90308 26.284604 
L 176.386772 26.906488 
L 176.870465 31.040674 
L 177.112311 36.163311 
L 177.596004 36.875156 
L 177.83785 36.875156 
L 178.079697 36.55089 
L 178.321543 36.875156 
L 178.56339 36.55089 
L 178.805236 36.55089 
L 179.530775 39.129194 
L 179.772621 40.719734 
L 180.014468 40.520725 
L 180.49816 39.441813 
L 180.740007 39.442441 
L 180.981853 38.82532 
L 181.223699 38.82532 
L 181.465546 38.065448 
L 181.707392 37.71064 
L 181.949239 37.955875 
L 182.191085 38.546617 
L 182.432931 37.327089 
L 183.15847 40.939272 
L 183.400317 40.788937 
L 183.642163 41.695006 
L 183.884009 44.523253 
L 184.609548 62.869781 
L 184.851395 75.874254 
L 185.093241 78.204378 
L 185.81878 68.996441 
L 186.060627 73.030671 
L 186.302473 73.75319 
L 186.544319 87.958201 
M 198.878483 47.684058 
L 199.12033 50.978038 
L 199.604022 54.219281 
L 199.845869 54.927812 
L 200.571408 66.875668 
L 200.813254 68.947748 
L 201.0551 68.947748 
L 201.296947 69.209058 
L 201.538793 68.947748 
L 201.78064 71.343576 
L 203.71541 71.343576 
L 204.199103 76.62734 
L 204.682796 84.189585 
L 204.924642 87.179081 
L 205.166488 87.179081 
L 205.408335 90.613232 
L 206.617567 122.528129 
L 206.859413 126.234386 
L 208.068645 126.234386 
L 208.794184 139.186243 
L 210.487108 139.186243 
L 211.212647 154.930628 
L 212.180033 154.930628 
L 212.905572 177.484604 
L 219.435423 177.484604 
L 219.919116 162.156673 
L 220.160962 161.889322 
L 220.402809 154.148113 
L 220.886501 153.303646 
L 221.128348 153.303646 
L 222.33758 150.865696 
L 222.579426 150.311566 
L 222.821272 150.311566 
L 223.304965 149.123604 
L 223.788658 149.123604 
L 224.514197 147.110349 
L 224.756043 147.110349 
L 225.723429 143.876959 
M 238.057593 50.367863 
L 239.024978 57.559076 
L 239.266824 58.686691 
L 239.508671 59.105971 
L 239.750517 58.686691 
L 240.23421 56.697064 
L 240.476056 56.327731 
L 240.717903 56.697064 
L 240.959749 56.697064 
L 241.201595 55.563317 
L 241.443442 55.563317 
L 241.927134 62.147128 
L 242.410827 55.563317 
L 242.652673 54.903017 
L 243.378212 54.903017 
L 243.620059 55.563317 
L 244.103751 57.559076 
L 244.587444 57.559076 
L 245.071137 60.320327 
L 245.312983 61.616856 
L 245.55483 61.616856 
L 245.796676 60.320327 
L 246.038522 59.901048 
L 246.280369 60.320327 
L 246.522215 61.616856 
L 247.4896 61.616856 
L 248.215139 67.03201 
L 248.456986 69.039048 
L 248.698832 73.427794 
L 249.182525 84.553578 
L 249.908064 92.312833 
L 250.14991 94.988105 
L 250.633603 94.988105 
L 252.326527 116.476393 
L 252.81022 124.55469 
L 253.052067 123.57941 
L 253.293913 128.384563 
M 265.628077 153.303646 
L 265.869923 152.855752 
L 266.353616 152.855752 
L 266.595462 152.389288 
L 266.837309 152.389288 
L 267.079155 151.903032 
L 267.562848 151.903032 
L 268.288387 150.311566 
L 268.77208 150.311566 
L 269.255772 149.123604 
L 269.497619 158.514381 
L 269.739465 158.923181 
L 269.981311 168.174783 
L 270.223158 168.371329 
L 270.465004 177.484604 
L 285.943171 177.484604 
M 298.277335 169.932433 
L 298.519181 177.484604 
L 322.945663 177.484604 
M 335.279827 57.937214 
L 335.521673 57.534336 
L 335.76352 56.158232 
L 336.005366 55.616433 
L 336.972751 44.579498 
L 337.456444 40.474789 
L 337.69829 40.877668 
L 337.940137 40.877668 
L 338.181983 40.474789 
L 338.423829 43.046236 
L 339.149369 36.343243 
L 339.633061 36.343243 
L 340.116754 35.701132 
L 340.3586 35.701132 
L 340.600447 37.676134 
L 341.084139 37.676134 
L 341.567832 42.322302 
L 341.809678 42.864101 
L 342.293371 42.864101 
L 342.535217 43.266979 
L 342.777064 43.990913 
L 343.502603 43.990913 
L 343.986296 39.665801 
L 344.469988 35.740351 
L 344.953681 32.941896 
L 345.195527 31.44306 
L 345.437374 30.677421 
L 346.162913 30.728852 
L 346.404759 30.952552 
L 347.130298 36.679053 
L 347.372145 40.583565 
L 347.613991 40.583565 
L 348.097684 43.785875 
L 348.33953 47.244311 
L 348.581376 49.073177 
L 348.823223 54.91067 
L 349.306915 59.063677 
L 349.548762 59.063677 
L 349.790608 56.941248 
L 350.032454 56.941248 
L 350.516147 59.199825 
L 351.483533 59.199825 
L 351.725379 54.393824 
L 352.209072 50.967143 
L 352.692764 50.967143 
L 353.176457 49.313196 
L 353.418303 50.008581 
L 353.66015 50.008581 
L 353.901996 48.992141 
L 354.143842 48.992141 
L 354.627535 44.848981 
L 354.869382 43.415399 
L 355.111228 43.415399 
L 355.353074 44.848981 
L 355.594921 45.344534 
L 355.836767 44.527925 
L 356.078613 44.527925 
L 356.32046 45.344534 
L 356.562306 45.344534 
L 357.045999 43.589897 
L 358.013384 43.589897 
L 358.25523 42.720673 
L 358.497077 42.627206 
L 358.738923 44.333245 
L 358.98077 45.186972 
L 359.222616 44.333245 
L 359.464462 38.456477 
L 359.706309 36.889512 
L 359.948155 36.328023 
L 360.190001 36.142424 
L 360.431848 35.415431 
L 360.673694 35.624346 
L 360.91554 35.415431 
L 361.157387 36.142424 
L 361.399233 36.328023 
L 361.641079 36.142424 
L 361.882926 35.415431 
L 362.124772 32.492944 
L 362.366619 31.011192 
L 362.608465 30.271171 
L 362.850311 30.271171 
L 363.092158 32.417877 
L 363.334004 33.018989 
L 363.57585 33.018989 
L 363.817697 33.223262 
L 364.059543 33.842651 
M 376.393707 44.159517 
L 376.635553 44.159517 
L 376.8774 45.706412 
L 377.119246 45.967721 
L 377.361092 44.997881 
L 378.086632 37.198703 
L 378.328478 34.445259 
L 378.570324 34.18395 
L 378.812171 34.445259 
L 379.054017 35.698592 
L 379.53771 35.698592 
L 379.779556 34.990061 
L 380.021402 34.990061 
L 380.263249 34.675837 
L 380.746941 34.675837 
L 380.988788 35.384367 
L 381.714327 41.15613 
L 381.956173 39.347926 
L 382.19802 39.033702 
L 382.439866 39.033702 
L 382.681712 39.742233 
L 383.407251 46.050949 
L 383.649098 46.445255 
L 383.890944 46.050949 
L 384.13279 43.759607 
L 385.342022 43.759607 
L 385.825715 48.814658 
L 386.551254 57.674557 
L 386.7931 57.674557 
L 387.518639 50.133542 
L 388.244178 50.133542 
L 388.727871 56.016562 
L 388.969717 60.340266 
L 389.45341 70.527022 
L 389.695256 74.221688 
L 390.178949 74.221688 
L 390.420796 71.4516 
L 390.904488 77.049588 
L 391.871874 93.641279 
L 392.11372 93.641279 
L 392.355566 91.900147 
L 392.597413 85.006139 
L 393.081105 78.79072 
L 393.322952 81.674365 
L 394.048491 94.123438 
L 394.77403 94.123438 
L 395.015876 97.606364 
L 395.499569 97.606364 
L 395.741415 94.123438 
L 398.159879 94.123438 
L 398.643572 101.136587 
L 398.885418 101.136587 
L 399.369111 94.123438 
L 401.062035 94.123438 
L 401.787574 104.712715 
L 402.513113 94.123438 
L 402.996806 94.123438 
L 403.238652 97.606364 
L 403.964191 118.864053 
L 404.447884 126.234386 
L 406.382655 126.234386 
L 407.108194 139.186243 
L 409.284811 139.186243 
L 410.01035 137.282466 
L 410.252197 142.123845 
M 422.586361 149.645917 
L 423.070053 139.186243 
L 428.632519 139.186243 
L 429.358059 154.930628 
L 430.083598 154.930628 
L 430.809137 139.186243 
L 433.711293 139.186243 
L 434.436832 154.930628 
L 436.371603 154.930628 
L 437.097142 139.186243 
L 439.757452 139.186243 
L 440.482991 126.234386 
L 441.450376 126.234386 
L 442.175915 139.186243 
L 447.738381 139.186243 
L 448.46392 154.930628 
L 450.156845 154.930628 
L 450.882384 139.186243 
L 451.849769 139.186243 
L 452.575309 126.234386 
L 459.10516 126.234386 
L 460.314392 122.108771 
L 460.556238 122.108771 
L 461.523624 118.249803 
L 462.249163 130.068186 
L 462.491009 129.085771 
L 463.458394 157.159506 
L 463.942087 177.484604 
L 470.471939 177.484604 
M 482.806103 136.600708 
L 483.773488 136.600708 
L 484.257181 135.15802 
L 484.499027 135.15802 
L 485.224566 152.389288 
L 485.466413 151.903032 
L 486.433798 151.903032 
L 486.917491 150.865696 
L 487.159337 150.865696 
L 487.64303 149.731511 
L 487.884876 149.731511 
L 488.610415 177.484604 
L 501.428272 177.484604 
M 513.762436 177.484604 
L 517.390131 177.484604 
L 518.11567 119.267847 
L 519.083056 119.267847 
L 519.324902 116.095043 
L 519.566749 116.095043 
L 519.808595 112.531469 
L 520.77598 112.531469 
L 521.259673 119.267847 
L 521.743366 119.267847 
L 521.985212 116.095043 
L 522.227058 116.095043 
L 522.468905 112.531469 
L 522.952597 112.531469 
L 523.194444 116.095043 
L 523.43629 116.095043 
L 523.678137 112.531469 
L 524.161829 112.531469 
L 524.403676 133.46495 
L 525.854754 133.46495 
L 526.0966 135.964599 
L 527.305832 135.964599 
L 527.547678 155.140829 
L 529.240603 155.140829 
L 529.482449 177.484604 
L 530.207988 177.484604 
M 542.542152 40.533537 
L 542.783999 42.182155 
L 543.267691 46.312274 
L 543.99323 51.772711 
L 544.235077 50.71283 
L 544.476923 50.71283 
L 544.718769 53.697303 
L 544.960616 54.149312 
L 545.202462 55.693234 
L 545.444308 55.693234 
L 545.686155 55.061426 
L 545.928001 56.579423 
L 546.169847 55.87773 
L 546.411694 59.627267 
L 546.65354 60.663233 
L 546.895387 62.579411 
L 547.137233 62.579411 
L 548.346465 53.223851 
L 548.588311 52.012803 
L 548.830157 53.081837 
L 549.31385 53.081837 
L 549.555696 50.428567 
L 549.797543 50.194924 
L 550.281235 50.086409 
L 550.523082 49.948583 
L 551.006775 54.627551 
L 551.248621 57.363496 
L 551.490467 58.18005 
L 551.732314 58.549383 
L 551.97416 56.124498 
L 552.457853 48.880387 
L 552.699699 47.962317 
L 553.183392 47.962317 
L 553.908931 42.548218 
L 554.392623 38.967777 
L 554.876316 37.118621 
L 555.118163 32.414876 
L 555.601855 31.196362 
L 555.843702 30.935053 
L 556.327394 27.118276 
L 556.569241 26.409746 
L 557.052933 26.409746 
L 557.29478 26.671055 
L 557.536626 27.156064 
L 557.778472 27.351644 
L 558.262165 29.845092 
L 558.745858 33.303488 
L 558.987704 32.727955 
L 559.713243 36.033105 
L 560.680629 46.721692 
L 560.922475 48.131629 
L 561.648014 55.979466 
L 563.582785 88.094097 
L 563.824631 91.083593 
L 564.308324 105.021082 
M 576.642488 65.63572 
L 577.368027 72.291 
L 577.609873 66.919542 
L 577.85172 64.670082 
L 578.577259 72.11907 
L 579.060952 77.514396 
L 580.51203 77.514396 
L 581.237569 88.823779 
L 581.479415 88.823779 
L 582.204954 77.514396 
L 582.446801 77.514396 
L 582.688647 83.351888 
L 582.930493 85.515268 
L 585.10711 85.515268 
L 585.590803 78.70767 
L 586.074496 78.199932 
L 586.316342 78.199932 
L 586.558189 78.368846 
L 586.800035 75.41369 
L 587.283728 63.842819 
L 587.525574 61.200937 
L 588.734806 61.200937 
L 589.218498 66.596263 
L 589.702191 66.05931 
L 589.944038 66.05931 
L 590.669577 58.023422 
L 590.911423 55.911812 
L 591.395116 57.348235 
L 591.878808 59.667931 
L 592.362501 62.971157 
L 592.846194 67.439065 
L 594.055426 84.48543 
L 594.539118 92.46305 
L 596.473889 92.46305 
L 598.166814 127.522912 
L 598.892353 147.482537 
L 601.310816 147.482537 
L 602.278202 177.484604 
L 609.775439 177.484604 
M 622.109603 177.484604 
L 625.011759 177.484604 
L 626.704683 125.359532 
L 627.430222 125.359532 
L 628.8813 95.993273 
L 630.090532 75.892756 
L 630.574225 75.892756 
L 631.54161 62.063303 
L 632.025303 62.063303 
L 632.992689 51.086061 
L 634.20192 38.241926 
L 634.685613 33.161194 
L 635.169306 30.160972 
L 635.652998 27.997592 
L 636.136691 26.985279 
L 636.378537 26.985279 
L 636.620384 27.980093 
L 637.104077 30.553623 
L 637.345923 31.445036 
L 637.587769 31.445036 
L 637.829616 32.727955 
L 638.313308 36.092898 
L 639.038847 40.450763 
L 639.280694 41.689566 
L 639.52254 41.950875 
L 640.006233 45.392715 
L 640.248079 47.684058 
L 640.731772 54.63264 
L 641.215465 59.415689 
L 643.150235 89.266407 
L 643.633928 101.136587 
L 644.117621 108.863708 
L 645.085006 134.829606 
L 645.326853 139.186243 
L 646.052392 139.186243 
L 646.536084 130.511987 
L 646.777931 130.511987 
L 647.261623 139.186243 
L 647.50347 139.186243 
L 647.745316 134.829606 
M 660.07948 71.157166 
L 660.321326 72.636213 
L 660.563173 71.247094 
L 660.805019 68.706728 
L 661.046866 68.131194 
L 661.288712 70.527022 
L 661.772405 77.049588 
L 662.497944 77.049588 
L 663.223483 88.389942 
L 663.707175 88.389942 
L 664.674561 74.113665 
L 667.576717 74.113665 
L 668.785949 91.429787 
L 669.753334 111.027088 
L 669.995181 111.027088 
L 670.962566 129.686292 
L 671.688105 129.686292 
L 672.413644 147.482537 
L 675.073954 147.482537 
L 676.041339 177.484604 
L 680.394574 177.484604 
L 680.394574 177.484604 
" clip-path="url(#p68044ea986)" style="fill: none; stroke: #ccbb44; stroke-width: 2; stroke-linecap: square"/>
   </g>
   <g id="patch_3">
    <path d="M 41.230938 177.484604 
L 41.230938 24.966323 
" style="fill: none; stroke: #000000; stroke-width: 1.2; stroke-linejoin: miter; stroke-linecap: square"/>
   </g>
   <g id="patch_4">
    <path d="M 59.574983 185.044604 
L 700.467821 185.044604 
" style="fill: none; stroke: #000000; stroke-width: 1.2; stroke-linejoin: miter; stroke-linecap: square"/>
   </g>
   <g id="text_9">
    <!-- 1 -->
    <g style="fill: #808080" transform="translate(59.574983 14.798437) scale(0.1 -0.1)">
     <use xlink:href="#DejaVuSans-31"/>
    </g>
   </g>
   <g id="text_10">
    <!-- 2 -->
    <g style="fill: #808080" transform="translate(125.357192 14.798437) scale(0.1 -0.1)">
     <use xlink:href="#DejaVuSans-32"/>
    </g>
   </g>
   <g id="text_11">
    <!-- 3 -->
    <g style="fill: #808080" transform="translate(186.786166 14.798437) scale(0.1 -0.1)">
     <use xlink:href="#DejaVuSans-33"/>
    </g>
   </g>
   <g id="text_12">
    <!-- 4 -->
    <g style="fill: #808080" transform="translate(225.965275 14.798437) scale(0.1 -0.1)">
     <defs>
      <path id="DejaVuSans-34" d="M 2419 4116 
L 825 1625 
L 2419 1625 
L 2419 4116 
z
M 2253 4666 
L 3047 4666 
L 3047 1625 
L 3713 1625 
L 3713 1100 
L 3047 1100 
L 3047 0 
L 2419 0 
L 2419 1100 
L 313 1100 
L 313 1709 
L 2253 4666 
z
" transform="scale(0.015625)"/>
     </defs>
     <use xlink:href="#DejaVuSans-34"/>
    </g>
   </g>
   <g id="text_13">
    <!-- 5 -->
    <g style="fill: #808080" transform="translate(253.535759 14.798437) scale(0.1 -0.1)">
     <use xlink:href="#DejaVuSans-35"/>
    </g>
   </g>
   <g id="text_14">
    <!-- 6 -->
    <g style="fill: #808080" transform="translate(286.185017 14.798437) scale(0.1 -0.1)">
     <use xlink:href="#DejaVuSans-36"/>
    </g>
   </g>
   <g id="text_15">
    <!-- 7 -->
    <g style="fill: #808080" transform="translate(323.187509 14.798437) scale(0.1 -0.1)">
     <defs>
      <path id="DejaVuSans-37" d="M 525 4666 
L 3525 4666 
L 3525 4397 
L 1831 0 
L 1172 0 
L 2766 4134 
L 525 4134 
L 525 4666 
z
" transform="scale(0.015625)"/>
     </defs>
     <use xlink:href="#DejaVuSans-37"/>
    </g>
   </g>
   <g id="text_16">
    <!-- 8 -->
    <g style="fill: #808080" transform="translate(364.301389 14.798437) scale(0.1 -0.1)">
     <defs>
      <path id="DejaVuSans-38" d="M 2034 2216 
Q 1584 2216 1326 1975 
Q 1069 1734 1069 1313 
Q 1069 891 1326 650 
Q 1584 409 2034 409 
Q 2484 409 2743 651 
Q 3003 894 3003 1313 
Q 3003 1734 2745 1975 
Q 2488 2216 2034 2216 
z
M 1403 2484 
Q 997 2584 770 2862 
Q 544 3141 544 3541 
Q 544 4100 942 4425 
Q 1341 4750 2034 4750 
Q 2731 4750 3128 4425 
Q 3525 4100 3525 3541 
Q 3525 3141 3298 2862 
Q 3072 2584 2669 2484 
Q 3125 2378 3379 2068 
Q 3634 1759 3634 1313 
Q 3634 634 3220 271 
Q 2806 -91 2034 -91 
Q 1263 -91 848 271 
Q 434 634 434 1313 
Q 434 1759 690 2068 
Q 947 2378 1403 2484 
z
M 1172 3481 
Q 1172 3119 1398 2916 
Q 1625 2713 2034 2713 
Q 2441 2713 2670 2916 
Q 2900 3119 2900 3481 
Q 2900 3844 2670 4047 
Q 2441 4250 2034 4250 
Q 1625 4250 1398 4047 
Q 1172 3844 1172 3481 
z
" transform="scale(0.015625)"/>
     </defs>
     <use xlink:href="#DejaVuSans-38"/>
    </g>
   </g>
   <g id="text_17">
    <!-- 9 -->
    <g style="fill: #808080" transform="translate(410.494043 14.798437) scale(0.1 -0.1)">
     <defs>
      <path id="DejaVuSans-39" d="M 703 97 
L 703 672 
Q 941 559 1184 500 
Q 1428 441 1663 441 
Q 2288 441 2617 861 
Q 2947 1281 2994 2138 
Q 2813 1869 2534 1725 
Q 2256 1581 1919 1581 
Q 1219 1581 811 2004 
Q 403 2428 403 3163 
Q 403 3881 828 4315 
Q 1253 4750 1959 4750 
Q 2769 4750 3195 4129 
Q 3622 3509 3622 2328 
Q 3622 1225 3098 567 
Q 2575 -91 1691 -91 
Q 1453 -91 1209 -44 
Q 966 3 703 97 
z
M 1959 2075 
Q 2384 2075 2632 2365 
Q 2881 2656 2881 3163 
Q 2881 3666 2632 3958 
Q 2384 4250 1959 4250 
Q 1534 4250 1286 3958 
Q 1038 3666 1038 3163 
Q 1038 2656 1286 2365 
Q 1534 2075 1959 2075 
z
" transform="scale(0.015625)"/>
     </defs>
     <use xlink:href="#DejaVuSans-39"/>
    </g>
   </g>
   <g id="text_18">
    <!-- 10 -->
    <g style="fill: #808080" transform="translate(470.713785 14.798437) scale(0.1 -0.1)">
     <use xlink:href="#DejaVuSans-31"/>
     <use xlink:href="#DejaVuSans-30" transform="translate(63.623047 0)"/>
    </g>
   </g>
   <g id="text_19">
    <!-- 11 -->
    <g style="fill: #808080" transform="translate(501.670118 14.798437) scale(0.1 -0.1)">
     <use xlink:href="#DejaVuSans-31"/>
     <use xlink:href="#DejaVuSans-31" transform="translate(63.623047 0)"/>
    </g>
   </g>
   <g id="text_20">
    <!-- 12 -->
    <g style="fill: #808080" transform="translate(530.449834 14.798437) scale(0.1 -0.1)">
     <use xlink:href="#DejaVuSans-31"/>
     <use xlink:href="#DejaVuSans-32" transform="translate(63.623047 0)"/>
    </g>
   </g>
   <g id="text_21">
    <!-- 13 -->
    <g style="fill: #808080" transform="translate(564.55017 14.798437) scale(0.1 -0.1)">
     <use xlink:href="#DejaVuSans-31"/>
     <use xlink:href="#DejaVuSans-33" transform="translate(63.623047 0)"/>
    </g>
   </g>
   <g id="text_22">
    <!-- 14 -->
    <g style="fill: #808080" transform="translate(610.017285 14.798437) scale(0.1 -0.1)">
     <use xlink:href="#DejaVuSans-31"/>
     <use xlink:href="#DejaVuSans-34" transform="translate(63.623047 0)"/>
    </g>
   </g>
   <g id="text_23">
    <!-- 15 -->
    <g style="fill: #808080" transform="translate(647.987162 14.798437) scale(0.1 -0.1)">
     <use xlink:href="#DejaVuSans-31"/>
     <use xlink:href="#DejaVuSans-35" transform="translate(63.623047 0)"/>
    </g>
   </g>
   <g id="text_24">
    <!-- Game -->
    <g style="fill: #808080" transform="translate(25.716494 14.798437) scale(0.1 -0.1)">
     <defs>
      <path id="DejaVuSans-47" d="M 3809 666 
L 3809 1919 
L 2778 1919 
L 2778 2438 
L 4434 2438 
L 4434 434 
Q 4069 175 3628 42 
Q 3188 -91 2688 -91 
Q 1594 -91 976 548 
Q 359 1188 359 2328 
Q 359 3472 976 4111 
Q 1594 4750 2688 4750 
Q 3144 4750 3555 4637 
Q 3966 4525 4313 4306 
L 4313 3634 
Q 3963 3931 3569 4081 
Q 3175 4231 2741 4231 
Q 1884 4231 1454 3753 
Q 1025 3275 1025 2328 
Q 1025 1384 1454 906 
Q 1884 428 2741 428 
Q 3075 428 3337 486 
Q 3600 544 3809 666 
z
" transform="scale(0.015625)"/>
      <path id="DejaVuSans-65" d="M 3597 1894 
L 3597 1613 
L 953 1613 
Q 991 1019 1311 708 
Q 1631 397 2203 397 
Q 2534 397 2845 478 
Q 3156 559 3463 722 
L 3463 178 
Q 3153 47 2828 -22 
Q 2503 -91 2169 -91 
Q 1331 -91 842 396 
Q 353 884 353 1716 
Q 353 2575 817 3079 
Q 1281 3584 2069 3584 
Q 2775 3584 3186 3129 
Q 3597 2675 3597 1894 
z
M 3022 2063 
Q 3016 2534 2758 2815 
Q 2500 3097 2075 3097 
Q 1594 3097 1305 2825 
Q 1016 2553 972 2059 
L 3022 2063 
z
" transform="scale(0.015625)"/>
     </defs>
     <use xlink:href="#DejaVuSans-47"/>
     <use xlink:href="#DejaVuSans-61" transform="translate(77.490234 0)"/>
     <use xlink:href="#DejaVuSans-6d" transform="translate(138.769531 0)"/>
     <use xlink:href="#DejaVuSans-65" transform="translate(236.181641 0)"/>
    </g>
   </g>
  </g>
 </g>
 <defs>
  <clipPath id="p68044ea986">
   <rect x="41.230938" y="18.724604" width="669.6" height="166.32"/>
  </clipPath>
 </defs>
</svg>
