<?xml version="1.0" encoding="utf-8" standalone="no"?>
<!DOCTYPE svg PUBLIC "-//W3C//DTD SVG 1.1//EN"
  "http://www.w3.org/Graphics/SVG/1.1/DTD/svg11.dtd">
<svg xmlns:xlink="http://www.w3.org/1999/xlink" width="734.220481pt" height="231.802608pt" viewBox="0 0 734.220481 231.802608" xmlns="http://www.w3.org/2000/svg" version="1.1">
 <metadata>
  <rdf:RDF xmlns:dc="http://purl.org/dc/elements/1.1/" xmlns:cc="http://creativecommons.org/ns#" xmlns:rdf="http://www.w3.org/1999/02/22-rdf-syntax-ns#">
   <cc:Work>
    <dc:type rdf:resource="http://purl.org/dc/dcmitype/StillImage"/>
    <dc:date>2025-10-08T13:21:45.773124</dc:date>
    <dc:format>image/svg+xml</dc:format>
    <dc:creator>
     <cc:Agent>
      <dc:title>Matplotlib v3.10.6, https://matplotlib.org/</dc:title>
     </cc:Agent>
    </dc:creator>
   </cc:Work>
  </rdf:RDF>
 </metadata>
 <defs>
  <style type="text/css">*{stroke-linejoin: round; stroke-linecap: butt}</style>
 </defs>
 <g id="figure_1">
  <g id="patch_1">
   <path d="M -0 231.802608 
L 734.220481 231.802608 
L 734.220481 -0 
L -0 -0 
L -0 231.802608 
z
" style="fill: none"/>
  </g>
  <g id="axes_1">
   <g id="patch_2">
    <path d="M 52.679688 186.59292 
L 722.279688 186.59292 
L 722.279688 20.27292 
L 52.679688 20.27292 
L 52.679688 186.59292 
z
" style="fill: none"/>
   </g>
   <g id="matplotlib.axis_1">
    <g id="xtick_1">
     <g id="line2d_1">
      <defs>
       <path id="m3d871b9a1e" d="M 0 0 
L 0 8.25 
" style="stroke: #000000; stroke-width: 1.4"/>
      </defs>
      <g>
       <use xlink:href="#m3d871b9a1e" x="76.160539" y="186.59292" style="stroke: #000000; stroke-width: 1.4"/>
      </g>
     </g>
     <g id="text_1">
      <!-- 1 -->
      <g transform="translate(72.343039 207.461045) scale(0.12 -0.12)">
       <defs>
        <path id="DejaVuSans-31" d="M 794 531 
L 1825 531 
L 1825 4091 
L 703 3866 
L 703 4441 
L 1819 4666 
L 2450 4666 
L 2450 531 
L 3481 531 
L 3481 0 
L 794 0 
L 794 531 
z
" transform="scale(0.015625)"/>
       </defs>
       <use xlink:href="#DejaVuSans-31"/>
      </g>
     </g>
    </g>
    <g id="xtick_2">
     <g id="line2d_2">
      <g>
       <use xlink:href="#m3d871b9a1e" x="711.750481" y="186.59292" style="stroke: #000000; stroke-width: 1.4"/>
      </g>
     </g>
     <g id="text_2">
      <!-- 2650 -->
      <g transform="translate(696.480481 207.461045) scale(0.12 -0.12)">
       <defs>
        <path id="DejaVuSans-32" d="M 1228 531 
L 3431 531 
L 3431 0 
L 469 0 
L 469 531 
Q 828 903 1448 1529 
Q 2069 2156 2228 2338 
Q 2531 2678 2651 2914 
Q 2772 3150 2772 3378 
Q 2772 3750 2511 3984 
Q 2250 4219 1831 4219 
Q 1534 4219 1204 4116 
Q 875 4013 500 3803 
L 500 4441 
Q 881 4594 1212 4672 
Q 1544 4750 1819 4750 
Q 2544 4750 2975 4387 
Q 3406 4025 3406 3419 
Q 3406 3131 3298 2873 
Q 3191 2616 2906 2266 
Q 2828 2175 2409 1742 
Q 1991 1309 1228 531 
z
" transform="scale(0.015625)"/>
        <path id="DejaVuSans-36" d="M 2113 2584 
Q 1688 2584 1439 2293 
Q 1191 2003 1191 1497 
Q 1191 994 1439 701 
Q 1688 409 2113 409 
Q 2538 409 2786 701 
Q 3034 994 3034 1497 
Q 3034 2003 2786 2293 
Q 2538 2584 2113 2584 
z
M 3366 4563 
L 3366 3988 
Q 3128 4100 2886 4159 
Q 2644 4219 2406 4219 
Q 1781 4219 1451 3797 
Q 1122 3375 1075 2522 
Q 1259 2794 1537 2939 
Q 1816 3084 2150 3084 
Q 2853 3084 3261 2657 
Q 3669 2231 3669 1497 
Q 3669 778 3244 343 
Q 2819 -91 2113 -91 
Q 1303 -91 875 529 
Q 447 1150 447 2328 
Q 447 3434 972 4092 
Q 1497 4750 2381 4750 
Q 2619 4750 2861 4703 
Q 3103 4656 3366 4563 
z
" transform="scale(0.015625)"/>
        <path id="DejaVuSans-35" d="M 691 4666 
L 3169 4666 
L 3169 4134 
L 1269 4134 
L 1269 2991 
Q 1406 3038 1543 3061 
Q 1681 3084 1819 3084 
Q 2600 3084 3056 2656 
Q 3513 2228 3513 1497 
Q 3513 744 3044 326 
Q 2575 -91 1722 -91 
Q 1428 -91 1123 -41 
Q 819 9 494 109 
L 494 744 
Q 775 591 1075 516 
Q 1375 441 1709 441 
Q 2250 441 2565 725 
Q 2881 1009 2881 1497 
Q 2881 1984 2565 2268 
Q 2250 2553 1709 2553 
Q 1456 2553 1204 2497 
Q 953 2441 691 2322 
L 691 4666 
z
" transform="scale(0.015625)"/>
        <path id="DejaVuSans-30" d="M 2034 4250 
Q 1547 4250 1301 3770 
Q 1056 3291 1056 2328 
Q 1056 1369 1301 889 
Q 1547 409 2034 409 
Q 2525 409 2770 889 
Q 3016 1369 3016 2328 
Q 3016 3291 2770 3770 
Q 2525 4250 2034 4250 
z
M 2034 4750 
Q 2819 4750 3233 4129 
Q 3647 3509 3647 2328 
Q 3647 1150 3233 529 
Q 2819 -91 2034 -91 
Q 1250 -91 836 529 
Q 422 1150 422 2328 
Q 422 3509 836 4129 
Q 1250 4750 2034 4750 
z
" transform="scale(0.015625)"/>
       </defs>
       <use xlink:href="#DejaVuSans-32"/>
       <use xlink:href="#DejaVuSans-36" transform="translate(63.623047 0)"/>
       <use xlink:href="#DejaVuSans-35" transform="translate(127.246094 0)"/>
       <use xlink:href="#DejaVuSans-30" transform="translate(190.869141 0)"/>
      </g>
     </g>
    </g>
    <g id="text_3">
     <!-- Trials -->
     <g transform="translate(373.379063 222.314952) scale(0.11 -0.11)">
      <defs>
       <path id="DejaVuSans-54" d="M -19 4666 
L 3928 4666 
L 3928 4134 
L 2272 4134 
L 2272 0 
L 1638 0 
L 1638 4134 
L -19 4134 
L -19 4666 
z
" transform="scale(0.015625)"/>
       <path id="DejaVuSans-72" d="M 2631 2963 
Q 2534 3019 2420 3045 
Q 2306 3072 2169 3072 
Q 1681 3072 1420 2755 
Q 1159 2438 1159 1844 
L 1159 0 
L 581 0 
L 581 3500 
L 1159 3500 
L 1159 2956 
Q 1341 3275 1631 3429 
Q 1922 3584 2338 3584 
Q 2397 3584 2469 3576 
Q 2541 3569 2628 3553 
L 2631 2963 
z
" transform="scale(0.015625)"/>
       <path id="DejaVuSans-69" d="M 603 3500 
L 1178 3500 
L 1178 0 
L 603 0 
L 603 3500 
z
M 603 4863 
L 1178 4863 
L 1178 4134 
L 603 4134 
L 603 4863 
z
" transform="scale(0.015625)"/>
       <path id="DejaVuSans-61" d="M 2194 1759 
Q 1497 1759 1228 1600 
Q 959 1441 959 1056 
Q 959 750 1161 570 
Q 1363 391 1709 391 
Q 2188 391 2477 730 
Q 2766 1069 2766 1631 
L 2766 1759 
L 2194 1759 
z
M 3341 1997 
L 3341 0 
L 2766 0 
L 2766 531 
Q 2569 213 2275 61 
Q 1981 -91 1556 -91 
Q 1019 -91 701 211 
Q 384 513 384 1019 
Q 384 1609 779 1909 
Q 1175 2209 1959 2209 
L 2766 2209 
L 2766 2266 
Q 2766 2663 2505 2880 
Q 2244 3097 1772 3097 
Q 1472 3097 1187 3025 
Q 903 2953 641 2809 
L 641 3341 
Q 956 3463 1253 3523 
Q 1550 3584 1831 3584 
Q 2591 3584 2966 3190 
Q 3341 2797 3341 1997 
z
" transform="scale(0.015625)"/>
       <path id="DejaVuSans-6c" d="M 603 4863 
L 1178 4863 
L 1178 0 
L 603 0 
L 603 4863 
z
" transform="scale(0.015625)"/>
       <path id="DejaVuSans-73" d="M 2834 3397 
L 2834 2853 
Q 2591 2978 2328 3040 
Q 2066 3103 1784 3103 
Q 1356 3103 1142 2972 
Q 928 2841 928 2578 
Q 928 2378 1081 2264 
Q 1234 2150 1697 2047 
L 1894 2003 
Q 2506 1872 2764 1633 
Q 3022 1394 3022 966 
Q 3022 478 2636 193 
Q 2250 -91 1575 -91 
Q 1294 -91 989 -36 
Q 684 19 347 128 
L 347 722 
Q 666 556 975 473 
Q 1284 391 1588 391 
Q 1994 391 2212 530 
Q 2431 669 2431 922 
Q 2431 1156 2273 1281 
Q 2116 1406 1581 1522 
L 1381 1569 
Q 847 1681 609 1914 
Q 372 2147 372 2553 
Q 372 3047 722 3315 
Q 1072 3584 1716 3584 
Q 2034 3584 2315 3537 
Q 2597 3491 2834 3397 
z
" transform="scale(0.015625)"/>
      </defs>
      <use xlink:href="#DejaVuSans-54"/>
      <use xlink:href="#DejaVuSans-72" transform="translate(46.333984 0)"/>
      <use xlink:href="#DejaVuSans-69" transform="translate(87.447266 0)"/>
      <use xlink:href="#DejaVuSans-61" transform="translate(115.230469 0)"/>
      <use xlink:href="#DejaVuSans-6c" transform="translate(176.509766 0)"/>
      <use xlink:href="#DejaVuSans-73" transform="translate(204.292969 0)"/>
     </g>
    </g>
   </g>
   <g id="matplotlib.axis_2">
    <g id="ytick_1">
     <g id="line2d_3">
      <defs>
       <path id="m04fd717b9d" d="M 0 0 
L -8.25 0 
" style="stroke: #000000; stroke-width: 1.4"/>
      </defs>
      <g>
       <use xlink:href="#m04fd717b9d" x="52.679688" y="179.03292" style="stroke: #000000; stroke-width: 1.4"/>
      </g>
     </g>
     <g id="text_4">
      <!-- 0 -->
      <g transform="translate(33.294688 183.591983) scale(0.12 -0.12)">
       <use xlink:href="#DejaVuSans-30"/>
      </g>
     </g>
    </g>
    <g id="ytick_2">
     <g id="line2d_4">
      <g>
       <use xlink:href="#m04fd717b9d" x="52.679688" y="100.826024" style="stroke: #000000; stroke-width: 1.4"/>
      </g>
     </g>
     <g id="text_5">
      <!-- 0.5 -->
      <g transform="translate(21.845938 105.385086) scale(0.12 -0.12)">
       <defs>
        <path id="DejaVuSans-2e" d="M 684 794 
L 1344 794 
L 1344 0 
L 684 0 
L 684 794 
z
" transform="scale(0.015625)"/>
       </defs>
       <use xlink:href="#DejaVuSans-30"/>
       <use xlink:href="#DejaVuSans-2e" transform="translate(63.623047 0)"/>
       <use xlink:href="#DejaVuSans-35" transform="translate(95.410156 0)"/>
      </g>
     </g>
    </g>
    <g id="ytick_3">
     <g id="line2d_5">
      <g>
       <use xlink:href="#m04fd717b9d" x="52.679688" y="22.619127" style="stroke: #000000; stroke-width: 1.4"/>
      </g>
     </g>
     <g id="text_6">
      <!-- 1 -->
      <g transform="translate(33.294688 27.17819) scale(0.12 -0.12)">
       <use xlink:href="#DejaVuSans-31"/>
      </g>
     </g>
    </g>
    <g id="text_7">
     <!-- Smoothed reward rate -->
     <g transform="translate(15.558281 165.244327) rotate(-90) scale(0.11 -0.11)">
      <defs>
       <path id="DejaVuSans-53" d="M 3425 4513 
L 3425 3897 
Q 3066 4069 2747 4153 
Q 2428 4238 2131 4238 
Q 1616 4238 1336 4038 
Q 1056 3838 1056 3469 
Q 1056 3159 1242 3001 
Q 1428 2844 1947 2747 
L 2328 2669 
Q 3034 2534 3370 2195 
Q 3706 1856 3706 1288 
Q 3706 609 3251 259 
Q 2797 -91 1919 -91 
Q 1588 -91 1214 -16 
Q 841 59 441 206 
L 441 856 
Q 825 641 1194 531 
Q 1563 422 1919 422 
Q 2459 422 2753 634 
Q 3047 847 3047 1241 
Q 3047 1584 2836 1778 
Q 2625 1972 2144 2069 
L 1759 2144 
Q 1053 2284 737 2584 
Q 422 2884 422 3419 
Q 422 4038 858 4394 
Q 1294 4750 2059 4750 
Q 2388 4750 2728 4690 
Q 3069 4631 3425 4513 
z
" transform="scale(0.015625)"/>
       <path id="DejaVuSans-6d" d="M 3328 2828 
Q 3544 3216 3844 3400 
Q 4144 3584 4550 3584 
Q 5097 3584 5394 3201 
Q 5691 2819 5691 2113 
L 5691 0 
L 5113 0 
L 5113 2094 
Q 5113 2597 4934 2840 
Q 4756 3084 4391 3084 
Q 3944 3084 3684 2787 
Q 3425 2491 3425 1978 
L 3425 0 
L 2847 0 
L 2847 2094 
Q 2847 2600 2669 2842 
Q 2491 3084 2119 3084 
Q 1678 3084 1418 2786 
Q 1159 2488 1159 1978 
L 1159 0 
L 581 0 
L 581 3500 
L 1159 3500 
L 1159 2956 
Q 1356 3278 1631 3431 
Q 1906 3584 2284 3584 
Q 2666 3584 2933 3390 
Q 3200 3197 3328 2828 
z
" transform="scale(0.015625)"/>
       <path id="DejaVuSans-6f" d="M 1959 3097 
Q 1497 3097 1228 2736 
Q 959 2375 959 1747 
Q 959 1119 1226 758 
Q 1494 397 1959 397 
Q 2419 397 2687 759 
Q 2956 1122 2956 1747 
Q 2956 2369 2687 2733 
Q 2419 3097 1959 3097 
z
M 1959 3584 
Q 2709 3584 3137 3096 
Q 3566 2609 3566 1747 
Q 3566 888 3137 398 
Q 2709 -91 1959 -91 
Q 1206 -91 779 398 
Q 353 888 353 1747 
Q 353 2609 779 3096 
Q 1206 3584 1959 3584 
z
" transform="scale(0.015625)"/>
       <path id="DejaVuSans-74" d="M 1172 4494 
L 1172 3500 
L 2356 3500 
L 2356 3053 
L 1172 3053 
L 1172 1153 
Q 1172 725 1289 603 
Q 1406 481 1766 481 
L 2356 481 
L 2356 0 
L 1766 0 
Q 1100 0 847 248 
Q 594 497 594 1153 
L 594 3053 
L 172 3053 
L 172 3500 
L 594 3500 
L 594 4494 
L 1172 4494 
z
" transform="scale(0.015625)"/>
       <path id="DejaVuSans-68" d="M 3513 2113 
L 3513 0 
L 2938 0 
L 2938 2094 
Q 2938 2591 2744 2837 
Q 2550 3084 2163 3084 
Q 1697 3084 1428 2787 
Q 1159 2491 1159 1978 
L 1159 0 
L 581 0 
L 581 4863 
L 1159 4863 
L 1159 2956 
Q 1366 3272 1645 3428 
Q 1925 3584 2291 3584 
Q 2894 3584 3203 3211 
Q 3513 2838 3513 2113 
z
" transform="scale(0.015625)"/>
       <path id="DejaVuSans-65" d="M 3597 1894 
L 3597 1613 
L 953 1613 
Q 991 1019 1311 708 
Q 1631 397 2203 397 
Q 2534 397 2845 478 
Q 3156 559 3463 722 
L 3463 178 
Q 3153 47 2828 -22 
Q 2503 -91 2169 -91 
Q 1331 -91 842 396 
Q 353 884 353 1716 
Q 353 2575 817 3079 
Q 1281 3584 2069 3584 
Q 2775 3584 3186 3129 
Q 3597 2675 3597 1894 
z
M 3022 2063 
Q 3016 2534 2758 2815 
Q 2500 3097 2075 3097 
Q 1594 3097 1305 2825 
Q 1016 2553 972 2059 
L 3022 2063 
z
" transform="scale(0.015625)"/>
       <path id="DejaVuSans-64" d="M 2906 2969 
L 2906 4863 
L 3481 4863 
L 3481 0 
L 2906 0 
L 2906 525 
Q 2725 213 2448 61 
Q 2172 -91 1784 -91 
Q 1150 -91 751 415 
Q 353 922 353 1747 
Q 353 2572 751 3078 
Q 1150 3584 1784 3584 
Q 2172 3584 2448 3432 
Q 2725 3281 2906 2969 
z
M 947 1747 
Q 947 1113 1208 752 
Q 1469 391 1925 391 
Q 2381 391 2643 752 
Q 2906 1113 2906 1747 
Q 2906 2381 2643 2742 
Q 2381 3103 1925 3103 
Q 1469 3103 1208 2742 
Q 947 2381 947 1747 
z
" transform="scale(0.015625)"/>
       <path id="DejaVuSans-20" transform="scale(0.015625)"/>
       <path id="DejaVuSans-77" d="M 269 3500 
L 844 3500 
L 1563 769 
L 2278 3500 
L 2956 3500 
L 3675 769 
L 4391 3500 
L 4966 3500 
L 4050 0 
L 3372 0 
L 2619 2869 
L 1863 0 
L 1184 0 
L 269 3500 
z
" transform="scale(0.015625)"/>
      </defs>
      <use xlink:href="#DejaVuSans-53"/>
      <use xlink:href="#DejaVuSans-6d" transform="translate(63.476562 0)"/>
      <use xlink:href="#DejaVuSans-6f" transform="translate(160.888672 0)"/>
      <use xlink:href="#DejaVuSans-6f" transform="translate(222.070312 0)"/>
      <use xlink:href="#DejaVuSans-74" transform="translate(283.251953 0)"/>
      <use xlink:href="#DejaVuSans-68" transform="translate(322.460938 0)"/>
      <use xlink:href="#DejaVuSans-65" transform="translate(385.839844 0)"/>
      <use xlink:href="#DejaVuSans-64" transform="translate(447.363281 0)"/>
      <use xlink:href="#DejaVuSans-20" transform="translate(510.839844 0)"/>
      <use xlink:href="#DejaVuSans-72" transform="translate(542.626953 0)"/>
      <use xlink:href="#DejaVuSans-65" transform="translate(581.490234 0)"/>
      <use xlink:href="#DejaVuSans-77" transform="translate(643.013672 0)"/>
      <use xlink:href="#DejaVuSans-61" transform="translate(724.800781 0)"/>
      <use xlink:href="#DejaVuSans-72" transform="translate(786.080078 0)"/>
      <use xlink:href="#DejaVuSans-64" transform="translate(825.443359 0)"/>
      <use xlink:href="#DejaVuSans-20" transform="translate(888.919922 0)"/>
      <use xlink:href="#DejaVuSans-72" transform="translate(920.707031 0)"/>
      <use xlink:href="#DejaVuSans-61" transform="translate(961.820312 0)"/>
      <use xlink:href="#DejaVuSans-74" transform="translate(1023.099609 0)"/>
      <use xlink:href="#DejaVuSans-65" transform="translate(1062.308594 0)"/>
     </g>
    </g>
   </g>
   <g id="line2d_6">
    <path d="M 141.158604 186.59292 
L 141.158604 20.27292 
" clip-path="url(#p5af263436a)" style="fill: none; stroke: #808080; stroke-opacity: 0.5; stroke-linecap: square"/>
   </g>
   <g id="line2d_7">
    <path d="M 202.079301 186.59292 
L 202.079301 20.27292 
" clip-path="url(#p5af263436a)" style="fill: none; stroke: #808080; stroke-opacity: 0.5; stroke-linecap: square"/>
   </g>
   <g id="line2d_8">
    <path d="M 240.934233 186.59292 
L 240.934233 20.27292 
" clip-path="url(#p5af263436a)" style="fill: none; stroke: #808080; stroke-opacity: 0.5; stroke-linecap: square"/>
   </g>
   <g id="line2d_9">
    <path d="M 268.276593 186.59292 
L 268.276593 20.27292 
" clip-path="url(#p5af263436a)" style="fill: none; stroke: #808080; stroke-opacity: 0.5; stroke-linecap: square"/>
   </g>
   <g id="line2d_10">
    <path d="M 300.655703 186.59292 
L 300.655703 20.27292 
" clip-path="url(#p5af263436a)" style="fill: none; stroke: #808080; stroke-opacity: 0.5; stroke-linecap: square"/>
   </g>
   <g id="line2d_11">
    <path d="M 337.352028 186.59292 
L 337.352028 20.27292 
" clip-path="url(#p5af263436a)" style="fill: none; stroke: #808080; stroke-opacity: 0.5; stroke-linecap: square"/>
   </g>
   <g id="line2d_12">
    <path d="M 378.125722 186.59292 
L 378.125722 20.27292 
" clip-path="url(#p5af263436a)" style="fill: none; stroke: #808080; stroke-opacity: 0.5; stroke-linecap: square"/>
   </g>
   <g id="line2d_13">
    <path d="M 423.936167 186.59292 
L 423.936167 20.27292 
" clip-path="url(#p5af263436a)" style="fill: none; stroke: #808080; stroke-opacity: 0.5; stroke-linecap: square"/>
   </g>
   <g id="line2d_14">
    <path d="M 483.657637 186.59292 
L 483.657637 20.27292 
" clip-path="url(#p5af263436a)" style="fill: none; stroke: #808080; stroke-opacity: 0.5; stroke-linecap: square"/>
   </g>
   <g id="line2d_15">
    <path d="M 514.357831 186.59292 
L 514.357831 20.27292 
" clip-path="url(#p5af263436a)" style="fill: none; stroke: #808080; stroke-opacity: 0.5; stroke-linecap: square"/>
   </g>
   <g id="line2d_16">
    <path d="M 542.899417 186.59292 
L 542.899417 20.27292 
" clip-path="url(#p5af263436a)" style="fill: none; stroke: #808080; stroke-opacity: 0.5; stroke-linecap: square"/>
   </g>
   <g id="line2d_17">
    <path d="M 576.717599 186.59292 
L 576.717599 20.27292 
" clip-path="url(#p5af263436a)" style="fill: none; stroke: #808080; stroke-opacity: 0.5; stroke-linecap: square"/>
   </g>
   <g id="line2d_18">
    <path d="M 621.808508 186.59292 
L 621.808508 20.27292 
" clip-path="url(#p5af263436a)" style="fill: none; stroke: #808080; stroke-opacity: 0.5; stroke-linecap: square"/>
   </g>
   <g id="line2d_19">
    <path d="M 659.464214 186.59292 
L 659.464214 20.27292 
" clip-path="url(#p5af263436a)" style="fill: none; stroke: #808080; stroke-opacity: 0.5; stroke-linecap: square"/>
   </g>
   <g id="line2d_20">
    <path d="M 83.116051 79.970851 
L 83.355896 85.184644 
L 83.595742 85.184644 
L 84.315277 100.826024 
L 84.555123 100.826024 
L 84.794968 106.039817 
L 85.034813 106.039817 
L 85.274658 111.25361 
L 85.514504 111.25361 
L 85.994194 121.681196 
L 87.193421 121.681196 
L 87.433266 126.894989 
L 87.673111 121.681196 
L 87.912956 126.894989 
L 88.152802 121.681196 
L 88.392647 121.681196 
L 88.872337 132.108782 
L 89.112183 132.108782 
L 89.591873 121.681196 
L 90.071564 132.108782 
L 91.510635 132.108782 
L 91.750481 137.322575 
L 91.990326 137.322575 
L 92.230171 142.536369 
L 93.189552 142.536369 
L 93.429397 147.750162 
L 93.669243 147.750162 
L 93.909088 152.963955 
L 94.148933 147.750162 
L 94.388778 152.963955 
L 94.628624 152.963955 
L 94.868469 158.177748 
L 95.108314 152.963955 
L 96.067695 152.963955 
L 96.30754 147.750162 
L 96.787231 158.177748 
L 97.266922 147.750162 
L 97.506767 147.750162 
L 97.746612 142.536369 
L 98.705993 142.536369 
L 98.945838 137.322575 
L 99.185684 137.322575 
L 100.145065 116.467403 
L 100.38491 116.467403 
L 101.104446 100.826024 
L 101.584136 100.826024 
L 101.823982 95.612231 
L 102.063827 95.612231 
L 102.303672 100.826024 
L 102.543517 100.826024 
L 102.783363 95.612231 
L 103.023208 95.612231 
L 103.263053 90.398438 
L 103.502898 95.612231 
L 103.742744 95.612231 
L 103.982589 90.398438 
L 104.222434 95.612231 
L 104.702125 95.612231 
L 104.94197 100.826024 
L 105.181815 100.826024 
L 105.42166 95.612231 
L 106.381041 95.612231 
L 107.340423 116.467403 
L 108.059958 116.467403 
L 108.299804 121.681196 
L 108.539649 121.681196 
L 108.779494 116.467403 
L 109.019339 121.681196 
L 109.49903 111.25361 
L 109.738875 116.467403 
L 110.218566 116.467403 
L 110.458411 121.681196 
L 110.938101 111.25361 
L 111.177947 116.467403 
L 111.417792 116.467403 
L 111.657637 121.681196 
L 112.137328 121.681196 
L 112.377173 116.467403 
L 113.096709 116.467403 
L 113.336554 121.681196 
L 114.295935 121.681196 
L 114.53578 116.467403 
L 114.775626 116.467403 
L 115.015471 121.681196 
L 115.495161 121.681196 
L 115.735007 126.894989 
L 116.214697 126.894989 
L 116.694388 137.322575 
L 116.934233 132.108782 
L 117.174078 137.322575 
L 117.653769 137.322575 
L 117.893614 142.536369 
L 119.332686 142.536369 
L 119.812376 152.963955 
L 120.052221 152.963955 
L 120.292067 147.750162 
L 120.531912 147.750162 
L 121.011602 137.322575 
L 121.251448 137.322575 
L 121.491293 132.108782 
L 122.210829 132.108782 
L 122.450674 137.322575 
L 122.690519 137.322575 
L 122.930364 132.108782 
L 123.17021 137.322575 
L 123.410055 137.322575 
L 123.889746 126.894989 
L 124.609281 126.894989 
L 124.849127 121.681196 
L 125.088972 121.681196 
L 125.328817 126.894989 
L 125.568662 126.894989 
L 126.048353 116.467403 
L 126.288198 116.467403 
L 126.767889 106.039817 
L 127.007734 106.039817 
L 127.247579 100.826024 
L 127.487424 100.826024 
L 127.72727 95.612231 
L 127.967115 95.612231 
L 128.20696 100.826024 
L 128.446805 95.612231 
L 128.686651 95.612231 
L 128.926496 100.826024 
L 129.646032 85.184644 
L 130.125722 85.184644 
L 130.605413 74.757058 
L 131.324949 74.757058 
L 131.564794 69.543265 
L 132.044484 69.543265 
L 132.76402 53.901886 
L 133.243711 53.901886 
L 133.483556 48.688093 
L 133.723401 48.688093 
L 133.963246 53.901886 
L 134.682782 53.901886 
L 135.162473 64.329472 
L 135.882009 64.329472 
L 136.121854 59.115679 
L 136.84139 74.757058 
L 137.081235 74.757058 
L 138.760152 111.25361 
L 138.999997 111.25361 
L 140.918759 152.963955 
L 141.158604 152.963955 
M 148.353962 100.826024 
L 149.313343 100.826024 
L 149.553188 106.039817 
L 149.793034 100.826024 
L 150.752415 100.826024 
L 150.99226 106.039817 
L 151.471951 106.039817 
L 151.711796 100.826024 
L 151.951641 106.039817 
L 152.671177 106.039817 
L 152.911022 111.25361 
L 153.870403 111.25361 
L 154.110248 106.039817 
L 154.589939 116.467403 
L 154.829784 111.25361 
L 155.54932 111.25361 
L 155.789165 116.467403 
L 156.029011 116.467403 
L 156.268856 121.681196 
L 156.508701 116.467403 
L 156.748546 116.467403 
L 156.988392 121.681196 
L 157.228237 116.467403 
L 158.187618 116.467403 
L 158.427463 111.25361 
L 158.907154 111.25361 
L 159.146999 106.039817 
L 159.626689 106.039817 
L 159.866535 100.826024 
L 160.346225 100.826024 
L 160.58607 106.039817 
L 161.065761 95.612231 
L 161.305606 100.826024 
L 161.545452 95.612231 
L 161.785297 95.612231 
L 162.025142 100.826024 
L 162.984523 100.826024 
L 163.224368 106.039817 
L 163.464214 100.826024 
L 163.704059 106.039817 
L 163.943904 100.826024 
L 164.423595 100.826024 
L 164.66344 95.612231 
L 164.903285 100.826024 
L 165.382976 100.826024 
L 165.862666 111.25361 
L 166.822047 111.25361 
L 167.061893 116.467403 
L 167.541583 116.467403 
L 167.781428 111.25361 
L 168.021274 116.467403 
L 168.261119 116.467403 
L 168.500964 111.25361 
L 168.740809 116.467403 
L 169.460345 116.467403 
L 169.70019 111.25361 
L 169.940036 116.467403 
L 170.179881 116.467403 
L 170.419726 111.25361 
L 170.659571 116.467403 
L 171.379107 116.467403 
L 171.858798 126.894989 
L 172.098643 126.894989 
L 172.338488 132.108782 
L 172.578334 132.108782 
L 172.818179 126.894989 
L 173.297869 126.894989 
L 173.537715 132.108782 
L 173.77756 132.108782 
L 174.017405 137.322575 
L 174.25725 132.108782 
L 174.736941 132.108782 
L 174.976786 137.322575 
L 175.216631 132.108782 
L 175.696322 142.536369 
L 177.375239 142.536369 
L 177.615084 147.750162 
L 177.854929 142.536369 
L 178.094775 142.536369 
L 178.33462 147.750162 
L 178.574465 142.536369 
L 179.054156 142.536369 
L 179.294001 137.322575 
L 180.013537 137.322575 
L 180.253382 132.108782 
L 180.493227 132.108782 
L 180.733072 126.894989 
L 182.651835 126.894989 
L 183.131525 116.467403 
L 183.851061 116.467403 
L 184.090906 121.681196 
L 184.810442 121.681196 
L 185.050287 126.894989 
L 185.290132 126.894989 
L 185.529978 121.681196 
L 185.769823 126.894989 
L 186.249513 126.894989 
L 186.489359 132.108782 
L 186.729204 126.894989 
L 186.969049 126.894989 
L 187.44874 137.322575 
L 187.688585 137.322575 
L 187.92843 142.536369 
L 188.168276 137.322575 
L 188.408121 137.322575 
L 188.647966 142.536369 
L 188.887811 142.536369 
L 189.127657 137.322575 
L 189.367502 137.322575 
L 189.607347 142.536369 
L 189.847192 137.322575 
L 190.087038 142.536369 
L 190.566728 142.536369 
L 191.046419 132.108782 
L 191.526109 132.108782 
L 192.0058 121.681196 
L 192.48549 121.681196 
L 192.725335 126.894989 
L 193.205026 126.894989 
L 193.444871 121.681196 
L 194.164407 121.681196 
L 194.404252 116.467403 
L 194.644098 116.467403 
L 194.883943 121.681196 
L 195.363633 121.681196 
L 195.843324 111.25361 
L 196.083169 111.25361 
L 196.323014 116.467403 
L 197.282395 116.467403 
L 197.522241 121.681196 
L 197.762086 116.467403 
L 198.001931 121.681196 
L 198.241776 121.681196 
L 198.481622 116.467403 
L 199.441003 116.467403 
L 199.680848 111.25361 
L 200.160539 111.25361 
L 200.400384 106.039817 
L 200.640229 111.25361 
L 200.880074 111.25361 
L 201.11992 116.467403 
L 201.359765 111.25361 
L 201.59961 111.25361 
L 202.079301 100.826024 
M 209.274658 137.322575 
L 209.514504 132.108782 
L 210.23404 147.750162 
L 210.71373 147.750162 
L 210.953575 152.963955 
L 211.193421 152.963955 
L 211.433266 158.177748 
L 211.673111 158.177748 
L 211.912956 152.963955 
L 212.152802 158.177748 
L 212.632492 158.177748 
L 212.872337 163.391541 
L 214.071564 163.391541 
L 214.311409 158.177748 
L 214.551254 158.177748 
L 214.791099 163.391541 
L 216.470016 163.391541 
L 216.709862 168.605334 
L 218.868469 168.605334 
L 219.108314 173.819127 
L 221.266922 173.819127 
L 221.506767 179.03292 
L 227.023208 179.03292 
L 227.263053 173.819127 
L 229.42166 173.819127 
L 229.901351 163.391541 
L 230.141196 163.391541 
L 230.381041 158.177748 
L 230.860732 158.177748 
L 231.100577 152.963955 
L 231.820113 152.963955 
L 233.97872 106.039817 
L 234.218566 106.039817 
L 234.458411 111.25361 
L 236.137328 74.757058 
L 236.377173 74.757058 
L 236.617018 69.543265 
L 237.096709 69.543265 
L 237.336554 64.329472 
L 237.576399 64.329472 
L 237.816245 59.115679 
L 238.295935 59.115679 
L 238.775626 48.688093 
L 239.735007 48.688093 
L 240.454542 64.329472 
L 240.934233 64.329472 
M 248.129591 137.322575 
L 249.088972 158.177748 
L 249.328817 152.963955 
L 251.967115 152.963955 
L 252.20696 158.177748 
L 253.885877 158.177748 
L 254.125722 163.391541 
L 254.605413 163.391541 
L 254.845258 158.177748 
L 255.085103 158.177748 
L 255.804639 142.536369 
L 256.28433 142.536369 
L 256.524175 147.750162 
L 257.003865 147.750162 
L 257.723401 132.108782 
L 257.963246 132.108782 
L 258.203092 137.322575 
L 258.922628 137.322575 
L 259.162473 142.536369 
L 261.800771 142.536369 
L 262.040616 147.750162 
L 262.280461 147.750162 
L 262.999997 163.391541 
L 263.719533 163.391541 
L 263.959378 158.177748 
L 264.199223 158.177748 
L 264.439069 163.391541 
L 264.678914 163.391541 
L 264.918759 168.605334 
L 265.39845 168.605334 
L 265.87814 158.177748 
L 266.117985 158.177748 
L 266.597676 147.750162 
L 266.837521 147.750162 
L 267.317212 137.322575 
L 268.036747 137.322575 
L 268.276593 132.108782 
M 275.471951 38.260506 
L 279.309475 38.260506 
L 279.54932 33.046713 
L 280.029011 33.046713 
L 280.268856 27.83292 
L 280.748546 27.83292 
L 280.988392 33.046713 
L 281.468082 33.046713 
L 281.707927 38.260506 
L 281.947773 33.046713 
L 283.386844 33.046713 
L 283.626689 38.260506 
L 285.065761 38.260506 
L 285.305606 43.4743 
L 286.025142 43.4743 
L 286.264987 48.688093 
L 287.464214 48.688093 
L 287.704059 53.901886 
L 287.943904 53.901886 
L 288.183749 48.688093 
L 288.66344 48.688093 
L 288.903285 43.4743 
L 290.342357 43.4743 
L 290.582202 48.688093 
L 290.822047 43.4743 
L 291.061893 43.4743 
L 291.301738 48.688093 
L 291.541583 48.688093 
L 292.021274 59.115679 
L 292.261119 59.115679 
L 292.500964 53.901886 
L 292.980655 64.329472 
L 294.659571 64.329472 
L 294.899417 59.115679 
L 295.379107 59.115679 
L 295.858798 69.543265 
L 296.338488 69.543265 
L 296.578334 74.757058 
L 297.058024 74.757058 
L 297.537715 85.184644 
L 297.77756 85.184644 
L 298.017405 90.398438 
L 298.25725 90.398438 
L 298.497096 85.184644 
L 298.736941 85.184644 
L 298.976786 79.970851 
L 300.176012 79.970851 
L 300.415858 85.184644 
L 300.655703 85.184644 
M 307.851061 168.605334 
L 308.090906 173.819127 
L 308.570597 173.819127 
L 308.810442 179.03292 
L 309.290132 179.03292 
L 310.249513 158.177748 
L 310.729204 158.177748 
L 310.969049 152.963955 
L 311.44874 152.963955 
L 311.92843 142.536369 
L 312.408121 142.536369 
L 312.647966 137.322575 
L 312.887811 137.322575 
L 313.127657 132.108782 
L 314.087038 132.108782 
L 315.765954 95.612231 
L 316.0058 95.612231 
L 316.48549 85.184644 
L 316.725335 85.184644 
L 316.965181 90.398438 
L 318.164407 90.398438 
L 318.644098 79.970851 
L 319.123788 79.970851 
L 319.363633 74.757058 
L 319.843324 74.757058 
L 320.083169 69.543265 
L 320.323014 74.757058 
L 320.56286 69.543265 
L 320.802705 69.543265 
L 321.282395 59.115679 
L 322.241776 59.115679 
L 322.481622 64.329472 
L 322.721467 64.329472 
L 322.961312 69.543265 
L 323.201158 69.543265 
L 323.680848 79.970851 
L 323.920693 79.970851 
L 324.160539 74.757058 
L 324.400384 74.757058 
L 324.640229 79.970851 
L 325.11992 79.970851 
L 325.839455 95.612231 
L 327.758217 95.612231 
L 327.998063 90.398438 
L 329.197289 90.398438 
L 329.437134 95.612231 
L 329.67698 90.398438 
L 329.916825 95.612231 
L 330.15667 90.398438 
L 330.396515 90.398438 
L 330.876206 79.970851 
L 331.595742 79.970851 
L 332.315277 64.329472 
L 333.034813 64.329472 
L 333.754349 79.970851 
L 333.994194 74.757058 
L 334.23404 74.757058 
L 334.473885 79.970851 
L 334.953575 79.970851 
L 335.193421 85.184644 
L 335.673111 85.184644 
L 336.392647 100.826024 
L 336.632492 100.826024 
L 336.872337 106.039817 
L 337.112183 106.039817 
L 337.352028 111.25361 
M 344.547386 64.329472 
L 345.027076 74.757058 
L 345.266922 69.543265 
L 347.185684 69.543265 
L 347.665374 59.115679 
L 348.145065 59.115679 
L 348.624755 69.543265 
L 348.8646 69.543265 
L 349.104446 74.757058 
L 349.344291 74.757058 
L 349.584136 79.970851 
L 350.063827 79.970851 
L 350.303672 85.184644 
L 350.543517 85.184644 
L 350.783363 90.398438 
L 351.023208 85.184644 
L 351.742744 85.184644 
L 352.222434 74.757058 
L 352.462279 79.970851 
L 353.181815 79.970851 
L 353.661506 90.398438 
L 355.580268 90.398438 
L 355.820113 85.184644 
L 356.299804 85.184644 
L 357.019339 69.543265 
L 357.49903 69.543265 
L 357.738875 74.757058 
L 357.97872 69.543265 
L 360.377173 69.543265 
L 360.617018 64.329472 
L 360.856864 64.329472 
L 361.096709 69.543265 
L 362.53578 69.543265 
L 362.775626 64.329472 
L 363.015471 64.329472 
L 363.255316 69.543265 
L 363.495161 64.329472 
L 365.174078 64.329472 
L 365.413923 69.543265 
L 365.653769 64.329472 
L 366.373305 64.329472 
L 366.61315 69.543265 
L 366.852995 64.329472 
L 367.09284 64.329472 
L 367.332686 69.543265 
L 369.011602 69.543265 
L 369.251448 74.757058 
L 369.731138 74.757058 
L 370.210829 85.184644 
L 370.450674 79.970851 
L 370.690519 79.970851 
L 370.930364 85.184644 
L 371.6499 85.184644 
L 372.129591 74.757058 
L 372.369436 79.970851 
L 372.609281 79.970851 
L 372.849127 85.184644 
L 374.288198 85.184644 
L 374.528043 79.970851 
L 375.487424 79.970851 
L 376.20696 95.612231 
L 376.446805 95.612231 
L 376.926496 106.039817 
L 377.406187 106.039817 
L 377.885877 116.467403 
L 378.125722 116.467403 
M 385.32108 126.894989 
L 385.560925 121.681196 
L 386.040616 121.681196 
L 386.280461 126.894989 
L 387.479687 126.894989 
L 387.719533 121.681196 
L 387.959378 121.681196 
L 388.199223 116.467403 
L 388.439069 116.467403 
L 388.678914 121.681196 
L 389.158604 121.681196 
L 389.39845 126.894989 
L 389.638295 126.894989 
L 389.87814 132.108782 
L 390.117985 132.108782 
L 390.357831 137.322575 
L 390.597676 137.322575 
L 391.317212 121.681196 
L 391.557057 126.894989 
L 391.796902 126.894989 
L 392.036747 132.108782 
L 392.996129 132.108782 
L 393.235974 126.894989 
L 393.475819 126.894989 
L 393.95551 116.467403 
L 394.675045 116.467403 
L 395.154736 126.894989 
L 395.394581 126.894989 
L 395.634426 121.681196 
L 396.833653 121.681196 
L 397.073498 116.467403 
L 397.553188 116.467403 
L 398.51257 137.322575 
L 398.752415 137.322575 
L 398.99226 142.536369 
L 399.711796 142.536369 
L 399.951641 147.750162 
L 400.671177 147.750162 
L 401.150867 158.177748 
L 402.350094 158.177748 
L 402.829784 168.605334 
L 404.029011 168.605334 
L 404.268856 173.819127 
L 404.988392 173.819127 
L 405.468082 163.391541 
L 405.707927 163.391541 
L 405.947773 158.177748 
L 407.386844 158.177748 
L 407.626689 163.391541 
L 408.10638 163.391541 
L 408.58607 152.963955 
L 411.943904 152.963955 
L 412.183749 147.750162 
L 412.66344 158.177748 
L 412.903285 158.177748 
L 413.14313 163.391541 
L 415.301738 163.391541 
L 415.781428 173.819127 
L 419.139262 173.819127 
L 419.379107 179.03292 
L 423.696322 179.03292 
L 423.936167 173.819127 
M 431.131525 179.03292 
L 449.359765 179.03292 
L 449.59961 173.819127 
L 456.555123 173.819127 
L 456.794968 179.03292 
L 463.030945 179.03292 
L 463.27079 173.819127 
L 463.990326 173.819127 
L 464.230171 168.605334 
L 464.709862 168.605334 
L 464.949707 163.391541 
L 470.226303 163.391541 
L 470.466148 168.605334 
L 471.185684 168.605334 
L 471.425529 173.819127 
L 471.905219 173.819127 
L 472.145065 179.03292 
L 472.38491 179.03292 
L 472.8646 168.605334 
L 474.543517 168.605334 
L 474.783363 163.391541 
L 475.263053 163.391541 
L 475.502898 158.177748 
L 475.742744 158.177748 
L 475.982589 152.963955 
L 476.222434 152.963955 
L 476.462279 147.750162 
L 476.702125 147.750162 
L 477.42166 132.108782 
L 477.661506 132.108782 
L 477.901351 126.894989 
L 478.141196 126.894989 
L 478.381041 121.681196 
L 480.059958 121.681196 
L 480.299804 116.467403 
L 481.019339 116.467403 
L 481.259185 111.25361 
L 483.657637 111.25361 
M 490.852995 33.046713 
L 493.011602 33.046713 
L 493.251448 27.83292 
L 493.731138 27.83292 
L 493.970983 33.046713 
L 496.369436 33.046713 
L 496.609281 27.83292 
L 496.849127 33.046713 
L 497.088972 33.046713 
L 497.328817 38.260506 
L 497.808508 38.260506 
L 498.048353 43.4743 
L 498.288198 43.4743 
L 498.528043 48.688093 
L 499.967115 48.688093 
L 500.446805 59.115679 
L 500.926496 59.115679 
L 501.166341 53.901886 
L 501.406187 53.901886 
L 501.885877 64.329472 
L 502.125722 64.329472 
L 502.365568 69.543265 
L 502.605413 69.543265 
L 503.804639 95.612231 
L 504.76402 95.612231 
L 505.003865 100.826024 
L 505.243711 95.612231 
L 505.483556 95.612231 
L 505.723401 90.398438 
L 506.203092 100.826024 
L 506.442937 100.826024 
L 506.922628 111.25361 
L 507.162473 111.25361 
L 507.642163 100.826024 
L 508.84139 100.826024 
L 509.081235 95.612231 
L 509.32108 100.826024 
L 509.560925 95.612231 
L 509.800771 95.612231 
L 510.040616 90.398438 
L 510.280461 90.398438 
L 510.520306 85.184644 
L 510.999997 85.184644 
L 511.239842 79.970851 
L 511.719533 79.970851 
L 511.959378 85.184644 
L 512.199223 85.184644 
L 512.918759 100.826024 
L 513.638295 100.826024 
L 513.87814 95.612231 
L 514.357831 95.612231 
M 521.553188 85.184644 
L 521.793034 85.184644 
L 522.032879 90.398438 
L 523.711796 90.398438 
L 524.191486 79.970851 
L 524.431332 79.970851 
L 524.911022 69.543265 
L 525.150867 69.543265 
L 525.390713 64.329472 
L 525.630558 64.329472 
L 525.870403 59.115679 
L 526.110248 64.329472 
L 526.350094 64.329472 
L 526.589939 69.543265 
L 527.069629 69.543265 
L 527.54932 79.970851 
L 528.029011 79.970851 
L 528.268856 74.757058 
L 528.508701 74.757058 
L 528.748546 69.543265 
L 529.228237 69.543265 
L 529.468082 74.757058 
L 529.707927 74.757058 
L 529.947773 79.970851 
L 530.667308 79.970851 
L 530.907154 85.184644 
L 532.346225 85.184644 
L 533.065761 100.826024 
L 533.305606 95.612231 
L 533.545452 95.612231 
L 534.025142 85.184644 
L 534.264987 90.398438 
L 534.744678 90.398438 
L 534.984523 85.184644 
L 535.464214 95.612231 
L 535.704059 90.398438 
L 536.183749 90.398438 
L 536.66344 79.970851 
L 537.14313 79.970851 
L 537.382976 85.184644 
L 537.622821 85.184644 
L 537.862666 90.398438 
L 538.102511 85.184644 
L 538.342357 90.398438 
L 539.301738 90.398438 
L 540.021274 74.757058 
L 540.261119 74.757058 
L 541.2205 95.612231 
L 541.460345 95.612231 
L 541.940036 85.184644 
L 542.179881 90.398438 
L 542.419726 90.398438 
L 542.659571 85.184644 
L 542.899417 85.184644 
M 550.094775 90.398438 
L 550.574465 90.398438 
L 550.81431 85.184644 
L 551.773691 85.184644 
L 552.013537 90.398438 
L 552.253382 90.398438 
L 552.733072 79.970851 
L 552.972918 79.970851 
L 553.692453 64.329472 
L 553.932299 64.329472 
L 554.411989 53.901886 
L 555.851061 53.901886 
L 556.090906 59.115679 
L 556.330751 53.901886 
L 557.050287 53.901886 
L 557.290132 59.115679 
L 558.729204 59.115679 
L 559.208894 48.688093 
L 559.44874 53.901886 
L 559.92843 53.901886 
L 560.168276 59.115679 
L 561.367502 59.115679 
L 561.607347 64.329472 
L 561.847192 64.329472 
L 562.087038 69.543265 
L 562.806573 69.543265 
L 563.046419 74.757058 
L 563.286264 69.543265 
L 563.526109 74.757058 
L 563.765954 74.757058 
L 564.0058 79.970851 
L 564.245645 79.970851 
L 564.48549 74.757058 
L 564.965181 74.757058 
L 565.205026 79.970851 
L 565.684717 79.970851 
L 566.164407 90.398438 
L 566.644098 90.398438 
L 567.123788 100.826024 
L 567.363633 95.612231 
L 568.083169 111.25361 
L 568.323014 111.25361 
L 568.56286 116.467403 
L 568.802705 116.467403 
L 569.04255 121.681196 
L 569.282395 121.681196 
L 570.001931 137.322575 
L 570.241776 137.322575 
L 570.481622 142.536369 
L 570.721467 142.536369 
L 570.961312 147.750162 
L 571.441003 147.750162 
L 571.920693 158.177748 
L 572.640229 158.177748 
L 572.880074 163.391541 
L 573.359765 163.391541 
L 573.59961 168.605334 
L 574.319146 168.605334 
L 574.558991 173.819127 
L 576.717599 173.819127 
M 583.912956 59.115679 
L 584.152802 64.329472 
L 584.392647 64.329472 
L 586.071564 100.826024 
L 586.311409 100.826024 
L 588.230171 142.536369 
L 588.470016 142.536369 
L 589.189552 158.177748 
L 589.909088 158.177748 
L 590.148933 152.963955 
L 590.388778 152.963955 
L 593.266922 90.398438 
L 593.746612 90.398438 
L 594.466148 74.757058 
L 596.38491 74.757058 
L 597.104446 90.398438 
L 598.303672 90.398438 
L 598.543517 95.612231 
L 598.783363 95.612231 
L 600.462279 132.108782 
L 600.94197 132.108782 
L 601.661506 147.750162 
L 602.141196 137.322575 
L 604.299804 137.322575 
L 605.49903 163.391541 
L 605.738875 163.391541 
L 605.97872 168.605334 
L 608.856864 168.605334 
L 609.336554 179.03292 
L 620.129591 179.03292 
L 620.369436 173.819127 
L 621.568662 173.819127 
L 621.808508 168.605334 
M 629.003865 126.894989 
L 629.243711 126.894989 
L 629.483556 132.108782 
L 629.723401 126.894989 
L 629.963246 126.894989 
L 630.203092 132.108782 
L 630.682782 132.108782 
L 630.922628 137.322575 
L 631.402318 137.322575 
L 631.642163 132.108782 
L 631.882009 132.108782 
L 632.121854 137.322575 
L 632.361699 137.322575 
L 632.601544 142.536369 
L 632.84139 137.322575 
L 633.081235 142.536369 
L 634.040616 142.536369 
L 634.280461 137.322575 
L 636.678914 137.322575 
L 636.918759 142.536369 
L 637.39845 142.536369 
L 637.638295 137.322575 
L 638.597676 137.322575 
L 638.837521 142.536369 
L 639.077366 142.536369 
L 639.317212 137.322575 
L 639.557057 142.536369 
L 639.796902 142.536369 
L 640.036747 147.750162 
L 641.235974 147.750162 
L 641.715664 158.177748 
L 641.95551 152.963955 
L 642.675045 152.963955 
L 642.914891 158.177748 
L 643.394581 147.750162 
L 643.634426 152.963955 
L 644.114117 152.963955 
L 644.353962 147.750162 
L 646.272724 147.750162 
L 646.51257 152.963955 
L 646.752415 147.750162 
L 648.911022 147.750162 
L 649.150867 152.963955 
L 650.110248 152.963955 
L 650.589939 163.391541 
L 651.309475 163.391541 
L 651.54932 168.605334 
L 651.789165 168.605334 
L 652.029011 173.819127 
L 653.707927 173.819127 
L 653.947773 179.03292 
L 659.464214 179.03292 
M 666.659571 152.963955 
L 666.899417 158.177748 
L 667.139262 158.177748 
L 667.379107 163.391541 
L 667.618952 163.391541 
L 668.338488 179.03292 
L 669.77756 179.03292 
L 670.25725 168.605334 
L 671.456477 168.605334 
L 671.696322 163.391541 
L 674.81431 163.391541 
L 675.294001 152.963955 
L 676.972918 152.963955 
L 677.452608 163.391541 
L 678.651835 163.391541 
L 678.89168 168.605334 
L 682.009668 168.605334 
L 682.489359 179.03292 
L 691.843324 179.03292 
L 691.843324 179.03292 
" clip-path="url(#p5af263436a)" style="fill: none; stroke: #228833; stroke-width: 2; stroke-linecap: square"/>
   </g>
   <g id="line2d_21">
    <path d="M 83.116051 121.681196 
L 83.355896 116.467403 
L 83.595742 116.467403 
L 84.315277 100.826024 
L 84.555123 100.826024 
L 84.794968 95.612231 
L 85.034813 95.612231 
L 85.274658 90.398438 
L 85.514504 90.398438 
L 85.994194 79.970851 
L 87.193421 79.970851 
L 87.433266 74.757058 
L 87.673111 79.970851 
L 87.912956 74.757058 
L 88.152802 79.970851 
L 88.392647 79.970851 
L 88.872337 69.543265 
L 89.112183 69.543265 
L 89.591873 79.970851 
L 89.831718 79.970851 
L 90.071564 74.757058 
L 90.551254 74.757058 
L 90.791099 79.970851 
L 91.510635 79.970851 
L 91.750481 74.757058 
L 91.990326 74.757058 
L 92.230171 69.543265 
L 93.669243 69.543265 
L 93.909088 64.329472 
L 94.148933 69.543265 
L 94.388778 64.329472 
L 94.628624 64.329472 
L 94.868469 59.115679 
L 95.108314 64.329472 
L 95.588005 64.329472 
L 95.82785 69.543265 
L 96.067695 69.543265 
L 96.30754 74.757058 
L 96.547386 69.543265 
L 97.027076 69.543265 
L 97.266922 74.757058 
L 97.506767 74.757058 
L 97.746612 79.970851 
L 97.986457 74.757058 
L 98.705993 74.757058 
L 100.145065 106.039817 
L 100.624755 106.039817 
L 101.104446 116.467403 
L 101.584136 116.467403 
L 101.823982 121.681196 
L 102.063827 121.681196 
L 102.303672 116.467403 
L 102.543517 116.467403 
L 102.783363 121.681196 
L 103.023208 121.681196 
L 103.263053 126.894989 
L 103.502898 121.681196 
L 103.982589 121.681196 
L 104.222434 116.467403 
L 104.702125 116.467403 
L 104.94197 111.25361 
L 105.181815 111.25361 
L 105.42166 116.467403 
L 106.141196 116.467403 
L 107.100577 95.612231 
L 108.059958 95.612231 
L 108.299804 90.398438 
L 108.539649 90.398438 
L 108.779494 95.612231 
L 109.019339 95.612231 
L 109.49903 106.039817 
L 109.738875 100.826024 
L 109.97872 100.826024 
L 110.458411 90.398438 
L 110.938101 100.826024 
L 111.177947 95.612231 
L 111.417792 95.612231 
L 111.657637 90.398438 
L 112.137328 90.398438 
L 112.377173 95.612231 
L 113.096709 95.612231 
L 113.336554 90.398438 
L 113.576399 90.398438 
L 114.05609 100.826024 
L 115.495161 100.826024 
L 115.735007 95.612231 
L 115.974852 95.612231 
L 116.454542 85.184644 
L 116.694388 85.184644 
L 116.934233 90.398438 
L 117.413923 90.398438 
L 117.653769 95.612231 
L 117.893614 90.398438 
L 118.61315 90.398438 
L 118.852995 95.612231 
L 119.332686 95.612231 
L 119.812376 85.184644 
L 120.052221 85.184644 
L 120.771757 100.826024 
L 121.011602 100.826024 
L 121.251448 95.612231 
L 121.491293 100.826024 
L 121.970983 100.826024 
L 122.210829 95.612231 
L 122.690519 95.612231 
L 122.930364 100.826024 
L 123.17021 95.612231 
L 123.410055 95.612231 
L 123.6499 100.826024 
L 124.129591 100.826024 
L 124.369436 95.612231 
L 124.609281 100.826024 
L 125.568662 100.826024 
L 125.808508 106.039817 
L 126.288198 106.039817 
L 126.767889 116.467403 
L 127.007734 116.467403 
L 127.247579 121.681196 
L 127.967115 121.681196 
L 128.20696 116.467403 
L 128.446805 121.681196 
L 128.686651 121.681196 
L 128.926496 116.467403 
L 129.406187 126.894989 
L 130.125722 126.894989 
L 130.605413 137.322575 
L 131.324949 137.322575 
L 131.564794 142.536369 
L 131.804639 137.322575 
L 132.044484 137.322575 
L 132.28433 142.536369 
L 132.524175 142.536369 
L 132.76402 147.750162 
L 133.243711 147.750162 
L 133.483556 152.963955 
L 133.963246 152.963955 
L 134.203092 158.177748 
L 135.162473 158.177748 
L 135.402318 163.391541 
L 135.882009 163.391541 
L 136.121854 168.605334 
L 136.84139 152.963955 
L 137.081235 158.177748 
L 137.32108 152.963955 
L 137.560925 152.963955 
L 137.800771 147.750162 
L 138.040616 147.750162 
L 138.760152 132.108782 
L 138.999997 132.108782 
L 139.239842 126.894989 
L 139.479687 126.894989 
L 139.719533 121.681196 
L 139.959378 121.681196 
L 140.199223 116.467403 
L 140.439069 116.467403 
L 140.678914 111.25361 
L 140.918759 111.25361 
L 141.158604 106.039817 
M 148.353962 100.826024 
L 149.313343 100.826024 
L 149.553188 95.612231 
L 149.793034 100.826024 
L 150.752415 100.826024 
L 150.99226 95.612231 
L 151.471951 95.612231 
L 151.711796 100.826024 
L 151.951641 95.612231 
L 153.870403 95.612231 
L 154.110248 100.826024 
L 154.589939 90.398438 
L 154.829784 95.612231 
L 155.54932 95.612231 
L 155.789165 90.398438 
L 156.029011 90.398438 
L 156.268856 85.184644 
L 156.508701 90.398438 
L 156.748546 90.398438 
L 156.988392 85.184644 
L 157.228237 90.398438 
L 158.187618 90.398438 
L 158.427463 95.612231 
L 158.907154 95.612231 
L 159.146999 100.826024 
L 159.626689 100.826024 
L 159.866535 106.039817 
L 160.10638 100.826024 
L 160.346225 100.826024 
L 160.58607 95.612231 
L 161.065761 106.039817 
L 161.305606 100.826024 
L 161.545452 106.039817 
L 161.785297 106.039817 
L 162.025142 100.826024 
L 162.984523 100.826024 
L 163.224368 95.612231 
L 163.464214 100.826024 
L 163.704059 95.612231 
L 163.943904 100.826024 
L 164.423595 100.826024 
L 164.66344 106.039817 
L 164.903285 100.826024 
L 165.382976 100.826024 
L 165.862666 90.398438 
L 166.822047 90.398438 
L 167.061893 85.184644 
L 167.301738 90.398438 
L 167.541583 90.398438 
L 167.781428 95.612231 
L 168.021274 90.398438 
L 168.261119 90.398438 
L 168.500964 95.612231 
L 168.740809 90.398438 
L 169.460345 90.398438 
L 169.70019 95.612231 
L 169.940036 90.398438 
L 170.179881 90.398438 
L 170.419726 95.612231 
L 170.659571 90.398438 
L 171.379107 90.398438 
L 171.618952 85.184644 
L 171.858798 85.184644 
L 172.098643 90.398438 
L 172.338488 85.184644 
L 172.578334 85.184644 
L 172.818179 90.398438 
L 173.297869 90.398438 
L 173.537715 85.184644 
L 173.77756 90.398438 
L 174.017405 85.184644 
L 174.25725 90.398438 
L 174.497096 85.184644 
L 174.736941 85.184644 
L 174.976786 79.970851 
L 175.216631 85.184644 
L 175.696322 74.757058 
L 175.936167 79.970851 
L 177.375239 79.970851 
L 177.615084 74.757058 
L 177.854929 79.970851 
L 178.094775 79.970851 
L 178.33462 74.757058 
L 178.574465 79.970851 
L 178.81431 79.970851 
L 179.054156 74.757058 
L 180.013537 74.757058 
L 180.253382 79.970851 
L 180.493227 79.970851 
L 180.733072 85.184644 
L 180.972918 85.184644 
L 181.212763 90.398438 
L 181.452608 90.398438 
L 181.692453 95.612231 
L 182.651835 95.612231 
L 182.89168 100.826024 
L 183.851061 100.826024 
L 184.090906 95.612231 
L 185.290132 95.612231 
L 185.529978 100.826024 
L 185.769823 95.612231 
L 186.009668 100.826024 
L 186.489359 100.826024 
L 186.729204 106.039817 
L 186.969049 106.039817 
L 187.44874 95.612231 
L 187.688585 95.612231 
L 187.92843 90.398438 
L 188.408121 90.398438 
L 188.887811 79.970851 
L 189.367502 90.398438 
L 189.607347 90.398438 
L 189.847192 95.612231 
L 190.087038 90.398438 
L 190.326883 90.398438 
L 191.046419 106.039817 
L 191.286264 106.039817 
L 192.0058 121.681196 
L 192.245645 121.681196 
L 192.48549 126.894989 
L 193.205026 126.894989 
L 193.444871 132.108782 
L 193.684717 126.894989 
L 194.164407 126.894989 
L 194.644098 137.322575 
L 194.883943 137.322575 
L 195.123788 142.536369 
L 195.603479 142.536369 
L 196.083169 152.963955 
L 196.323014 152.963955 
L 196.56286 147.750162 
L 197.04255 147.750162 
L 197.282395 152.963955 
L 197.522241 147.750162 
L 197.762086 147.750162 
L 198.001931 142.536369 
L 198.241776 142.536369 
L 198.481622 147.750162 
L 199.201158 147.750162 
L 199.441003 142.536369 
L 200.640229 142.536369 
L 200.880074 147.750162 
L 201.11992 147.750162 
L 201.359765 152.963955 
L 202.079301 152.963955 
M 209.274658 85.184644 
L 209.514504 90.398438 
L 210.23404 74.757058 
L 210.473885 74.757058 
L 210.71373 79.970851 
L 210.953575 74.757058 
L 211.193421 74.757058 
L 211.433266 69.543265 
L 211.673111 69.543265 
L 211.912956 74.757058 
L 212.152802 69.543265 
L 212.872337 69.543265 
L 213.112183 64.329472 
L 213.352028 69.543265 
L 213.591873 69.543265 
L 213.831718 74.757058 
L 214.071564 74.757058 
L 214.311409 79.970851 
L 214.551254 79.970851 
L 214.791099 74.757058 
L 215.030945 74.757058 
L 215.27079 69.543265 
L 215.510635 69.543265 
L 215.750481 64.329472 
L 215.990326 69.543265 
L 216.230171 64.329472 
L 216.470016 69.543265 
L 216.709862 64.329472 
L 216.949707 69.543265 
L 217.429397 69.543265 
L 217.669243 74.757058 
L 218.868469 74.757058 
L 219.108314 69.543265 
L 219.348159 69.543265 
L 219.588005 74.757058 
L 219.82785 74.757058 
L 220.067695 69.543265 
L 220.30754 74.757058 
L 220.787231 74.757058 
L 221.027076 69.543265 
L 221.266922 69.543265 
L 221.506767 64.329472 
L 221.746612 64.329472 
L 222.466148 79.970851 
L 222.945838 79.970851 
L 223.185684 74.757058 
L 223.425529 74.757058 
L 223.665374 69.543265 
L 223.905219 74.757058 
L 224.145065 69.543265 
L 224.38491 74.757058 
L 224.624755 74.757058 
L 224.8646 69.543265 
L 226.543517 69.543265 
L 226.783363 64.329472 
L 227.263053 74.757058 
L 227.742744 64.329472 
L 227.982589 69.543265 
L 228.94197 69.543265 
L 229.181815 64.329472 
L 229.661506 64.329472 
L 229.901351 69.543265 
L 230.141196 69.543265 
L 230.860732 85.184644 
L 231.580268 85.184644 
L 232.059958 95.612231 
L 232.299804 95.612231 
L 233.97872 132.108782 
L 234.218566 132.108782 
L 234.458411 126.894989 
L 234.938101 137.322575 
L 235.177947 137.322575 
L 236.377173 163.391541 
L 237.096709 163.391541 
L 237.336554 168.605334 
L 238.295935 168.605334 
L 238.53578 173.819127 
L 240.934233 173.819127 
M 248.129591 90.398438 
L 248.369436 85.184644 
L 248.849127 85.184644 
L 249.088972 79.970851 
L 249.328817 85.184644 
L 249.568662 85.184644 
L 249.808508 79.970851 
L 250.048353 79.970851 
L 250.288198 85.184644 
L 251.487424 85.184644 
L 251.72727 79.970851 
L 252.20696 79.970851 
L 252.446805 85.184644 
L 252.686651 85.184644 
L 252.926496 79.970851 
L 253.166341 85.184644 
L 253.406187 85.184644 
L 253.646032 79.970851 
L 253.885877 79.970851 
L 254.125722 74.757058 
L 254.365568 79.970851 
L 254.605413 79.970851 
L 254.845258 85.184644 
L 255.085103 79.970851 
L 255.564794 90.398438 
L 256.28433 90.398438 
L 256.524175 85.184644 
L 257.243711 100.826024 
L 257.483556 100.826024 
L 257.963246 111.25361 
L 258.203092 106.039817 
L 258.442937 111.25361 
L 258.922628 111.25361 
L 259.642163 95.612231 
L 260.361699 95.612231 
L 260.601544 100.826024 
L 261.32108 100.826024 
L 261.560925 95.612231 
L 261.800771 95.612231 
L 262.040616 90.398438 
L 262.280461 90.398438 
L 262.520306 85.184644 
L 262.760152 85.184644 
L 263.239842 74.757058 
L 263.959378 74.757058 
L 264.199223 69.543265 
L 264.678914 69.543265 
L 265.158604 59.115679 
L 265.638295 59.115679 
L 265.87814 64.329472 
L 266.117985 64.329472 
L 267.317212 90.398438 
L 267.796902 90.398438 
L 268.276593 100.826024 
M 275.471951 173.819127 
L 280.029011 173.819127 
L 280.268856 179.03292 
L 300.655703 179.03292 
M 307.851061 79.970851 
L 308.330751 79.970851 
L 308.570597 85.184644 
L 308.810442 85.184644 
L 309.050287 90.398438 
L 309.290132 90.398438 
L 310.249513 111.25361 
L 310.729204 111.25361 
L 310.969049 116.467403 
L 311.44874 106.039817 
L 312.408121 106.039817 
L 312.647966 111.25361 
L 312.887811 111.25361 
L 313.127657 116.467403 
L 313.367502 111.25361 
L 313.607347 111.25361 
L 314.087038 100.826024 
L 314.326883 106.039817 
L 314.566728 106.039817 
L 314.806573 111.25361 
L 315.286264 111.25361 
L 315.526109 116.467403 
L 316.245645 116.467403 
L 316.48549 121.681196 
L 318.164407 121.681196 
L 318.644098 132.108782 
L 319.123788 132.108782 
L 319.363633 137.322575 
L 319.843324 137.322575 
L 320.083169 142.536369 
L 320.323014 137.322575 
L 320.56286 142.536369 
L 320.802705 142.536369 
L 321.282395 152.963955 
L 323.201158 152.963955 
L 323.680848 142.536369 
L 325.359765 142.536369 
L 325.839455 132.108782 
L 327.758217 132.108782 
L 327.998063 137.322575 
L 330.396515 137.322575 
L 330.876206 147.750162 
L 331.835587 147.750162 
L 332.315277 158.177748 
L 332.555123 158.177748 
L 333.034813 168.605334 
L 333.754349 168.605334 
L 333.994194 173.819127 
L 334.473885 173.819127 
L 334.71373 179.03292 
L 337.352028 179.03292 
M 344.547386 137.322575 
L 345.027076 126.894989 
L 345.266922 132.108782 
L 347.185684 132.108782 
L 347.665374 142.536369 
L 348.38491 142.536369 
L 348.624755 137.322575 
L 348.8646 137.322575 
L 349.104446 132.108782 
L 349.344291 132.108782 
L 349.584136 126.894989 
L 350.063827 126.894989 
L 350.303672 121.681196 
L 350.543517 121.681196 
L 350.783363 116.467403 
L 351.023208 121.681196 
L 351.742744 121.681196 
L 352.222434 132.108782 
L 352.462279 126.894989 
L 353.181815 126.894989 
L 353.661506 116.467403 
L 355.340423 116.467403 
L 355.580268 111.25361 
L 355.820113 116.467403 
L 356.299804 116.467403 
L 357.019339 132.108782 
L 357.49903 132.108782 
L 357.738875 126.894989 
L 357.97872 132.108782 
L 360.377173 132.108782 
L 360.617018 137.322575 
L 360.856864 137.322575 
L 361.096709 132.108782 
L 362.53578 132.108782 
L 362.775626 137.322575 
L 363.255316 137.322575 
L 363.495161 142.536369 
L 365.174078 142.536369 
L 365.413923 137.322575 
L 365.893614 147.750162 
L 366.373305 147.750162 
L 366.61315 142.536369 
L 366.852995 147.750162 
L 367.09284 147.750162 
L 367.332686 142.536369 
L 369.011602 142.536369 
L 369.251448 137.322575 
L 369.731138 137.322575 
L 370.210829 126.894989 
L 370.690519 126.894989 
L 370.930364 121.681196 
L 371.6499 121.681196 
L 372.129591 132.108782 
L 372.609281 132.108782 
L 373.088972 121.681196 
L 374.288198 121.681196 
L 374.528043 126.894989 
L 375.487424 126.894989 
L 376.20696 111.25361 
L 377.646032 111.25361 
L 377.885877 106.039817 
L 378.125722 106.039817 
M 385.32108 74.757058 
L 385.560925 79.970851 
L 386.040616 79.970851 
L 386.280461 74.757058 
L 387.479687 74.757058 
L 387.719533 79.970851 
L 387.959378 79.970851 
L 388.199223 85.184644 
L 388.439069 85.184644 
L 388.678914 79.970851 
L 389.158604 79.970851 
L 389.39845 74.757058 
L 389.638295 74.757058 
L 389.87814 69.543265 
L 390.117985 69.543265 
L 390.357831 64.329472 
L 390.597676 64.329472 
L 391.317212 79.970851 
L 391.557057 74.757058 
L 391.796902 74.757058 
L 392.036747 69.543265 
L 392.996129 69.543265 
L 393.235974 74.757058 
L 393.475819 74.757058 
L 393.95551 85.184644 
L 394.675045 85.184644 
L 395.154736 74.757058 
L 395.394581 74.757058 
L 395.634426 79.970851 
L 396.833653 79.970851 
L 397.073498 85.184644 
L 397.553188 85.184644 
L 398.51257 64.329472 
L 398.752415 64.329472 
L 398.99226 59.115679 
L 399.711796 59.115679 
L 399.951641 53.901886 
L 400.671177 53.901886 
L 401.150867 43.4743 
L 402.350094 43.4743 
L 402.829784 33.046713 
L 403.069629 33.046713 
L 403.54932 43.4743 
L 404.029011 43.4743 
L 404.268856 38.260506 
L 404.988392 38.260506 
L 405.468082 48.688093 
L 405.707927 48.688093 
L 405.947773 53.901886 
L 407.386844 53.901886 
L 407.626689 48.688093 
L 408.10638 48.688093 
L 408.58607 59.115679 
L 410.264987 59.115679 
L 410.744678 48.688093 
L 411.704059 48.688093 
L 412.183749 59.115679 
L 412.66344 48.688093 
L 412.903285 48.688093 
L 413.14313 43.4743 
L 414.342357 43.4743 
L 414.582202 48.688093 
L 414.822047 48.688093 
L 415.301738 59.115679 
L 415.781428 48.688093 
L 416.740809 48.688093 
L 416.980655 53.901886 
L 417.460345 53.901886 
L 417.940036 64.329472 
L 418.179881 64.329472 
L 418.419726 69.543265 
L 418.899417 69.543265 
L 419.379107 59.115679 
L 422.017405 59.115679 
L 422.497096 48.688093 
L 423.936167 79.970851 
M 431.131525 64.329472 
L 431.37137 64.329472 
L 431.611216 59.115679 
L 432.330751 59.115679 
L 432.810442 48.688093 
L 433.529978 48.688093 
L 433.769823 43.4743 
L 434.489359 43.4743 
L 434.729204 48.688093 
L 435.208894 48.688093 
L 435.92843 64.329472 
L 436.168276 59.115679 
L 437.607347 59.115679 
L 437.847192 53.901886 
L 438.806573 53.901886 
L 439.526109 69.543265 
L 440.0058 69.543265 
L 440.48549 79.970851 
L 440.725335 79.970851 
L 440.965181 85.184644 
L 441.684717 85.184644 
L 441.924562 79.970851 
L 442.644098 79.970851 
L 443.123788 69.543265 
L 443.603479 79.970851 
L 444.802705 79.970851 
L 445.282395 90.398438 
L 445.522241 85.184644 
L 445.762086 85.184644 
L 446.001931 90.398438 
L 446.241776 85.184644 
L 446.721467 85.184644 
L 447.201158 95.612231 
L 447.441003 95.612231 
L 447.680848 90.398438 
L 447.920693 90.398438 
L 448.160539 85.184644 
L 448.640229 85.184644 
L 449.11992 95.612231 
L 449.359765 95.612231 
L 449.59961 100.826024 
L 450.319146 100.826024 
L 450.798836 90.398438 
L 451.758217 90.398438 
L 451.998063 95.612231 
L 452.477753 85.184644 
L 452.957444 95.612231 
L 453.197289 90.398438 
L 453.437134 95.612231 
L 453.67698 95.612231 
L 454.15667 85.184644 
L 454.396515 85.184644 
L 454.636361 79.970851 
L 454.876206 79.970851 
L 455.116051 85.184644 
L 455.595742 85.184644 
L 455.835587 79.970851 
L 456.075432 79.970851 
L 456.315277 74.757058 
L 456.555123 74.757058 
L 457.034813 64.329472 
L 457.754349 64.329472 
L 458.473885 79.970851 
L 458.953575 79.970851 
L 459.193421 74.757058 
L 459.912956 74.757058 
L 460.152802 69.543265 
L 460.392647 69.543265 
L 460.872337 59.115679 
L 462.071564 59.115679 
L 462.311409 53.901886 
L 462.551254 59.115679 
L 463.750481 59.115679 
L 464.230171 69.543265 
L 464.709862 69.543265 
L 464.949707 74.757058 
L 465.669243 59.115679 
L 466.388778 59.115679 
L 466.628624 64.329472 
L 467.108314 64.329472 
L 467.588005 74.757058 
L 468.067695 74.757058 
L 468.30754 79.970851 
L 468.547386 79.970851 
L 468.787231 74.757058 
L 469.027076 74.757058 
L 469.266922 79.970851 
L 469.986457 79.970851 
L 470.226303 85.184644 
L 470.466148 79.970851 
L 470.705993 85.184644 
L 470.945838 85.184644 
L 471.425529 74.757058 
L 472.145065 74.757058 
L 473.344291 100.826024 
L 473.823982 100.826024 
L 474.063827 106.039817 
L 474.783363 106.039817 
L 475.263053 116.467403 
L 475.502898 116.467403 
L 476.222434 132.108782 
L 476.462279 132.108782 
L 476.702125 137.322575 
L 476.94197 137.322575 
L 477.181815 142.536369 
L 477.42166 142.536369 
L 477.661506 147.750162 
L 478.141196 147.750162 
L 479.100577 168.605334 
L 480.539649 168.605334 
L 480.779494 173.819127 
L 483.657637 173.819127 
M 490.852995 168.605334 
L 493.011602 168.605334 
L 493.251448 173.819127 
L 496.369436 173.819127 
L 496.609281 179.03292 
L 514.357831 179.03292 
M 521.553188 179.03292 
L 529.707927 179.03292 
L 529.947773 173.819127 
L 536.903285 173.819127 
L 537.14313 179.03292 
L 542.899417 179.03292 
M 550.094775 158.177748 
L 551.773691 158.177748 
L 552.013537 152.963955 
L 553.932299 152.963955 
L 554.411989 163.391541 
L 555.851061 163.391541 
L 556.090906 158.177748 
L 557.050287 158.177748 
L 557.290132 152.963955 
L 558.009668 152.963955 
L 558.249513 147.750162 
L 558.969049 147.750162 
L 559.208894 152.963955 
L 559.44874 147.750162 
L 559.92843 147.750162 
L 560.168276 142.536369 
L 561.367502 142.536369 
L 561.607347 137.322575 
L 561.847192 137.322575 
L 562.087038 132.108782 
L 562.806573 132.108782 
L 563.046419 126.894989 
L 563.286264 132.108782 
L 563.526109 126.894989 
L 563.765954 126.894989 
L 564.0058 121.681196 
L 564.245645 121.681196 
L 564.48549 126.894989 
L 564.965181 126.894989 
L 565.205026 121.681196 
L 565.444871 126.894989 
L 565.684717 126.894989 
L 566.164407 116.467403 
L 566.644098 116.467403 
L 567.123788 106.039817 
L 567.363633 111.25361 
L 568.083169 95.612231 
L 568.323014 95.612231 
L 568.56286 90.398438 
L 568.802705 90.398438 
L 569.04255 85.184644 
L 569.282395 85.184644 
L 570.001931 69.543265 
L 570.241776 69.543265 
L 570.481622 64.329472 
L 570.721467 69.543265 
L 570.961312 69.543265 
L 571.201158 74.757058 
L 571.441003 74.757058 
L 571.920693 64.329472 
L 572.400384 64.329472 
L 572.880074 53.901886 
L 573.11992 59.115679 
L 573.839455 59.115679 
L 574.319146 69.543265 
L 574.558991 64.329472 
L 574.798836 64.329472 
L 575.278527 74.757058 
L 575.758217 74.757058 
L 575.998063 79.970851 
L 576.237908 79.970851 
L 576.477753 85.184644 
L 576.717599 85.184644 
M 583.912956 147.750162 
L 584.152802 142.536369 
L 584.392647 142.536369 
L 586.071564 106.039817 
L 586.311409 106.039817 
L 589.189552 43.4743 
L 589.909088 43.4743 
L 590.148933 48.688093 
L 590.388778 48.688093 
L 593.266922 111.25361 
L 593.746612 111.25361 
L 594.466148 126.894989 
L 596.38491 126.894989 
L 597.104446 111.25361 
L 598.303672 111.25361 
L 598.543517 106.039817 
L 598.783363 106.039817 
L 600.462279 69.543265 
L 600.94197 69.543265 
L 601.661506 53.901886 
L 602.141196 64.329472 
L 604.299804 64.329472 
L 605.49903 38.260506 
L 605.738875 38.260506 
L 605.97872 33.046713 
L 606.458411 33.046713 
L 606.698256 38.260506 
L 608.856864 38.260506 
L 609.336554 27.83292 
L 620.129591 27.83292 
L 620.849127 43.4743 
L 621.088972 43.4743 
L 621.808508 59.115679 
M 629.003865 90.398438 
L 629.483556 90.398438 
L 629.723401 95.612231 
L 629.963246 95.612231 
L 630.203092 90.398438 
L 630.442937 90.398438 
L 630.682782 95.612231 
L 630.922628 95.612231 
L 631.162473 100.826024 
L 631.402318 95.612231 
L 631.642163 100.826024 
L 631.882009 100.826024 
L 632.121854 95.612231 
L 632.361699 95.612231 
L 632.601544 90.398438 
L 633.081235 90.398438 
L 633.32108 95.612231 
L 633.560925 95.612231 
L 633.800771 100.826024 
L 634.760152 100.826024 
L 634.999997 106.039817 
L 635.959378 106.039817 
L 636.199223 111.25361 
L 636.439069 111.25361 
L 636.678914 106.039817 
L 636.918759 106.039817 
L 637.158604 111.25361 
L 637.39845 111.25361 
L 637.638295 116.467403 
L 637.87814 111.25361 
L 638.357831 111.25361 
L 638.597676 116.467403 
L 639.077366 116.467403 
L 639.317212 121.681196 
L 639.557057 116.467403 
L 640.036747 116.467403 
L 640.276593 111.25361 
L 640.756283 111.25361 
L 640.996129 106.039817 
L 641.475819 106.039817 
L 641.715664 100.826024 
L 641.95551 106.039817 
L 642.195355 100.826024 
L 642.914891 100.826024 
L 643.154736 106.039817 
L 645.553188 106.039817 
L 645.793034 100.826024 
L 646.272724 100.826024 
L 646.51257 95.612231 
L 646.752415 100.826024 
L 646.99226 100.826024 
L 647.232105 95.612231 
L 647.471951 95.612231 
L 647.711796 90.398438 
L 647.951641 95.612231 
L 648.431332 95.612231 
L 648.671177 90.398438 
L 648.911022 90.398438 
L 649.150867 85.184644 
L 649.870403 85.184644 
L 650.829784 64.329472 
L 651.069629 64.329472 
L 651.309475 59.115679 
L 651.789165 59.115679 
L 652.029011 53.901886 
L 652.268856 53.901886 
L 652.508701 48.688093 
L 653.468082 48.688093 
L 653.707927 53.901886 
L 654.427463 53.901886 
L 654.907154 64.329472 
L 655.146999 59.115679 
L 655.386844 64.329472 
L 655.866535 64.329472 
L 656.58607 79.970851 
L 656.825916 79.970851 
L 658.025142 106.039817 
L 658.264987 106.039817 
L 658.504833 111.25361 
L 658.744678 106.039817 
L 659.224368 106.039817 
L 659.464214 111.25361 
M 666.659571 59.115679 
L 666.899417 59.115679 
L 667.139262 64.329472 
L 667.379107 64.329472 
L 667.618952 59.115679 
L 667.858798 59.115679 
L 668.098643 53.901886 
L 668.338488 53.901886 
L 669.058024 69.543265 
L 669.77756 69.543265 
L 670.017405 74.757058 
L 671.456477 74.757058 
L 671.696322 79.970851 
L 672.415858 79.970851 
L 672.655703 85.184644 
L 673.854929 85.184644 
L 674.574465 69.543265 
L 675.054156 69.543265 
L 675.294001 74.757058 
L 675.533846 69.543265 
L 675.773691 69.543265 
L 676.253382 59.115679 
L 676.972918 59.115679 
L 677.452608 48.688093 
L 678.411989 48.688093 
L 678.651835 53.901886 
L 678.89168 48.688093 
L 679.37137 48.688093 
L 679.611216 53.901886 
L 679.851061 48.688093 
L 680.090906 53.901886 
L 680.810442 53.901886 
L 681.050287 59.115679 
L 681.529978 59.115679 
L 682.009668 69.543265 
L 682.489359 59.115679 
L 682.729204 59.115679 
L 682.969049 53.901886 
L 683.44874 64.329472 
L 683.688585 64.329472 
L 683.92843 69.543265 
L 684.168276 69.543265 
L 684.408121 74.757058 
L 684.647966 74.757058 
L 684.887811 79.970851 
L 685.367502 79.970851 
L 685.607347 85.184644 
L 686.087038 85.184644 
L 686.326883 90.398438 
L 686.806573 90.398438 
L 687.046419 95.612231 
L 687.286264 90.398438 
L 687.526109 95.612231 
L 688.0058 95.612231 
L 688.245645 90.398438 
L 688.725335 100.826024 
L 688.965181 95.612231 
L 689.205026 95.612231 
L 689.924562 111.25361 
L 690.164407 111.25361 
L 690.404252 106.039817 
L 691.123788 106.039817 
L 691.363633 111.25361 
L 691.603479 106.039817 
L 691.843324 111.25361 
L 691.843324 111.25361 
" clip-path="url(#p5af263436a)" style="fill: none; stroke: #ccbb44; stroke-width: 2; stroke-linecap: square"/>
   </g>
   <g id="patch_3">
    <path d="M 52.679688 179.03292 
L 52.679688 22.619127 
" style="fill: none; stroke: #000000; stroke-width: 1.2; stroke-linejoin: miter; stroke-linecap: square"/>
   </g>
   <g id="patch_4">
    <path d="M 76.160539 186.59292 
L 711.750481 186.59292 
" style="fill: none; stroke: #000000; stroke-width: 1.2; stroke-linejoin: miter; stroke-linecap: square"/>
   </g>
   <g id="text_8">
    <!-- 1 -->
    <g style="fill: #808080" transform="translate(76.160539 14.798437) scale(0.1 -0.1)">
     <use xlink:href="#DejaVuSans-31"/>
    </g>
   </g>
   <g id="text_9">
    <!-- 2 -->
    <g style="fill: #808080" transform="translate(141.39845 14.798437) scale(0.1 -0.1)">
     <use xlink:href="#DejaVuSans-32"/>
    </g>
   </g>
   <g id="text_10">
    <!-- 3 -->
    <g style="fill: #808080" transform="translate(202.319146 14.798437) scale(0.1 -0.1)">
     <defs>
      <path id="DejaVuSans-33" d="M 2597 2516 
Q 3050 2419 3304 2112 
Q 3559 1806 3559 1356 
Q 3559 666 3084 287 
Q 2609 -91 1734 -91 
Q 1441 -91 1130 -33 
Q 819 25 488 141 
L 488 750 
Q 750 597 1062 519 
Q 1375 441 1716 441 
Q 2309 441 2620 675 
Q 2931 909 2931 1356 
Q 2931 1769 2642 2001 
Q 2353 2234 1838 2234 
L 1294 2234 
L 1294 2753 
L 1863 2753 
Q 2328 2753 2575 2939 
Q 2822 3125 2822 3475 
Q 2822 3834 2567 4026 
Q 2313 4219 1838 4219 
Q 1578 4219 1281 4162 
Q 984 4106 628 3988 
L 628 4550 
Q 988 4650 1302 4700 
Q 1616 4750 1894 4750 
Q 2613 4750 3031 4423 
Q 3450 4097 3450 3541 
Q 3450 3153 3228 2886 
Q 3006 2619 2597 2516 
z
" transform="scale(0.015625)"/>
     </defs>
     <use xlink:href="#DejaVuSans-33"/>
    </g>
   </g>
   <g id="text_11">
    <!-- 4 -->
    <g style="fill: #808080" transform="translate(241.174078 14.798437) scale(0.1 -0.1)">
     <defs>
      <path id="DejaVuSans-34" d="M 2419 4116 
L 825 1625 
L 2419 1625 
L 2419 4116 
z
M 2253 4666 
L 3047 4666 
L 3047 1625 
L 3713 1625 
L 3713 1100 
L 3047 1100 
L 3047 0 
L 2419 0 
L 2419 1100 
L 313 1100 
L 313 1709 
L 2253 4666 
z
" transform="scale(0.015625)"/>
     </defs>
     <use xlink:href="#DejaVuSans-34"/>
    </g>
   </g>
   <g id="text_12">
    <!-- 5 -->
    <g style="fill: #808080" transform="translate(268.516438 14.798437) scale(0.1 -0.1)">
     <use xlink:href="#DejaVuSans-35"/>
    </g>
   </g>
   <g id="text_13">
    <!-- 6 -->
    <g style="fill: #808080" transform="translate(300.895548 14.798437) scale(0.1 -0.1)">
     <use xlink:href="#DejaVuSans-36"/>
    </g>
   </g>
   <g id="text_14">
    <!-- 7 -->
    <g style="fill: #808080" transform="translate(337.591873 14.798437) scale(0.1 -0.1)">
     <defs>
      <path id="DejaVuSans-37" d="M 525 4666 
L 3525 4666 
L 3525 4397 
L 1831 0 
L 1172 0 
L 2766 4134 
L 525 4134 
L 525 4666 
z
" transform="scale(0.015625)"/>
     </defs>
     <use xlink:href="#DejaVuSans-37"/>
    </g>
   </g>
   <g id="text_15">
    <!-- 8 -->
    <g style="fill: #808080" transform="translate(378.365568 14.798437) scale(0.1 -0.1)">
     <defs>
      <path id="DejaVuSans-38" d="M 2034 2216 
Q 1584 2216 1326 1975 
Q 1069 1734 1069 1313 
Q 1069 891 1326 650 
Q 1584 409 2034 409 
Q 2484 409 2743 651 
Q 3003 894 3003 1313 
Q 3003 1734 2745 1975 
Q 2488 2216 2034 2216 
z
M 1403 2484 
Q 997 2584 770 2862 
Q 544 3141 544 3541 
Q 544 4100 942 4425 
Q 1341 4750 2034 4750 
Q 2731 4750 3128 4425 
Q 3525 4100 3525 3541 
Q 3525 3141 3298 2862 
Q 3072 2584 2669 2484 
Q 3125 2378 3379 2068 
Q 3634 1759 3634 1313 
Q 3634 634 3220 271 
Q 2806 -91 2034 -91 
Q 1263 -91 848 271 
Q 434 634 434 1313 
Q 434 1759 690 2068 
Q 947 2378 1403 2484 
z
M 1172 3481 
Q 1172 3119 1398 2916 
Q 1625 2713 2034 2713 
Q 2441 2713 2670 2916 
Q 2900 3119 2900 3481 
Q 2900 3844 2670 4047 
Q 2441 4250 2034 4250 
Q 1625 4250 1398 4047 
Q 1172 3844 1172 3481 
z
" transform="scale(0.015625)"/>
     </defs>
     <use xlink:href="#DejaVuSans-38"/>
    </g>
   </g>
   <g id="text_16">
    <!-- 9 -->
    <g style="fill: #808080" transform="translate(424.176012 14.798437) scale(0.1 -0.1)">
     <defs>
      <path id="DejaVuSans-39" d="M 703 97 
L 703 672 
Q 941 559 1184 500 
Q 1428 441 1663 441 
Q 2288 441 2617 861 
Q 2947 1281 2994 2138 
Q 2813 1869 2534 1725 
Q 2256 1581 1919 1581 
Q 1219 1581 811 2004 
Q 403 2428 403 3163 
Q 403 3881 828 4315 
Q 1253 4750 1959 4750 
Q 2769 4750 3195 4129 
Q 3622 3509 3622 2328 
Q 3622 1225 3098 567 
Q 2575 -91 1691 -91 
Q 1453 -91 1209 -44 
Q 966 3 703 97 
z
M 1959 2075 
Q 2384 2075 2632 2365 
Q 2881 2656 2881 3163 
Q 2881 3666 2632 3958 
Q 2384 4250 1959 4250 
Q 1534 4250 1286 3958 
Q 1038 3666 1038 3163 
Q 1038 2656 1286 2365 
Q 1534 2075 1959 2075 
z
" transform="scale(0.015625)"/>
     </defs>
     <use xlink:href="#DejaVuSans-39"/>
    </g>
   </g>
   <g id="text_17">
    <!-- 10 -->
    <g style="fill: #808080" transform="translate(483.897482 14.798437) scale(0.1 -0.1)">
     <use xlink:href="#DejaVuSans-31"/>
     <use xlink:href="#DejaVuSans-30" transform="translate(63.623047 0)"/>
    </g>
   </g>
   <g id="text_18">
    <!-- 11 -->
    <g style="fill: #808080" transform="translate(514.597676 14.798437) scale(0.1 -0.1)">
     <use xlink:href="#DejaVuSans-31"/>
     <use xlink:href="#DejaVuSans-31" transform="translate(63.623047 0)"/>
    </g>
   </g>
   <g id="text_19">
    <!-- 12 -->
    <g style="fill: #808080" transform="translate(543.139262 14.798437) scale(0.1 -0.1)">
     <use xlink:href="#DejaVuSans-31"/>
     <use xlink:href="#DejaVuSans-32" transform="translate(63.623047 0)"/>
    </g>
   </g>
   <g id="text_20">
    <!-- 13 -->
    <g style="fill: #808080" transform="translate(576.957444 14.798437) scale(0.1 -0.1)">
     <use xlink:href="#DejaVuSans-31"/>
     <use xlink:href="#DejaVuSans-33" transform="translate(63.623047 0)"/>
    </g>
   </g>
   <g id="text_21">
    <!-- 14 -->
    <g style="fill: #808080" transform="translate(622.048353 14.798437) scale(0.1 -0.1)">
     <use xlink:href="#DejaVuSans-31"/>
     <use xlink:href="#DejaVuSans-34" transform="translate(63.623047 0)"/>
    </g>
   </g>
   <g id="text_22">
    <!-- 15 -->
    <g style="fill: #808080" transform="translate(659.704059 14.798437) scale(0.1 -0.1)">
     <use xlink:href="#DejaVuSans-31"/>
     <use xlink:href="#DejaVuSans-35" transform="translate(63.623047 0)"/>
    </g>
   </g>
   <g id="text_23">
    <!-- Game -->
    <g style="fill: #808080" transform="translate(42.582202 14.798437) scale(0.1 -0.1)">
     <defs>
      <path id="DejaVuSans-47" d="M 3809 666 
L 3809 1919 
L 2778 1919 
L 2778 2438 
L 4434 2438 
L 4434 434 
Q 4069 175 3628 42 
Q 3188 -91 2688 -91 
Q 1594 -91 976 548 
Q 359 1188 359 2328 
Q 359 3472 976 4111 
Q 1594 4750 2688 4750 
Q 3144 4750 3555 4637 
Q 3966 4525 4313 4306 
L 4313 3634 
Q 3963 3931 3569 4081 
Q 3175 4231 2741 4231 
Q 1884 4231 1454 3753 
Q 1025 3275 1025 2328 
Q 1025 1384 1454 906 
Q 1884 428 2741 428 
Q 3075 428 3337 486 
Q 3600 544 3809 666 
z
" transform="scale(0.015625)"/>
     </defs>
     <use xlink:href="#DejaVuSans-47"/>
     <use xlink:href="#DejaVuSans-61" transform="translate(77.490234 0)"/>
     <use xlink:href="#DejaVuSans-6d" transform="translate(138.769531 0)"/>
     <use xlink:href="#DejaVuSans-65" transform="translate(236.181641 0)"/>
    </g>
   </g>
   <g id="text_24">
    <!-- JOA-M-0029 -->
    <g style="fill: #228833" transform="translate(64.168276 179.03292) scale(0.1 -0.1)">
     <defs>
      <path id="DejaVuSans-Bold-4a" d="M 588 4666 
L 1791 4666 
L 1791 453 
Q 1791 -419 1317 -850 
Q 844 -1281 -116 -1281 
L -359 -1281 
L -359 -372 
L -172 -372 
Q 203 -372 395 -162 
Q 588 47 588 453 
L 588 4666 
z
" transform="scale(0.015625)"/>
      <path id="DejaVuSans-Bold-4f" d="M 2719 3878 
Q 2169 3878 1866 3472 
Q 1563 3066 1563 2328 
Q 1563 1594 1866 1187 
Q 2169 781 2719 781 
Q 3272 781 3575 1187 
Q 3878 1594 3878 2328 
Q 3878 3066 3575 3472 
Q 3272 3878 2719 3878 
z
M 2719 4750 
Q 3844 4750 4481 4106 
Q 5119 3463 5119 2328 
Q 5119 1197 4481 553 
Q 3844 -91 2719 -91 
Q 1597 -91 958 553 
Q 319 1197 319 2328 
Q 319 3463 958 4106 
Q 1597 4750 2719 4750 
z
" transform="scale(0.015625)"/>
      <path id="DejaVuSans-Bold-41" d="M 3419 850 
L 1538 850 
L 1241 0 
L 31 0 
L 1759 4666 
L 3194 4666 
L 4922 0 
L 3713 0 
L 3419 850 
z
M 1838 1716 
L 3116 1716 
L 2478 3572 
L 1838 1716 
z
" transform="scale(0.015625)"/>
      <path id="DejaVuSans-Bold-2d" d="M 347 2297 
L 2309 2297 
L 2309 1388 
L 347 1388 
L 347 2297 
z
" transform="scale(0.015625)"/>
      <path id="DejaVuSans-Bold-4d" d="M 588 4666 
L 2119 4666 
L 3181 2169 
L 4250 4666 
L 5778 4666 
L 5778 0 
L 4641 0 
L 4641 3413 
L 3566 897 
L 2803 897 
L 1728 3413 
L 1728 0 
L 588 0 
L 588 4666 
z
" transform="scale(0.015625)"/>
      <path id="DejaVuSans-Bold-30" d="M 2944 2338 
Q 2944 3213 2780 3570 
Q 2616 3928 2228 3928 
Q 1841 3928 1675 3570 
Q 1509 3213 1509 2338 
Q 1509 1453 1675 1090 
Q 1841 728 2228 728 
Q 2613 728 2778 1090 
Q 2944 1453 2944 2338 
z
M 4147 2328 
Q 4147 1169 3647 539 
Q 3147 -91 2228 -91 
Q 1306 -91 806 539 
Q 306 1169 306 2328 
Q 306 3491 806 4120 
Q 1306 4750 2228 4750 
Q 3147 4750 3647 4120 
Q 4147 3491 4147 2328 
z
" transform="scale(0.015625)"/>
      <path id="DejaVuSans-Bold-32" d="M 1844 884 
L 3897 884 
L 3897 0 
L 506 0 
L 506 884 
L 2209 2388 
Q 2438 2594 2547 2791 
Q 2656 2988 2656 3200 
Q 2656 3528 2436 3728 
Q 2216 3928 1850 3928 
Q 1569 3928 1234 3808 
Q 900 3688 519 3450 
L 519 4475 
Q 925 4609 1322 4679 
Q 1719 4750 2100 4750 
Q 2938 4750 3402 4381 
Q 3866 4013 3866 3353 
Q 3866 2972 3669 2642 
Q 3472 2313 2841 1759 
L 1844 884 
z
" transform="scale(0.015625)"/>
      <path id="DejaVuSans-Bold-39" d="M 641 103 
L 641 966 
Q 928 831 1190 764 
Q 1453 697 1709 697 
Q 2247 697 2547 995 
Q 2847 1294 2900 1881 
Q 2688 1725 2447 1647 
Q 2206 1569 1925 1569 
Q 1209 1569 770 1986 
Q 331 2403 331 3084 
Q 331 3838 820 4291 
Q 1309 4744 2131 4744 
Q 3044 4744 3544 4128 
Q 4044 3513 4044 2388 
Q 4044 1231 3459 570 
Q 2875 -91 1856 -91 
Q 1528 -91 1228 -42 
Q 928 6 641 103 
z
M 2125 2350 
Q 2441 2350 2600 2554 
Q 2759 2759 2759 3169 
Q 2759 3575 2600 3781 
Q 2441 3988 2125 3988 
Q 1809 3988 1650 3781 
Q 1491 3575 1491 3169 
Q 1491 2759 1650 2554 
Q 1809 2350 2125 2350 
z
" transform="scale(0.015625)"/>
     </defs>
     <use xlink:href="#DejaVuSans-Bold-4a"/>
     <use xlink:href="#DejaVuSans-Bold-4f" transform="translate(37.207031 0)"/>
     <use xlink:href="#DejaVuSans-Bold-41" transform="translate(119.591797 0)"/>
     <use xlink:href="#DejaVuSans-Bold-2d" transform="translate(196.984375 0)"/>
     <use xlink:href="#DejaVuSans-Bold-4d" transform="translate(238.488281 0)"/>
     <use xlink:href="#DejaVuSans-Bold-2d" transform="translate(338 0)"/>
     <use xlink:href="#DejaVuSans-Bold-30" transform="translate(379.503906 0)"/>
     <use xlink:href="#DejaVuSans-Bold-30" transform="translate(449.083984 0)"/>
     <use xlink:href="#DejaVuSans-Bold-32" transform="translate(518.664062 0)"/>
     <use xlink:href="#DejaVuSans-Bold-39" transform="translate(588.244141 0)"/>
    </g>
   </g>
   <g id="text_25">
    <!-- JOA-M-0033 -->
    <g style="fill: #ccbb44" transform="translate(64.168276 53.901886) scale(0.1 -0.1)">
     <defs>
      <path id="DejaVuSans-Bold-33" d="M 2981 2516 
Q 3453 2394 3698 2092 
Q 3944 1791 3944 1325 
Q 3944 631 3412 270 
Q 2881 -91 1863 -91 
Q 1503 -91 1142 -33 
Q 781 25 428 141 
L 428 1069 
Q 766 900 1098 814 
Q 1431 728 1753 728 
Q 2231 728 2486 893 
Q 2741 1059 2741 1369 
Q 2741 1688 2480 1852 
Q 2219 2016 1709 2016 
L 1228 2016 
L 1228 2791 
L 1734 2791 
Q 2188 2791 2409 2933 
Q 2631 3075 2631 3366 
Q 2631 3634 2415 3781 
Q 2200 3928 1806 3928 
Q 1516 3928 1219 3862 
Q 922 3797 628 3669 
L 628 4550 
Q 984 4650 1334 4700 
Q 1684 4750 2022 4750 
Q 2931 4750 3382 4451 
Q 3834 4153 3834 3553 
Q 3834 3144 3618 2883 
Q 3403 2622 2981 2516 
z
" transform="scale(0.015625)"/>
     </defs>
     <use xlink:href="#DejaVuSans-Bold-4a"/>
     <use xlink:href="#DejaVuSans-Bold-4f" transform="translate(37.207031 0)"/>
     <use xlink:href="#DejaVuSans-Bold-41" transform="translate(119.591797 0)"/>
     <use xlink:href="#DejaVuSans-Bold-2d" transform="translate(196.984375 0)"/>
     <use xlink:href="#DejaVuSans-Bold-4d" transform="translate(238.488281 0)"/>
     <use xlink:href="#DejaVuSans-Bold-2d" transform="translate(338 0)"/>
     <use xlink:href="#DejaVuSans-Bold-30" transform="translate(379.503906 0)"/>
     <use xlink:href="#DejaVuSans-Bold-30" transform="translate(449.083984 0)"/>
     <use xlink:href="#DejaVuSans-Bold-33" transform="translate(518.664062 0)"/>
     <use xlink:href="#DejaVuSans-Bold-33" transform="translate(588.244141 0)"/>
    </g>
   </g>
  </g>
 </g>
 <defs>
  <clipPath id="p5af263436a">
   <rect x="52.679688" y="20.27292" width="669.6" height="166.32"/>
  </clipPath>
 </defs>
</svg>
