<?xml version="1.0" encoding="utf-8" standalone="no"?>
<!DOCTYPE svg PUBLIC "-//W3C//DTD SVG 1.1//EN"
  "http://www.w3.org/Graphics/SVG/1.1/DTD/svg11.dtd">
<svg xmlns:xlink="http://www.w3.org/1999/xlink" width="635.55325pt" height="116.765pt" viewBox="0 0 635.55325 116.765" xmlns="http://www.w3.org/2000/svg" version="1.1">
 <metadata>
  <rdf:RDF xmlns:dc="http://purl.org/dc/elements/1.1/" xmlns:cc="http://creativecommons.org/ns#" xmlns:rdf="http://www.w3.org/1999/02/22-rdf-syntax-ns#">
   <cc:Work>
    <dc:type rdf:resource="http://purl.org/dc/dcmitype/StillImage"/>
    <dc:date>2026-04-13T16:37:16.053020</dc:date>
    <dc:format>image/svg+xml</dc:format>
    <dc:creator>
     <cc:Agent>
      <dc:title>Matplotlib v3.10.8, https://matplotlib.org/</dc:title>
     </cc:Agent>
    </dc:creator>
   </cc:Work>
  </rdf:RDF>
 </metadata>
 <defs>
  <style type="text/css">*{stroke-linejoin: round; stroke-linecap: butt}</style>
 </defs>
 <g id="figure_1">
  <g id="patch_1">
   <path d="M -0 116.765 
L 635.55325 116.765 
L 635.55325 0 
L -0 0 
L -0 116.765 
z
" style="fill: none"/>
  </g>
  <g id="axes_1">
   <g id="patch_2">
    <path d="M 52.679688 94.919063 
L 554.879688 94.919063 
L 554.879688 11.759063 
L 52.679688 11.759063 
L 52.679688 94.919063 
z
" style="fill: none"/>
   </g>
   <g id="patch_3">
    <path d="M 62.33738 94.919063 
L 221.689303 94.919063 
L 221.689303 11.759063 
L 62.33738 11.759063 
z
" clip-path="url(#pa50ff978a6)" style="fill: #808080; opacity: 0.06"/>
   </g>
   <g id="patch_4">
    <path d="M 221.689303 94.919063 
L 381.041226 94.919063 
L 381.041226 11.759063 
L 221.689303 11.759063 
z
" clip-path="url(#pa50ff978a6)" style="fill: #ffa500; opacity: 0.06"/>
   </g>
   <g id="patch_5">
    <path d="M 381.041226 94.919063 
L 545.221995 94.919063 
L 545.221995 11.759063 
L 381.041226 11.759063 
z
" clip-path="url(#pa50ff978a6)" style="fill: #800080; opacity: 0.06"/>
   </g>
   <g id="line2d_1">
    <path d="M 52.679688 53.339063 
L 554.879688 53.339063 
" clip-path="url(#pa50ff978a6)" style="fill: none; stroke-dasharray: 5.55,2.4; stroke-dashoffset: 0; stroke: #000000; stroke-width: 1.5"/>
   </g>
   <g id="line2d_2">
    <path d="M 62.33738 57.652341 
L 221.689303 52.127441 
" clip-path="url(#pa50ff978a6)" style="fill: none; stroke: #808080; stroke-opacity: 0.25; stroke-linecap: square"/>
   </g>
   <g id="line2d_3">
    <path d="M 62.33738 50.15692 
L 221.689303 63.038251 
" clip-path="url(#pa50ff978a6)" style="fill: none; stroke: #808080; stroke-opacity: 0.25; stroke-linecap: square"/>
   </g>
   <g id="line2d_4">
    <path d="M 62.33738 64.038255 
L 115.454688 55.372697 
L 168.571995 51.793338 
L 221.689303 61.311629 
" clip-path="url(#pa50ff978a6)" style="fill: none; stroke: #808080; stroke-opacity: 0.25; stroke-linecap: square"/>
   </g>
   <g id="line2d_5">
    <path d="M 221.689303 54.016261 
L 226.242215 48.909158 
L 230.795127 52.122324 
L 235.348039 69.033284 
L 239.900951 53.621152 
L 244.453863 50.686756 
L 249.006775 56.604508 
L 253.559687 61.524102 
L 258.1126 57.848487 
L 262.665512 67.314083 
L 267.218424 53.969063 
L 271.771336 55.101923 
L 276.324248 57.28461 
L 280.87716 68.174138 
L 285.430072 61.615336 
L 289.982984 48.229385 
L 294.535896 53.339063 
L 299.088808 54.411502 
L 303.64172 55.656636 
L 308.194633 46.90593 
L 312.747545 70.54119 
L 317.300457 42.944063 
L 321.853369 50.639063 
L 326.406281 83.779249 
L 330.959193 55.482361 
L 335.512105 42.251063 
L 340.065017 62.378193 
L 344.617929 55.052524 
L 349.170841 61.988215 
L 353.723753 55.889983 
L 358.276666 61.513374 
L 362.829578 68.10222 
L 367.38249 52.761792 
L 371.935402 55.750496 
L 376.488314 69.031468 
L 381.041226 54.449747 
" clip-path="url(#pa50ff978a6)" style="fill: none; stroke: #ffa500; stroke-opacity: 0.25; stroke-linecap: square"/>
   </g>
   <g id="line2d_6">
    <path d="M 223.251097 117.765 
L 224.259495 51.320616 
L 226.829688 58.498938 
L 229.39988 47.931938 
L 231.970072 57.595546 
L 234.540264 55.807532 
L 237.110457 66.030632 
L 239.680649 54.002809 
L 242.250841 50.756454 
L 244.821034 61.019101 
L 247.391226 56.013017 
L 249.961418 79.166738 
L 252.531611 61.49752 
L 255.101803 59.168034 
L 257.671995 57.510969 
L 260.242188 56.793268 
L 262.81238 67.17856 
L 265.382572 44.880604 
L 267.952764 64.055557 
L 270.522957 53.714333 
L 273.093149 49.034715 
L 275.663341 53.626614 
L 278.233534 63.779855 
L 280.803726 60.540068 
L 283.373918 59.969131 
L 285.944111 52.614672 
L 288.514303 51.821544 
L 291.084495 59.214497 
L 293.654687 45.023063 
L 296.22488 56.892909 
L 298.795072 53.773697 
L 301.365264 47.878275 
L 303.935457 57.647871 
L 306.505649 50.729439 
L 309.075841 49.854705 
L 311.646034 60.58203 
L 314.216226 62.439858 
L 316.786418 47.888501 
L 319.356611 57.762467 
L 321.926803 49.067145 
L 324.496995 47.399063 
L 327.067187 41.617698 
L 329.63738 59.271179 
L 332.207572 64.70992 
L 334.777764 58.669832 
L 337.347957 56.194832 
L 339.918149 48.066236 
L 342.488341 46.393628 
L 345.058534 56.428871 
L 347.628726 50.04901 
L 350.198918 50.888375 
L 352.769111 39.055856 
L 355.339303 49.326957 
L 357.909495 54.506103 
L 360.479687 70.489767 
L 363.04988 54.231337 
L 365.620072 63.041063 
L 368.190264 47.194235 
L 370.760457 55.071563 
L 373.330649 52.962432 
L 375.900841 55.678522 
L 378.471034 54.121377 
L 381.041226 64.422584 
" clip-path="url(#pa50ff978a6)" style="fill: none; stroke: #ffa500; stroke-opacity: 0.25; stroke-linecap: square"/>
   </g>
   <g id="line2d_7">
    <path d="M 221.689303 53.018724 
L 228.06338 61.215188 
L 234.437457 59.587423 
L 240.811534 55.611194 
L 247.185611 46.903396 
L 253.559687 57.494688 
L 259.933764 56.058685 
L 266.307841 54.176886 
L 272.681918 49.995641 
L 279.055995 56.563405 
L 285.430072 59.074235 
L 291.804149 63.849859 
L 298.178226 54.883222 
L 304.552303 61.0043 
L 310.92638 59.320075 
L 317.300457 48.092375 
L 323.674534 50.095693 
L 330.048611 55.8482 
L 336.422687 48.060684 
L 342.796764 52.898285 
L 349.170841 50.326019 
L 355.544918 60.618474 
L 361.918995 56.197449 
L 368.293072 55.403768 
L 374.667149 60.85352 
L 381.041226 52.431202 
" clip-path="url(#pa50ff978a6)" style="fill: none; stroke: #ffa500; stroke-opacity: 0.25; stroke-linecap: square"/>
   </g>
   <g id="line2d_8">
    <path d="M 381.041226 76.840802 
L 384.138976 55.15637 
L 387.236727 83.562411 
L 390.334477 59.478391 
L 393.432227 66.906433 
L 396.529978 70.918842 
L 399.627728 65.471703 
L 402.725479 51.029063 
L 405.823229 62.736756 
L 408.920979 22.734494 
L 412.01873 61.655063 
L 415.11648 77.513481 
L 418.21423 62.922161 
L 421.311981 54.421875 
L 424.409731 61.074876 
L 427.507481 59.92413 
L 430.605232 60.454688 
L 433.702982 61.34861 
L 436.800732 51.919258 
L 439.898483 59.461598 
L 442.996233 68.450737 
L 446.093984 52.519483 
L 449.191734 76.475527 
L 452.289484 72.81324 
L 455.387235 41.426954 
L 458.484985 60.010236 
L 461.582735 75.603736 
L 464.680486 75.595997 
L 467.778236 68.528104 
L 470.875986 78.652236 
L 473.973737 73.225149 
L 477.071487 46.079063 
L 480.169238 58.931694 
L 483.266988 58.265603 
L 486.364738 70.918842 
L 489.462489 65.471703 
L 492.560239 50.029511 
L 495.657989 51.029063 
L 498.75574 77.023873 
L 501.85349 62.736756 
L 504.95124 62.633415 
L 508.048991 59.739633 
L 511.146741 60.454688 
L 514.244492 61.34861 
L 517.342242 59.375648 
L 520.439992 51.919258 
L 523.537743 56.080601 
L 526.635493 84.66646 
L 529.733243 62.043736 
L 532.830994 68.450737 
L 535.928744 52.519483 
L 539.026494 72.81324 
L 542.124245 75.603736 
L 545.221995 57.78137 
" clip-path="url(#pa50ff978a6)" style="fill: none; stroke: #800080; stroke-opacity: 0.25; stroke-linecap: square"/>
   </g>
   <g id="line2d_9">
    <path d="M 381.111655 117.765 
L 382.520332 63.989677 
L 383.999438 64.043941 
L 385.478544 57.502614 
L 386.95765 44.2792 
L 388.436756 56.568095 
L 389.915862 57.396812 
L 391.394968 64.557547 
L 392.874074 58.518066 
L 394.35318 70.583331 
L 395.832286 63.375614 
L 397.311392 59.552166 
L 398.790498 47.694719 
L 400.269604 43.780442 
L 401.74871 68.999063 
L 403.227816 48.222955 
L 404.706922 66.882263 
L 406.186028 49.82526 
L 407.665134 65.513387 
L 409.144241 54.045405 
L 410.623347 62.915437 
L 412.102453 53.339063 
L 413.581559 49.758695 
L 415.060665 54.892211 
L 416.539771 70.981952 
L 418.018877 54.888243 
L 419.497983 62.865478 
L 420.977089 54.068536 
L 422.456195 60.453511 
L 423.935301 53.339063 
L 425.414407 72.842655 
L 426.893513 61.910203 
L 428.372619 59.306341 
L 429.851725 54.888243 
L 431.330831 54.540797 
L 432.809937 52.866563 
L 434.289043 48.587063 
L 435.768149 49.766898 
L 437.247255 50.478053 
L 438.726361 69.260372 
L 440.205467 46.3833 
L 441.684573 54.821944 
L 443.163679 58.019455 
L 444.642785 54.03438 
L 446.121891 61.517323 
L 447.600997 57.442352 
L 449.080103 63.456645 
L 450.559209 63.939583 
L 452.038315 59.768959 
L 453.517421 71.326386 
L 454.996527 64.058906 
L 456.475633 63.269571 
L 457.954739 58.894759 
L 459.433846 54.854123 
L 460.912952 61.30458 
L 462.392058 56.664196 
L 463.871164 63.130629 
L 465.35027 52.639063 
L 466.829376 57.61684 
L 468.308482 70.374874 
L 469.787588 51.479492 
L 471.266694 50.629679 
L 472.7458 54.753348 
L 474.224906 53.958735 
L 475.704012 56.309063 
L 477.183118 57.612106 
L 478.662224 55.260504 
L 480.14133 57.863311 
L 481.620436 59.317285 
L 483.099542 59.912331 
L 484.578648 64.393779 
L 486.057754 59.735223 
L 487.53686 50.834243 
L 489.015966 67.554447 
L 490.495072 43.802365 
L 491.974178 52.83075 
L 493.453284 57.332622 
L 494.93239 55.956509 
L 496.411496 57.229083 
L 497.890602 51.91509 
L 499.369708 53.339063 
L 500.848814 59.321796 
L 502.32792 68.014357 
L 503.807026 57.858628 
L 505.286132 64.549357 
L 506.765238 61.636098 
L 508.244344 50.4846 
L 509.72345 56.358839 
L 511.202557 58.649063 
L 512.681663 62.51787 
L 514.160769 51.668224 
L 515.639875 51.679655 
L 517.118981 53.101463 
L 518.598087 56.804063 
L 520.077193 63.602782 
L 521.556299 54.055136 
L 523.035405 58.729931 
L 524.514511 66.944459 
L 525.993617 60.261106 
L 527.472723 87.744013 
L 528.951829 53.573978 
L 530.430935 69.771021 
L 531.910041 53.576121 
L 533.389147 59.131942 
L 534.868253 68.677882 
L 536.347359 59.159331 
L 537.826465 74.573504 
L 539.305571 44.704238 
L 540.784677 53.149546 
L 542.263783 66.227742 
L 543.742889 64.402477 
L 545.221995 63.160178 
" clip-path="url(#pa50ff978a6)" style="fill: none; stroke: #800080; stroke-opacity: 0.25; stroke-linecap: square"/>
   </g>
   <g id="line2d_10">
    <path d="M 381.041226 77.492151 
L 388.503988 61.655063 
L 395.96675 63.96692 
L 403.429513 56.944265 
L 410.892275 56.707813 
L 418.355037 58.98395 
L 425.817799 65.361196 
L 433.280562 55.988204 
L 440.743324 65.021063 
L 448.206086 57.440553 
L 455.668848 50.350767 
L 463.131611 70.52976 
L 470.594373 49.779131 
L 478.057135 56.111063 
L 485.519897 59.829177 
L 492.98266 56.923545 
L 500.445422 76.047537 
L 507.908184 82.014925 
L 515.370946 77.766873 
L 522.833708 72.101508 
L 530.296471 69.269063 
L 537.759233 61.335216 
L 545.221995 65.867699 
" clip-path="url(#pa50ff978a6)" style="fill: none; stroke: #800080; stroke-opacity: 0.25; stroke-linecap: square"/>
   </g>
   <g id="matplotlib.axis_1">
    <g id="text_1">
     <!-- Training sessions -->
     <g transform="translate(257.109609 107.277344) scale(0.11 -0.11)">
      <defs>
       <path id="DejaVuSans-54" d="M -19 4666 
L 3928 4666 
L 3928 4134 
L 2272 4134 
L 2272 0 
L 1638 0 
L 1638 4134 
L -19 4134 
L -19 4666 
z
" transform="scale(0.015625)"/>
       <path id="DejaVuSans-72" d="M 2631 2963 
Q 2534 3019 2420 3045 
Q 2306 3072 2169 3072 
Q 1681 3072 1420 2755 
Q 1159 2438 1159 1844 
L 1159 0 
L 581 0 
L 581 3500 
L 1159 3500 
L 1159 2956 
Q 1341 3275 1631 3429 
Q 1922 3584 2338 3584 
Q 2397 3584 2469 3576 
Q 2541 3569 2628 3553 
L 2631 2963 
z
" transform="scale(0.015625)"/>
       <path id="DejaVuSans-61" d="M 2194 1759 
Q 1497 1759 1228 1600 
Q 959 1441 959 1056 
Q 959 750 1161 570 
Q 1363 391 1709 391 
Q 2188 391 2477 730 
Q 2766 1069 2766 1631 
L 2766 1759 
L 2194 1759 
z
M 3341 1997 
L 3341 0 
L 2766 0 
L 2766 531 
Q 2569 213 2275 61 
Q 1981 -91 1556 -91 
Q 1019 -91 701 211 
Q 384 513 384 1019 
Q 384 1609 779 1909 
Q 1175 2209 1959 2209 
L 2766 2209 
L 2766 2266 
Q 2766 2663 2505 2880 
Q 2244 3097 1772 3097 
Q 1472 3097 1187 3025 
Q 903 2953 641 2809 
L 641 3341 
Q 956 3463 1253 3523 
Q 1550 3584 1831 3584 
Q 2591 3584 2966 3190 
Q 3341 2797 3341 1997 
z
" transform="scale(0.015625)"/>
       <path id="DejaVuSans-69" d="M 603 3500 
L 1178 3500 
L 1178 0 
L 603 0 
L 603 3500 
z
M 603 4863 
L 1178 4863 
L 1178 4134 
L 603 4134 
L 603 4863 
z
" transform="scale(0.015625)"/>
       <path id="DejaVuSans-6e" d="M 3513 2113 
L 3513 0 
L 2938 0 
L 2938 2094 
Q 2938 2591 2744 2837 
Q 2550 3084 2163 3084 
Q 1697 3084 1428 2787 
Q 1159 2491 1159 1978 
L 1159 0 
L 581 0 
L 581 3500 
L 1159 3500 
L 1159 2956 
Q 1366 3272 1645 3428 
Q 1925 3584 2291 3584 
Q 2894 3584 3203 3211 
Q 3513 2838 3513 2113 
z
" transform="scale(0.015625)"/>
       <path id="DejaVuSans-67" d="M 2906 1791 
Q 2906 2416 2648 2759 
Q 2391 3103 1925 3103 
Q 1463 3103 1205 2759 
Q 947 2416 947 1791 
Q 947 1169 1205 825 
Q 1463 481 1925 481 
Q 2391 481 2648 825 
Q 2906 1169 2906 1791 
z
M 3481 434 
Q 3481 -459 3084 -895 
Q 2688 -1331 1869 -1331 
Q 1566 -1331 1297 -1286 
Q 1028 -1241 775 -1147 
L 775 -588 
Q 1028 -725 1275 -790 
Q 1522 -856 1778 -856 
Q 2344 -856 2625 -561 
Q 2906 -266 2906 331 
L 2906 616 
Q 2728 306 2450 153 
Q 2172 0 1784 0 
Q 1141 0 747 490 
Q 353 981 353 1791 
Q 353 2603 747 3093 
Q 1141 3584 1784 3584 
Q 2172 3584 2450 3431 
Q 2728 3278 2906 2969 
L 2906 3500 
L 3481 3500 
L 3481 434 
z
" transform="scale(0.015625)"/>
       <path id="DejaVuSans-20" transform="scale(0.015625)"/>
       <path id="DejaVuSans-73" d="M 2834 3397 
L 2834 2853 
Q 2591 2978 2328 3040 
Q 2066 3103 1784 3103 
Q 1356 3103 1142 2972 
Q 928 2841 928 2578 
Q 928 2378 1081 2264 
Q 1234 2150 1697 2047 
L 1894 2003 
Q 2506 1872 2764 1633 
Q 3022 1394 3022 966 
Q 3022 478 2636 193 
Q 2250 -91 1575 -91 
Q 1294 -91 989 -36 
Q 684 19 347 128 
L 347 722 
Q 666 556 975 473 
Q 1284 391 1588 391 
Q 1994 391 2212 530 
Q 2431 669 2431 922 
Q 2431 1156 2273 1281 
Q 2116 1406 1581 1522 
L 1381 1569 
Q 847 1681 609 1914 
Q 372 2147 372 2553 
Q 372 3047 722 3315 
Q 1072 3584 1716 3584 
Q 2034 3584 2315 3537 
Q 2597 3491 2834 3397 
z
" transform="scale(0.015625)"/>
       <path id="DejaVuSans-65" d="M 3597 1894 
L 3597 1613 
L 953 1613 
Q 991 1019 1311 708 
Q 1631 397 2203 397 
Q 2534 397 2845 478 
Q 3156 559 3463 722 
L 3463 178 
Q 3153 47 2828 -22 
Q 2503 -91 2169 -91 
Q 1331 -91 842 396 
Q 353 884 353 1716 
Q 353 2575 817 3079 
Q 1281 3584 2069 3584 
Q 2775 3584 3186 3129 
Q 3597 2675 3597 1894 
z
M 3022 2063 
Q 3016 2534 2758 2815 
Q 2500 3097 2075 3097 
Q 1594 3097 1305 2825 
Q 1016 2553 972 2059 
L 3022 2063 
z
" transform="scale(0.015625)"/>
       <path id="DejaVuSans-6f" d="M 1959 3097 
Q 1497 3097 1228 2736 
Q 959 2375 959 1747 
Q 959 1119 1226 758 
Q 1494 397 1959 397 
Q 2419 397 2687 759 
Q 2956 1122 2956 1747 
Q 2956 2369 2687 2733 
Q 2419 3097 1959 3097 
z
M 1959 3584 
Q 2709 3584 3137 3096 
Q 3566 2609 3566 1747 
Q 3566 888 3137 398 
Q 2709 -91 1959 -91 
Q 1206 -91 779 398 
Q 353 888 353 1747 
Q 353 2609 779 3096 
Q 1206 3584 1959 3584 
z
" transform="scale(0.015625)"/>
      </defs>
      <use xlink:href="#DejaVuSans-54"/>
      <use xlink:href="#DejaVuSans-72" transform="translate(46.333984 0)"/>
      <use xlink:href="#DejaVuSans-61" transform="translate(87.447266 0)"/>
      <use xlink:href="#DejaVuSans-69" transform="translate(148.726562 0)"/>
      <use xlink:href="#DejaVuSans-6e" transform="translate(176.509766 0)"/>
      <use xlink:href="#DejaVuSans-69" transform="translate(239.888672 0)"/>
      <use xlink:href="#DejaVuSans-6e" transform="translate(267.671875 0)"/>
      <use xlink:href="#DejaVuSans-67" transform="translate(331.050781 0)"/>
      <use xlink:href="#DejaVuSans-20" transform="translate(394.527344 0)"/>
      <use xlink:href="#DejaVuSans-73" transform="translate(426.314453 0)"/>
      <use xlink:href="#DejaVuSans-65" transform="translate(478.414062 0)"/>
      <use xlink:href="#DejaVuSans-73" transform="translate(539.9375 0)"/>
      <use xlink:href="#DejaVuSans-73" transform="translate(592.037109 0)"/>
      <use xlink:href="#DejaVuSans-69" transform="translate(644.136719 0)"/>
      <use xlink:href="#DejaVuSans-6f" transform="translate(671.919922 0)"/>
      <use xlink:href="#DejaVuSans-6e" transform="translate(733.101562 0)"/>
      <use xlink:href="#DejaVuSans-73" transform="translate(796.480469 0)"/>
     </g>
    </g>
   </g>
   <g id="matplotlib.axis_2">
    <g id="ytick_1">
     <g id="line2d_11">
      <defs>
       <path id="m641aa112f1" d="M 0 0 
L -8.25 0 
" style="stroke: #000000; stroke-width: 1.4"/>
      </defs>
      <g>
       <use xlink:href="#m641aa112f1" x="52.679688" y="94.919063" style="stroke: #000000; stroke-width: 1.4"/>
      </g>
     </g>
     <g id="text_2">
      <!-- 0.4 -->
      <g transform="translate(21.845938 99.478125) scale(0.12 -0.12)">
       <defs>
        <path id="DejaVuSans-30" d="M 2034 4250 
Q 1547 4250 1301 3770 
Q 1056 3291 1056 2328 
Q 1056 1369 1301 889 
Q 1547 409 2034 409 
Q 2525 409 2770 889 
Q 3016 1369 3016 2328 
Q 3016 3291 2770 3770 
Q 2525 4250 2034 4250 
z
M 2034 4750 
Q 2819 4750 3233 4129 
Q 3647 3509 3647 2328 
Q 3647 1150 3233 529 
Q 2819 -91 2034 -91 
Q 1250 -91 836 529 
Q 422 1150 422 2328 
Q 422 3509 836 4129 
Q 1250 4750 2034 4750 
z
" transform="scale(0.015625)"/>
        <path id="DejaVuSans-2e" d="M 684 794 
L 1344 794 
L 1344 0 
L 684 0 
L 684 794 
z
" transform="scale(0.015625)"/>
        <path id="DejaVuSans-34" d="M 2419 4116 
L 825 1625 
L 2419 1625 
L 2419 4116 
z
M 2253 4666 
L 3047 4666 
L 3047 1625 
L 3713 1625 
L 3713 1100 
L 3047 1100 
L 3047 0 
L 2419 0 
L 2419 1100 
L 313 1100 
L 313 1709 
L 2253 4666 
z
" transform="scale(0.015625)"/>
       </defs>
       <use xlink:href="#DejaVuSans-30"/>
       <use xlink:href="#DejaVuSans-2e" transform="translate(63.623047 0)"/>
       <use xlink:href="#DejaVuSans-34" transform="translate(95.410156 0)"/>
      </g>
     </g>
    </g>
    <g id="ytick_2">
     <g id="line2d_12">
      <g>
       <use xlink:href="#m641aa112f1" x="52.679688" y="53.339063" style="stroke: #000000; stroke-width: 1.4"/>
      </g>
     </g>
     <g id="text_3">
      <!-- 0.5 -->
      <g transform="translate(21.845938 57.898125) scale(0.12 -0.12)">
       <defs>
        <path id="DejaVuSans-35" d="M 691 4666 
L 3169 4666 
L 3169 4134 
L 1269 4134 
L 1269 2991 
Q 1406 3038 1543 3061 
Q 1681 3084 1819 3084 
Q 2600 3084 3056 2656 
Q 3513 2228 3513 1497 
Q 3513 744 3044 326 
Q 2575 -91 1722 -91 
Q 1428 -91 1123 -41 
Q 819 9 494 109 
L 494 744 
Q 775 591 1075 516 
Q 1375 441 1709 441 
Q 2250 441 2565 725 
Q 2881 1009 2881 1497 
Q 2881 1984 2565 2268 
Q 2250 2553 1709 2553 
Q 1456 2553 1204 2497 
Q 953 2441 691 2322 
L 691 4666 
z
" transform="scale(0.015625)"/>
       </defs>
       <use xlink:href="#DejaVuSans-30"/>
       <use xlink:href="#DejaVuSans-2e" transform="translate(63.623047 0)"/>
       <use xlink:href="#DejaVuSans-35" transform="translate(95.410156 0)"/>
      </g>
     </g>
    </g>
    <g id="ytick_3">
     <g id="line2d_13">
      <g>
       <use xlink:href="#m641aa112f1" x="52.679688" y="11.759063" style="stroke: #000000; stroke-width: 1.4"/>
      </g>
     </g>
     <g id="text_4">
      <!-- 0.6 -->
      <g transform="translate(21.845938 16.318125) scale(0.12 -0.12)">
       <defs>
        <path id="DejaVuSans-36" d="M 2113 2584 
Q 1688 2584 1439 2293 
Q 1191 2003 1191 1497 
Q 1191 994 1439 701 
Q 1688 409 2113 409 
Q 2538 409 2786 701 
Q 3034 994 3034 1497 
Q 3034 2003 2786 2293 
Q 2538 2584 2113 2584 
z
M 3366 4563 
L 3366 3988 
Q 3128 4100 2886 4159 
Q 2644 4219 2406 4219 
Q 1781 4219 1451 3797 
Q 1122 3375 1075 2522 
Q 1259 2794 1537 2939 
Q 1816 3084 2150 3084 
Q 2853 3084 3261 2657 
Q 3669 2231 3669 1497 
Q 3669 778 3244 343 
Q 2819 -91 2113 -91 
Q 1303 -91 875 529 
Q 447 1150 447 2328 
Q 447 3434 972 4092 
Q 1497 4750 2381 4750 
Q 2619 4750 2861 4703 
Q 3103 4656 3366 4563 
z
" transform="scale(0.015625)"/>
       </defs>
       <use xlink:href="#DejaVuSans-30"/>
       <use xlink:href="#DejaVuSans-2e" transform="translate(63.623047 0)"/>
       <use xlink:href="#DejaVuSans-36" transform="translate(95.410156 0)"/>
      </g>
     </g>
    </g>
    <g id="text_5">
     <!-- Reward rate -->
     <g transform="translate(15.558281 86.742109) rotate(-90) scale(0.11 -0.11)">
      <defs>
       <path id="DejaVuSans-52" d="M 2841 2188 
Q 3044 2119 3236 1894 
Q 3428 1669 3622 1275 
L 4263 0 
L 3584 0 
L 2988 1197 
Q 2756 1666 2539 1819 
Q 2322 1972 1947 1972 
L 1259 1972 
L 1259 0 
L 628 0 
L 628 4666 
L 2053 4666 
Q 2853 4666 3247 4331 
Q 3641 3997 3641 3322 
Q 3641 2881 3436 2590 
Q 3231 2300 2841 2188 
z
M 1259 4147 
L 1259 2491 
L 2053 2491 
Q 2509 2491 2742 2702 
Q 2975 2913 2975 3322 
Q 2975 3731 2742 3939 
Q 2509 4147 2053 4147 
L 1259 4147 
z
" transform="scale(0.015625)"/>
       <path id="DejaVuSans-77" d="M 269 3500 
L 844 3500 
L 1563 769 
L 2278 3500 
L 2956 3500 
L 3675 769 
L 4391 3500 
L 4966 3500 
L 4050 0 
L 3372 0 
L 2619 2869 
L 1863 0 
L 1184 0 
L 269 3500 
z
" transform="scale(0.015625)"/>
       <path id="DejaVuSans-64" d="M 2906 2969 
L 2906 4863 
L 3481 4863 
L 3481 0 
L 2906 0 
L 2906 525 
Q 2725 213 2448 61 
Q 2172 -91 1784 -91 
Q 1150 -91 751 415 
Q 353 922 353 1747 
Q 353 2572 751 3078 
Q 1150 3584 1784 3584 
Q 2172 3584 2448 3432 
Q 2725 3281 2906 2969 
z
M 947 1747 
Q 947 1113 1208 752 
Q 1469 391 1925 391 
Q 2381 391 2643 752 
Q 2906 1113 2906 1747 
Q 2906 2381 2643 2742 
Q 2381 3103 1925 3103 
Q 1469 3103 1208 2742 
Q 947 2381 947 1747 
z
" transform="scale(0.015625)"/>
       <path id="DejaVuSans-74" d="M 1172 4494 
L 1172 3500 
L 2356 3500 
L 2356 3053 
L 1172 3053 
L 1172 1153 
Q 1172 725 1289 603 
Q 1406 481 1766 481 
L 2356 481 
L 2356 0 
L 1766 0 
Q 1100 0 847 248 
Q 594 497 594 1153 
L 594 3053 
L 172 3053 
L 172 3500 
L 594 3500 
L 594 4494 
L 1172 4494 
z
" transform="scale(0.015625)"/>
      </defs>
      <use xlink:href="#DejaVuSans-52"/>
      <use xlink:href="#DejaVuSans-65" transform="translate(64.982422 0)"/>
      <use xlink:href="#DejaVuSans-77" transform="translate(126.505859 0)"/>
      <use xlink:href="#DejaVuSans-61" transform="translate(208.292969 0)"/>
      <use xlink:href="#DejaVuSans-72" transform="translate(269.572266 0)"/>
      <use xlink:href="#DejaVuSans-64" transform="translate(308.935547 0)"/>
      <use xlink:href="#DejaVuSans-20" transform="translate(372.412109 0)"/>
      <use xlink:href="#DejaVuSans-72" transform="translate(404.199219 0)"/>
      <use xlink:href="#DejaVuSans-61" transform="translate(445.3125 0)"/>
      <use xlink:href="#DejaVuSans-74" transform="translate(506.591797 0)"/>
      <use xlink:href="#DejaVuSans-65" transform="translate(545.800781 0)"/>
     </g>
    </g>
   </g>
   <g id="patch_6">
    <path d="M 52.679688 94.919063 
L 52.679688 11.759063 
" style="fill: none; stroke: #000000; stroke-width: 1.2; stroke-linejoin: miter; stroke-linecap: square"/>
   </g>
   <g id="text_6">
    <!-- optimal = 0.5 -->
    <g transform="translate(559.901687 56.098438) scale(0.1 -0.1)">
     <defs>
      <path id="DejaVuSans-70" d="M 1159 525 
L 1159 -1331 
L 581 -1331 
L 581 3500 
L 1159 3500 
L 1159 2969 
Q 1341 3281 1617 3432 
Q 1894 3584 2278 3584 
Q 2916 3584 3314 3078 
Q 3713 2572 3713 1747 
Q 3713 922 3314 415 
Q 2916 -91 2278 -91 
Q 1894 -91 1617 61 
Q 1341 213 1159 525 
z
M 3116 1747 
Q 3116 2381 2855 2742 
Q 2594 3103 2138 3103 
Q 1681 3103 1420 2742 
Q 1159 2381 1159 1747 
Q 1159 1113 1420 752 
Q 1681 391 2138 391 
Q 2594 391 2855 752 
Q 3116 1113 3116 1747 
z
" transform="scale(0.015625)"/>
      <path id="DejaVuSans-6d" d="M 3328 2828 
Q 3544 3216 3844 3400 
Q 4144 3584 4550 3584 
Q 5097 3584 5394 3201 
Q 5691 2819 5691 2113 
L 5691 0 
L 5113 0 
L 5113 2094 
Q 5113 2597 4934 2840 
Q 4756 3084 4391 3084 
Q 3944 3084 3684 2787 
Q 3425 2491 3425 1978 
L 3425 0 
L 2847 0 
L 2847 2094 
Q 2847 2600 2669 2842 
Q 2491 3084 2119 3084 
Q 1678 3084 1418 2786 
Q 1159 2488 1159 1978 
L 1159 0 
L 581 0 
L 581 3500 
L 1159 3500 
L 1159 2956 
Q 1356 3278 1631 3431 
Q 1906 3584 2284 3584 
Q 2666 3584 2933 3390 
Q 3200 3197 3328 2828 
z
" transform="scale(0.015625)"/>
      <path id="DejaVuSans-6c" d="M 603 4863 
L 1178 4863 
L 1178 0 
L 603 0 
L 603 4863 
z
" transform="scale(0.015625)"/>
      <path id="DejaVuSans-3d" d="M 678 2906 
L 4684 2906 
L 4684 2381 
L 678 2381 
L 678 2906 
z
M 678 1631 
L 4684 1631 
L 4684 1100 
L 678 1100 
L 678 1631 
z
" transform="scale(0.015625)"/>
     </defs>
     <use xlink:href="#DejaVuSans-6f"/>
     <use xlink:href="#DejaVuSans-70" transform="translate(61.181641 0)"/>
     <use xlink:href="#DejaVuSans-74" transform="translate(124.658203 0)"/>
     <use xlink:href="#DejaVuSans-69" transform="translate(163.867188 0)"/>
     <use xlink:href="#DejaVuSans-6d" transform="translate(191.650391 0)"/>
     <use xlink:href="#DejaVuSans-61" transform="translate(289.0625 0)"/>
     <use xlink:href="#DejaVuSans-6c" transform="translate(350.341797 0)"/>
     <use xlink:href="#DejaVuSans-20" transform="translate(378.125 0)"/>
     <use xlink:href="#DejaVuSans-3d" transform="translate(409.912109 0)"/>
     <use xlink:href="#DejaVuSans-20" transform="translate(493.701172 0)"/>
     <use xlink:href="#DejaVuSans-30" transform="translate(525.488281 0)"/>
     <use xlink:href="#DejaVuSans-2e" transform="translate(589.111328 0)"/>
     <use xlink:href="#DejaVuSans-35" transform="translate(620.898438 0)"/>
    </g>
   </g>
   <g id="line2d_14">
    <path d="M 62.33738 57.282505 
L 63.946995 57.219743 
L 65.556611 57.156982 
L 67.166226 57.09422 
L 68.775841 57.031458 
L 70.385457 56.968696 
L 71.995072 56.905935 
L 73.604687 56.843173 
L 75.214303 56.780411 
L 76.823918 56.717649 
L 78.433534 56.654888 
L 80.043149 56.592126 
L 81.652764 56.529364 
L 83.26238 56.466602 
L 84.871995 56.40384 
L 86.481611 56.341079 
L 88.091226 56.278317 
L 89.700841 56.215555 
L 91.310457 56.152793 
L 92.920072 56.090032 
L 94.529687 56.02727 
L 96.139303 55.964508 
L 97.748918 55.901746 
L 99.358534 55.838985 
L 100.968149 55.776223 
L 102.577764 55.713461 
L 104.18738 55.650699 
L 105.796995 55.587938 
L 107.406611 55.525176 
L 109.016226 55.462414 
L 110.625841 55.399652 
L 112.235457 55.336891 
L 113.845072 55.274129 
L 115.454688 55.211367 
L 117.064303 55.199981 
L 118.673918 55.188595 
L 120.283534 55.177209 
L 121.893149 55.165823 
L 123.502764 55.154437 
L 125.11238 55.143051 
L 126.721995 55.131665 
L 128.331611 55.120279 
L 129.941226 55.108893 
L 131.550841 55.097507 
L 133.160457 55.086121 
L 134.770072 55.074735 
L 136.379688 55.063349 
L 137.989303 55.051963 
L 139.598918 55.040577 
L 141.208534 55.029191 
L 142.818149 55.017805 
L 144.427764 55.006419 
L 146.03738 54.995033 
L 147.646995 54.983647 
L 149.256611 54.972261 
L 150.866226 54.960875 
L 152.475841 54.949489 
L 154.085457 54.938103 
L 155.695072 54.926717 
L 157.304688 54.915331 
L 158.914303 54.903945 
L 160.523918 54.892559 
L 162.133534 54.881173 
L 163.743149 54.869787 
L 165.352764 54.858401 
L 166.96238 54.847015 
L 168.571995 54.835629 
L 170.181611 54.956542 
L 171.791226 55.077456 
L 173.400841 55.198369 
L 175.010457 55.319283 
L 176.620072 55.440196 
L 178.229688 55.561109 
L 179.839303 55.682023 
L 181.448918 55.802936 
L 183.058534 55.92385 
L 184.668149 56.044763 
L 186.277764 56.165677 
L 187.88738 56.28659 
L 189.496995 56.407504 
L 191.106611 56.528417 
L 192.716226 56.649331 
L 194.325841 56.770244 
L 195.935457 56.891158 
L 197.545072 57.012071 
L 199.154687 57.132985 
L 200.764303 57.253898 
L 202.373918 57.374812 
L 203.983534 57.495725 
L 205.593149 57.616639 
L 207.202764 57.737552 
L 208.81238 57.858466 
L 210.421995 57.979379 
L 212.031611 58.100293 
L 213.641226 58.221206 
L 215.250841 58.34212 
L 216.860457 58.463033 
L 218.470072 58.583947 
L 220.079688 58.70486 
L 221.689303 58.825774 
" clip-path="url(#pa50ff978a6)" style="fill: none; stroke: #808080; stroke-width: 2.5; stroke-linecap: square"/>
   </g>
   <g id="line2d_15">
    <path d="M 221.689303 109.236065 
L 223.298918 73.971089 
L 224.908534 53.565618 
L 226.518149 55.3203 
L 228.127764 54.866893 
L 229.73738 53.788141 
L 231.346995 56.600544 
L 232.956611 59.008529 
L 234.566226 60.515758 
L 236.175841 62.349072 
L 237.785457 60.384351 
L 239.395072 55.722548 
L 241.004687 53.529183 
L 242.614303 52.409497 
L 244.223918 53.473084 
L 245.833534 53.425842 
L 247.443149 52.794748 
L 249.052764 59.213725 
L 250.66238 61.807259 
L 252.271995 59.590008 
L 253.881611 59.653441 
L 255.491226 58.647083 
L 257.100841 57.747135 
L 258.710457 57.548905 
L 260.320072 58.496826 
L 261.929688 61.621873 
L 263.539303 60.206406 
L 265.148918 53.820568 
L 266.758534 54.781423 
L 268.368149 56.488253 
L 269.977764 54.111025 
L 271.58738 52.515364 
L 273.196995 51.844002 
L 274.806611 53.612642 
L 276.416226 55.98294 
L 278.025841 59.938591 
L 279.635457 61.336209 
L 281.245072 61.837291 
L 282.854687 61.156532 
L 284.464303 59.516487 
L 286.073918 57.284537 
L 287.683534 55.943487 
L 289.293149 55.429315 
L 290.902764 57.042642 
L 292.51238 55.084009 
L 294.121995 53.548342 
L 295.731611 55.520177 
L 297.341226 55.199539 
L 298.950841 54.473524 
L 300.560457 53.903061 
L 302.170072 54.969411 
L 303.779687 57.569863 
L 305.389303 55.605111 
L 306.998918 53.374495 
L 308.608534 53.000286 
L 310.218149 57.180036 
L 311.827764 61.404034 
L 313.43738 61.044576 
L 315.046995 55.467133 
L 316.656611 48.232197 
L 318.266226 48.848585 
L 319.875841 50.734807 
L 321.485457 49.99507 
L 323.095072 52.633265 
L 324.704687 56.450265 
L 326.314303 59.633008 
L 327.923918 58.593281 
L 329.533534 59.428087 
L 331.143149 57.305409 
L 332.752764 55.414375 
L 334.36238 51.938723 
L 335.971995 50.138418 
L 337.581611 51.931958 
L 339.191226 53.014169 
L 340.800841 53.356511 
L 342.410457 52.551258 
L 344.020072 53.597775 
L 345.629687 54.453323 
L 347.239303 53.722317 
L 348.848918 54.133747 
L 350.458534 54.120645 
L 352.068149 51.798279 
L 353.677764 52.080716 
L 355.28738 55.714442 
L 356.896995 57.31861 
L 358.506611 59.543295 
L 360.116226 63.284275 
L 361.725841 61.814412 
L 363.335457 59.209667 
L 364.945072 59.174131 
L 366.554688 56.149922 
L 368.164303 52.01637 
L 369.773918 54.34981 
L 371.383534 55.998186 
L 372.993149 57.165878 
L 374.602764 59.5455 
L 376.21238 60.842695 
L 377.821995 58.653183 
L 379.431611 57.378091 
L 381.041226 57.101178 
" clip-path="url(#pa50ff978a6)" style="fill: none; stroke: #ffa500; stroke-width: 2.5; stroke-linecap: square"/>
   </g>
   <g id="line2d_16">
    <path d="M 381.041226 91.595516 
L 382.699618 67.733672 
L 384.358009 63.358829 
L 386.016401 64.000115 
L 387.674792 64.602927 
L 389.333184 62.081803 
L 390.991576 62.028113 
L 392.649967 62.467744 
L 394.308359 67.237382 
L 395.96675 65.728087 
L 397.625142 62.812122 
L 399.283534 57.77088 
L 400.941925 57.957708 
L 402.600317 55.458075 
L 404.258708 58.323233 
L 405.9171 57.105516 
L 407.575492 53.828236 
L 409.233883 46.003068 
L 410.892275 55.128073 
L 412.550667 57.94865 
L 414.209058 60.841355 
L 415.86745 65.289954 
L 417.525841 61.716178 
L 419.184233 60.375442 
L 420.842625 57.229251 
L 422.501016 59.913446 
L 424.159408 60.258481 
L 425.817799 65.258028 
L 427.476191 61.366168 
L 429.134583 59.476193 
L 430.792974 58.09618 
L 432.451366 57.096505 
L 434.109757 55.402686 
L 435.768149 54.609476 
L 437.426541 55.734706 
L 439.084932 61.402986 
L 440.743324 58.795381 
L 442.401715 62.144768 
L 444.060107 60.078534 
L 445.718499 57.964818 
L 447.37689 59.594426 
L 449.035282 65.064273 
L 450.693674 64.445866 
L 452.352065 62.63383 
L 454.010457 58.735527 
L 455.668848 52.389076 
L 457.32724 56.216899 
L 458.985632 59.309388 
L 460.644023 64.937877 
L 462.302415 66.945006 
L 463.960806 68.772235 
L 465.619198 63.537069 
L 467.27759 63.384978 
L 468.935981 63.020301 
L 470.594373 59.508983 
L 472.252764 60.268405 
L 473.911156 60.018466 
L 475.569548 56.445539 
L 477.227939 53.225515 
L 478.886331 55.262647 
L 480.544722 58.153746 
L 482.203114 58.740913 
L 483.861506 60.639296 
L 485.519897 62.908793 
L 487.178289 60.554606 
L 488.836681 63.545892 
L 490.495072 54.006253 
L 492.153464 54.226699 
L 493.811855 55.493607 
L 495.470247 56.895319 
L 497.128639 61.856873 
L 498.78703 67.151808 
L 500.445422 67.656193 
L 502.103813 68.93311 
L 503.762205 66.513056 
L 505.420597 68.835091 
L 507.078988 67.089426 
L 508.73738 64.628044 
L 510.395771 66.093366 
L 512.054163 67.082666 
L 513.712555 64.953996 
L 515.370946 63.35854 
L 517.029338 63.032711 
L 518.687729 62.867351 
L 520.346121 62.667339 
L 522.004513 60.741227 
L 523.662904 63.745753 
L 525.321296 68.998493 
L 526.979687 77.087932 
L 528.638079 66.920777 
L 530.296471 66.925424 
L 531.954862 62.629707 
L 533.613254 63.582966 
L 535.271646 61.986862 
L 536.930037 62.175806 
L 538.588429 63.656183 
L 540.24682 62.279032 
L 541.905212 67.438987 
L 543.563604 65.602279 
L 545.221995 62.269749 
" clip-path="url(#pa50ff978a6)" style="fill: none; stroke: #800080; stroke-width: 2.5; stroke-linecap: square"/>
   </g>
  </g>
 </g>
 <defs>
  <clipPath id="pa50ff978a6">
   <rect x="52.679688" y="11.759063" width="502.2" height="83.16"/>
  </clipPath>
 </defs>
</svg>
