<?xml version="1.0" encoding="utf-8" standalone="no"?>
<!DOCTYPE svg PUBLIC "-//W3C//DTD SVG 1.1//EN"
  "http://www.w3.org/Graphics/SVG/1.1/DTD/svg11.dtd">
<svg xmlns:xlink="http://www.w3.org/1999/xlink" width="450.479688pt" height="223.167817pt" viewBox="0 0 450.479688 223.167817" xmlns="http://www.w3.org/2000/svg" version="1.1">
 <metadata>
  <rdf:RDF xmlns:dc="http://purl.org/dc/elements/1.1/" xmlns:cc="http://creativecommons.org/ns#" xmlns:rdf="http://www.w3.org/1999/02/22-rdf-syntax-ns#">
   <cc:Work>
    <dc:type rdf:resource="http://purl.org/dc/dcmitype/StillImage"/>
    <dc:date>2025-11-20T18:26:09.493119</dc:date>
    <dc:format>image/svg+xml</dc:format>
    <dc:creator>
     <cc:Agent>
      <dc:title>Matplotlib v3.10.6, https://matplotlib.org/</dc:title>
     </cc:Agent>
    </dc:creator>
   </cc:Work>
  </rdf:RDF>
 </metadata>
 <defs>
  <style type="text/css">*{stroke-linejoin: round; stroke-linecap: butt}</style>
 </defs>
 <g id="figure_1">
  <g id="patch_1">
   <path d="M 0 223.167817 
L 450.479688 223.167817 
L 450.479688 0 
L 0 0 
L 0 223.167817 
z
" style="fill: none"/>
  </g>
  <g id="axes_1">
   <g id="patch_2">
    <path d="M 52.679688 177.958129 
L 443.279688 177.958129 
L 443.279688 11.638129 
L 52.679688 11.638129 
L 52.679688 177.958129 
z
" style="fill: none"/>
   </g>
   <g id="line2d_1">
    <path d="M 70.434233 26.625339 
L 74.379688 26.621947 
L 78.325142 26.618555 
L 82.270597 26.615162 
L 86.216051 26.61177 
L 90.161506 26.610074 
L 94.10696 26.610074 
L 98.052415 26.610074 
L 101.997869 26.610074 
L 105.943324 26.610074 
L 105.943324 121.563825 
L 113.418922 159.610217 
L 120.89452 155.673356 
L 128.370118 132.985366 
L 135.845716 138.832172 
L 143.321314 144.66963 
L 150.796912 129.93069 
L 158.27251 154.731195 
L 165.748109 162.339803 
L 173.223707 117.825453 
L 180.699305 150.510415 
L 188.174903 53.958607 
L 195.650501 52.09167 
L 203.126099 136.114038 
L 210.601697 142.954396 
L 218.077295 126.542786 
L 225.552893 156.806817 
L 233.028491 140.619585 
L 240.504089 166.171046 
L 247.979688 154.250615 
L 247.979688 119.650394 
L 257.324185 162.52637 
L 266.668683 132.148304 
L 276.01318 98.209073 
L 285.357678 152.665939 
L 294.702176 169.416089 
L 304.046673 144.041122 
L 313.391171 145.620491 
L 322.735668 170.00055 
L 332.080166 149.212542 
L 341.424664 151.319984 
L 350.769161 165.967989 
L 360.113659 168.593911 
L 369.458156 153.437324 
L 378.802654 129.031487 
L 388.147152 103.286848 
L 397.491649 160.751014 
L 406.836147 149.883611 
L 416.180644 133.561856 
L 425.525142 169.113848 
" clip-path="url(#pd9520c5486)" style="fill: none; stroke: #2ca6a4; stroke-opacity: 0.5; stroke-width: 0.5; stroke-linecap: square"/>
   </g>
   <g id="line2d_2">
    <path d="M 70.434233 170.239145 
L 74.379688 170.238277 
L 78.325142 170.237408 
L 82.270597 170.23654 
L 86.216051 170.235671 
L 90.161506 170.235237 
L 94.10696 170.235237 
L 98.052415 170.235237 
L 101.997869 170.235237 
L 105.943324 170.235237 
L 105.943324 75.451566 
L 113.418922 37.48457 
L 120.89452 112.605685 
L 128.370118 64.58105 
L 135.845716 58.170879 
L 143.321314 52.372468 
L 150.796912 110.58818 
L 158.27251 59.586358 
L 165.748109 45.540369 
L 173.223707 79.81143 
L 180.699305 55.754135 
L 188.174903 144.797642 
L 195.650501 145.366969 
L 203.126099 61.010453 
L 210.601697 54.073246 
L 218.077295 70.792698 
L 225.552893 40.098967 
L 233.028491 66.258371 
L 240.504089 34.927471 
L 247.979688 82.996277 
L 247.979688 77.362985 
L 257.324185 70.220334 
L 266.668683 155.022244 
L 276.01318 131.056334 
L 285.357678 158.521933 
L 294.702176 169.107839 
L 304.046673 136.007662 
L 313.391171 170.059326 
L 322.735668 169.12385 
L 332.080166 170.340962 
L 341.424664 170.003606 
L 350.769161 170.340796 
L 360.113659 170.293408 
L 369.458156 125.188736 
L 378.802654 170.257735 
L 388.147152 166.987771 
L 397.491649 110.895175 
L 406.836147 158.961648 
L 416.180644 69.531678 
L 425.525142 39.596359 
" clip-path="url(#pd9520c5486)" style="fill: none; stroke: #e3b505; stroke-opacity: 0.5; stroke-width: 0.5; stroke-linecap: square"/>
   </g>
   <g id="line2d_3">
    <path d="M 70.434233 170.330374 
L 74.379688 170.334634 
L 78.325142 170.338895 
L 82.270597 170.343155 
L 86.216051 170.347416 
L 90.161506 170.349546 
L 94.10696 170.349546 
L 98.052415 170.349546 
L 101.997869 170.349546 
L 105.943324 170.349546 
L 105.943324 170.179467 
L 113.418922 170.10007 
L 120.89452 98.915817 
L 128.370118 169.628442 
L 135.845716 170.191806 
L 143.321314 170.152759 
L 150.796912 126.675987 
L 158.27251 152.877304 
L 165.748109 159.314686 
L 173.223707 169.557974 
L 180.699305 160.930308 
L 188.174903 168.438608 
L 195.650501 169.736219 
L 203.126099 170.070366 
L 210.601697 170.167216 
L 218.077295 169.859373 
L 225.552893 170.289074 
L 233.028491 160.316902 
L 240.504089 166.09634 
L 247.979688 129.947966 
L 247.979688 170.181479 
L 257.324185 134.448154 
L 266.668683 80.02431 
L 276.01318 137.92945 
L 285.357678 56.006986 
L 294.702176 28.67093 
L 304.046673 87.146073 
L 313.391171 51.515041 
L 322.735668 28.070458 
L 332.080166 47.641354 
L 341.424664 45.871267 
L 350.769161 30.886073 
L 360.113659 28.307538 
L 369.458156 88.568798 
L 378.802654 67.905635 
L 388.147152 96.920239 
L 397.491649 95.548668 
L 406.836147 58.349598 
L 416.180644 164.101324 
L 425.525142 158.48465 
" clip-path="url(#pd9520c5486)" style="fill: none; stroke: #4f6db8; stroke-opacity: 0.5; stroke-width: 0.5; stroke-linecap: square"/>
   </g>
   <g id="line2d_4">
    <path d="M 70.434233 45.965633 
L 74.379688 41.622226 
L 78.325142 37.27882 
L 82.270597 32.935414 
L 86.216051 28.592008 
L 90.161506 26.420305 
L 94.10696 26.420305 
L 98.052415 26.420305 
L 101.997869 26.420305 
L 105.943324 26.420305 
L 105.943324 26.437271 
L 113.418922 150.980173 
L 120.89452 140.823854 
L 128.370118 167.970788 
L 135.845716 150.71975 
L 143.321314 162.000199 
L 150.796912 168.828585 
L 158.27251 154.29703 
L 165.748109 162.239236 
L 173.223707 170.119563 
L 180.699305 136.135497 
L 188.174903 149.021081 
L 195.650501 152.109858 
L 203.126099 148.993489 
L 210.601697 170.358416 
L 218.077295 170.374572 
L 225.552893 153.835883 
L 233.028491 170.384314 
L 240.504089 152.762795 
L 247.979688 156.312188 
L 247.979688 157.691871 
L 257.324185 165.596101 
L 266.668683 164.169345 
L 276.01318 169.578897 
L 285.357678 160.023034 
L 294.702176 167.611562 
L 304.046673 144.545755 
L 313.391171 169.576217 
L 322.735668 169.247097 
L 332.080166 170.191753 
L 341.424664 167.673886 
L 350.769161 170.153522 
L 360.113659 167.296292 
L 369.458156 169.888536 
L 378.802654 160.24174 
L 388.147152 169.133356 
L 397.491649 169.493988 
L 406.836147 161.523614 
L 416.180644 165.146186 
L 425.525142 169.455302 
" clip-path="url(#pd9520c5486)" style="fill: none; stroke: #2ca6a4; stroke-opacity: 0.5; stroke-width: 0.5; stroke-linecap: square"/>
   </g>
   <g id="line2d_5">
    <path d="M 70.434233 170.327607 
L 74.379688 170.341391 
L 78.325142 170.355176 
L 82.270597 170.36896 
L 86.216051 170.382745 
L 90.161506 170.389637 
L 94.10696 170.389637 
L 98.052415 170.389637 
L 101.997869 170.389637 
L 105.943324 170.389637 
L 105.943324 170.389405 
L 113.418922 99.977221 
L 120.89452 143.114463 
L 128.370118 71.298983 
L 135.845716 123.534247 
L 143.321314 47.670642 
L 150.796912 28.543551 
L 158.27251 47.800037 
L 165.748109 36.290879 
L 173.223707 26.759923 
L 180.699305 128.375953 
L 188.174903 72.804327 
L 195.650501 48.191214 
L 203.126099 155.213527 
L 210.601697 26.594137 
L 218.077295 26.466591 
L 225.552893 162.801066 
L 233.028491 26.433294 
L 240.504089 124.848131 
L 247.979688 157.855204 
L 247.979688 95.078447 
L 257.324185 165.694177 
L 266.668683 170.228067 
L 276.01318 170.366867 
L 285.357678 170.092105 
L 294.702176 167.663321 
L 304.046673 169.984755 
L 313.391171 170.231991 
L 322.735668 170.161949 
L 332.080166 170.164581 
L 341.424664 170.153805 
L 350.769161 170.344248 
L 360.113659 170.285351 
L 369.458156 170.322128 
L 378.802654 169.717263 
L 388.147152 169.020436 
L 397.491649 170.227582 
L 406.836147 170.065046 
L 416.180644 161.406581 
L 425.525142 170.374031 
" clip-path="url(#pd9520c5486)" style="fill: none; stroke: #e3b505; stroke-opacity: 0.5; stroke-width: 0.5; stroke-linecap: square"/>
   </g>
   <g id="line2d_6">
    <path d="M 70.434233 150.901618 
L 74.379688 155.23124 
L 78.325142 159.560861 
L 82.270597 163.890483 
L 86.216051 168.220105 
L 90.161506 170.384916 
L 94.10696 170.384916 
L 98.052415 170.384916 
L 101.997869 170.384916 
L 105.943324 170.384916 
L 105.943324 170.368182 
L 113.418922 116.237463 
L 120.89452 83.256541 
L 128.370118 127.925086 
L 135.845716 92.94086 
L 143.321314 157.524016 
L 150.796912 169.822721 
L 158.27251 165.097791 
L 165.748109 168.664742 
L 173.223707 170.315372 
L 180.699305 102.683407 
L 188.174903 145.36945 
L 195.650501 166.893786 
L 203.126099 62.987841 
L 210.601697 170.242305 
L 218.077295 170.353695 
L 225.552893 50.557909 
L 233.028491 170.377249 
L 240.504089 89.583932 
L 247.979688 53.027465 
L 247.979688 114.42454 
L 257.324185 35.90458 
L 266.668683 32.797445 
L 276.01318 27.249093 
L 285.357678 37.079718 
L 294.702176 31.919975 
L 304.046673 52.664347 
L 313.391171 27.386649 
L 322.735668 27.785812 
L 332.080166 26.838523 
L 341.424664 29.367166 
L 350.769161 26.697087 
L 360.113659 29.613214 
L 369.458156 26.984194 
L 378.802654 37.235854 
L 388.147152 29.041066 
L 397.491649 27.473287 
L 406.836147 35.606197 
L 416.180644 40.642091 
L 425.525142 27.365525 
" clip-path="url(#pd9520c5486)" style="fill: none; stroke: #4f6db8; stroke-opacity: 0.5; stroke-width: 0.5; stroke-linecap: square"/>
   </g>
   <g id="line2d_7">
    <path d="M 70.434233 94.890262 
L 74.379688 127.726346 
L 78.325142 160.562429 
L 82.270597 130.727314 
L 86.216051 80.001799 
L 90.161506 48.369951 
L 94.10696 35.831768 
L 98.052415 26.428131 
L 101.997869 26.428131 
L 105.943324 26.428131 
L 105.943324 170.242746 
L 113.418922 170.339992 
L 120.89452 170.380266 
L 128.370118 170.361404 
L 135.845716 170.395832 
L 143.321314 170.397038 
L 150.796912 170.395521 
L 158.27251 170.395976 
L 165.748109 170.35937 
L 173.223707 170.395157 
L 180.699305 170.394014 
L 188.174903 170.38295 
L 195.650501 170.392894 
L 203.126099 170.388874 
L 210.601697 170.391613 
L 218.077295 170.32984 
L 225.552893 170.271744 
L 233.028491 168.656107 
L 240.504089 169.222433 
L 247.979688 170.380993 
L 247.979688 170.395799 
L 257.324185 170.3698 
L 266.668683 170.387787 
L 276.01318 170.388935 
L 285.357678 169.87668 
L 294.702176 170.392783 
L 304.046673 170.38817 
L 313.391171 170.381127 
L 322.735668 170.392305 
L 332.080166 170.3757 
L 341.424664 170.391677 
L 350.769161 170.382154 
L 360.113659 170.381844 
L 369.458156 170.28625 
L 378.802654 169.616018 
L 388.147152 170.389066 
L 397.491649 170.174921 
L 406.836147 170.179741 
L 416.180644 170.395416 
L 425.525142 170.395602 
" clip-path="url(#pd9520c5486)" style="fill: none; stroke: #2ca6a4; stroke-opacity: 0.5; stroke-width: 0.5; stroke-linecap: square"/>
   </g>
   <g id="line2d_8">
    <path d="M 70.434233 140.122843 
L 74.379688 124.471344 
L 78.325142 108.819846 
L 82.270597 119.797108 
L 86.216051 139.650624 
L 90.161506 154.204215 
L 94.10696 163.45788 
L 98.052415 170.398129 
L 101.997869 170.398129 
L 105.943324 170.398129 
L 105.943324 85.03267 
L 113.418922 94.727482 
L 120.89452 113.846136 
L 128.370118 86.455431 
L 135.845716 60.090455 
L 143.321314 38.816383 
L 150.796912 60.632996 
L 158.27251 41.026589 
L 165.748109 99.918043 
L 173.223707 35.10659 
L 180.699305 77.103181 
L 188.174903 49.557781 
L 195.650501 60.954333 
L 203.126099 46.901127 
L 210.601697 140.106992 
L 218.077295 130.473617 
L 225.552893 141.62143 
L 233.028491 125.153798 
L 240.504089 82.923552 
L 247.979688 83.371771 
L 247.979688 61.572262 
L 257.324185 148.288554 
L 266.668683 142.032684 
L 276.01318 155.720599 
L 285.357678 148.901738 
L 294.702176 151.475747 
L 304.046673 147.442458 
L 313.391171 153.118203 
L 322.735668 164.054457 
L 332.080166 93.456656 
L 341.424664 160.665141 
L 350.769161 160.060718 
L 360.113659 147.712878 
L 369.458156 85.947184 
L 378.802654 113.029302 
L 388.147152 73.132536 
L 397.491649 117.156375 
L 406.836147 120.06396 
L 416.180644 150.745282 
L 425.525142 155.739963 
" clip-path="url(#pd9520c5486)" style="fill: none; stroke: #e3b505; stroke-opacity: 0.5; stroke-width: 0.5; stroke-linecap: square"/>
   </g>
   <g id="line2d_9">
    <path d="M 70.434233 132.181752 
L 74.379688 114.997168 
L 78.325142 97.812583 
L 82.270597 116.670435 
L 86.216051 147.542434 
L 90.161506 164.620692 
L 94.10696 167.905209 
L 98.052415 170.368597 
L 101.997869 170.368597 
L 105.943324 170.368597 
L 105.943324 111.919442 
L 113.418922 102.127384 
L 120.89452 82.968455 
L 128.370118 110.378022 
L 135.845716 136.708571 
L 143.321314 157.981437 
L 150.796912 136.16634 
L 158.27251 155.772292 
L 165.748109 96.917445 
L 173.223707 161.693111 
L 180.699305 119.697662 
L 188.174903 147.254127 
L 195.650501 135.84763 
L 203.126099 149.904856 
L 210.601697 56.696253 
L 218.077295 66.391401 
L 225.552893 55.301683 
L 233.028491 73.384952 
L 240.504089 115.048872 
L 247.979688 113.442094 
L 247.979688 135.226797 
L 257.324185 48.536504 
L 266.668683 54.774386 
L 276.01318 41.085324 
L 285.357678 48.416439 
L 294.702176 45.326328 
L 304.046673 49.36423 
L 313.391171 43.695528 
L 322.735668 32.748095 
L 332.080166 103.362501 
L 341.424664 36.138039 
L 350.769161 36.751985 
L 360.113659 49.100135 
L 369.458156 110.961423 
L 378.802654 84.549538 
L 388.147152 123.673256 
L 397.491649 79.863561 
L 406.836147 76.951156 
L 416.180644 46.054159 
L 425.525142 41.059292 
" clip-path="url(#pd9520c5486)" style="fill: none; stroke: #4f6db8; stroke-opacity: 0.5; stroke-width: 0.5; stroke-linecap: square"/>
   </g>
   <g id="line2d_10">
    <path d="M 70.434233 55.827078 
L 74.379688 65.323506 
L 78.325142 74.819935 
L 82.270597 63.425963 
L 86.216051 45.068526 
L 90.161506 33.80011 
L 94.10696 29.620716 
L 98.052415 26.48617 
L 101.997869 26.48617 
L 105.943324 26.48617 
L 105.943324 106.081281 
L 113.418922 160.310128 
L 120.89452 155.625825 
L 128.370118 157.105853 
L 135.845716 153.315918 
L 143.321314 159.022289 
L 150.796912 156.384932 
L 158.27251 159.808067 
L 165.748109 164.979469 
L 173.223707 152.780058 
L 180.699305 152.346642 
L 188.174903 124.454213 
L 195.650501 124.864807 
L 203.126099 151.832134 
L 210.601697 161.234808 
L 218.077295 155.749066 
L 225.552893 160.304815 
L 233.028491 159.886669 
L 240.504089 162.718758 
L 247.979688 160.314599 
L 247.979688 149.246021 
L 257.324185 166.16409 
L 266.668683 155.568479 
L 276.01318 146.058968 
L 285.357678 160.855218 
L 294.702176 169.140144 
L 304.046673 152.991682 
L 313.391171 161.859278 
L 322.735668 169.879984 
L 332.080166 163.259998 
L 341.424664 163.128516 
L 350.769161 168.834555 
L 360.113659 168.757349 
L 369.458156 164.53737 
L 378.802654 152.963082 
L 388.147152 147.60309 
L 397.491649 166.806641 
L 406.836147 160.528989 
L 416.180644 156.367819 
L 425.525142 169.654917 
" clip-path="url(#pd9520c5486)" style="fill: none; stroke: #2ca6a4; stroke-width: 1.5; stroke-linecap: square"/>
   </g>
   <g id="line2d_11">
    <path d="M 70.434233 160.229865 
L 74.379688 155.017004 
L 78.325142 149.804143 
L 82.270597 153.467536 
L 86.216051 160.08968 
L 90.161506 164.94303 
L 94.10696 168.027585 
L 98.052415 170.341001 
L 101.997869 170.341001 
L 105.943324 170.341001 
L 105.943324 110.291214 
L 113.418922 77.396424 
L 120.89452 123.188761 
L 128.370118 74.111821 
L 135.845716 80.598527 
L 143.321314 46.286498 
L 150.796912 66.588243 
L 158.27251 49.470995 
L 165.748109 60.583097 
L 173.223707 47.225981 
L 180.699305 87.077756 
L 188.174903 89.05325 
L 195.650501 84.837505 
L 203.126099 87.708369 
L 210.601697 73.591458 
L 218.077295 75.910969 
L 225.552893 114.840488 
L 233.028491 72.615155 
L 240.504089 80.899718 
L 247.979688 108.074417 
L 247.979688 78.004565 
L 257.324185 128.067688 
L 266.668683 155.760998 
L 276.01318 152.381267 
L 285.357678 159.171925 
L 294.702176 162.748969 
L 304.046673 151.144958 
L 313.391171 164.46984 
L 322.735668 167.780085 
L 332.080166 144.654066 
L 341.424664 166.940851 
L 350.769161 166.915254 
L 360.113659 162.763879 
L 369.458156 127.152683 
L 378.802654 151.001434 
L 388.147152 136.380247 
L 397.491649 132.759711 
L 406.836147 149.696885 
L 416.180644 127.227847 
L 425.525142 121.903451 
" clip-path="url(#pd9520c5486)" style="fill: none; stroke: #e3b505; stroke-width: 1.5; stroke-linecap: square"/>
   </g>
   <g id="line2d_12">
    <path d="M 70.434233 151.137915 
L 74.379688 146.854347 
L 78.325142 142.57078 
L 82.270597 150.301358 
L 86.216051 162.036651 
L 90.161506 168.451718 
L 94.10696 169.546557 
L 98.052415 170.367686 
L 101.997869 170.367686 
L 105.943324 170.367686 
L 105.943324 150.822363 
L 113.418922 129.488306 
L 120.89452 88.380271 
L 128.370118 135.977184 
L 135.845716 133.280412 
L 143.321314 161.886071 
L 150.796912 144.221683 
L 158.27251 157.915796 
L 165.748109 141.632291 
L 173.223707 167.188819 
L 180.699305 127.770459 
L 188.174903 153.687395 
L 195.650501 157.492545 
L 203.126099 127.654355 
L 210.601697 132.368591 
L 218.077295 135.534823 
L 225.552893 92.049555 
L 233.028491 134.693034 
L 240.504089 123.576382 
L 247.979688 98.805842 
L 247.979688 139.944272 
L 257.324185 72.963079 
L 266.668683 55.86538 
L 276.01318 68.754623 
L 285.357678 47.167714 
L 294.702176 35.305744 
L 304.046673 63.058217 
L 313.391171 40.865739 
L 322.735668 29.534788 
L 332.080166 59.280793 
L 341.424664 37.125491 
L 350.769161 31.445049 
L 360.113659 35.673629 
L 369.458156 75.504805 
L 378.802654 63.230342 
L 388.147152 83.21152 
L 397.491649 67.628505 
L 406.836147 56.968984 
L 416.180644 83.599191 
L 425.525142 75.636489 
" clip-path="url(#pd9520c5486)" style="fill: none; stroke: #4f6db8; stroke-width: 1.5; stroke-linecap: square"/>
   </g>
   <g id="matplotlib.axis_1">
    <g id="xtick_1">
     <g id="line2d_13">
      <defs>
       <path id="mca80e0ddf4" d="M 0 0 
L 0 8.25 
" style="stroke: #000000; stroke-width: 1.4"/>
      </defs>
      <g>
       <use xlink:href="#mca80e0ddf4" x="70.434233" y="177.958129" style="stroke: #000000; stroke-width: 1.4"/>
      </g>
     </g>
     <g id="text_1">
      <!-- 0.0 -->
      <g transform="translate(60.892358 198.826254) scale(0.12 -0.12)">
       <defs>
        <path id="DejaVuSans-30" d="M 2034 4250 
Q 1547 4250 1301 3770 
Q 1056 3291 1056 2328 
Q 1056 1369 1301 889 
Q 1547 409 2034 409 
Q 2525 409 2770 889 
Q 3016 1369 3016 2328 
Q 3016 3291 2770 3770 
Q 2525 4250 2034 4250 
z
M 2034 4750 
Q 2819 4750 3233 4129 
Q 3647 3509 3647 2328 
Q 3647 1150 3233 529 
Q 2819 -91 2034 -91 
Q 1250 -91 836 529 
Q 422 1150 422 2328 
Q 422 3509 836 4129 
Q 1250 4750 2034 4750 
z
" transform="scale(0.015625)"/>
        <path id="DejaVuSans-2e" d="M 684 794 
L 1344 794 
L 1344 0 
L 684 0 
L 684 794 
z
" transform="scale(0.015625)"/>
       </defs>
       <use xlink:href="#DejaVuSans-30"/>
       <use xlink:href="#DejaVuSans-2e" transform="translate(63.623047 0)"/>
       <use xlink:href="#DejaVuSans-30" transform="translate(95.410156 0)"/>
      </g>
     </g>
    </g>
    <g id="xtick_2">
     <g id="line2d_14">
      <g>
       <use xlink:href="#mca80e0ddf4" x="141.452415" y="177.958129" style="stroke: #000000; stroke-width: 1.4"/>
      </g>
     </g>
     <g id="text_2">
      <!-- 0.2 -->
      <g transform="translate(131.91054 198.826254) scale(0.12 -0.12)">
       <defs>
        <path id="DejaVuSans-32" d="M 1228 531 
L 3431 531 
L 3431 0 
L 469 0 
L 469 531 
Q 828 903 1448 1529 
Q 2069 2156 2228 2338 
Q 2531 2678 2651 2914 
Q 2772 3150 2772 3378 
Q 2772 3750 2511 3984 
Q 2250 4219 1831 4219 
Q 1534 4219 1204 4116 
Q 875 4013 500 3803 
L 500 4441 
Q 881 4594 1212 4672 
Q 1544 4750 1819 4750 
Q 2544 4750 2975 4387 
Q 3406 4025 3406 3419 
Q 3406 3131 3298 2873 
Q 3191 2616 2906 2266 
Q 2828 2175 2409 1742 
Q 1991 1309 1228 531 
z
" transform="scale(0.015625)"/>
       </defs>
       <use xlink:href="#DejaVuSans-30"/>
       <use xlink:href="#DejaVuSans-2e" transform="translate(63.623047 0)"/>
       <use xlink:href="#DejaVuSans-32" transform="translate(95.410156 0)"/>
      </g>
     </g>
    </g>
    <g id="xtick_3">
     <g id="line2d_15">
      <g>
       <use xlink:href="#mca80e0ddf4" x="212.470597" y="177.958129" style="stroke: #000000; stroke-width: 1.4"/>
      </g>
     </g>
     <g id="text_3">
      <!-- 0.4 -->
      <g transform="translate(202.928722 198.826254) scale(0.12 -0.12)">
       <defs>
        <path id="DejaVuSans-34" d="M 2419 4116 
L 825 1625 
L 2419 1625 
L 2419 4116 
z
M 2253 4666 
L 3047 4666 
L 3047 1625 
L 3713 1625 
L 3713 1100 
L 3047 1100 
L 3047 0 
L 2419 0 
L 2419 1100 
L 313 1100 
L 313 1709 
L 2253 4666 
z
" transform="scale(0.015625)"/>
       </defs>
       <use xlink:href="#DejaVuSans-30"/>
       <use xlink:href="#DejaVuSans-2e" transform="translate(63.623047 0)"/>
       <use xlink:href="#DejaVuSans-34" transform="translate(95.410156 0)"/>
      </g>
     </g>
    </g>
    <g id="xtick_4">
     <g id="line2d_16">
      <g>
       <use xlink:href="#mca80e0ddf4" x="283.488778" y="177.958129" style="stroke: #000000; stroke-width: 1.4"/>
      </g>
     </g>
     <g id="text_4">
      <!-- 0.6 -->
      <g transform="translate(273.946903 198.826254) scale(0.12 -0.12)">
       <defs>
        <path id="DejaVuSans-36" d="M 2113 2584 
Q 1688 2584 1439 2293 
Q 1191 2003 1191 1497 
Q 1191 994 1439 701 
Q 1688 409 2113 409 
Q 2538 409 2786 701 
Q 3034 994 3034 1497 
Q 3034 2003 2786 2293 
Q 2538 2584 2113 2584 
z
M 3366 4563 
L 3366 3988 
Q 3128 4100 2886 4159 
Q 2644 4219 2406 4219 
Q 1781 4219 1451 3797 
Q 1122 3375 1075 2522 
Q 1259 2794 1537 2939 
Q 1816 3084 2150 3084 
Q 2853 3084 3261 2657 
Q 3669 2231 3669 1497 
Q 3669 778 3244 343 
Q 2819 -91 2113 -91 
Q 1303 -91 875 529 
Q 447 1150 447 2328 
Q 447 3434 972 4092 
Q 1497 4750 2381 4750 
Q 2619 4750 2861 4703 
Q 3103 4656 3366 4563 
z
" transform="scale(0.015625)"/>
       </defs>
       <use xlink:href="#DejaVuSans-30"/>
       <use xlink:href="#DejaVuSans-2e" transform="translate(63.623047 0)"/>
       <use xlink:href="#DejaVuSans-36" transform="translate(95.410156 0)"/>
      </g>
     </g>
    </g>
    <g id="xtick_5">
     <g id="line2d_17">
      <g>
       <use xlink:href="#mca80e0ddf4" x="354.50696" y="177.958129" style="stroke: #000000; stroke-width: 1.4"/>
      </g>
     </g>
     <g id="text_5">
      <!-- 0.8 -->
      <g transform="translate(344.965085 198.826254) scale(0.12 -0.12)">
       <defs>
        <path id="DejaVuSans-38" d="M 2034 2216 
Q 1584 2216 1326 1975 
Q 1069 1734 1069 1313 
Q 1069 891 1326 650 
Q 1584 409 2034 409 
Q 2484 409 2743 651 
Q 3003 894 3003 1313 
Q 3003 1734 2745 1975 
Q 2488 2216 2034 2216 
z
M 1403 2484 
Q 997 2584 770 2862 
Q 544 3141 544 3541 
Q 544 4100 942 4425 
Q 1341 4750 2034 4750 
Q 2731 4750 3128 4425 
Q 3525 4100 3525 3541 
Q 3525 3141 3298 2862 
Q 3072 2584 2669 2484 
Q 3125 2378 3379 2068 
Q 3634 1759 3634 1313 
Q 3634 634 3220 271 
Q 2806 -91 2034 -91 
Q 1263 -91 848 271 
Q 434 634 434 1313 
Q 434 1759 690 2068 
Q 947 2378 1403 2484 
z
M 1172 3481 
Q 1172 3119 1398 2916 
Q 1625 2713 2034 2713 
Q 2441 2713 2670 2916 
Q 2900 3119 2900 3481 
Q 2900 3844 2670 4047 
Q 2441 4250 2034 4250 
Q 1625 4250 1398 4047 
Q 1172 3844 1172 3481 
z
" transform="scale(0.015625)"/>
       </defs>
       <use xlink:href="#DejaVuSans-30"/>
       <use xlink:href="#DejaVuSans-2e" transform="translate(63.623047 0)"/>
       <use xlink:href="#DejaVuSans-38" transform="translate(95.410156 0)"/>
      </g>
     </g>
    </g>
    <g id="xtick_6">
     <g id="line2d_18">
      <g>
       <use xlink:href="#mca80e0ddf4" x="425.525142" y="177.958129" style="stroke: #000000; stroke-width: 1.4"/>
      </g>
     </g>
     <g id="text_6">
      <!-- 1.0 -->
      <g transform="translate(415.983267 198.826254) scale(0.12 -0.12)">
       <defs>
        <path id="DejaVuSans-31" d="M 794 531 
L 1825 531 
L 1825 4091 
L 703 3866 
L 703 4441 
L 1819 4666 
L 2450 4666 
L 2450 531 
L 3481 531 
L 3481 0 
L 794 0 
L 794 531 
z
" transform="scale(0.015625)"/>
       </defs>
       <use xlink:href="#DejaVuSans-31"/>
       <use xlink:href="#DejaVuSans-2e" transform="translate(63.623047 0)"/>
       <use xlink:href="#DejaVuSans-30" transform="translate(95.410156 0)"/>
      </g>
     </g>
    </g>
    <g id="text_7">
     <!-- Interpolated sessions -->
     <g transform="translate(189.311016 213.680161) scale(0.11 -0.11)">
      <defs>
       <path id="DejaVuSans-49" d="M 628 4666 
L 1259 4666 
L 1259 0 
L 628 0 
L 628 4666 
z
" transform="scale(0.015625)"/>
       <path id="DejaVuSans-6e" d="M 3513 2113 
L 3513 0 
L 2938 0 
L 2938 2094 
Q 2938 2591 2744 2837 
Q 2550 3084 2163 3084 
Q 1697 3084 1428 2787 
Q 1159 2491 1159 1978 
L 1159 0 
L 581 0 
L 581 3500 
L 1159 3500 
L 1159 2956 
Q 1366 3272 1645 3428 
Q 1925 3584 2291 3584 
Q 2894 3584 3203 3211 
Q 3513 2838 3513 2113 
z
" transform="scale(0.015625)"/>
       <path id="DejaVuSans-74" d="M 1172 4494 
L 1172 3500 
L 2356 3500 
L 2356 3053 
L 1172 3053 
L 1172 1153 
Q 1172 725 1289 603 
Q 1406 481 1766 481 
L 2356 481 
L 2356 0 
L 1766 0 
Q 1100 0 847 248 
Q 594 497 594 1153 
L 594 3053 
L 172 3053 
L 172 3500 
L 594 3500 
L 594 4494 
L 1172 4494 
z
" transform="scale(0.015625)"/>
       <path id="DejaVuSans-65" d="M 3597 1894 
L 3597 1613 
L 953 1613 
Q 991 1019 1311 708 
Q 1631 397 2203 397 
Q 2534 397 2845 478 
Q 3156 559 3463 722 
L 3463 178 
Q 3153 47 2828 -22 
Q 2503 -91 2169 -91 
Q 1331 -91 842 396 
Q 353 884 353 1716 
Q 353 2575 817 3079 
Q 1281 3584 2069 3584 
Q 2775 3584 3186 3129 
Q 3597 2675 3597 1894 
z
M 3022 2063 
Q 3016 2534 2758 2815 
Q 2500 3097 2075 3097 
Q 1594 3097 1305 2825 
Q 1016 2553 972 2059 
L 3022 2063 
z
" transform="scale(0.015625)"/>
       <path id="DejaVuSans-72" d="M 2631 2963 
Q 2534 3019 2420 3045 
Q 2306 3072 2169 3072 
Q 1681 3072 1420 2755 
Q 1159 2438 1159 1844 
L 1159 0 
L 581 0 
L 581 3500 
L 1159 3500 
L 1159 2956 
Q 1341 3275 1631 3429 
Q 1922 3584 2338 3584 
Q 2397 3584 2469 3576 
Q 2541 3569 2628 3553 
L 2631 2963 
z
" transform="scale(0.015625)"/>
       <path id="DejaVuSans-70" d="M 1159 525 
L 1159 -1331 
L 581 -1331 
L 581 3500 
L 1159 3500 
L 1159 2969 
Q 1341 3281 1617 3432 
Q 1894 3584 2278 3584 
Q 2916 3584 3314 3078 
Q 3713 2572 3713 1747 
Q 3713 922 3314 415 
Q 2916 -91 2278 -91 
Q 1894 -91 1617 61 
Q 1341 213 1159 525 
z
M 3116 1747 
Q 3116 2381 2855 2742 
Q 2594 3103 2138 3103 
Q 1681 3103 1420 2742 
Q 1159 2381 1159 1747 
Q 1159 1113 1420 752 
Q 1681 391 2138 391 
Q 2594 391 2855 752 
Q 3116 1113 3116 1747 
z
" transform="scale(0.015625)"/>
       <path id="DejaVuSans-6f" d="M 1959 3097 
Q 1497 3097 1228 2736 
Q 959 2375 959 1747 
Q 959 1119 1226 758 
Q 1494 397 1959 397 
Q 2419 397 2687 759 
Q 2956 1122 2956 1747 
Q 2956 2369 2687 2733 
Q 2419 3097 1959 3097 
z
M 1959 3584 
Q 2709 3584 3137 3096 
Q 3566 2609 3566 1747 
Q 3566 888 3137 398 
Q 2709 -91 1959 -91 
Q 1206 -91 779 398 
Q 353 888 353 1747 
Q 353 2609 779 3096 
Q 1206 3584 1959 3584 
z
" transform="scale(0.015625)"/>
       <path id="DejaVuSans-6c" d="M 603 4863 
L 1178 4863 
L 1178 0 
L 603 0 
L 603 4863 
z
" transform="scale(0.015625)"/>
       <path id="DejaVuSans-61" d="M 2194 1759 
Q 1497 1759 1228 1600 
Q 959 1441 959 1056 
Q 959 750 1161 570 
Q 1363 391 1709 391 
Q 2188 391 2477 730 
Q 2766 1069 2766 1631 
L 2766 1759 
L 2194 1759 
z
M 3341 1997 
L 3341 0 
L 2766 0 
L 2766 531 
Q 2569 213 2275 61 
Q 1981 -91 1556 -91 
Q 1019 -91 701 211 
Q 384 513 384 1019 
Q 384 1609 779 1909 
Q 1175 2209 1959 2209 
L 2766 2209 
L 2766 2266 
Q 2766 2663 2505 2880 
Q 2244 3097 1772 3097 
Q 1472 3097 1187 3025 
Q 903 2953 641 2809 
L 641 3341 
Q 956 3463 1253 3523 
Q 1550 3584 1831 3584 
Q 2591 3584 2966 3190 
Q 3341 2797 3341 1997 
z
" transform="scale(0.015625)"/>
       <path id="DejaVuSans-64" d="M 2906 2969 
L 2906 4863 
L 3481 4863 
L 3481 0 
L 2906 0 
L 2906 525 
Q 2725 213 2448 61 
Q 2172 -91 1784 -91 
Q 1150 -91 751 415 
Q 353 922 353 1747 
Q 353 2572 751 3078 
Q 1150 3584 1784 3584 
Q 2172 3584 2448 3432 
Q 2725 3281 2906 2969 
z
M 947 1747 
Q 947 1113 1208 752 
Q 1469 391 1925 391 
Q 2381 391 2643 752 
Q 2906 1113 2906 1747 
Q 2906 2381 2643 2742 
Q 2381 3103 1925 3103 
Q 1469 3103 1208 2742 
Q 947 2381 947 1747 
z
" transform="scale(0.015625)"/>
       <path id="DejaVuSans-20" transform="scale(0.015625)"/>
       <path id="DejaVuSans-73" d="M 2834 3397 
L 2834 2853 
Q 2591 2978 2328 3040 
Q 2066 3103 1784 3103 
Q 1356 3103 1142 2972 
Q 928 2841 928 2578 
Q 928 2378 1081 2264 
Q 1234 2150 1697 2047 
L 1894 2003 
Q 2506 1872 2764 1633 
Q 3022 1394 3022 966 
Q 3022 478 2636 193 
Q 2250 -91 1575 -91 
Q 1294 -91 989 -36 
Q 684 19 347 128 
L 347 722 
Q 666 556 975 473 
Q 1284 391 1588 391 
Q 1994 391 2212 530 
Q 2431 669 2431 922 
Q 2431 1156 2273 1281 
Q 2116 1406 1581 1522 
L 1381 1569 
Q 847 1681 609 1914 
Q 372 2147 372 2553 
Q 372 3047 722 3315 
Q 1072 3584 1716 3584 
Q 2034 3584 2315 3537 
Q 2597 3491 2834 3397 
z
" transform="scale(0.015625)"/>
       <path id="DejaVuSans-69" d="M 603 3500 
L 1178 3500 
L 1178 0 
L 603 0 
L 603 3500 
z
M 603 4863 
L 1178 4863 
L 1178 4134 
L 603 4134 
L 603 4863 
z
" transform="scale(0.015625)"/>
      </defs>
      <use xlink:href="#DejaVuSans-49"/>
      <use xlink:href="#DejaVuSans-6e" transform="translate(29.492188 0)"/>
      <use xlink:href="#DejaVuSans-74" transform="translate(92.871094 0)"/>
      <use xlink:href="#DejaVuSans-65" transform="translate(132.080078 0)"/>
      <use xlink:href="#DejaVuSans-72" transform="translate(193.603516 0)"/>
      <use xlink:href="#DejaVuSans-70" transform="translate(234.716797 0)"/>
      <use xlink:href="#DejaVuSans-6f" transform="translate(298.193359 0)"/>
      <use xlink:href="#DejaVuSans-6c" transform="translate(359.375 0)"/>
      <use xlink:href="#DejaVuSans-61" transform="translate(387.158203 0)"/>
      <use xlink:href="#DejaVuSans-74" transform="translate(448.4375 0)"/>
      <use xlink:href="#DejaVuSans-65" transform="translate(487.646484 0)"/>
      <use xlink:href="#DejaVuSans-64" transform="translate(549.169922 0)"/>
      <use xlink:href="#DejaVuSans-20" transform="translate(612.646484 0)"/>
      <use xlink:href="#DejaVuSans-73" transform="translate(644.433594 0)"/>
      <use xlink:href="#DejaVuSans-65" transform="translate(696.533203 0)"/>
      <use xlink:href="#DejaVuSans-73" transform="translate(758.056641 0)"/>
      <use xlink:href="#DejaVuSans-73" transform="translate(810.15625 0)"/>
      <use xlink:href="#DejaVuSans-69" transform="translate(862.255859 0)"/>
      <use xlink:href="#DejaVuSans-6f" transform="translate(890.039062 0)"/>
      <use xlink:href="#DejaVuSans-6e" transform="translate(951.220703 0)"/>
      <use xlink:href="#DejaVuSans-73" transform="translate(1014.599609 0)"/>
     </g>
    </g>
   </g>
   <g id="matplotlib.axis_2">
    <g id="ytick_1">
     <g id="line2d_19">
      <defs>
       <path id="m70112f23fd" d="M 0 0 
L -8.25 0 
" style="stroke: #000000; stroke-width: 1.4"/>
      </defs>
      <g>
       <use xlink:href="#m70112f23fd" x="52.679688" y="170.398359" style="stroke: #000000; stroke-width: 1.4"/>
      </g>
     </g>
     <g id="text_8">
      <!-- 0.0 -->
      <g transform="translate(21.845938 174.957421) scale(0.12 -0.12)">
       <use xlink:href="#DejaVuSans-30"/>
       <use xlink:href="#DejaVuSans-2e" transform="translate(63.623047 0)"/>
       <use xlink:href="#DejaVuSans-30" transform="translate(95.410156 0)"/>
      </g>
     </g>
    </g>
    <g id="ytick_2">
     <g id="line2d_20">
      <g>
       <use xlink:href="#m70112f23fd" x="52.679688" y="98.398249" style="stroke: #000000; stroke-width: 1.4"/>
      </g>
     </g>
     <g id="text_9">
      <!-- 0.5 -->
      <g transform="translate(21.845938 102.957312) scale(0.12 -0.12)">
       <defs>
        <path id="DejaVuSans-35" d="M 691 4666 
L 3169 4666 
L 3169 4134 
L 1269 4134 
L 1269 2991 
Q 1406 3038 1543 3061 
Q 1681 3084 1819 3084 
Q 2600 3084 3056 2656 
Q 3513 2228 3513 1497 
Q 3513 744 3044 326 
Q 2575 -91 1722 -91 
Q 1428 -91 1123 -41 
Q 819 9 494 109 
L 494 744 
Q 775 591 1075 516 
Q 1375 441 1709 441 
Q 2250 441 2565 725 
Q 2881 1009 2881 1497 
Q 2881 1984 2565 2268 
Q 2250 2553 1709 2553 
Q 1456 2553 1204 2497 
Q 953 2441 691 2322 
L 691 4666 
z
" transform="scale(0.015625)"/>
       </defs>
       <use xlink:href="#DejaVuSans-30"/>
       <use xlink:href="#DejaVuSans-2e" transform="translate(63.623047 0)"/>
       <use xlink:href="#DejaVuSans-35" transform="translate(95.410156 0)"/>
      </g>
     </g>
    </g>
    <g id="ytick_3">
     <g id="line2d_21">
      <g>
       <use xlink:href="#m70112f23fd" x="52.679688" y="26.39814" style="stroke: #000000; stroke-width: 1.4"/>
      </g>
     </g>
     <g id="text_10">
      <!-- 1.0 -->
      <g transform="translate(21.845938 30.957203) scale(0.12 -0.12)">
       <use xlink:href="#DejaVuSans-31"/>
       <use xlink:href="#DejaVuSans-2e" transform="translate(63.623047 0)"/>
       <use xlink:href="#DejaVuSans-30" transform="translate(95.410156 0)"/>
      </g>
     </g>
    </g>
    <g id="text_11">
     <!-- P(state) -->
     <g transform="translate(15.558281 116.338364) rotate(-90) scale(0.11 -0.11)">
      <defs>
       <path id="DejaVuSans-50" d="M 1259 4147 
L 1259 2394 
L 2053 2394 
Q 2494 2394 2734 2622 
Q 2975 2850 2975 3272 
Q 2975 3691 2734 3919 
Q 2494 4147 2053 4147 
L 1259 4147 
z
M 628 4666 
L 2053 4666 
Q 2838 4666 3239 4311 
Q 3641 3956 3641 3272 
Q 3641 2581 3239 2228 
Q 2838 1875 2053 1875 
L 1259 1875 
L 1259 0 
L 628 0 
L 628 4666 
z
" transform="scale(0.015625)"/>
       <path id="DejaVuSans-28" d="M 1984 4856 
Q 1566 4138 1362 3434 
Q 1159 2731 1159 2009 
Q 1159 1288 1364 580 
Q 1569 -128 1984 -844 
L 1484 -844 
Q 1016 -109 783 600 
Q 550 1309 550 2009 
Q 550 2706 781 3412 
Q 1013 4119 1484 4856 
L 1984 4856 
z
" transform="scale(0.015625)"/>
       <path id="DejaVuSans-29" d="M 513 4856 
L 1013 4856 
Q 1481 4119 1714 3412 
Q 1947 2706 1947 2009 
Q 1947 1309 1714 600 
Q 1481 -109 1013 -844 
L 513 -844 
Q 928 -128 1133 580 
Q 1338 1288 1338 2009 
Q 1338 2731 1133 3434 
Q 928 4138 513 4856 
z
" transform="scale(0.015625)"/>
      </defs>
      <use xlink:href="#DejaVuSans-50"/>
      <use xlink:href="#DejaVuSans-28" transform="translate(60.302734 0)"/>
      <use xlink:href="#DejaVuSans-73" transform="translate(99.316406 0)"/>
      <use xlink:href="#DejaVuSans-74" transform="translate(151.416016 0)"/>
      <use xlink:href="#DejaVuSans-61" transform="translate(190.625 0)"/>
      <use xlink:href="#DejaVuSans-74" transform="translate(251.904297 0)"/>
      <use xlink:href="#DejaVuSans-65" transform="translate(291.113281 0)"/>
      <use xlink:href="#DejaVuSans-29" transform="translate(352.636719 0)"/>
     </g>
    </g>
   </g>
   <g id="PathCollection_1">
    <defs>
     <path id="m96634d18cb" d="M 0 1.581139 
C 0.419323 1.581139 0.821528 1.41454 1.118034 1.118034 
C 1.41454 0.821528 1.581139 0.419323 1.581139 0 
C 1.581139 -0.419323 1.41454 -0.821528 1.118034 -1.118034 
C 0.821528 -1.41454 0.419323 -1.581139 0 -1.581139 
C -0.419323 -1.581139 -0.821528 -1.41454 -1.118034 -1.118034 
C -1.41454 -0.821528 -1.581139 -0.419323 -1.581139 0 
C -1.581139 0.419323 -1.41454 0.821528 -1.118034 1.118034 
C -0.821528 1.41454 -0.419323 1.581139 0 1.581139 
z
" style="stroke: #2ca6a4"/>
    </defs>
    <g clip-path="url(#pd9520c5486)">
     <use xlink:href="#m96634d18cb" x="70.434233" y="55.827078" style="fill: #2ca6a4; stroke: #2ca6a4"/>
     <use xlink:href="#m96634d18cb" x="74.379688" y="65.323506" style="fill: #2ca6a4; stroke: #2ca6a4"/>
     <use xlink:href="#m96634d18cb" x="78.325142" y="74.819935" style="fill: #2ca6a4; stroke: #2ca6a4"/>
     <use xlink:href="#m96634d18cb" x="82.270597" y="63.425963" style="fill: #2ca6a4; stroke: #2ca6a4"/>
     <use xlink:href="#m96634d18cb" x="86.216051" y="45.068526" style="fill: #2ca6a4; stroke: #2ca6a4"/>
     <use xlink:href="#m96634d18cb" x="90.161506" y="33.80011" style="fill: #2ca6a4; stroke: #2ca6a4"/>
     <use xlink:href="#m96634d18cb" x="94.10696" y="29.620716" style="fill: #2ca6a4; stroke: #2ca6a4"/>
     <use xlink:href="#m96634d18cb" x="98.052415" y="26.48617" style="fill: #2ca6a4; stroke: #2ca6a4"/>
     <use xlink:href="#m96634d18cb" x="101.997869" y="26.48617" style="fill: #2ca6a4; stroke: #2ca6a4"/>
     <use xlink:href="#m96634d18cb" x="105.943324" y="26.48617" style="fill: #2ca6a4; stroke: #2ca6a4"/>
     <use xlink:href="#m96634d18cb" x="105.943324" y="106.081281" style="fill: #2ca6a4; stroke: #2ca6a4"/>
     <use xlink:href="#m96634d18cb" x="113.418922" y="160.310128" style="fill: #2ca6a4; stroke: #2ca6a4"/>
     <use xlink:href="#m96634d18cb" x="120.89452" y="155.625825" style="fill: #2ca6a4; stroke: #2ca6a4"/>
     <use xlink:href="#m96634d18cb" x="128.370118" y="157.105853" style="fill: #2ca6a4; stroke: #2ca6a4"/>
     <use xlink:href="#m96634d18cb" x="135.845716" y="153.315918" style="fill: #2ca6a4; stroke: #2ca6a4"/>
     <use xlink:href="#m96634d18cb" x="143.321314" y="159.022289" style="fill: #2ca6a4; stroke: #2ca6a4"/>
     <use xlink:href="#m96634d18cb" x="150.796912" y="156.384932" style="fill: #2ca6a4; stroke: #2ca6a4"/>
     <use xlink:href="#m96634d18cb" x="158.27251" y="159.808067" style="fill: #2ca6a4; stroke: #2ca6a4"/>
     <use xlink:href="#m96634d18cb" x="165.748109" y="164.979469" style="fill: #2ca6a4; stroke: #2ca6a4"/>
     <use xlink:href="#m96634d18cb" x="173.223707" y="152.780058" style="fill: #2ca6a4; stroke: #2ca6a4"/>
     <use xlink:href="#m96634d18cb" x="180.699305" y="152.346642" style="fill: #2ca6a4; stroke: #2ca6a4"/>
     <use xlink:href="#m96634d18cb" x="188.174903" y="124.454213" style="fill: #2ca6a4; stroke: #2ca6a4"/>
     <use xlink:href="#m96634d18cb" x="195.650501" y="124.864807" style="fill: #2ca6a4; stroke: #2ca6a4"/>
     <use xlink:href="#m96634d18cb" x="203.126099" y="151.832134" style="fill: #2ca6a4; stroke: #2ca6a4"/>
     <use xlink:href="#m96634d18cb" x="210.601697" y="161.234808" style="fill: #2ca6a4; stroke: #2ca6a4"/>
     <use xlink:href="#m96634d18cb" x="218.077295" y="155.749066" style="fill: #2ca6a4; stroke: #2ca6a4"/>
     <use xlink:href="#m96634d18cb" x="225.552893" y="160.304815" style="fill: #2ca6a4; stroke: #2ca6a4"/>
     <use xlink:href="#m96634d18cb" x="233.028491" y="159.886669" style="fill: #2ca6a4; stroke: #2ca6a4"/>
     <use xlink:href="#m96634d18cb" x="240.504089" y="162.718758" style="fill: #2ca6a4; stroke: #2ca6a4"/>
     <use xlink:href="#m96634d18cb" x="247.979688" y="160.314599" style="fill: #2ca6a4; stroke: #2ca6a4"/>
     <use xlink:href="#m96634d18cb" x="247.979688" y="149.246021" style="fill: #2ca6a4; stroke: #2ca6a4"/>
     <use xlink:href="#m96634d18cb" x="257.324185" y="166.16409" style="fill: #2ca6a4; stroke: #2ca6a4"/>
     <use xlink:href="#m96634d18cb" x="266.668683" y="155.568479" style="fill: #2ca6a4; stroke: #2ca6a4"/>
     <use xlink:href="#m96634d18cb" x="276.01318" y="146.058968" style="fill: #2ca6a4; stroke: #2ca6a4"/>
     <use xlink:href="#m96634d18cb" x="285.357678" y="160.855218" style="fill: #2ca6a4; stroke: #2ca6a4"/>
     <use xlink:href="#m96634d18cb" x="294.702176" y="169.140144" style="fill: #2ca6a4; stroke: #2ca6a4"/>
     <use xlink:href="#m96634d18cb" x="304.046673" y="152.991682" style="fill: #2ca6a4; stroke: #2ca6a4"/>
     <use xlink:href="#m96634d18cb" x="313.391171" y="161.859278" style="fill: #2ca6a4; stroke: #2ca6a4"/>
     <use xlink:href="#m96634d18cb" x="322.735668" y="169.879984" style="fill: #2ca6a4; stroke: #2ca6a4"/>
     <use xlink:href="#m96634d18cb" x="332.080166" y="163.259998" style="fill: #2ca6a4; stroke: #2ca6a4"/>
     <use xlink:href="#m96634d18cb" x="341.424664" y="163.128516" style="fill: #2ca6a4; stroke: #2ca6a4"/>
     <use xlink:href="#m96634d18cb" x="350.769161" y="168.834555" style="fill: #2ca6a4; stroke: #2ca6a4"/>
     <use xlink:href="#m96634d18cb" x="360.113659" y="168.757349" style="fill: #2ca6a4; stroke: #2ca6a4"/>
     <use xlink:href="#m96634d18cb" x="369.458156" y="164.53737" style="fill: #2ca6a4; stroke: #2ca6a4"/>
     <use xlink:href="#m96634d18cb" x="378.802654" y="152.963082" style="fill: #2ca6a4; stroke: #2ca6a4"/>
     <use xlink:href="#m96634d18cb" x="388.147152" y="147.60309" style="fill: #2ca6a4; stroke: #2ca6a4"/>
     <use xlink:href="#m96634d18cb" x="397.491649" y="166.806641" style="fill: #2ca6a4; stroke: #2ca6a4"/>
     <use xlink:href="#m96634d18cb" x="406.836147" y="160.528989" style="fill: #2ca6a4; stroke: #2ca6a4"/>
     <use xlink:href="#m96634d18cb" x="416.180644" y="156.367819" style="fill: #2ca6a4; stroke: #2ca6a4"/>
     <use xlink:href="#m96634d18cb" x="425.525142" y="169.654917" style="fill: #2ca6a4; stroke: #2ca6a4"/>
    </g>
   </g>
   <g id="PathCollection_2">
    <defs>
     <path id="m659059acd7" d="M 0 1.581139 
C 0.419323 1.581139 0.821528 1.41454 1.118034 1.118034 
C 1.41454 0.821528 1.581139 0.419323 1.581139 0 
C 1.581139 -0.419323 1.41454 -0.821528 1.118034 -1.118034 
C 0.821528 -1.41454 0.419323 -1.581139 0 -1.581139 
C -0.419323 -1.581139 -0.821528 -1.41454 -1.118034 -1.118034 
C -1.41454 -0.821528 -1.581139 -0.419323 -1.581139 0 
C -1.581139 0.419323 -1.41454 0.821528 -1.118034 1.118034 
C -0.821528 1.41454 -0.419323 1.581139 0 1.581139 
z
" style="stroke: #e3b505"/>
    </defs>
    <g clip-path="url(#pd9520c5486)">
     <use xlink:href="#m659059acd7" x="70.434233" y="160.229865" style="fill: #e3b505; stroke: #e3b505"/>
     <use xlink:href="#m659059acd7" x="74.379688" y="155.017004" style="fill: #e3b505; stroke: #e3b505"/>
     <use xlink:href="#m659059acd7" x="78.325142" y="149.804143" style="fill: #e3b505; stroke: #e3b505"/>
     <use xlink:href="#m659059acd7" x="82.270597" y="153.467536" style="fill: #e3b505; stroke: #e3b505"/>
     <use xlink:href="#m659059acd7" x="86.216051" y="160.08968" style="fill: #e3b505; stroke: #e3b505"/>
     <use xlink:href="#m659059acd7" x="90.161506" y="164.94303" style="fill: #e3b505; stroke: #e3b505"/>
     <use xlink:href="#m659059acd7" x="94.10696" y="168.027585" style="fill: #e3b505; stroke: #e3b505"/>
     <use xlink:href="#m659059acd7" x="98.052415" y="170.341001" style="fill: #e3b505; stroke: #e3b505"/>
     <use xlink:href="#m659059acd7" x="101.997869" y="170.341001" style="fill: #e3b505; stroke: #e3b505"/>
     <use xlink:href="#m659059acd7" x="105.943324" y="170.341001" style="fill: #e3b505; stroke: #e3b505"/>
     <use xlink:href="#m659059acd7" x="105.943324" y="110.291214" style="fill: #e3b505; stroke: #e3b505"/>
     <use xlink:href="#m659059acd7" x="113.418922" y="77.396424" style="fill: #e3b505; stroke: #e3b505"/>
     <use xlink:href="#m659059acd7" x="120.89452" y="123.188761" style="fill: #e3b505; stroke: #e3b505"/>
     <use xlink:href="#m659059acd7" x="128.370118" y="74.111821" style="fill: #e3b505; stroke: #e3b505"/>
     <use xlink:href="#m659059acd7" x="135.845716" y="80.598527" style="fill: #e3b505; stroke: #e3b505"/>
     <use xlink:href="#m659059acd7" x="143.321314" y="46.286498" style="fill: #e3b505; stroke: #e3b505"/>
     <use xlink:href="#m659059acd7" x="150.796912" y="66.588243" style="fill: #e3b505; stroke: #e3b505"/>
     <use xlink:href="#m659059acd7" x="158.27251" y="49.470995" style="fill: #e3b505; stroke: #e3b505"/>
     <use xlink:href="#m659059acd7" x="165.748109" y="60.583097" style="fill: #e3b505; stroke: #e3b505"/>
     <use xlink:href="#m659059acd7" x="173.223707" y="47.225981" style="fill: #e3b505; stroke: #e3b505"/>
     <use xlink:href="#m659059acd7" x="180.699305" y="87.077756" style="fill: #e3b505; stroke: #e3b505"/>
     <use xlink:href="#m659059acd7" x="188.174903" y="89.05325" style="fill: #e3b505; stroke: #e3b505"/>
     <use xlink:href="#m659059acd7" x="195.650501" y="84.837505" style="fill: #e3b505; stroke: #e3b505"/>
     <use xlink:href="#m659059acd7" x="203.126099" y="87.708369" style="fill: #e3b505; stroke: #e3b505"/>
     <use xlink:href="#m659059acd7" x="210.601697" y="73.591458" style="fill: #e3b505; stroke: #e3b505"/>
     <use xlink:href="#m659059acd7" x="218.077295" y="75.910969" style="fill: #e3b505; stroke: #e3b505"/>
     <use xlink:href="#m659059acd7" x="225.552893" y="114.840488" style="fill: #e3b505; stroke: #e3b505"/>
     <use xlink:href="#m659059acd7" x="233.028491" y="72.615155" style="fill: #e3b505; stroke: #e3b505"/>
     <use xlink:href="#m659059acd7" x="240.504089" y="80.899718" style="fill: #e3b505; stroke: #e3b505"/>
     <use xlink:href="#m659059acd7" x="247.979688" y="108.074417" style="fill: #e3b505; stroke: #e3b505"/>
     <use xlink:href="#m659059acd7" x="247.979688" y="78.004565" style="fill: #e3b505; stroke: #e3b505"/>
     <use xlink:href="#m659059acd7" x="257.324185" y="128.067688" style="fill: #e3b505; stroke: #e3b505"/>
     <use xlink:href="#m659059acd7" x="266.668683" y="155.760998" style="fill: #e3b505; stroke: #e3b505"/>
     <use xlink:href="#m659059acd7" x="276.01318" y="152.381267" style="fill: #e3b505; stroke: #e3b505"/>
     <use xlink:href="#m659059acd7" x="285.357678" y="159.171925" style="fill: #e3b505; stroke: #e3b505"/>
     <use xlink:href="#m659059acd7" x="294.702176" y="162.748969" style="fill: #e3b505; stroke: #e3b505"/>
     <use xlink:href="#m659059acd7" x="304.046673" y="151.144958" style="fill: #e3b505; stroke: #e3b505"/>
     <use xlink:href="#m659059acd7" x="313.391171" y="164.46984" style="fill: #e3b505; stroke: #e3b505"/>
     <use xlink:href="#m659059acd7" x="322.735668" y="167.780085" style="fill: #e3b505; stroke: #e3b505"/>
     <use xlink:href="#m659059acd7" x="332.080166" y="144.654066" style="fill: #e3b505; stroke: #e3b505"/>
     <use xlink:href="#m659059acd7" x="341.424664" y="166.940851" style="fill: #e3b505; stroke: #e3b505"/>
     <use xlink:href="#m659059acd7" x="350.769161" y="166.915254" style="fill: #e3b505; stroke: #e3b505"/>
     <use xlink:href="#m659059acd7" x="360.113659" y="162.763879" style="fill: #e3b505; stroke: #e3b505"/>
     <use xlink:href="#m659059acd7" x="369.458156" y="127.152683" style="fill: #e3b505; stroke: #e3b505"/>
     <use xlink:href="#m659059acd7" x="378.802654" y="151.001434" style="fill: #e3b505; stroke: #e3b505"/>
     <use xlink:href="#m659059acd7" x="388.147152" y="136.380247" style="fill: #e3b505; stroke: #e3b505"/>
     <use xlink:href="#m659059acd7" x="397.491649" y="132.759711" style="fill: #e3b505; stroke: #e3b505"/>
     <use xlink:href="#m659059acd7" x="406.836147" y="149.696885" style="fill: #e3b505; stroke: #e3b505"/>
     <use xlink:href="#m659059acd7" x="416.180644" y="127.227847" style="fill: #e3b505; stroke: #e3b505"/>
     <use xlink:href="#m659059acd7" x="425.525142" y="121.903451" style="fill: #e3b505; stroke: #e3b505"/>
    </g>
   </g>
   <g id="PathCollection_3">
    <defs>
     <path id="m7cd1b76b52" d="M 0 1.581139 
C 0.419323 1.581139 0.821528 1.41454 1.118034 1.118034 
C 1.41454 0.821528 1.581139 0.419323 1.581139 0 
C 1.581139 -0.419323 1.41454 -0.821528 1.118034 -1.118034 
C 0.821528 -1.41454 0.419323 -1.581139 0 -1.581139 
C -0.419323 -1.581139 -0.821528 -1.41454 -1.118034 -1.118034 
C -1.41454 -0.821528 -1.581139 -0.419323 -1.581139 0 
C -1.581139 0.419323 -1.41454 0.821528 -1.118034 1.118034 
C -0.821528 1.41454 -0.419323 1.581139 0 1.581139 
z
" style="stroke: #4f6db8"/>
    </defs>
    <g clip-path="url(#pd9520c5486)">
     <use xlink:href="#m7cd1b76b52" x="70.434233" y="151.137915" style="fill: #4f6db8; stroke: #4f6db8"/>
     <use xlink:href="#m7cd1b76b52" x="74.379688" y="146.854347" style="fill: #4f6db8; stroke: #4f6db8"/>
     <use xlink:href="#m7cd1b76b52" x="78.325142" y="142.57078" style="fill: #4f6db8; stroke: #4f6db8"/>
     <use xlink:href="#m7cd1b76b52" x="82.270597" y="150.301358" style="fill: #4f6db8; stroke: #4f6db8"/>
     <use xlink:href="#m7cd1b76b52" x="86.216051" y="162.036651" style="fill: #4f6db8; stroke: #4f6db8"/>
     <use xlink:href="#m7cd1b76b52" x="90.161506" y="168.451718" style="fill: #4f6db8; stroke: #4f6db8"/>
     <use xlink:href="#m7cd1b76b52" x="94.10696" y="169.546557" style="fill: #4f6db8; stroke: #4f6db8"/>
     <use xlink:href="#m7cd1b76b52" x="98.052415" y="170.367686" style="fill: #4f6db8; stroke: #4f6db8"/>
     <use xlink:href="#m7cd1b76b52" x="101.997869" y="170.367686" style="fill: #4f6db8; stroke: #4f6db8"/>
     <use xlink:href="#m7cd1b76b52" x="105.943324" y="170.367686" style="fill: #4f6db8; stroke: #4f6db8"/>
     <use xlink:href="#m7cd1b76b52" x="105.943324" y="150.822363" style="fill: #4f6db8; stroke: #4f6db8"/>
     <use xlink:href="#m7cd1b76b52" x="113.418922" y="129.488306" style="fill: #4f6db8; stroke: #4f6db8"/>
     <use xlink:href="#m7cd1b76b52" x="120.89452" y="88.380271" style="fill: #4f6db8; stroke: #4f6db8"/>
     <use xlink:href="#m7cd1b76b52" x="128.370118" y="135.977184" style="fill: #4f6db8; stroke: #4f6db8"/>
     <use xlink:href="#m7cd1b76b52" x="135.845716" y="133.280412" style="fill: #4f6db8; stroke: #4f6db8"/>
     <use xlink:href="#m7cd1b76b52" x="143.321314" y="161.886071" style="fill: #4f6db8; stroke: #4f6db8"/>
     <use xlink:href="#m7cd1b76b52" x="150.796912" y="144.221683" style="fill: #4f6db8; stroke: #4f6db8"/>
     <use xlink:href="#m7cd1b76b52" x="158.27251" y="157.915796" style="fill: #4f6db8; stroke: #4f6db8"/>
     <use xlink:href="#m7cd1b76b52" x="165.748109" y="141.632291" style="fill: #4f6db8; stroke: #4f6db8"/>
     <use xlink:href="#m7cd1b76b52" x="173.223707" y="167.188819" style="fill: #4f6db8; stroke: #4f6db8"/>
     <use xlink:href="#m7cd1b76b52" x="180.699305" y="127.770459" style="fill: #4f6db8; stroke: #4f6db8"/>
     <use xlink:href="#m7cd1b76b52" x="188.174903" y="153.687395" style="fill: #4f6db8; stroke: #4f6db8"/>
     <use xlink:href="#m7cd1b76b52" x="195.650501" y="157.492545" style="fill: #4f6db8; stroke: #4f6db8"/>
     <use xlink:href="#m7cd1b76b52" x="203.126099" y="127.654355" style="fill: #4f6db8; stroke: #4f6db8"/>
     <use xlink:href="#m7cd1b76b52" x="210.601697" y="132.368591" style="fill: #4f6db8; stroke: #4f6db8"/>
     <use xlink:href="#m7cd1b76b52" x="218.077295" y="135.534823" style="fill: #4f6db8; stroke: #4f6db8"/>
     <use xlink:href="#m7cd1b76b52" x="225.552893" y="92.049555" style="fill: #4f6db8; stroke: #4f6db8"/>
     <use xlink:href="#m7cd1b76b52" x="233.028491" y="134.693034" style="fill: #4f6db8; stroke: #4f6db8"/>
     <use xlink:href="#m7cd1b76b52" x="240.504089" y="123.576382" style="fill: #4f6db8; stroke: #4f6db8"/>
     <use xlink:href="#m7cd1b76b52" x="247.979688" y="98.805842" style="fill: #4f6db8; stroke: #4f6db8"/>
     <use xlink:href="#m7cd1b76b52" x="247.979688" y="139.944272" style="fill: #4f6db8; stroke: #4f6db8"/>
     <use xlink:href="#m7cd1b76b52" x="257.324185" y="72.963079" style="fill: #4f6db8; stroke: #4f6db8"/>
     <use xlink:href="#m7cd1b76b52" x="266.668683" y="55.86538" style="fill: #4f6db8; stroke: #4f6db8"/>
     <use xlink:href="#m7cd1b76b52" x="276.01318" y="68.754623" style="fill: #4f6db8; stroke: #4f6db8"/>
     <use xlink:href="#m7cd1b76b52" x="285.357678" y="47.167714" style="fill: #4f6db8; stroke: #4f6db8"/>
     <use xlink:href="#m7cd1b76b52" x="294.702176" y="35.305744" style="fill: #4f6db8; stroke: #4f6db8"/>
     <use xlink:href="#m7cd1b76b52" x="304.046673" y="63.058217" style="fill: #4f6db8; stroke: #4f6db8"/>
     <use xlink:href="#m7cd1b76b52" x="313.391171" y="40.865739" style="fill: #4f6db8; stroke: #4f6db8"/>
     <use xlink:href="#m7cd1b76b52" x="322.735668" y="29.534788" style="fill: #4f6db8; stroke: #4f6db8"/>
     <use xlink:href="#m7cd1b76b52" x="332.080166" y="59.280793" style="fill: #4f6db8; stroke: #4f6db8"/>
     <use xlink:href="#m7cd1b76b52" x="341.424664" y="37.125491" style="fill: #4f6db8; stroke: #4f6db8"/>
     <use xlink:href="#m7cd1b76b52" x="350.769161" y="31.445049" style="fill: #4f6db8; stroke: #4f6db8"/>
     <use xlink:href="#m7cd1b76b52" x="360.113659" y="35.673629" style="fill: #4f6db8; stroke: #4f6db8"/>
     <use xlink:href="#m7cd1b76b52" x="369.458156" y="75.504805" style="fill: #4f6db8; stroke: #4f6db8"/>
     <use xlink:href="#m7cd1b76b52" x="378.802654" y="63.230342" style="fill: #4f6db8; stroke: #4f6db8"/>
     <use xlink:href="#m7cd1b76b52" x="388.147152" y="83.21152" style="fill: #4f6db8; stroke: #4f6db8"/>
     <use xlink:href="#m7cd1b76b52" x="397.491649" y="67.628505" style="fill: #4f6db8; stroke: #4f6db8"/>
     <use xlink:href="#m7cd1b76b52" x="406.836147" y="56.968984" style="fill: #4f6db8; stroke: #4f6db8"/>
     <use xlink:href="#m7cd1b76b52" x="416.180644" y="83.599191" style="fill: #4f6db8; stroke: #4f6db8"/>
     <use xlink:href="#m7cd1b76b52" x="425.525142" y="75.636489" style="fill: #4f6db8; stroke: #4f6db8"/>
    </g>
   </g>
   <g id="line2d_22">
    <path d="M 70.434233 19.198129 
L 105.943324 19.198129 
" style="fill: none; stroke: #2ca6a4; stroke-width: 5; stroke-linecap: square"/>
   </g>
   <g id="line2d_23">
    <path d="M 105.943324 19.198129 
L 247.979688 19.198129 
" style="fill: none; stroke: #e3b505; stroke-width: 5; stroke-linecap: square"/>
   </g>
   <g id="line2d_24">
    <path d="M 247.979688 19.198129 
L 425.525142 19.198129 
" style="fill: none; stroke: #4f6db8; stroke-width: 5; stroke-linecap: square"/>
   </g>
   <g id="patch_3">
    <path d="M 52.679688 170.398359 
L 52.679688 26.39814 
" style="fill: none; stroke: #000000; stroke-width: 1.2; stroke-linejoin: miter; stroke-linecap: square"/>
   </g>
   <g id="patch_4">
    <path d="M 70.434233 177.958129 
L 425.525142 177.958129 
" style="fill: none; stroke: #000000; stroke-width: 1.2; stroke-linejoin: miter; stroke-linecap: square"/>
   </g>
   <g id="text_12">
    <!-- 0 -->
    <g style="fill: #2ca6a4" transform="translate(84.371278 16.702504) scale(0.12 -0.12)">
     <use xlink:href="#DejaVuSans-30"/>
    </g>
   </g>
   <g id="text_13">
    <!-- 1 -->
    <g style="fill: #e3b505" transform="translate(173.144006 16.702504) scale(0.12 -0.12)">
     <use xlink:href="#DejaVuSans-31"/>
    </g>
   </g>
   <g id="text_14">
    <!-- 2 -->
    <g style="fill: #4f6db8" transform="translate(332.934915 16.702504) scale(0.12 -0.12)">
     <use xlink:href="#DejaVuSans-32"/>
    </g>
   </g>
   <g id="text_15">
    <!-- Algorithm -->
    <g transform="translate(17.170597 16.318125) scale(0.12 -0.12)">
     <defs>
      <path id="DejaVuSans-41" d="M 2188 4044 
L 1331 1722 
L 3047 1722 
L 2188 4044 
z
M 1831 4666 
L 2547 4666 
L 4325 0 
L 3669 0 
L 3244 1197 
L 1141 1197 
L 716 0 
L 50 0 
L 1831 4666 
z
" transform="scale(0.015625)"/>
      <path id="DejaVuSans-67" d="M 2906 1791 
Q 2906 2416 2648 2759 
Q 2391 3103 1925 3103 
Q 1463 3103 1205 2759 
Q 947 2416 947 1791 
Q 947 1169 1205 825 
Q 1463 481 1925 481 
Q 2391 481 2648 825 
Q 2906 1169 2906 1791 
z
M 3481 434 
Q 3481 -459 3084 -895 
Q 2688 -1331 1869 -1331 
Q 1566 -1331 1297 -1286 
Q 1028 -1241 775 -1147 
L 775 -588 
Q 1028 -725 1275 -790 
Q 1522 -856 1778 -856 
Q 2344 -856 2625 -561 
Q 2906 -266 2906 331 
L 2906 616 
Q 2728 306 2450 153 
Q 2172 0 1784 0 
Q 1141 0 747 490 
Q 353 981 353 1791 
Q 353 2603 747 3093 
Q 1141 3584 1784 3584 
Q 2172 3584 2450 3431 
Q 2728 3278 2906 2969 
L 2906 3500 
L 3481 3500 
L 3481 434 
z
" transform="scale(0.015625)"/>
      <path id="DejaVuSans-68" d="M 3513 2113 
L 3513 0 
L 2938 0 
L 2938 2094 
Q 2938 2591 2744 2837 
Q 2550 3084 2163 3084 
Q 1697 3084 1428 2787 
Q 1159 2491 1159 1978 
L 1159 0 
L 581 0 
L 581 4863 
L 1159 4863 
L 1159 2956 
Q 1366 3272 1645 3428 
Q 1925 3584 2291 3584 
Q 2894 3584 3203 3211 
Q 3513 2838 3513 2113 
z
" transform="scale(0.015625)"/>
      <path id="DejaVuSans-6d" d="M 3328 2828 
Q 3544 3216 3844 3400 
Q 4144 3584 4550 3584 
Q 5097 3584 5394 3201 
Q 5691 2819 5691 2113 
L 5691 0 
L 5113 0 
L 5113 2094 
Q 5113 2597 4934 2840 
Q 4756 3084 4391 3084 
Q 3944 3084 3684 2787 
Q 3425 2491 3425 1978 
L 3425 0 
L 2847 0 
L 2847 2094 
Q 2847 2600 2669 2842 
Q 2491 3084 2119 3084 
Q 1678 3084 1418 2786 
Q 1159 2488 1159 1978 
L 1159 0 
L 581 0 
L 581 3500 
L 1159 3500 
L 1159 2956 
Q 1356 3278 1631 3431 
Q 1906 3584 2284 3584 
Q 2666 3584 2933 3390 
Q 3200 3197 3328 2828 
z
" transform="scale(0.015625)"/>
     </defs>
     <use xlink:href="#DejaVuSans-41"/>
     <use xlink:href="#DejaVuSans-6c" transform="translate(68.408203 0)"/>
     <use xlink:href="#DejaVuSans-67" transform="translate(96.191406 0)"/>
     <use xlink:href="#DejaVuSans-6f" transform="translate(159.667969 0)"/>
     <use xlink:href="#DejaVuSans-72" transform="translate(220.849609 0)"/>
     <use xlink:href="#DejaVuSans-69" transform="translate(261.962891 0)"/>
     <use xlink:href="#DejaVuSans-74" transform="translate(289.746094 0)"/>
     <use xlink:href="#DejaVuSans-68" transform="translate(328.955078 0)"/>
     <use xlink:href="#DejaVuSans-6d" transform="translate(392.333984 0)"/>
    </g>
   </g>
  </g>
 </g>
 <defs>
  <clipPath id="pd9520c5486">
   <rect x="52.679688" y="11.638129" width="390.6" height="166.32"/>
  </clipPath>
 </defs>
</svg>
