<?xml version="1.0" encoding="UTF-8" standalone="no"?>
<!-- Created with Inkscape (http://www.inkscape.org/) -->

<svg
   width="24.769423mm"
   height="19.342926mm"
   viewBox="0 0 24.769423 19.342926"
   version="1.1"
   id="svg31069"
   inkscape:version="1.2.2 (b0a8486541, 2022-12-01)"
   sodipodi:docname="monkey.svg"
   xmlns:inkscape="http://www.inkscape.org/namespaces/inkscape"
   xmlns:sodipodi="http://sodipodi.sourceforge.net/DTD/sodipodi-0.dtd"
   xmlns="http://www.w3.org/2000/svg"
   xmlns:svg="http://www.w3.org/2000/svg">
  <sodipodi:namedview
     id="namedview31071"
     pagecolor="#ffffff"
     bordercolor="#000000"
     borderopacity="0.25"
     inkscape:showpageshadow="2"
     inkscape:pageopacity="0.0"
     inkscape:pagecheckerboard="0"
     inkscape:deskcolor="#d1d1d1"
     inkscape:document-units="mm"
     showgrid="false"
     inkscape:zoom="0.93806818"
     inkscape:cx="-22.919443"
     inkscape:cy="277.16535"
     inkscape:window-width="1233"
     inkscape:window-height="1379"
     inkscape:window-x="1323"
     inkscape:window-y="59"
     inkscape:window-maximized="1"
     inkscape:current-layer="layer1" />
  <defs
     id="defs31066" />
  <g
     inkscape:label="Layer 1"
     inkscape:groupmode="layer"
     id="layer1"
     transform="translate(-78.435801,-75.225973)">
    <path
       style="fill:#835c3b;fill-opacity:1;stroke:#835c3b;stroke-width:0.559;stroke-dasharray:none;stroke-opacity:1"
       d="m 90.102651,94.262016 c -2.354007,-0.182607 -4.418494,-1.16681 -6.090445,-2.903499 -1.165887,-1.211029 -1.929749,-2.603222 -2.33921,-4.263383 -0.154425,-0.626112 -0.162116,-0.641328 -0.358595,-0.709351 -1.209243,-0.41865 -2.152846,-1.429318 -2.48893,-2.66583 -0.135821,-0.499704 -0.137592,-1.421345 -0.0038,-1.923817 0.292396,-1.097286 1.027572,-1.985503 2.058882,-2.48747 0.698647,-0.340054 1.596049,-0.468161 2.312033,-0.330051 l 0.262699,0.05068 0.313056,-0.345939 c 0.790788,-0.873849 1.707932,-1.60102 2.626114,-2.082151 3.863021,-2.024241 8.51967,-1.191865 11.408367,2.039242 0.321425,0.359527 0.363686,0.387767 0.525755,0.351315 0.09692,-0.0218 0.492416,-0.03675 0.878861,-0.03323 0.789575,0.0072 1.273322,0.135753 1.888162,0.501797 0.41874,0.249291 1.04315,0.873711 1.29245,1.292454 0.66801,1.122065 0.71617,2.542559 0.12616,3.721364 -0.41004,0.81923 -1.1568,1.498511 -2.01406,1.832047 l -0.40717,0.158416 -0.156663,0.635186 c -0.288193,1.168447 -0.810202,2.308082 -1.511255,3.299317 -0.387023,0.54722 -1.356909,1.527625 -1.969584,1.990945 -1.820245,1.376508 -4.095885,2.047055 -6.35293,1.87197 z m 1.727295,-0.886646 c 1.726468,-0.496884 3.081086,-2.169591 3.548319,-4.381524 0.176037,-0.83339 0.188527,-2.125689 0.02844,-2.944215 l -0.112033,-0.572846 0.131038,-0.177238 c 0.543387,-0.734969 0.70782,-1.168965 0.70782,-1.868175 0,-1.138894 -0.670682,-2.121322 -1.700518,-2.490948 -1.070818,-0.384338 -2.143532,-0.116993 -2.940879,0.732933 -0.3814,0.40655 -0.389369,0.411311 -0.688478,0.411311 -0.294752,0 -0.31104,-0.0091 -0.627306,-0.351352 -0.609765,-0.659823 -1.222525,-0.9368 -2.072505,-0.9368 -1.058094,0 -1.925291,0.553059 -2.386,1.521681 -0.18433,0.387548 -0.211107,0.503134 -0.2306,0.99539 -0.03108,0.784734 0.113247,1.195615 0.697579,1.98596 l 0.131039,0.177238 -0.112033,0.572846 c -0.160401,0.820184 -0.147651,2.111565 0.02907,2.944215 0.674586,3.178453 3.12152,5.093988 5.597033,4.381524 z m -2.530279,-1.828319 c -0.378795,-0.12344 -0.746542,-0.360761 -0.977946,-0.631105 -0.241836,-0.28253 -0.256722,-0.382911 -0.0885,-0.596777 0.174617,-0.221989 0.360566,-0.197866 0.651556,0.08453 0.301812,0.292898 0.513455,0.406567 0.775335,0.416412 0.286386,0.01077 0.467046,-0.13365 0.652139,-0.521309 0.211716,-0.443421 0.302704,-0.543775 0.493023,-0.543775 0.190079,0 0.305787,0.118726 0.456511,0.468418 0.16223,0.376388 0.390994,0.585524 0.640482,0.585524 0.27555,0 0.579251,-0.154003 0.830672,-0.421223 0.255903,-0.271985 0.466739,-0.294422 0.644389,-0.06857 0.06675,0.08486 0.121354,0.199711 0.121354,0.255243 0,0.185878 -0.460303,0.633089 -0.848148,0.824025 -0.634773,0.312497 -1.185541,0.247727 -1.651419,-0.194208 l -0.18675,-0.177151 -0.185415,0.185417 c -0.364296,0.364293 -0.855834,0.488191 -1.327289,0.334555 z m 0.523252,-4.04961 c -0.164057,-0.114911 -0.17689,-0.433912 -0.02306,-0.57313 0.142124,-0.128619 0.436457,-0.123244 0.5572,0.01021 0.142098,0.157018 0.124665,0.452361 -0.03323,0.562955 -0.07157,0.05013 -0.184278,0.09115 -0.250457,0.09115 -0.06618,0 -0.178885,-0.04102 -0.250457,-0.09115 z m 1.463808,0 c -0.164057,-0.114911 -0.176889,-0.433912 -0.02306,-0.57313 0.142123,-0.128619 0.436459,-0.123244 0.5572,0.01021 0.142099,0.157018 0.124665,0.452361 -0.03323,0.562955 -0.07158,0.05013 -0.184279,0.09115 -0.250456,0.09115 -0.06618,0 -0.178885,-0.04102 -0.250457,-0.09115 z m -4.100579,-3.540599 c -0.381112,-0.232358 -0.452792,-0.749374 -0.153249,-1.105361 0.470862,-0.559587 1.313182,-0.222628 1.313182,0.52532 0,0.20537 -0.036,0.279998 -0.22732,0.471326 -0.194792,0.194791 -0.263919,0.22729 -0.483057,0.227101 -0.153108,-1.16e-4 -0.333517,-0.04763 -0.449556,-0.118386 z m 6.305651,-0.108721 c -0.191328,-0.191327 -0.227321,-0.265955 -0.227321,-0.471326 0,-0.747949 0.842321,-1.084907 1.313183,-0.52532 0.431054,0.512281 0.08088,1.223163 -0.602805,1.223748 -0.219139,1.75e-4 -0.288266,-0.03231 -0.483057,-0.227102 z m -6.414752,8.643542 c -0.807855,-0.876421 -1.475193,-2.372762 -1.69052,-3.790585 -0.110285,-0.726186 -0.10821,-1.901887 0.0045,-2.548252 0.08573,-0.491629 0.08479,-0.519665 -0.02136,-0.637107 -0.17839,-0.197372 -0.400823,-0.620653 -0.541479,-1.03041 -0.19471,-0.567216 -0.193336,-1.5083 0.0031,-2.107038 0.785607,-2.394865 3.79051,-3.180199 5.635277,-1.472785 l 0.339162,0.31391 0.377663,-0.353287 c 0.615865,-0.576111 1.532378,-0.94585 2.344583,-0.94585 0.790146,0 1.721842,0.367786 2.30916,0.911538 1.314694,1.217176 1.509658,3.149928 0.465996,4.619626 l -0.166316,0.234209 0.08415,0.468419 c 0.109559,0.609796 0.110569,1.908756 0.002,2.57805 -0.231669,1.428338 -0.890547,2.891565 -1.696643,3.767885 -0.212877,0.231423 -0.222184,0.253324 -0.0908,0.213705 0.533981,-0.161033 1.736164,-1.005124 2.461717,-1.728449 1.200137,-1.196453 2.00195,-2.677959 2.377046,-4.392049 0.156149,-0.713561 0.156149,-2.682475 0,-3.396036 -0.802635,-3.667859 -3.694736,-6.369849 -7.337808,-6.855463 -0.726331,-0.09682 -2.301552,-0.03577 -2.953906,0.114485 -3.470706,0.799391 -6.075804,3.520274 -6.669919,6.966368 -0.222537,1.290795 -0.117077,2.895461 0.268023,4.078208 0.223596,0.686727 0.728014,1.706652 1.15037,2.326031 0.451114,0.661555 1.436375,1.659133 2.068806,2.094671 0.448097,0.308591 1.348365,0.814447 1.455831,0.818024 0.02825,9.17e-4 -0.05213,-0.110581 -0.178633,-0.247818 z m -5.689969,-7.365494 c -0.06946,-1.529365 0.431268,-3.494319 1.248782,-4.900544 l 0.314868,-0.541609 h -0.402716 c -0.902948,0 -1.572926,0.274887 -2.198813,0.902159 -0.622229,0.623605 -0.901029,1.286294 -0.902381,2.1449 -0.0013,0.852276 0.308727,1.598428 0.91147,2.193376 0.290543,0.286785 0.874777,0.673353 1.017666,0.673353 0.01789,0 0.02291,-0.212236 0.01111,-0.471635 z m 19.449912,0.134889 c 0.84341,-0.556684 1.3284,-1.481509 1.32675,-2.529983 -0.001,-0.858606 -0.28015,-1.521295 -0.90238,-2.1449 -0.62589,-0.627272 -1.295866,-0.902159 -2.198813,-0.902159 h -0.402715 l 0.314866,0.541609 c 0.817386,1.406001 1.318232,3.371193 1.248812,4.899974 -0.0253,0.558091 -0.0265,0.557846 0.61348,0.135459 z"
       id="path836"
       inkscape:export-filename="monkey-algorithms-cartoon-truncated.svg"
       inkscape:export-xdpi="96"
       inkscape:export-ydpi="96" />
  </g>
</svg>
