<?xml version="1.0" encoding="utf-8" standalone="no"?>
<!DOCTYPE svg PUBLIC "-//W3C//DTD SVG 1.1//EN"
  "http://www.w3.org/Graphics/SVG/1.1/DTD/svg11.dtd">
<svg xmlns:xlink="http://www.w3.org/1999/xlink" width="396.796502pt" height="130.951345pt" viewBox="0 0 396.796502 130.951345" xmlns="http://www.w3.org/2000/svg" version="1.1">
 <metadata>
  <rdf:RDF xmlns:dc="http://purl.org/dc/elements/1.1/" xmlns:cc="http://creativecommons.org/ns#" xmlns:rdf="http://www.w3.org/1999/02/22-rdf-syntax-ns#">
   <cc:Work>
    <dc:type rdf:resource="http://purl.org/dc/dcmitype/StillImage"/>
    <dc:date>2025-10-17T16:06:46.688247</dc:date>
    <dc:format>image/svg+xml</dc:format>
    <dc:creator>
     <cc:Agent>
      <dc:title>Matplotlib v3.10.6, https://matplotlib.org/</dc:title>
     </cc:Agent>
    </dc:creator>
   </cc:Work>
  </rdf:RDF>
 </metadata>
 <defs>
  <style type="text/css">*{stroke-linejoin: round; stroke-linecap: butt}</style>
 </defs>
 <g id="figure_1">
  <g id="patch_1">
   <path d="M -0 130.951345 
L 396.796502 130.951345 
L 396.796502 -0 
L -0 -0 
L -0 130.951345 
z
" style="fill: none"/>
  </g>
  <g id="axes_1">
   <g id="patch_2">
    <path d="M 52.116031 93.895095 
L 150.586619 93.895095 
L 150.586619 10.735095 
L 52.116031 10.735095 
L 52.116031 93.895095 
z
" style="fill: none"/>
   </g>
   <g id="matplotlib.axis_1">
    <g id="xtick_1">
     <g id="line2d_1">
      <defs>
       <path id="mc81a2c76b4" d="M 0 0 
L 0 3 
" style="stroke: #000000; stroke-width: 1.4"/>
      </defs>
      <g>
       <use xlink:href="#mc81a2c76b4" x="56.591967" y="93.895095" style="stroke: #000000; stroke-width: 1.4"/>
      </g>
     </g>
     <g id="text_1">
      <!-- 0.0 -->
      <g transform="translate(49.435561 107.233689) scale(0.09 -0.09)">
       <defs>
        <path id="DejaVuSans-30" d="M 2034 4250 
Q 1547 4250 1301 3770 
Q 1056 3291 1056 2328 
Q 1056 1369 1301 889 
Q 1547 409 2034 409 
Q 2525 409 2770 889 
Q 3016 1369 3016 2328 
Q 3016 3291 2770 3770 
Q 2525 4250 2034 4250 
z
M 2034 4750 
Q 2819 4750 3233 4129 
Q 3647 3509 3647 2328 
Q 3647 1150 3233 529 
Q 2819 -91 2034 -91 
Q 1250 -91 836 529 
Q 422 1150 422 2328 
Q 422 3509 836 4129 
Q 1250 4750 2034 4750 
z
" transform="scale(0.015625)"/>
        <path id="DejaVuSans-2e" d="M 684 794 
L 1344 794 
L 1344 0 
L 684 0 
L 684 794 
z
" transform="scale(0.015625)"/>
       </defs>
       <use xlink:href="#DejaVuSans-30"/>
       <use xlink:href="#DejaVuSans-2e" transform="translate(63.623047 0)"/>
       <use xlink:href="#DejaVuSans-30" transform="translate(95.410156 0)"/>
      </g>
     </g>
    </g>
    <g id="xtick_2">
     <g id="line2d_2">
      <g>
       <use xlink:href="#mc81a2c76b4" x="101.351325" y="93.895095" style="stroke: #000000; stroke-width: 1.4"/>
      </g>
     </g>
     <g id="text_2">
      <!-- 0.5 -->
      <g transform="translate(94.194919 107.233689) scale(0.09 -0.09)">
       <defs>
        <path id="DejaVuSans-35" d="M 691 4666 
L 3169 4666 
L 3169 4134 
L 1269 4134 
L 1269 2991 
Q 1406 3038 1543 3061 
Q 1681 3084 1819 3084 
Q 2600 3084 3056 2656 
Q 3513 2228 3513 1497 
Q 3513 744 3044 326 
Q 2575 -91 1722 -91 
Q 1428 -91 1123 -41 
Q 819 9 494 109 
L 494 744 
Q 775 591 1075 516 
Q 1375 441 1709 441 
Q 2250 441 2565 725 
Q 2881 1009 2881 1497 
Q 2881 1984 2565 2268 
Q 2250 2553 1709 2553 
Q 1456 2553 1204 2497 
Q 953 2441 691 2322 
L 691 4666 
z
" transform="scale(0.015625)"/>
       </defs>
       <use xlink:href="#DejaVuSans-30"/>
       <use xlink:href="#DejaVuSans-2e" transform="translate(63.623047 0)"/>
       <use xlink:href="#DejaVuSans-35" transform="translate(95.410156 0)"/>
      </g>
     </g>
    </g>
    <g id="xtick_3">
     <g id="line2d_3">
      <g>
       <use xlink:href="#mc81a2c76b4" x="146.110684" y="93.895095" style="stroke: #000000; stroke-width: 1.4"/>
      </g>
     </g>
     <g id="text_3">
      <!-- 1.0 -->
      <g transform="translate(138.954277 107.233689) scale(0.09 -0.09)">
       <defs>
        <path id="DejaVuSans-31" d="M 794 531 
L 1825 531 
L 1825 4091 
L 703 3866 
L 703 4441 
L 1819 4666 
L 2450 4666 
L 2450 531 
L 3481 531 
L 3481 0 
L 794 0 
L 794 531 
z
" transform="scale(0.015625)"/>
       </defs>
       <use xlink:href="#DejaVuSans-31"/>
       <use xlink:href="#DejaVuSans-2e" transform="translate(63.623047 0)"/>
       <use xlink:href="#DejaVuSans-30" transform="translate(95.410156 0)"/>
      </g>
     </g>
    </g>
    <g id="text_4">
     <!-- P(choose right) -->
     <g transform="translate(59.583122 121.463689) scale(0.11 -0.11)">
      <defs>
       <path id="DejaVuSans-50" d="M 1259 4147 
L 1259 2394 
L 2053 2394 
Q 2494 2394 2734 2622 
Q 2975 2850 2975 3272 
Q 2975 3691 2734 3919 
Q 2494 4147 2053 4147 
L 1259 4147 
z
M 628 4666 
L 2053 4666 
Q 2838 4666 3239 4311 
Q 3641 3956 3641 3272 
Q 3641 2581 3239 2228 
Q 2838 1875 2053 1875 
L 1259 1875 
L 1259 0 
L 628 0 
L 628 4666 
z
" transform="scale(0.015625)"/>
       <path id="DejaVuSans-28" d="M 1984 4856 
Q 1566 4138 1362 3434 
Q 1159 2731 1159 2009 
Q 1159 1288 1364 580 
Q 1569 -128 1984 -844 
L 1484 -844 
Q 1016 -109 783 600 
Q 550 1309 550 2009 
Q 550 2706 781 3412 
Q 1013 4119 1484 4856 
L 1984 4856 
z
" transform="scale(0.015625)"/>
       <path id="DejaVuSans-63" d="M 3122 3366 
L 3122 2828 
Q 2878 2963 2633 3030 
Q 2388 3097 2138 3097 
Q 1578 3097 1268 2742 
Q 959 2388 959 1747 
Q 959 1106 1268 751 
Q 1578 397 2138 397 
Q 2388 397 2633 464 
Q 2878 531 3122 666 
L 3122 134 
Q 2881 22 2623 -34 
Q 2366 -91 2075 -91 
Q 1284 -91 818 406 
Q 353 903 353 1747 
Q 353 2603 823 3093 
Q 1294 3584 2113 3584 
Q 2378 3584 2631 3529 
Q 2884 3475 3122 3366 
z
" transform="scale(0.015625)"/>
       <path id="DejaVuSans-68" d="M 3513 2113 
L 3513 0 
L 2938 0 
L 2938 2094 
Q 2938 2591 2744 2837 
Q 2550 3084 2163 3084 
Q 1697 3084 1428 2787 
Q 1159 2491 1159 1978 
L 1159 0 
L 581 0 
L 581 4863 
L 1159 4863 
L 1159 2956 
Q 1366 3272 1645 3428 
Q 1925 3584 2291 3584 
Q 2894 3584 3203 3211 
Q 3513 2838 3513 2113 
z
" transform="scale(0.015625)"/>
       <path id="DejaVuSans-6f" d="M 1959 3097 
Q 1497 3097 1228 2736 
Q 959 2375 959 1747 
Q 959 1119 1226 758 
Q 1494 397 1959 397 
Q 2419 397 2687 759 
Q 2956 1122 2956 1747 
Q 2956 2369 2687 2733 
Q 2419 3097 1959 3097 
z
M 1959 3584 
Q 2709 3584 3137 3096 
Q 3566 2609 3566 1747 
Q 3566 888 3137 398 
Q 2709 -91 1959 -91 
Q 1206 -91 779 398 
Q 353 888 353 1747 
Q 353 2609 779 3096 
Q 1206 3584 1959 3584 
z
" transform="scale(0.015625)"/>
       <path id="DejaVuSans-73" d="M 2834 3397 
L 2834 2853 
Q 2591 2978 2328 3040 
Q 2066 3103 1784 3103 
Q 1356 3103 1142 2972 
Q 928 2841 928 2578 
Q 928 2378 1081 2264 
Q 1234 2150 1697 2047 
L 1894 2003 
Q 2506 1872 2764 1633 
Q 3022 1394 3022 966 
Q 3022 478 2636 193 
Q 2250 -91 1575 -91 
Q 1294 -91 989 -36 
Q 684 19 347 128 
L 347 722 
Q 666 556 975 473 
Q 1284 391 1588 391 
Q 1994 391 2212 530 
Q 2431 669 2431 922 
Q 2431 1156 2273 1281 
Q 2116 1406 1581 1522 
L 1381 1569 
Q 847 1681 609 1914 
Q 372 2147 372 2553 
Q 372 3047 722 3315 
Q 1072 3584 1716 3584 
Q 2034 3584 2315 3537 
Q 2597 3491 2834 3397 
z
" transform="scale(0.015625)"/>
       <path id="DejaVuSans-65" d="M 3597 1894 
L 3597 1613 
L 953 1613 
Q 991 1019 1311 708 
Q 1631 397 2203 397 
Q 2534 397 2845 478 
Q 3156 559 3463 722 
L 3463 178 
Q 3153 47 2828 -22 
Q 2503 -91 2169 -91 
Q 1331 -91 842 396 
Q 353 884 353 1716 
Q 353 2575 817 3079 
Q 1281 3584 2069 3584 
Q 2775 3584 3186 3129 
Q 3597 2675 3597 1894 
z
M 3022 2063 
Q 3016 2534 2758 2815 
Q 2500 3097 2075 3097 
Q 1594 3097 1305 2825 
Q 1016 2553 972 2059 
L 3022 2063 
z
" transform="scale(0.015625)"/>
       <path id="DejaVuSans-20" transform="scale(0.015625)"/>
       <path id="DejaVuSans-72" d="M 2631 2963 
Q 2534 3019 2420 3045 
Q 2306 3072 2169 3072 
Q 1681 3072 1420 2755 
Q 1159 2438 1159 1844 
L 1159 0 
L 581 0 
L 581 3500 
L 1159 3500 
L 1159 2956 
Q 1341 3275 1631 3429 
Q 1922 3584 2338 3584 
Q 2397 3584 2469 3576 
Q 2541 3569 2628 3553 
L 2631 2963 
z
" transform="scale(0.015625)"/>
       <path id="DejaVuSans-69" d="M 603 3500 
L 1178 3500 
L 1178 0 
L 603 0 
L 603 3500 
z
M 603 4863 
L 1178 4863 
L 1178 4134 
L 603 4134 
L 603 4863 
z
" transform="scale(0.015625)"/>
       <path id="DejaVuSans-67" d="M 2906 1791 
Q 2906 2416 2648 2759 
Q 2391 3103 1925 3103 
Q 1463 3103 1205 2759 
Q 947 2416 947 1791 
Q 947 1169 1205 825 
Q 1463 481 1925 481 
Q 2391 481 2648 825 
Q 2906 1169 2906 1791 
z
M 3481 434 
Q 3481 -459 3084 -895 
Q 2688 -1331 1869 -1331 
Q 1566 -1331 1297 -1286 
Q 1028 -1241 775 -1147 
L 775 -588 
Q 1028 -725 1275 -790 
Q 1522 -856 1778 -856 
Q 2344 -856 2625 -561 
Q 2906 -266 2906 331 
L 2906 616 
Q 2728 306 2450 153 
Q 2172 0 1784 0 
Q 1141 0 747 490 
Q 353 981 353 1791 
Q 353 2603 747 3093 
Q 1141 3584 1784 3584 
Q 2172 3584 2450 3431 
Q 2728 3278 2906 2969 
L 2906 3500 
L 3481 3500 
L 3481 434 
z
" transform="scale(0.015625)"/>
       <path id="DejaVuSans-74" d="M 1172 4494 
L 1172 3500 
L 2356 3500 
L 2356 3053 
L 1172 3053 
L 1172 1153 
Q 1172 725 1289 603 
Q 1406 481 1766 481 
L 2356 481 
L 2356 0 
L 1766 0 
Q 1100 0 847 248 
Q 594 497 594 1153 
L 594 3053 
L 172 3053 
L 172 3500 
L 594 3500 
L 594 4494 
L 1172 4494 
z
" transform="scale(0.015625)"/>
       <path id="DejaVuSans-29" d="M 513 4856 
L 1013 4856 
Q 1481 4119 1714 3412 
Q 1947 2706 1947 2009 
Q 1947 1309 1714 600 
Q 1481 -109 1013 -844 
L 513 -844 
Q 928 -128 1133 580 
Q 1338 1288 1338 2009 
Q 1338 2731 1133 3434 
Q 928 4138 513 4856 
z
" transform="scale(0.015625)"/>
      </defs>
      <use xlink:href="#DejaVuSans-50"/>
      <use xlink:href="#DejaVuSans-28" transform="translate(60.302734 0)"/>
      <use xlink:href="#DejaVuSans-63" transform="translate(99.316406 0)"/>
      <use xlink:href="#DejaVuSans-68" transform="translate(154.296875 0)"/>
      <use xlink:href="#DejaVuSans-6f" transform="translate(217.675781 0)"/>
      <use xlink:href="#DejaVuSans-6f" transform="translate(278.857422 0)"/>
      <use xlink:href="#DejaVuSans-73" transform="translate(340.039062 0)"/>
      <use xlink:href="#DejaVuSans-65" transform="translate(392.138672 0)"/>
      <use xlink:href="#DejaVuSans-20" transform="translate(453.662109 0)"/>
      <use xlink:href="#DejaVuSans-72" transform="translate(485.449219 0)"/>
      <use xlink:href="#DejaVuSans-69" transform="translate(526.5625 0)"/>
      <use xlink:href="#DejaVuSans-67" transform="translate(554.345703 0)"/>
      <use xlink:href="#DejaVuSans-68" transform="translate(617.822266 0)"/>
      <use xlink:href="#DejaVuSans-74" transform="translate(681.201172 0)"/>
      <use xlink:href="#DejaVuSans-29" transform="translate(720.410156 0)"/>
     </g>
    </g>
   </g>
   <g id="matplotlib.axis_2">
    <g id="ytick_1">
     <g id="line2d_4">
      <defs>
       <path id="me4278a5ef4" d="M 0 0 
L -3 0 
" style="stroke: #000000; stroke-width: 1.4"/>
      </defs>
      <g>
       <use xlink:href="#me4278a5ef4" x="52.116031" y="90.169907" style="stroke: #000000; stroke-width: 1.4"/>
      </g>
     </g>
     <g id="text_5">
      <!-- 0 -->
      <g transform="translate(39.889781 93.589204) scale(0.09 -0.09)">
       <use xlink:href="#DejaVuSans-30"/>
      </g>
     </g>
    </g>
    <g id="ytick_2">
     <g id="line2d_5">
      <g>
       <use xlink:href="#me4278a5ef4" x="52.116031" y="50.452501" style="stroke: #000000; stroke-width: 1.4"/>
      </g>
     </g>
     <g id="text_6">
      <!-- 5 -->
      <g transform="translate(39.889781 53.871798) scale(0.09 -0.09)">
       <use xlink:href="#DejaVuSans-35"/>
      </g>
     </g>
    </g>
    <g id="ytick_3">
     <g id="line2d_6">
      <g>
       <use xlink:href="#me4278a5ef4" x="52.116031" y="10.735095" style="stroke: #000000; stroke-width: 1.4"/>
      </g>
     </g>
     <g id="text_7">
      <!-- 10 -->
      <g transform="translate(34.163531 14.154392) scale(0.09 -0.09)">
       <use xlink:href="#DejaVuSans-31"/>
       <use xlink:href="#DejaVuSans-30" transform="translate(63.623047 0)"/>
      </g>
     </g>
    </g>
    <g id="text_8">
     <!-- Kernel density  -->
     <g transform="translate(15.558281 93.25572) rotate(-90) scale(0.11 -0.11)">
      <defs>
       <path id="DejaVuSans-4b" d="M 628 4666 
L 1259 4666 
L 1259 2694 
L 3353 4666 
L 4166 4666 
L 1850 2491 
L 4331 0 
L 3500 0 
L 1259 2247 
L 1259 0 
L 628 0 
L 628 4666 
z
" transform="scale(0.015625)"/>
       <path id="DejaVuSans-6e" d="M 3513 2113 
L 3513 0 
L 2938 0 
L 2938 2094 
Q 2938 2591 2744 2837 
Q 2550 3084 2163 3084 
Q 1697 3084 1428 2787 
Q 1159 2491 1159 1978 
L 1159 0 
L 581 0 
L 581 3500 
L 1159 3500 
L 1159 2956 
Q 1366 3272 1645 3428 
Q 1925 3584 2291 3584 
Q 2894 3584 3203 3211 
Q 3513 2838 3513 2113 
z
" transform="scale(0.015625)"/>
       <path id="DejaVuSans-6c" d="M 603 4863 
L 1178 4863 
L 1178 0 
L 603 0 
L 603 4863 
z
" transform="scale(0.015625)"/>
       <path id="DejaVuSans-64" d="M 2906 2969 
L 2906 4863 
L 3481 4863 
L 3481 0 
L 2906 0 
L 2906 525 
Q 2725 213 2448 61 
Q 2172 -91 1784 -91 
Q 1150 -91 751 415 
Q 353 922 353 1747 
Q 353 2572 751 3078 
Q 1150 3584 1784 3584 
Q 2172 3584 2448 3432 
Q 2725 3281 2906 2969 
z
M 947 1747 
Q 947 1113 1208 752 
Q 1469 391 1925 391 
Q 2381 391 2643 752 
Q 2906 1113 2906 1747 
Q 2906 2381 2643 2742 
Q 2381 3103 1925 3103 
Q 1469 3103 1208 2742 
Q 947 2381 947 1747 
z
" transform="scale(0.015625)"/>
       <path id="DejaVuSans-79" d="M 2059 -325 
Q 1816 -950 1584 -1140 
Q 1353 -1331 966 -1331 
L 506 -1331 
L 506 -850 
L 844 -850 
Q 1081 -850 1212 -737 
Q 1344 -625 1503 -206 
L 1606 56 
L 191 3500 
L 800 3500 
L 1894 763 
L 2988 3500 
L 3597 3500 
L 2059 -325 
z
" transform="scale(0.015625)"/>
      </defs>
      <use xlink:href="#DejaVuSans-4b"/>
      <use xlink:href="#DejaVuSans-65" transform="translate(60.576172 0)"/>
      <use xlink:href="#DejaVuSans-72" transform="translate(122.099609 0)"/>
      <use xlink:href="#DejaVuSans-6e" transform="translate(161.462891 0)"/>
      <use xlink:href="#DejaVuSans-65" transform="translate(224.841797 0)"/>
      <use xlink:href="#DejaVuSans-6c" transform="translate(286.365234 0)"/>
      <use xlink:href="#DejaVuSans-20" transform="translate(314.148438 0)"/>
      <use xlink:href="#DejaVuSans-64" transform="translate(345.935547 0)"/>
      <use xlink:href="#DejaVuSans-65" transform="translate(409.412109 0)"/>
      <use xlink:href="#DejaVuSans-6e" transform="translate(470.935547 0)"/>
      <use xlink:href="#DejaVuSans-73" transform="translate(534.314453 0)"/>
      <use xlink:href="#DejaVuSans-69" transform="translate(586.414062 0)"/>
      <use xlink:href="#DejaVuSans-74" transform="translate(614.197266 0)"/>
      <use xlink:href="#DejaVuSans-79" transform="translate(653.40625 0)"/>
      <use xlink:href="#DejaVuSans-20" transform="translate(712.585938 0)"/>
     </g>
     <!--  estimate -->
     <g transform="translate(27.875875 78.264782) rotate(-90) scale(0.11 -0.11)">
      <defs>
       <path id="DejaVuSans-6d" d="M 3328 2828 
Q 3544 3216 3844 3400 
Q 4144 3584 4550 3584 
Q 5097 3584 5394 3201 
Q 5691 2819 5691 2113 
L 5691 0 
L 5113 0 
L 5113 2094 
Q 5113 2597 4934 2840 
Q 4756 3084 4391 3084 
Q 3944 3084 3684 2787 
Q 3425 2491 3425 1978 
L 3425 0 
L 2847 0 
L 2847 2094 
Q 2847 2600 2669 2842 
Q 2491 3084 2119 3084 
Q 1678 3084 1418 2786 
Q 1159 2488 1159 1978 
L 1159 0 
L 581 0 
L 581 3500 
L 1159 3500 
L 1159 2956 
Q 1356 3278 1631 3431 
Q 1906 3584 2284 3584 
Q 2666 3584 2933 3390 
Q 3200 3197 3328 2828 
z
" transform="scale(0.015625)"/>
       <path id="DejaVuSans-61" d="M 2194 1759 
Q 1497 1759 1228 1600 
Q 959 1441 959 1056 
Q 959 750 1161 570 
Q 1363 391 1709 391 
Q 2188 391 2477 730 
Q 2766 1069 2766 1631 
L 2766 1759 
L 2194 1759 
z
M 3341 1997 
L 3341 0 
L 2766 0 
L 2766 531 
Q 2569 213 2275 61 
Q 1981 -91 1556 -91 
Q 1019 -91 701 211 
Q 384 513 384 1019 
Q 384 1609 779 1909 
Q 1175 2209 1959 2209 
L 2766 2209 
L 2766 2266 
Q 2766 2663 2505 2880 
Q 2244 3097 1772 3097 
Q 1472 3097 1187 3025 
Q 903 2953 641 2809 
L 641 3341 
Q 956 3463 1253 3523 
Q 1550 3584 1831 3584 
Q 2591 3584 2966 3190 
Q 3341 2797 3341 1997 
z
" transform="scale(0.015625)"/>
      </defs>
      <use xlink:href="#DejaVuSans-20"/>
      <use xlink:href="#DejaVuSans-65" transform="translate(31.787109 0)"/>
      <use xlink:href="#DejaVuSans-73" transform="translate(93.310547 0)"/>
      <use xlink:href="#DejaVuSans-74" transform="translate(145.410156 0)"/>
      <use xlink:href="#DejaVuSans-69" transform="translate(184.619141 0)"/>
      <use xlink:href="#DejaVuSans-6d" transform="translate(212.402344 0)"/>
      <use xlink:href="#DejaVuSans-61" transform="translate(309.814453 0)"/>
      <use xlink:href="#DejaVuSans-74" transform="translate(371.09375 0)"/>
      <use xlink:href="#DejaVuSans-65" transform="translate(410.302734 0)"/>
     </g>
    </g>
   </g>
   <g id="line2d_7">
    <path d="M 56.591967 89.781328 
L 58.41888 89.298942 
L 60.245792 88.462942 
L 62.072705 87.237937 
L 63.899617 85.734668 
L 65.72653 84.202308 
L 67.553443 82.89123 
L 69.380355 81.860306 
L 71.207268 80.910707 
L 73.03418 79.768798 
L 74.861093 78.410563 
L 76.688005 77.235009 
L 78.514918 76.880521 
L 80.341831 77.794545 
L 82.168743 79.904901 
L 83.995656 82.653271 
L 85.822568 85.331958 
L 87.649481 87.438631 
L 89.476394 88.818797 
L 91.303306 89.584577 
L 93.130219 89.947888 
L 94.957131 90.096067 
L 96.784044 90.147531 
L 98.610956 90.156402 
L 100.437869 90.097186 
L 102.264782 89.694047 
L 104.091694 88.087133 
L 105.918607 84.105421 
L 107.745519 77.726731 
L 109.572432 71.087389 
L 111.399345 67.210402 
L 113.226257 66.995859 
L 115.05317 68.668782 
L 116.880082 70.599663 
L 118.706995 71.867443 
L 120.533907 72.242519 
L 122.36082 73.173764 
L 124.187733 75.603748 
L 126.014645 78.606576 
L 127.841558 81.153733 
L 129.66847 82.99126 
L 131.495383 84.251576 
L 133.322296 85.353676 
L 135.149208 86.574334 
L 136.976121 87.560328 
L 138.803033 87.939114 
L 140.629946 87.799355 
L 142.456858 87.441678 
L 144.283771 87.176697 
L 146.110684 87.23961 
" clip-path="url(#p7b99756ae9)" style="fill: none; stroke: #2ca6a4; stroke-width: 2; stroke-linecap: square"/>
   </g>
   <g id="line2d_8">
    <path d="M 56.591967 90.169907 
L 58.41888 90.169907 
L 60.245792 90.169907 
L 62.072705 90.169907 
L 63.899617 90.169907 
L 65.72653 90.169907 
L 67.553443 90.169907 
L 69.380355 90.169907 
L 71.207268 90.169907 
L 73.03418 90.169907 
L 74.861093 90.169907 
L 76.688005 90.169906 
L 78.514918 90.169877 
L 80.341831 90.169143 
L 82.168743 90.144252 
L 83.995656 89.811133 
L 85.822568 88.750169 
L 87.649481 87.974286 
L 89.476394 85.795805 
L 91.303306 80.788118 
L 93.130219 73.904951 
L 94.957131 59.601486 
L 96.784044 44.935965 
L 98.610956 30.930239 
L 100.437869 24.81001 
L 102.264782 36.725334 
L 104.091694 52.947673 
L 105.918607 67.137942 
L 107.745519 76.571232 
L 109.572432 82.742946 
L 111.399345 86.218058 
L 113.226257 87.595617 
L 115.05317 87.852468 
L 116.880082 87.465753 
L 118.706995 87.47615 
L 120.533907 88.303882 
L 122.36082 88.914158 
L 124.187733 89.157228 
L 126.014645 89.349023 
L 127.841558 89.632669 
L 129.66847 89.919503 
L 131.495383 90.090796 
L 133.322296 90.153244 
L 135.149208 90.16758 
L 136.976121 90.169692 
L 138.803033 90.169894 
L 140.629946 90.169907 
L 142.456858 90.169907 
L 144.283771 90.169907 
L 146.110684 90.169907 
" clip-path="url(#p7b99756ae9)" style="fill: none; stroke: #e3b505; stroke-width: 2; stroke-linecap: square"/>
   </g>
   <g id="line2d_9">
    <path d="M 56.591967 89.822577 
L 58.41888 89.649729 
L 60.245792 89.710579 
L 62.072705 89.930766 
L 63.899617 90.096499 
L 65.72653 90.156621 
L 67.553443 90.168489 
L 69.380355 90.169818 
L 71.207268 90.169903 
L 73.03418 90.169893 
L 74.861093 90.169601 
L 76.688005 90.166007 
L 78.514918 90.140185 
L 80.341831 90.016717 
L 82.168743 89.468071 
L 83.995656 87.800057 
L 85.822568 86.436197 
L 87.649481 87.01733 
L 89.476394 85.19865 
L 91.303306 75.790955 
L 93.130219 54.193177 
L 94.957131 26.66411 
L 96.784044 15.666154 
L 98.610956 23.763486 
L 100.437869 37.427724 
L 102.264782 54.761609 
L 104.091694 71.853804 
L 105.918607 82.828745 
L 107.745519 87.567259 
L 109.572432 89.326828 
L 111.399345 89.952434 
L 113.226257 90.130608 
L 115.05317 90.165313 
L 116.880082 90.169575 
L 118.706995 90.169893 
L 120.533907 90.169907 
L 122.36082 90.169907 
L 124.187733 90.169907 
L 126.014645 90.169907 
L 127.841558 90.169907 
L 129.66847 90.169907 
L 131.495383 90.169907 
L 133.322296 90.169907 
L 135.149208 90.169907 
L 136.976121 90.169907 
L 138.803033 90.169907 
L 140.629946 90.169907 
L 142.456858 90.169907 
L 144.283771 90.169907 
L 146.110684 90.169907 
" clip-path="url(#p7b99756ae9)" style="fill: none; stroke: #4f6db8; stroke-width: 2; stroke-linecap: square"/>
   </g>
   <g id="patch_3">
    <path d="M 52.116031 90.169907 
L 52.116031 10.735095 
" style="fill: none; stroke: #000000; stroke-width: 1.2; stroke-linejoin: miter; stroke-linecap: square"/>
   </g>
   <g id="patch_4">
    <path d="M 56.591967 93.895095 
L 146.110684 93.895095 
" style="fill: none; stroke: #000000; stroke-width: 1.2; stroke-linejoin: miter; stroke-linecap: square"/>
   </g>
  </g>
  <g id="axes_2">
   <g id="patch_5">
    <path d="M 170.280737 93.895095 
L 268.751325 93.895095 
L 268.751325 10.735095 
L 170.280737 10.735095 
L 170.280737 93.895095 
z
" style="fill: none"/>
   </g>
   <g id="matplotlib.axis_3">
    <g id="xtick_4">
     <g id="line2d_10">
      <g>
       <use xlink:href="#mc81a2c76b4" x="204.596245" y="93.895095" style="stroke: #000000; stroke-width: 1.4"/>
      </g>
     </g>
     <g id="text_9">
      <!-- 4 -->
      <g transform="translate(201.73312 107.233689) scale(0.09 -0.09)">
       <defs>
        <path id="DejaVuSans-34" d="M 2419 4116 
L 825 1625 
L 2419 1625 
L 2419 4116 
z
M 2253 4666 
L 3047 4666 
L 3047 1625 
L 3713 1625 
L 3713 1100 
L 3047 1100 
L 3047 0 
L 2419 0 
L 2419 1100 
L 313 1100 
L 313 1709 
L 2253 4666 
z
" transform="scale(0.015625)"/>
       </defs>
       <use xlink:href="#DejaVuSans-34"/>
      </g>
     </g>
    </g>
    <g id="xtick_5">
     <g id="line2d_11">
      <g>
       <use xlink:href="#mc81a2c76b4" x="264.27539" y="93.895095" style="stroke: #000000; stroke-width: 1.4"/>
      </g>
     </g>
     <g id="text_10">
      <!-- 5 -->
      <g transform="translate(261.412265 107.233689) scale(0.09 -0.09)">
       <use xlink:href="#DejaVuSans-35"/>
      </g>
     </g>
    </g>
    <g id="text_11">
     <!-- Entropy (5 bit max) -->
     <g transform="translate(165.955484 121.463689) scale(0.11 -0.11)">
      <defs>
       <path id="DejaVuSans-45" d="M 628 4666 
L 3578 4666 
L 3578 4134 
L 1259 4134 
L 1259 2753 
L 3481 2753 
L 3481 2222 
L 1259 2222 
L 1259 531 
L 3634 531 
L 3634 0 
L 628 0 
L 628 4666 
z
" transform="scale(0.015625)"/>
       <path id="DejaVuSans-70" d="M 1159 525 
L 1159 -1331 
L 581 -1331 
L 581 3500 
L 1159 3500 
L 1159 2969 
Q 1341 3281 1617 3432 
Q 1894 3584 2278 3584 
Q 2916 3584 3314 3078 
Q 3713 2572 3713 1747 
Q 3713 922 3314 415 
Q 2916 -91 2278 -91 
Q 1894 -91 1617 61 
Q 1341 213 1159 525 
z
M 3116 1747 
Q 3116 2381 2855 2742 
Q 2594 3103 2138 3103 
Q 1681 3103 1420 2742 
Q 1159 2381 1159 1747 
Q 1159 1113 1420 752 
Q 1681 391 2138 391 
Q 2594 391 2855 752 
Q 3116 1113 3116 1747 
z
" transform="scale(0.015625)"/>
       <path id="DejaVuSans-62" d="M 3116 1747 
Q 3116 2381 2855 2742 
Q 2594 3103 2138 3103 
Q 1681 3103 1420 2742 
Q 1159 2381 1159 1747 
Q 1159 1113 1420 752 
Q 1681 391 2138 391 
Q 2594 391 2855 752 
Q 3116 1113 3116 1747 
z
M 1159 2969 
Q 1341 3281 1617 3432 
Q 1894 3584 2278 3584 
Q 2916 3584 3314 3078 
Q 3713 2572 3713 1747 
Q 3713 922 3314 415 
Q 2916 -91 2278 -91 
Q 1894 -91 1617 61 
Q 1341 213 1159 525 
L 1159 0 
L 581 0 
L 581 4863 
L 1159 4863 
L 1159 2969 
z
" transform="scale(0.015625)"/>
       <path id="DejaVuSans-78" d="M 3513 3500 
L 2247 1797 
L 3578 0 
L 2900 0 
L 1881 1375 
L 863 0 
L 184 0 
L 1544 1831 
L 300 3500 
L 978 3500 
L 1906 2253 
L 2834 3500 
L 3513 3500 
z
" transform="scale(0.015625)"/>
      </defs>
      <use xlink:href="#DejaVuSans-45"/>
      <use xlink:href="#DejaVuSans-6e" transform="translate(63.183594 0)"/>
      <use xlink:href="#DejaVuSans-74" transform="translate(126.5625 0)"/>
      <use xlink:href="#DejaVuSans-72" transform="translate(165.771484 0)"/>
      <use xlink:href="#DejaVuSans-6f" transform="translate(204.634766 0)"/>
      <use xlink:href="#DejaVuSans-70" transform="translate(265.816406 0)"/>
      <use xlink:href="#DejaVuSans-79" transform="translate(329.292969 0)"/>
      <use xlink:href="#DejaVuSans-20" transform="translate(388.472656 0)"/>
      <use xlink:href="#DejaVuSans-28" transform="translate(420.259766 0)"/>
      <use xlink:href="#DejaVuSans-35" transform="translate(459.273438 0)"/>
      <use xlink:href="#DejaVuSans-20" transform="translate(522.896484 0)"/>
      <use xlink:href="#DejaVuSans-62" transform="translate(554.683594 0)"/>
      <use xlink:href="#DejaVuSans-69" transform="translate(618.160156 0)"/>
      <use xlink:href="#DejaVuSans-74" transform="translate(645.943359 0)"/>
      <use xlink:href="#DejaVuSans-20" transform="translate(685.152344 0)"/>
      <use xlink:href="#DejaVuSans-6d" transform="translate(716.939453 0)"/>
      <use xlink:href="#DejaVuSans-61" transform="translate(814.351562 0)"/>
      <use xlink:href="#DejaVuSans-78" transform="translate(875.630859 0)"/>
      <use xlink:href="#DejaVuSans-29" transform="translate(934.810547 0)"/>
     </g>
    </g>
   </g>
   <g id="matplotlib.axis_4">
    <g id="ytick_4">
     <g id="line2d_12">
      <g>
       <use xlink:href="#me4278a5ef4" x="170.280737" y="90.115095" style="stroke: #000000; stroke-width: 1.4"/>
      </g>
     </g>
     <g id="text_12">
      <!-- 0 -->
      <g transform="translate(158.054487 93.534392) scale(0.09 -0.09)">
       <use xlink:href="#DejaVuSans-30"/>
      </g>
     </g>
    </g>
    <g id="ytick_5">
     <g id="line2d_13">
      <g>
       <use xlink:href="#me4278a5ef4" x="170.280737" y="67.70561" style="stroke: #000000; stroke-width: 1.4"/>
      </g>
     </g>
     <g id="text_13">
      <!-- 1 -->
      <g transform="translate(158.054487 71.124907) scale(0.09 -0.09)">
       <use xlink:href="#DejaVuSans-31"/>
      </g>
     </g>
    </g>
    <g id="ytick_6">
     <g id="line2d_14">
      <g>
       <use xlink:href="#me4278a5ef4" x="170.280737" y="45.296125" style="stroke: #000000; stroke-width: 1.4"/>
      </g>
     </g>
     <g id="text_14">
      <!-- 2 -->
      <g transform="translate(158.054487 48.715422) scale(0.09 -0.09)">
       <defs>
        <path id="DejaVuSans-32" d="M 1228 531 
L 3431 531 
L 3431 0 
L 469 0 
L 469 531 
Q 828 903 1448 1529 
Q 2069 2156 2228 2338 
Q 2531 2678 2651 2914 
Q 2772 3150 2772 3378 
Q 2772 3750 2511 3984 
Q 2250 4219 1831 4219 
Q 1534 4219 1204 4116 
Q 875 4013 500 3803 
L 500 4441 
Q 881 4594 1212 4672 
Q 1544 4750 1819 4750 
Q 2544 4750 2975 4387 
Q 3406 4025 3406 3419 
Q 3406 3131 3298 2873 
Q 3191 2616 2906 2266 
Q 2828 2175 2409 1742 
Q 1991 1309 1228 531 
z
" transform="scale(0.015625)"/>
       </defs>
       <use xlink:href="#DejaVuSans-32"/>
      </g>
     </g>
    </g>
    <g id="ytick_7">
     <g id="line2d_15">
      <g>
       <use xlink:href="#me4278a5ef4" x="170.280737" y="22.88664" style="stroke: #000000; stroke-width: 1.4"/>
      </g>
     </g>
     <g id="text_15">
      <!-- 3 -->
      <g transform="translate(158.054487 26.305937) scale(0.09 -0.09)">
       <defs>
        <path id="DejaVuSans-33" d="M 2597 2516 
Q 3050 2419 3304 2112 
Q 3559 1806 3559 1356 
Q 3559 666 3084 287 
Q 2609 -91 1734 -91 
Q 1441 -91 1130 -33 
Q 819 25 488 141 
L 488 750 
Q 750 597 1062 519 
Q 1375 441 1716 441 
Q 2309 441 2620 675 
Q 2931 909 2931 1356 
Q 2931 1769 2642 2001 
Q 2353 2234 1838 2234 
L 1294 2234 
L 1294 2753 
L 1863 2753 
Q 2328 2753 2575 2939 
Q 2822 3125 2822 3475 
Q 2822 3834 2567 4026 
Q 2313 4219 1838 4219 
Q 1578 4219 1281 4162 
Q 984 4106 628 3988 
L 628 4550 
Q 988 4650 1302 4700 
Q 1616 4750 1894 4750 
Q 2613 4750 3031 4423 
Q 3450 4097 3450 3541 
Q 3450 3153 3228 2886 
Q 3006 2619 2597 2516 
z
" transform="scale(0.015625)"/>
       </defs>
       <use xlink:href="#DejaVuSans-33"/>
      </g>
     </g>
    </g>
   </g>
   <g id="line2d_16">
    <path d="M 174.756673 86.261102 
L 176.583586 86.090283 
L 178.410498 85.913297 
L 180.237411 85.728056 
L 182.064323 85.532359 
L 183.891236 85.323986 
L 185.718148 85.100808 
L 187.545061 84.860887 
L 189.371974 84.602537 
L 191.198886 84.324188 
L 193.025799 84.023686 
L 194.852711 83.696451 
L 196.679624 83.332379 
L 198.506537 82.91381 
L 200.333449 82.420445 
L 202.160362 81.846342 
L 203.987274 81.222117 
L 205.814187 80.618853 
L 207.641099 80.11388 
L 209.468012 79.734799 
L 211.294925 79.432635 
L 213.121837 79.118119 
L 214.94875 78.733215 
L 216.775662 78.289894 
L 218.602575 77.836943 
L 220.429488 77.386047 
L 222.2564 76.867942 
L 224.083313 76.158052 
L 225.910225 75.146951 
L 227.737138 73.803833 
L 229.56405 72.201775 
L 231.390963 70.496653 
L 233.217876 68.858468 
L 235.044788 67.372452 
L 236.871701 65.969543 
L 238.698613 64.469755 
L 240.525526 62.766656 
L 242.352439 61.052066 
L 244.179351 59.887833 
L 246.006264 59.993976 
L 247.833176 61.831398 
L 249.660089 65.261649 
L 251.487001 69.566387 
L 253.313914 73.839401 
L 255.140827 77.445125 
L 256.967739 80.204075 
L 258.794652 82.25166 
L 260.621564 83.792161 
L 262.448477 84.964918 
L 264.27539 85.848992 
" clip-path="url(#p5df04c1a48)" style="fill: none; stroke: #2ca6a4; stroke-width: 2; stroke-linecap: square"/>
   </g>
   <g id="line2d_17">
    <path d="M 174.756673 87.140665 
L 176.583586 86.676104 
L 178.410498 86.230744 
L 180.237411 85.829166 
L 182.064323 85.49547 
L 183.891236 85.249813 
L 185.718148 85.104785 
L 187.545061 85.062439 
L 189.371974 85.112713 
L 191.198886 85.233717 
L 193.025799 85.393903 
L 194.852711 85.555684 
L 196.679624 85.679803 
L 198.506537 85.729735 
L 200.333449 85.675579 
L 202.160362 85.49714 
L 203.987274 85.185666 
L 205.814187 84.742202 
L 207.641099 84.167199 
L 209.468012 83.437518 
L 211.294925 82.492881 
L 213.121837 81.297247 
L 214.94875 79.993298 
L 216.775662 78.964714 
L 218.602575 78.579246 
L 220.429488 78.811041 
L 222.2564 79.238823 
L 224.083313 79.448839 
L 225.910225 79.349114 
L 227.737138 79.089633 
L 229.56405 78.714967 
L 231.390963 77.873214 
L 233.217876 75.906406 
L 235.044788 72.320932 
L 236.871701 67.133625 
L 238.698613 60.771454 
L 240.525526 53.96625 
L 242.352439 47.835628 
L 244.179351 43.455719 
L 246.006264 41.086377 
L 247.833176 40.460429 
L 249.660089 41.957293 
L 251.487001 46.586097 
L 253.313914 54.469247 
L 255.140827 64.017971 
L 256.967739 72.962482 
L 258.794652 79.847605 
L 260.621564 84.447989 
L 262.448477 87.237105 
L 264.27539 88.800585 
" clip-path="url(#p5df04c1a48)" style="fill: none; stroke: #e3b505; stroke-width: 2; stroke-linecap: square"/>
   </g>
   <g id="line2d_18">
    <path d="M 174.756673 90.115095 
L 176.583586 90.115094 
L 178.410498 90.115091 
L 180.237411 90.115082 
L 182.064323 90.115055 
L 183.891236 90.114982 
L 185.718148 90.114799 
L 187.545061 90.114364 
L 189.371974 90.113402 
L 191.198886 90.111408 
L 193.025799 90.107544 
L 194.852711 90.100554 
L 196.679624 90.088765 
L 198.506537 90.070256 
L 200.333449 90.043253 
L 202.160362 90.006737 
L 203.987274 89.961073 
L 205.814187 89.90837 
L 207.641099 89.852155 
L 209.468012 89.796119 
L 211.294925 89.741936 
L 213.121837 89.686612 
L 214.94875 89.620172 
L 216.775662 89.524611 
L 218.602575 89.374882 
L 220.429488 89.142212 
L 222.2564 88.799456 
L 224.083313 88.32754 
L 225.910225 87.721464 
L 227.737138 86.993946 
L 229.56405 86.174297 
L 231.390963 85.296598 
L 233.217876 84.355621 
L 235.044788 83.20955 
L 236.871701 81.542998 
L 238.698613 79.050225 
L 240.525526 75.450737 
L 242.352439 70.165214 
L 244.179351 62.793919 
L 246.006264 54.21734 
L 247.833176 46.261801 
L 249.660089 39.280797 
L 251.487001 31.000261 
L 253.313914 21.163175 
L 255.140827 14.515095 
L 256.967739 15.143426 
L 258.794652 23.206184 
L 260.621564 37.390194 
L 262.448477 54.607553 
L 264.27539 69.529107 
" clip-path="url(#p5df04c1a48)" style="fill: none; stroke: #4f6db8; stroke-width: 2; stroke-linecap: square"/>
   </g>
   <g id="patch_6">
    <path d="M 170.280737 90.115095 
L 170.280737 7.2 
" style="fill: none; stroke: #000000; stroke-width: 1.2; stroke-linejoin: miter; stroke-linecap: square"/>
   </g>
   <g id="patch_7">
    <path d="M 168.788759 93.895095 
L 264.27539 93.895095 
" style="fill: none; stroke: #000000; stroke-width: 1.2; stroke-linejoin: miter; stroke-linecap: square"/>
   </g>
  </g>
  <g id="axes_3">
   <g id="patch_8">
    <path d="M 288.445443 93.895095 
L 386.916031 93.895095 
L 386.916031 10.735095 
L 288.445443 10.735095 
L 288.445443 93.895095 
z
" style="fill: none"/>
   </g>
   <g id="matplotlib.axis_5">
    <g id="xtick_6">
     <g id="line2d_19">
      <g>
       <use xlink:href="#mc81a2c76b4" x="292.921379" y="93.895095" style="stroke: #000000; stroke-width: 1.4"/>
      </g>
     </g>
     <g id="text_16">
      <!-- 0.0 -->
      <g transform="translate(285.764973 107.233689) scale(0.09 -0.09)">
       <use xlink:href="#DejaVuSans-30"/>
       <use xlink:href="#DejaVuSans-2e" transform="translate(63.623047 0)"/>
       <use xlink:href="#DejaVuSans-30" transform="translate(95.410156 0)"/>
      </g>
     </g>
    </g>
    <g id="xtick_7">
     <g id="line2d_20">
      <g>
       <use xlink:href="#mc81a2c76b4" x="337.680737" y="93.895095" style="stroke: #000000; stroke-width: 1.4"/>
      </g>
     </g>
     <g id="text_17">
      <!-- 0.5 -->
      <g transform="translate(330.524331 107.233689) scale(0.09 -0.09)">
       <use xlink:href="#DejaVuSans-30"/>
       <use xlink:href="#DejaVuSans-2e" transform="translate(63.623047 0)"/>
       <use xlink:href="#DejaVuSans-35" transform="translate(95.410156 0)"/>
      </g>
     </g>
    </g>
    <g id="xtick_8">
     <g id="line2d_21">
      <g>
       <use xlink:href="#mc81a2c76b4" x="382.440095" y="93.895095" style="stroke: #000000; stroke-width: 1.4"/>
      </g>
     </g>
     <g id="text_18">
      <!-- 1.0 -->
      <g transform="translate(375.283689 107.233689) scale(0.09 -0.09)">
       <use xlink:href="#DejaVuSans-31"/>
       <use xlink:href="#DejaVuSans-2e" transform="translate(63.623047 0)"/>
       <use xlink:href="#DejaVuSans-30" transform="translate(95.410156 0)"/>
      </g>
     </g>
    </g>
    <g id="text_19">
     <!-- P(WSLS) -->
     <g transform="translate(314.586753 121.463689) scale(0.11 -0.11)">
      <defs>
       <path id="DejaVuSans-57" d="M 213 4666 
L 850 4666 
L 1831 722 
L 2809 4666 
L 3519 4666 
L 4500 722 
L 5478 4666 
L 6119 4666 
L 4947 0 
L 4153 0 
L 3169 4050 
L 2175 0 
L 1381 0 
L 213 4666 
z
" transform="scale(0.015625)"/>
       <path id="DejaVuSans-53" d="M 3425 4513 
L 3425 3897 
Q 3066 4069 2747 4153 
Q 2428 4238 2131 4238 
Q 1616 4238 1336 4038 
Q 1056 3838 1056 3469 
Q 1056 3159 1242 3001 
Q 1428 2844 1947 2747 
L 2328 2669 
Q 3034 2534 3370 2195 
Q 3706 1856 3706 1288 
Q 3706 609 3251 259 
Q 2797 -91 1919 -91 
Q 1588 -91 1214 -16 
Q 841 59 441 206 
L 441 856 
Q 825 641 1194 531 
Q 1563 422 1919 422 
Q 2459 422 2753 634 
Q 3047 847 3047 1241 
Q 3047 1584 2836 1778 
Q 2625 1972 2144 2069 
L 1759 2144 
Q 1053 2284 737 2584 
Q 422 2884 422 3419 
Q 422 4038 858 4394 
Q 1294 4750 2059 4750 
Q 2388 4750 2728 4690 
Q 3069 4631 3425 4513 
z
" transform="scale(0.015625)"/>
       <path id="DejaVuSans-4c" d="M 628 4666 
L 1259 4666 
L 1259 531 
L 3531 531 
L 3531 0 
L 628 0 
L 628 4666 
z
" transform="scale(0.015625)"/>
      </defs>
      <use xlink:href="#DejaVuSans-50"/>
      <use xlink:href="#DejaVuSans-28" transform="translate(60.302734 0)"/>
      <use xlink:href="#DejaVuSans-57" transform="translate(99.316406 0)"/>
      <use xlink:href="#DejaVuSans-53" transform="translate(198.193359 0)"/>
      <use xlink:href="#DejaVuSans-4c" transform="translate(261.669922 0)"/>
      <use xlink:href="#DejaVuSans-53" transform="translate(317.382812 0)"/>
      <use xlink:href="#DejaVuSans-29" transform="translate(380.859375 0)"/>
     </g>
    </g>
   </g>
   <g id="matplotlib.axis_6">
    <g id="ytick_8">
     <g id="line2d_22">
      <g>
       <use xlink:href="#me4278a5ef4" x="288.445443" y="90.115095" style="stroke: #000000; stroke-width: 1.4"/>
      </g>
     </g>
     <g id="text_20">
      <!-- 0 -->
      <g transform="translate(276.219193 93.534392) scale(0.09 -0.09)">
       <use xlink:href="#DejaVuSans-30"/>
      </g>
     </g>
    </g>
    <g id="ytick_9">
     <g id="line2d_23">
      <g>
       <use xlink:href="#me4278a5ef4" x="288.445443" y="50.673441" style="stroke: #000000; stroke-width: 1.4"/>
      </g>
     </g>
     <g id="text_21">
      <!-- 5 -->
      <g transform="translate(276.219193 54.092738) scale(0.09 -0.09)">
       <use xlink:href="#DejaVuSans-35"/>
      </g>
     </g>
    </g>
    <g id="ytick_10">
     <g id="line2d_24">
      <g>
       <use xlink:href="#me4278a5ef4" x="288.445443" y="11.231787" style="stroke: #000000; stroke-width: 1.4"/>
      </g>
     </g>
     <g id="text_22">
      <!-- 10 -->
      <g transform="translate(270.492943 14.651084) scale(0.09 -0.09)">
       <use xlink:href="#DejaVuSans-31"/>
       <use xlink:href="#DejaVuSans-30" transform="translate(63.623047 0)"/>
      </g>
     </g>
    </g>
   </g>
   <g id="line2d_25">
    <path d="M 292.921379 89.995446 
L 294.748291 89.922874 
L 296.575204 89.838494 
L 298.402117 89.758586 
L 300.229029 89.703518 
L 302.055942 89.68949 
L 303.882854 89.720833 
L 305.709767 89.787741 
L 307.53668 89.870847 
L 309.363592 89.949288 
L 311.190505 90.006798 
L 313.017417 90.032439 
L 314.84433 90.016666 
L 316.671242 89.946522 
L 318.498155 89.804304 
L 320.325068 89.57212 
L 322.15198 89.241055 
L 323.978893 88.819877 
L 325.805805 88.336456 
L 327.632718 87.826091 
L 329.459631 87.298485 
L 331.286543 86.673975 
L 333.113456 85.743058 
L 334.940368 84.303602 
L 336.767281 82.397002 
L 338.594193 80.036017 
L 340.421106 73.062896 
L 342.248019 46.767378 
L 344.074931 28.844233 
L 345.901844 39.259743 
L 347.728756 48.612325 
L 349.555669 61.381719 
L 351.382582 65.087397 
L 353.209494 67.85049 
L 355.036407 73.379462 
L 356.863319 79.359697 
L 358.690232 83.374856 
L 360.517144 85.318687 
L 362.344057 86.29855 
L 364.17097 87.079803 
L 365.997882 87.892887 
L 367.824795 88.672079 
L 369.651707 89.252105 
L 371.47862 89.59715 
L 373.305533 89.79523 
L 375.132445 89.921689 
L 376.959358 90.005834 
L 378.78627 90.058637 
L 380.613183 90.08864 
L 382.440095 90.103904 
" clip-path="url(#pf40e6e55e3)" style="fill: none; stroke: #2ca6a4; stroke-width: 2; stroke-linecap: square"/>
   </g>
   <g id="line2d_26">
    <path d="M 292.921379 90.115095 
L 294.748291 90.115095 
L 296.575204 90.115095 
L 298.402117 90.115095 
L 300.229029 90.115095 
L 302.055942 90.115095 
L 303.882854 90.115095 
L 305.709767 90.115095 
L 307.53668 90.115095 
L 309.363592 90.115095 
L 311.190505 90.115095 
L 313.017417 90.115095 
L 314.84433 90.115095 
L 316.671242 90.115095 
L 318.498155 90.115095 
L 320.325068 90.115095 
L 322.15198 90.115095 
L 323.978893 90.115095 
L 325.805805 90.115095 
L 327.632718 90.115095 
L 329.459631 90.115084 
L 331.286543 90.114684 
L 333.113456 90.107521 
L 334.940368 90.044991 
L 336.767281 89.789456 
L 338.594193 89.352788 
L 340.421106 89.179381 
L 342.248019 89.274298 
L 344.074931 88.3967 
L 345.901844 83.89001 
L 347.728756 73.224348 
L 349.555669 54.650219 
L 351.382582 42.652969 
L 353.209494 45.608181 
L 355.036407 52.747579 
L 356.863319 62.676361 
L 358.690232 72.382156 
L 360.517144 76.300968 
L 362.344057 73.842554 
L 364.17097 70.325083 
L 365.997882 70.833564 
L 367.824795 73.266393 
L 369.651707 76.699808 
L 371.47862 80.107687 
L 373.305533 81.048288 
L 375.132445 80.074662 
L 376.959358 80.644649 
L 378.78627 83.69473 
L 380.613183 87.04091 
L 382.440095 89.091842 
" clip-path="url(#pf40e6e55e3)" style="fill: none; stroke: #e3b505; stroke-width: 2; stroke-linecap: square"/>
   </g>
   <g id="line2d_27">
    <path d="M 292.921379 90.115095 
L 294.748291 90.115095 
L 296.575204 90.115095 
L 298.402117 90.115095 
L 300.229029 90.115095 
L 302.055942 90.115095 
L 303.882854 90.115095 
L 305.709767 90.115095 
L 307.53668 90.115095 
L 309.363592 90.115095 
L 311.190505 90.115095 
L 313.017417 90.115095 
L 314.84433 90.115095 
L 316.671242 90.115095 
L 318.498155 90.115087 
L 320.325068 90.11485 
L 322.15198 90.110688 
L 323.978893 90.068285 
L 325.805805 89.7651 
L 327.632718 88.321056 
L 329.459631 85.729586 
L 331.286543 84.025606 
L 333.113456 80.60551 
L 334.940368 70.860976 
L 336.767281 45.480023 
L 338.594193 18.60377 
L 340.421106 14.515095 
L 342.248019 24.491187 
L 344.074931 49.374795 
L 345.901844 71.425399 
L 347.728756 78.324286 
L 349.555669 81.355956 
L 351.382582 85.116714 
L 353.209494 88.065044 
L 355.036407 89.539776 
L 356.863319 90.012809 
L 358.690232 90.104324 
L 360.517144 90.11445 
L 362.344057 90.115073 
L 364.17097 90.115094 
L 365.997882 90.115095 
L 367.824795 90.115095 
L 369.651707 90.115095 
L 371.47862 90.115095 
L 373.305533 90.115095 
L 375.132445 90.115095 
L 376.959358 90.115095 
L 378.78627 90.115095 
L 380.613183 90.115095 
L 382.440095 90.115095 
" clip-path="url(#pf40e6e55e3)" style="fill: none; stroke: #4f6db8; stroke-width: 2; stroke-linecap: square"/>
   </g>
   <g id="patch_9">
    <path d="M 288.445443 90.115095 
L 288.445443 11.231787 
" style="fill: none; stroke: #000000; stroke-width: 1.2; stroke-linejoin: miter; stroke-linecap: square"/>
   </g>
   <g id="patch_10">
    <path d="M 292.921379 93.895095 
L 382.440095 93.895095 
" style="fill: none; stroke: #000000; stroke-width: 1.2; stroke-linejoin: miter; stroke-linecap: square"/>
   </g>
  </g>
 </g>
 <defs>
  <clipPath id="p7b99756ae9">
   <rect x="52.116031" y="10.735095" width="98.470588" height="83.16"/>
  </clipPath>
  <clipPath id="p5df04c1a48">
   <rect x="170.280737" y="10.735095" width="98.470588" height="83.16"/>
  </clipPath>
  <clipPath id="pf40e6e55e3">
   <rect x="288.445443" y="10.735095" width="98.470588" height="83.16"/>
  </clipPath>
 </defs>
</svg>
