<?xml version="1.0" encoding="utf-8" standalone="no"?>
<!DOCTYPE svg PUBLIC "-//W3C//DTD SVG 1.1//EN"
  "http://www.w3.org/Graphics/SVG/1.1/DTD/svg11.dtd">
<svg xmlns:xlink="http://www.w3.org/1999/xlink" width="262.515625pt" height="218.729688pt" viewBox="0 0 262.515625 218.729688" xmlns="http://www.w3.org/2000/svg" version="1.1">
 <metadata>
  <rdf:RDF xmlns:dc="http://purl.org/dc/elements/1.1/" xmlns:cc="http://creativecommons.org/ns#" xmlns:rdf="http://www.w3.org/1999/02/22-rdf-syntax-ns#">
   <cc:Work>
    <dc:type rdf:resource="http://purl.org/dc/dcmitype/StillImage"/>
    <dc:date>2025-11-20T18:56:26.477283</dc:date>
    <dc:format>image/svg+xml</dc:format>
    <dc:creator>
     <cc:Agent>
      <dc:title>Matplotlib v3.10.6, https://matplotlib.org/</dc:title>
     </cc:Agent>
    </dc:creator>
   </cc:Work>
  </rdf:RDF>
 </metadata>
 <defs>
  <style type="text/css">*{stroke-linejoin: round; stroke-linecap: butt}</style>
 </defs>
 <g id="figure_1">
  <g id="patch_1">
   <path d="M 0 218.729688 
L 262.515625 218.729688 
L 262.515625 0 
L 0 0 
L 0 218.729688 
z
" style="fill: none"/>
  </g>
  <g id="axes_1">
   <g id="patch_2">
    <path d="M 65.655625 173.52 
L 233.055625 173.52 
L 233.055625 7.2 
L 65.655625 7.2 
L 65.655625 173.52 
z
" style="fill: none"/>
   </g>
   <g id="matplotlib.axis_1">
    <g id="xtick_1">
     <g id="line2d_1">
      <defs>
       <path id="m1cd63dc8ba" d="M 0 0 
L 0 8.25 
" style="stroke: #000000; stroke-width: 1.4"/>
      </defs>
      <g>
       <use xlink:href="#m1cd63dc8ba" x="73.264716" y="173.52" style="stroke: #000000; stroke-width: 1.4"/>
      </g>
     </g>
     <g id="text_1">
      <!-- 0 -->
      <g transform="translate(69.447216 194.388125) scale(0.12 -0.12)">
       <defs>
        <path id="DejaVuSans-30" d="M 2034 4250 
Q 1547 4250 1301 3770 
Q 1056 3291 1056 2328 
Q 1056 1369 1301 889 
Q 1547 409 2034 409 
Q 2525 409 2770 889 
Q 3016 1369 3016 2328 
Q 3016 3291 2770 3770 
Q 2525 4250 2034 4250 
z
M 2034 4750 
Q 2819 4750 3233 4129 
Q 3647 3509 3647 2328 
Q 3647 1150 3233 529 
Q 2819 -91 2034 -91 
Q 1250 -91 836 529 
Q 422 1150 422 2328 
Q 422 3509 836 4129 
Q 1250 4750 2034 4750 
z
" transform="scale(0.015625)"/>
       </defs>
       <use xlink:href="#DejaVuSans-30"/>
      </g>
     </g>
    </g>
    <g id="xtick_2">
     <g id="line2d_2">
      <g>
       <use xlink:href="#m1cd63dc8ba" x="103.70108" y="173.52" style="stroke: #000000; stroke-width: 1.4"/>
      </g>
     </g>
     <g id="text_2">
      <!-- 1 -->
      <g transform="translate(99.88358 194.388125) scale(0.12 -0.12)">
       <defs>
        <path id="DejaVuSans-31" d="M 794 531 
L 1825 531 
L 1825 4091 
L 703 3866 
L 703 4441 
L 1819 4666 
L 2450 4666 
L 2450 531 
L 3481 531 
L 3481 0 
L 794 0 
L 794 531 
z
" transform="scale(0.015625)"/>
       </defs>
       <use xlink:href="#DejaVuSans-31"/>
      </g>
     </g>
    </g>
    <g id="xtick_3">
     <g id="line2d_3">
      <g>
       <use xlink:href="#m1cd63dc8ba" x="134.137443" y="173.52" style="stroke: #000000; stroke-width: 1.4"/>
      </g>
     </g>
     <g id="text_3">
      <!-- 2 -->
      <g transform="translate(130.319943 194.388125) scale(0.12 -0.12)">
       <defs>
        <path id="DejaVuSans-32" d="M 1228 531 
L 3431 531 
L 3431 0 
L 469 0 
L 469 531 
Q 828 903 1448 1529 
Q 2069 2156 2228 2338 
Q 2531 2678 2651 2914 
Q 2772 3150 2772 3378 
Q 2772 3750 2511 3984 
Q 2250 4219 1831 4219 
Q 1534 4219 1204 4116 
Q 875 4013 500 3803 
L 500 4441 
Q 881 4594 1212 4672 
Q 1544 4750 1819 4750 
Q 2544 4750 2975 4387 
Q 3406 4025 3406 3419 
Q 3406 3131 3298 2873 
Q 3191 2616 2906 2266 
Q 2828 2175 2409 1742 
Q 1991 1309 1228 531 
z
" transform="scale(0.015625)"/>
       </defs>
       <use xlink:href="#DejaVuSans-32"/>
      </g>
     </g>
    </g>
    <g id="xtick_4">
     <g id="line2d_4">
      <g>
       <use xlink:href="#m1cd63dc8ba" x="164.573807" y="173.52" style="stroke: #000000; stroke-width: 1.4"/>
      </g>
     </g>
     <g id="text_4">
      <!-- 3 -->
      <g transform="translate(160.756307 194.388125) scale(0.12 -0.12)">
       <defs>
        <path id="DejaVuSans-33" d="M 2597 2516 
Q 3050 2419 3304 2112 
Q 3559 1806 3559 1356 
Q 3559 666 3084 287 
Q 2609 -91 1734 -91 
Q 1441 -91 1130 -33 
Q 819 25 488 141 
L 488 750 
Q 750 597 1062 519 
Q 1375 441 1716 441 
Q 2309 441 2620 675 
Q 2931 909 2931 1356 
Q 2931 1769 2642 2001 
Q 2353 2234 1838 2234 
L 1294 2234 
L 1294 2753 
L 1863 2753 
Q 2328 2753 2575 2939 
Q 2822 3125 2822 3475 
Q 2822 3834 2567 4026 
Q 2313 4219 1838 4219 
Q 1578 4219 1281 4162 
Q 984 4106 628 3988 
L 628 4550 
Q 988 4650 1302 4700 
Q 1616 4750 1894 4750 
Q 2613 4750 3031 4423 
Q 3450 4097 3450 3541 
Q 3450 3153 3228 2886 
Q 3006 2619 2597 2516 
z
" transform="scale(0.015625)"/>
       </defs>
       <use xlink:href="#DejaVuSans-33"/>
      </g>
     </g>
    </g>
    <g id="xtick_5">
     <g id="line2d_5">
      <g>
       <use xlink:href="#m1cd63dc8ba" x="195.01017" y="173.52" style="stroke: #000000; stroke-width: 1.4"/>
      </g>
     </g>
     <g id="text_5">
      <!-- 4 -->
      <g transform="translate(191.19267 194.388125) scale(0.12 -0.12)">
       <defs>
        <path id="DejaVuSans-34" d="M 2419 4116 
L 825 1625 
L 2419 1625 
L 2419 4116 
z
M 2253 4666 
L 3047 4666 
L 3047 1625 
L 3713 1625 
L 3713 1100 
L 3047 1100 
L 3047 0 
L 2419 0 
L 2419 1100 
L 313 1100 
L 313 1709 
L 2253 4666 
z
" transform="scale(0.015625)"/>
       </defs>
       <use xlink:href="#DejaVuSans-34"/>
      </g>
     </g>
    </g>
    <g id="xtick_6">
     <g id="line2d_6">
      <g>
       <use xlink:href="#m1cd63dc8ba" x="225.446534" y="173.52" style="stroke: #000000; stroke-width: 1.4"/>
      </g>
     </g>
     <g id="text_6">
      <!-- 5 -->
      <g transform="translate(221.629034 194.388125) scale(0.12 -0.12)">
       <defs>
        <path id="DejaVuSans-35" d="M 691 4666 
L 3169 4666 
L 3169 4134 
L 1269 4134 
L 1269 2991 
Q 1406 3038 1543 3061 
Q 1681 3084 1819 3084 
Q 2600 3084 3056 2656 
Q 3513 2228 3513 1497 
Q 3513 744 3044 326 
Q 2575 -91 1722 -91 
Q 1428 -91 1123 -41 
Q 819 9 494 109 
L 494 744 
Q 775 591 1075 516 
Q 1375 441 1709 441 
Q 2250 441 2565 725 
Q 2881 1009 2881 1497 
Q 2881 1984 2565 2268 
Q 2250 2553 1709 2553 
Q 1456 2553 1204 2497 
Q 953 2441 691 2322 
L 691 4666 
z
" transform="scale(0.015625)"/>
       </defs>
       <use xlink:href="#DejaVuSans-35"/>
      </g>
     </g>
    </g>
    <g id="text_7">
     <!-- Entropy (bits) -->
     <g transform="translate(111.908359 209.242031) scale(0.11 -0.11)">
      <defs>
       <path id="DejaVuSans-45" d="M 628 4666 
L 3578 4666 
L 3578 4134 
L 1259 4134 
L 1259 2753 
L 3481 2753 
L 3481 2222 
L 1259 2222 
L 1259 531 
L 3634 531 
L 3634 0 
L 628 0 
L 628 4666 
z
" transform="scale(0.015625)"/>
       <path id="DejaVuSans-6e" d="M 3513 2113 
L 3513 0 
L 2938 0 
L 2938 2094 
Q 2938 2591 2744 2837 
Q 2550 3084 2163 3084 
Q 1697 3084 1428 2787 
Q 1159 2491 1159 1978 
L 1159 0 
L 581 0 
L 581 3500 
L 1159 3500 
L 1159 2956 
Q 1366 3272 1645 3428 
Q 1925 3584 2291 3584 
Q 2894 3584 3203 3211 
Q 3513 2838 3513 2113 
z
" transform="scale(0.015625)"/>
       <path id="DejaVuSans-74" d="M 1172 4494 
L 1172 3500 
L 2356 3500 
L 2356 3053 
L 1172 3053 
L 1172 1153 
Q 1172 725 1289 603 
Q 1406 481 1766 481 
L 2356 481 
L 2356 0 
L 1766 0 
Q 1100 0 847 248 
Q 594 497 594 1153 
L 594 3053 
L 172 3053 
L 172 3500 
L 594 3500 
L 594 4494 
L 1172 4494 
z
" transform="scale(0.015625)"/>
       <path id="DejaVuSans-72" d="M 2631 2963 
Q 2534 3019 2420 3045 
Q 2306 3072 2169 3072 
Q 1681 3072 1420 2755 
Q 1159 2438 1159 1844 
L 1159 0 
L 581 0 
L 581 3500 
L 1159 3500 
L 1159 2956 
Q 1341 3275 1631 3429 
Q 1922 3584 2338 3584 
Q 2397 3584 2469 3576 
Q 2541 3569 2628 3553 
L 2631 2963 
z
" transform="scale(0.015625)"/>
       <path id="DejaVuSans-6f" d="M 1959 3097 
Q 1497 3097 1228 2736 
Q 959 2375 959 1747 
Q 959 1119 1226 758 
Q 1494 397 1959 397 
Q 2419 397 2687 759 
Q 2956 1122 2956 1747 
Q 2956 2369 2687 2733 
Q 2419 3097 1959 3097 
z
M 1959 3584 
Q 2709 3584 3137 3096 
Q 3566 2609 3566 1747 
Q 3566 888 3137 398 
Q 2709 -91 1959 -91 
Q 1206 -91 779 398 
Q 353 888 353 1747 
Q 353 2609 779 3096 
Q 1206 3584 1959 3584 
z
" transform="scale(0.015625)"/>
       <path id="DejaVuSans-70" d="M 1159 525 
L 1159 -1331 
L 581 -1331 
L 581 3500 
L 1159 3500 
L 1159 2969 
Q 1341 3281 1617 3432 
Q 1894 3584 2278 3584 
Q 2916 3584 3314 3078 
Q 3713 2572 3713 1747 
Q 3713 922 3314 415 
Q 2916 -91 2278 -91 
Q 1894 -91 1617 61 
Q 1341 213 1159 525 
z
M 3116 1747 
Q 3116 2381 2855 2742 
Q 2594 3103 2138 3103 
Q 1681 3103 1420 2742 
Q 1159 2381 1159 1747 
Q 1159 1113 1420 752 
Q 1681 391 2138 391 
Q 2594 391 2855 752 
Q 3116 1113 3116 1747 
z
" transform="scale(0.015625)"/>
       <path id="DejaVuSans-79" d="M 2059 -325 
Q 1816 -950 1584 -1140 
Q 1353 -1331 966 -1331 
L 506 -1331 
L 506 -850 
L 844 -850 
Q 1081 -850 1212 -737 
Q 1344 -625 1503 -206 
L 1606 56 
L 191 3500 
L 800 3500 
L 1894 763 
L 2988 3500 
L 3597 3500 
L 2059 -325 
z
" transform="scale(0.015625)"/>
       <path id="DejaVuSans-20" transform="scale(0.015625)"/>
       <path id="DejaVuSans-28" d="M 1984 4856 
Q 1566 4138 1362 3434 
Q 1159 2731 1159 2009 
Q 1159 1288 1364 580 
Q 1569 -128 1984 -844 
L 1484 -844 
Q 1016 -109 783 600 
Q 550 1309 550 2009 
Q 550 2706 781 3412 
Q 1013 4119 1484 4856 
L 1984 4856 
z
" transform="scale(0.015625)"/>
       <path id="DejaVuSans-62" d="M 3116 1747 
Q 3116 2381 2855 2742 
Q 2594 3103 2138 3103 
Q 1681 3103 1420 2742 
Q 1159 2381 1159 1747 
Q 1159 1113 1420 752 
Q 1681 391 2138 391 
Q 2594 391 2855 752 
Q 3116 1113 3116 1747 
z
M 1159 2969 
Q 1341 3281 1617 3432 
Q 1894 3584 2278 3584 
Q 2916 3584 3314 3078 
Q 3713 2572 3713 1747 
Q 3713 922 3314 415 
Q 2916 -91 2278 -91 
Q 1894 -91 1617 61 
Q 1341 213 1159 525 
L 1159 0 
L 581 0 
L 581 4863 
L 1159 4863 
L 1159 2969 
z
" transform="scale(0.015625)"/>
       <path id="DejaVuSans-69" d="M 603 3500 
L 1178 3500 
L 1178 0 
L 603 0 
L 603 3500 
z
M 603 4863 
L 1178 4863 
L 1178 4134 
L 603 4134 
L 603 4863 
z
" transform="scale(0.015625)"/>
       <path id="DejaVuSans-73" d="M 2834 3397 
L 2834 2853 
Q 2591 2978 2328 3040 
Q 2066 3103 1784 3103 
Q 1356 3103 1142 2972 
Q 928 2841 928 2578 
Q 928 2378 1081 2264 
Q 1234 2150 1697 2047 
L 1894 2003 
Q 2506 1872 2764 1633 
Q 3022 1394 3022 966 
Q 3022 478 2636 193 
Q 2250 -91 1575 -91 
Q 1294 -91 989 -36 
Q 684 19 347 128 
L 347 722 
Q 666 556 975 473 
Q 1284 391 1588 391 
Q 1994 391 2212 530 
Q 2431 669 2431 922 
Q 2431 1156 2273 1281 
Q 2116 1406 1581 1522 
L 1381 1569 
Q 847 1681 609 1914 
Q 372 2147 372 2553 
Q 372 3047 722 3315 
Q 1072 3584 1716 3584 
Q 2034 3584 2315 3537 
Q 2597 3491 2834 3397 
z
" transform="scale(0.015625)"/>
       <path id="DejaVuSans-29" d="M 513 4856 
L 1013 4856 
Q 1481 4119 1714 3412 
Q 1947 2706 1947 2009 
Q 1947 1309 1714 600 
Q 1481 -109 1013 -844 
L 513 -844 
Q 928 -128 1133 580 
Q 1338 1288 1338 2009 
Q 1338 2731 1133 3434 
Q 928 4138 513 4856 
z
" transform="scale(0.015625)"/>
      </defs>
      <use xlink:href="#DejaVuSans-45"/>
      <use xlink:href="#DejaVuSans-6e" transform="translate(63.183594 0)"/>
      <use xlink:href="#DejaVuSans-74" transform="translate(126.5625 0)"/>
      <use xlink:href="#DejaVuSans-72" transform="translate(165.771484 0)"/>
      <use xlink:href="#DejaVuSans-6f" transform="translate(204.634766 0)"/>
      <use xlink:href="#DejaVuSans-70" transform="translate(265.816406 0)"/>
      <use xlink:href="#DejaVuSans-79" transform="translate(329.292969 0)"/>
      <use xlink:href="#DejaVuSans-20" transform="translate(388.472656 0)"/>
      <use xlink:href="#DejaVuSans-28" transform="translate(420.259766 0)"/>
      <use xlink:href="#DejaVuSans-62" transform="translate(459.273438 0)"/>
      <use xlink:href="#DejaVuSans-69" transform="translate(522.75 0)"/>
      <use xlink:href="#DejaVuSans-74" transform="translate(550.533203 0)"/>
      <use xlink:href="#DejaVuSans-73" transform="translate(589.742188 0)"/>
      <use xlink:href="#DejaVuSans-29" transform="translate(641.841797 0)"/>
     </g>
    </g>
   </g>
   <g id="matplotlib.axis_2">
    <g id="ytick_1">
     <g id="line2d_7">
      <defs>
       <path id="m62838dd95e" d="M 0 0 
L -8.25 0 
" style="stroke: #000000; stroke-width: 1.4"/>
      </defs>
      <g>
       <use xlink:href="#m62838dd95e" x="65.655625" y="147.983304" style="stroke: #000000; stroke-width: 1.4"/>
      </g>
     </g>
     <g id="text_8">
      <!-- −60 -->
      <g transform="translate(28.58 152.542367) scale(0.12 -0.12)">
       <defs>
        <path id="DejaVuSans-2212" d="M 678 2272 
L 4684 2272 
L 4684 1741 
L 678 1741 
L 678 2272 
z
" transform="scale(0.015625)"/>
        <path id="DejaVuSans-36" d="M 2113 2584 
Q 1688 2584 1439 2293 
Q 1191 2003 1191 1497 
Q 1191 994 1439 701 
Q 1688 409 2113 409 
Q 2538 409 2786 701 
Q 3034 994 3034 1497 
Q 3034 2003 2786 2293 
Q 2538 2584 2113 2584 
z
M 3366 4563 
L 3366 3988 
Q 3128 4100 2886 4159 
Q 2644 4219 2406 4219 
Q 1781 4219 1451 3797 
Q 1122 3375 1075 2522 
Q 1259 2794 1537 2939 
Q 1816 3084 2150 3084 
Q 2853 3084 3261 2657 
Q 3669 2231 3669 1497 
Q 3669 778 3244 343 
Q 2819 -91 2113 -91 
Q 1303 -91 875 529 
Q 447 1150 447 2328 
Q 447 3434 972 4092 
Q 1497 4750 2381 4750 
Q 2619 4750 2861 4703 
Q 3103 4656 3366 4563 
z
" transform="scale(0.015625)"/>
       </defs>
       <use xlink:href="#DejaVuSans-2212"/>
       <use xlink:href="#DejaVuSans-36" transform="translate(83.789062 0)"/>
       <use xlink:href="#DejaVuSans-30" transform="translate(147.412109 0)"/>
      </g>
     </g>
    </g>
    <g id="ytick_2">
     <g id="line2d_8">
      <g>
       <use xlink:href="#m62838dd95e" x="65.655625" y="107.489853" style="stroke: #000000; stroke-width: 1.4"/>
      </g>
     </g>
     <g id="text_9">
      <!-- −40 -->
      <g transform="translate(28.58 112.048915) scale(0.12 -0.12)">
       <use xlink:href="#DejaVuSans-2212"/>
       <use xlink:href="#DejaVuSans-34" transform="translate(83.789062 0)"/>
       <use xlink:href="#DejaVuSans-30" transform="translate(147.412109 0)"/>
      </g>
     </g>
    </g>
    <g id="ytick_3">
     <g id="line2d_9">
      <g>
       <use xlink:href="#m62838dd95e" x="65.655625" y="66.996401" style="stroke: #000000; stroke-width: 1.4"/>
      </g>
     </g>
     <g id="text_10">
      <!-- −20 -->
      <g transform="translate(28.58 71.555463) scale(0.12 -0.12)">
       <use xlink:href="#DejaVuSans-2212"/>
       <use xlink:href="#DejaVuSans-32" transform="translate(83.789062 0)"/>
       <use xlink:href="#DejaVuSans-30" transform="translate(147.412109 0)"/>
      </g>
     </g>
    </g>
    <g id="ytick_4">
     <g id="line2d_10">
      <g>
       <use xlink:href="#m62838dd95e" x="65.655625" y="26.502949" style="stroke: #000000; stroke-width: 1.4"/>
      </g>
     </g>
     <g id="text_11">
      <!-- 0 -->
      <g transform="translate(46.270625 31.062012) scale(0.12 -0.12)">
       <use xlink:href="#DejaVuSans-30"/>
      </g>
     </g>
    </g>
    <g id="text_12">
     <!-- $\log\left(\frac{P(S)}{1 - P(S)}\right)$ -->
     <g transform="translate(19.08 120.885) rotate(-90) scale(0.11 -0.11)">
      <defs>
       <path id="DejaVuSans-6c" d="M 603 4863 
L 1178 4863 
L 1178 0 
L 603 0 
L 603 4863 
z
" transform="scale(0.015625)"/>
       <path id="DejaVuSans-67" d="M 2906 1791 
Q 2906 2416 2648 2759 
Q 2391 3103 1925 3103 
Q 1463 3103 1205 2759 
Q 947 2416 947 1791 
Q 947 1169 1205 825 
Q 1463 481 1925 481 
Q 2391 481 2648 825 
Q 2906 1169 2906 1791 
z
M 3481 434 
Q 3481 -459 3084 -895 
Q 2688 -1331 1869 -1331 
Q 1566 -1331 1297 -1286 
Q 1028 -1241 775 -1147 
L 775 -588 
Q 1028 -725 1275 -790 
Q 1522 -856 1778 -856 
Q 2344 -856 2625 -561 
Q 2906 -266 2906 331 
L 2906 616 
Q 2728 306 2450 153 
Q 2172 0 1784 0 
Q 1141 0 747 490 
Q 353 981 353 1791 
Q 353 2603 747 3093 
Q 1141 3584 1784 3584 
Q 2172 3584 2450 3431 
Q 2728 3278 2906 2969 
L 2906 3500 
L 3481 3500 
L 3481 434 
z
" transform="scale(0.015625)"/>
       <path id="STIXSizeTwoSym-Regular-28" d="M 3219 -1555 
L 3219 -1786 
Q 2144 -774 1517 730 
Q 890 2234 890 4115 
Q 890 6003 1533 7593 
Q 2176 9184 3219 10022 
L 3219 9811 
Q 2490 9062 1994 7606 
Q 1498 6150 1498 4115 
Q 1498 563 3219 -1555 
z
" transform="scale(0.015625)"/>
       <path id="DejaVuSans-Oblique-50" d="M 1081 4666 
L 2541 4666 
Q 3178 4666 3512 4369 
Q 3847 4072 3847 3500 
Q 3847 2731 3353 2303 
Q 2859 1875 1966 1875 
L 1172 1875 
L 806 0 
L 172 0 
L 1081 4666 
z
M 1613 4147 
L 1275 2394 
L 2069 2394 
Q 2606 2394 2893 2669 
Q 3181 2944 3181 3456 
Q 3181 3784 2986 3965 
Q 2791 4147 2438 4147 
L 1613 4147 
z
" transform="scale(0.015625)"/>
       <path id="DejaVuSans-Oblique-53" d="M 3859 4513 
L 3738 3897 
Q 3422 4066 3111 4152 
Q 2800 4238 2509 4238 
Q 1944 4238 1609 3991 
Q 1275 3744 1275 3334 
Q 1275 3109 1398 2989 
Q 1522 2869 2034 2731 
L 2413 2638 
Q 3053 2472 3303 2217 
Q 3553 1963 3553 1503 
Q 3553 797 2998 353 
Q 2444 -91 1538 -91 
Q 1166 -91 791 -17 
Q 416 56 38 206 
L 166 856 
Q 513 641 861 531 
Q 1209 422 1556 422 
Q 2147 422 2503 684 
Q 2859 947 2859 1369 
Q 2859 1650 2717 1795 
Q 2575 1941 2106 2059 
L 1728 2156 
Q 1081 2325 845 2545 
Q 609 2766 609 3163 
Q 609 3859 1145 4304 
Q 1681 4750 2541 4750 
Q 2875 4750 3203 4690 
Q 3531 4631 3859 4513 
z
" transform="scale(0.015625)"/>
       <path id="STIXSizeTwoSym-Regular-29" d="M 730 9792 
L 730 10022 
Q 1805 9011 2432 7507 
Q 3059 6003 3059 4115 
Q 3059 2234 2416 643 
Q 1773 -947 730 -1786 
L 730 -1574 
Q 1459 -826 1955 633 
Q 2451 2093 2451 4115 
Q 2451 7674 730 9792 
z
" transform="scale(0.015625)"/>
      </defs>
      <use xlink:href="#DejaVuSans-6c" transform="translate(0 0.96875)"/>
      <use xlink:href="#DejaVuSans-6f" transform="translate(27.783203 0.96875)"/>
      <use xlink:href="#DejaVuSans-67" transform="translate(88.964844 0.96875)"/>
      <use xlink:href="#STIXSizeTwoSym-Regular-28" transform="translate(168.677083 -25.109375) scale(0.84519)"/>
      <use xlink:href="#DejaVuSans-Oblique-50" transform="translate(283.44759 53.996875) scale(0.7)"/>
      <use xlink:href="#DejaVuSans-28" transform="translate(325.659504 53.996875) scale(0.7)"/>
      <use xlink:href="#DejaVuSans-Oblique-53" transform="translate(352.969075 53.996875) scale(0.7)"/>
      <use xlink:href="#DejaVuSans-29" transform="translate(397.402668 53.996875) scale(0.7)"/>
      <use xlink:href="#DejaVuSans-31" transform="translate(218.44759 -39.596875) scale(0.7)"/>
      <use xlink:href="#DejaVuSans-2212" transform="translate(276.621418 -39.596875) scale(0.7)"/>
      <use xlink:href="#DejaVuSans-Oblique-50" transform="translate(348.911458 -39.596875) scale(0.7)"/>
      <use xlink:href="#DejaVuSans-28" transform="translate(391.123372 -39.596875) scale(0.7)"/>
      <use xlink:href="#DejaVuSans-Oblique-53" transform="translate(418.432942 -39.596875) scale(0.7)"/>
      <use xlink:href="#DejaVuSans-29" transform="translate(462.866536 -39.596875) scale(0.7)"/>
      <use xlink:href="#STIXSizeTwoSym-Regular-29" transform="translate(502.676106 -25.109375) scale(0.84519)"/>
      <path d="M 218.44759 19.765625 
L 218.44759 26.015625 
L 490.176106 26.015625 
L 490.176106 19.765625 
L 218.44759 19.765625 
z
"/>
     </g>
    </g>
   </g>
   <g id="line2d_11">
    <path d="M 73.264716 165.96 
L 74.801906 164.558203 
L 76.339096 163.156407 
L 77.876286 161.75461 
L 79.413476 160.352814 
L 80.950666 158.951017 
L 82.487856 157.549221 
L 84.025046 156.147424 
L 85.562237 154.745628 
L 87.099427 153.343831 
L 88.636617 151.942035 
L 90.173807 150.540238 
L 91.710997 149.138442 
L 93.248187 147.736645 
L 94.785377 146.334849 
L 96.322567 144.933052 
L 97.859757 143.531256 
L 99.396947 142.129459 
L 100.934137 140.727663 
L 102.471327 139.325866 
L 104.008518 137.92407 
L 105.545708 136.522273 
L 107.082898 135.120477 
L 108.620088 133.71868 
L 110.157278 132.316884 
L 111.694468 130.915087 
L 113.231658 129.513291 
L 114.768848 128.111494 
L 116.306038 126.709698 
L 117.843228 125.307901 
L 119.380418 123.906105 
L 120.917608 122.504308 
L 122.454799 121.102512 
L 123.991989 119.700715 
L 125.529179 118.298919 
L 127.066369 116.897122 
L 128.603559 115.495326 
L 130.140749 114.093529 
L 131.677939 112.691733 
L 133.215129 111.289936 
L 134.752319 109.88814 
L 136.289509 108.486343 
L 137.826699 107.084547 
L 139.363889 105.68275 
L 140.90108 104.280954 
L 142.43827 102.879157 
L 143.97546 101.477361 
L 145.51265 100.075564 
L 147.04984 98.673768 
L 148.58703 97.271971 
L 150.12422 95.870175 
L 151.66141 94.468378 
L 153.1986 93.066582 
L 154.73579 91.664785 
L 156.27298 90.262989 
L 157.81017 88.861192 
L 159.347361 87.459396 
L 160.884551 86.057599 
L 162.421741 84.655803 
L 163.958931 83.254006 
L 165.496121 81.85221 
L 167.033311 80.450413 
L 168.570501 79.048617 
L 170.107691 77.64682 
L 171.644881 76.245024 
L 173.182071 74.843227 
L 174.719261 73.441431 
L 176.256451 72.039634 
L 177.793642 70.637838 
L 179.330832 69.236041 
L 180.868022 67.834245 
L 182.405212 66.432448 
L 183.942402 65.030652 
L 185.479592 63.628855 
L 187.016782 62.227059 
L 188.553972 60.825262 
L 190.091162 59.423466 
L 191.628352 58.021669 
L 193.165542 56.619873 
L 194.702732 55.218076 
L 196.239923 53.81628 
L 197.777113 52.414483 
L 199.314303 51.012687 
L 200.851493 49.61089 
L 202.388683 48.209094 
L 203.925873 46.807297 
L 205.463063 45.405501 
L 207.000253 44.003704 
L 208.537443 42.601908 
L 210.074633 41.200111 
L 211.611823 39.798315 
L 213.149013 38.396518 
L 214.686204 36.994722 
L 216.223394 35.592925 
L 217.760584 34.191129 
L 219.297774 32.789332 
L 220.834964 31.387536 
L 222.372154 29.985739 
L 223.909344 28.583943 
L 225.446534 27.182146 
" clip-path="url(#p912d365559)" style="fill: none; stroke: #808080; stroke-opacity: 0.3; stroke-linecap: square"/>
   </g>
   <g id="line2d_12">
    <path d="M 73.264716 117.560246 
L 74.801906 116.52186 
L 76.339096 115.483474 
L 77.876286 114.445087 
L 79.413476 113.406701 
L 80.950666 112.368315 
L 82.487856 111.329928 
L 84.025046 110.291542 
L 85.562237 109.253156 
L 87.099427 108.214769 
L 88.636617 107.176383 
L 90.173807 106.137997 
L 91.710997 105.09961 
L 93.248187 104.061224 
L 94.785377 103.022838 
L 96.322567 101.984451 
L 97.859757 100.946065 
L 99.396947 99.907679 
L 100.934137 98.869292 
L 102.471327 97.830906 
L 104.008518 96.79252 
L 105.545708 95.754134 
L 107.082898 94.715747 
L 108.620088 93.677361 
L 110.157278 92.638975 
L 111.694468 91.600588 
L 113.231658 90.562202 
L 114.768848 89.523816 
L 116.306038 88.485429 
L 117.843228 87.447043 
L 119.380418 86.408657 
L 120.917608 85.37027 
L 122.454799 84.331884 
L 123.991989 83.293498 
L 125.529179 82.255111 
L 127.066369 81.216725 
L 128.603559 80.178339 
L 130.140749 79.139952 
L 131.677939 78.101566 
L 133.215129 77.06318 
L 134.752319 76.024793 
L 136.289509 74.986407 
L 137.826699 73.948021 
L 139.363889 72.909634 
L 140.90108 71.871248 
L 142.43827 70.832862 
L 143.97546 69.794475 
L 145.51265 68.756089 
L 147.04984 67.717703 
L 148.58703 66.679316 
L 150.12422 65.64093 
L 151.66141 64.602544 
L 153.1986 63.564157 
L 154.73579 62.525771 
L 156.27298 61.487385 
L 157.81017 60.448998 
L 159.347361 59.410612 
L 160.884551 58.372226 
L 162.421741 57.333839 
L 163.958931 56.295453 
L 165.496121 55.257067 
L 167.033311 54.21868 
L 168.570501 53.180294 
L 170.107691 52.141908 
L 171.644881 51.103521 
L 173.182071 50.065135 
L 174.719261 49.026749 
L 176.256451 47.988362 
L 177.793642 46.949976 
L 179.330832 45.91159 
L 180.868022 44.873203 
L 182.405212 43.834817 
L 183.942402 42.796431 
L 185.479592 41.758045 
L 187.016782 40.719658 
L 188.553972 39.681272 
L 190.091162 38.642886 
L 191.628352 37.604499 
L 193.165542 36.566113 
L 194.702732 35.527727 
L 196.239923 34.48934 
L 197.777113 33.450954 
L 199.314303 32.412568 
L 200.851493 31.374181 
L 202.388683 30.335795 
L 203.925873 29.297409 
L 205.463063 28.259022 
L 207.000253 27.220636 
L 208.537443 26.18225 
L 210.074633 25.143863 
L 211.611823 24.105477 
L 213.149013 23.067091 
L 214.686204 22.028704 
L 216.223394 20.990318 
L 217.760584 19.951932 
L 219.297774 18.913545 
L 220.834964 17.875159 
L 222.372154 16.836773 
L 223.909344 15.798386 
L 225.446534 14.76 
" clip-path="url(#p912d365559)" style="fill: none; stroke: #808080; stroke-opacity: 0.3; stroke-linecap: square"/>
   </g>
   <g id="line2d_13">
    <path d="M 73.264716 135.40311 
L 74.801906 134.242217 
L 76.339096 133.081323 
L 77.876286 131.92043 
L 79.413476 130.759536 
L 80.950666 129.598642 
L 82.487856 128.437749 
L 84.025046 127.276855 
L 85.562237 126.115962 
L 87.099427 124.955068 
L 88.636617 123.794175 
L 90.173807 122.633281 
L 91.710997 121.472388 
L 93.248187 120.311494 
L 94.785377 119.150601 
L 96.322567 117.989707 
L 97.859757 116.828814 
L 99.396947 115.66792 
L 100.934137 114.507027 
L 102.471327 113.346133 
L 104.008518 112.18524 
L 105.545708 111.024346 
L 107.082898 109.863453 
L 108.620088 108.702559 
L 110.157278 107.541665 
L 111.694468 106.380772 
L 113.231658 105.219878 
L 114.768848 104.058985 
L 116.306038 102.898091 
L 117.843228 101.737198 
L 119.380418 100.576304 
L 120.917608 99.415411 
L 122.454799 98.254517 
L 123.991989 97.093624 
L 125.529179 95.93273 
L 127.066369 94.771837 
L 128.603559 93.610943 
L 130.140749 92.45005 
L 131.677939 91.289156 
L 133.215129 90.128263 
L 134.752319 88.967369 
L 136.289509 87.806476 
L 137.826699 86.645582 
L 139.363889 85.484688 
L 140.90108 84.323795 
L 142.43827 83.162901 
L 143.97546 82.002008 
L 145.51265 80.841114 
L 147.04984 79.680221 
L 148.58703 78.519327 
L 150.12422 77.358434 
L 151.66141 76.19754 
L 153.1986 75.036647 
L 154.73579 73.875753 
L 156.27298 72.71486 
L 157.81017 71.553966 
L 159.347361 70.393073 
L 160.884551 69.232179 
L 162.421741 68.071286 
L 163.958931 66.910392 
L 165.496121 65.749499 
L 167.033311 64.588605 
L 168.570501 63.427711 
L 170.107691 62.266818 
L 171.644881 61.105924 
L 173.182071 59.945031 
L 174.719261 58.784137 
L 176.256451 57.623244 
L 177.793642 56.46235 
L 179.330832 55.301457 
L 180.868022 54.140563 
L 182.405212 52.97967 
L 183.942402 51.818776 
L 185.479592 50.657883 
L 187.016782 49.496989 
L 188.553972 48.336096 
L 190.091162 47.175202 
L 191.628352 46.014309 
L 193.165542 44.853415 
L 194.702732 43.692522 
L 196.239923 42.531628 
L 197.777113 41.370735 
L 199.314303 40.209841 
L 200.851493 39.048947 
L 202.388683 37.888054 
L 203.925873 36.72716 
L 205.463063 35.566267 
L 207.000253 34.405373 
L 208.537443 33.24448 
L 210.074633 32.083586 
L 211.611823 30.922693 
L 213.149013 29.761799 
L 214.686204 28.600906 
L 216.223394 27.440012 
L 217.760584 26.279119 
L 219.297774 25.118225 
L 220.834964 23.957332 
L 222.372154 22.796438 
L 223.909344 21.635545 
L 225.446534 20.474651 
" clip-path="url(#p912d365559)" style="fill: none; stroke: #808080; stroke-opacity: 0.3; stroke-linecap: square"/>
   </g>
   <g id="line2d_14">
    <path d="M 73.264716 139.641119 
L 74.801906 138.44076 
L 76.339096 137.240401 
L 77.876286 136.040042 
L 79.413476 134.839684 
L 80.950666 133.639325 
L 82.487856 132.438966 
L 84.025046 131.238607 
L 85.562237 130.038249 
L 87.099427 128.83789 
L 88.636617 127.637531 
L 90.173807 126.437172 
L 91.710997 125.236813 
L 93.248187 124.036455 
L 94.785377 122.836096 
L 96.322567 121.635737 
L 97.859757 120.435378 
L 99.396947 119.235019 
L 100.934137 118.034661 
L 102.471327 116.834302 
L 104.008518 115.633943 
L 105.545708 114.433584 
L 107.082898 113.233226 
L 108.620088 112.032867 
L 110.157278 110.832508 
L 111.694468 109.632149 
L 113.231658 108.43179 
L 114.768848 107.231432 
L 116.306038 106.031073 
L 117.843228 104.830714 
L 119.380418 103.630355 
L 120.917608 102.429996 
L 122.454799 101.229638 
L 123.991989 100.029279 
L 125.529179 98.82892 
L 127.066369 97.628561 
L 128.603559 96.428203 
L 130.140749 95.227844 
L 131.677939 94.027485 
L 133.215129 92.827126 
L 134.752319 91.626767 
L 136.289509 90.426409 
L 137.826699 89.22605 
L 139.363889 88.025691 
L 140.90108 86.825332 
L 142.43827 85.624973 
L 143.97546 84.424615 
L 145.51265 83.224256 
L 147.04984 82.023897 
L 148.58703 80.823538 
L 150.12422 79.62318 
L 151.66141 78.422821 
L 153.1986 77.222462 
L 154.73579 76.022103 
L 156.27298 74.821744 
L 157.81017 73.621386 
L 159.347361 72.421027 
L 160.884551 71.220668 
L 162.421741 70.020309 
L 163.958931 68.81995 
L 165.496121 67.619592 
L 167.033311 66.419233 
L 168.570501 65.218874 
L 170.107691 64.018515 
L 171.644881 62.818157 
L 173.182071 61.617798 
L 174.719261 60.417439 
L 176.256451 59.21708 
L 177.793642 58.016721 
L 179.330832 56.816363 
L 180.868022 55.616004 
L 182.405212 54.415645 
L 183.942402 53.215286 
L 185.479592 52.014927 
L 187.016782 50.814569 
L 188.553972 49.61421 
L 190.091162 48.413851 
L 191.628352 47.213492 
L 193.165542 46.013134 
L 194.702732 44.812775 
L 196.239923 43.612416 
L 197.777113 42.412057 
L 199.314303 41.211698 
L 200.851493 40.01134 
L 202.388683 38.810981 
L 203.925873 37.610622 
L 205.463063 36.410263 
L 207.000253 35.209904 
L 208.537443 34.009546 
L 210.074633 32.809187 
L 211.611823 31.608828 
L 213.149013 30.408469 
L 214.686204 29.208111 
L 216.223394 28.007752 
L 217.760584 26.807393 
L 219.297774 25.607034 
L 220.834964 24.406675 
L 222.372154 23.206317 
L 223.909344 22.005958 
L 225.446534 20.805599 
" clip-path="url(#p912d365559)" style="fill: none; stroke: #000000; stroke-width: 2; stroke-linecap: square"/>
   </g>
   <g id="patch_3">
    <path d="M 65.655625 173.52 
L 65.655625 7.2 
" style="fill: none; stroke: #000000; stroke-width: 1.2; stroke-linejoin: miter; stroke-linecap: square"/>
   </g>
   <g id="patch_4">
    <path d="M 73.264716 173.52 
L 225.446534 173.52 
" style="fill: none; stroke: #000000; stroke-width: 1.2; stroke-linejoin: miter; stroke-linecap: square"/>
   </g>
   <g id="text_13">
    <!-- $n = 3$ monkeys -->
    <g style="fill: #808080" transform="translate(174.465625 156.888) scale(0.11 -0.11)">
     <defs>
      <path id="DejaVuSans-Oblique-6e" d="M 3566 2113 
L 3156 0 
L 2578 0 
L 2988 2091 
Q 3016 2238 3031 2350 
Q 3047 2463 3047 2528 
Q 3047 2791 2881 2937 
Q 2716 3084 2419 3084 
Q 1956 3084 1622 2776 
Q 1288 2469 1184 1941 
L 800 0 
L 225 0 
L 903 3500 
L 1478 3500 
L 1363 2950 
Q 1603 3253 1940 3418 
Q 2278 3584 2650 3584 
Q 3113 3584 3367 3334 
Q 3622 3084 3622 2631 
Q 3622 2519 3608 2391 
Q 3594 2263 3566 2113 
z
" transform="scale(0.015625)"/>
      <path id="DejaVuSans-3d" d="M 678 2906 
L 4684 2906 
L 4684 2381 
L 678 2381 
L 678 2906 
z
M 678 1631 
L 4684 1631 
L 4684 1100 
L 678 1100 
L 678 1631 
z
" transform="scale(0.015625)"/>
      <path id="DejaVuSans-6d" d="M 3328 2828 
Q 3544 3216 3844 3400 
Q 4144 3584 4550 3584 
Q 5097 3584 5394 3201 
Q 5691 2819 5691 2113 
L 5691 0 
L 5113 0 
L 5113 2094 
Q 5113 2597 4934 2840 
Q 4756 3084 4391 3084 
Q 3944 3084 3684 2787 
Q 3425 2491 3425 1978 
L 3425 0 
L 2847 0 
L 2847 2094 
Q 2847 2600 2669 2842 
Q 2491 3084 2119 3084 
Q 1678 3084 1418 2786 
Q 1159 2488 1159 1978 
L 1159 0 
L 581 0 
L 581 3500 
L 1159 3500 
L 1159 2956 
Q 1356 3278 1631 3431 
Q 1906 3584 2284 3584 
Q 2666 3584 2933 3390 
Q 3200 3197 3328 2828 
z
" transform="scale(0.015625)"/>
      <path id="DejaVuSans-6b" d="M 581 4863 
L 1159 4863 
L 1159 1991 
L 2875 3500 
L 3609 3500 
L 1753 1863 
L 3688 0 
L 2938 0 
L 1159 1709 
L 1159 0 
L 581 0 
L 581 4863 
z
" transform="scale(0.015625)"/>
      <path id="DejaVuSans-65" d="M 3597 1894 
L 3597 1613 
L 953 1613 
Q 991 1019 1311 708 
Q 1631 397 2203 397 
Q 2534 397 2845 478 
Q 3156 559 3463 722 
L 3463 178 
Q 3153 47 2828 -22 
Q 2503 -91 2169 -91 
Q 1331 -91 842 396 
Q 353 884 353 1716 
Q 353 2575 817 3079 
Q 1281 3584 2069 3584 
Q 2775 3584 3186 3129 
Q 3597 2675 3597 1894 
z
M 3022 2063 
Q 3016 2534 2758 2815 
Q 2500 3097 2075 3097 
Q 1594 3097 1305 2825 
Q 1016 2553 972 2059 
L 3022 2063 
z
" transform="scale(0.015625)"/>
     </defs>
     <use xlink:href="#DejaVuSans-Oblique-6e" transform="translate(0 0.015625)"/>
     <use xlink:href="#DejaVuSans-3d" transform="translate(82.861328 0.015625)"/>
     <use xlink:href="#DejaVuSans-33" transform="translate(186.132812 0.015625)"/>
     <use xlink:href="#DejaVuSans-20" transform="translate(249.755859 0.015625)"/>
     <use xlink:href="#DejaVuSans-6d" transform="translate(281.542969 0.015625)"/>
     <use xlink:href="#DejaVuSans-6f" transform="translate(378.955078 0.015625)"/>
     <use xlink:href="#DejaVuSans-6e" transform="translate(440.136719 0.015625)"/>
     <use xlink:href="#DejaVuSans-6b" transform="translate(503.515625 0.015625)"/>
     <use xlink:href="#DejaVuSans-65" transform="translate(561.425781 0.015625)"/>
     <use xlink:href="#DejaVuSans-79" transform="translate(622.949219 0.015625)"/>
     <use xlink:href="#DejaVuSans-73" transform="translate(682.128906 0.015625)"/>
    </g>
   </g>
   <g id="text_14">
    <!-- $p &lt; 0.01$ -->
    <g transform="translate(174.465625 169.362) scale(0.11 -0.11)">
     <defs>
      <path id="DejaVuSans-Oblique-70" d="M 3175 2156 
Q 3175 2616 2975 2859 
Q 2775 3103 2400 3103 
Q 2144 3103 1911 2972 
Q 1678 2841 1497 2591 
Q 1319 2344 1212 1994 
Q 1106 1644 1106 1300 
Q 1106 863 1306 627 
Q 1506 391 1875 391 
Q 2147 391 2380 519 
Q 2613 647 2778 891 
Q 2956 1147 3065 1494 
Q 3175 1841 3175 2156 
z
M 1394 2969 
Q 1625 3272 1939 3428 
Q 2253 3584 2638 3584 
Q 3175 3584 3472 3232 
Q 3769 2881 3769 2247 
Q 3769 1728 3584 1258 
Q 3400 788 3053 416 
Q 2822 169 2531 39 
Q 2241 -91 1919 -91 
Q 1547 -91 1294 64 
Q 1041 219 916 525 
L 556 -1331 
L -19 -1331 
L 922 3500 
L 1497 3500 
L 1394 2969 
z
" transform="scale(0.015625)"/>
      <path id="DejaVuSans-3c" d="M 4684 3150 
L 1459 2003 
L 4684 863 
L 4684 294 
L 678 1747 
L 678 2266 
L 4684 3719 
L 4684 3150 
z
" transform="scale(0.015625)"/>
      <path id="DejaVuSans-2e" d="M 684 794 
L 1344 794 
L 1344 0 
L 684 0 
L 684 794 
z
" transform="scale(0.015625)"/>
     </defs>
     <use xlink:href="#DejaVuSans-Oblique-70" transform="translate(0 0.78125)"/>
     <use xlink:href="#DejaVuSans-3c" transform="translate(82.958984 0.78125)"/>
     <use xlink:href="#DejaVuSans-30" transform="translate(186.230469 0.78125)"/>
     <use xlink:href="#DejaVuSans-2e" transform="translate(249.853516 0.78125)"/>
     <use xlink:href="#DejaVuSans-30" transform="translate(281.640625 0.78125)"/>
     <use xlink:href="#DejaVuSans-31" transform="translate(345.263672 0.78125)"/>
    </g>
   </g>
  </g>
 </g>
 <defs>
  <clipPath id="p912d365559">
   <rect x="65.655625" y="7.2" width="167.4" height="166.32"/>
  </clipPath>
 </defs>
</svg>
