<?xml version="1.0" encoding="utf-8" standalone="no"?>
<!DOCTYPE svg PUBLIC "-//W3C//DTD SVG 1.1//EN"
  "http://www.w3.org/Graphics/SVG/1.1/DTD/svg11.dtd">
<svg xmlns:xlink="http://www.w3.org/1999/xlink" width="262.515625pt" height="218.729688pt" viewBox="0 0 262.515625 218.729688" xmlns="http://www.w3.org/2000/svg" version="1.1">
 <metadata>
  <rdf:RDF xmlns:dc="http://purl.org/dc/elements/1.1/" xmlns:cc="http://creativecommons.org/ns#" xmlns:rdf="http://www.w3.org/1999/02/22-rdf-syntax-ns#">
   <cc:Work>
    <dc:type rdf:resource="http://purl.org/dc/dcmitype/StillImage"/>
    <dc:date>2025-11-20T18:56:48.495509</dc:date>
    <dc:format>image/svg+xml</dc:format>
    <dc:creator>
     <cc:Agent>
      <dc:title>Matplotlib v3.10.6, https://matplotlib.org/</dc:title>
     </cc:Agent>
    </dc:creator>
   </cc:Work>
  </rdf:RDF>
 </metadata>
 <defs>
  <style type="text/css">*{stroke-linejoin: round; stroke-linecap: butt}</style>
 </defs>
 <g id="figure_1">
  <g id="patch_1">
   <path d="M 0 218.729688 
L 262.515625 218.729688 
L 262.515625 0 
L 0 0 
L 0 218.729688 
z
" style="fill: none"/>
  </g>
  <g id="axes_1">
   <g id="patch_2">
    <path d="M 65.655625 173.52 
L 233.055625 173.52 
L 233.055625 7.2 
L 65.655625 7.2 
L 65.655625 173.52 
z
" style="fill: none"/>
   </g>
   <g id="matplotlib.axis_1">
    <g id="xtick_1">
     <g id="line2d_1">
      <defs>
       <path id="m7b067a03f7" d="M 0 0 
L 0 8.25 
" style="stroke: #000000; stroke-width: 1.4"/>
      </defs>
      <g>
       <use xlink:href="#m7b067a03f7" x="73.264716" y="173.52" style="stroke: #000000; stroke-width: 1.4"/>
      </g>
     </g>
     <g id="text_1">
      <!-- 0 -->
      <g transform="translate(69.447216 194.388125) scale(0.12 -0.12)">
       <defs>
        <path id="DejaVuSans-30" d="M 2034 4250 
Q 1547 4250 1301 3770 
Q 1056 3291 1056 2328 
Q 1056 1369 1301 889 
Q 1547 409 2034 409 
Q 2525 409 2770 889 
Q 3016 1369 3016 2328 
Q 3016 3291 2770 3770 
Q 2525 4250 2034 4250 
z
M 2034 4750 
Q 2819 4750 3233 4129 
Q 3647 3509 3647 2328 
Q 3647 1150 3233 529 
Q 2819 -91 2034 -91 
Q 1250 -91 836 529 
Q 422 1150 422 2328 
Q 422 3509 836 4129 
Q 1250 4750 2034 4750 
z
" transform="scale(0.015625)"/>
       </defs>
       <use xlink:href="#DejaVuSans-30"/>
      </g>
     </g>
    </g>
    <g id="xtick_2">
     <g id="line2d_2">
      <g>
       <use xlink:href="#m7b067a03f7" x="225.446534" y="173.52" style="stroke: #000000; stroke-width: 1.4"/>
      </g>
     </g>
     <g id="text_2">
      <!-- 1 -->
      <g transform="translate(221.629034 194.388125) scale(0.12 -0.12)">
       <defs>
        <path id="DejaVuSans-31" d="M 794 531 
L 1825 531 
L 1825 4091 
L 703 3866 
L 703 4441 
L 1819 4666 
L 2450 4666 
L 2450 531 
L 3481 531 
L 3481 0 
L 794 0 
L 794 531 
z
" transform="scale(0.015625)"/>
       </defs>
       <use xlink:href="#DejaVuSans-31"/>
      </g>
     </g>
    </g>
    <g id="text_3">
     <!-- Mutual information (bits) -->
     <g transform="translate(81.012969 209.242031) scale(0.11 -0.11)">
      <defs>
       <path id="DejaVuSans-4d" d="M 628 4666 
L 1569 4666 
L 2759 1491 
L 3956 4666 
L 4897 4666 
L 4897 0 
L 4281 0 
L 4281 4097 
L 3078 897 
L 2444 897 
L 1241 4097 
L 1241 0 
L 628 0 
L 628 4666 
z
" transform="scale(0.015625)"/>
       <path id="DejaVuSans-75" d="M 544 1381 
L 544 3500 
L 1119 3500 
L 1119 1403 
Q 1119 906 1312 657 
Q 1506 409 1894 409 
Q 2359 409 2629 706 
Q 2900 1003 2900 1516 
L 2900 3500 
L 3475 3500 
L 3475 0 
L 2900 0 
L 2900 538 
Q 2691 219 2414 64 
Q 2138 -91 1772 -91 
Q 1169 -91 856 284 
Q 544 659 544 1381 
z
M 1991 3584 
L 1991 3584 
z
" transform="scale(0.015625)"/>
       <path id="DejaVuSans-74" d="M 1172 4494 
L 1172 3500 
L 2356 3500 
L 2356 3053 
L 1172 3053 
L 1172 1153 
Q 1172 725 1289 603 
Q 1406 481 1766 481 
L 2356 481 
L 2356 0 
L 1766 0 
Q 1100 0 847 248 
Q 594 497 594 1153 
L 594 3053 
L 172 3053 
L 172 3500 
L 594 3500 
L 594 4494 
L 1172 4494 
z
" transform="scale(0.015625)"/>
       <path id="DejaVuSans-61" d="M 2194 1759 
Q 1497 1759 1228 1600 
Q 959 1441 959 1056 
Q 959 750 1161 570 
Q 1363 391 1709 391 
Q 2188 391 2477 730 
Q 2766 1069 2766 1631 
L 2766 1759 
L 2194 1759 
z
M 3341 1997 
L 3341 0 
L 2766 0 
L 2766 531 
Q 2569 213 2275 61 
Q 1981 -91 1556 -91 
Q 1019 -91 701 211 
Q 384 513 384 1019 
Q 384 1609 779 1909 
Q 1175 2209 1959 2209 
L 2766 2209 
L 2766 2266 
Q 2766 2663 2505 2880 
Q 2244 3097 1772 3097 
Q 1472 3097 1187 3025 
Q 903 2953 641 2809 
L 641 3341 
Q 956 3463 1253 3523 
Q 1550 3584 1831 3584 
Q 2591 3584 2966 3190 
Q 3341 2797 3341 1997 
z
" transform="scale(0.015625)"/>
       <path id="DejaVuSans-6c" d="M 603 4863 
L 1178 4863 
L 1178 0 
L 603 0 
L 603 4863 
z
" transform="scale(0.015625)"/>
       <path id="DejaVuSans-20" transform="scale(0.015625)"/>
       <path id="DejaVuSans-69" d="M 603 3500 
L 1178 3500 
L 1178 0 
L 603 0 
L 603 3500 
z
M 603 4863 
L 1178 4863 
L 1178 4134 
L 603 4134 
L 603 4863 
z
" transform="scale(0.015625)"/>
       <path id="DejaVuSans-6e" d="M 3513 2113 
L 3513 0 
L 2938 0 
L 2938 2094 
Q 2938 2591 2744 2837 
Q 2550 3084 2163 3084 
Q 1697 3084 1428 2787 
Q 1159 2491 1159 1978 
L 1159 0 
L 581 0 
L 581 3500 
L 1159 3500 
L 1159 2956 
Q 1366 3272 1645 3428 
Q 1925 3584 2291 3584 
Q 2894 3584 3203 3211 
Q 3513 2838 3513 2113 
z
" transform="scale(0.015625)"/>
       <path id="DejaVuSans-66" d="M 2375 4863 
L 2375 4384 
L 1825 4384 
Q 1516 4384 1395 4259 
Q 1275 4134 1275 3809 
L 1275 3500 
L 2222 3500 
L 2222 3053 
L 1275 3053 
L 1275 0 
L 697 0 
L 697 3053 
L 147 3053 
L 147 3500 
L 697 3500 
L 697 3744 
Q 697 4328 969 4595 
Q 1241 4863 1831 4863 
L 2375 4863 
z
" transform="scale(0.015625)"/>
       <path id="DejaVuSans-6f" d="M 1959 3097 
Q 1497 3097 1228 2736 
Q 959 2375 959 1747 
Q 959 1119 1226 758 
Q 1494 397 1959 397 
Q 2419 397 2687 759 
Q 2956 1122 2956 1747 
Q 2956 2369 2687 2733 
Q 2419 3097 1959 3097 
z
M 1959 3584 
Q 2709 3584 3137 3096 
Q 3566 2609 3566 1747 
Q 3566 888 3137 398 
Q 2709 -91 1959 -91 
Q 1206 -91 779 398 
Q 353 888 353 1747 
Q 353 2609 779 3096 
Q 1206 3584 1959 3584 
z
" transform="scale(0.015625)"/>
       <path id="DejaVuSans-72" d="M 2631 2963 
Q 2534 3019 2420 3045 
Q 2306 3072 2169 3072 
Q 1681 3072 1420 2755 
Q 1159 2438 1159 1844 
L 1159 0 
L 581 0 
L 581 3500 
L 1159 3500 
L 1159 2956 
Q 1341 3275 1631 3429 
Q 1922 3584 2338 3584 
Q 2397 3584 2469 3576 
Q 2541 3569 2628 3553 
L 2631 2963 
z
" transform="scale(0.015625)"/>
       <path id="DejaVuSans-6d" d="M 3328 2828 
Q 3544 3216 3844 3400 
Q 4144 3584 4550 3584 
Q 5097 3584 5394 3201 
Q 5691 2819 5691 2113 
L 5691 0 
L 5113 0 
L 5113 2094 
Q 5113 2597 4934 2840 
Q 4756 3084 4391 3084 
Q 3944 3084 3684 2787 
Q 3425 2491 3425 1978 
L 3425 0 
L 2847 0 
L 2847 2094 
Q 2847 2600 2669 2842 
Q 2491 3084 2119 3084 
Q 1678 3084 1418 2786 
Q 1159 2488 1159 1978 
L 1159 0 
L 581 0 
L 581 3500 
L 1159 3500 
L 1159 2956 
Q 1356 3278 1631 3431 
Q 1906 3584 2284 3584 
Q 2666 3584 2933 3390 
Q 3200 3197 3328 2828 
z
" transform="scale(0.015625)"/>
       <path id="DejaVuSans-28" d="M 1984 4856 
Q 1566 4138 1362 3434 
Q 1159 2731 1159 2009 
Q 1159 1288 1364 580 
Q 1569 -128 1984 -844 
L 1484 -844 
Q 1016 -109 783 600 
Q 550 1309 550 2009 
Q 550 2706 781 3412 
Q 1013 4119 1484 4856 
L 1984 4856 
z
" transform="scale(0.015625)"/>
       <path id="DejaVuSans-62" d="M 3116 1747 
Q 3116 2381 2855 2742 
Q 2594 3103 2138 3103 
Q 1681 3103 1420 2742 
Q 1159 2381 1159 1747 
Q 1159 1113 1420 752 
Q 1681 391 2138 391 
Q 2594 391 2855 752 
Q 3116 1113 3116 1747 
z
M 1159 2969 
Q 1341 3281 1617 3432 
Q 1894 3584 2278 3584 
Q 2916 3584 3314 3078 
Q 3713 2572 3713 1747 
Q 3713 922 3314 415 
Q 2916 -91 2278 -91 
Q 1894 -91 1617 61 
Q 1341 213 1159 525 
L 1159 0 
L 581 0 
L 581 4863 
L 1159 4863 
L 1159 2969 
z
" transform="scale(0.015625)"/>
       <path id="DejaVuSans-73" d="M 2834 3397 
L 2834 2853 
Q 2591 2978 2328 3040 
Q 2066 3103 1784 3103 
Q 1356 3103 1142 2972 
Q 928 2841 928 2578 
Q 928 2378 1081 2264 
Q 1234 2150 1697 2047 
L 1894 2003 
Q 2506 1872 2764 1633 
Q 3022 1394 3022 966 
Q 3022 478 2636 193 
Q 2250 -91 1575 -91 
Q 1294 -91 989 -36 
Q 684 19 347 128 
L 347 722 
Q 666 556 975 473 
Q 1284 391 1588 391 
Q 1994 391 2212 530 
Q 2431 669 2431 922 
Q 2431 1156 2273 1281 
Q 2116 1406 1581 1522 
L 1381 1569 
Q 847 1681 609 1914 
Q 372 2147 372 2553 
Q 372 3047 722 3315 
Q 1072 3584 1716 3584 
Q 2034 3584 2315 3537 
Q 2597 3491 2834 3397 
z
" transform="scale(0.015625)"/>
       <path id="DejaVuSans-29" d="M 513 4856 
L 1013 4856 
Q 1481 4119 1714 3412 
Q 1947 2706 1947 2009 
Q 1947 1309 1714 600 
Q 1481 -109 1013 -844 
L 513 -844 
Q 928 -128 1133 580 
Q 1338 1288 1338 2009 
Q 1338 2731 1133 3434 
Q 928 4138 513 4856 
z
" transform="scale(0.015625)"/>
      </defs>
      <use xlink:href="#DejaVuSans-4d"/>
      <use xlink:href="#DejaVuSans-75" transform="translate(86.279297 0)"/>
      <use xlink:href="#DejaVuSans-74" transform="translate(149.658203 0)"/>
      <use xlink:href="#DejaVuSans-75" transform="translate(188.867188 0)"/>
      <use xlink:href="#DejaVuSans-61" transform="translate(252.246094 0)"/>
      <use xlink:href="#DejaVuSans-6c" transform="translate(313.525391 0)"/>
      <use xlink:href="#DejaVuSans-20" transform="translate(341.308594 0)"/>
      <use xlink:href="#DejaVuSans-69" transform="translate(373.095703 0)"/>
      <use xlink:href="#DejaVuSans-6e" transform="translate(400.878906 0)"/>
      <use xlink:href="#DejaVuSans-66" transform="translate(464.257812 0)"/>
      <use xlink:href="#DejaVuSans-6f" transform="translate(499.462891 0)"/>
      <use xlink:href="#DejaVuSans-72" transform="translate(560.644531 0)"/>
      <use xlink:href="#DejaVuSans-6d" transform="translate(600.007812 0)"/>
      <use xlink:href="#DejaVuSans-61" transform="translate(697.419922 0)"/>
      <use xlink:href="#DejaVuSans-74" transform="translate(758.699219 0)"/>
      <use xlink:href="#DejaVuSans-69" transform="translate(797.908203 0)"/>
      <use xlink:href="#DejaVuSans-6f" transform="translate(825.691406 0)"/>
      <use xlink:href="#DejaVuSans-6e" transform="translate(886.873047 0)"/>
      <use xlink:href="#DejaVuSans-20" transform="translate(950.251953 0)"/>
      <use xlink:href="#DejaVuSans-28" transform="translate(982.039062 0)"/>
      <use xlink:href="#DejaVuSans-62" transform="translate(1021.052734 0)"/>
      <use xlink:href="#DejaVuSans-69" transform="translate(1084.529297 0)"/>
      <use xlink:href="#DejaVuSans-74" transform="translate(1112.3125 0)"/>
      <use xlink:href="#DejaVuSans-73" transform="translate(1151.521484 0)"/>
      <use xlink:href="#DejaVuSans-29" transform="translate(1203.621094 0)"/>
     </g>
    </g>
   </g>
   <g id="matplotlib.axis_2">
    <g id="ytick_1">
     <g id="line2d_3">
      <defs>
       <path id="mf0290da9a3" d="M 0 0 
L -8.25 0 
" style="stroke: #000000; stroke-width: 1.4"/>
      </defs>
      <g>
       <use xlink:href="#mf0290da9a3" x="65.655625" y="167.40501" style="stroke: #000000; stroke-width: 1.4"/>
      </g>
     </g>
     <g id="text_4">
      <!-- −10 -->
      <g transform="translate(28.58 171.964073) scale(0.12 -0.12)">
       <defs>
        <path id="DejaVuSans-2212" d="M 678 2272 
L 4684 2272 
L 4684 1741 
L 678 1741 
L 678 2272 
z
" transform="scale(0.015625)"/>
       </defs>
       <use xlink:href="#DejaVuSans-2212"/>
       <use xlink:href="#DejaVuSans-31" transform="translate(83.789062 0)"/>
       <use xlink:href="#DejaVuSans-30" transform="translate(147.412109 0)"/>
      </g>
     </g>
    </g>
    <g id="ytick_2">
     <g id="line2d_4">
      <g>
       <use xlink:href="#mf0290da9a3" x="65.655625" y="133.404789" style="stroke: #000000; stroke-width: 1.4"/>
      </g>
     </g>
     <g id="text_5">
      <!-- −5 -->
      <g transform="translate(36.215 137.963851) scale(0.12 -0.12)">
       <defs>
        <path id="DejaVuSans-35" d="M 691 4666 
L 3169 4666 
L 3169 4134 
L 1269 4134 
L 1269 2991 
Q 1406 3038 1543 3061 
Q 1681 3084 1819 3084 
Q 2600 3084 3056 2656 
Q 3513 2228 3513 1497 
Q 3513 744 3044 326 
Q 2575 -91 1722 -91 
Q 1428 -91 1123 -41 
Q 819 9 494 109 
L 494 744 
Q 775 591 1075 516 
Q 1375 441 1709 441 
Q 2250 441 2565 725 
Q 2881 1009 2881 1497 
Q 2881 1984 2565 2268 
Q 2250 2553 1709 2553 
Q 1456 2553 1204 2497 
Q 953 2441 691 2322 
L 691 4666 
z
" transform="scale(0.015625)"/>
       </defs>
       <use xlink:href="#DejaVuSans-2212"/>
       <use xlink:href="#DejaVuSans-35" transform="translate(83.789062 0)"/>
      </g>
     </g>
    </g>
    <g id="ytick_3">
     <g id="line2d_5">
      <g>
       <use xlink:href="#mf0290da9a3" x="65.655625" y="99.404567" style="stroke: #000000; stroke-width: 1.4"/>
      </g>
     </g>
     <g id="text_6">
      <!-- 0 -->
      <g transform="translate(46.270625 103.96363) scale(0.12 -0.12)">
       <use xlink:href="#DejaVuSans-30"/>
      </g>
     </g>
    </g>
    <g id="ytick_4">
     <g id="line2d_6">
      <g>
       <use xlink:href="#mf0290da9a3" x="65.655625" y="65.404346" style="stroke: #000000; stroke-width: 1.4"/>
      </g>
     </g>
     <g id="text_7">
      <!-- 5 -->
      <g transform="translate(46.270625 69.963408) scale(0.12 -0.12)">
       <use xlink:href="#DejaVuSans-35"/>
      </g>
     </g>
    </g>
    <g id="ytick_5">
     <g id="line2d_7">
      <g>
       <use xlink:href="#mf0290da9a3" x="65.655625" y="31.404124" style="stroke: #000000; stroke-width: 1.4"/>
      </g>
     </g>
     <g id="text_8">
      <!-- 10 -->
      <g transform="translate(38.635625 35.963187) scale(0.12 -0.12)">
       <use xlink:href="#DejaVuSans-31"/>
       <use xlink:href="#DejaVuSans-30" transform="translate(63.623047 0)"/>
      </g>
     </g>
    </g>
    <g id="text_9">
     <!-- $\log\left(\frac{P(S)}{1 - P(S)}\right)$ -->
     <g transform="translate(19.08 120.885) rotate(-90) scale(0.11 -0.11)">
      <defs>
       <path id="DejaVuSans-67" d="M 2906 1791 
Q 2906 2416 2648 2759 
Q 2391 3103 1925 3103 
Q 1463 3103 1205 2759 
Q 947 2416 947 1791 
Q 947 1169 1205 825 
Q 1463 481 1925 481 
Q 2391 481 2648 825 
Q 2906 1169 2906 1791 
z
M 3481 434 
Q 3481 -459 3084 -895 
Q 2688 -1331 1869 -1331 
Q 1566 -1331 1297 -1286 
Q 1028 -1241 775 -1147 
L 775 -588 
Q 1028 -725 1275 -790 
Q 1522 -856 1778 -856 
Q 2344 -856 2625 -561 
Q 2906 -266 2906 331 
L 2906 616 
Q 2728 306 2450 153 
Q 2172 0 1784 0 
Q 1141 0 747 490 
Q 353 981 353 1791 
Q 353 2603 747 3093 
Q 1141 3584 1784 3584 
Q 2172 3584 2450 3431 
Q 2728 3278 2906 2969 
L 2906 3500 
L 3481 3500 
L 3481 434 
z
" transform="scale(0.015625)"/>
       <path id="STIXSizeTwoSym-Regular-28" d="M 3219 -1555 
L 3219 -1786 
Q 2144 -774 1517 730 
Q 890 2234 890 4115 
Q 890 6003 1533 7593 
Q 2176 9184 3219 10022 
L 3219 9811 
Q 2490 9062 1994 7606 
Q 1498 6150 1498 4115 
Q 1498 563 3219 -1555 
z
" transform="scale(0.015625)"/>
       <path id="DejaVuSans-Oblique-50" d="M 1081 4666 
L 2541 4666 
Q 3178 4666 3512 4369 
Q 3847 4072 3847 3500 
Q 3847 2731 3353 2303 
Q 2859 1875 1966 1875 
L 1172 1875 
L 806 0 
L 172 0 
L 1081 4666 
z
M 1613 4147 
L 1275 2394 
L 2069 2394 
Q 2606 2394 2893 2669 
Q 3181 2944 3181 3456 
Q 3181 3784 2986 3965 
Q 2791 4147 2438 4147 
L 1613 4147 
z
" transform="scale(0.015625)"/>
       <path id="DejaVuSans-Oblique-53" d="M 3859 4513 
L 3738 3897 
Q 3422 4066 3111 4152 
Q 2800 4238 2509 4238 
Q 1944 4238 1609 3991 
Q 1275 3744 1275 3334 
Q 1275 3109 1398 2989 
Q 1522 2869 2034 2731 
L 2413 2638 
Q 3053 2472 3303 2217 
Q 3553 1963 3553 1503 
Q 3553 797 2998 353 
Q 2444 -91 1538 -91 
Q 1166 -91 791 -17 
Q 416 56 38 206 
L 166 856 
Q 513 641 861 531 
Q 1209 422 1556 422 
Q 2147 422 2503 684 
Q 2859 947 2859 1369 
Q 2859 1650 2717 1795 
Q 2575 1941 2106 2059 
L 1728 2156 
Q 1081 2325 845 2545 
Q 609 2766 609 3163 
Q 609 3859 1145 4304 
Q 1681 4750 2541 4750 
Q 2875 4750 3203 4690 
Q 3531 4631 3859 4513 
z
" transform="scale(0.015625)"/>
       <path id="STIXSizeTwoSym-Regular-29" d="M 730 9792 
L 730 10022 
Q 1805 9011 2432 7507 
Q 3059 6003 3059 4115 
Q 3059 2234 2416 643 
Q 1773 -947 730 -1786 
L 730 -1574 
Q 1459 -826 1955 633 
Q 2451 2093 2451 4115 
Q 2451 7674 730 9792 
z
" transform="scale(0.015625)"/>
      </defs>
      <use xlink:href="#DejaVuSans-6c" transform="translate(0 0.96875)"/>
      <use xlink:href="#DejaVuSans-6f" transform="translate(27.783203 0.96875)"/>
      <use xlink:href="#DejaVuSans-67" transform="translate(88.964844 0.96875)"/>
      <use xlink:href="#STIXSizeTwoSym-Regular-28" transform="translate(168.677083 -25.109375) scale(0.84519)"/>
      <use xlink:href="#DejaVuSans-Oblique-50" transform="translate(283.44759 53.996875) scale(0.7)"/>
      <use xlink:href="#DejaVuSans-28" transform="translate(325.659504 53.996875) scale(0.7)"/>
      <use xlink:href="#DejaVuSans-Oblique-53" transform="translate(352.969075 53.996875) scale(0.7)"/>
      <use xlink:href="#DejaVuSans-29" transform="translate(397.402668 53.996875) scale(0.7)"/>
      <use xlink:href="#DejaVuSans-31" transform="translate(218.44759 -39.596875) scale(0.7)"/>
      <use xlink:href="#DejaVuSans-2212" transform="translate(276.621418 -39.596875) scale(0.7)"/>
      <use xlink:href="#DejaVuSans-Oblique-50" transform="translate(348.911458 -39.596875) scale(0.7)"/>
      <use xlink:href="#DejaVuSans-28" transform="translate(391.123372 -39.596875) scale(0.7)"/>
      <use xlink:href="#DejaVuSans-Oblique-53" transform="translate(418.432942 -39.596875) scale(0.7)"/>
      <use xlink:href="#DejaVuSans-29" transform="translate(462.866536 -39.596875) scale(0.7)"/>
      <use xlink:href="#STIXSizeTwoSym-Regular-29" transform="translate(502.676106 -25.109375) scale(0.84519)"/>
      <path d="M 218.44759 19.765625 
L 218.44759 26.015625 
L 490.176106 26.015625 
L 490.176106 19.765625 
L 218.44759 19.765625 
z
"/>
     </g>
    </g>
   </g>
   <g id="line2d_8">
    <path d="M 73.264716 109.465819 
L 74.801906 109.862524 
L 76.339096 110.259229 
L 77.876286 110.655934 
L 79.413476 111.052639 
L 80.950666 111.449344 
L 82.487856 111.846048 
L 84.025046 112.242753 
L 85.562237 112.639458 
L 87.099427 113.036163 
L 88.636617 113.432868 
L 90.173807 113.829573 
L 91.710997 114.226278 
L 93.248187 114.622983 
L 94.785377 115.019688 
L 96.322567 115.416393 
L 97.859757 115.813098 
L 99.396947 116.209803 
L 100.934137 116.606508 
L 102.471327 117.003213 
L 104.008518 117.399918 
L 105.545708 117.796622 
L 107.082898 118.193327 
L 108.620088 118.590032 
L 110.157278 118.986737 
L 111.694468 119.383442 
L 113.231658 119.780147 
L 114.768848 120.176852 
L 116.306038 120.573557 
L 117.843228 120.970262 
L 119.380418 121.366967 
L 120.917608 121.763672 
L 122.454799 122.160377 
L 123.991989 122.557082 
L 125.529179 122.953787 
L 127.066369 123.350492 
L 128.603559 123.747196 
L 130.140749 124.143901 
L 131.677939 124.540606 
L 133.215129 124.937311 
L 134.752319 125.334016 
L 136.289509 125.730721 
L 137.826699 126.127426 
L 139.363889 126.524131 
L 140.90108 126.920836 
L 142.43827 127.317541 
L 143.97546 127.714246 
L 145.51265 128.110951 
L 147.04984 128.507656 
L 148.58703 128.904361 
L 150.12422 129.301066 
L 151.66141 129.69777 
L 153.1986 130.094475 
L 154.73579 130.49118 
L 156.27298 130.887885 
L 157.81017 131.28459 
L 159.347361 131.681295 
L 160.884551 132.078 
L 162.421741 132.474705 
L 163.958931 132.87141 
L 165.496121 133.268115 
L 167.033311 133.66482 
L 168.570501 134.061525 
L 170.107691 134.45823 
L 171.644881 134.854935 
L 173.182071 135.25164 
L 174.719261 135.648344 
L 176.256451 136.045049 
L 177.793642 136.441754 
L 179.330832 136.838459 
L 180.868022 137.235164 
L 182.405212 137.631869 
L 183.942402 138.028574 
L 185.479592 138.425279 
L 187.016782 138.821984 
L 188.553972 139.218689 
L 190.091162 139.615394 
L 191.628352 140.012099 
L 193.165542 140.408804 
L 194.702732 140.805509 
L 196.239923 141.202214 
L 197.777113 141.598918 
L 199.314303 141.995623 
L 200.851493 142.392328 
L 202.388683 142.789033 
L 203.925873 143.185738 
L 205.463063 143.582443 
L 207.000253 143.979148 
L 208.537443 144.375853 
L 210.074633 144.772558 
L 211.611823 145.169263 
L 213.149013 145.565968 
L 214.686204 145.962673 
L 216.223394 146.359378 
L 217.760584 146.756083 
L 219.297774 147.152788 
L 220.834964 147.549492 
L 222.372154 147.946197 
L 223.909344 148.342902 
L 225.446534 148.739607 
" clip-path="url(#p5af8a9b1a1)" style="fill: none; stroke: #808080; stroke-opacity: 0.3; stroke-linecap: square"/>
   </g>
   <g id="line2d_9">
    <path d="M 73.264716 14.76 
L 74.801906 16.287273 
L 76.339096 17.814545 
L 77.876286 19.341818 
L 79.413476 20.869091 
L 80.950666 22.396364 
L 82.487856 23.923636 
L 84.025046 25.450909 
L 85.562237 26.978182 
L 87.099427 28.505455 
L 88.636617 30.032727 
L 90.173807 31.56 
L 91.710997 33.087273 
L 93.248187 34.614545 
L 94.785377 36.141818 
L 96.322567 37.669091 
L 97.859757 39.196364 
L 99.396947 40.723636 
L 100.934137 42.250909 
L 102.471327 43.778182 
L 104.008518 45.305455 
L 105.545708 46.832727 
L 107.082898 48.36 
L 108.620088 49.887273 
L 110.157278 51.414545 
L 111.694468 52.941818 
L 113.231658 54.469091 
L 114.768848 55.996364 
L 116.306038 57.523636 
L 117.843228 59.050909 
L 119.380418 60.578182 
L 120.917608 62.105455 
L 122.454799 63.632727 
L 123.991989 65.16 
L 125.529179 66.687273 
L 127.066369 68.214545 
L 128.603559 69.741818 
L 130.140749 71.269091 
L 131.677939 72.796364 
L 133.215129 74.323636 
L 134.752319 75.850909 
L 136.289509 77.378182 
L 137.826699 78.905455 
L 139.363889 80.432727 
L 140.90108 81.96 
L 142.43827 83.487273 
L 143.97546 85.014545 
L 145.51265 86.541818 
L 147.04984 88.069091 
L 148.58703 89.596364 
L 150.12422 91.123636 
L 151.66141 92.650909 
L 153.1986 94.178182 
L 154.73579 95.705455 
L 156.27298 97.232727 
L 157.81017 98.76 
L 159.347361 100.287273 
L 160.884551 101.814545 
L 162.421741 103.341818 
L 163.958931 104.869091 
L 165.496121 106.396364 
L 167.033311 107.923636 
L 168.570501 109.450909 
L 170.107691 110.978182 
L 171.644881 112.505455 
L 173.182071 114.032727 
L 174.719261 115.56 
L 176.256451 117.087273 
L 177.793642 118.614545 
L 179.330832 120.141818 
L 180.868022 121.669091 
L 182.405212 123.196364 
L 183.942402 124.723636 
L 185.479592 126.250909 
L 187.016782 127.778182 
L 188.553972 129.305455 
L 190.091162 130.832727 
L 191.628352 132.36 
L 193.165542 133.887273 
L 194.702732 135.414545 
L 196.239923 136.941818 
L 197.777113 138.469091 
L 199.314303 139.996364 
L 200.851493 141.523636 
L 202.388683 143.050909 
L 203.925873 144.578182 
L 205.463063 146.105455 
L 207.000253 147.632727 
L 208.537443 149.16 
L 210.074633 150.687273 
L 211.611823 152.214545 
L 213.149013 153.741818 
L 214.686204 155.269091 
L 216.223394 156.796364 
L 217.760584 158.323636 
L 219.297774 159.850909 
L 220.834964 161.378182 
L 222.372154 162.905455 
L 223.909344 164.432727 
L 225.446534 165.96 
" clip-path="url(#p5af8a9b1a1)" style="fill: none; stroke: #808080; stroke-opacity: 0.3; stroke-linecap: square"/>
   </g>
   <g id="line2d_10">
    <path d="M 73.264716 95.150981 
L 74.801906 95.175241 
L 76.339096 95.1995 
L 77.876286 95.223759 
L 79.413476 95.248019 
L 80.950666 95.272278 
L 82.487856 95.296538 
L 84.025046 95.320797 
L 85.562237 95.345056 
L 87.099427 95.369316 
L 88.636617 95.393575 
L 90.173807 95.417834 
L 91.710997 95.442094 
L 93.248187 95.466353 
L 94.785377 95.490612 
L 96.322567 95.514872 
L 97.859757 95.539131 
L 99.396947 95.563391 
L 100.934137 95.58765 
L 102.471327 95.611909 
L 104.008518 95.636169 
L 105.545708 95.660428 
L 107.082898 95.684687 
L 108.620088 95.708947 
L 110.157278 95.733206 
L 111.694468 95.757465 
L 113.231658 95.781725 
L 114.768848 95.805984 
L 116.306038 95.830243 
L 117.843228 95.854503 
L 119.380418 95.878762 
L 120.917608 95.903022 
L 122.454799 95.927281 
L 123.991989 95.95154 
L 125.529179 95.9758 
L 127.066369 96.000059 
L 128.603559 96.024318 
L 130.140749 96.048578 
L 131.677939 96.072837 
L 133.215129 96.097096 
L 134.752319 96.121356 
L 136.289509 96.145615 
L 137.826699 96.169875 
L 139.363889 96.194134 
L 140.90108 96.218393 
L 142.43827 96.242653 
L 143.97546 96.266912 
L 145.51265 96.291171 
L 147.04984 96.315431 
L 148.58703 96.33969 
L 150.12422 96.363949 
L 151.66141 96.388209 
L 153.1986 96.412468 
L 154.73579 96.436728 
L 156.27298 96.460987 
L 157.81017 96.485246 
L 159.347361 96.509506 
L 160.884551 96.533765 
L 162.421741 96.558024 
L 163.958931 96.582284 
L 165.496121 96.606543 
L 167.033311 96.630802 
L 168.570501 96.655062 
L 170.107691 96.679321 
L 171.644881 96.703581 
L 173.182071 96.72784 
L 174.719261 96.752099 
L 176.256451 96.776359 
L 177.793642 96.800618 
L 179.330832 96.824877 
L 180.868022 96.849137 
L 182.405212 96.873396 
L 183.942402 96.897655 
L 185.479592 96.921915 
L 187.016782 96.946174 
L 188.553972 96.970434 
L 190.091162 96.994693 
L 191.628352 97.018952 
L 193.165542 97.043212 
L 194.702732 97.067471 
L 196.239923 97.09173 
L 197.777113 97.11599 
L 199.314303 97.140249 
L 200.851493 97.164508 
L 202.388683 97.188768 
L 203.925873 97.213027 
L 205.463063 97.237286 
L 207.000253 97.261546 
L 208.537443 97.285805 
L 210.074633 97.310065 
L 211.611823 97.334324 
L 213.149013 97.358583 
L 214.686204 97.382843 
L 216.223394 97.407102 
L 217.760584 97.431361 
L 219.297774 97.455621 
L 220.834964 97.47988 
L 222.372154 97.504139 
L 223.909344 97.528399 
L 225.446534 97.552658 
" clip-path="url(#p5af8a9b1a1)" style="fill: none; stroke: #808080; stroke-opacity: 0.3; stroke-linecap: square"/>
   </g>
   <g id="line2d_11">
    <path d="M 73.264716 73.1256 
L 74.801906 73.775012 
L 76.339096 74.424425 
L 77.876286 75.073837 
L 79.413476 75.723249 
L 80.950666 76.372662 
L 82.487856 77.022074 
L 84.025046 77.671486 
L 85.562237 78.320899 
L 87.099427 78.970311 
L 88.636617 79.619723 
L 90.173807 80.269136 
L 91.710997 80.918548 
L 93.248187 81.567961 
L 94.785377 82.217373 
L 96.322567 82.866785 
L 97.859757 83.516198 
L 99.396947 84.16561 
L 100.934137 84.815022 
L 102.471327 85.464435 
L 104.008518 86.113847 
L 105.545708 86.763259 
L 107.082898 87.412672 
L 108.620088 88.062084 
L 110.157278 88.711496 
L 111.694468 89.360909 
L 113.231658 90.010321 
L 114.768848 90.659733 
L 116.306038 91.309146 
L 117.843228 91.958558 
L 119.380418 92.60797 
L 120.917608 93.257383 
L 122.454799 93.906795 
L 123.991989 94.556207 
L 125.529179 95.20562 
L 127.066369 95.855032 
L 128.603559 96.504444 
L 130.140749 97.153857 
L 131.677939 97.803269 
L 133.215129 98.452681 
L 134.752319 99.102094 
L 136.289509 99.751506 
L 137.826699 100.400918 
L 139.363889 101.050331 
L 140.90108 101.699743 
L 142.43827 102.349155 
L 143.97546 102.998568 
L 145.51265 103.64798 
L 147.04984 104.297392 
L 148.58703 104.946805 
L 150.12422 105.596217 
L 151.66141 106.245629 
L 153.1986 106.895042 
L 154.73579 107.544454 
L 156.27298 108.193866 
L 157.81017 108.843279 
L 159.347361 109.492691 
L 160.884551 110.142103 
L 162.421741 110.791516 
L 163.958931 111.440928 
L 165.496121 112.090341 
L 167.033311 112.739753 
L 168.570501 113.389165 
L 170.107691 114.038578 
L 171.644881 114.68799 
L 173.182071 115.337402 
L 174.719261 115.986815 
L 176.256451 116.636227 
L 177.793642 117.285639 
L 179.330832 117.935052 
L 180.868022 118.584464 
L 182.405212 119.233876 
L 183.942402 119.883289 
L 185.479592 120.532701 
L 187.016782 121.182113 
L 188.553972 121.831526 
L 190.091162 122.480938 
L 191.628352 123.13035 
L 193.165542 123.779763 
L 194.702732 124.429175 
L 196.239923 125.078587 
L 197.777113 125.728 
L 199.314303 126.377412 
L 200.851493 127.026824 
L 202.388683 127.676237 
L 203.925873 128.325649 
L 205.463063 128.975061 
L 207.000253 129.624474 
L 208.537443 130.273886 
L 210.074633 130.923298 
L 211.611823 131.572711 
L 213.149013 132.222123 
L 214.686204 132.871535 
L 216.223394 133.520948 
L 217.760584 134.17036 
L 219.297774 134.819772 
L 220.834964 135.469185 
L 222.372154 136.118597 
L 223.909344 136.768009 
L 225.446534 137.417422 
" clip-path="url(#p5af8a9b1a1)" style="fill: none; stroke: #000000; stroke-width: 2; stroke-linecap: square"/>
   </g>
   <g id="patch_3">
    <path d="M 65.655625 173.52 
L 65.655625 7.2 
" style="fill: none; stroke: #000000; stroke-width: 1.2; stroke-linejoin: miter; stroke-linecap: square"/>
   </g>
   <g id="patch_4">
    <path d="M 73.264716 173.52 
L 225.446534 173.52 
" style="fill: none; stroke: #000000; stroke-width: 1.2; stroke-linejoin: miter; stroke-linecap: square"/>
   </g>
   <g id="text_10">
    <!-- $n = 3$ monkeys -->
    <g style="fill: #808080" transform="translate(174.465625 156.888) scale(0.11 -0.11)">
     <defs>
      <path id="DejaVuSans-Oblique-6e" d="M 3566 2113 
L 3156 0 
L 2578 0 
L 2988 2091 
Q 3016 2238 3031 2350 
Q 3047 2463 3047 2528 
Q 3047 2791 2881 2937 
Q 2716 3084 2419 3084 
Q 1956 3084 1622 2776 
Q 1288 2469 1184 1941 
L 800 0 
L 225 0 
L 903 3500 
L 1478 3500 
L 1363 2950 
Q 1603 3253 1940 3418 
Q 2278 3584 2650 3584 
Q 3113 3584 3367 3334 
Q 3622 3084 3622 2631 
Q 3622 2519 3608 2391 
Q 3594 2263 3566 2113 
z
" transform="scale(0.015625)"/>
      <path id="DejaVuSans-3d" d="M 678 2906 
L 4684 2906 
L 4684 2381 
L 678 2381 
L 678 2906 
z
M 678 1631 
L 4684 1631 
L 4684 1100 
L 678 1100 
L 678 1631 
z
" transform="scale(0.015625)"/>
      <path id="DejaVuSans-33" d="M 2597 2516 
Q 3050 2419 3304 2112 
Q 3559 1806 3559 1356 
Q 3559 666 3084 287 
Q 2609 -91 1734 -91 
Q 1441 -91 1130 -33 
Q 819 25 488 141 
L 488 750 
Q 750 597 1062 519 
Q 1375 441 1716 441 
Q 2309 441 2620 675 
Q 2931 909 2931 1356 
Q 2931 1769 2642 2001 
Q 2353 2234 1838 2234 
L 1294 2234 
L 1294 2753 
L 1863 2753 
Q 2328 2753 2575 2939 
Q 2822 3125 2822 3475 
Q 2822 3834 2567 4026 
Q 2313 4219 1838 4219 
Q 1578 4219 1281 4162 
Q 984 4106 628 3988 
L 628 4550 
Q 988 4650 1302 4700 
Q 1616 4750 1894 4750 
Q 2613 4750 3031 4423 
Q 3450 4097 3450 3541 
Q 3450 3153 3228 2886 
Q 3006 2619 2597 2516 
z
" transform="scale(0.015625)"/>
      <path id="DejaVuSans-6b" d="M 581 4863 
L 1159 4863 
L 1159 1991 
L 2875 3500 
L 3609 3500 
L 1753 1863 
L 3688 0 
L 2938 0 
L 1159 1709 
L 1159 0 
L 581 0 
L 581 4863 
z
" transform="scale(0.015625)"/>
      <path id="DejaVuSans-65" d="M 3597 1894 
L 3597 1613 
L 953 1613 
Q 991 1019 1311 708 
Q 1631 397 2203 397 
Q 2534 397 2845 478 
Q 3156 559 3463 722 
L 3463 178 
Q 3153 47 2828 -22 
Q 2503 -91 2169 -91 
Q 1331 -91 842 396 
Q 353 884 353 1716 
Q 353 2575 817 3079 
Q 1281 3584 2069 3584 
Q 2775 3584 3186 3129 
Q 3597 2675 3597 1894 
z
M 3022 2063 
Q 3016 2534 2758 2815 
Q 2500 3097 2075 3097 
Q 1594 3097 1305 2825 
Q 1016 2553 972 2059 
L 3022 2063 
z
" transform="scale(0.015625)"/>
      <path id="DejaVuSans-79" d="M 2059 -325 
Q 1816 -950 1584 -1140 
Q 1353 -1331 966 -1331 
L 506 -1331 
L 506 -850 
L 844 -850 
Q 1081 -850 1212 -737 
Q 1344 -625 1503 -206 
L 1606 56 
L 191 3500 
L 800 3500 
L 1894 763 
L 2988 3500 
L 3597 3500 
L 2059 -325 
z
" transform="scale(0.015625)"/>
     </defs>
     <use xlink:href="#DejaVuSans-Oblique-6e" transform="translate(0 0.015625)"/>
     <use xlink:href="#DejaVuSans-3d" transform="translate(82.861328 0.015625)"/>
     <use xlink:href="#DejaVuSans-33" transform="translate(186.132812 0.015625)"/>
     <use xlink:href="#DejaVuSans-20" transform="translate(249.755859 0.015625)"/>
     <use xlink:href="#DejaVuSans-6d" transform="translate(281.542969 0.015625)"/>
     <use xlink:href="#DejaVuSans-6f" transform="translate(378.955078 0.015625)"/>
     <use xlink:href="#DejaVuSans-6e" transform="translate(440.136719 0.015625)"/>
     <use xlink:href="#DejaVuSans-6b" transform="translate(503.515625 0.015625)"/>
     <use xlink:href="#DejaVuSans-65" transform="translate(561.425781 0.015625)"/>
     <use xlink:href="#DejaVuSans-79" transform="translate(622.949219 0.015625)"/>
     <use xlink:href="#DejaVuSans-73" transform="translate(682.128906 0.015625)"/>
    </g>
   </g>
   <g id="text_11">
    <!-- n.s. -->
    <g transform="translate(174.465625 169.362) scale(0.11 -0.11)">
     <defs>
      <path id="DejaVuSans-2e" d="M 684 794 
L 1344 794 
L 1344 0 
L 684 0 
L 684 794 
z
" transform="scale(0.015625)"/>
     </defs>
     <use xlink:href="#DejaVuSans-6e"/>
     <use xlink:href="#DejaVuSans-2e" transform="translate(63.378906 0)"/>
     <use xlink:href="#DejaVuSans-73" transform="translate(95.166016 0)"/>
     <use xlink:href="#DejaVuSans-2e" transform="translate(147.265625 0)"/>
    </g>
   </g>
  </g>
 </g>
 <defs>
  <clipPath id="p5af8a9b1a1">
   <rect x="65.655625" y="7.2" width="167.4" height="166.32"/>
  </clipPath>
 </defs>
</svg>
