<?xml version="1.0" encoding="utf-8" standalone="no"?>
<!DOCTYPE svg PUBLIC "-//W3C//DTD SVG 1.1//EN"
  "http://www.w3.org/Graphics/SVG/1.1/DTD/svg11.dtd">
<svg xmlns:xlink="http://www.w3.org/1999/xlink" width="394.679687pt" height="144.507818pt" viewBox="0 0 394.679687 144.507818" xmlns="http://www.w3.org/2000/svg" version="1.1">
 <metadata>
  <rdf:RDF xmlns:dc="http://purl.org/dc/elements/1.1/" xmlns:cc="http://creativecommons.org/ns#" xmlns:rdf="http://www.w3.org/1999/02/22-rdf-syntax-ns#">
   <cc:Work>
    <dc:type rdf:resource="http://purl.org/dc/dcmitype/StillImage"/>
    <dc:date>2026-04-05T12:31:28.237156</dc:date>
    <dc:format>image/svg+xml</dc:format>
    <dc:creator>
     <cc:Agent>
      <dc:title>Matplotlib v3.10.8, https://matplotlib.org/</dc:title>
     </cc:Agent>
    </dc:creator>
   </cc:Work>
  </rdf:RDF>
 </metadata>
 <defs>
  <style type="text/css">*{stroke-linejoin: round; stroke-linecap: butt}</style>
 </defs>
 <g id="figure_1">
  <g id="patch_1">
   <path d="M 0 144.507818 
L 394.679687 144.507818 
L 394.679687 0 
L 0 0 
L 0 144.507818 
z
" style="fill: none"/>
  </g>
  <g id="axes_1">
   <g id="patch_2">
    <path d="M 52.679688 99.29813 
L 387.479688 99.29813 
L 387.479688 16.13813 
L 52.679688 16.13813 
L 52.679688 99.29813 
z
" style="fill: none"/>
   </g>
   <g id="line2d_1">
    <path d="M 67.897869 23.631735 
L 71.279687 23.630039 
L 74.661506 23.628343 
L 78.043324 23.626647 
L 81.425142 23.624951 
L 84.80696 23.624103 
L 88.188778 23.624103 
L 91.570597 23.624103 
L 94.952415 23.624103 
L 98.334233 23.624103 
L 98.334233 71.100978 
L 104.741888 90.124174 
L 111.149544 88.155744 
L 117.557199 76.811749 
L 123.964855 79.735152 
L 130.37251 82.653881 
L 136.780166 75.284411 
L 143.187821 87.684663 
L 149.595477 91.488967 
L 156.003132 69.231792 
L 162.410788 85.574273 
L 168.818443 37.298369 
L 175.226099 36.364901 
L 181.633754 78.376085 
L 188.04141 81.796264 
L 194.449065 73.590459 
L 200.856721 88.722474 
L 207.264376 80.628858 
L 213.672032 93.404589 
L 220.079688 87.444373 
L 220.079688 70.144263 
L 228.089257 91.582251 
L 236.098826 76.393218 
L 244.108396 59.423602 
L 252.117965 86.652035 
L 260.127534 95.02711 
L 268.137104 82.339627 
L 276.146673 83.129311 
L 284.156243 95.319341 
L 292.165812 84.925337 
L 300.175381 85.979058 
L 308.184951 93.30306 
L 316.19452 94.616021 
L 324.204089 87.037728 
L 332.213659 74.834809 
L 340.223228 61.96249 
L 348.232798 90.694573 
L 356.242367 85.260871 
L 364.251936 77.099994 
L 372.261506 94.87599 
" clip-path="url(#pdab4859914)" style="fill: none; stroke: #2ca6a4; stroke-opacity: 0.3; stroke-width: 0.5; stroke-linecap: square"/>
   </g>
   <g id="line2d_2">
    <path d="M 67.897869 95.438638 
L 71.279687 95.438204 
L 74.661506 95.43777 
L 78.043324 95.437336 
L 81.425142 95.436902 
L 84.80696 95.436684 
L 88.188778 95.436684 
L 91.570597 95.436684 
L 94.952415 95.436684 
L 98.334233 95.436684 
L 98.334233 48.044849 
L 104.741888 29.061351 
L 111.149544 66.621908 
L 117.557199 42.609591 
L 123.964855 39.404505 
L 130.37251 36.5053 
L 136.780166 65.613156 
L 143.187821 40.112245 
L 149.595477 33.08925 
L 156.003132 50.224781 
L 162.410788 38.196133 
L 168.818443 82.717887 
L 175.226099 83.00255 
L 181.633754 40.824292 
L 188.04141 37.355689 
L 194.449065 45.715415 
L 200.856721 30.368549 
L 207.264376 43.448251 
L 213.672032 27.782801 
L 220.079688 51.817204 
L 220.079688 49.000558 
L 228.089257 45.429233 
L 236.098826 87.830188 
L 244.108396 75.847233 
L 252.117965 89.580032 
L 260.127534 94.872985 
L 268.137104 78.322897 
L 276.146673 95.348729 
L 284.156243 94.880991 
L 292.165812 95.489547 
L 300.175381 95.320869 
L 308.184951 95.489464 
L 316.19452 95.46577 
L 324.204089 72.913434 
L 332.213659 95.447933 
L 340.223228 93.812951 
L 348.232798 65.766653 
L 356.242367 89.79989 
L 364.251936 45.084905 
L 372.261506 30.117245 
" clip-path="url(#pdab4859914)" style="fill: none; stroke: #e3b505; stroke-opacity: 0.3; stroke-width: 0.5; stroke-linecap: square"/>
   </g>
   <g id="line2d_3">
    <path d="M 67.897869 95.484253 
L 71.279687 95.486383 
L 74.661506 95.488513 
L 78.043324 95.490643 
L 81.425142 95.492774 
L 84.80696 95.493839 
L 88.188778 95.493839 
L 91.570597 95.493839 
L 94.952415 95.493839 
L 98.334233 95.493839 
L 98.334233 95.408799 
L 104.741888 95.369101 
L 111.149544 59.776974 
L 117.557199 95.133287 
L 123.964855 95.414969 
L 130.37251 95.395445 
L 136.780166 73.657059 
L 143.187821 86.757718 
L 149.595477 89.976409 
L 156.003132 95.098053 
L 162.410788 90.78422 
L 168.818443 94.53837 
L 175.226099 95.187175 
L 181.633754 95.354249 
L 188.04141 95.402674 
L 194.449065 95.248752 
L 200.856721 95.463603 
L 207.264376 90.477517 
L 213.672032 93.367236 
L 220.079688 75.293049 
L 220.079688 95.409805 
L 228.089257 77.543143 
L 236.098826 50.331221 
L 244.108396 79.283791 
L 252.117965 38.322559 
L 260.127534 24.654531 
L 268.137104 53.892102 
L 276.146673 36.076586 
L 284.156243 24.354295 
L 292.165812 34.139743 
L 300.175381 33.254699 
L 308.184951 25.762102 
L 316.19452 24.472835 
L 324.204089 54.603465 
L 332.213659 44.271883 
L 340.223228 58.779185 
L 348.232798 58.0934 
L 356.242367 39.493865 
L 364.251936 92.369728 
L 372.261506 89.561391 
" clip-path="url(#pdab4859914)" style="fill: none; stroke: #4f6db8; stroke-opacity: 0.3; stroke-width: 0.5; stroke-linecap: square"/>
   </g>
   <g id="line2d_4">
    <path d="M 67.897869 33.301882 
L 71.279687 31.130179 
L 74.661506 28.958476 
L 78.043324 26.786773 
L 81.425142 24.61507 
L 84.80696 23.529218 
L 88.188778 23.529218 
L 91.570597 23.529218 
L 94.952415 23.529218 
L 98.334233 23.529218 
L 98.334233 23.537701 
L 104.741888 85.809152 
L 111.149544 80.730993 
L 117.557199 94.30446 
L 123.964855 85.678941 
L 130.37251 91.319166 
L 136.780166 94.733358 
L 143.187821 87.467581 
L 149.595477 91.438684 
L 156.003132 95.378847 
L 162.410788 78.386814 
L 168.818443 84.829606 
L 175.226099 86.373995 
L 181.633754 84.81581 
L 188.04141 95.498274 
L 194.449065 95.506352 
L 200.856721 87.237007 
L 207.264376 95.511223 
L 213.672032 86.700463 
L 220.079688 88.47516 
L 220.079688 89.165001 
L 228.089257 93.117116 
L 236.098826 92.403739 
L 244.108396 95.108514 
L 252.117965 90.330583 
L 260.127534 94.124847 
L 268.137104 82.591943 
L 276.146673 95.107175 
L 284.156243 94.942614 
L 292.165812 95.414942 
L 300.175381 94.156009 
L 308.184951 95.395827 
L 316.19452 93.967212 
L 324.204089 95.263334 
L 332.213659 90.439936 
L 340.223228 94.885744 
L 348.232798 95.06606 
L 356.242367 91.080873 
L 364.251936 92.892159 
L 372.261506 95.046717 
" clip-path="url(#pdab4859914)" style="fill: none; stroke: #2ca6a4; stroke-opacity: 0.3; stroke-width: 0.5; stroke-linecap: square"/>
   </g>
   <g id="line2d_5">
    <path d="M 67.897869 95.482869 
L 71.279687 95.489761 
L 74.661506 95.496654 
L 78.043324 95.503546 
L 81.425142 95.510438 
L 84.80696 95.513884 
L 88.188778 95.513884 
L 91.570597 95.513884 
L 94.952415 95.513884 
L 98.334233 95.513884 
L 98.334233 95.513768 
L 104.741888 60.307676 
L 111.149544 81.876297 
L 117.557199 45.968557 
L 123.964855 72.086189 
L 130.37251 34.154387 
L 136.780166 24.590841 
L 143.187821 34.219084 
L 149.595477 28.464505 
L 156.003132 23.699027 
L 162.410788 74.507042 
L 168.818443 46.721229 
L 175.226099 34.414673 
L 181.633754 87.925829 
L 188.04141 23.616134 
L 194.449065 23.552361 
L 200.856721 91.719599 
L 207.264376 23.535713 
L 213.672032 72.743131 
L 220.079688 89.246668 
L 220.079688 57.858289 
L 228.089257 93.166154 
L 236.098826 95.433099 
L 244.108396 95.502499 
L 252.117965 95.365118 
L 260.127534 94.150726 
L 268.137104 95.311443 
L 276.146673 95.435061 
L 284.156243 95.40004 
L 292.165812 95.401356 
L 300.175381 95.395968 
L 308.184951 95.49119 
L 316.19452 95.461741 
L 324.204089 95.48013 
L 332.213659 95.177697 
L 340.223228 94.829284 
L 348.232798 95.432857 
L 356.242367 95.351589 
L 364.251936 91.022356 
L 372.261506 95.506081 
" clip-path="url(#pdab4859914)" style="fill: none; stroke: #e3b505; stroke-opacity: 0.3; stroke-width: 0.5; stroke-linecap: square"/>
   </g>
   <g id="line2d_6">
    <path d="M 67.897869 85.769875 
L 71.279687 87.934686 
L 74.661506 90.099497 
L 78.043324 92.264307 
L 81.425142 94.429118 
L 84.80696 95.511524 
L 88.188778 95.511524 
L 91.570597 95.511524 
L 94.952415 95.511524 
L 98.334233 95.511524 
L 98.334233 95.503157 
L 104.741888 68.437797 
L 111.149544 51.947336 
L 117.557199 74.281609 
L 123.964855 56.789496 
L 130.37251 89.081074 
L 136.780166 95.230426 
L 143.187821 92.867961 
L 149.595477 94.651437 
L 156.003132 95.476752 
L 162.410788 61.660769 
L 168.818443 83.003791 
L 175.226099 93.765959 
L 181.633754 41.812986 
L 188.04141 95.440218 
L 194.449065 95.495913 
L 200.856721 35.59802 
L 207.264376 95.50769 
L 213.672032 55.111032 
L 220.079688 36.832798 
L 220.079688 67.531336 
L 228.089257 28.271356 
L 236.098826 26.717788 
L 244.108396 23.943612 
L 252.117965 28.858925 
L 260.127534 26.279053 
L 268.137104 36.651239 
L 276.146673 24.01239 
L 284.156243 24.211972 
L 292.165812 23.738327 
L 300.175381 25.002649 
L 308.184951 23.667609 
L 316.19452 25.125673 
L 324.204089 23.811163 
L 332.213659 28.936993 
L 340.223228 24.839599 
L 348.232798 24.055709 
L 356.242367 28.122164 
L 364.251936 30.640111 
L 372.261506 24.001828 
" clip-path="url(#pdab4859914)" style="fill: none; stroke: #4f6db8; stroke-opacity: 0.3; stroke-width: 0.5; stroke-linecap: square"/>
   </g>
   <g id="line2d_7">
    <path d="M 67.897869 57.764197 
L 71.279687 74.182239 
L 74.661506 90.60028 
L 78.043324 75.682723 
L 81.425142 50.319965 
L 84.80696 34.504041 
L 88.188778 28.23495 
L 91.570597 23.533131 
L 94.952415 23.533131 
L 98.334233 23.533131 
L 98.334233 95.440439 
L 104.741888 95.489062 
L 111.149544 95.509199 
L 117.557199 95.499768 
L 123.964855 95.516982 
L 130.37251 95.517585 
L 136.780166 95.516826 
L 143.187821 95.517054 
L 149.595477 95.498751 
L 156.003132 95.516644 
L 162.410788 95.516073 
L 168.818443 95.510541 
L 175.226099 95.515513 
L 181.633754 95.513503 
L 188.04141 95.514872 
L 194.449065 95.483986 
L 200.856721 95.454938 
L 207.264376 94.647119 
L 213.672032 94.930282 
L 220.079688 95.509562 
L 220.079688 95.516965 
L 228.089257 95.503966 
L 236.098826 95.512959 
L 244.108396 95.513533 
L 252.117965 95.257406 
L 260.127534 95.515457 
L 268.137104 95.513151 
L 276.146673 95.509629 
L 284.156243 95.515218 
L 292.165812 95.506916 
L 300.175381 95.514904 
L 308.184951 95.510143 
L 316.19452 95.509988 
L 324.204089 95.462191 
L 332.213659 95.127075 
L 340.223228 95.513599 
L 348.232798 95.406526 
L 356.242367 95.408936 
L 364.251936 95.516774 
L 372.261506 95.516867 
" clip-path="url(#pdab4859914)" style="fill: none; stroke: #2ca6a4; stroke-opacity: 0.3; stroke-width: 0.5; stroke-linecap: square"/>
   </g>
   <g id="line2d_8">
    <path d="M 67.897869 80.380487 
L 71.279687 72.554738 
L 74.661506 64.728989 
L 78.043324 70.21762 
L 81.425142 80.144378 
L 84.80696 87.421173 
L 88.188778 92.048006 
L 91.570597 95.51813 
L 94.952415 95.51813 
L 98.334233 95.51813 
L 98.334233 52.835401 
L 104.741888 57.682807 
L 111.149544 67.242134 
L 117.557199 53.546781 
L 123.964855 40.364293 
L 130.37251 29.727257 
L 136.780166 40.635564 
L 143.187821 30.83236 
L 149.595477 60.278087 
L 156.003132 27.872361 
L 162.410788 48.870656 
L 168.818443 35.097956 
L 175.226099 40.796232 
L 181.633754 33.769629 
L 188.04141 80.372562 
L 194.449065 75.555874 
L 200.856721 81.129781 
L 207.264376 72.895965 
L 213.672032 51.780842 
L 220.079688 52.004951 
L 220.079688 41.105197 
L 228.089257 84.463343 
L 236.098826 81.335408 
L 244.108396 88.179365 
L 252.117965 84.769935 
L 260.127534 86.056939 
L 268.137104 84.040295 
L 276.146673 86.878167 
L 284.156243 92.346294 
L 292.165812 57.047394 
L 300.175381 90.651636 
L 308.184951 90.349425 
L 316.19452 84.175505 
L 324.204089 53.292658 
L 332.213659 66.833717 
L 340.223228 46.885334 
L 348.232798 68.897253 
L 356.242367 70.351046 
L 364.251936 85.691707 
L 372.261506 88.189047 
" clip-path="url(#pdab4859914)" style="fill: none; stroke: #e3b505; stroke-opacity: 0.3; stroke-width: 0.5; stroke-linecap: square"/>
   </g>
   <g id="line2d_9">
    <path d="M 67.897869 76.409942 
L 71.279687 67.81765 
L 74.661506 59.225357 
L 78.043324 68.654283 
L 81.425142 84.090283 
L 84.80696 92.629412 
L 88.188778 94.27167 
L 91.570597 95.503364 
L 94.952415 95.503364 
L 98.334233 95.503364 
L 98.334233 66.278787 
L 104.741888 61.382758 
L 111.149544 51.803293 
L 117.557199 65.508077 
L 123.964855 78.673351 
L 130.37251 89.309784 
L 136.780166 78.402236 
L 143.187821 88.205212 
L 149.595477 58.777788 
L 156.003132 91.165621 
L 162.410788 70.167897 
L 168.818443 83.946129 
L 175.226099 78.242881 
L 181.633754 85.271494 
L 188.04141 38.667192 
L 194.449065 43.514766 
L 200.856721 37.969907 
L 207.264376 47.011542 
L 213.672032 67.843502 
L 220.079688 67.040113 
L 220.079688 77.932464 
L 228.089257 34.587318 
L 236.098826 37.706259 
L 244.108396 30.861728 
L 252.117965 34.527285 
L 260.127534 32.98223 
L 268.137104 35.001181 
L 276.146673 32.16683 
L 284.156243 26.693113 
L 292.165812 62.000316 
L 300.175381 28.388085 
L 308.184951 28.695058 
L 316.19452 34.869133 
L 324.204089 65.799777 
L 332.213659 52.593835 
L 340.223228 72.155694 
L 348.232798 50.250846 
L 356.242367 48.794644 
L 364.251936 33.346145 
L 372.261506 30.848712 
" clip-path="url(#pdab4859914)" style="fill: none; stroke: #4f6db8; stroke-opacity: 0.3; stroke-width: 0.5; stroke-linecap: square"/>
   </g>
   <g id="line2d_10">
    <path d="M 67.897869 38.232605 
L 71.279687 42.980819 
L 74.661506 47.729033 
L 78.043324 42.032048 
L 81.425142 32.853329 
L 84.80696 27.219121 
L 88.188778 25.129424 
L 91.570597 23.562151 
L 94.952415 23.562151 
L 98.334233 23.562151 
L 98.334233 63.359706 
L 104.741888 90.47413 
L 111.149544 88.131978 
L 117.557199 88.871992 
L 123.964855 86.977025 
L 130.37251 89.83021 
L 136.780166 88.511532 
L 143.187821 90.223099 
L 149.595477 92.8088 
L 156.003132 86.709095 
L 162.410788 86.492387 
L 168.818443 72.546172 
L 175.226099 72.751469 
L 181.633754 86.235133 
L 188.04141 90.93647 
L 194.449065 88.193599 
L 200.856721 90.471473 
L 207.264376 90.2624 
L 213.672032 91.678445 
L 220.079688 90.476365 
L 220.079688 84.942076 
L 228.089257 93.401111 
L 236.098826 88.103305 
L 244.108396 83.34855 
L 252.117965 90.746675 
L 260.127534 94.889138 
L 268.137104 86.814907 
L 276.146673 91.248705 
L 284.156243 95.259058 
L 292.165812 91.949065 
L 300.175381 91.883324 
L 308.184951 94.736343 
L 316.19452 94.69774 
L 324.204089 92.587751 
L 332.213659 86.800607 
L 340.223228 84.120611 
L 348.232798 93.722386 
L 356.242367 90.58356 
L 364.251936 88.502975 
L 372.261506 95.146524 
" clip-path="url(#pdab4859914)" style="fill: none; stroke: #2ca6a4; stroke-width: 1.5; stroke-linecap: square"/>
   </g>
   <g id="line2d_11">
    <path d="M 67.897869 90.433998 
L 71.279687 87.827568 
L 74.661506 85.221137 
L 78.043324 87.052834 
L 81.425142 90.363906 
L 84.80696 92.790581 
L 88.188778 94.332858 
L 91.570597 95.489566 
L 94.952415 95.489566 
L 98.334233 95.489566 
L 98.334233 65.464673 
L 104.741888 49.017278 
L 111.149544 71.913446 
L 117.557199 47.374977 
L 123.964855 50.618329 
L 130.37251 33.462315 
L 136.780166 43.613187 
L 143.187821 35.054563 
L 149.595477 40.610614 
L 156.003132 33.932056 
L 162.410788 53.857944 
L 168.818443 54.845691 
L 175.226099 52.737818 
L 181.633754 54.17325 
L 188.04141 47.114795 
L 194.449065 48.27455 
L 200.856721 67.73931 
L 207.264376 46.626643 
L 213.672032 50.768925 
L 220.079688 64.356274 
L 220.079688 49.321348 
L 228.089257 74.35291 
L 236.098826 88.199565 
L 244.108396 86.509699 
L 252.117965 89.905028 
L 260.127534 91.69355 
L 268.137104 85.891545 
L 276.146673 92.553986 
L 284.156243 94.209108 
L 292.165812 82.646099 
L 300.175381 93.789491 
L 308.184951 93.776693 
L 316.19452 91.701005 
L 324.204089 73.895407 
L 332.213659 85.819783 
L 340.223228 78.509189 
L 348.232798 76.698921 
L 356.242367 85.167508 
L 364.251936 73.932989 
L 372.261506 71.270791 
" clip-path="url(#pdab4859914)" style="fill: none; stroke: #e3b505; stroke-width: 1.5; stroke-linecap: square"/>
   </g>
   <g id="line2d_12">
    <path d="M 67.897869 85.888023 
L 71.279687 83.746239 
L 74.661506 81.604456 
L 78.043324 85.469745 
L 81.425142 91.337391 
L 84.80696 94.544925 
L 88.188778 95.092344 
L 91.570597 95.502909 
L 94.952415 95.502909 
L 98.334233 95.502909 
L 98.334233 85.730247 
L 104.741888 75.063219 
L 111.149544 54.509201 
L 117.557199 78.307658 
L 123.964855 76.959272 
L 130.37251 91.262101 
L 136.780166 82.429907 
L 143.187821 89.276964 
L 149.595477 81.135211 
L 156.003132 93.913475 
L 162.410788 74.204295 
L 168.818443 87.162763 
L 175.226099 89.065338 
L 181.633754 74.146243 
L 188.04141 76.503361 
L 194.449065 78.086477 
L 200.856721 56.343843 
L 207.264376 77.665583 
L 213.672032 72.107257 
L 220.079688 59.721987 
L 220.079688 80.291202 
L 228.089257 46.800605 
L 236.098826 38.251756 
L 244.108396 44.696377 
L 252.117965 33.902923 
L 260.127534 27.971938 
L 268.137104 41.848174 
L 276.146673 30.751935 
L 284.156243 25.08646 
L 292.165812 39.959462 
L 300.175381 28.881811 
L 308.184951 26.04159 
L 316.19452 28.15588 
L 324.204089 48.071468 
L 332.213659 41.934237 
L 340.223228 51.924826 
L 348.232798 44.133318 
L 356.242367 38.803558 
L 364.251936 52.118661 
L 372.261506 48.13731 
" clip-path="url(#pdab4859914)" style="fill: none; stroke: #4f6db8; stroke-width: 1.5; stroke-linecap: square"/>
   </g>
   <g id="matplotlib.axis_1">
    <g id="xtick_1">
     <g id="line2d_13">
      <defs>
       <path id="m8299d55341" d="M 0 0 
L 0 8.25 
" style="stroke: #000000; stroke-width: 1.4"/>
      </defs>
      <g>
       <use xlink:href="#m8299d55341" x="67.897869" y="99.29813" style="stroke: #000000; stroke-width: 1.4"/>
      </g>
     </g>
     <g id="text_1">
      <!-- 0.0 -->
      <g transform="translate(58.355994 120.166255) scale(0.12 -0.12)">
       <defs>
        <path id="DejaVuSans-30" d="M 2034 4250 
Q 1547 4250 1301 3770 
Q 1056 3291 1056 2328 
Q 1056 1369 1301 889 
Q 1547 409 2034 409 
Q 2525 409 2770 889 
Q 3016 1369 3016 2328 
Q 3016 3291 2770 3770 
Q 2525 4250 2034 4250 
z
M 2034 4750 
Q 2819 4750 3233 4129 
Q 3647 3509 3647 2328 
Q 3647 1150 3233 529 
Q 2819 -91 2034 -91 
Q 1250 -91 836 529 
Q 422 1150 422 2328 
Q 422 3509 836 4129 
Q 1250 4750 2034 4750 
z
" transform="scale(0.015625)"/>
        <path id="DejaVuSans-2e" d="M 684 794 
L 1344 794 
L 1344 0 
L 684 0 
L 684 794 
z
" transform="scale(0.015625)"/>
       </defs>
       <use xlink:href="#DejaVuSans-30"/>
       <use xlink:href="#DejaVuSans-2e" transform="translate(63.623047 0)"/>
       <use xlink:href="#DejaVuSans-30" transform="translate(95.410156 0)"/>
      </g>
     </g>
    </g>
    <g id="xtick_2">
     <g id="line2d_14">
      <g>
       <use xlink:href="#m8299d55341" x="128.770597" y="99.29813" style="stroke: #000000; stroke-width: 1.4"/>
      </g>
     </g>
     <g id="text_2">
      <!-- 0.2 -->
      <g transform="translate(119.228722 120.166255) scale(0.12 -0.12)">
       <defs>
        <path id="DejaVuSans-32" d="M 1228 531 
L 3431 531 
L 3431 0 
L 469 0 
L 469 531 
Q 828 903 1448 1529 
Q 2069 2156 2228 2338 
Q 2531 2678 2651 2914 
Q 2772 3150 2772 3378 
Q 2772 3750 2511 3984 
Q 2250 4219 1831 4219 
Q 1534 4219 1204 4116 
Q 875 4013 500 3803 
L 500 4441 
Q 881 4594 1212 4672 
Q 1544 4750 1819 4750 
Q 2544 4750 2975 4387 
Q 3406 4025 3406 3419 
Q 3406 3131 3298 2873 
Q 3191 2616 2906 2266 
Q 2828 2175 2409 1742 
Q 1991 1309 1228 531 
z
" transform="scale(0.015625)"/>
       </defs>
       <use xlink:href="#DejaVuSans-30"/>
       <use xlink:href="#DejaVuSans-2e" transform="translate(63.623047 0)"/>
       <use xlink:href="#DejaVuSans-32" transform="translate(95.410156 0)"/>
      </g>
     </g>
    </g>
    <g id="xtick_3">
     <g id="line2d_15">
      <g>
       <use xlink:href="#m8299d55341" x="189.643324" y="99.29813" style="stroke: #000000; stroke-width: 1.4"/>
      </g>
     </g>
     <g id="text_3">
      <!-- 0.4 -->
      <g transform="translate(180.101449 120.166255) scale(0.12 -0.12)">
       <defs>
        <path id="DejaVuSans-34" d="M 2419 4116 
L 825 1625 
L 2419 1625 
L 2419 4116 
z
M 2253 4666 
L 3047 4666 
L 3047 1625 
L 3713 1625 
L 3713 1100 
L 3047 1100 
L 3047 0 
L 2419 0 
L 2419 1100 
L 313 1100 
L 313 1709 
L 2253 4666 
z
" transform="scale(0.015625)"/>
       </defs>
       <use xlink:href="#DejaVuSans-30"/>
       <use xlink:href="#DejaVuSans-2e" transform="translate(63.623047 0)"/>
       <use xlink:href="#DejaVuSans-34" transform="translate(95.410156 0)"/>
      </g>
     </g>
    </g>
    <g id="xtick_4">
     <g id="line2d_16">
      <g>
       <use xlink:href="#m8299d55341" x="250.516051" y="99.29813" style="stroke: #000000; stroke-width: 1.4"/>
      </g>
     </g>
     <g id="text_4">
      <!-- 0.6 -->
      <g transform="translate(240.974176 120.166255) scale(0.12 -0.12)">
       <defs>
        <path id="DejaVuSans-36" d="M 2113 2584 
Q 1688 2584 1439 2293 
Q 1191 2003 1191 1497 
Q 1191 994 1439 701 
Q 1688 409 2113 409 
Q 2538 409 2786 701 
Q 3034 994 3034 1497 
Q 3034 2003 2786 2293 
Q 2538 2584 2113 2584 
z
M 3366 4563 
L 3366 3988 
Q 3128 4100 2886 4159 
Q 2644 4219 2406 4219 
Q 1781 4219 1451 3797 
Q 1122 3375 1075 2522 
Q 1259 2794 1537 2939 
Q 1816 3084 2150 3084 
Q 2853 3084 3261 2657 
Q 3669 2231 3669 1497 
Q 3669 778 3244 343 
Q 2819 -91 2113 -91 
Q 1303 -91 875 529 
Q 447 1150 447 2328 
Q 447 3434 972 4092 
Q 1497 4750 2381 4750 
Q 2619 4750 2861 4703 
Q 3103 4656 3366 4563 
z
" transform="scale(0.015625)"/>
       </defs>
       <use xlink:href="#DejaVuSans-30"/>
       <use xlink:href="#DejaVuSans-2e" transform="translate(63.623047 0)"/>
       <use xlink:href="#DejaVuSans-36" transform="translate(95.410156 0)"/>
      </g>
     </g>
    </g>
    <g id="xtick_5">
     <g id="line2d_17">
      <g>
       <use xlink:href="#m8299d55341" x="311.388778" y="99.29813" style="stroke: #000000; stroke-width: 1.4"/>
      </g>
     </g>
     <g id="text_5">
      <!-- 0.8 -->
      <g transform="translate(301.846903 120.166255) scale(0.12 -0.12)">
       <defs>
        <path id="DejaVuSans-38" d="M 2034 2216 
Q 1584 2216 1326 1975 
Q 1069 1734 1069 1313 
Q 1069 891 1326 650 
Q 1584 409 2034 409 
Q 2484 409 2743 651 
Q 3003 894 3003 1313 
Q 3003 1734 2745 1975 
Q 2488 2216 2034 2216 
z
M 1403 2484 
Q 997 2584 770 2862 
Q 544 3141 544 3541 
Q 544 4100 942 4425 
Q 1341 4750 2034 4750 
Q 2731 4750 3128 4425 
Q 3525 4100 3525 3541 
Q 3525 3141 3298 2862 
Q 3072 2584 2669 2484 
Q 3125 2378 3379 2068 
Q 3634 1759 3634 1313 
Q 3634 634 3220 271 
Q 2806 -91 2034 -91 
Q 1263 -91 848 271 
Q 434 634 434 1313 
Q 434 1759 690 2068 
Q 947 2378 1403 2484 
z
M 1172 3481 
Q 1172 3119 1398 2916 
Q 1625 2713 2034 2713 
Q 2441 2713 2670 2916 
Q 2900 3119 2900 3481 
Q 2900 3844 2670 4047 
Q 2441 4250 2034 4250 
Q 1625 4250 1398 4047 
Q 1172 3844 1172 3481 
z
" transform="scale(0.015625)"/>
       </defs>
       <use xlink:href="#DejaVuSans-30"/>
       <use xlink:href="#DejaVuSans-2e" transform="translate(63.623047 0)"/>
       <use xlink:href="#DejaVuSans-38" transform="translate(95.410156 0)"/>
      </g>
     </g>
    </g>
    <g id="xtick_6">
     <g id="line2d_18">
      <g>
       <use xlink:href="#m8299d55341" x="372.261506" y="99.29813" style="stroke: #000000; stroke-width: 1.4"/>
      </g>
     </g>
     <g id="text_6">
      <!-- 1.0 -->
      <g transform="translate(362.719631 120.166255) scale(0.12 -0.12)">
       <defs>
        <path id="DejaVuSans-31" d="M 794 531 
L 1825 531 
L 1825 4091 
L 703 3866 
L 703 4441 
L 1819 4666 
L 2450 4666 
L 2450 531 
L 3481 531 
L 3481 0 
L 794 0 
L 794 531 
z
" transform="scale(0.015625)"/>
       </defs>
       <use xlink:href="#DejaVuSans-31"/>
       <use xlink:href="#DejaVuSans-2e" transform="translate(63.623047 0)"/>
       <use xlink:href="#DejaVuSans-30" transform="translate(95.410156 0)"/>
      </g>
     </g>
    </g>
    <g id="text_7">
     <!-- Interpolated sessions -->
     <g transform="translate(161.411016 135.020162) scale(0.11 -0.11)">
      <defs>
       <path id="DejaVuSans-49" d="M 628 4666 
L 1259 4666 
L 1259 0 
L 628 0 
L 628 4666 
z
" transform="scale(0.015625)"/>
       <path id="DejaVuSans-6e" d="M 3513 2113 
L 3513 0 
L 2938 0 
L 2938 2094 
Q 2938 2591 2744 2837 
Q 2550 3084 2163 3084 
Q 1697 3084 1428 2787 
Q 1159 2491 1159 1978 
L 1159 0 
L 581 0 
L 581 3500 
L 1159 3500 
L 1159 2956 
Q 1366 3272 1645 3428 
Q 1925 3584 2291 3584 
Q 2894 3584 3203 3211 
Q 3513 2838 3513 2113 
z
" transform="scale(0.015625)"/>
       <path id="DejaVuSans-74" d="M 1172 4494 
L 1172 3500 
L 2356 3500 
L 2356 3053 
L 1172 3053 
L 1172 1153 
Q 1172 725 1289 603 
Q 1406 481 1766 481 
L 2356 481 
L 2356 0 
L 1766 0 
Q 1100 0 847 248 
Q 594 497 594 1153 
L 594 3053 
L 172 3053 
L 172 3500 
L 594 3500 
L 594 4494 
L 1172 4494 
z
" transform="scale(0.015625)"/>
       <path id="DejaVuSans-65" d="M 3597 1894 
L 3597 1613 
L 953 1613 
Q 991 1019 1311 708 
Q 1631 397 2203 397 
Q 2534 397 2845 478 
Q 3156 559 3463 722 
L 3463 178 
Q 3153 47 2828 -22 
Q 2503 -91 2169 -91 
Q 1331 -91 842 396 
Q 353 884 353 1716 
Q 353 2575 817 3079 
Q 1281 3584 2069 3584 
Q 2775 3584 3186 3129 
Q 3597 2675 3597 1894 
z
M 3022 2063 
Q 3016 2534 2758 2815 
Q 2500 3097 2075 3097 
Q 1594 3097 1305 2825 
Q 1016 2553 972 2059 
L 3022 2063 
z
" transform="scale(0.015625)"/>
       <path id="DejaVuSans-72" d="M 2631 2963 
Q 2534 3019 2420 3045 
Q 2306 3072 2169 3072 
Q 1681 3072 1420 2755 
Q 1159 2438 1159 1844 
L 1159 0 
L 581 0 
L 581 3500 
L 1159 3500 
L 1159 2956 
Q 1341 3275 1631 3429 
Q 1922 3584 2338 3584 
Q 2397 3584 2469 3576 
Q 2541 3569 2628 3553 
L 2631 2963 
z
" transform="scale(0.015625)"/>
       <path id="DejaVuSans-70" d="M 1159 525 
L 1159 -1331 
L 581 -1331 
L 581 3500 
L 1159 3500 
L 1159 2969 
Q 1341 3281 1617 3432 
Q 1894 3584 2278 3584 
Q 2916 3584 3314 3078 
Q 3713 2572 3713 1747 
Q 3713 922 3314 415 
Q 2916 -91 2278 -91 
Q 1894 -91 1617 61 
Q 1341 213 1159 525 
z
M 3116 1747 
Q 3116 2381 2855 2742 
Q 2594 3103 2138 3103 
Q 1681 3103 1420 2742 
Q 1159 2381 1159 1747 
Q 1159 1113 1420 752 
Q 1681 391 2138 391 
Q 2594 391 2855 752 
Q 3116 1113 3116 1747 
z
" transform="scale(0.015625)"/>
       <path id="DejaVuSans-6f" d="M 1959 3097 
Q 1497 3097 1228 2736 
Q 959 2375 959 1747 
Q 959 1119 1226 758 
Q 1494 397 1959 397 
Q 2419 397 2687 759 
Q 2956 1122 2956 1747 
Q 2956 2369 2687 2733 
Q 2419 3097 1959 3097 
z
M 1959 3584 
Q 2709 3584 3137 3096 
Q 3566 2609 3566 1747 
Q 3566 888 3137 398 
Q 2709 -91 1959 -91 
Q 1206 -91 779 398 
Q 353 888 353 1747 
Q 353 2609 779 3096 
Q 1206 3584 1959 3584 
z
" transform="scale(0.015625)"/>
       <path id="DejaVuSans-6c" d="M 603 4863 
L 1178 4863 
L 1178 0 
L 603 0 
L 603 4863 
z
" transform="scale(0.015625)"/>
       <path id="DejaVuSans-61" d="M 2194 1759 
Q 1497 1759 1228 1600 
Q 959 1441 959 1056 
Q 959 750 1161 570 
Q 1363 391 1709 391 
Q 2188 391 2477 730 
Q 2766 1069 2766 1631 
L 2766 1759 
L 2194 1759 
z
M 3341 1997 
L 3341 0 
L 2766 0 
L 2766 531 
Q 2569 213 2275 61 
Q 1981 -91 1556 -91 
Q 1019 -91 701 211 
Q 384 513 384 1019 
Q 384 1609 779 1909 
Q 1175 2209 1959 2209 
L 2766 2209 
L 2766 2266 
Q 2766 2663 2505 2880 
Q 2244 3097 1772 3097 
Q 1472 3097 1187 3025 
Q 903 2953 641 2809 
L 641 3341 
Q 956 3463 1253 3523 
Q 1550 3584 1831 3584 
Q 2591 3584 2966 3190 
Q 3341 2797 3341 1997 
z
" transform="scale(0.015625)"/>
       <path id="DejaVuSans-64" d="M 2906 2969 
L 2906 4863 
L 3481 4863 
L 3481 0 
L 2906 0 
L 2906 525 
Q 2725 213 2448 61 
Q 2172 -91 1784 -91 
Q 1150 -91 751 415 
Q 353 922 353 1747 
Q 353 2572 751 3078 
Q 1150 3584 1784 3584 
Q 2172 3584 2448 3432 
Q 2725 3281 2906 2969 
z
M 947 1747 
Q 947 1113 1208 752 
Q 1469 391 1925 391 
Q 2381 391 2643 752 
Q 2906 1113 2906 1747 
Q 2906 2381 2643 2742 
Q 2381 3103 1925 3103 
Q 1469 3103 1208 2742 
Q 947 2381 947 1747 
z
" transform="scale(0.015625)"/>
       <path id="DejaVuSans-20" transform="scale(0.015625)"/>
       <path id="DejaVuSans-73" d="M 2834 3397 
L 2834 2853 
Q 2591 2978 2328 3040 
Q 2066 3103 1784 3103 
Q 1356 3103 1142 2972 
Q 928 2841 928 2578 
Q 928 2378 1081 2264 
Q 1234 2150 1697 2047 
L 1894 2003 
Q 2506 1872 2764 1633 
Q 3022 1394 3022 966 
Q 3022 478 2636 193 
Q 2250 -91 1575 -91 
Q 1294 -91 989 -36 
Q 684 19 347 128 
L 347 722 
Q 666 556 975 473 
Q 1284 391 1588 391 
Q 1994 391 2212 530 
Q 2431 669 2431 922 
Q 2431 1156 2273 1281 
Q 2116 1406 1581 1522 
L 1381 1569 
Q 847 1681 609 1914 
Q 372 2147 372 2553 
Q 372 3047 722 3315 
Q 1072 3584 1716 3584 
Q 2034 3584 2315 3537 
Q 2597 3491 2834 3397 
z
" transform="scale(0.015625)"/>
       <path id="DejaVuSans-69" d="M 603 3500 
L 1178 3500 
L 1178 0 
L 603 0 
L 603 3500 
z
M 603 4863 
L 1178 4863 
L 1178 4134 
L 603 4134 
L 603 4863 
z
" transform="scale(0.015625)"/>
      </defs>
      <use xlink:href="#DejaVuSans-49"/>
      <use xlink:href="#DejaVuSans-6e" transform="translate(29.492188 0)"/>
      <use xlink:href="#DejaVuSans-74" transform="translate(92.871094 0)"/>
      <use xlink:href="#DejaVuSans-65" transform="translate(132.080078 0)"/>
      <use xlink:href="#DejaVuSans-72" transform="translate(193.603516 0)"/>
      <use xlink:href="#DejaVuSans-70" transform="translate(234.716797 0)"/>
      <use xlink:href="#DejaVuSans-6f" transform="translate(298.193359 0)"/>
      <use xlink:href="#DejaVuSans-6c" transform="translate(359.375 0)"/>
      <use xlink:href="#DejaVuSans-61" transform="translate(387.158203 0)"/>
      <use xlink:href="#DejaVuSans-74" transform="translate(448.4375 0)"/>
      <use xlink:href="#DejaVuSans-65" transform="translate(487.646484 0)"/>
      <use xlink:href="#DejaVuSans-64" transform="translate(549.169922 0)"/>
      <use xlink:href="#DejaVuSans-20" transform="translate(612.646484 0)"/>
      <use xlink:href="#DejaVuSans-73" transform="translate(644.433594 0)"/>
      <use xlink:href="#DejaVuSans-65" transform="translate(696.533203 0)"/>
      <use xlink:href="#DejaVuSans-73" transform="translate(758.056641 0)"/>
      <use xlink:href="#DejaVuSans-73" transform="translate(810.15625 0)"/>
      <use xlink:href="#DejaVuSans-69" transform="translate(862.255859 0)"/>
      <use xlink:href="#DejaVuSans-6f" transform="translate(890.039062 0)"/>
      <use xlink:href="#DejaVuSans-6e" transform="translate(951.220703 0)"/>
      <use xlink:href="#DejaVuSans-73" transform="translate(1014.599609 0)"/>
     </g>
    </g>
   </g>
   <g id="matplotlib.axis_2">
    <g id="ytick_1">
     <g id="line2d_19">
      <defs>
       <path id="m3858857d79" d="M 0 0 
L -8.25 0 
" style="stroke: #000000; stroke-width: 1.4"/>
      </defs>
      <g>
       <use xlink:href="#m3858857d79" x="52.679688" y="95.518245" style="stroke: #000000; stroke-width: 1.4"/>
      </g>
     </g>
     <g id="text_8">
      <!-- 0.0 -->
      <g transform="translate(21.845938 100.077308) scale(0.12 -0.12)">
       <use xlink:href="#DejaVuSans-30"/>
       <use xlink:href="#DejaVuSans-2e" transform="translate(63.623047 0)"/>
       <use xlink:href="#DejaVuSans-30" transform="translate(95.410156 0)"/>
      </g>
     </g>
    </g>
    <g id="ytick_2">
     <g id="line2d_20">
      <g>
       <use xlink:href="#m3858857d79" x="52.679688" y="59.51819" style="stroke: #000000; stroke-width: 1.4"/>
      </g>
     </g>
     <g id="text_9">
      <!-- 0.5 -->
      <g transform="translate(21.845938 64.077253) scale(0.12 -0.12)">
       <defs>
        <path id="DejaVuSans-35" d="M 691 4666 
L 3169 4666 
L 3169 4134 
L 1269 4134 
L 1269 2991 
Q 1406 3038 1543 3061 
Q 1681 3084 1819 3084 
Q 2600 3084 3056 2656 
Q 3513 2228 3513 1497 
Q 3513 744 3044 326 
Q 2575 -91 1722 -91 
Q 1428 -91 1123 -41 
Q 819 9 494 109 
L 494 744 
Q 775 591 1075 516 
Q 1375 441 1709 441 
Q 2250 441 2565 725 
Q 2881 1009 2881 1497 
Q 2881 1984 2565 2268 
Q 2250 2553 1709 2553 
Q 1456 2553 1204 2497 
Q 953 2441 691 2322 
L 691 4666 
z
" transform="scale(0.015625)"/>
       </defs>
       <use xlink:href="#DejaVuSans-30"/>
       <use xlink:href="#DejaVuSans-2e" transform="translate(63.623047 0)"/>
       <use xlink:href="#DejaVuSans-35" transform="translate(95.410156 0)"/>
      </g>
     </g>
    </g>
    <g id="ytick_3">
     <g id="line2d_21">
      <g>
       <use xlink:href="#m3858857d79" x="52.679688" y="23.518136" style="stroke: #000000; stroke-width: 1.4"/>
      </g>
     </g>
     <g id="text_10">
      <!-- 1.0 -->
      <g transform="translate(21.845938 28.077198) scale(0.12 -0.12)">
       <use xlink:href="#DejaVuSans-31"/>
       <use xlink:href="#DejaVuSans-2e" transform="translate(63.623047 0)"/>
       <use xlink:href="#DejaVuSans-30" transform="translate(95.410156 0)"/>
      </g>
     </g>
    </g>
    <g id="text_11">
     <!-- P(state) -->
     <g transform="translate(15.558281 79.258365) rotate(-90) scale(0.11 -0.11)">
      <defs>
       <path id="DejaVuSans-50" d="M 1259 4147 
L 1259 2394 
L 2053 2394 
Q 2494 2394 2734 2622 
Q 2975 2850 2975 3272 
Q 2975 3691 2734 3919 
Q 2494 4147 2053 4147 
L 1259 4147 
z
M 628 4666 
L 2053 4666 
Q 2838 4666 3239 4311 
Q 3641 3956 3641 3272 
Q 3641 2581 3239 2228 
Q 2838 1875 2053 1875 
L 1259 1875 
L 1259 0 
L 628 0 
L 628 4666 
z
" transform="scale(0.015625)"/>
       <path id="DejaVuSans-28" d="M 1984 4856 
Q 1566 4138 1362 3434 
Q 1159 2731 1159 2009 
Q 1159 1288 1364 580 
Q 1569 -128 1984 -844 
L 1484 -844 
Q 1016 -109 783 600 
Q 550 1309 550 2009 
Q 550 2706 781 3412 
Q 1013 4119 1484 4856 
L 1984 4856 
z
" transform="scale(0.015625)"/>
       <path id="DejaVuSans-29" d="M 513 4856 
L 1013 4856 
Q 1481 4119 1714 3412 
Q 1947 2706 1947 2009 
Q 1947 1309 1714 600 
Q 1481 -109 1013 -844 
L 513 -844 
Q 928 -128 1133 580 
Q 1338 1288 1338 2009 
Q 1338 2731 1133 3434 
Q 928 4138 513 4856 
z
" transform="scale(0.015625)"/>
      </defs>
      <use xlink:href="#DejaVuSans-50"/>
      <use xlink:href="#DejaVuSans-28" transform="translate(60.302734 0)"/>
      <use xlink:href="#DejaVuSans-73" transform="translate(99.316406 0)"/>
      <use xlink:href="#DejaVuSans-74" transform="translate(151.416016 0)"/>
      <use xlink:href="#DejaVuSans-61" transform="translate(190.625 0)"/>
      <use xlink:href="#DejaVuSans-74" transform="translate(251.904297 0)"/>
      <use xlink:href="#DejaVuSans-65" transform="translate(291.113281 0)"/>
      <use xlink:href="#DejaVuSans-29" transform="translate(352.636719 0)"/>
     </g>
    </g>
   </g>
   <g id="PathCollection_1">
    <defs>
     <path id="m8db93a15f8" d="M 0 1.581139 
C 0.419323 1.581139 0.821528 1.41454 1.118034 1.118034 
C 1.41454 0.821528 1.581139 0.419323 1.581139 0 
C 1.581139 -0.419323 1.41454 -0.821528 1.118034 -1.118034 
C 0.821528 -1.41454 0.419323 -1.581139 0 -1.581139 
C -0.419323 -1.581139 -0.821528 -1.41454 -1.118034 -1.118034 
C -1.41454 -0.821528 -1.581139 -0.419323 -1.581139 0 
C -1.581139 0.419323 -1.41454 0.821528 -1.118034 1.118034 
C -0.821528 1.41454 -0.419323 1.581139 0 1.581139 
z
" style="stroke: #2ca6a4"/>
    </defs>
    <g clip-path="url(#pdab4859914)">
     <use xlink:href="#m8db93a15f8" x="67.897869" y="38.232605" style="fill: #2ca6a4; stroke: #2ca6a4"/>
     <use xlink:href="#m8db93a15f8" x="71.279687" y="42.980819" style="fill: #2ca6a4; stroke: #2ca6a4"/>
     <use xlink:href="#m8db93a15f8" x="74.661506" y="47.729033" style="fill: #2ca6a4; stroke: #2ca6a4"/>
     <use xlink:href="#m8db93a15f8" x="78.043324" y="42.032048" style="fill: #2ca6a4; stroke: #2ca6a4"/>
     <use xlink:href="#m8db93a15f8" x="81.425142" y="32.853329" style="fill: #2ca6a4; stroke: #2ca6a4"/>
     <use xlink:href="#m8db93a15f8" x="84.80696" y="27.219121" style="fill: #2ca6a4; stroke: #2ca6a4"/>
     <use xlink:href="#m8db93a15f8" x="88.188778" y="25.129424" style="fill: #2ca6a4; stroke: #2ca6a4"/>
     <use xlink:href="#m8db93a15f8" x="91.570597" y="23.562151" style="fill: #2ca6a4; stroke: #2ca6a4"/>
     <use xlink:href="#m8db93a15f8" x="94.952415" y="23.562151" style="fill: #2ca6a4; stroke: #2ca6a4"/>
     <use xlink:href="#m8db93a15f8" x="98.334233" y="23.562151" style="fill: #2ca6a4; stroke: #2ca6a4"/>
     <use xlink:href="#m8db93a15f8" x="98.334233" y="63.359706" style="fill: #2ca6a4; stroke: #2ca6a4"/>
     <use xlink:href="#m8db93a15f8" x="104.741888" y="90.47413" style="fill: #2ca6a4; stroke: #2ca6a4"/>
     <use xlink:href="#m8db93a15f8" x="111.149544" y="88.131978" style="fill: #2ca6a4; stroke: #2ca6a4"/>
     <use xlink:href="#m8db93a15f8" x="117.557199" y="88.871992" style="fill: #2ca6a4; stroke: #2ca6a4"/>
     <use xlink:href="#m8db93a15f8" x="123.964855" y="86.977025" style="fill: #2ca6a4; stroke: #2ca6a4"/>
     <use xlink:href="#m8db93a15f8" x="130.37251" y="89.83021" style="fill: #2ca6a4; stroke: #2ca6a4"/>
     <use xlink:href="#m8db93a15f8" x="136.780166" y="88.511532" style="fill: #2ca6a4; stroke: #2ca6a4"/>
     <use xlink:href="#m8db93a15f8" x="143.187821" y="90.223099" style="fill: #2ca6a4; stroke: #2ca6a4"/>
     <use xlink:href="#m8db93a15f8" x="149.595477" y="92.8088" style="fill: #2ca6a4; stroke: #2ca6a4"/>
     <use xlink:href="#m8db93a15f8" x="156.003132" y="86.709095" style="fill: #2ca6a4; stroke: #2ca6a4"/>
     <use xlink:href="#m8db93a15f8" x="162.410788" y="86.492387" style="fill: #2ca6a4; stroke: #2ca6a4"/>
     <use xlink:href="#m8db93a15f8" x="168.818443" y="72.546172" style="fill: #2ca6a4; stroke: #2ca6a4"/>
     <use xlink:href="#m8db93a15f8" x="175.226099" y="72.751469" style="fill: #2ca6a4; stroke: #2ca6a4"/>
     <use xlink:href="#m8db93a15f8" x="181.633754" y="86.235133" style="fill: #2ca6a4; stroke: #2ca6a4"/>
     <use xlink:href="#m8db93a15f8" x="188.04141" y="90.93647" style="fill: #2ca6a4; stroke: #2ca6a4"/>
     <use xlink:href="#m8db93a15f8" x="194.449065" y="88.193599" style="fill: #2ca6a4; stroke: #2ca6a4"/>
     <use xlink:href="#m8db93a15f8" x="200.856721" y="90.471473" style="fill: #2ca6a4; stroke: #2ca6a4"/>
     <use xlink:href="#m8db93a15f8" x="207.264376" y="90.2624" style="fill: #2ca6a4; stroke: #2ca6a4"/>
     <use xlink:href="#m8db93a15f8" x="213.672032" y="91.678445" style="fill: #2ca6a4; stroke: #2ca6a4"/>
     <use xlink:href="#m8db93a15f8" x="220.079688" y="90.476365" style="fill: #2ca6a4; stroke: #2ca6a4"/>
     <use xlink:href="#m8db93a15f8" x="220.079688" y="84.942076" style="fill: #2ca6a4; stroke: #2ca6a4"/>
     <use xlink:href="#m8db93a15f8" x="228.089257" y="93.401111" style="fill: #2ca6a4; stroke: #2ca6a4"/>
     <use xlink:href="#m8db93a15f8" x="236.098826" y="88.103305" style="fill: #2ca6a4; stroke: #2ca6a4"/>
     <use xlink:href="#m8db93a15f8" x="244.108396" y="83.34855" style="fill: #2ca6a4; stroke: #2ca6a4"/>
     <use xlink:href="#m8db93a15f8" x="252.117965" y="90.746675" style="fill: #2ca6a4; stroke: #2ca6a4"/>
     <use xlink:href="#m8db93a15f8" x="260.127534" y="94.889138" style="fill: #2ca6a4; stroke: #2ca6a4"/>
     <use xlink:href="#m8db93a15f8" x="268.137104" y="86.814907" style="fill: #2ca6a4; stroke: #2ca6a4"/>
     <use xlink:href="#m8db93a15f8" x="276.146673" y="91.248705" style="fill: #2ca6a4; stroke: #2ca6a4"/>
     <use xlink:href="#m8db93a15f8" x="284.156243" y="95.259058" style="fill: #2ca6a4; stroke: #2ca6a4"/>
     <use xlink:href="#m8db93a15f8" x="292.165812" y="91.949065" style="fill: #2ca6a4; stroke: #2ca6a4"/>
     <use xlink:href="#m8db93a15f8" x="300.175381" y="91.883324" style="fill: #2ca6a4; stroke: #2ca6a4"/>
     <use xlink:href="#m8db93a15f8" x="308.184951" y="94.736343" style="fill: #2ca6a4; stroke: #2ca6a4"/>
     <use xlink:href="#m8db93a15f8" x="316.19452" y="94.69774" style="fill: #2ca6a4; stroke: #2ca6a4"/>
     <use xlink:href="#m8db93a15f8" x="324.204089" y="92.587751" style="fill: #2ca6a4; stroke: #2ca6a4"/>
     <use xlink:href="#m8db93a15f8" x="332.213659" y="86.800607" style="fill: #2ca6a4; stroke: #2ca6a4"/>
     <use xlink:href="#m8db93a15f8" x="340.223228" y="84.120611" style="fill: #2ca6a4; stroke: #2ca6a4"/>
     <use xlink:href="#m8db93a15f8" x="348.232798" y="93.722386" style="fill: #2ca6a4; stroke: #2ca6a4"/>
     <use xlink:href="#m8db93a15f8" x="356.242367" y="90.58356" style="fill: #2ca6a4; stroke: #2ca6a4"/>
     <use xlink:href="#m8db93a15f8" x="364.251936" y="88.502975" style="fill: #2ca6a4; stroke: #2ca6a4"/>
     <use xlink:href="#m8db93a15f8" x="372.261506" y="95.146524" style="fill: #2ca6a4; stroke: #2ca6a4"/>
    </g>
   </g>
   <g id="PathCollection_2">
    <defs>
     <path id="m30964876a3" d="M 0 1.581139 
C 0.419323 1.581139 0.821528 1.41454 1.118034 1.118034 
C 1.41454 0.821528 1.581139 0.419323 1.581139 0 
C 1.581139 -0.419323 1.41454 -0.821528 1.118034 -1.118034 
C 0.821528 -1.41454 0.419323 -1.581139 0 -1.581139 
C -0.419323 -1.581139 -0.821528 -1.41454 -1.118034 -1.118034 
C -1.41454 -0.821528 -1.581139 -0.419323 -1.581139 0 
C -1.581139 0.419323 -1.41454 0.821528 -1.118034 1.118034 
C -0.821528 1.41454 -0.419323 1.581139 0 1.581139 
z
" style="stroke: #e3b505"/>
    </defs>
    <g clip-path="url(#pdab4859914)">
     <use xlink:href="#m30964876a3" x="67.897869" y="90.433998" style="fill: #e3b505; stroke: #e3b505"/>
     <use xlink:href="#m30964876a3" x="71.279687" y="87.827568" style="fill: #e3b505; stroke: #e3b505"/>
     <use xlink:href="#m30964876a3" x="74.661506" y="85.221137" style="fill: #e3b505; stroke: #e3b505"/>
     <use xlink:href="#m30964876a3" x="78.043324" y="87.052834" style="fill: #e3b505; stroke: #e3b505"/>
     <use xlink:href="#m30964876a3" x="81.425142" y="90.363906" style="fill: #e3b505; stroke: #e3b505"/>
     <use xlink:href="#m30964876a3" x="84.80696" y="92.790581" style="fill: #e3b505; stroke: #e3b505"/>
     <use xlink:href="#m30964876a3" x="88.188778" y="94.332858" style="fill: #e3b505; stroke: #e3b505"/>
     <use xlink:href="#m30964876a3" x="91.570597" y="95.489566" style="fill: #e3b505; stroke: #e3b505"/>
     <use xlink:href="#m30964876a3" x="94.952415" y="95.489566" style="fill: #e3b505; stroke: #e3b505"/>
     <use xlink:href="#m30964876a3" x="98.334233" y="95.489566" style="fill: #e3b505; stroke: #e3b505"/>
     <use xlink:href="#m30964876a3" x="98.334233" y="65.464673" style="fill: #e3b505; stroke: #e3b505"/>
     <use xlink:href="#m30964876a3" x="104.741888" y="49.017278" style="fill: #e3b505; stroke: #e3b505"/>
     <use xlink:href="#m30964876a3" x="111.149544" y="71.913446" style="fill: #e3b505; stroke: #e3b505"/>
     <use xlink:href="#m30964876a3" x="117.557199" y="47.374977" style="fill: #e3b505; stroke: #e3b505"/>
     <use xlink:href="#m30964876a3" x="123.964855" y="50.618329" style="fill: #e3b505; stroke: #e3b505"/>
     <use xlink:href="#m30964876a3" x="130.37251" y="33.462315" style="fill: #e3b505; stroke: #e3b505"/>
     <use xlink:href="#m30964876a3" x="136.780166" y="43.613187" style="fill: #e3b505; stroke: #e3b505"/>
     <use xlink:href="#m30964876a3" x="143.187821" y="35.054563" style="fill: #e3b505; stroke: #e3b505"/>
     <use xlink:href="#m30964876a3" x="149.595477" y="40.610614" style="fill: #e3b505; stroke: #e3b505"/>
     <use xlink:href="#m30964876a3" x="156.003132" y="33.932056" style="fill: #e3b505; stroke: #e3b505"/>
     <use xlink:href="#m30964876a3" x="162.410788" y="53.857944" style="fill: #e3b505; stroke: #e3b505"/>
     <use xlink:href="#m30964876a3" x="168.818443" y="54.845691" style="fill: #e3b505; stroke: #e3b505"/>
     <use xlink:href="#m30964876a3" x="175.226099" y="52.737818" style="fill: #e3b505; stroke: #e3b505"/>
     <use xlink:href="#m30964876a3" x="181.633754" y="54.17325" style="fill: #e3b505; stroke: #e3b505"/>
     <use xlink:href="#m30964876a3" x="188.04141" y="47.114795" style="fill: #e3b505; stroke: #e3b505"/>
     <use xlink:href="#m30964876a3" x="194.449065" y="48.27455" style="fill: #e3b505; stroke: #e3b505"/>
     <use xlink:href="#m30964876a3" x="200.856721" y="67.73931" style="fill: #e3b505; stroke: #e3b505"/>
     <use xlink:href="#m30964876a3" x="207.264376" y="46.626643" style="fill: #e3b505; stroke: #e3b505"/>
     <use xlink:href="#m30964876a3" x="213.672032" y="50.768925" style="fill: #e3b505; stroke: #e3b505"/>
     <use xlink:href="#m30964876a3" x="220.079688" y="64.356274" style="fill: #e3b505; stroke: #e3b505"/>
     <use xlink:href="#m30964876a3" x="220.079688" y="49.321348" style="fill: #e3b505; stroke: #e3b505"/>
     <use xlink:href="#m30964876a3" x="228.089257" y="74.35291" style="fill: #e3b505; stroke: #e3b505"/>
     <use xlink:href="#m30964876a3" x="236.098826" y="88.199565" style="fill: #e3b505; stroke: #e3b505"/>
     <use xlink:href="#m30964876a3" x="244.108396" y="86.509699" style="fill: #e3b505; stroke: #e3b505"/>
     <use xlink:href="#m30964876a3" x="252.117965" y="89.905028" style="fill: #e3b505; stroke: #e3b505"/>
     <use xlink:href="#m30964876a3" x="260.127534" y="91.69355" style="fill: #e3b505; stroke: #e3b505"/>
     <use xlink:href="#m30964876a3" x="268.137104" y="85.891545" style="fill: #e3b505; stroke: #e3b505"/>
     <use xlink:href="#m30964876a3" x="276.146673" y="92.553986" style="fill: #e3b505; stroke: #e3b505"/>
     <use xlink:href="#m30964876a3" x="284.156243" y="94.209108" style="fill: #e3b505; stroke: #e3b505"/>
     <use xlink:href="#m30964876a3" x="292.165812" y="82.646099" style="fill: #e3b505; stroke: #e3b505"/>
     <use xlink:href="#m30964876a3" x="300.175381" y="93.789491" style="fill: #e3b505; stroke: #e3b505"/>
     <use xlink:href="#m30964876a3" x="308.184951" y="93.776693" style="fill: #e3b505; stroke: #e3b505"/>
     <use xlink:href="#m30964876a3" x="316.19452" y="91.701005" style="fill: #e3b505; stroke: #e3b505"/>
     <use xlink:href="#m30964876a3" x="324.204089" y="73.895407" style="fill: #e3b505; stroke: #e3b505"/>
     <use xlink:href="#m30964876a3" x="332.213659" y="85.819783" style="fill: #e3b505; stroke: #e3b505"/>
     <use xlink:href="#m30964876a3" x="340.223228" y="78.509189" style="fill: #e3b505; stroke: #e3b505"/>
     <use xlink:href="#m30964876a3" x="348.232798" y="76.698921" style="fill: #e3b505; stroke: #e3b505"/>
     <use xlink:href="#m30964876a3" x="356.242367" y="85.167508" style="fill: #e3b505; stroke: #e3b505"/>
     <use xlink:href="#m30964876a3" x="364.251936" y="73.932989" style="fill: #e3b505; stroke: #e3b505"/>
     <use xlink:href="#m30964876a3" x="372.261506" y="71.270791" style="fill: #e3b505; stroke: #e3b505"/>
    </g>
   </g>
   <g id="PathCollection_3">
    <defs>
     <path id="m79f953c4c1" d="M 0 1.581139 
C 0.419323 1.581139 0.821528 1.41454 1.118034 1.118034 
C 1.41454 0.821528 1.581139 0.419323 1.581139 0 
C 1.581139 -0.419323 1.41454 -0.821528 1.118034 -1.118034 
C 0.821528 -1.41454 0.419323 -1.581139 0 -1.581139 
C -0.419323 -1.581139 -0.821528 -1.41454 -1.118034 -1.118034 
C -1.41454 -0.821528 -1.581139 -0.419323 -1.581139 0 
C -1.581139 0.419323 -1.41454 0.821528 -1.118034 1.118034 
C -0.821528 1.41454 -0.419323 1.581139 0 1.581139 
z
" style="stroke: #4f6db8"/>
    </defs>
    <g clip-path="url(#pdab4859914)">
     <use xlink:href="#m79f953c4c1" x="67.897869" y="85.888023" style="fill: #4f6db8; stroke: #4f6db8"/>
     <use xlink:href="#m79f953c4c1" x="71.279687" y="83.746239" style="fill: #4f6db8; stroke: #4f6db8"/>
     <use xlink:href="#m79f953c4c1" x="74.661506" y="81.604456" style="fill: #4f6db8; stroke: #4f6db8"/>
     <use xlink:href="#m79f953c4c1" x="78.043324" y="85.469745" style="fill: #4f6db8; stroke: #4f6db8"/>
     <use xlink:href="#m79f953c4c1" x="81.425142" y="91.337391" style="fill: #4f6db8; stroke: #4f6db8"/>
     <use xlink:href="#m79f953c4c1" x="84.80696" y="94.544925" style="fill: #4f6db8; stroke: #4f6db8"/>
     <use xlink:href="#m79f953c4c1" x="88.188778" y="95.092344" style="fill: #4f6db8; stroke: #4f6db8"/>
     <use xlink:href="#m79f953c4c1" x="91.570597" y="95.502909" style="fill: #4f6db8; stroke: #4f6db8"/>
     <use xlink:href="#m79f953c4c1" x="94.952415" y="95.502909" style="fill: #4f6db8; stroke: #4f6db8"/>
     <use xlink:href="#m79f953c4c1" x="98.334233" y="95.502909" style="fill: #4f6db8; stroke: #4f6db8"/>
     <use xlink:href="#m79f953c4c1" x="98.334233" y="85.730247" style="fill: #4f6db8; stroke: #4f6db8"/>
     <use xlink:href="#m79f953c4c1" x="104.741888" y="75.063219" style="fill: #4f6db8; stroke: #4f6db8"/>
     <use xlink:href="#m79f953c4c1" x="111.149544" y="54.509201" style="fill: #4f6db8; stroke: #4f6db8"/>
     <use xlink:href="#m79f953c4c1" x="117.557199" y="78.307658" style="fill: #4f6db8; stroke: #4f6db8"/>
     <use xlink:href="#m79f953c4c1" x="123.964855" y="76.959272" style="fill: #4f6db8; stroke: #4f6db8"/>
     <use xlink:href="#m79f953c4c1" x="130.37251" y="91.262101" style="fill: #4f6db8; stroke: #4f6db8"/>
     <use xlink:href="#m79f953c4c1" x="136.780166" y="82.429907" style="fill: #4f6db8; stroke: #4f6db8"/>
     <use xlink:href="#m79f953c4c1" x="143.187821" y="89.276964" style="fill: #4f6db8; stroke: #4f6db8"/>
     <use xlink:href="#m79f953c4c1" x="149.595477" y="81.135211" style="fill: #4f6db8; stroke: #4f6db8"/>
     <use xlink:href="#m79f953c4c1" x="156.003132" y="93.913475" style="fill: #4f6db8; stroke: #4f6db8"/>
     <use xlink:href="#m79f953c4c1" x="162.410788" y="74.204295" style="fill: #4f6db8; stroke: #4f6db8"/>
     <use xlink:href="#m79f953c4c1" x="168.818443" y="87.162763" style="fill: #4f6db8; stroke: #4f6db8"/>
     <use xlink:href="#m79f953c4c1" x="175.226099" y="89.065338" style="fill: #4f6db8; stroke: #4f6db8"/>
     <use xlink:href="#m79f953c4c1" x="181.633754" y="74.146243" style="fill: #4f6db8; stroke: #4f6db8"/>
     <use xlink:href="#m79f953c4c1" x="188.04141" y="76.503361" style="fill: #4f6db8; stroke: #4f6db8"/>
     <use xlink:href="#m79f953c4c1" x="194.449065" y="78.086477" style="fill: #4f6db8; stroke: #4f6db8"/>
     <use xlink:href="#m79f953c4c1" x="200.856721" y="56.343843" style="fill: #4f6db8; stroke: #4f6db8"/>
     <use xlink:href="#m79f953c4c1" x="207.264376" y="77.665583" style="fill: #4f6db8; stroke: #4f6db8"/>
     <use xlink:href="#m79f953c4c1" x="213.672032" y="72.107257" style="fill: #4f6db8; stroke: #4f6db8"/>
     <use xlink:href="#m79f953c4c1" x="220.079688" y="59.721987" style="fill: #4f6db8; stroke: #4f6db8"/>
     <use xlink:href="#m79f953c4c1" x="220.079688" y="80.291202" style="fill: #4f6db8; stroke: #4f6db8"/>
     <use xlink:href="#m79f953c4c1" x="228.089257" y="46.800605" style="fill: #4f6db8; stroke: #4f6db8"/>
     <use xlink:href="#m79f953c4c1" x="236.098826" y="38.251756" style="fill: #4f6db8; stroke: #4f6db8"/>
     <use xlink:href="#m79f953c4c1" x="244.108396" y="44.696377" style="fill: #4f6db8; stroke: #4f6db8"/>
     <use xlink:href="#m79f953c4c1" x="252.117965" y="33.902923" style="fill: #4f6db8; stroke: #4f6db8"/>
     <use xlink:href="#m79f953c4c1" x="260.127534" y="27.971938" style="fill: #4f6db8; stroke: #4f6db8"/>
     <use xlink:href="#m79f953c4c1" x="268.137104" y="41.848174" style="fill: #4f6db8; stroke: #4f6db8"/>
     <use xlink:href="#m79f953c4c1" x="276.146673" y="30.751935" style="fill: #4f6db8; stroke: #4f6db8"/>
     <use xlink:href="#m79f953c4c1" x="284.156243" y="25.08646" style="fill: #4f6db8; stroke: #4f6db8"/>
     <use xlink:href="#m79f953c4c1" x="292.165812" y="39.959462" style="fill: #4f6db8; stroke: #4f6db8"/>
     <use xlink:href="#m79f953c4c1" x="300.175381" y="28.881811" style="fill: #4f6db8; stroke: #4f6db8"/>
     <use xlink:href="#m79f953c4c1" x="308.184951" y="26.04159" style="fill: #4f6db8; stroke: #4f6db8"/>
     <use xlink:href="#m79f953c4c1" x="316.19452" y="28.15588" style="fill: #4f6db8; stroke: #4f6db8"/>
     <use xlink:href="#m79f953c4c1" x="324.204089" y="48.071468" style="fill: #4f6db8; stroke: #4f6db8"/>
     <use xlink:href="#m79f953c4c1" x="332.213659" y="41.934237" style="fill: #4f6db8; stroke: #4f6db8"/>
     <use xlink:href="#m79f953c4c1" x="340.223228" y="51.924826" style="fill: #4f6db8; stroke: #4f6db8"/>
     <use xlink:href="#m79f953c4c1" x="348.232798" y="44.133318" style="fill: #4f6db8; stroke: #4f6db8"/>
     <use xlink:href="#m79f953c4c1" x="356.242367" y="38.803558" style="fill: #4f6db8; stroke: #4f6db8"/>
     <use xlink:href="#m79f953c4c1" x="364.251936" y="52.118661" style="fill: #4f6db8; stroke: #4f6db8"/>
     <use xlink:href="#m79f953c4c1" x="372.261506" y="48.13731" style="fill: #4f6db8; stroke: #4f6db8"/>
    </g>
   </g>
   <g id="line2d_22">
    <path d="M 67.897869 19.91813 
L 98.334233 19.91813 
" style="fill: none; stroke: #2ca6a4; stroke-width: 5; stroke-linecap: square"/>
   </g>
   <g id="line2d_23">
    <path d="M 98.334233 19.91813 
L 220.079688 19.91813 
" style="fill: none; stroke: #e3b505; stroke-width: 5; stroke-linecap: square"/>
   </g>
   <g id="line2d_24">
    <path d="M 220.079688 19.91813 
L 372.261506 19.91813 
" style="fill: none; stroke: #4f6db8; stroke-width: 5; stroke-linecap: square"/>
   </g>
   <g id="patch_3">
    <path d="M 52.679688 95.518245 
L 52.679688 23.518136 
" style="fill: none; stroke: #000000; stroke-width: 1.2; stroke-linejoin: miter; stroke-linecap: square"/>
   </g>
   <g id="patch_4">
    <path d="M 67.897869 99.29813 
L 372.261506 99.29813 
" style="fill: none; stroke: #000000; stroke-width: 1.2; stroke-linejoin: miter; stroke-linecap: square"/>
   </g>
   <g id="text_12">
    <!-- 0 -->
    <g style="fill: #2ca6a4" transform="translate(79.298551 17.422505) scale(0.12 -0.12)">
     <use xlink:href="#DejaVuSans-30"/>
    </g>
   </g>
   <g id="text_13">
    <!-- 1 -->
    <g style="fill: #e3b505" transform="translate(155.38946 17.422505) scale(0.12 -0.12)">
     <use xlink:href="#DejaVuSans-31"/>
    </g>
   </g>
   <g id="text_14">
    <!-- 2 -->
    <g style="fill: #4f6db8" transform="translate(292.353097 17.422505) scale(0.12 -0.12)">
     <use xlink:href="#DejaVuSans-32"/>
    </g>
   </g>
   <g id="text_15">
    <!-- Algorithm -->
    <g transform="translate(13.112415 16.318125) scale(0.12 -0.12)">
     <defs>
      <path id="DejaVuSans-41" d="M 2188 4044 
L 1331 1722 
L 3047 1722 
L 2188 4044 
z
M 1831 4666 
L 2547 4666 
L 4325 0 
L 3669 0 
L 3244 1197 
L 1141 1197 
L 716 0 
L 50 0 
L 1831 4666 
z
" transform="scale(0.015625)"/>
      <path id="DejaVuSans-67" d="M 2906 1791 
Q 2906 2416 2648 2759 
Q 2391 3103 1925 3103 
Q 1463 3103 1205 2759 
Q 947 2416 947 1791 
Q 947 1169 1205 825 
Q 1463 481 1925 481 
Q 2391 481 2648 825 
Q 2906 1169 2906 1791 
z
M 3481 434 
Q 3481 -459 3084 -895 
Q 2688 -1331 1869 -1331 
Q 1566 -1331 1297 -1286 
Q 1028 -1241 775 -1147 
L 775 -588 
Q 1028 -725 1275 -790 
Q 1522 -856 1778 -856 
Q 2344 -856 2625 -561 
Q 2906 -266 2906 331 
L 2906 616 
Q 2728 306 2450 153 
Q 2172 0 1784 0 
Q 1141 0 747 490 
Q 353 981 353 1791 
Q 353 2603 747 3093 
Q 1141 3584 1784 3584 
Q 2172 3584 2450 3431 
Q 2728 3278 2906 2969 
L 2906 3500 
L 3481 3500 
L 3481 434 
z
" transform="scale(0.015625)"/>
      <path id="DejaVuSans-68" d="M 3513 2113 
L 3513 0 
L 2938 0 
L 2938 2094 
Q 2938 2591 2744 2837 
Q 2550 3084 2163 3084 
Q 1697 3084 1428 2787 
Q 1159 2491 1159 1978 
L 1159 0 
L 581 0 
L 581 4863 
L 1159 4863 
L 1159 2956 
Q 1366 3272 1645 3428 
Q 1925 3584 2291 3584 
Q 2894 3584 3203 3211 
Q 3513 2838 3513 2113 
z
" transform="scale(0.015625)"/>
      <path id="DejaVuSans-6d" d="M 3328 2828 
Q 3544 3216 3844 3400 
Q 4144 3584 4550 3584 
Q 5097 3584 5394 3201 
Q 5691 2819 5691 2113 
L 5691 0 
L 5113 0 
L 5113 2094 
Q 5113 2597 4934 2840 
Q 4756 3084 4391 3084 
Q 3944 3084 3684 2787 
Q 3425 2491 3425 1978 
L 3425 0 
L 2847 0 
L 2847 2094 
Q 2847 2600 2669 2842 
Q 2491 3084 2119 3084 
Q 1678 3084 1418 2786 
Q 1159 2488 1159 1978 
L 1159 0 
L 581 0 
L 581 3500 
L 1159 3500 
L 1159 2956 
Q 1356 3278 1631 3431 
Q 1906 3584 2284 3584 
Q 2666 3584 2933 3390 
Q 3200 3197 3328 2828 
z
" transform="scale(0.015625)"/>
     </defs>
     <use xlink:href="#DejaVuSans-41"/>
     <use xlink:href="#DejaVuSans-6c" transform="translate(68.408203 0)"/>
     <use xlink:href="#DejaVuSans-67" transform="translate(96.191406 0)"/>
     <use xlink:href="#DejaVuSans-6f" transform="translate(159.667969 0)"/>
     <use xlink:href="#DejaVuSans-72" transform="translate(220.849609 0)"/>
     <use xlink:href="#DejaVuSans-69" transform="translate(261.962891 0)"/>
     <use xlink:href="#DejaVuSans-74" transform="translate(289.746094 0)"/>
     <use xlink:href="#DejaVuSans-68" transform="translate(328.955078 0)"/>
     <use xlink:href="#DejaVuSans-6d" transform="translate(392.333984 0)"/>
    </g>
   </g>
  </g>
 </g>
 <defs>
  <clipPath id="pdab4859914">
   <rect x="52.679688" y="16.13813" width="334.8" height="83.16"/>
  </clipPath>
 </defs>
</svg>
