<?xml version="1.0" encoding="UTF-8" standalone="no"?>
<!-- Created with Inkscape (http://www.inkscape.org/) -->

<svg
   width="210mm"
   height="297mm"
   viewBox="0 0 210 297"
   version="1.1"
   id="svg5"
   xml:space="preserve"
   inkscape:version="1.2.2 (b0a8486541, 2022-12-01)"
   sodipodi:docname="monkey-algorithms-cartoon.svg"
   xmlns:inkscape="http://www.inkscape.org/namespaces/inkscape"
   xmlns:sodipodi="http://sodipodi.sourceforge.net/DTD/sodipodi-0.dtd"
   xmlns="http://www.w3.org/2000/svg"
   xmlns:svg="http://www.w3.org/2000/svg"><sodipodi:namedview
     id="namedview7"
     pagecolor="#ffffff"
     bordercolor="#000000"
     borderopacity="0.25"
     inkscape:showpageshadow="2"
     inkscape:pageopacity="0.0"
     inkscape:pagecheckerboard="0"
     inkscape:deskcolor="#d1d1d1"
     inkscape:document-units="mm"
     showgrid="false"
     inkscape:zoom="1.1986527"
     inkscape:cx="286.57175"
     inkscape:cy="207.73323"
     inkscape:window-width="1233"
     inkscape:window-height="1379"
     inkscape:window-x="1323"
     inkscape:window-y="59"
     inkscape:window-maximized="1"
     inkscape:current-layer="layer1" /><defs
     id="defs2"><clipPath
       id="pd9520c5486"><rect
         x="52.679688"
         y="11.638129"
         width="390.60001"
         height="166.32001"
         id="rect40535" /></clipPath><clipPath
       id="clipPath40554"><rect
         x="52.679688"
         y="11.638129"
         width="390.60001"
         height="166.32001"
         id="rect40552" /></clipPath><clipPath
       id="clipPath40558"><rect
         x="52.679688"
         y="11.638129"
         width="390.60001"
         height="166.32001"
         id="rect40556" /></clipPath><clipPath
       id="clipPath40562"><rect
         x="52.679688"
         y="11.638129"
         width="390.60001"
         height="166.32001"
         id="rect40560" /></clipPath><clipPath
       id="clipPath40566"><rect
         x="52.679688"
         y="11.638129"
         width="390.60001"
         height="166.32001"
         id="rect40564" /></clipPath><clipPath
       id="clipPath40570"><rect
         x="52.679688"
         y="11.638129"
         width="390.60001"
         height="166.32001"
         id="rect40568" /></clipPath><clipPath
       id="clipPath40574"><rect
         x="52.679688"
         y="11.638129"
         width="390.60001"
         height="166.32001"
         id="rect40572" /></clipPath><clipPath
       id="clipPath40578"><rect
         x="52.679688"
         y="11.638129"
         width="390.60001"
         height="166.32001"
         id="rect40576" /></clipPath><clipPath
       id="clipPath40582"><rect
         x="52.679688"
         y="11.638129"
         width="390.60001"
         height="166.32001"
         id="rect40580" /></clipPath><clipPath
       id="clipPath40586"><rect
         x="52.679688"
         y="11.638129"
         width="390.60001"
         height="166.32001"
         id="rect40584" /></clipPath><clipPath
       id="clipPath40590"><rect
         x="52.679688"
         y="11.638129"
         width="390.60001"
         height="166.32001"
         id="rect40588" /></clipPath><clipPath
       id="clipPath40594"><rect
         x="52.679688"
         y="11.638129"
         width="390.60001"
         height="166.32001"
         id="rect40592" /></clipPath><clipPath
       id="clipPath40598"><rect
         x="52.679688"
         y="11.638129"
         width="390.60001"
         height="166.32001"
         id="rect40596" /></clipPath><clipPath
       id="clipPath40602"><rect
         x="52.679688"
         y="11.638129"
         width="390.60001"
         height="166.32001"
         id="rect40600" /></clipPath><clipPath
       id="clipPath40606"><rect
         x="52.679688"
         y="11.638129"
         width="390.60001"
         height="166.32001"
         id="rect40604" /></clipPath><path
       id="mca80e0ddf4"
       d="M 0,0 V 8.25"
       style="stroke:#000000;stroke-width:1.4" /><path
       id="DejaVuSans-30"
       d="m 2034,4250 q -487,0 -733,-480 -245,-479 -245,-1442 0,-959 245,-1439 246,-480 733,-480 491,0 736,480 246,480 246,1439 0,963 -246,1442 -245,480 -736,480 z m 0,500 q 785,0 1199,-621 414,-620 414,-1801 0,-1178 -414,-1799 -414,-620 -1199,-620 -784,0 -1198,620 -414,621 -414,1799 0,1181 414,1801 414,621 1198,621 z"
       transform="scale(0.015625)" /><path
       id="DejaVuSans-2e"
       d="m 684,794 h 660 V 0 H 684 Z"
       transform="scale(0.015625)" /><path
       id="DejaVuSans-32"
       d="M 1228,531 H 3431 V 0 H 469 v 531 q 359,372 979,998 621,627 780,809 303,340 423,576 121,236 121,464 0,372 -261,606 -261,235 -680,235 -297,0 -627,-103 -329,-103 -704,-313 v 638 q 381,153 712,231 332,78 607,78 725,0 1156,-363 431,-362 431,-968 0,-288 -108,-546 -107,-257 -392,-607 -78,-91 -497,-524 Q 1991,1309 1228,531 Z"
       transform="scale(0.015625)" /><path
       id="DejaVuSans-34"
       d="M 2419,4116 825,1625 h 1594 z m -166,550 h 794 V 1625 h 666 V 1100 H 3047 V 0 H 2419 V 1100 H 313 v 609 z"
       transform="scale(0.015625)" /><path
       id="DejaVuSans-36"
       d="m 2113,2584 q -425,0 -674,-291 -248,-290 -248,-796 0,-503 248,-796 249,-292 674,-292 425,0 673,292 248,293 248,796 0,506 -248,796 -248,291 -673,291 z m 1253,1979 v -575 q -238,112 -480,171 -242,60 -480,60 -625,0 -955,-422 -329,-422 -376,-1275 184,272 462,417 279,145 613,145 703,0 1111,-427 408,-426 408,-1160 0,-719 -425,-1154 -425,-434 -1131,-434 -810,0 -1238,620 -428,621 -428,1799 0,1106 525,1764 525,658 1409,658 238,0 480,-47 242,-47 505,-140 z"
       transform="scale(0.015625)" /><path
       id="DejaVuSans-38"
       d="m 2034,2216 q -450,0 -708,-241 -257,-241 -257,-662 0,-422 257,-663 258,-241 708,-241 450,0 709,242 260,243 260,662 0,421 -258,662 -257,241 -711,241 z m -631,268 q -406,100 -633,378 -226,279 -226,679 0,559 398,884 399,325 1092,325 697,0 1094,-325 397,-325 397,-884 0,-400 -227,-679 -226,-278 -629,-378 456,-106 710,-416 255,-309 255,-755 Q 3634,634 3220,271 2806,-91 2034,-91 1263,-91 848,271 434,634 434,1313 q 0,446 256,755 257,310 713,416 z m -231,997 q 0,-362 226,-565 227,-203 636,-203 407,0 636,203 230,203 230,565 0,363 -230,566 -229,203 -636,203 -409,0 -636,-203 -226,-203 -226,-566 z"
       transform="scale(0.015625)" /><path
       id="DejaVuSans-31"
       d="M 794,531 H 1825 V 4091 L 703,3866 v 575 l 1116,225 h 631 V 531 H 3481 V 0 H 794 Z"
       transform="scale(0.015625)" /><path
       id="DejaVuSans-49"
       d="m 628,4666 h 631 V 0 H 628 Z"
       transform="scale(0.015625)" /><path
       id="DejaVuSans-6e"
       d="M 3513,2113 V 0 h -575 v 2094 q 0,497 -194,743 -194,247 -581,247 -466,0 -735,-297 -269,-296 -269,-809 V 0 H 581 v 3500 h 578 v -544 q 207,316 486,472 280,156 646,156 603,0 912,-373 310,-373 310,-1098 z"
       transform="scale(0.015625)" /><path
       id="DejaVuSans-74"
       d="M 1172,4494 V 3500 H 2356 V 3053 H 1172 V 1153 q 0,-428 117,-550 117,-122 477,-122 h 590 V 0 H 1766 Q 1100,0 847,248 594,497 594,1153 V 3053 H 172 v 447 h 422 v 994 z"
       transform="scale(0.015625)" /><path
       id="DejaVuSans-65"
       d="M 3597,1894 V 1613 H 953 q 38,-594 358,-905 320,-311 892,-311 331,0 642,81 311,81 618,244 V 178 Q 3153,47 2828,-22 2503,-91 2169,-91 1331,-91 842,396 353,884 353,1716 q 0,859 464,1363 464,505 1252,505 706,0 1117,-455 411,-454 411,-1235 z m -575,169 q -6,471 -264,752 -258,282 -683,282 -481,0 -770,-272 -289,-272 -333,-766 z"
       transform="scale(0.015625)" /><path
       id="DejaVuSans-72"
       d="m 2631,2963 q -97,56 -211,82 -114,27 -251,27 -488,0 -749,-317 -261,-317 -261,-911 V 0 H 581 v 3500 h 578 v -544 q 182,319 472,473 291,155 707,155 59,0 131,-8 72,-7 159,-23 z"
       transform="scale(0.015625)" /><path
       id="DejaVuSans-70"
       d="M 1159,525 V -1331 H 581 v 4831 h 578 v -531 q 182,312 458,463 277,152 661,152 638,0 1036,-506 399,-506 399,-1331 0,-825 -399,-1332 -398,-506 -1036,-506 -384,0 -661,152 -276,152 -458,464 z m 1957,1222 q 0,634 -261,995 -261,361 -717,361 -457,0 -718,-361 -261,-361 -261,-995 0,-634 261,-995 261,-361 718,-361 456,0 717,361 261,361 261,995 z"
       transform="scale(0.015625)" /><path
       id="DejaVuSans-6f"
       d="m 1959,3097 q -462,0 -731,-361 -269,-361 -269,-989 0,-628 267,-989 268,-361 733,-361 460,0 728,362 269,363 269,988 0,622 -269,986 -268,364 -728,364 z m 0,487 q 750,0 1178,-488 429,-487 429,-1349 Q 3566,888 3137,398 2709,-91 1959,-91 1206,-91 779,398 353,888 353,1747 q 0,862 426,1349 427,488 1180,488 z"
       transform="scale(0.015625)" /><path
       id="DejaVuSans-6c"
       d="m 603,4863 h 575 V 0 H 603 Z"
       transform="scale(0.015625)" /><path
       id="DejaVuSans-61"
       d="m 2194,1759 q -697,0 -966,-159 -269,-159 -269,-544 0,-306 202,-486 202,-179 548,-179 479,0 768,339 289,339 289,901 v 128 z m 1147,238 V 0 H 2766 V 531 Q 2569,213 2275,61 1981,-91 1556,-91 q -537,0 -855,302 -317,302 -317,808 0,590 395,890 396,300 1180,300 h 807 v 57 q 0,397 -261,614 -261,217 -733,217 -300,0 -585,-72 -284,-72 -546,-216 v 532 q 315,122 612,182 297,61 578,61 760,0 1135,-394 375,-393 375,-1193 z"
       transform="scale(0.015625)" /><path
       id="DejaVuSans-64"
       d="m 2906,2969 v 1894 h 575 V 0 H 2906 V 525 Q 2725,213 2448,61 2172,-91 1784,-91 1150,-91 751,415 353,922 353,1747 q 0,825 398,1331 399,506 1033,506 388,0 664,-152 277,-151 458,-463 z M 947,1747 q 0,-634 261,-995 261,-361 717,-361 456,0 718,361 263,361 263,995 0,634 -263,995 -262,361 -718,361 -456,0 -717,-361 -261,-361 -261,-995 z"
       transform="scale(0.015625)" /><path
       id="DejaVuSans-20"
       transform="scale(0.015625)"
       d="" /><path
       id="DejaVuSans-73"
       d="m 2834,3397 v -544 q -243,125 -506,187 -262,63 -544,63 -428,0 -642,-131 -214,-131 -214,-394 0,-200 153,-314 153,-114 616,-217 l 197,-44 q 612,-131 870,-370 258,-239 258,-667 0,-488 -386,-773 Q 2250,-91 1575,-91 1294,-91 989,-36 684,19 347,128 v 594 q 319,-166 628,-249 309,-82 613,-82 406,0 624,139 219,139 219,392 0,234 -158,359 -157,125 -692,241 l -200,47 q -534,112 -772,345 -237,233 -237,639 0,494 350,762 350,269 994,269 318,0 599,-47 282,-46 519,-140 z"
       transform="scale(0.015625)" /><path
       id="DejaVuSans-69"
       d="m 603,3500 h 575 V 0 H 603 Z m 0,1363 h 575 V 4134 H 603 Z"
       transform="scale(0.015625)" /><path
       id="m70112f23fd"
       d="M 0,0 H -8.25"
       style="stroke:#000000;stroke-width:1.4" /><path
       id="DejaVuSans-35"
       d="M 691,4666 H 3169 V 4134 H 1269 V 2991 q 137,47 274,70 138,23 276,23 781,0 1237,-428 457,-428 457,-1159 Q 3513,744 3044,326 2575,-91 1722,-91 1428,-91 1123,-41 819,9 494,109 v 635 q 281,-153 581,-228 300,-75 634,-75 541,0 856,284 316,284 316,772 0,487 -316,771 -315,285 -856,285 -253,0 -505,-56 -251,-56 -513,-175 z"
       transform="scale(0.015625)" /><path
       id="DejaVuSans-50"
       d="M 1259,4147 V 2394 h 794 q 441,0 681,228 241,228 241,650 0,419 -241,647 -240,228 -681,228 z m -631,519 h 1425 q 785,0 1186,-355 402,-355 402,-1039 0,-691 -402,-1044 -401,-353 -1186,-353 H 1259 V 0 H 628 Z"
       transform="scale(0.015625)" /><path
       id="DejaVuSans-28"
       d="m 1984,4856 q -418,-718 -622,-1422 -203,-703 -203,-1425 0,-721 205,-1429 205,-708 620,-1424 h -500 q -468,735 -701,1444 -233,709 -233,1409 0,697 231,1403 232,707 703,1444 z"
       transform="scale(0.015625)" /><path
       id="DejaVuSans-29"
       d="m 513,4856 h 500 q 468,-737 701,-1444 233,-706 233,-1403 0,-700 -233,-1409 -233,-709 -701,-1444 H 513 q 415,716 620,1424 205,708 205,1429 0,722 -205,1425 -205,704 -620,1422 z"
       transform="scale(0.015625)" /><path
       id="m96634d18cb"
       d="m 0,1.581139 c 0.419323,0 0.821528,-0.166599 1.118034,-0.463105 C 1.41454,0.821528 1.581139,0.419323 1.581139,0 1.581139,-0.419323 1.41454,-0.821528 1.118034,-1.118034 0.821528,-1.41454 0.419323,-1.581139 0,-1.581139 c -0.419323,0 -0.821528,0.166599 -1.118034,0.463105 C -1.41454,-0.821528 -1.581139,-0.419323 -1.581139,0 c 0,0.419323 0.166599,0.821528 0.463105,1.118034 C -0.821528,1.41454 -0.419323,1.581139 0,1.581139 Z"
       style="stroke:#2ca6a4" /><path
       id="m659059acd7"
       d="m 0,1.581139 c 0.419323,0 0.821528,-0.166599 1.118034,-0.463105 C 1.41454,0.821528 1.581139,0.419323 1.581139,0 1.581139,-0.419323 1.41454,-0.821528 1.118034,-1.118034 0.821528,-1.41454 0.419323,-1.581139 0,-1.581139 c -0.419323,0 -0.821528,0.166599 -1.118034,0.463105 C -1.41454,-0.821528 -1.581139,-0.419323 -1.581139,0 c 0,0.419323 0.166599,0.821528 0.463105,1.118034 C -0.821528,1.41454 -0.419323,1.581139 0,1.581139 Z"
       style="stroke:#e3b505" /><path
       id="m7cd1b76b52"
       d="m 0,1.581139 c 0.419323,0 0.821528,-0.166599 1.118034,-0.463105 C 1.41454,0.821528 1.581139,0.419323 1.581139,0 1.581139,-0.419323 1.41454,-0.821528 1.118034,-1.118034 0.821528,-1.41454 0.419323,-1.581139 0,-1.581139 c -0.419323,0 -0.821528,0.166599 -1.118034,0.463105 C -1.41454,-0.821528 -1.581139,-0.419323 -1.581139,0 c 0,0.419323 0.166599,0.821528 0.463105,1.118034 C -0.821528,1.41454 -0.419323,1.581139 0,1.581139 Z"
       style="stroke:#4f6db8" /><path
       id="DejaVuSans-41"
       d="M 2188,4044 1331,1722 h 1716 z m -357,622 h 716 L 4325,0 H 3669 L 3244,1197 H 1141 L 716,0 H 50 Z"
       transform="scale(0.015625)" /><path
       id="DejaVuSans-67"
       d="m 2906,1791 q 0,625 -258,968 -257,344 -723,344 -462,0 -720,-344 -258,-343 -258,-968 0,-622 258,-966 258,-344 720,-344 466,0 723,344 258,344 258,966 z M 3481,434 q 0,-893 -397,-1329 -396,-436 -1215,-436 -303,0 -572,45 -269,45 -522,139 v 559 q 253,-137 500,-202 247,-66 503,-66 566,0 847,295 281,295 281,892 V 616 Q 2728,306 2450,153 2172,0 1784,0 1141,0 747,490 353,981 353,1791 q 0,812 394,1302 394,491 1037,491 388,0 666,-153 278,-153 456,-462 v 531 h 575 z"
       transform="scale(0.015625)" /><path
       id="DejaVuSans-68"
       d="M 3513,2113 V 0 h -575 v 2094 q 0,497 -194,743 -194,247 -581,247 -466,0 -735,-297 -269,-296 -269,-809 V 0 H 581 v 4863 h 578 V 2956 q 207,316 486,472 280,156 646,156 603,0 912,-373 310,-373 310,-1098 z"
       transform="scale(0.015625)" /><path
       id="DejaVuSans-6d"
       d="m 3328,2828 q 216,388 516,572 300,184 706,184 547,0 844,-383 297,-382 297,-1088 V 0 h -578 v 2094 q 0,503 -179,746 -178,244 -543,244 -447,0 -707,-297 -259,-296 -259,-809 V 0 h -578 v 2094 q 0,506 -178,748 -178,242 -550,242 -441,0 -701,-298 -259,-298 -259,-808 V 0 H 581 v 3500 h 578 v -544 q 197,322 472,475 275,153 653,153 382,0 649,-194 267,-193 395,-562 z"
       transform="scale(0.015625)" /></defs><g
     inkscape:label="Layer 1"
     inkscape:groupmode="layer"
     id="layer1"><path
       style="fill:#835c3b;fill-opacity:1;stroke:#835c3b;stroke-width:0.559;stroke-dasharray:none;stroke-opacity:1"
       d="m 43.095681,52.618289 c -2.354007,-0.182607 -4.418494,-1.16681 -6.090445,-2.903499 -1.165887,-1.211029 -1.929749,-2.603222 -2.33921,-4.263383 -0.154425,-0.626112 -0.162116,-0.641328 -0.358595,-0.709351 -1.209243,-0.41865 -2.152846,-1.429318 -2.48893,-2.66583 -0.135821,-0.499704 -0.137592,-1.421345 -0.0038,-1.923817 0.292396,-1.097286 1.027572,-1.985503 2.058882,-2.48747 0.698647,-0.340054 1.596049,-0.468161 2.312033,-0.330051 l 0.262699,0.05068 0.313056,-0.345939 c 0.790788,-0.873849 1.707932,-1.60102 2.626114,-2.082151 3.863021,-2.024241 8.51967,-1.191865 11.408367,2.039242 0.321425,0.359527 0.363686,0.387767 0.525755,0.351315 0.09692,-0.0218 0.492416,-0.03675 0.878861,-0.03323 0.789575,0.0072 1.273322,0.135753 1.888164,0.501797 0.418733,0.249291 1.043149,0.873711 1.292446,1.292454 0.668016,1.122065 0.716175,2.542559 0.126165,3.721364 -0.410038,0.81923 -1.156808,1.498511 -2.014067,1.832047 l -0.407163,0.158416 -0.156666,0.635186 c -0.288193,1.168447 -0.810202,2.308082 -1.511255,3.299317 -0.387023,0.54722 -1.356909,1.527625 -1.969584,1.990945 -1.820245,1.376508 -4.095885,2.047055 -6.35293,1.87197 z m 1.727295,-0.886646 c 1.726468,-0.496884 3.081086,-2.169591 3.548319,-4.381524 0.176037,-0.83339 0.188527,-2.125689 0.02844,-2.944215 L 48.287702,43.833058 48.41874,43.65582 c 0.543387,-0.734969 0.70782,-1.168965 0.70782,-1.868175 0,-1.138894 -0.670682,-2.121322 -1.700518,-2.490948 -1.070818,-0.384338 -2.143532,-0.116993 -2.940879,0.732933 -0.3814,0.40655 -0.389369,0.411311 -0.688478,0.411311 -0.294752,0 -0.31104,-0.0091 -0.627306,-0.351352 -0.609765,-0.659823 -1.222525,-0.9368 -2.072505,-0.9368 -1.058094,0 -1.925291,0.553059 -2.386,1.521681 -0.18433,0.387548 -0.211107,0.503134 -0.2306,0.99539 -0.03108,0.784734 0.113247,1.195615 0.697579,1.98596 l 0.131039,0.177238 -0.112033,0.572846 c -0.160401,0.820184 -0.147651,2.111565 0.02907,2.944215 0.674586,3.178453 3.12152,5.093988 5.597033,4.381524 z m -2.530279,-1.828319 c -0.378795,-0.12344 -0.746542,-0.360761 -0.977946,-0.631105 -0.241836,-0.28253 -0.256722,-0.382911 -0.0885,-0.596777 0.174617,-0.221989 0.360566,-0.197866 0.651556,0.08453 0.301812,0.292898 0.513455,0.406567 0.775335,0.416412 0.286386,0.01077 0.467046,-0.13365 0.652139,-0.521309 0.211716,-0.443421 0.302704,-0.543775 0.493023,-0.543775 0.190079,0 0.305787,0.118726 0.456511,0.468418 0.16223,0.376388 0.390994,0.585524 0.640482,0.585524 0.27555,0 0.579251,-0.154003 0.830672,-0.421223 0.255903,-0.271985 0.466739,-0.294422 0.644389,-0.06857 0.06675,0.08486 0.121354,0.199711 0.121354,0.255243 0,0.185878 -0.460303,0.633089 -0.848148,0.824025 -0.634773,0.312497 -1.185541,0.247727 -1.651419,-0.194208 l -0.18675,-0.177151 -0.185415,0.185417 c -0.364296,0.364293 -0.855834,0.488191 -1.327289,0.334555 z m 0.523252,-4.04961 c -0.164057,-0.114911 -0.17689,-0.433912 -0.02306,-0.57313 0.142124,-0.128619 0.436457,-0.123244 0.5572,0.01021 0.142098,0.157018 0.124665,0.452361 -0.03323,0.562955 -0.07157,0.05013 -0.184278,0.09115 -0.250457,0.09115 -0.06618,0 -0.178885,-0.04102 -0.250457,-0.09115 z m 1.463808,0 c -0.164057,-0.114911 -0.176889,-0.433912 -0.02306,-0.57313 0.142123,-0.128619 0.436459,-0.123244 0.5572,0.01021 0.142099,0.157018 0.124665,0.452361 -0.03323,0.562955 -0.07158,0.05013 -0.184279,0.09115 -0.250456,0.09115 -0.06618,0 -0.178885,-0.04102 -0.250457,-0.09115 z m -4.100579,-3.540599 c -0.381112,-0.232358 -0.452792,-0.749374 -0.153249,-1.105361 0.470862,-0.559587 1.313182,-0.222628 1.313182,0.52532 0,0.20537 -0.036,0.279998 -0.22732,0.471326 -0.194792,0.194791 -0.263919,0.22729 -0.483057,0.227101 -0.153108,-1.16e-4 -0.333517,-0.04763 -0.449556,-0.118386 z m 6.305651,-0.108721 c -0.191328,-0.191327 -0.227321,-0.265955 -0.227321,-0.471326 0,-0.747949 0.842321,-1.084907 1.313183,-0.52532 0.431054,0.512281 0.08088,1.223163 -0.602805,1.223748 -0.219139,1.75e-4 -0.288266,-0.03231 -0.483057,-0.227102 z m -6.414752,8.643542 c -0.807855,-0.876421 -1.475193,-2.372762 -1.69052,-3.790585 -0.110285,-0.726186 -0.10821,-1.901887 0.0045,-2.548252 0.08573,-0.491629 0.08479,-0.519665 -0.02136,-0.637107 -0.17839,-0.197372 -0.400823,-0.620653 -0.541479,-1.03041 -0.19471,-0.567216 -0.193336,-1.5083 0.0031,-2.107038 0.785607,-2.394865 3.79051,-3.180199 5.635277,-1.472785 l 0.339162,0.31391 0.377663,-0.353287 c 0.615865,-0.576111 1.532378,-0.94585 2.344583,-0.94585 0.790146,0 1.721842,0.367786 2.30916,0.911538 1.314694,1.217176 1.509658,3.149928 0.465996,4.619626 l -0.166316,0.234209 0.08415,0.468419 c 0.109559,0.609796 0.110569,1.908756 0.002,2.57805 -0.231669,1.428338 -0.890547,2.891565 -1.696643,3.767885 -0.212877,0.231423 -0.222184,0.253324 -0.0908,0.213705 0.533981,-0.161033 1.736164,-1.005124 2.461717,-1.728449 1.200137,-1.196453 2.00195,-2.677959 2.377046,-4.392049 0.156149,-0.713561 0.156149,-2.682475 0,-3.396036 -0.802635,-3.667859 -3.694736,-6.369849 -7.337808,-6.855463 -0.726331,-0.09682 -2.301552,-0.03577 -2.953906,0.114485 -3.470706,0.799391 -6.075804,3.520274 -6.669919,6.966368 -0.222537,1.290795 -0.117077,2.895461 0.268023,4.078208 0.223596,0.686727 0.728014,1.706652 1.15037,2.326031 0.451114,0.661555 1.436375,1.659133 2.068806,2.094671 0.448097,0.308591 1.348365,0.814447 1.455831,0.818024 0.02825,9.17e-4 -0.05213,-0.110581 -0.178633,-0.247818 z m -5.689969,-7.365494 c -0.06946,-1.529365 0.431268,-3.494319 1.248782,-4.900544 l 0.314868,-0.541609 h -0.402716 c -0.902948,0 -1.572926,0.274887 -2.198813,0.902159 -0.622229,0.623605 -0.901029,1.286294 -0.902381,2.1449 -0.0013,0.852276 0.308727,1.598428 0.91147,2.193376 0.290543,0.286785 0.874777,0.673353 1.017666,0.673353 0.01789,0 0.02291,-0.212236 0.01111,-0.471635 z m 19.449913,0.134889 c 0.843412,-0.556684 1.328401,-1.481509 1.326749,-2.529983 -0.0013,-0.858606 -0.280151,-1.521295 -0.902379,-2.1449 -0.625888,-0.627272 -1.295867,-0.902159 -2.198814,-0.902159 h -0.402715 l 0.314866,0.541609 c 0.817386,1.406001 1.318235,3.371193 1.248809,4.899974 -0.02534,0.558091 -0.02646,0.557846 0.613484,0.135459 z"
       id="path836"
       inkscape:export-filename="monkey-algorithms-cartoon-truncated.svg"
       inkscape:export-xdpi="96"
       inkscape:export-ydpi="96" /><text
       xml:space="preserve"
       style="font-weight:bold;font-size:4.23333px;line-height:normal;font-family:sans-serif;-inkscape-font-specification:'sans-serif, Bold';text-decoration-color:#000000;fill:#2ca6a4;fill-opacity:1;stroke:none;stroke-width:0.264583;stroke-opacity:1;stop-color:#000000"
       x="63.239941"
       y="26.491362"
       id="text1003"><tspan
         sodipodi:role="line"
         id="tspan1001"
         style="fill:#2ca6a4;fill-opacity:1;stroke:none;stroke-width:0.264583;stroke-opacity:1"
         x="63.239941"
         y="26.491362">Algorithm 0 </tspan></text><text
       xml:space="preserve"
       style="font-weight:bold;font-size:4.23333px;line-height:normal;font-family:sans-serif;-inkscape-font-specification:'sans-serif, Bold';text-decoration-color:#000000;fill:#e3b505;fill-opacity:1;stroke:none;stroke-width:0.264583;stop-color:#000000"
       x="98.578835"
       y="26.491362"
       id="text1003-7"><tspan
         sodipodi:role="line"
         id="tspan1001-5"
         style="fill:#e3b505;fill-opacity:1;stroke:none;stroke-width:0.264583"
         x="98.578835"
         y="26.491362">Algorithm 1</tspan></text><text
       xml:space="preserve"
       style="font-weight:bold;font-size:4.23333px;line-height:normal;font-family:sans-serif;-inkscape-font-specification:'sans-serif, Bold';text-decoration-color:#000000;fill:#4f6db8;fill-opacity:1;stroke:none;stroke-width:0.264583;stop-color:#000000"
       x="131.95546"
       y="26.491362"
       id="text1003-7-3"><tspan
         sodipodi:role="line"
         id="tspan1001-5-5"
         style="fill:#4f6db8;fill-opacity:1;stroke:none;stroke-width:0.264583"
         x="131.95546"
         y="26.491362">Algorithm 2</tspan></text><path
       style="fill:#2ca6a4;fill-opacity:1;stroke-width:0.0326378"
       d="m 70.994349,60.008973 c -0.569398,-0.153134 -1.044688,-0.633357 -1.193929,-1.206325 -0.05914,-0.227067 -0.06695,-0.844179 -0.01389,-1.098563 0.12866,-0.616992 0.678536,-1.166863 1.295523,-1.295533 0.10995,-0.02291 0.659837,-0.03607 1.509499,-0.03607 h 1.336543 v -0.945736 -0.945731 l -6.617307,-0.01059 c -5.302907,-0.0085 -6.649719,-0.01908 -6.780497,-0.05312 -0.70406,-0.183362 -1.274092,-0.709664 -1.523359,-1.406484 l -0.07589,-0.212147 V 42.044537 c 0,-10.338126 0.0021,-10.761644 0.05987,-10.948141 0.119428,-0.386996 0.252517,-0.607934 0.543852,-0.902824 0.301317,-0.304997 0.582483,-0.470844 0.961589,-0.567212 0.172369,-0.04382 1.895325,-0.04943 15.128256,-0.04943 H 90.55835 l 0.24412,0.06737 c 0.67795,0.187094 1.24171,0.748262 1.45696,1.450283 0.0578,0.188447 0.06,0.59997 0.06,10.917332 0,10.336349 -0.002,10.72854 -0.0603,10.917333 -0.2286,0.741971 -0.753,1.255828 -1.50628,1.475995 -0.18333,0.05358 -0.61803,0.05783 -6.81314,0.06653 l -6.617298,0.0093 v 0.943854 0.94386 l 1.427899,0.01038 c 1.418415,0.01033 1.429204,0.0109 1.623726,0.08858 0.506408,0.202155 0.861725,0.558112 1.031562,1.033417 0.09696,0.271326 0.122731,0.949584 0.04818,1.266874 -0.142724,0.607215 -0.609276,1.085687 -1.211621,1.242585 -0.280914,0.0732 -8.975357,0.0716 -9.247784,-0.002 z m 8.952873,-1.056713 c 0.146042,-0.03386 0.262252,-0.112183 0.359526,-0.2423 0.05695,-0.07617 0.06869,-0.146095 0.0764,-0.454908 0.0082,-0.32984 0.0021,-0.377277 -0.0653,-0.493638 -0.04094,-0.07081 -0.125792,-0.158928 -0.18861,-0.195828 -0.110768,-0.06507 -0.171294,-0.06759 -2.007204,-0.08341 l -1.892988,-0.0163 -0.0084,-2.047659 -0.0084,-2.047658 7.139754,-0.0085 c 6.75188,-0.0081 7.14672,-0.01164 7.2678,-0.06633 0.21865,-0.09873 0.3989,-0.271902 0.50593,-0.486094 l 0.10038,-0.200876 V 42.040537 31.472335 l -0.0695,-0.185846 c -0.0821,-0.219528 -0.26783,-0.417296 -0.50199,-0.534632 l -0.16283,-0.0816 H 75.641592 c -12.285947,0 -14.871398,0.0075 -14.97304,0.04351 -0.191277,0.0677 -0.422238,0.270346 -0.529898,0.464932 l -0.09791,0.176977 -0.0083,10.619071 -0.0084,10.619072 0.08642,0.192573 c 0.09785,0.218034 0.273805,0.393967 0.497454,0.497375 l 0.150865,0.06976 7.131353,0.0163 7.131352,0.0163 v 2.039858 2.039858 l -1.91188,0.0163 -1.911875,0.0163 -0.115229,0.08791 c -0.138772,0.105871 -0.210386,0.246965 -0.240471,0.473759 -0.06154,0.463894 0.112902,0.811892 0.446437,0.890646 0.155416,0.0367 8.500806,0.03811 8.65879,0.0016 z M 62.414464,52.274804 c -0.24264,-0.06532 -0.340822,-0.122625 -0.524047,-0.305851 -0.1951,-0.195099 -0.292772,-0.388065 -0.334663,-0.661194 -0.02003,-0.130531 -0.02836,-3.55591 -0.02265,-9.328525 0.0085,-8.61898 0.01211,-9.130353 0.06642,-9.269119 0.08219,-0.210071 0.278083,-0.456276 0.460711,-0.579018 0.330715,-0.222274 -0.861415,-0.20433 13.546467,-0.2039 14.315878,3.46e-4 13.234958,-0.0152 13.564318,0.196137 0.27966,0.179456 0.46245,0.467793 0.51951,0.819462 0.0469,0.289039 0.0469,18.07758 0,18.366624 -0.0792,0.487903 -0.39754,0.844347 -0.86232,0.9654 -0.1739,0.04529 -1.55593,0.05038 -13.217969,0.04844 -11.137893,-0.0016 -13.048678,-0.0089 -13.195764,-0.04844 z M 88.59876,42.126105 V 33.052809 H 75.625242 62.651732 l -0.0084,9.040658 c -0.0047,4.972365 -0.0016,9.059038 0.0071,9.081501 0.01237,0.03261 2.625874,0.03916 12.981866,0.03266 l 12.966362,-0.0082 z"
       id="path1213" /><path
       style="fill:#e3b505;fill-opacity:1;stroke-width:0.0326378"
       d="m 105.99282,60.008973 c -0.5694,-0.153134 -1.04469,-0.633357 -1.19393,-1.206325 -0.0591,-0.227067 -0.0669,-0.844179 -0.0139,-1.098563 0.12866,-0.616992 0.67853,-1.166863 1.29552,-1.295533 0.10995,-0.02291 0.65984,-0.03607 1.5095,-0.03607 h 1.33654 v -0.945736 -0.945731 l -6.6173,-0.01059 c -5.302911,-0.0085 -6.649724,-0.01908 -6.780502,-0.05312 -0.70406,-0.183362 -1.274092,-0.709664 -1.523359,-1.406484 l -0.07588,-0.212147 V 42.044537 c 0,-10.338126 0.0021,-10.761644 0.05987,-10.948141 0.119428,-0.386996 0.252517,-0.607934 0.543852,-0.902824 0.301317,-0.304997 0.582483,-0.470844 0.961589,-0.567212 0.172369,-0.04382 1.895329,-0.04943 15.12826,-0.04943 h 14.93374 l 0.24412,0.06737 c 0.67795,0.187094 1.24171,0.748262 1.45696,1.450283 0.0578,0.188447 0.06,0.59997 0.06,10.917332 0,10.336349 -0.002,10.72854 -0.0603,10.917333 -0.2286,0.741971 -0.753,1.255828 -1.50628,1.475995 -0.18333,0.05358 -0.61803,0.05783 -6.81314,0.06653 l -6.6173,0.0093 v 0.943854 0.94386 l 1.4279,0.01038 c 1.41841,0.01033 1.4292,0.0109 1.62372,0.08858 0.50641,0.202155 0.86173,0.558112 1.03157,1.033417 0.097,0.271326 0.12273,0.949584 0.0482,1.266874 -0.14273,0.607215 -0.60928,1.085687 -1.21162,1.242585 -0.28092,0.0732 -8.97536,0.0716 -9.24779,-0.002 z m 8.95287,-1.056713 c 0.14604,-0.03386 0.26225,-0.112183 0.35953,-0.2423 0.057,-0.07617 0.0687,-0.146095 0.0764,-0.454908 0.008,-0.32984 0.002,-0.377277 -0.0653,-0.493638 -0.0409,-0.07081 -0.1258,-0.158928 -0.18861,-0.195828 -0.11077,-0.06507 -0.1713,-0.06759 -2.00721,-0.08341 l -1.89299,-0.0163 -0.008,-2.047659 -0.008,-2.047658 7.13976,-0.0085 c 6.75188,-0.0081 7.14672,-0.01164 7.2678,-0.06633 0.21865,-0.09873 0.3989,-0.271902 0.50593,-0.486094 l 0.10038,-0.200876 V 42.040537 31.472335 l -0.0695,-0.185846 c -0.0821,-0.219528 -0.26783,-0.417296 -0.50199,-0.534632 l -0.16283,-0.0816 h -14.8502 c -12.285951,0 -14.871399,0.0075 -14.973041,0.04351 -0.191277,0.0677 -0.422238,0.270346 -0.529898,0.464932 l -0.09791,0.176977 -0.0083,10.619071 -0.0084,10.619072 0.08642,0.192573 c 0.09785,0.218034 0.273805,0.393967 0.497454,0.497375 l 0.150865,0.06976 7.13135,0.0163 7.13136,0.0163 v 2.039858 2.039858 l -1.91188,0.0163 -1.91188,0.0163 -0.11523,0.08791 c -0.13877,0.105871 -0.21038,0.246965 -0.24047,0.473759 -0.0615,0.463894 0.1129,0.811892 0.44644,0.890646 0.15541,0.0367 8.5008,0.03811 8.65879,0.0016 z M 97.412929,52.274804 c -0.24264,-0.06532 -0.34082,-0.122625 -0.52405,-0.305851 -0.195095,-0.195099 -0.292767,-0.388065 -0.334658,-0.661194 -0.02003,-0.130531 -0.02836,-3.55591 -0.02265,-9.328525 0.0085,-8.61898 0.01211,-9.130353 0.06642,-9.269119 0.08219,-0.210071 0.278078,-0.456276 0.460708,-0.579018 0.33072,-0.222274 -0.861412,-0.20433 13.546471,-0.2039 14.31588,3.46e-4 13.23496,-0.0152 13.56432,0.196137 0.27966,0.179456 0.46245,0.467793 0.51951,0.819462 0.0469,0.289039 0.0469,18.07758 0,18.366624 -0.0792,0.487903 -0.39754,0.844347 -0.86232,0.9654 -0.1739,0.04529 -1.55593,0.05038 -13.21797,0.04844 -11.137891,-0.0016 -13.048681,-0.0089 -13.195761,-0.04844 z M 123.59723,42.126105 V 33.052809 H 110.62371 97.650199 l -0.008,9.040658 c -0.005,4.972365 -0.002,9.059038 0.007,9.081501 0.0124,0.03261 2.625871,0.03916 12.981871,0.03266 l 12.96636,-0.0082 z"
       id="path1213-2" /><path
       style="fill:#4f6db8;fill-opacity:1;stroke-width:0.0326378"
       d="m 141.00205,60.008973 c -0.5694,-0.153134 -1.04469,-0.633357 -1.19393,-1.206325 -0.0591,-0.227067 -0.0669,-0.844179 -0.0139,-1.098563 0.12866,-0.616992 0.67853,-1.166863 1.29552,-1.295533 0.10995,-0.02291 0.65984,-0.03607 1.5095,-0.03607 h 1.33654 v -0.945736 -0.945731 l -6.6173,-0.01059 c -5.30291,-0.0085 -6.64973,-0.01908 -6.7805,-0.05312 -0.70406,-0.183362 -1.2741,-0.709664 -1.52336,-1.406484 l -0.0759,-0.212147 V 42.044537 c 0,-10.338126 0.002,-10.761644 0.0599,-10.948141 0.11942,-0.386996 0.25251,-0.607934 0.54385,-0.902824 0.30132,-0.304997 0.58248,-0.470844 0.96159,-0.567212 0.17237,-0.04382 1.89533,-0.04943 15.12826,-0.04943 h 14.93374 l 0.24412,0.06737 c 0.67795,0.187094 1.24171,0.748262 1.45696,1.450283 0.0578,0.188447 0.06,0.59997 0.06,10.917332 0,10.336349 -0.002,10.72854 -0.0603,10.917333 -0.2286,0.741971 -0.753,1.255828 -1.50628,1.475995 -0.18333,0.05358 -0.61803,0.05783 -6.81314,0.06653 l -6.6173,0.0093 v 0.943854 0.94386 l 1.4279,0.01038 c 1.41841,0.01033 1.4292,0.0109 1.62372,0.08858 0.50641,0.202155 0.86173,0.558112 1.03157,1.033417 0.097,0.271326 0.12273,0.949584 0.0482,1.266874 -0.14273,0.607215 -0.60928,1.085687 -1.21162,1.242585 -0.28092,0.0732 -8.97536,0.0716 -9.24779,-0.002 z m 8.95287,-1.056713 c 0.14604,-0.03386 0.26225,-0.112183 0.35953,-0.2423 0.057,-0.07617 0.0687,-0.146095 0.0764,-0.454908 0.008,-0.32984 0.002,-0.377277 -0.0653,-0.493638 -0.0409,-0.07081 -0.1258,-0.158928 -0.18861,-0.195828 -0.11077,-0.06507 -0.1713,-0.06759 -2.00721,-0.08341 l -1.89299,-0.0163 -0.008,-2.047659 -0.008,-2.047658 7.13976,-0.0085 c 6.75188,-0.0081 7.14672,-0.01164 7.2678,-0.06633 0.21865,-0.09873 0.3989,-0.271902 0.50593,-0.486094 l 0.10038,-0.200876 V 42.040537 31.472335 l -0.0695,-0.185846 c -0.0821,-0.219528 -0.26783,-0.417296 -0.50199,-0.534632 l -0.16283,-0.0816 h -14.8502 c -12.28595,0 -14.8714,0.0075 -14.97304,0.04351 -0.19128,0.0677 -0.42224,0.270346 -0.5299,0.464932 l -0.0979,0.176977 -0.008,10.619071 -0.008,10.619072 0.0864,0.192573 c 0.0978,0.218034 0.2738,0.393967 0.49745,0.497375 l 0.15087,0.06976 7.13135,0.0163 7.13136,0.0163 v 2.039858 2.039858 l -1.91188,0.0163 -1.91188,0.0163 -0.11523,0.08791 c -0.13877,0.105871 -0.21038,0.246965 -0.24047,0.473759 -0.0615,0.463894 0.1129,0.811892 0.44644,0.890646 0.15541,0.0367 8.5008,0.03811 8.65879,0.0016 z m -17.53276,-6.677456 c -0.24264,-0.06532 -0.34082,-0.122625 -0.52405,-0.305851 -0.1951,-0.195099 -0.29277,-0.388065 -0.33466,-0.661194 -0.02,-0.130531 -0.0284,-3.55591 -0.0226,-9.328525 0.008,-8.61898 0.0121,-9.130353 0.0664,-9.269119 0.0822,-0.210071 0.27808,-0.456276 0.46071,-0.579018 0.33072,-0.222274 -0.86142,-0.20433 13.54647,-0.2039 14.31588,3.46e-4 13.23496,-0.0152 13.56432,0.196137 0.27966,0.179456 0.46245,0.467793 0.51951,0.819462 0.0469,0.289039 0.0469,18.07758 0,18.366624 -0.0792,0.487903 -0.39754,0.844347 -0.86232,0.9654 -0.1739,0.04529 -1.55593,0.05038 -13.21797,0.04844 -11.13789,-0.0016 -13.04868,-0.0089 -13.19576,-0.04844 z m 26.1843,-10.148699 v -9.073296 h -12.97352 -12.97351 l -0.008,9.040658 c -0.005,4.972365 -0.002,9.059038 0.007,9.081501 0.0124,0.03261 2.62587,0.03916 12.98187,0.03266 l 12.96636,-0.0082 z"
       id="path1213-2-7" /><path
       style="fill:#2ca6a4;fill-opacity:1;stroke-width:0.0185176"
       d="m 83.139545,45.864557 c -0.477222,0.311064 -1.118276,0.352778 -1.854331,0.120645 -0.534075,-0.168439 -0.726954,-0.287678 -0.716864,-0.443178 0.01523,-0.235235 0.190967,-0.283653 0.518003,-0.142739 0.182687,0.0787 0.508003,0.178345 0.732556,0.224369 0.472506,0.09684 0.861477,0.0089 1.156993,-0.261515 0.24211,-0.221554 0.374137,-0.515074 0.403959,-0.897999 0.02028,-0.26082 -0.0015,-0.508028 -0.07972,-0.892441 l -0.06019,-0.29682 -0.363609,0.294125 -0.363609,0.294125 -0.114403,-0.01456 c -0.180614,-0.02299 -0.229392,-0.07819 -0.224465,-0.254087 l 0.0029,-0.103191 0.566233,-0.451815 0.566232,-0.451816 0.140111,0.02957 c 0.303101,0.06397 1.010813,0.248639 1.139552,0.297364 0.161066,0.06096 0.210891,0.112505 0.208855,0.216162 -0.0029,0.132964 -0.114769,0.247328 -0.244373,0.249094 -0.03178,3.9e-4 -0.22765,-0.04012 -0.435186,-0.09015 -0.208511,-0.05025 -0.378385,-0.08098 -0.379688,-0.0687 -0.0015,0.01226 0.01808,0.128854 0.04298,0.259153 0.154344,0.806238 0.08145,1.464192 -0.214968,1.940542 -0.0596,0.09574 -0.269553,0.335053 -0.334607,0.381345 -0.02072,0.01489 -0.06238,0.04291 -0.09237,0.06247 z m -5.279038,0.43737 c -0.765891,0.58119 -1.748852,1.132113 -2.753105,1.54309 -0.3422,0.140036 -0.481314,0.187774 -0.832249,0.285564 -0.156519,0.04364 -0.351747,0.100389 -0.43384,0.126162 -0.08209,0.02577 -0.208203,0.05352 -0.280235,0.06158 -0.07205,0.0081 -0.261513,0.03222 -0.421063,0.05359 -0.15955,0.02138 -0.388635,0.04291 -0.509086,0.04789 -0.271215,0.01113 -0.831473,-0.04752 -1.097503,-0.114821 -0.385458,-0.09754 -0.737366,-0.291298 -0.983804,-0.541665 -0.185813,-0.188848 -1.663692,-2.039942 -1.745389,-2.186346 -0.129743,-0.232224 -0.224282,-0.617493 -0.236905,-0.964926 -0.03851,-1.061672 0.448754,-2.340734 1.393994,-3.658861 0.687665,-0.958956 1.477681,-1.788916 2.452801,-2.576813 1.505212,-1.216453 3.066179,-2.042757 4.585712,-2.428061 1.338333,-0.339357 2.467467,-0.23362 3.215713,0.301145 0.08752,0.06256 0.182855,0.175645 1.004839,1.192271 0.905254,1.119462 0.90833,1.123624 0.968983,1.264478 0.08228,0.190892 0.168183,0.581502 0.180146,0.818891 0.01245,0.246811 -0.06165,0.924906 -0.126176,1.154595 -0.06963,0.247825 -0.234386,0.721454 -0.322072,0.925773 -0.08208,0.19125 -0.41443,0.820129 -0.533636,1.009752 -0.50544,0.804002 -1.3276,1.799822 -1.988628,2.408687 -0.217136,0.199993 -1.265305,1.070686 -1.538489,1.278009 z m 0.658627,-1.151163 0.03185,-0.04154 -0.534353,-0.660581 -0.534354,-0.660585 -0.388723,0.314441 -0.388715,0.314436 0.534998,0.661379 0.534998,0.661382 0.07566,-0.04632 c 0.04166,-0.02549 0.08741,-0.05168 0.101744,-0.05825 0.04049,-0.01852 0.531014,-0.437642 0.566862,-0.484344 z m -1.643609,0.213225 c -0.351417,-0.434434 -0.536821,-0.653155 -0.551486,-0.651382 -0.01955,0.0025 -0.549546,0.339991 -0.616636,0.392695 -0.02416,0.01899 0.0059,0.05824 0.516019,0.682043 l 0.541866,0.661722 0.05272,-0.02394 c 0.06209,-0.02823 0.347472,-0.221423 0.488226,-0.330543 l 0.09888,-0.0765 z m 2.47506,-0.968789 c 0.05213,-0.05412 0.09777,-0.106986 0.101444,-0.117489 0.0082,-0.0235 -1.042912,-1.326765 -1.067763,-1.323493 -0.01215,0.0015 -0.488438,0.458925 -0.522111,0.50141 -0.0022,0.0022 0.239021,0.302467 0.534529,0.667786 l 0.537297,0.66422 0.160919,-0.147035 c 0.08848,-0.0809 0.203568,-0.191295 0.255685,-0.24541 z m -3.03736,2.264782 c -0.01486,-0.02888 -0.254243,-0.332691 -0.531491,-0.675436 l -0.504085,-0.623168 -0.118504,0.06697 c -0.06516,0.03684 -0.211593,0.117515 -0.325359,0.179304 -0.113767,0.06178 -0.207903,0.121237 -0.209177,0.132139 -0.0015,0.01089 0.16094,0.229931 0.360504,0.486764 0.358264,0.46106 0.651642,0.803255 0.70441,0.8218 0.02548,0.0089 0.525655,-0.241755 0.612206,-0.306856 0.03214,-0.0242 0.03412,-0.03828 0.0115,-0.08151 z m 3.764629,-3.049297 0.214368,-0.250264 -0.524989,-0.6702 c -0.290947,-0.371436 -0.535269,-0.671026 -0.547657,-0.672371 -0.01977,-0.002 -0.238918,0.24119 -0.424614,0.47114 l -0.06245,0.07737 0.540569,0.668266 c 0.507212,0.627032 0.541683,0.667317 0.565391,0.647377 0.01369,-0.0115 0.121271,-0.133471 0.239167,-0.271124 z m -5.390036,3.004932 c -0.301549,-0.361149 -0.552277,-0.657483 -0.557732,-0.658052 -0.02621,-0.0028 -0.428253,0.172508 -0.429849,0.187418 -0.0029,0.02467 0.719244,0.931997 0.913418,1.14806 l 0.164009,0.182493 0.193867,-0.07387 c 0.106606,-0.04065 0.209667,-0.08629 0.228997,-0.101453 l 0.035,-0.02773 -0.547781,-0.657044 z m 6.090975,-3.913716 0.122157,-0.16681 -0.536213,-0.654733 c -0.337843,-0.411839 -0.545929,-0.65534 -0.562015,-0.656712 -0.0164,-0.0015 -0.06897,0.05982 -0.146817,0.171821 l -0.121242,0.174004 0.490642,0.614694 c 0.503141,0.631312 0.599444,0.740327 0.620114,0.704432 0.0066,-0.01114 0.06663,-0.09536 0.133843,-0.187103 z m 0.568422,-0.952195 0.07381,-0.14431 -0.532479,-0.666412 c -0.422608,-0.528263 -0.536381,-0.66307 -0.550432,-0.651006 -0.0097,0.0083 -0.06707,0.106525 -0.127436,0.218162 l -0.109732,0.202955 0.263849,0.344335 c 0.144877,0.189583 0.384556,0.49531 0.532054,0.67986 l 0.268433,0.335336 0.05425,-0.08746 c 0.0298,-0.04812 0.0875,-0.152417 0.128088,-0.23179 z m -7.324159,5.640423 c -0.111775,-0.148656 -0.35486,-0.446842 -0.539948,-0.662839 l -0.336342,-0.392866 -0.221412,0.0649 c -0.121769,0.03569 -0.229693,0.0712 -0.239833,0.07892 -0.01442,0.01106 0.08868,0.146296 0.479557,0.629395 0.273909,0.338442 0.520288,0.635044 0.547379,0.659225 0.04788,0.04251 0.05601,0.04198 0.264713,-0.01839 0.118452,-0.03425 0.22292,-0.06805 0.23216,-0.07511 0.01164,-0.0089 -0.04539,-0.09551 -0.186553,-0.283012 z m -1.380749,-0.133975 -0.533021,-0.658936 -0.12964,0.02375 c -0.07124,0.01305 -0.189261,0.03099 -0.262128,0.03982 -0.07285,0.0089 -0.13664,0.01942 -0.141728,0.02354 -0.01442,0.01165 0.871691,1.098571 0.969452,1.189156 0.04906,0.04544 0.109066,0.08441 0.137101,0.08916 0.05008,0.0084 0.459459,-0.0255 0.481292,-0.03985 0.0066,-0.0041 -0.228177,-0.304204 -0.521342,-0.66662 z m 9.109783,-6.493722 0.07894,-0.254862 -0.511517,-0.632358 c -0.329796,-0.407705 -0.519197,-0.631362 -0.533189,-0.629569 -0.01186,0.0015 -0.06238,0.114714 -0.112104,0.251553 l -0.09041,0.248791 0.344081,0.434681 c 0.381687,0.482335 0.711461,0.863932 0.731896,0.847401 0.0073,-0.0059 0.04884,-0.125448 0.09225,-0.265627 z m -10.327284,6.550148 -0.486571,-0.600787 -0.357744,-0.04406 -0.357744,-0.04406 0.323485,0.381396 c 0.465807,0.549181 0.5225,0.599241 0.844213,0.746153 0.151291,0.06909 0.496917,0.181568 0.514416,0.167412 0.0037,-0.0032 -0.212252,-0.275778 -0.479952,-0.606141 z m 10.473581,-7.817062 c -0.02958,-0.206118 -0.105793,-0.463746 -0.180534,-0.610314 -0.06868,-0.134754 -0.244556,-0.370315 -0.54284,-0.727071 l -0.183492,-0.219856 -0.02965,0.344628 -0.02965,0.344628 0.48895,0.604818 0.488944,0.604819 0.0044,-0.09889 c 0.0022,-0.05439 -0.0051,-0.16367 -0.01618,-0.242821 z m -4.307161,3.514403 c 1.722845,-1.629404 2.786478,-3.369502 2.902024,-4.747676 0.03405,-0.406508 -0.01552,-0.775995 -0.139415,-1.03874 -0.07234,-0.153479 -0.280535,-0.434818 -0.404933,-0.547394 -0.673439,-0.60923 -1.999149,-0.63128 -3.575573,-0.05947 -0.893993,0.324271 -1.761094,0.783044 -2.76039,1.460476 -0.308139,0.208862 -1.429131,1.115578 -1.706123,1.379947 -1.131279,1.07974 -1.958593,2.174839 -2.440815,3.230853 -0.244102,0.534543 -0.342156,0.866635 -0.403608,1.366969 -0.07506,0.611101 -0.01618,0.979258 0.214258,1.33948 0.121264,0.189609 0.33009,0.404577 0.492114,0.506268 0.846475,0.531829 2.301364,0.418144 3.967495,-0.310038 0.855056,-0.373699 1.621804,-0.823158 2.560798,-1.501104 0.182233,-0.131587 1.110939,-0.906279 1.294146,-1.079537 z m -1.532076,0.652905 c -0.767575,0.546455 -1.009027,0.699489 -1.684713,1.067783 -0.508991,0.277432 -0.807326,0.422505 -0.913163,0.444047 -0.05155,0.01049 -0.21518,0.06093 -0.363725,0.112109 -1.273089,0.438605 -2.306387,0.52257 -2.945882,0.239382 -0.18522,-0.08201 -0.294527,-0.170218 -0.405438,-0.327124 -0.106174,-0.150232 -0.152748,-0.287211 -0.173447,-0.509996 -0.02014,-0.216689 0.03082,-0.709119 0.101766,-0.983932 0.310709,-1.203317 1.355649,-2.751135 2.707234,-4.010076 0.262085,-0.244109 1.069835,-0.883377 1.468669,-1.162343 1.006428,-0.703913 1.90163,-1.158629 2.903554,-1.474872 0.737812,-0.23288 1.421948,-0.334283 1.969745,-0.291958 0.28558,0.02206 0.486168,0.06917 0.69145,0.16237 0.132225,0.06008 0.167677,0.0853 0.258233,0.184101 0.285148,0.311069 0.35677,0.620362 0.274136,1.183509 -0.09987,0.680631 -0.393115,1.405104 -0.885991,2.188818 -0.08595,0.13667 -0.16321,0.274282 -0.171696,0.30582 -0.01494,0.05557 -0.173022,0.26162 -0.503185,0.655952 -0.589823,0.704462 -1.084588,1.196635 -1.794892,1.785465 -0.243165,0.201408 -0.482874,0.395315 -0.532655,0.430947 z m 1.075956,-1.570098 c 0.06883,-0.06879 0.138089,-0.141814 0.15389,-0.162365 l 0.02877,-0.0373 -0.05777,0.0015 c -0.03178,8.05e-4 -0.06341,0.0058 -0.07036,0.01107 -0.03024,0.02331 -0.356866,0.09256 -0.440056,0.09342 -0.129743,0.0013 -0.206776,-0.03126 -0.338239,-0.143179 -0.192088,-0.163538 -0.322958,-0.307397 -0.31508,-0.346557 0.0037,-0.01847 0.04884,-0.106525 0.100353,-0.195717 0.216375,-0.374774 0.274488,-0.609595 0.216375,-0.87431 -0.02497,-0.113642 -0.05733,-0.196544 -0.115099,-0.29458 l -0.08039,-0.136405 0.07117,-0.08677 c 0.130834,-0.159543 0.133016,-0.182724 0.02423,-0.258966 -0.077,-0.05398 -0.181954,-0.06142 -0.288838,-0.0205 -0.118408,0.04534 -0.147718,0.04344 -0.352985,-0.023 -0.18858,-0.06103 -0.319421,-0.06854 -0.500775,-0.02875 -0.302933,0.06646 -0.60859,0.247498 -1.288208,0.762995 -0.377842,0.286607 -0.672275,0.474968 -0.858944,0.549547 -0.02138,0.0086 -0.02826,0.03365 -0.02189,0.08086 0.0051,0.03766 0.0044,0.199733 -7.32e-4,0.360209 -0.0059,0.160473 -0.0015,0.351456 0.009,0.424404 0.03053,0.211892 0.02899,0.223887 -0.04437,0.350425 -0.07829,0.13495 -0.08447,0.19452 -0.03266,0.314702 0.04466,0.103501 0.06824,0.105274 0.228323,0.01712 l 0.11209,-0.06172 0.124742,0.103914 c 0.160274,0.133527 0.311008,0.207919 0.472513,0.233197 0.205933,0.03224 0.564739,-0.02678 0.810554,-0.133323 l 0.1081,-0.04687 0.0563,0.08718 c 0.208672,0.323155 0.238113,0.376437 0.261463,0.474128 0.03317,0.138708 0.0037,0.294191 -0.08687,0.457724 -0.126645,0.228746 -0.145309,0.267445 -0.135102,0.280056 0.0051,0.0067 0.01333,0.0094 0.01794,0.0057 0.0044,-0.0037 0.05923,-0.03623 0.121777,-0.0726 0.06253,-0.03629 0.239108,-0.158502 0.392288,-0.271499 0.349068,-0.257495 1.551025,-1.246167 1.718636,-1.413689 z m -2.919128,1.856597 c 0.402854,-0.666331 0.44699,-0.76048 0.36429,-0.777071 -0.01838,-0.0037 -0.120986,0.007 -0.22795,0.02362 -0.343796,0.0536 -0.867284,-0.02981 -1.059614,-0.168836 -0.04291,-0.03105 -0.09743,-0.04256 -0.207624,-0.04387 -0.181413,-0.0021 -0.323808,-0.039 -0.4284,-0.110858 -0.06809,-0.04682 -0.08608,-0.06881 -0.136815,-0.167964 -0.119119,-0.231896 -0.132657,-0.411449 -0.05221,-0.693484 0.02365,-0.08308 0.0361,-0.196444 0.03141,-0.28754 -0.0044,-0.08269 -0.0044,-0.233106 -7.33e-4,-0.33423 0.0083,-0.230605 0.0059,-0.240484 -0.0872,-0.381852 -0.04225,-0.06408 -0.07989,-0.131944 -0.08367,-0.150815 -0.0037,-0.01893 0.01494,-0.08099 0.04144,-0.137952 0.06224,-0.133724 0.152616,-0.195111 0.360731,-0.245038 0.202771,-0.04863 0.365666,-0.14721 0.943416,-0.5709 0.532296,-0.390355 0.601107,-0.437563 0.796665,-0.546223 0.188339,-0.10466 0.337199,-0.160066 0.575466,-0.214139 0.251673,-0.05711 0.386665,-0.06161 0.641325,-0.02138 0.111336,0.01759 0.262311,0.02651 0.3355,0.01982 0.275388,-0.02517 0.40311,0.0084 0.619397,0.162946 0.14719,0.105126 0.17934,0.146846 0.207771,0.269193 0.02665,0.114519 0.02416,0.2143 -0.0085,0.348012 -0.01699,0.06948 -0.01135,0.149882 0.02226,0.315985 0.02475,0.122542 0.0443,0.294266 0.04349,0.381653 -0.0015,0.183525 -0.05257,0.456702 -0.111108,0.597082 -0.08914,0.21381 -0.09723,0.251507 -0.05755,0.268251 0.02021,0.0085 0.08727,0.0032 0.148985,-0.01176 0.174186,-0.04231 1.141566,-0.364128 1.174404,-0.390693 0.05616,-0.04545 0.445753,-0.58021 0.615414,-0.844765 0.639597,-0.997323 0.945005,-1.911377 0.822064,-2.460357 -0.0309,-0.137835 -0.04181,-0.16034 -0.133469,-0.273616 -0.08892,-0.109925 -0.113298,-0.129584 -0.222422,-0.18008 -0.503888,-0.233038 -1.445173,-0.145376 -2.464714,0.229542 -0.723081,0.265891 -1.426671,0.632473 -2.320672,1.20909 -0.264222,0.170425 -1.725569,1.352982 -1.943305,1.572544 -0.997466,1.00603 -1.656847,1.895087 -2.056289,2.772551 -0.342046,0.751354 -0.435164,1.396046 -0.252456,1.747779 0.10539,0.202931 0.294081,0.311039 0.622948,0.356845 0.653494,0.0911 1.290997,-0.0095 2.185752,-0.345029 0.26606,-0.09976 0.945774,-0.391927 0.995255,-0.427791 0.01149,-0.0082 0.14965,-0.228249 0.307194,-0.488833 z M 67.98952,42.251463 c -0.109264,0.0707 -0.06978,0.07538 -0.708405,-0.08386 -0.735673,-0.183427 -0.839692,-0.225612 -0.865486,-0.350985 -0.01818,-0.08826 -0.0019,-0.152828 0.05313,-0.211057 0.105819,-0.11192 0.211598,-0.1069 0.737903,0.03503 0.134041,0.03614 0.248309,0.06263 0.25394,0.05886 0.0054,-0.0038 -0.0083,-0.112458 -0.03089,-0.241541 -0.159888,-0.912436 -0.08742,-1.511476 0.244558,-2.021695 0.32798,-0.504068 0.940699,-0.745007 1.650542,-0.649028 0.476819,0.06447 1.06408,0.25458 1.23448,0.399627 0.1052,0.08953 0.100155,0.259919 -0.01032,0.349275 -0.05645,0.04568 -0.07856,0.05141 -0.162332,0.042 -0.05338,-0.006 -0.201657,-0.04945 -0.329635,-0.09658 -0.633162,-0.233182 -0.959363,-0.28488 -1.316712,-0.208674 -0.451602,0.09631 -0.79296,0.469214 -0.886363,0.968284 -0.05974,0.319216 -0.03206,0.809399 0.06751,1.195201 0.02116,0.08202 0.04605,0.158444 0.05528,0.169884 0.0142,0.01757 0.07314,-0.02476 0.381115,-0.273903 l 0.36429,-0.294682 0.08214,0.01097 c 0.185389,0.02475 0.236729,0.08341 0.227519,0.259957 l -0.0066,0.127027 -0.471876,0.378219 c -0.259464,0.208095 -0.513245,0.404951 -0.563788,0.437663 z"
       id="path1359" /><text
       xml:space="preserve"
       style="font-weight:bold;font-size:4.23333px;line-height:normal;font-family:sans-serif;-inkscape-font-specification:'sans-serif, Bold';text-decoration-color:#000000;fill:#e3b505;fill-opacity:1;stroke:none;stroke-width:0.264583;stop-color:#000000"
       x="103.47673"
       y="37.231071"
       id="text1003-7-0"><tspan
         sodipodi:role="line"
         id="tspan1001-5-9"
         style="fill:#e3b505;fill-opacity:1;stroke:none;stroke-width:0.264583"
         x="103.47673"
         y="37.231071">Choice</tspan></text><text
       xml:space="preserve"
       style="font-style:normal;font-variant:normal;font-weight:normal;font-stretch:normal;font-size:4.23333px;line-height:normal;font-family:sans-serif;-inkscape-font-specification:'sans-serif, Normal';font-variant-ligatures:normal;font-variant-caps:normal;font-variant-numeric:normal;font-variant-east-asian:normal;text-decoration-color:#000000;fill:#e3b505;fill-opacity:1;stroke:none;stroke-width:0.264583;stop-color:#000000"
       x="100.31673"
       y="44.244045"
       id="text1003-7-0-3"><tspan
         sodipodi:role="line"
         id="tspan1001-5-9-6"
         style="font-style:normal;font-variant:normal;font-weight:normal;font-stretch:normal;font-size:4.23333px;font-family:sans-serif;-inkscape-font-specification:'sans-serif, Normal';font-variant-ligatures:normal;font-variant-caps:normal;font-variant-numeric:normal;font-variant-east-asian:normal;fill:#e3b505;fill-opacity:1;stroke:none;stroke-width:0.264583"
         x="100.31673"
         y="44.244045">LRLLRRLR</tspan></text><text
       xml:space="preserve"
       style="font-weight:bold;font-size:4.23333px;line-height:normal;font-family:sans-serif;-inkscape-font-specification:'sans-serif, Bold';text-decoration-color:#000000;fill:#4f6db8;fill-opacity:1;stroke:none;stroke-width:0.264583;stop-color:#000000"
       x="138.40808"
       y="37.295025"
       id="text1003-7-0-0"><tspan
         sodipodi:role="line"
         id="tspan1001-5-9-62"
         style="fill:#4f6db8;fill-opacity:1;stroke:none;stroke-width:0.264583"
         x="138.40808"
         y="37.295025">Choice</tspan></text><text
       xml:space="preserve"
       style="font-weight:bold;font-size:4.23333px;line-height:normal;font-family:sans-serif;-inkscape-font-specification:'sans-serif, Bold';text-decoration-color:#000000;fill:#4f6db8;fill-opacity:1;stroke:none;stroke-width:0.264583;stop-color:#000000"
       x="137.91736"
       y="45.619205"
       id="text1003-7-0-0-0"><tspan
         sodipodi:role="line"
         id="tspan1001-5-9-62-3"
         style="fill:#4f6db8;fill-opacity:1;stroke:none;stroke-width:0.264583"
         x="137.91736"
         y="45.619205">Reward</tspan></text><text
       xml:space="preserve"
       style="font-style:normal;font-variant:normal;font-weight:normal;font-stretch:normal;font-size:4.23333px;line-height:normal;font-family:sans-serif;-inkscape-font-specification:'sans-serif, Normal';font-variant-ligatures:normal;font-variant-caps:normal;font-variant-numeric:normal;font-variant-east-asian:normal;text-decoration-color:#000000;fill:#4f6db8;fill-opacity:1;stroke:none;stroke-width:0.264583;stop-color:#000000"
       x="136.28085"
       y="41.614887"
       id="text1003-7-0-3-6"><tspan
         sodipodi:role="line"
         id="tspan1001-5-9-6-1"
         style="font-style:normal;font-variant:normal;font-weight:normal;font-stretch:normal;font-size:4.23333px;font-family:sans-serif;-inkscape-font-specification:'sans-serif, Normal';font-variant-ligatures:normal;font-variant-caps:normal;font-variant-numeric:normal;font-variant-east-asian:normal;fill:#4f6db8;fill-opacity:1;stroke:none;stroke-width:0.264583"
         x="136.28085"
         y="41.614887">LRLLRRLR</tspan></text><text
       xml:space="preserve"
       style="font-style:normal;font-variant:normal;font-weight:normal;font-stretch:normal;font-size:4.23333px;line-height:normal;font-family:sans-serif;-inkscape-font-specification:'sans-serif, Normal';font-variant-ligatures:normal;font-variant-caps:normal;font-variant-numeric:normal;font-variant-east-asian:normal;text-decoration-color:#000000;fill:#4f6db8;fill-opacity:1;stroke:none;stroke-width:0.264583;stop-color:#000000"
       x="136.34045"
       y="50.02615"
       id="text1003-7-0-3-6-0"><tspan
         sodipodi:role="line"
         id="tspan1001-5-9-6-1-6"
         style="font-style:normal;font-variant:normal;font-weight:normal;font-stretch:normal;font-size:4.23333px;font-family:sans-serif;-inkscape-font-specification:'sans-serif, Normal';font-variant-ligatures:normal;font-variant-caps:normal;font-variant-numeric:normal;font-variant-east-asian:normal;fill:#4f6db8;fill-opacity:1;stroke:none;stroke-width:0.264583"
         x="136.34045"
         y="50.02615">10110010</tspan></text></g></svg>
