<?xml version="1.0" encoding="UTF-8" standalone="no"?>
<!-- Created with Inkscape (http://www.inkscape.org/) -->

<svg
   width="22.742376mm"
   height="31.697605mm"
   viewBox="0 0 22.742376 31.697605"
   version="1.1"
   id="svg31263"
   inkscape:version="1.2.2 (b0a8486541, 2022-12-01)"
   sodipodi:docname="mouse-icon.svg"
   xmlns:inkscape="http://www.inkscape.org/namespaces/inkscape"
   xmlns:sodipodi="http://sodipodi.sourceforge.net/DTD/sodipodi-0.dtd"
   xmlns="http://www.w3.org/2000/svg"
   xmlns:svg="http://www.w3.org/2000/svg">
  <sodipodi:namedview
     id="namedview31265"
     pagecolor="#ffffff"
     bordercolor="#000000"
     borderopacity="0.25"
     inkscape:showpageshadow="2"
     inkscape:pageopacity="0.0"
     inkscape:pagecheckerboard="0"
     inkscape:deskcolor="#d1d1d1"
     inkscape:document-units="mm"
     showgrid="false"
     inkscape:zoom="0.93806818"
     inkscape:cx="-32.513628"
     inkscape:cy="328.33434"
     inkscape:window-width="1233"
     inkscape:window-height="1379"
     inkscape:window-x="1323"
     inkscape:window-y="59"
     inkscape:window-maximized="1"
     inkscape:current-layer="layer1" />
  <defs
     id="defs31260" />
  <g
     inkscape:label="Layer 1"
     inkscape:groupmode="layer"
     id="layer1"
     transform="translate(-80.859581,-61.7153)">
    <g
       id="g29099"
       transform="matrix(0.67597916,0,0,0.67597916,27.891123,12.041456)">
      <path
         d="m 84.756376,112.3701 c 1.546611,1.61517 3.842795,2.78022 7.119544,2.88467 3.016974,0.0962 4.985452,0.40337 6.279819,0.79753 l 0.175227,-0.16395 c -4.246487,-1.88317 -10.124575,-0.85402 -13.020284,-4.04749 -3.377991,-3.72534 -2.028301,-8.67122 -2.028301,-8.67122 l -0.840985,-0.81386 c -0.87507,2.05411 -0.685613,6.88071 2.31498,10.01432 z"
         id="path2407"
         style="fill:#000000;fill-opacity:0.313725;fill-rule:evenodd;stroke:none;stroke-width:0.124;stroke-linecap:butt;stroke-linejoin:miter;stroke-miterlimit:4;stroke-dasharray:none;stroke-opacity:1" />
      <g
         id="g554"
         style="fill:#5a5a5a;fill-opacity:1;stroke-width:1.00118;stroke-dasharray:none"
         transform="matrix(-0.08461899,-0.09043957,0.09043957,-0.08461899,95.607108,125.99527)">
        <path
           d="m 227.1271,51.998016 c -1.88857,-23.2923 -78.06067,-85.61493 -144.789961,-22.66277 -66.72928,62.95215 -72.3949801,33.36464 -78.6901901,34.62368 -6.29522,1.25904 6.26581,14.89338 23.9218101,12.59043 43.43699,-5.66569 72.39498,-59.80455 112.684361,-59.17503 40.59797,0.63434 62.32264,35.88274 62.32264,35.88274 z"
           id="path3264"
           style="fill:#5a5a5a;fill-opacity:1;fill-rule:evenodd;stroke:#000000;stroke-width:1.00118;stroke-linecap:butt;stroke-linejoin:miter;stroke-miterlimit:4;stroke-dasharray:none;stroke-opacity:1" />
        <path
           d="m 317.14868,151.46242 c 0,56.98933 -61.81769,161.78704 -103.24154,161.78704 -42.58485,0 -103.24154,-104.79771 -103.24154,-161.78704 0,-56.989334 46.25221,-103.241544 103.24154,-103.241544 56.98933,0 103.24154,46.25221 103.24154,103.241544 z"
           id="path2383"
           style="fill:#5a5a5a;fill-opacity:1;fill-rule:nonzero;stroke:#000000;stroke-width:1.00118;stroke-linecap:round;stroke-linejoin:miter;stroke-miterlimit:4;stroke-dasharray:none;stroke-opacity:1" />
      </g>
      <path
         d="m 81.061578,86.047675 c 0.242963,-0.269441 0.498337,-0.52987 0.768092,-0.782264 5.154092,-4.822379 19.86328,-8.103706 23.36852,-4.357351 3.28659,3.512666 -0.0376,15.763637 -4.55836,21.54957 4.83534,-5.391041 8.63685,-18.640768 5.19726,-22.316962 -3.50525,-3.746355 -18.214431,-0.465027 -23.368522,4.357351 -0.519023,0.485619 -0.987251,1.003975 -1.40699,1.549656 z"
         id="path3397"
         style="fill:#000000;fill-opacity:0.313725;fill-rule:nonzero;stroke:none;stroke-width:0.124;stroke-linecap:round;stroke-linejoin:miter;stroke-miterlimit:4;stroke-dasharray:none;stroke-opacity:1" />
      <path
         d="m 92.510725,80.439659 c -2.24727,-1.973188 -5.669654,-1.956778 -7.898846,0.128947 -2.372767,2.220059 -2.496721,5.947988 -0.276659,8.320753 2.220058,2.372767 5.947984,2.49672 8.320752,0.276659 0.166772,-0.156039 0.323628,-0.321084 0.468148,-0.491022"
         id="path2386"
         style="fill:#5a5a5a;fill-opacity:1;fill-rule:nonzero;stroke:#000000;stroke-width:0.124;stroke-linecap:round;stroke-linejoin:miter;stroke-miterlimit:4;stroke-dasharray:none;stroke-opacity:1" />
      <path
         d="m 96.800205,92.507638 c -0.198329,0.143667 -0.390916,0.302152 -0.57437,0.473799 -2.372767,2.220059 -2.499364,5.945163 -0.279303,8.317923 2.220058,2.37277 5.947988,2.49672 8.320748,0.27666 2.28419,-2.137176 2.48558,-5.669427 0.51675,-8.04715"
         id="path2388"
         style="fill:#595959;fill-opacity:1;fill-rule:nonzero;stroke:#000000;stroke-width:0.124;stroke-linecap:round;stroke-linejoin:miter;stroke-miterlimit:4;stroke-dasharray:none;stroke-opacity:1" />
      <path
         d="m 102.91314,80.942018 c 0.55414,-0.518476 1.83811,-0.475784 2.15674,-0.135236 0.3586,0.383267 0.27594,1.624512 -0.2782,2.142988 -0.55414,0.518475 -0.91205,0.0099 -1.43053,-0.544234 -0.51847,-0.55414 -1.00215,-0.945043 -0.44801,-1.463518 z"
         id="path2390"
         style="fill:#000000;fill-opacity:1;fill-rule:nonzero;stroke:none;stroke-width:0.124;stroke-linecap:round;stroke-linejoin:miter;stroke-miterlimit:4;stroke-dasharray:none;stroke-opacity:1" />
      <path
         d="m 102.03618,87.435735 c 0.51881,-0.48576 1.23782,-0.560828 1.60569,-0.16766 0.36786,0.393166 0.24519,1.105595 -0.27395,1.591001 -0.51881,0.485761 -1.23782,0.560828 -1.60569,0.167662 -0.36786,-0.393168 -0.24519,-1.105597 0.27395,-1.591003 z"
         id="path2397"
         style="fill:#000000;fill-opacity:1;fill-rule:nonzero;stroke:#000000;stroke-width:0.124;stroke-linecap:round;stroke-linejoin:miter;stroke-miterlimit:4;stroke-dasharray:none;stroke-opacity:1" />
      <path
         d="m 97.241928,82.311706 c 0.518811,-0.485761 1.237823,-0.560828 1.605687,-0.16766 0.367863,0.393167 0.245192,1.105595 -0.27395,1.591001 -0.518811,0.48576 -1.237822,0.560829 -1.605685,0.167662 -0.367864,-0.393168 -0.245194,-1.105597 0.273948,-1.591003 z"
         id="path2399"
         style="fill:#000000;fill-opacity:1;fill-rule:nonzero;stroke:#000000;stroke-width:0.124;stroke-linecap:round;stroke-linejoin:miter;stroke-miterlimit:4;stroke-dasharray:none;stroke-opacity:1" />
      <path
         d="m 102.21726,88.067124 c 0.17808,-0.166762 0.40606,-0.212712 0.50908,-0.102607 0.10302,0.110105 0.042,0.334529 -0.1362,0.501143 -0.17808,0.166761 -0.40606,0.212712 -0.50908,0.102606 -0.10302,-0.110104 -0.042,-0.334528 0.1362,-0.501142 z"
         id="path2401"
         style="fill:#ffffff;fill-opacity:1;fill-rule:nonzero;stroke:none;stroke-width:0.124;stroke-linecap:round;stroke-linejoin:miter;stroke-miterlimit:4;stroke-dasharray:none;stroke-opacity:1" />
      <path
         d="m 97.641578,83.005526 c 0.178083,-0.166762 0.406063,-0.212713 0.509082,-0.102608 0.103019,0.110106 0.04203,0.33453 -0.136196,0.501143 -0.178084,0.166762 -0.406064,0.212712 -0.509083,0.102607 -0.103019,-0.110105 -0.04203,-0.334529 0.136197,-0.501142 z"
         id="path2403"
         style="fill:#ffffff;fill-opacity:1;fill-rule:nonzero;stroke:none;stroke-width:0.124;stroke-linecap:round;stroke-linejoin:miter;stroke-miterlimit:4;stroke-dasharray:none;stroke-opacity:1" />
      <path
         d="m 84.935109,88.306875 c 1.531438,1.591249 4.182055,1.914577 6.094645,0.848885 -1.207777,-0.291427 -2.396136,-0.96343 -3.362012,-1.995744 -1.941202,-2.074727 -2.374155,-4.943255 -1.224897,-6.974138 -2.925874,1.215765 -3.892872,5.603326 -1.679436,7.931821 0.05558,0.06507 0.112692,0.127858 0.171705,0.189172 z"
         id="path2427"
         style="fill:#000000;fill-opacity:0.313725;fill-rule:nonzero;stroke:none;stroke-width:0.124;stroke-linecap:round;stroke-linejoin:miter;stroke-miterlimit:4;stroke-dasharray:none;stroke-opacity:1" />
      <g
         transform="matrix(-0.11776765,-0.12586839,0.12714186,-0.11895917,56.172225,203.47139)"
         id="g3221"
         style="stroke:#000000;stroke-width:0.715763;stroke-linecap:round;stroke-miterlimit:4;stroke-dasharray:none;stroke-opacity:1">
        <path
           d="m 340.57116,672.76068 c 32.73512,-15.10851 47.84364,-1.25904 47.84364,-1.25904"
           id="path2445"
           style="fill:none;fill-opacity:0.75;fill-rule:evenodd;stroke:#000000;stroke-width:0.715763;stroke-linecap:round;stroke-linejoin:miter;stroke-miterlimit:4;stroke-dasharray:none;stroke-opacity:1" />
        <path
           d="m 337.42356,678.42638 c 23.92181,-15.10852 44.69602,9.44282 44.69602,9.44282"
           id="path2447"
           style="fill:none;fill-opacity:0.75;fill-rule:evenodd;stroke:#000000;stroke-width:0.715763;stroke-linecap:round;stroke-linejoin:miter;stroke-miterlimit:4;stroke-dasharray:none;stroke-opacity:1" />
        <path
           d="m 337.42356,681.57398 c 25.18086,-12.59043 29.58751,18.25613 29.58751,18.25613"
           id="path2449"
           style="fill:none;fill-opacity:0.75;fill-rule:evenodd;stroke:#000000;stroke-width:0.715763;stroke-linecap:round;stroke-linejoin:miter;stroke-miterlimit:4;stroke-dasharray:none;stroke-opacity:1" />
      </g>
      <g
         transform="matrix(0.11776765,0.12586839,0.12714186,-0.11895917,-20.518588,121.50535)"
         id="g3384"
         style="stroke:#000000;stroke-width:0.715763;stroke-linecap:round;stroke-miterlimit:4;stroke-dasharray:none;stroke-opacity:1">
        <path
           d="m 340.57116,672.76068 c 32.73512,-15.10851 47.84364,-1.25904 47.84364,-1.25904"
           id="path3386"
           style="fill:none;fill-opacity:0.75;fill-rule:evenodd;stroke:#000000;stroke-width:0.715763;stroke-linecap:round;stroke-linejoin:miter;stroke-miterlimit:4;stroke-dasharray:none;stroke-opacity:1" />
        <path
           d="m 337.42356,678.42638 c 23.92181,-15.10852 44.69602,9.44282 44.69602,9.44282"
           id="path3388"
           style="fill:none;fill-opacity:0.75;fill-rule:evenodd;stroke:#000000;stroke-width:0.715763;stroke-linecap:round;stroke-linejoin:miter;stroke-miterlimit:4;stroke-dasharray:none;stroke-opacity:1" />
        <path
           d="m 337.42356,681.57398 c 25.18086,-12.59043 29.58751,18.25613 29.58751,18.25613"
           id="path3390"
           style="fill:none;fill-opacity:0.75;fill-rule:evenodd;stroke:#000000;stroke-width:0.715763;stroke-linecap:round;stroke-linejoin:miter;stroke-miterlimit:4;stroke-dasharray:none;stroke-opacity:1" />
      </g>
      <path
         d="m 96.402291,100.56284 c -1.486007,-1.633758 -1.632554,-4.299998 -0.442171,-6.137576 0.210556,1.224469 0.802138,2.45484 1.768014,3.487155 1.941199,2.07473 4.774636,2.697271 6.877366,1.685451 -1.40743,2.83865 -5.849531,3.51207 -8.025856,1.14885 -0.06124,-0.0598 -0.120089,-0.12093 -0.177348,-0.18389 z"
         id="path3405"
         style="fill:#000000;fill-opacity:0.313725;fill-rule:nonzero;stroke:none;stroke-width:0.124;stroke-linecap:round;stroke-linejoin:miter;stroke-miterlimit:4;stroke-dasharray:none;stroke-opacity:1" />
    </g>
  </g>
</svg>
