<?xml version="1.0" encoding="utf-8" standalone="no"?>
<!DOCTYPE svg PUBLIC "-//W3C//DTD SVG 1.1//EN"
  "http://www.w3.org/Graphics/SVG/1.1/DTD/svg11.dtd">
<svg xmlns:xlink="http://www.w3.org/1999/xlink" width="345.682575pt" height="205.367969pt" viewBox="0 0 345.682575 205.367969" xmlns="http://www.w3.org/2000/svg" version="1.1">
 <metadata>
  <rdf:RDF xmlns:dc="http://purl.org/dc/elements/1.1/" xmlns:cc="http://creativecommons.org/ns#" xmlns:rdf="http://www.w3.org/1999/02/22-rdf-syntax-ns#">
   <cc:Work>
    <dc:type rdf:resource="http://purl.org/dc/dcmitype/StillImage"/>
    <dc:date>2026-04-15T16:54:12.420820</dc:date>
    <dc:format>image/svg+xml</dc:format>
    <dc:creator>
     <cc:Agent>
      <dc:title>Matplotlib v3.10.8, https://matplotlib.org/</dc:title>
     </cc:Agent>
    </dc:creator>
   </cc:Work>
  </rdf:RDF>
 </metadata>
 <defs>
  <style type="text/css">*{stroke-linejoin: round; stroke-linecap: butt}</style>
 </defs>
 <g id="figure_1">
  <g id="patch_1">
   <path d="M 0 205.367969 
L 345.682575 205.367969 
L 345.682575 0 
L 0 0 
L 0 205.367969 
z
" style="fill: none"/>
  </g>
  <g id="axes_1">
   <g id="patch_2">
    <path d="M 52.679688 160.158281 
L 179.497869 160.158281 
L 179.497869 21.558281 
L 52.679688 21.558281 
L 52.679688 160.158281 
z
" style="fill: none"/>
   </g>
   <g id="matplotlib.axis_1">
    <g id="xtick_1">
     <g id="line2d_1">
      <defs>
       <path id="m5a990a2c68" d="M 0 0 
L 0 8.25 
" style="stroke: #000000; stroke-width: 1.4"/>
      </defs>
      <g>
       <use xlink:href="#m5a990a2c68" x="58.44415" y="160.158281" style="stroke: #000000; stroke-width: 1.4"/>
      </g>
     </g>
     <g id="text_1">
      <!-- Start -->
      <g transform="translate(43.787275 181.026406) scale(0.12 -0.12)">
       <defs>
        <path id="DejaVuSans-53" d="M 3425 4513 
L 3425 3897 
Q 3066 4069 2747 4153 
Q 2428 4238 2131 4238 
Q 1616 4238 1336 4038 
Q 1056 3838 1056 3469 
Q 1056 3159 1242 3001 
Q 1428 2844 1947 2747 
L 2328 2669 
Q 3034 2534 3370 2195 
Q 3706 1856 3706 1288 
Q 3706 609 3251 259 
Q 2797 -91 1919 -91 
Q 1588 -91 1214 -16 
Q 841 59 441 206 
L 441 856 
Q 825 641 1194 531 
Q 1563 422 1919 422 
Q 2459 422 2753 634 
Q 3047 847 3047 1241 
Q 3047 1584 2836 1778 
Q 2625 1972 2144 2069 
L 1759 2144 
Q 1053 2284 737 2584 
Q 422 2884 422 3419 
Q 422 4038 858 4394 
Q 1294 4750 2059 4750 
Q 2388 4750 2728 4690 
Q 3069 4631 3425 4513 
z
" transform="scale(0.015625)"/>
        <path id="DejaVuSans-74" d="M 1172 4494 
L 1172 3500 
L 2356 3500 
L 2356 3053 
L 1172 3053 
L 1172 1153 
Q 1172 725 1289 603 
Q 1406 481 1766 481 
L 2356 481 
L 2356 0 
L 1766 0 
Q 1100 0 847 248 
Q 594 497 594 1153 
L 594 3053 
L 172 3053 
L 172 3500 
L 594 3500 
L 594 4494 
L 1172 4494 
z
" transform="scale(0.015625)"/>
        <path id="DejaVuSans-61" d="M 2194 1759 
Q 1497 1759 1228 1600 
Q 959 1441 959 1056 
Q 959 750 1161 570 
Q 1363 391 1709 391 
Q 2188 391 2477 730 
Q 2766 1069 2766 1631 
L 2766 1759 
L 2194 1759 
z
M 3341 1997 
L 3341 0 
L 2766 0 
L 2766 531 
Q 2569 213 2275 61 
Q 1981 -91 1556 -91 
Q 1019 -91 701 211 
Q 384 513 384 1019 
Q 384 1609 779 1909 
Q 1175 2209 1959 2209 
L 2766 2209 
L 2766 2266 
Q 2766 2663 2505 2880 
Q 2244 3097 1772 3097 
Q 1472 3097 1187 3025 
Q 903 2953 641 2809 
L 641 3341 
Q 956 3463 1253 3523 
Q 1550 3584 1831 3584 
Q 2591 3584 2966 3190 
Q 3341 2797 3341 1997 
z
" transform="scale(0.015625)"/>
        <path id="DejaVuSans-72" d="M 2631 2963 
Q 2534 3019 2420 3045 
Q 2306 3072 2169 3072 
Q 1681 3072 1420 2755 
Q 1159 2438 1159 1844 
L 1159 0 
L 581 0 
L 581 3500 
L 1159 3500 
L 1159 2956 
Q 1341 3275 1631 3429 
Q 1922 3584 2338 3584 
Q 2397 3584 2469 3576 
Q 2541 3569 2628 3553 
L 2631 2963 
z
" transform="scale(0.015625)"/>
       </defs>
       <use xlink:href="#DejaVuSans-53"/>
       <use xlink:href="#DejaVuSans-74" transform="translate(63.476562 0)"/>
       <use xlink:href="#DejaVuSans-61" transform="translate(102.685547 0)"/>
       <use xlink:href="#DejaVuSans-72" transform="translate(163.964844 0)"/>
       <use xlink:href="#DejaVuSans-74" transform="translate(205.078125 0)"/>
      </g>
     </g>
    </g>
    <g id="xtick_2">
     <g id="line2d_2">
      <g>
       <use xlink:href="#m5a990a2c68" x="174.897944" y="160.158281" style="stroke: #000000; stroke-width: 1.4"/>
      </g>
     </g>
     <g id="text_2">
      <!-- End -->
      <g transform="translate(163.495132 181.026406) scale(0.12 -0.12)">
       <defs>
        <path id="DejaVuSans-45" d="M 628 4666 
L 3578 4666 
L 3578 4134 
L 1259 4134 
L 1259 2753 
L 3481 2753 
L 3481 2222 
L 1259 2222 
L 1259 531 
L 3634 531 
L 3634 0 
L 628 0 
L 628 4666 
z
" transform="scale(0.015625)"/>
        <path id="DejaVuSans-6e" d="M 3513 2113 
L 3513 0 
L 2938 0 
L 2938 2094 
Q 2938 2591 2744 2837 
Q 2550 3084 2163 3084 
Q 1697 3084 1428 2787 
Q 1159 2491 1159 1978 
L 1159 0 
L 581 0 
L 581 3500 
L 1159 3500 
L 1159 2956 
Q 1366 3272 1645 3428 
Q 1925 3584 2291 3584 
Q 2894 3584 3203 3211 
Q 3513 2838 3513 2113 
z
" transform="scale(0.015625)"/>
        <path id="DejaVuSans-64" d="M 2906 2969 
L 2906 4863 
L 3481 4863 
L 3481 0 
L 2906 0 
L 2906 525 
Q 2725 213 2448 61 
Q 2172 -91 1784 -91 
Q 1150 -91 751 415 
Q 353 922 353 1747 
Q 353 2572 751 3078 
Q 1150 3584 1784 3584 
Q 2172 3584 2448 3432 
Q 2725 3281 2906 2969 
z
M 947 1747 
Q 947 1113 1208 752 
Q 1469 391 1925 391 
Q 2381 391 2643 752 
Q 2906 1113 2906 1747 
Q 2906 2381 2643 2742 
Q 2381 3103 1925 3103 
Q 1469 3103 1208 2742 
Q 947 2381 947 1747 
z
" transform="scale(0.015625)"/>
       </defs>
       <use xlink:href="#DejaVuSans-45"/>
       <use xlink:href="#DejaVuSans-6e" transform="translate(63.183594 0)"/>
       <use xlink:href="#DejaVuSans-64" transform="translate(126.5625 0)"/>
      </g>
     </g>
    </g>
    <g id="text_3">
     <!-- Trials in session -->
     <g transform="translate(73.120028 195.880313) scale(0.11 -0.11)">
      <defs>
       <path id="DejaVuSans-54" d="M -19 4666 
L 3928 4666 
L 3928 4134 
L 2272 4134 
L 2272 0 
L 1638 0 
L 1638 4134 
L -19 4134 
L -19 4666 
z
" transform="scale(0.015625)"/>
       <path id="DejaVuSans-69" d="M 603 3500 
L 1178 3500 
L 1178 0 
L 603 0 
L 603 3500 
z
M 603 4863 
L 1178 4863 
L 1178 4134 
L 603 4134 
L 603 4863 
z
" transform="scale(0.015625)"/>
       <path id="DejaVuSans-6c" d="M 603 4863 
L 1178 4863 
L 1178 0 
L 603 0 
L 603 4863 
z
" transform="scale(0.015625)"/>
       <path id="DejaVuSans-73" d="M 2834 3397 
L 2834 2853 
Q 2591 2978 2328 3040 
Q 2066 3103 1784 3103 
Q 1356 3103 1142 2972 
Q 928 2841 928 2578 
Q 928 2378 1081 2264 
Q 1234 2150 1697 2047 
L 1894 2003 
Q 2506 1872 2764 1633 
Q 3022 1394 3022 966 
Q 3022 478 2636 193 
Q 2250 -91 1575 -91 
Q 1294 -91 989 -36 
Q 684 19 347 128 
L 347 722 
Q 666 556 975 473 
Q 1284 391 1588 391 
Q 1994 391 2212 530 
Q 2431 669 2431 922 
Q 2431 1156 2273 1281 
Q 2116 1406 1581 1522 
L 1381 1569 
Q 847 1681 609 1914 
Q 372 2147 372 2553 
Q 372 3047 722 3315 
Q 1072 3584 1716 3584 
Q 2034 3584 2315 3537 
Q 2597 3491 2834 3397 
z
" transform="scale(0.015625)"/>
       <path id="DejaVuSans-20" transform="scale(0.015625)"/>
       <path id="DejaVuSans-65" d="M 3597 1894 
L 3597 1613 
L 953 1613 
Q 991 1019 1311 708 
Q 1631 397 2203 397 
Q 2534 397 2845 478 
Q 3156 559 3463 722 
L 3463 178 
Q 3153 47 2828 -22 
Q 2503 -91 2169 -91 
Q 1331 -91 842 396 
Q 353 884 353 1716 
Q 353 2575 817 3079 
Q 1281 3584 2069 3584 
Q 2775 3584 3186 3129 
Q 3597 2675 3597 1894 
z
M 3022 2063 
Q 3016 2534 2758 2815 
Q 2500 3097 2075 3097 
Q 1594 3097 1305 2825 
Q 1016 2553 972 2059 
L 3022 2063 
z
" transform="scale(0.015625)"/>
       <path id="DejaVuSans-6f" d="M 1959 3097 
Q 1497 3097 1228 2736 
Q 959 2375 959 1747 
Q 959 1119 1226 758 
Q 1494 397 1959 397 
Q 2419 397 2687 759 
Q 2956 1122 2956 1747 
Q 2956 2369 2687 2733 
Q 2419 3097 1959 3097 
z
M 1959 3584 
Q 2709 3584 3137 3096 
Q 3566 2609 3566 1747 
Q 3566 888 3137 398 
Q 2709 -91 1959 -91 
Q 1206 -91 779 398 
Q 353 888 353 1747 
Q 353 2609 779 3096 
Q 1206 3584 1959 3584 
z
" transform="scale(0.015625)"/>
      </defs>
      <use xlink:href="#DejaVuSans-54"/>
      <use xlink:href="#DejaVuSans-72" transform="translate(46.333984 0)"/>
      <use xlink:href="#DejaVuSans-69" transform="translate(87.447266 0)"/>
      <use xlink:href="#DejaVuSans-61" transform="translate(115.230469 0)"/>
      <use xlink:href="#DejaVuSans-6c" transform="translate(176.509766 0)"/>
      <use xlink:href="#DejaVuSans-73" transform="translate(204.292969 0)"/>
      <use xlink:href="#DejaVuSans-20" transform="translate(256.392578 0)"/>
      <use xlink:href="#DejaVuSans-69" transform="translate(288.179688 0)"/>
      <use xlink:href="#DejaVuSans-6e" transform="translate(315.962891 0)"/>
      <use xlink:href="#DejaVuSans-20" transform="translate(379.341797 0)"/>
      <use xlink:href="#DejaVuSans-73" transform="translate(411.128906 0)"/>
      <use xlink:href="#DejaVuSans-65" transform="translate(463.228516 0)"/>
      <use xlink:href="#DejaVuSans-73" transform="translate(524.751953 0)"/>
      <use xlink:href="#DejaVuSans-73" transform="translate(576.851562 0)"/>
      <use xlink:href="#DejaVuSans-69" transform="translate(628.951172 0)"/>
      <use xlink:href="#DejaVuSans-6f" transform="translate(656.734375 0)"/>
      <use xlink:href="#DejaVuSans-6e" transform="translate(717.916016 0)"/>
     </g>
    </g>
   </g>
   <g id="matplotlib.axis_2">
    <g id="ytick_1">
     <g id="line2d_3">
      <defs>
       <path id="m2782d6c4f8" d="M 0 0 
L -8.25 0 
" style="stroke: #000000; stroke-width: 1.4"/>
      </defs>
      <g>
       <use xlink:href="#m2782d6c4f8" x="52.679688" y="153.558281" style="stroke: #000000; stroke-width: 1.4"/>
      </g>
     </g>
     <g id="text_4">
      <!-- 0.0 -->
      <g transform="translate(21.845938 158.117344) scale(0.12 -0.12)">
       <defs>
        <path id="DejaVuSans-30" d="M 2034 4250 
Q 1547 4250 1301 3770 
Q 1056 3291 1056 2328 
Q 1056 1369 1301 889 
Q 1547 409 2034 409 
Q 2525 409 2770 889 
Q 3016 1369 3016 2328 
Q 3016 3291 2770 3770 
Q 2525 4250 2034 4250 
z
M 2034 4750 
Q 2819 4750 3233 4129 
Q 3647 3509 3647 2328 
Q 3647 1150 3233 529 
Q 2819 -91 2034 -91 
Q 1250 -91 836 529 
Q 422 1150 422 2328 
Q 422 3509 836 4129 
Q 1250 4750 2034 4750 
z
" transform="scale(0.015625)"/>
        <path id="DejaVuSans-2e" d="M 684 794 
L 1344 794 
L 1344 0 
L 684 0 
L 684 794 
z
" transform="scale(0.015625)"/>
       </defs>
       <use xlink:href="#DejaVuSans-30"/>
       <use xlink:href="#DejaVuSans-2e" transform="translate(63.623047 0)"/>
       <use xlink:href="#DejaVuSans-30" transform="translate(95.410156 0)"/>
      </g>
     </g>
    </g>
    <g id="ytick_2">
     <g id="line2d_4">
      <g>
       <use xlink:href="#m2782d6c4f8" x="52.679688" y="87.558281" style="stroke: #000000; stroke-width: 1.4"/>
      </g>
     </g>
     <g id="text_5">
      <!-- 0.5 -->
      <g transform="translate(21.845938 92.117344) scale(0.12 -0.12)">
       <defs>
        <path id="DejaVuSans-35" d="M 691 4666 
L 3169 4666 
L 3169 4134 
L 1269 4134 
L 1269 2991 
Q 1406 3038 1543 3061 
Q 1681 3084 1819 3084 
Q 2600 3084 3056 2656 
Q 3513 2228 3513 1497 
Q 3513 744 3044 326 
Q 2575 -91 1722 -91 
Q 1428 -91 1123 -41 
Q 819 9 494 109 
L 494 744 
Q 775 591 1075 516 
Q 1375 441 1709 441 
Q 2250 441 2565 725 
Q 2881 1009 2881 1497 
Q 2881 1984 2565 2268 
Q 2250 2553 1709 2553 
Q 1456 2553 1204 2497 
Q 953 2441 691 2322 
L 691 4666 
z
" transform="scale(0.015625)"/>
       </defs>
       <use xlink:href="#DejaVuSans-30"/>
       <use xlink:href="#DejaVuSans-2e" transform="translate(63.623047 0)"/>
       <use xlink:href="#DejaVuSans-35" transform="translate(95.410156 0)"/>
      </g>
     </g>
    </g>
    <g id="ytick_3">
     <g id="line2d_5">
      <g>
       <use xlink:href="#m2782d6c4f8" x="52.679688" y="21.558281" style="stroke: #000000; stroke-width: 1.4"/>
      </g>
     </g>
     <g id="text_6">
      <!-- 1.0 -->
      <g transform="translate(21.845938 26.117344) scale(0.12 -0.12)">
       <defs>
        <path id="DejaVuSans-31" d="M 794 531 
L 1825 531 
L 1825 4091 
L 703 3866 
L 703 4441 
L 1819 4666 
L 2450 4666 
L 2450 531 
L 3481 531 
L 3481 0 
L 794 0 
L 794 531 
z
" transform="scale(0.015625)"/>
       </defs>
       <use xlink:href="#DejaVuSans-31"/>
       <use xlink:href="#DejaVuSans-2e" transform="translate(63.623047 0)"/>
       <use xlink:href="#DejaVuSans-30" transform="translate(95.410156 0)"/>
      </g>
     </g>
    </g>
    <g id="text_7">
     <!-- P(stochastic) -->
     <g transform="translate(15.558281 126.306641) rotate(-90) scale(0.11 -0.11)">
      <defs>
       <path id="DejaVuSans-50" d="M 1259 4147 
L 1259 2394 
L 2053 2394 
Q 2494 2394 2734 2622 
Q 2975 2850 2975 3272 
Q 2975 3691 2734 3919 
Q 2494 4147 2053 4147 
L 1259 4147 
z
M 628 4666 
L 2053 4666 
Q 2838 4666 3239 4311 
Q 3641 3956 3641 3272 
Q 3641 2581 3239 2228 
Q 2838 1875 2053 1875 
L 1259 1875 
L 1259 0 
L 628 0 
L 628 4666 
z
" transform="scale(0.015625)"/>
       <path id="DejaVuSans-28" d="M 1984 4856 
Q 1566 4138 1362 3434 
Q 1159 2731 1159 2009 
Q 1159 1288 1364 580 
Q 1569 -128 1984 -844 
L 1484 -844 
Q 1016 -109 783 600 
Q 550 1309 550 2009 
Q 550 2706 781 3412 
Q 1013 4119 1484 4856 
L 1984 4856 
z
" transform="scale(0.015625)"/>
       <path id="DejaVuSans-63" d="M 3122 3366 
L 3122 2828 
Q 2878 2963 2633 3030 
Q 2388 3097 2138 3097 
Q 1578 3097 1268 2742 
Q 959 2388 959 1747 
Q 959 1106 1268 751 
Q 1578 397 2138 397 
Q 2388 397 2633 464 
Q 2878 531 3122 666 
L 3122 134 
Q 2881 22 2623 -34 
Q 2366 -91 2075 -91 
Q 1284 -91 818 406 
Q 353 903 353 1747 
Q 353 2603 823 3093 
Q 1294 3584 2113 3584 
Q 2378 3584 2631 3529 
Q 2884 3475 3122 3366 
z
" transform="scale(0.015625)"/>
       <path id="DejaVuSans-68" d="M 3513 2113 
L 3513 0 
L 2938 0 
L 2938 2094 
Q 2938 2591 2744 2837 
Q 2550 3084 2163 3084 
Q 1697 3084 1428 2787 
Q 1159 2491 1159 1978 
L 1159 0 
L 581 0 
L 581 4863 
L 1159 4863 
L 1159 2956 
Q 1366 3272 1645 3428 
Q 1925 3584 2291 3584 
Q 2894 3584 3203 3211 
Q 3513 2838 3513 2113 
z
" transform="scale(0.015625)"/>
       <path id="DejaVuSans-29" d="M 513 4856 
L 1013 4856 
Q 1481 4119 1714 3412 
Q 1947 2706 1947 2009 
Q 1947 1309 1714 600 
Q 1481 -109 1013 -844 
L 513 -844 
Q 928 -128 1133 580 
Q 1338 1288 1338 2009 
Q 1338 2731 1133 3434 
Q 928 4138 513 4856 
z
" transform="scale(0.015625)"/>
      </defs>
      <use xlink:href="#DejaVuSans-50"/>
      <use xlink:href="#DejaVuSans-28" transform="translate(60.302734 0)"/>
      <use xlink:href="#DejaVuSans-73" transform="translate(99.316406 0)"/>
      <use xlink:href="#DejaVuSans-74" transform="translate(151.416016 0)"/>
      <use xlink:href="#DejaVuSans-6f" transform="translate(190.625 0)"/>
      <use xlink:href="#DejaVuSans-63" transform="translate(251.806641 0)"/>
      <use xlink:href="#DejaVuSans-68" transform="translate(306.787109 0)"/>
      <use xlink:href="#DejaVuSans-61" transform="translate(370.166016 0)"/>
      <use xlink:href="#DejaVuSans-73" transform="translate(431.445312 0)"/>
      <use xlink:href="#DejaVuSans-74" transform="translate(483.544922 0)"/>
      <use xlink:href="#DejaVuSans-69" transform="translate(522.753906 0)"/>
      <use xlink:href="#DejaVuSans-63" transform="translate(550.537109 0)"/>
      <use xlink:href="#DejaVuSans-29" transform="translate(605.517578 0)"/>
     </g>
    </g>
   </g>
   <g id="line2d_6">
    <path d="M 58.44415 152.293179 
L 59.608688 153.082818 
L 60.773226 153.275499 
L 61.937764 153.327224 
L 63.102302 153.270563 
L 64.26684 153.243697 
L 65.431378 153.271935 
L 66.595916 152.955379 
L 67.760454 152.952862 
L 68.924992 152.449576 
L 70.08953 144.416884 
L 71.254068 111.678877 
L 72.418606 107.972249 
L 73.583144 109.799198 
L 74.747681 146.346127 
L 75.912219 145.584389 
L 77.076757 146.084365 
L 78.241295 146.035228 
L 79.405833 145.561515 
L 80.570371 141.577437 
L 81.734909 127.959174 
L 82.899447 119.134578 
L 84.063985 120.079901 
L 85.228523 123.781901 
L 86.393061 131.594016 
L 87.557599 136.332369 
L 88.722137 141.962799 
L 89.886675 145.009794 
L 91.051213 146.71075 
L 92.215751 147.594308 
L 93.380289 150.191191 
L 94.544826 151.965314 
L 95.709364 152.971817 
L 96.873902 153.329151 
L 98.03844 152.283613 
L 99.202978 136.941776 
L 100.367516 141.914556 
L 101.532054 148.463611 
L 102.696592 152.705765 
L 103.86113 153.172783 
L 105.025668 153.166539 
L 106.190206 152.362861 
L 107.354744 121.321399 
L 108.519282 111.794207 
L 109.68382 109.644349 
L 110.848358 109.487825 
L 112.012896 109.519364 
L 113.177434 109.500107 
L 114.341971 109.248571 
L 115.506509 109.710186 
L 116.671047 127.028374 
L 117.835585 148.70975 
L 119.000123 152.908692 
L 120.164661 152.629295 
L 121.329199 152.614686 
L 122.493737 152.415634 
L 123.658275 152.192066 
L 124.822813 152.366634 
L 125.987351 152.379575 
L 127.151889 148.604999 
L 128.316427 110.905943 
L 129.480965 116.515415 
L 130.645503 137.464434 
L 131.810041 150.501242 
L 132.974579 153.185588 
L 134.139117 152.887179 
L 135.303654 151.693924 
L 136.468192 151.366964 
L 137.63273 149.736111 
L 138.797268 144.544345 
L 139.961806 105.216849 
L 141.126344 117.245486 
L 142.290882 118.22593 
L 143.45542 126.683689 
L 144.619958 132.80461 
L 145.784496 143.336014 
L 146.949034 142.714679 
L 148.113572 104.892535 
L 149.27811 94.718722 
L 150.442648 95.145058 
L 151.607186 94.782207 
L 152.771724 94.423615 
L 153.936262 92.894187 
L 155.100799 104.456471 
L 156.265337 86.490856 
L 157.429875 87.130875 
L 158.594413 78.5402 
L 159.758951 72.397873 
L 160.923489 75.679701 
L 162.088027 69.455387 
L 163.252565 68.697974 
L 164.417103 65.957285 
L 165.581641 67.346865 
L 166.746179 65.74331 
L 167.910717 66.150128 
L 169.075255 67.661452 
L 170.239793 66.478132 
L 171.404331 65.963704 
L 172.568869 84.830122 
L 173.733407 70.149148 
" clip-path="url(#paf19a4d6ba)" style="fill: none; stroke: #a52a2a; stroke-opacity: 0.5; stroke-width: 2; stroke-linecap: square"/>
   </g>
   <g id="line2d_7">
    <path d="M 58.44415 58.940092 
L 59.608688 57.946647 
L 60.773226 58.97186 
L 61.937764 57.40026 
L 63.102302 57.197784 
L 64.26684 55.378453 
L 65.431378 55.017472 
L 66.595916 54.218864 
L 67.760454 53.541383 
L 68.924992 51.152291 
L 70.08953 49.498101 
L 71.254068 49.544423 
L 72.418606 50.511592 
L 73.583144 55.180576 
L 74.747681 54.789041 
L 75.912219 54.224723 
L 77.076757 53.380121 
L 78.241295 51.876523 
L 79.405833 50.496029 
L 80.570371 47.945402 
L 81.734909 47.242642 
L 82.899447 45.949355 
L 84.063985 45.357386 
L 85.228523 45.631144 
L 86.393061 45.388731 
L 87.557599 45.212505 
L 88.722137 43.674162 
L 89.886675 44.325658 
L 91.051213 44.009272 
L 92.215751 44.096633 
L 93.380289 43.832077 
L 94.544826 43.770042 
L 95.709364 43.641802 
L 96.873902 43.556298 
L 98.03844 42.974075 
L 99.202978 42.096986 
L 100.367516 41.490036 
L 101.532054 40.959641 
L 102.696592 40.765625 
L 103.86113 40.884842 
L 105.025668 40.65324 
L 106.190206 40.472765 
L 107.354744 41.327977 
L 108.519282 42.374173 
L 109.68382 42.501737 
L 110.848358 42.960928 
L 112.012896 45.746916 
L 113.177434 44.112723 
L 114.341971 43.801878 
L 115.506509 41.771517 
L 116.671047 41.000192 
L 117.835585 46.933556 
L 119.000123 47.712529 
L 120.164661 48.858421 
L 121.329199 47.551408 
L 122.493737 47.245766 
L 123.658275 47.250453 
L 124.822813 47.78585 
L 125.987351 51.249161 
L 127.151889 48.068869 
L 128.316427 47.365334 
L 129.480965 47.522184 
L 130.645503 46.289781 
L 131.810041 45.229954 
L 132.974579 47.370052 
L 134.139117 45.919561 
L 135.303654 45.950111 
L 136.468192 46.815873 
L 137.63273 56.700817 
L 138.797268 57.72466 
L 139.961806 58.905863 
L 141.126344 61.176956 
L 142.290882 70.325877 
L 143.45542 69.383505 
L 144.619958 72.733344 
L 145.784496 70.79516 
L 146.949034 70.401011 
L 148.113572 69.603646 
L 149.27811 67.517032 
L 150.442648 62.938573 
L 151.607186 60.438067 
L 152.771724 54.344436 
L 153.936262 50.4999 
L 155.100799 49.881175 
L 156.265337 48.452053 
L 157.429875 48.176463 
L 158.594413 47.254979 
L 159.758951 46.931387 
L 160.923489 45.958541 
L 162.088027 43.497464 
L 163.252565 46.866664 
L 164.417103 41.141948 
L 165.581641 39.935396 
L 166.746179 41.218434 
L 167.910717 42.434574 
L 169.075255 45.084061 
L 170.239793 45.635145 
L 171.404331 46.783994 
L 172.568869 52.657839 
L 173.733407 55.985649 
" clip-path="url(#paf19a4d6ba)" style="fill: none; stroke: #a52a2a; stroke-width: 2; stroke-linecap: square"/>
   </g>
   <g id="patch_3">
    <path d="M 52.679688 153.558281 
L 52.679688 21.558281 
" style="fill: none; stroke: #000000; stroke-width: 1.2; stroke-linejoin: miter; stroke-linecap: square"/>
   </g>
   <g id="patch_4">
    <path d="M 58.44415 160.158281 
L 174.897944 160.158281 
" style="fill: none; stroke: #000000; stroke-width: 1.2; stroke-linejoin: miter; stroke-linecap: square"/>
   </g>
   <g id="patch_5">
    <path d="M 77.913947 177.318281 
Q 119.584496 177.318281 159.577995 177.318281 
" style="fill: none; stroke: #000000; stroke-width: 1.5; stroke-linecap: round"/>
    <path d="M 155.577995 175.318281 
L 159.577995 177.318281 
L 155.577995 179.318281 
" style="fill: none; stroke: #000000; stroke-width: 1.5; stroke-linecap: round"/>
   </g>
   <g id="text_8">
    <!-- Monkeys -->
    <g style="fill: #a52a2a" transform="translate(92.002216 15.558281) scale(0.11 -0.11)">
     <defs>
      <path id="DejaVuSans-4d" d="M 628 4666 
L 1569 4666 
L 2759 1491 
L 3956 4666 
L 4897 4666 
L 4897 0 
L 4281 0 
L 4281 4097 
L 3078 897 
L 2444 897 
L 1241 4097 
L 1241 0 
L 628 0 
L 628 4666 
z
" transform="scale(0.015625)"/>
      <path id="DejaVuSans-6b" d="M 581 4863 
L 1159 4863 
L 1159 1991 
L 2875 3500 
L 3609 3500 
L 1753 1863 
L 3688 0 
L 2938 0 
L 1159 1709 
L 1159 0 
L 581 0 
L 581 4863 
z
" transform="scale(0.015625)"/>
      <path id="DejaVuSans-79" d="M 2059 -325 
Q 1816 -950 1584 -1140 
Q 1353 -1331 966 -1331 
L 506 -1331 
L 506 -850 
L 844 -850 
Q 1081 -850 1212 -737 
Q 1344 -625 1503 -206 
L 1606 56 
L 191 3500 
L 800 3500 
L 1894 763 
L 2988 3500 
L 3597 3500 
L 2059 -325 
z
" transform="scale(0.015625)"/>
     </defs>
     <use xlink:href="#DejaVuSans-4d"/>
     <use xlink:href="#DejaVuSans-6f" transform="translate(86.279297 0)"/>
     <use xlink:href="#DejaVuSans-6e" transform="translate(147.460938 0)"/>
     <use xlink:href="#DejaVuSans-6b" transform="translate(210.839844 0)"/>
     <use xlink:href="#DejaVuSans-65" transform="translate(265.125 0)"/>
     <use xlink:href="#DejaVuSans-79" transform="translate(326.648438 0)"/>
     <use xlink:href="#DejaVuSans-73" transform="translate(385.828125 0)"/>
    </g>
   </g>
  </g>
  <g id="axes_2">
   <g id="patch_6">
    <path d="M 204.861506 160.158281 
L 331.679687 160.158281 
L 331.679687 21.558281 
L 204.861506 21.558281 
L 204.861506 160.158281 
z
" style="fill: none"/>
   </g>
   <g id="matplotlib.axis_3">
    <g id="xtick_3">
     <g id="line2d_8"/>
     <g id="text_9">
      <!-- Start -->
      <g style="fill: #ffffff" transform="translate(195.969093 172.776406) scale(0.12 -0.12)">
       <use xlink:href="#DejaVuSans-53"/>
       <use xlink:href="#DejaVuSans-74" transform="translate(63.476562 0)"/>
       <use xlink:href="#DejaVuSans-61" transform="translate(102.685547 0)"/>
       <use xlink:href="#DejaVuSans-72" transform="translate(163.964844 0)"/>
       <use xlink:href="#DejaVuSans-74" transform="translate(205.078125 0)"/>
      </g>
     </g>
    </g>
    <g id="xtick_4">
     <g id="line2d_9"/>
     <g id="text_10">
      <!-- End -->
      <g style="fill: #ffffff" transform="translate(315.67695 172.776406) scale(0.12 -0.12)">
       <use xlink:href="#DejaVuSans-45"/>
       <use xlink:href="#DejaVuSans-6e" transform="translate(63.183594 0)"/>
       <use xlink:href="#DejaVuSans-64" transform="translate(126.5625 0)"/>
      </g>
     </g>
    </g>
   </g>
   <g id="matplotlib.axis_4">
    <g id="ytick_4">
     <g id="line2d_10"/>
    </g>
    <g id="ytick_5">
     <g id="line2d_11"/>
    </g>
    <g id="ytick_6">
     <g id="line2d_12"/>
    </g>
   </g>
   <g id="line2d_13">
    <path d="M 210.625968 145.508067 
L 211.790506 145.105095 
L 212.955044 145.034098 
L 214.119582 144.575722 
L 215.28412 143.450621 
L 216.448658 141.004238 
L 217.613196 136.796916 
L 218.777734 134.476305 
L 219.942272 132.342302 
L 221.10681 132.136847 
L 222.271348 132.204304 
L 223.435886 131.265852 
L 224.600424 130.036007 
L 225.764962 124.23413 
L 226.9295 121.543496 
L 228.094038 121.637613 
L 229.258576 120.593969 
L 230.423113 121.828107 
L 231.587651 127.478275 
L 232.752189 127.824258 
L 233.916727 126.40997 
L 235.081265 123.625789 
L 236.245803 125.021275 
L 237.410341 124.629239 
L 238.574879 122.767623 
L 239.739417 121.857481 
L 240.903955 125.688367 
L 242.068493 126.419217 
L 243.233031 128.027528 
L 244.397569 128.813553 
L 245.562107 128.698058 
L 246.726645 126.131243 
L 247.891183 124.871183 
L 249.055721 124.616032 
L 250.220258 124.450898 
L 251.384796 124.259817 
L 252.549334 126.76928 
L 253.713872 129.211115 
L 254.87841 129.238599 
L 256.042948 128.846749 
L 257.207486 126.283118 
L 258.372024 123.188931 
L 259.536562 121.806304 
L 260.7011 118.851634 
L 261.865638 118.661435 
L 263.030176 120.016213 
L 264.194714 116.621011 
L 265.359252 114.763044 
L 266.52379 110.729817 
L 267.688328 109.302206 
L 268.852866 109.611847 
L 270.017404 113.187443 
L 271.181941 116.289268 
L 272.346479 117.042088 
L 273.511017 117.042917 
L 274.675555 119.102446 
L 275.840093 119.653211 
L 277.004631 116.801425 
L 278.169169 112.597658 
L 279.333707 111.678169 
L 280.498245 112.212977 
L 281.662783 111.38212 
L 282.827321 107.192087 
L 283.991859 107.405274 
L 285.156397 107.73022 
L 286.320935 106.206518 
L 287.485473 101.745947 
L 288.650011 98.879679 
L 289.814549 97.479189 
L 290.979086 95.90743 
L 292.143624 96.000321 
L 293.308162 93.948119 
L 294.4727 91.131036 
L 295.637238 89.594836 
L 296.801776 91.075456 
L 297.966314 91.549207 
L 299.130852 95.447957 
L 300.29539 103.258093 
L 301.459928 107.97259 
L 302.624466 109.973705 
L 303.789004 112.376337 
L 304.953542 114.693007 
L 306.11808 114.991475 
L 307.282618 114.941718 
L 308.447156 113.900229 
L 309.611694 108.274573 
L 310.776231 104.854003 
L 311.940769 99.823684 
L 313.105307 99.279672 
L 314.269845 98.854683 
L 315.434383 97.615292 
L 316.598921 97.134679 
L 317.763459 97.713049 
L 318.927997 97.207843 
L 320.092535 97.033969 
L 321.257073 99.385391 
L 322.421611 102.565754 
L 323.586149 103.235414 
L 324.750687 104.299285 
L 325.915225 99.657101 
" clip-path="url(#pad29ed1062)" style="fill: none; stroke: #808080; stroke-opacity: 0.5; stroke-width: 2; stroke-linecap: square"/>
   </g>
   <g id="line2d_14">
    <path d="M 210.625968 137.984282 
L 211.790506 127.333537 
L 212.955044 118.321228 
L 214.119582 110.046213 
L 215.28412 102.080819 
L 216.448658 94.861355 
L 217.613196 90.500169 
L 218.777734 86.596635 
L 219.942272 82.010314 
L 221.10681 77.881002 
L 222.271348 75.471684 
L 223.435886 72.88842 
L 224.600424 70.133331 
L 225.764962 68.690009 
L 226.9295 69.520703 
L 228.094038 70.514925 
L 229.258576 68.609283 
L 230.423113 65.807245 
L 231.587651 64.151424 
L 232.752189 62.863121 
L 233.916727 62.187042 
L 235.081265 61.484152 
L 236.245803 59.08356 
L 237.410341 57.17418 
L 238.574879 55.469322 
L 239.739417 54.817751 
L 240.903955 54.199089 
L 242.068493 53.607033 
L 243.233031 53.196093 
L 244.397569 55.341533 
L 245.562107 59.318579 
L 246.726645 61.305547 
L 247.891183 59.972651 
L 249.055721 59.294651 
L 250.220258 58.421423 
L 251.384796 58.403442 
L 252.549334 58.079258 
L 253.713872 56.977822 
L 254.87841 55.76864 
L 256.042948 56.095422 
L 257.207486 56.760943 
L 258.372024 57.878539 
L 259.536562 58.991169 
L 260.7011 57.98233 
L 261.865638 57.245508 
L 263.030176 57.589818 
L 264.194714 57.606429 
L 265.359252 58.08545 
L 266.52379 57.361762 
L 267.688328 57.271037 
L 268.852866 56.931896 
L 270.017404 57.347132 
L 271.181941 57.499909 
L 272.346479 57.462892 
L 273.511017 57.443725 
L 274.675555 57.199637 
L 275.840093 56.502497 
L 277.004631 54.761773 
L 278.169169 51.947794 
L 279.333707 52.161429 
L 280.498245 52.011097 
L 281.662783 54.538951 
L 282.827321 56.645609 
L 283.991859 57.328249 
L 285.156397 57.631902 
L 286.320935 55.930452 
L 287.485473 54.48856 
L 288.650011 55.319254 
L 289.814549 56.141486 
L 290.979086 57.254729 
L 292.143624 57.333345 
L 293.308162 56.456327 
L 294.4727 54.297964 
L 295.637238 52.90422 
L 296.801776 52.775317 
L 297.966314 54.088502 
L 299.130852 54.642316 
L 300.29539 53.771926 
L 301.459928 55.439932 
L 302.624466 58.388086 
L 303.789004 59.361811 
L 304.953542 60.728767 
L 306.11808 62.047988 
L 307.282618 60.890661 
L 308.447156 58.707798 
L 309.611694 60.958928 
L 310.776231 61.904824 
L 311.940769 63.064219 
L 313.105307 65.875459 
L 314.269845 67.780111 
L 315.434383 70.068059 
L 316.598921 74.081037 
L 317.763459 76.54444 
L 318.927997 77.003084 
L 320.092535 77.573122 
L 321.257073 80.266804 
L 322.421611 84.591992 
L 323.586149 89.259652 
L 324.750687 94.970003 
L 325.915225 93.14014 
" clip-path="url(#pad29ed1062)" style="fill: none; stroke: #808080; stroke-width: 2; stroke-linecap: square"/>
   </g>
   <g id="text_11">
    <!-- Early -->
    <g style="fill: #808080; opacity: 0.5" transform="translate(210.625968 51.258281) scale(0.12 -0.12)">
     <use xlink:href="#DejaVuSans-45"/>
     <use xlink:href="#DejaVuSans-61" transform="translate(63.183594 0)"/>
     <use xlink:href="#DejaVuSans-72" transform="translate(124.462891 0)"/>
     <use xlink:href="#DejaVuSans-6c" transform="translate(165.576172 0)"/>
     <use xlink:href="#DejaVuSans-79" transform="translate(193.359375 0)"/>
    </g>
   </g>
   <g id="text_12">
    <!-- Late -->
    <g style="fill: #808080" transform="translate(210.625968 41.358281) scale(0.12 -0.12)">
     <defs>
      <path id="DejaVuSans-4c" d="M 628 4666 
L 1259 4666 
L 1259 531 
L 3531 531 
L 3531 0 
L 628 0 
L 628 4666 
z
" transform="scale(0.015625)"/>
     </defs>
     <use xlink:href="#DejaVuSans-4c"/>
     <use xlink:href="#DejaVuSans-61" transform="translate(55.712891 0)"/>
     <use xlink:href="#DejaVuSans-74" transform="translate(116.992188 0)"/>
     <use xlink:href="#DejaVuSans-65" transform="translate(156.201172 0)"/>
    </g>
   </g>
   <g id="text_13">
    <!-- Mice -->
    <g style="fill: #808080" transform="translate(255.5888 15.558281) scale(0.11 -0.11)">
     <use xlink:href="#DejaVuSans-4d"/>
     <use xlink:href="#DejaVuSans-69" transform="translate(86.279297 0)"/>
     <use xlink:href="#DejaVuSans-63" transform="translate(114.0625 0)"/>
     <use xlink:href="#DejaVuSans-65" transform="translate(169.042969 0)"/>
    </g>
   </g>
  </g>
 </g>
 <defs>
  <clipPath id="paf19a4d6ba">
   <rect x="52.679688" y="21.558281" width="126.818182" height="138.6"/>
  </clipPath>
  <clipPath id="pad29ed1062">
   <rect x="204.861506" y="21.558281" width="126.818182" height="138.6"/>
  </clipPath>
 </defs>
</svg>
