<?xml version="1.0" encoding="utf-8" standalone="no"?>
<!DOCTYPE svg PUBLIC "-//W3C//DTD SVG 1.1//EN"
  "http://www.w3.org/Graphics/SVG/1.1/DTD/svg11.dtd">
<svg xmlns:xlink="http://www.w3.org/1999/xlink" width="483.947355pt" height="130.835547pt" viewBox="0 0 483.947355 130.835547" xmlns="http://www.w3.org/2000/svg" version="1.1">
 <metadata>
  <rdf:RDF xmlns:dc="http://purl.org/dc/elements/1.1/" xmlns:cc="http://creativecommons.org/ns#" xmlns:rdf="http://www.w3.org/1999/02/22-rdf-syntax-ns#">
   <cc:Work>
    <dc:type rdf:resource="http://purl.org/dc/dcmitype/StillImage"/>
    <dc:date>2025-11-16T12:44:35.761258</dc:date>
    <dc:format>image/svg+xml</dc:format>
    <dc:creator>
     <cc:Agent>
      <dc:title>Matplotlib v3.10.6, https://matplotlib.org/</dc:title>
     </cc:Agent>
    </dc:creator>
   </cc:Work>
  </rdf:RDF>
 </metadata>
 <defs>
  <style type="text/css">*{stroke-linejoin: round; stroke-linecap: butt}</style>
 </defs>
 <g id="figure_1">
  <g id="patch_1">
   <path d="M 0 130.835547 
L 483.947355 130.835547 
L 483.947355 0 
L 0 0 
L 0 130.835547 
z
" style="fill: none"/>
  </g>
  <g id="axes_1">
   <g id="patch_2">
    <path d="M 46.389781 93.779297 
L 144.860369 93.779297 
L 144.860369 10.619297 
L 46.389781 10.619297 
L 46.389781 93.779297 
z
" style="fill: none"/>
   </g>
   <g id="matplotlib.axis_1">
    <g id="xtick_1">
     <g id="line2d_1">
      <defs>
       <path id="m6c46b6f722" d="M 0 0 
L 0 3 
" style="stroke: #000000; stroke-width: 1.4"/>
      </defs>
      <g>
       <use xlink:href="#m6c46b6f722" x="50.865717" y="93.779297" style="stroke: #000000; stroke-width: 1.4"/>
      </g>
     </g>
     <g id="text_1">
      <!-- 0.0 -->
      <g transform="translate(43.709311 107.117891) scale(0.09 -0.09)">
       <defs>
        <path id="DejaVuSans-30" d="M 2034 4250 
Q 1547 4250 1301 3770 
Q 1056 3291 1056 2328 
Q 1056 1369 1301 889 
Q 1547 409 2034 409 
Q 2525 409 2770 889 
Q 3016 1369 3016 2328 
Q 3016 3291 2770 3770 
Q 2525 4250 2034 4250 
z
M 2034 4750 
Q 2819 4750 3233 4129 
Q 3647 3509 3647 2328 
Q 3647 1150 3233 529 
Q 2819 -91 2034 -91 
Q 1250 -91 836 529 
Q 422 1150 422 2328 
Q 422 3509 836 4129 
Q 1250 4750 2034 4750 
z
" transform="scale(0.015625)"/>
        <path id="DejaVuSans-2e" d="M 684 794 
L 1344 794 
L 1344 0 
L 684 0 
L 684 794 
z
" transform="scale(0.015625)"/>
       </defs>
       <use xlink:href="#DejaVuSans-30"/>
       <use xlink:href="#DejaVuSans-2e" transform="translate(63.623047 0)"/>
       <use xlink:href="#DejaVuSans-30" transform="translate(95.410156 0)"/>
      </g>
     </g>
    </g>
    <g id="xtick_2">
     <g id="line2d_2">
      <g>
       <use xlink:href="#m6c46b6f722" x="95.625075" y="93.779297" style="stroke: #000000; stroke-width: 1.4"/>
      </g>
     </g>
     <g id="text_2">
      <!-- 0.5 -->
      <g transform="translate(88.468669 107.117891) scale(0.09 -0.09)">
       <defs>
        <path id="DejaVuSans-35" d="M 691 4666 
L 3169 4666 
L 3169 4134 
L 1269 4134 
L 1269 2991 
Q 1406 3038 1543 3061 
Q 1681 3084 1819 3084 
Q 2600 3084 3056 2656 
Q 3513 2228 3513 1497 
Q 3513 744 3044 326 
Q 2575 -91 1722 -91 
Q 1428 -91 1123 -41 
Q 819 9 494 109 
L 494 744 
Q 775 591 1075 516 
Q 1375 441 1709 441 
Q 2250 441 2565 725 
Q 2881 1009 2881 1497 
Q 2881 1984 2565 2268 
Q 2250 2553 1709 2553 
Q 1456 2553 1204 2497 
Q 953 2441 691 2322 
L 691 4666 
z
" transform="scale(0.015625)"/>
       </defs>
       <use xlink:href="#DejaVuSans-30"/>
       <use xlink:href="#DejaVuSans-2e" transform="translate(63.623047 0)"/>
       <use xlink:href="#DejaVuSans-35" transform="translate(95.410156 0)"/>
      </g>
     </g>
    </g>
    <g id="xtick_3">
     <g id="line2d_3">
      <g>
       <use xlink:href="#m6c46b6f722" x="140.384434" y="93.779297" style="stroke: #000000; stroke-width: 1.4"/>
      </g>
     </g>
     <g id="text_3">
      <!-- 1.0 -->
      <g transform="translate(133.228027 107.117891) scale(0.09 -0.09)">
       <defs>
        <path id="DejaVuSans-31" d="M 794 531 
L 1825 531 
L 1825 4091 
L 703 3866 
L 703 4441 
L 1819 4666 
L 2450 4666 
L 2450 531 
L 3481 531 
L 3481 0 
L 794 0 
L 794 531 
z
" transform="scale(0.015625)"/>
       </defs>
       <use xlink:href="#DejaVuSans-31"/>
       <use xlink:href="#DejaVuSans-2e" transform="translate(63.623047 0)"/>
       <use xlink:href="#DejaVuSans-30" transform="translate(95.410156 0)"/>
      </g>
     </g>
    </g>
    <g id="text_4">
     <!-- P(choose right) -->
     <g transform="translate(53.856872 121.347891) scale(0.11 -0.11)">
      <defs>
       <path id="DejaVuSans-50" d="M 1259 4147 
L 1259 2394 
L 2053 2394 
Q 2494 2394 2734 2622 
Q 2975 2850 2975 3272 
Q 2975 3691 2734 3919 
Q 2494 4147 2053 4147 
L 1259 4147 
z
M 628 4666 
L 2053 4666 
Q 2838 4666 3239 4311 
Q 3641 3956 3641 3272 
Q 3641 2581 3239 2228 
Q 2838 1875 2053 1875 
L 1259 1875 
L 1259 0 
L 628 0 
L 628 4666 
z
" transform="scale(0.015625)"/>
       <path id="DejaVuSans-28" d="M 1984 4856 
Q 1566 4138 1362 3434 
Q 1159 2731 1159 2009 
Q 1159 1288 1364 580 
Q 1569 -128 1984 -844 
L 1484 -844 
Q 1016 -109 783 600 
Q 550 1309 550 2009 
Q 550 2706 781 3412 
Q 1013 4119 1484 4856 
L 1984 4856 
z
" transform="scale(0.015625)"/>
       <path id="DejaVuSans-63" d="M 3122 3366 
L 3122 2828 
Q 2878 2963 2633 3030 
Q 2388 3097 2138 3097 
Q 1578 3097 1268 2742 
Q 959 2388 959 1747 
Q 959 1106 1268 751 
Q 1578 397 2138 397 
Q 2388 397 2633 464 
Q 2878 531 3122 666 
L 3122 134 
Q 2881 22 2623 -34 
Q 2366 -91 2075 -91 
Q 1284 -91 818 406 
Q 353 903 353 1747 
Q 353 2603 823 3093 
Q 1294 3584 2113 3584 
Q 2378 3584 2631 3529 
Q 2884 3475 3122 3366 
z
" transform="scale(0.015625)"/>
       <path id="DejaVuSans-68" d="M 3513 2113 
L 3513 0 
L 2938 0 
L 2938 2094 
Q 2938 2591 2744 2837 
Q 2550 3084 2163 3084 
Q 1697 3084 1428 2787 
Q 1159 2491 1159 1978 
L 1159 0 
L 581 0 
L 581 4863 
L 1159 4863 
L 1159 2956 
Q 1366 3272 1645 3428 
Q 1925 3584 2291 3584 
Q 2894 3584 3203 3211 
Q 3513 2838 3513 2113 
z
" transform="scale(0.015625)"/>
       <path id="DejaVuSans-6f" d="M 1959 3097 
Q 1497 3097 1228 2736 
Q 959 2375 959 1747 
Q 959 1119 1226 758 
Q 1494 397 1959 397 
Q 2419 397 2687 759 
Q 2956 1122 2956 1747 
Q 2956 2369 2687 2733 
Q 2419 3097 1959 3097 
z
M 1959 3584 
Q 2709 3584 3137 3096 
Q 3566 2609 3566 1747 
Q 3566 888 3137 398 
Q 2709 -91 1959 -91 
Q 1206 -91 779 398 
Q 353 888 353 1747 
Q 353 2609 779 3096 
Q 1206 3584 1959 3584 
z
" transform="scale(0.015625)"/>
       <path id="DejaVuSans-73" d="M 2834 3397 
L 2834 2853 
Q 2591 2978 2328 3040 
Q 2066 3103 1784 3103 
Q 1356 3103 1142 2972 
Q 928 2841 928 2578 
Q 928 2378 1081 2264 
Q 1234 2150 1697 2047 
L 1894 2003 
Q 2506 1872 2764 1633 
Q 3022 1394 3022 966 
Q 3022 478 2636 193 
Q 2250 -91 1575 -91 
Q 1294 -91 989 -36 
Q 684 19 347 128 
L 347 722 
Q 666 556 975 473 
Q 1284 391 1588 391 
Q 1994 391 2212 530 
Q 2431 669 2431 922 
Q 2431 1156 2273 1281 
Q 2116 1406 1581 1522 
L 1381 1569 
Q 847 1681 609 1914 
Q 372 2147 372 2553 
Q 372 3047 722 3315 
Q 1072 3584 1716 3584 
Q 2034 3584 2315 3537 
Q 2597 3491 2834 3397 
z
" transform="scale(0.015625)"/>
       <path id="DejaVuSans-65" d="M 3597 1894 
L 3597 1613 
L 953 1613 
Q 991 1019 1311 708 
Q 1631 397 2203 397 
Q 2534 397 2845 478 
Q 3156 559 3463 722 
L 3463 178 
Q 3153 47 2828 -22 
Q 2503 -91 2169 -91 
Q 1331 -91 842 396 
Q 353 884 353 1716 
Q 353 2575 817 3079 
Q 1281 3584 2069 3584 
Q 2775 3584 3186 3129 
Q 3597 2675 3597 1894 
z
M 3022 2063 
Q 3016 2534 2758 2815 
Q 2500 3097 2075 3097 
Q 1594 3097 1305 2825 
Q 1016 2553 972 2059 
L 3022 2063 
z
" transform="scale(0.015625)"/>
       <path id="DejaVuSans-20" transform="scale(0.015625)"/>
       <path id="DejaVuSans-72" d="M 2631 2963 
Q 2534 3019 2420 3045 
Q 2306 3072 2169 3072 
Q 1681 3072 1420 2755 
Q 1159 2438 1159 1844 
L 1159 0 
L 581 0 
L 581 3500 
L 1159 3500 
L 1159 2956 
Q 1341 3275 1631 3429 
Q 1922 3584 2338 3584 
Q 2397 3584 2469 3576 
Q 2541 3569 2628 3553 
L 2631 2963 
z
" transform="scale(0.015625)"/>
       <path id="DejaVuSans-69" d="M 603 3500 
L 1178 3500 
L 1178 0 
L 603 0 
L 603 3500 
z
M 603 4863 
L 1178 4863 
L 1178 4134 
L 603 4134 
L 603 4863 
z
" transform="scale(0.015625)"/>
       <path id="DejaVuSans-67" d="M 2906 1791 
Q 2906 2416 2648 2759 
Q 2391 3103 1925 3103 
Q 1463 3103 1205 2759 
Q 947 2416 947 1791 
Q 947 1169 1205 825 
Q 1463 481 1925 481 
Q 2391 481 2648 825 
Q 2906 1169 2906 1791 
z
M 3481 434 
Q 3481 -459 3084 -895 
Q 2688 -1331 1869 -1331 
Q 1566 -1331 1297 -1286 
Q 1028 -1241 775 -1147 
L 775 -588 
Q 1028 -725 1275 -790 
Q 1522 -856 1778 -856 
Q 2344 -856 2625 -561 
Q 2906 -266 2906 331 
L 2906 616 
Q 2728 306 2450 153 
Q 2172 0 1784 0 
Q 1141 0 747 490 
Q 353 981 353 1791 
Q 353 2603 747 3093 
Q 1141 3584 1784 3584 
Q 2172 3584 2450 3431 
Q 2728 3278 2906 2969 
L 2906 3500 
L 3481 3500 
L 3481 434 
z
" transform="scale(0.015625)"/>
       <path id="DejaVuSans-74" d="M 1172 4494 
L 1172 3500 
L 2356 3500 
L 2356 3053 
L 1172 3053 
L 1172 1153 
Q 1172 725 1289 603 
Q 1406 481 1766 481 
L 2356 481 
L 2356 0 
L 1766 0 
Q 1100 0 847 248 
Q 594 497 594 1153 
L 594 3053 
L 172 3053 
L 172 3500 
L 594 3500 
L 594 4494 
L 1172 4494 
z
" transform="scale(0.015625)"/>
       <path id="DejaVuSans-29" d="M 513 4856 
L 1013 4856 
Q 1481 4119 1714 3412 
Q 1947 2706 1947 2009 
Q 1947 1309 1714 600 
Q 1481 -109 1013 -844 
L 513 -844 
Q 928 -128 1133 580 
Q 1338 1288 1338 2009 
Q 1338 2731 1133 3434 
Q 928 4138 513 4856 
z
" transform="scale(0.015625)"/>
      </defs>
      <use xlink:href="#DejaVuSans-50"/>
      <use xlink:href="#DejaVuSans-28" transform="translate(60.302734 0)"/>
      <use xlink:href="#DejaVuSans-63" transform="translate(99.316406 0)"/>
      <use xlink:href="#DejaVuSans-68" transform="translate(154.296875 0)"/>
      <use xlink:href="#DejaVuSans-6f" transform="translate(217.675781 0)"/>
      <use xlink:href="#DejaVuSans-6f" transform="translate(278.857422 0)"/>
      <use xlink:href="#DejaVuSans-73" transform="translate(340.039062 0)"/>
      <use xlink:href="#DejaVuSans-65" transform="translate(392.138672 0)"/>
      <use xlink:href="#DejaVuSans-20" transform="translate(453.662109 0)"/>
      <use xlink:href="#DejaVuSans-72" transform="translate(485.449219 0)"/>
      <use xlink:href="#DejaVuSans-69" transform="translate(526.5625 0)"/>
      <use xlink:href="#DejaVuSans-67" transform="translate(554.345703 0)"/>
      <use xlink:href="#DejaVuSans-68" transform="translate(617.822266 0)"/>
      <use xlink:href="#DejaVuSans-74" transform="translate(681.201172 0)"/>
      <use xlink:href="#DejaVuSans-29" transform="translate(720.410156 0)"/>
     </g>
    </g>
   </g>
   <g id="matplotlib.axis_2">
    <g id="ytick_1">
     <g id="line2d_4">
      <defs>
       <path id="m5e7bde0397" d="M 0 0 
L -3 0 
" style="stroke: #000000; stroke-width: 1.4"/>
      </defs>
      <g>
       <use xlink:href="#m5e7bde0397" x="46.389781" y="89.999297" style="stroke: #000000; stroke-width: 1.4"/>
      </g>
     </g>
     <g id="text_5">
      <!-- 0 -->
      <g transform="translate(34.163531 93.418594) scale(0.09 -0.09)">
       <use xlink:href="#DejaVuSans-30"/>
      </g>
     </g>
    </g>
    <g id="ytick_2">
     <g id="line2d_5">
      <g>
       <use xlink:href="#m5e7bde0397" x="46.389781" y="25.436714" style="stroke: #000000; stroke-width: 1.4"/>
      </g>
     </g>
     <g id="text_6">
      <!-- 5 -->
      <g transform="translate(34.163531 28.856011) scale(0.09 -0.09)">
       <use xlink:href="#DejaVuSans-35"/>
      </g>
     </g>
    </g>
    <g id="text_7">
     <!-- Kernel density  -->
     <g transform="translate(15.558281 93.139922) rotate(-90) scale(0.11 -0.11)">
      <defs>
       <path id="DejaVuSans-4b" d="M 628 4666 
L 1259 4666 
L 1259 2694 
L 3353 4666 
L 4166 4666 
L 1850 2491 
L 4331 0 
L 3500 0 
L 1259 2247 
L 1259 0 
L 628 0 
L 628 4666 
z
" transform="scale(0.015625)"/>
       <path id="DejaVuSans-6e" d="M 3513 2113 
L 3513 0 
L 2938 0 
L 2938 2094 
Q 2938 2591 2744 2837 
Q 2550 3084 2163 3084 
Q 1697 3084 1428 2787 
Q 1159 2491 1159 1978 
L 1159 0 
L 581 0 
L 581 3500 
L 1159 3500 
L 1159 2956 
Q 1366 3272 1645 3428 
Q 1925 3584 2291 3584 
Q 2894 3584 3203 3211 
Q 3513 2838 3513 2113 
z
" transform="scale(0.015625)"/>
       <path id="DejaVuSans-6c" d="M 603 4863 
L 1178 4863 
L 1178 0 
L 603 0 
L 603 4863 
z
" transform="scale(0.015625)"/>
       <path id="DejaVuSans-64" d="M 2906 2969 
L 2906 4863 
L 3481 4863 
L 3481 0 
L 2906 0 
L 2906 525 
Q 2725 213 2448 61 
Q 2172 -91 1784 -91 
Q 1150 -91 751 415 
Q 353 922 353 1747 
Q 353 2572 751 3078 
Q 1150 3584 1784 3584 
Q 2172 3584 2448 3432 
Q 2725 3281 2906 2969 
z
M 947 1747 
Q 947 1113 1208 752 
Q 1469 391 1925 391 
Q 2381 391 2643 752 
Q 2906 1113 2906 1747 
Q 2906 2381 2643 2742 
Q 2381 3103 1925 3103 
Q 1469 3103 1208 2742 
Q 947 2381 947 1747 
z
" transform="scale(0.015625)"/>
       <path id="DejaVuSans-79" d="M 2059 -325 
Q 1816 -950 1584 -1140 
Q 1353 -1331 966 -1331 
L 506 -1331 
L 506 -850 
L 844 -850 
Q 1081 -850 1212 -737 
Q 1344 -625 1503 -206 
L 1606 56 
L 191 3500 
L 800 3500 
L 1894 763 
L 2988 3500 
L 3597 3500 
L 2059 -325 
z
" transform="scale(0.015625)"/>
      </defs>
      <use xlink:href="#DejaVuSans-4b"/>
      <use xlink:href="#DejaVuSans-65" transform="translate(60.576172 0)"/>
      <use xlink:href="#DejaVuSans-72" transform="translate(122.099609 0)"/>
      <use xlink:href="#DejaVuSans-6e" transform="translate(161.462891 0)"/>
      <use xlink:href="#DejaVuSans-65" transform="translate(224.841797 0)"/>
      <use xlink:href="#DejaVuSans-6c" transform="translate(286.365234 0)"/>
      <use xlink:href="#DejaVuSans-20" transform="translate(314.148438 0)"/>
      <use xlink:href="#DejaVuSans-64" transform="translate(345.935547 0)"/>
      <use xlink:href="#DejaVuSans-65" transform="translate(409.412109 0)"/>
      <use xlink:href="#DejaVuSans-6e" transform="translate(470.935547 0)"/>
      <use xlink:href="#DejaVuSans-73" transform="translate(534.314453 0)"/>
      <use xlink:href="#DejaVuSans-69" transform="translate(586.414062 0)"/>
      <use xlink:href="#DejaVuSans-74" transform="translate(614.197266 0)"/>
      <use xlink:href="#DejaVuSans-79" transform="translate(653.40625 0)"/>
      <use xlink:href="#DejaVuSans-20" transform="translate(712.585938 0)"/>
     </g>
     <!--  estimate -->
     <g transform="translate(27.875875 78.148984) rotate(-90) scale(0.11 -0.11)">
      <defs>
       <path id="DejaVuSans-6d" d="M 3328 2828 
Q 3544 3216 3844 3400 
Q 4144 3584 4550 3584 
Q 5097 3584 5394 3201 
Q 5691 2819 5691 2113 
L 5691 0 
L 5113 0 
L 5113 2094 
Q 5113 2597 4934 2840 
Q 4756 3084 4391 3084 
Q 3944 3084 3684 2787 
Q 3425 2491 3425 1978 
L 3425 0 
L 2847 0 
L 2847 2094 
Q 2847 2600 2669 2842 
Q 2491 3084 2119 3084 
Q 1678 3084 1418 2786 
Q 1159 2488 1159 1978 
L 1159 0 
L 581 0 
L 581 3500 
L 1159 3500 
L 1159 2956 
Q 1356 3278 1631 3431 
Q 1906 3584 2284 3584 
Q 2666 3584 2933 3390 
Q 3200 3197 3328 2828 
z
" transform="scale(0.015625)"/>
       <path id="DejaVuSans-61" d="M 2194 1759 
Q 1497 1759 1228 1600 
Q 959 1441 959 1056 
Q 959 750 1161 570 
Q 1363 391 1709 391 
Q 2188 391 2477 730 
Q 2766 1069 2766 1631 
L 2766 1759 
L 2194 1759 
z
M 3341 1997 
L 3341 0 
L 2766 0 
L 2766 531 
Q 2569 213 2275 61 
Q 1981 -91 1556 -91 
Q 1019 -91 701 211 
Q 384 513 384 1019 
Q 384 1609 779 1909 
Q 1175 2209 1959 2209 
L 2766 2209 
L 2766 2266 
Q 2766 2663 2505 2880 
Q 2244 3097 1772 3097 
Q 1472 3097 1187 3025 
Q 903 2953 641 2809 
L 641 3341 
Q 956 3463 1253 3523 
Q 1550 3584 1831 3584 
Q 2591 3584 2966 3190 
Q 3341 2797 3341 1997 
z
" transform="scale(0.015625)"/>
      </defs>
      <use xlink:href="#DejaVuSans-20"/>
      <use xlink:href="#DejaVuSans-65" transform="translate(31.787109 0)"/>
      <use xlink:href="#DejaVuSans-73" transform="translate(93.310547 0)"/>
      <use xlink:href="#DejaVuSans-74" transform="translate(145.410156 0)"/>
      <use xlink:href="#DejaVuSans-69" transform="translate(184.619141 0)"/>
      <use xlink:href="#DejaVuSans-6d" transform="translate(212.402344 0)"/>
      <use xlink:href="#DejaVuSans-61" transform="translate(309.814453 0)"/>
      <use xlink:href="#DejaVuSans-74" transform="translate(371.09375 0)"/>
      <use xlink:href="#DejaVuSans-65" transform="translate(410.302734 0)"/>
     </g>
    </g>
   </g>
   <g id="line2d_6">
    <path d="M 50.865717 26.510305 
L 52.69263 27.557071 
L 54.519542 32.299068 
L 56.346455 25.36857 
L 58.173367 20.522046 
L 60.00028 25.770911 
L 61.827193 39.432964 
L 63.654105 53.573429 
L 65.481018 63.756826 
L 67.30793 68.852542 
L 69.134843 71.770647 
L 70.961755 74.9035 
L 72.788668 77.935823 
L 74.615581 81.643541 
L 76.442493 84.562067 
L 78.269406 85.97899 
L 80.096318 87.074025 
L 81.923231 88.412148 
L 83.750144 89.504358 
L 85.577056 89.922115 
L 87.403969 89.993613 
L 89.230881 89.999105 
L 91.057794 89.999294 
L 92.884706 89.999297 
L 94.711619 89.999297 
L 96.538532 89.999297 
L 98.365444 89.999297 
L 100.192357 89.999297 
L 102.019269 89.999297 
L 103.846182 89.999297 
L 105.673095 89.999297 
L 107.500007 89.999297 
L 109.32692 89.999297 
L 111.153832 89.999297 
L 112.980745 89.999297 
L 114.807657 89.999297 
L 116.63457 89.999297 
L 118.461483 89.999297 
L 120.288395 89.999297 
L 122.115308 89.999297 
L 123.94222 89.999297 
L 125.769133 89.999297 
L 127.596046 89.999297 
L 129.422958 89.999297 
L 131.249871 89.999297 
L 133.076783 89.999297 
L 134.903696 89.999297 
L 136.730608 89.999297 
L 138.557521 89.999297 
L 140.384434 89.999297 
" clip-path="url(#pedbdd50c48)" style="fill: none; stroke: #ff0000; stroke-width: 2; stroke-linecap: square"/>
   </g>
   <g id="line2d_7">
    <path d="M 50.865717 89.514388 
L 52.69263 89.670022 
L 54.519542 89.896198 
L 56.346455 89.984412 
L 58.173367 89.998306 
L 60.00028 89.999266 
L 61.827193 89.999296 
L 63.654105 89.999297 
L 65.481018 89.999297 
L 67.30793 89.999297 
L 69.134843 89.999297 
L 70.961755 89.999297 
L 72.788668 89.999297 
L 74.615581 89.999297 
L 76.442493 89.999297 
L 78.269406 89.999297 
L 80.096318 89.999297 
L 81.923231 89.999297 
L 83.750144 89.999297 
L 85.577056 89.999297 
L 87.403969 89.999297 
L 89.230881 89.999297 
L 91.057794 89.999297 
L 92.884706 89.999297 
L 94.711619 89.999297 
L 96.538532 89.999297 
L 98.365444 89.999297 
L 100.192357 89.999291 
L 102.019269 89.998979 
L 103.846182 89.991297 
L 105.673095 89.906235 
L 107.500007 89.4958 
L 109.32692 88.692777 
L 111.153832 88.142368 
L 112.980745 87.885811 
L 114.807657 87.334143 
L 116.63457 86.733508 
L 118.461483 86.35631 
L 120.288395 84.547159 
L 122.115308 78.54701 
L 123.94222 69.665548 
L 125.769133 61.729416 
L 127.596046 55.811254 
L 129.422958 48.129183 
L 131.249871 35.060322 
L 133.076783 21.640985 
L 134.903696 15.491354 
L 136.730608 16.08984 
L 138.557521 14.399297 
L 140.384434 19.1838 
" clip-path="url(#pedbdd50c48)" style="fill: none; stroke: #0000ff; stroke-width: 2; stroke-linecap: square"/>
   </g>
   <g id="line2d_8">
    <path d="M 50.865717 89.999297 
L 52.69263 89.999297 
L 54.519542 89.999297 
L 56.346455 89.999297 
L 58.173367 89.999297 
L 60.00028 89.999297 
L 61.827193 89.999297 
L 63.654105 89.999297 
L 65.481018 89.999296 
L 67.30793 89.999247 
L 69.134843 89.997642 
L 70.961755 89.972468 
L 72.788668 89.779433 
L 74.615581 89.047707 
L 76.442493 87.663677 
L 78.269406 86.158792 
L 80.096318 84.134013 
L 81.923231 80.726916 
L 83.750144 77.104245 
L 85.577056 74.031431 
L 87.403969 70.727688 
L 89.230881 65.099658 
L 91.057794 55.841934 
L 92.884706 44.147473 
L 94.711619 32.191675 
L 96.538532 24.385555 
L 98.365444 23.108467 
L 100.192357 26.454161 
L 102.019269 33.110616 
L 103.846182 42.618751 
L 105.673095 54.455279 
L 107.500007 65.94594 
L 109.32692 74.842396 
L 111.153832 81.016447 
L 112.980745 84.929604 
L 114.807657 86.791934 
L 116.63457 87.335041 
L 118.461483 88.018783 
L 120.288395 89.112775 
L 122.115308 89.791556 
L 123.94222 89.95643 
L 125.769133 89.882824 
L 127.596046 89.673939 
L 129.422958 89.567456 
L 131.249871 89.729952 
L 133.076783 89.920362 
L 134.903696 89.988427 
L 136.730608 89.998594 
L 138.557521 89.999275 
L 140.384434 89.999297 
" clip-path="url(#pedbdd50c48)" style="fill: none; stroke: #808080; stroke-width: 2; stroke-linecap: square"/>
   </g>
   <g id="patch_3">
    <path d="M 46.389781 93.779297 
L 46.389781 10.619297 
" style="fill: none; stroke: #000000; stroke-width: 1.2; stroke-linejoin: miter; stroke-linecap: square"/>
   </g>
   <g id="patch_4">
    <path d="M 46.389781 93.779297 
L 144.860369 93.779297 
" style="fill: none; stroke: #000000; stroke-width: 1.2; stroke-linejoin: miter; stroke-linecap: square"/>
   </g>
  </g>
  <g id="axes_2">
   <g id="patch_5">
    <path d="M 164.554487 93.779297 
L 263.025075 93.779297 
L 263.025075 10.619297 
L 164.554487 10.619297 
L 164.554487 93.779297 
z
" style="fill: none"/>
   </g>
   <g id="matplotlib.axis_3">
    <g id="xtick_4">
     <g id="line2d_9">
      <g>
       <use xlink:href="#m6c46b6f722" x="198.869995" y="93.779297" style="stroke: #000000; stroke-width: 1.4"/>
      </g>
     </g>
     <g id="text_8">
      <!-- 4 -->
      <g transform="translate(196.00687 107.117891) scale(0.09 -0.09)">
       <defs>
        <path id="DejaVuSans-34" d="M 2419 4116 
L 825 1625 
L 2419 1625 
L 2419 4116 
z
M 2253 4666 
L 3047 4666 
L 3047 1625 
L 3713 1625 
L 3713 1100 
L 3047 1100 
L 3047 0 
L 2419 0 
L 2419 1100 
L 313 1100 
L 313 1709 
L 2253 4666 
z
" transform="scale(0.015625)"/>
       </defs>
       <use xlink:href="#DejaVuSans-34"/>
      </g>
     </g>
    </g>
    <g id="xtick_5">
     <g id="line2d_10">
      <g>
       <use xlink:href="#m6c46b6f722" x="258.54914" y="93.779297" style="stroke: #000000; stroke-width: 1.4"/>
      </g>
     </g>
     <g id="text_9">
      <!-- 5 -->
      <g transform="translate(255.686015 107.117891) scale(0.09 -0.09)">
       <use xlink:href="#DejaVuSans-35"/>
      </g>
     </g>
    </g>
    <g id="text_10">
     <!-- Entropy (5 bit max) -->
     <g transform="translate(160.229234 121.347891) scale(0.11 -0.11)">
      <defs>
       <path id="DejaVuSans-45" d="M 628 4666 
L 3578 4666 
L 3578 4134 
L 1259 4134 
L 1259 2753 
L 3481 2753 
L 3481 2222 
L 1259 2222 
L 1259 531 
L 3634 531 
L 3634 0 
L 628 0 
L 628 4666 
z
" transform="scale(0.015625)"/>
       <path id="DejaVuSans-70" d="M 1159 525 
L 1159 -1331 
L 581 -1331 
L 581 3500 
L 1159 3500 
L 1159 2969 
Q 1341 3281 1617 3432 
Q 1894 3584 2278 3584 
Q 2916 3584 3314 3078 
Q 3713 2572 3713 1747 
Q 3713 922 3314 415 
Q 2916 -91 2278 -91 
Q 1894 -91 1617 61 
Q 1341 213 1159 525 
z
M 3116 1747 
Q 3116 2381 2855 2742 
Q 2594 3103 2138 3103 
Q 1681 3103 1420 2742 
Q 1159 2381 1159 1747 
Q 1159 1113 1420 752 
Q 1681 391 2138 391 
Q 2594 391 2855 752 
Q 3116 1113 3116 1747 
z
" transform="scale(0.015625)"/>
       <path id="DejaVuSans-62" d="M 3116 1747 
Q 3116 2381 2855 2742 
Q 2594 3103 2138 3103 
Q 1681 3103 1420 2742 
Q 1159 2381 1159 1747 
Q 1159 1113 1420 752 
Q 1681 391 2138 391 
Q 2594 391 2855 752 
Q 3116 1113 3116 1747 
z
M 1159 2969 
Q 1341 3281 1617 3432 
Q 1894 3584 2278 3584 
Q 2916 3584 3314 3078 
Q 3713 2572 3713 1747 
Q 3713 922 3314 415 
Q 2916 -91 2278 -91 
Q 1894 -91 1617 61 
Q 1341 213 1159 525 
L 1159 0 
L 581 0 
L 581 4863 
L 1159 4863 
L 1159 2969 
z
" transform="scale(0.015625)"/>
       <path id="DejaVuSans-78" d="M 3513 3500 
L 2247 1797 
L 3578 0 
L 2900 0 
L 1881 1375 
L 863 0 
L 184 0 
L 1544 1831 
L 300 3500 
L 978 3500 
L 1906 2253 
L 2834 3500 
L 3513 3500 
z
" transform="scale(0.015625)"/>
      </defs>
      <use xlink:href="#DejaVuSans-45"/>
      <use xlink:href="#DejaVuSans-6e" transform="translate(63.183594 0)"/>
      <use xlink:href="#DejaVuSans-74" transform="translate(126.5625 0)"/>
      <use xlink:href="#DejaVuSans-72" transform="translate(165.771484 0)"/>
      <use xlink:href="#DejaVuSans-6f" transform="translate(204.634766 0)"/>
      <use xlink:href="#DejaVuSans-70" transform="translate(265.816406 0)"/>
      <use xlink:href="#DejaVuSans-79" transform="translate(329.292969 0)"/>
      <use xlink:href="#DejaVuSans-20" transform="translate(388.472656 0)"/>
      <use xlink:href="#DejaVuSans-28" transform="translate(420.259766 0)"/>
      <use xlink:href="#DejaVuSans-35" transform="translate(459.273438 0)"/>
      <use xlink:href="#DejaVuSans-20" transform="translate(522.896484 0)"/>
      <use xlink:href="#DejaVuSans-62" transform="translate(554.683594 0)"/>
      <use xlink:href="#DejaVuSans-69" transform="translate(618.160156 0)"/>
      <use xlink:href="#DejaVuSans-74" transform="translate(645.943359 0)"/>
      <use xlink:href="#DejaVuSans-20" transform="translate(685.152344 0)"/>
      <use xlink:href="#DejaVuSans-6d" transform="translate(716.939453 0)"/>
      <use xlink:href="#DejaVuSans-61" transform="translate(814.351562 0)"/>
      <use xlink:href="#DejaVuSans-78" transform="translate(875.630859 0)"/>
      <use xlink:href="#DejaVuSans-29" transform="translate(934.810547 0)"/>
     </g>
    </g>
   </g>
   <g id="matplotlib.axis_4">
    <g id="ytick_3">
     <g id="line2d_11">
      <g>
       <use xlink:href="#m5e7bde0397" x="164.554487" y="93.779297" style="stroke: #000000; stroke-width: 1.4"/>
      </g>
     </g>
     <g id="text_11">
      <!-- 0 -->
      <g transform="translate(152.328237 97.198594) scale(0.09 -0.09)">
       <use xlink:href="#DejaVuSans-30"/>
      </g>
     </g>
    </g>
    <g id="ytick_4">
     <g id="line2d_12">
      <g>
       <use xlink:href="#m5e7bde0397" x="164.554487" y="10.619297" style="stroke: #000000; stroke-width: 1.4"/>
      </g>
     </g>
     <g id="text_12">
      <!-- 1 -->
      <g transform="translate(152.328237 14.038594) scale(0.09 -0.09)">
       <use xlink:href="#DejaVuSans-31"/>
      </g>
     </g>
    </g>
   </g>
   <g id="line2d_13">
    <path d="M 169.030423 66.136946 
L 170.857336 64.375511 
L 172.684248 62.532005 
L 174.511161 60.619254 
L 176.338073 58.652799 
L 178.164986 56.651169 
L 179.991898 54.63608 
L 181.818811 52.632406 
L 183.645724 50.66782 
L 185.472636 48.772018 
L 187.299549 46.975536 
L 189.126461 45.308214 
L 190.953374 43.797444 
L 192.780287 42.466388 
L 194.607199 41.332341 
L 196.434112 40.405434 
L 198.261024 39.687814 
L 200.087937 39.173407 
L 201.914849 38.848291 
L 203.741762 38.691681 
L 205.568675 38.677443 
L 207.395587 38.776082 
L 209.2225 38.957065 
L 211.049412 39.191368 
L 212.876325 39.454108 
L 214.703238 39.727075 
L 216.53015 40.000962 
L 218.357063 40.277063 
L 220.183975 40.568159 
L 222.010888 40.898369 
L 223.8378 41.301801 
L 225.664713 41.81997 
L 227.491626 42.498119 
L 229.318538 43.380778 
L 231.145451 44.507044 
L 232.972363 45.906164 
L 234.799276 47.594003 
L 236.626189 49.570855 
L 238.453101 51.820884 
L 240.280014 54.313205 
L 242.106926 57.004394 
L 243.933839 59.842022 
L 245.760751 62.768675 
L 247.587664 65.725947 
L 249.414577 68.657963 
L 251.241489 71.514131 
L 253.068402 74.251004 
L 254.895314 76.833271 
L 256.722227 79.234027 
L 258.54914 81.434504 
" clip-path="url(#p327573b411)" style="fill: none; stroke: #ff0000; stroke-width: 2; stroke-linecap: square"/>
   </g>
   <g id="line2d_14">
    <path d="M 169.030423 67.877926 
L 170.857336 66.966163 
L 172.684248 65.968366 
L 174.511161 64.877835 
L 176.338073 63.691642 
L 178.164986 62.411393 
L 179.991898 61.043748 
L 181.818811 59.600617 
L 183.645724 58.098963 
L 185.472636 56.560168 
L 187.299549 55.008971 
L 189.126461 53.472012 
L 190.953374 51.976113 
L 192.780287 50.546439 
L 194.607199 49.204765 
L 196.434112 47.968041 
L 198.261024 46.847476 
L 200.087937 45.848266 
L 201.914849 44.97005 
L 203.741762 44.208041 
L 205.568675 43.554711 
L 207.395587 43.001797 
L 209.2225 42.54237 
L 211.049412 42.172652 
L 212.876325 41.893345 
L 214.703238 41.710272 
L 216.53015 41.634244 
L 218.357063 41.680185 
L 220.183975 41.865644 
L 222.010888 42.20892 
L 223.8378 42.727067 
L 225.664713 43.434038 
L 227.491626 44.339216 
L 229.318538 45.446473 
L 231.145451 46.753834 
L 232.972363 48.253693 
L 234.799276 49.933504 
L 236.626189 51.776739 
L 238.453101 53.763966 
L 240.280014 55.873856 
L 242.106926 58.084009 
L 243.933839 60.371523 
L 245.760751 62.713329 
L 247.587664 65.086318 
L 249.414577 67.467376 
L 251.241489 69.833414 
L 253.068402 72.161484 
L 254.895314 74.429045 
L 256.722227 76.614393 
L 258.54914 78.69724 
" clip-path="url(#p327573b411)" style="fill: none; stroke: #0000ff; stroke-width: 2; stroke-linecap: square"/>
   </g>
   <g id="line2d_15">
    <path d="M 169.030423 78.824489 
L 170.857336 77.778399 
L 172.684248 76.527294 
L 174.511161 75.07234 
L 176.338073 73.39834 
L 178.164986 71.472088 
L 179.991898 69.24741 
L 181.818811 66.675863 
L 183.645724 63.720427 
L 185.472636 60.36869 
L 187.299549 56.642272 
L 189.126461 52.600338 
L 190.953374 48.336731 
L 192.780287 43.971804 
L 194.607199 39.641131 
L 196.434112 35.483573 
L 198.261024 31.630733 
L 200.087937 28.19881 
L 201.914849 25.282821 
L 203.741762 22.952445 
L 205.568675 21.248746 
L 207.395587 20.181647 
L 209.2225 19.728895 
L 211.049412 19.837807 
L 212.876325 20.430781 
L 214.703238 21.414502 
L 216.53015 22.691298 
L 218.357063 24.170102 
L 220.183975 25.77445 
L 222.010888 27.446046 
L 223.8378 29.144174 
L 225.664713 30.842742 
L 227.491626 32.527325 
L 229.318538 34.193927 
L 231.145451 35.849738 
L 232.972363 37.514655 
L 234.799276 39.221605 
L 236.626189 41.01406 
L 238.453101 42.94047 
L 240.280014 45.046801 
L 242.106926 47.369284 
L 243.933839 49.929316 
L 245.760751 52.731385 
L 247.587664 55.763488 
L 249.414577 58.998664 
L 251.241489 62.396247 
L 253.068402 65.902358 
L 254.895314 69.450274 
L 256.722227 72.962041 
L 258.54914 76.352554 
" clip-path="url(#p327573b411)" style="fill: none; stroke: #808080; stroke-width: 2; stroke-linecap: square"/>
   </g>
   <g id="patch_6">
    <path d="M 164.554487 93.779297 
L 164.554487 10.619297 
" style="fill: none; stroke: #000000; stroke-width: 1.2; stroke-linejoin: miter; stroke-linecap: square"/>
   </g>
   <g id="patch_7">
    <path d="M 164.554487 93.779297 
L 263.025075 93.779297 
" style="fill: none; stroke: #000000; stroke-width: 1.2; stroke-linejoin: miter; stroke-linecap: square"/>
   </g>
  </g>
  <g id="axes_3">
   <g id="patch_8">
    <path d="M 282.719193 93.779297 
L 381.189781 93.779297 
L 381.189781 10.619297 
L 282.719193 10.619297 
L 282.719193 93.779297 
z
" style="fill: none"/>
   </g>
   <g id="matplotlib.axis_5">
    <g id="xtick_6">
     <g id="line2d_16">
      <g>
       <use xlink:href="#m6c46b6f722" x="287.195129" y="93.779297" style="stroke: #000000; stroke-width: 1.4"/>
      </g>
     </g>
     <g id="text_13">
      <!-- 0.0 -->
      <g transform="translate(280.038723 107.117891) scale(0.09 -0.09)">
       <use xlink:href="#DejaVuSans-30"/>
       <use xlink:href="#DejaVuSans-2e" transform="translate(63.623047 0)"/>
       <use xlink:href="#DejaVuSans-30" transform="translate(95.410156 0)"/>
      </g>
     </g>
    </g>
    <g id="xtick_7">
     <g id="line2d_17">
      <g>
       <use xlink:href="#m6c46b6f722" x="331.954487" y="93.779297" style="stroke: #000000; stroke-width: 1.4"/>
      </g>
     </g>
     <g id="text_14">
      <!-- 0.5 -->
      <g transform="translate(324.798081 107.117891) scale(0.09 -0.09)">
       <use xlink:href="#DejaVuSans-30"/>
       <use xlink:href="#DejaVuSans-2e" transform="translate(63.623047 0)"/>
       <use xlink:href="#DejaVuSans-35" transform="translate(95.410156 0)"/>
      </g>
     </g>
    </g>
    <g id="xtick_8">
     <g id="line2d_18">
      <g>
       <use xlink:href="#m6c46b6f722" x="376.713845" y="93.779297" style="stroke: #000000; stroke-width: 1.4"/>
      </g>
     </g>
     <g id="text_15">
      <!-- 1.0 -->
      <g transform="translate(369.557439 107.117891) scale(0.09 -0.09)">
       <use xlink:href="#DejaVuSans-31"/>
       <use xlink:href="#DejaVuSans-2e" transform="translate(63.623047 0)"/>
       <use xlink:href="#DejaVuSans-30" transform="translate(95.410156 0)"/>
      </g>
     </g>
    </g>
    <g id="text_16">
     <!-- P(WSLS) -->
     <g transform="translate(308.860503 121.347891) scale(0.11 -0.11)">
      <defs>
       <path id="DejaVuSans-57" d="M 213 4666 
L 850 4666 
L 1831 722 
L 2809 4666 
L 3519 4666 
L 4500 722 
L 5478 4666 
L 6119 4666 
L 4947 0 
L 4153 0 
L 3169 4050 
L 2175 0 
L 1381 0 
L 213 4666 
z
" transform="scale(0.015625)"/>
       <path id="DejaVuSans-53" d="M 3425 4513 
L 3425 3897 
Q 3066 4069 2747 4153 
Q 2428 4238 2131 4238 
Q 1616 4238 1336 4038 
Q 1056 3838 1056 3469 
Q 1056 3159 1242 3001 
Q 1428 2844 1947 2747 
L 2328 2669 
Q 3034 2534 3370 2195 
Q 3706 1856 3706 1288 
Q 3706 609 3251 259 
Q 2797 -91 1919 -91 
Q 1588 -91 1214 -16 
Q 841 59 441 206 
L 441 856 
Q 825 641 1194 531 
Q 1563 422 1919 422 
Q 2459 422 2753 634 
Q 3047 847 3047 1241 
Q 3047 1584 2836 1778 
Q 2625 1972 2144 2069 
L 1759 2144 
Q 1053 2284 737 2584 
Q 422 2884 422 3419 
Q 422 4038 858 4394 
Q 1294 4750 2059 4750 
Q 2388 4750 2728 4690 
Q 3069 4631 3425 4513 
z
" transform="scale(0.015625)"/>
       <path id="DejaVuSans-4c" d="M 628 4666 
L 1259 4666 
L 1259 531 
L 3531 531 
L 3531 0 
L 628 0 
L 628 4666 
z
" transform="scale(0.015625)"/>
      </defs>
      <use xlink:href="#DejaVuSans-50"/>
      <use xlink:href="#DejaVuSans-28" transform="translate(60.302734 0)"/>
      <use xlink:href="#DejaVuSans-57" transform="translate(99.316406 0)"/>
      <use xlink:href="#DejaVuSans-53" transform="translate(198.193359 0)"/>
      <use xlink:href="#DejaVuSans-4c" transform="translate(261.669922 0)"/>
      <use xlink:href="#DejaVuSans-53" transform="translate(317.382812 0)"/>
      <use xlink:href="#DejaVuSans-29" transform="translate(380.859375 0)"/>
     </g>
    </g>
   </g>
   <g id="matplotlib.axis_6">
    <g id="ytick_5">
     <g id="line2d_19">
      <g>
       <use xlink:href="#m5e7bde0397" x="282.719193" y="90.083984" style="stroke: #000000; stroke-width: 1.4"/>
      </g>
     </g>
     <g id="text_17">
      <!-- 0 -->
      <g transform="translate(270.492943 93.503281) scale(0.09 -0.09)">
       <use xlink:href="#DejaVuSans-30"/>
      </g>
     </g>
    </g>
    <g id="ytick_6">
     <g id="line2d_20">
      <g>
       <use xlink:href="#m5e7bde0397" x="282.719193" y="10.619297" style="stroke: #000000; stroke-width: 1.4"/>
      </g>
     </g>
     <g id="text_18">
      <!-- 6 -->
      <g transform="translate(270.492943 14.038594) scale(0.09 -0.09)">
       <defs>
        <path id="DejaVuSans-36" d="M 2113 2584 
Q 1688 2584 1439 2293 
Q 1191 2003 1191 1497 
Q 1191 994 1439 701 
Q 1688 409 2113 409 
Q 2538 409 2786 701 
Q 3034 994 3034 1497 
Q 3034 2003 2786 2293 
Q 2538 2584 2113 2584 
z
M 3366 4563 
L 3366 3988 
Q 3128 4100 2886 4159 
Q 2644 4219 2406 4219 
Q 1781 4219 1451 3797 
Q 1122 3375 1075 2522 
Q 1259 2794 1537 2939 
Q 1816 3084 2150 3084 
Q 2853 3084 3261 2657 
Q 3669 2231 3669 1497 
Q 3669 778 3244 343 
Q 2819 -91 2113 -91 
Q 1303 -91 875 529 
Q 447 1150 447 2328 
Q 447 3434 972 4092 
Q 1497 4750 2381 4750 
Q 2619 4750 2861 4703 
Q 3103 4656 3366 4563 
z
" transform="scale(0.015625)"/>
       </defs>
       <use xlink:href="#DejaVuSans-36"/>
      </g>
     </g>
    </g>
   </g>
   <g id="line2d_21">
    <path d="M 287.195129 88.378638 
L 289.022041 88.233894 
L 290.848954 88.128086 
L 292.675867 87.989705 
L 294.502779 87.735442 
L 296.329692 87.305594 
L 298.156604 86.69472 
L 299.983517 85.962535 
L 301.81043 85.216498 
L 303.637342 84.570442 
L 305.464255 84.097549 
L 307.291167 83.801426 
L 309.11808 83.619451 
L 310.944992 83.45319 
L 312.771905 83.205576 
L 314.598818 82.804937 
L 316.42573 82.209791 
L 318.252643 81.402889 
L 320.079555 80.386896 
L 321.906468 79.186747 
L 323.733381 77.854118 
L 325.560293 76.466374 
L 327.387206 75.116765 
L 329.214118 73.898209 
L 331.041031 72.884787 
L 332.867943 72.113705 
L 334.694856 71.570492 
L 336.521769 71.183023 
L 338.348681 70.832392 
L 340.175594 70.385416 
L 342.002506 69.742973 
L 343.829419 68.885269 
L 345.656332 67.889016 
L 347.483244 66.901003 
L 349.310157 66.076633 
L 351.137069 65.517037 
L 352.963982 65.244522 
L 354.790894 65.233655 
L 356.617807 65.476071 
L 358.44472 66.030121 
L 360.271632 67.014583 
L 362.098545 68.545026 
L 363.925457 70.652593 
L 365.75237 73.237113 
L 367.579283 76.08267 
L 369.406195 78.924326 
L 371.233108 81.527866 
L 373.06002 83.744624 
L 374.886933 85.524174 
L 376.713845 86.891893 
" clip-path="url(#pdc17ec8d27)" style="fill: none; stroke: #ff0000; stroke-width: 2; stroke-linecap: square"/>
   </g>
   <g id="line2d_22">
    <path d="M 287.195129 87.944297 
L 289.022041 87.564033 
L 290.848954 87.191686 
L 292.675867 86.820636 
L 294.502779 86.440584 
L 296.329692 86.041155 
L 298.156604 85.612901 
L 299.983517 85.146869 
L 301.81043 84.63505 
L 303.637342 84.072794 
L 305.464255 83.461929 
L 307.291167 82.81217 
L 309.11808 82.139346 
L 310.944992 81.461152 
L 312.771905 80.792708 
L 314.598818 80.14417 
L 316.42573 79.521371 
L 318.252643 78.928843 
L 320.079555 78.37348 
L 321.906468 77.866473 
L 323.733381 77.421177 
L 325.560293 77.04576 
L 327.387206 76.73248 
L 329.214118 76.449315 
L 331.041031 76.141441 
L 332.867943 75.746647 
L 334.694856 75.220254 
L 336.521769 74.556765 
L 338.348681 73.794289 
L 340.175594 72.996696 
L 342.002506 72.222397 
L 343.829419 71.497745 
L 345.656332 70.810472 
L 347.483244 70.126201 
L 349.310157 69.417931 
L 351.137069 68.692779 
L 352.963982 68.003973 
L 354.790894 67.444626 
L 356.617807 67.127557 
L 358.44472 67.159481 
L 360.271632 67.618301 
L 362.098545 68.53971 
L 363.925457 69.914589 
L 365.75237 71.693923 
L 367.579283 73.795881 
L 369.406195 76.112044 
L 371.233108 78.514254 
L 373.06002 80.865842 
L 374.886933 83.038611 
L 376.713845 84.931905 
" clip-path="url(#pdc17ec8d27)" style="fill: none; stroke: #0000ff; stroke-width: 2; stroke-linecap: square"/>
   </g>
   <g id="line2d_23">
    <path d="M 287.195129 90.083984 
L 289.022041 90.083982 
L 290.848954 90.083823 
L 292.675867 90.079034 
L 294.502779 90.024918 
L 296.329692 89.809911 
L 298.156604 89.589384 
L 299.983517 89.735387 
L 301.81043 89.963031 
L 303.637342 89.894949 
L 305.464255 89.549146 
L 307.291167 89.151677 
L 309.11808 88.779327 
L 310.944992 88.383804 
L 312.771905 87.351161 
L 314.598818 85.898109 
L 316.42573 84.909431 
L 318.252643 82.529085 
L 320.079555 74.226062 
L 321.906468 61.203851 
L 323.733381 46.459204 
L 325.560293 31.396352 
L 327.387206 21.206955 
L 329.214118 16.32078 
L 331.041031 16.177731 
L 332.867943 20.346856 
L 334.694856 32.381381 
L 336.521769 48.007178 
L 338.348681 57.522408 
L 340.175594 65.645649 
L 342.002506 75.771351 
L 343.829419 82.608362 
L 345.656332 85.934078 
L 347.483244 87.583917 
L 349.310157 88.219601 
L 351.137069 88.454977 
L 352.963982 89.104688 
L 354.790894 89.797072 
L 356.617807 90.047194 
L 358.44472 90.08201 
L 360.271632 90.083941 
L 362.098545 90.083984 
L 363.925457 90.083984 
L 365.75237 90.083984 
L 367.579283 90.083984 
L 369.406195 90.083984 
L 371.233108 90.083984 
L 373.06002 90.083984 
L 374.886933 90.083984 
L 376.713845 90.083984 
" clip-path="url(#pdc17ec8d27)" style="fill: none; stroke: #808080; stroke-width: 2; stroke-linecap: square"/>
   </g>
   <g id="patch_9">
    <path d="M 282.719193 93.779297 
L 282.719193 10.619297 
" style="fill: none; stroke: #000000; stroke-width: 1.2; stroke-linejoin: miter; stroke-linecap: square"/>
   </g>
   <g id="patch_10">
    <path d="M 282.719193 93.779297 
L 381.189781 93.779297 
" style="fill: none; stroke: #000000; stroke-width: 1.2; stroke-linejoin: miter; stroke-linecap: square"/>
   </g>
   <g id="legend_1">
    <g id="line2d_24">
     <path d="M 394.128605 40.349734 
L 404.128605 40.349734 
L 414.128605 40.349734 
" style="fill: none; stroke: #ff0000; stroke-width: 2; stroke-linecap: square"/>
    </g>
    <g id="text_19">
     <!-- leftbias -->
     <g transform="translate(422.128605 43.849734) scale(0.1 -0.1)">
      <defs>
       <path id="DejaVuSans-66" d="M 2375 4863 
L 2375 4384 
L 1825 4384 
Q 1516 4384 1395 4259 
Q 1275 4134 1275 3809 
L 1275 3500 
L 2222 3500 
L 2222 3053 
L 1275 3053 
L 1275 0 
L 697 0 
L 697 3053 
L 147 3053 
L 147 3500 
L 697 3500 
L 697 3744 
Q 697 4328 969 4595 
Q 1241 4863 1831 4863 
L 2375 4863 
z
" transform="scale(0.015625)"/>
      </defs>
      <use xlink:href="#DejaVuSans-6c"/>
      <use xlink:href="#DejaVuSans-65" transform="translate(27.783203 0)"/>
      <use xlink:href="#DejaVuSans-66" transform="translate(89.306641 0)"/>
      <use xlink:href="#DejaVuSans-74" transform="translate(122.761719 0)"/>
      <use xlink:href="#DejaVuSans-62" transform="translate(161.970703 0)"/>
      <use xlink:href="#DejaVuSans-69" transform="translate(225.447266 0)"/>
      <use xlink:href="#DejaVuSans-61" transform="translate(253.230469 0)"/>
      <use xlink:href="#DejaVuSans-73" transform="translate(314.509766 0)"/>
     </g>
    </g>
    <g id="line2d_25">
     <path d="M 394.128605 55.027859 
L 404.128605 55.027859 
L 414.128605 55.027859 
" style="fill: none; stroke: #0000ff; stroke-width: 2; stroke-linecap: square"/>
    </g>
    <g id="text_20">
     <!-- rightbias -->
     <g transform="translate(422.128605 58.527859) scale(0.1 -0.1)">
      <use xlink:href="#DejaVuSans-72"/>
      <use xlink:href="#DejaVuSans-69" transform="translate(41.113281 0)"/>
      <use xlink:href="#DejaVuSans-67" transform="translate(68.896484 0)"/>
      <use xlink:href="#DejaVuSans-68" transform="translate(132.373047 0)"/>
      <use xlink:href="#DejaVuSans-74" transform="translate(195.751953 0)"/>
      <use xlink:href="#DejaVuSans-62" transform="translate(234.960938 0)"/>
      <use xlink:href="#DejaVuSans-69" transform="translate(298.4375 0)"/>
      <use xlink:href="#DejaVuSans-61" transform="translate(326.220703 0)"/>
      <use xlink:href="#DejaVuSans-73" transform="translate(387.5 0)"/>
     </g>
    </g>
    <g id="line2d_26">
     <path d="M 394.128605 69.705984 
L 404.128605 69.705984 
L 414.128605 69.705984 
" style="fill: none; stroke: #808080; stroke-width: 2; stroke-linecap: square"/>
    </g>
    <g id="text_21">
     <!-- stochastic -->
     <g transform="translate(422.128605 73.205984) scale(0.1 -0.1)">
      <use xlink:href="#DejaVuSans-73"/>
      <use xlink:href="#DejaVuSans-74" transform="translate(52.099609 0)"/>
      <use xlink:href="#DejaVuSans-6f" transform="translate(91.308594 0)"/>
      <use xlink:href="#DejaVuSans-63" transform="translate(152.490234 0)"/>
      <use xlink:href="#DejaVuSans-68" transform="translate(207.470703 0)"/>
      <use xlink:href="#DejaVuSans-61" transform="translate(270.849609 0)"/>
      <use xlink:href="#DejaVuSans-73" transform="translate(332.128906 0)"/>
      <use xlink:href="#DejaVuSans-74" transform="translate(384.228516 0)"/>
      <use xlink:href="#DejaVuSans-69" transform="translate(423.4375 0)"/>
      <use xlink:href="#DejaVuSans-63" transform="translate(451.220703 0)"/>
     </g>
    </g>
   </g>
  </g>
 </g>
 <defs>
  <clipPath id="pedbdd50c48">
   <rect x="46.389781" y="10.619297" width="98.470588" height="83.16"/>
  </clipPath>
  <clipPath id="p327573b411">
   <rect x="164.554487" y="10.619297" width="98.470588" height="83.16"/>
  </clipPath>
  <clipPath id="pdc17ec8d27">
   <rect x="282.719193" y="10.619297" width="98.470588" height="83.16"/>
  </clipPath>
 </defs>
</svg>
