<?xml version="1.0" encoding="utf-8" standalone="no"?>
<!DOCTYPE svg PUBLIC "-//W3C//DTD SVG 1.1//EN"
  "http://www.w3.org/Graphics/SVG/1.1/DTD/svg11.dtd">
<svg xmlns:xlink="http://www.w3.org/1999/xlink" width="513.914687pt" height="138.938369pt" viewBox="0 0 513.914687 138.938369" xmlns="http://www.w3.org/2000/svg" version="1.1">
 <metadata>
  <rdf:RDF xmlns:dc="http://purl.org/dc/elements/1.1/" xmlns:cc="http://creativecommons.org/ns#" xmlns:rdf="http://www.w3.org/1999/02/22-rdf-syntax-ns#">
   <cc:Work>
    <dc:type rdf:resource="http://purl.org/dc/dcmitype/StillImage"/>
    <dc:date>2026-04-14T16:54:09.474381</dc:date>
    <dc:format>image/svg+xml</dc:format>
    <dc:creator>
     <cc:Agent>
      <dc:title>Matplotlib v3.10.8, https://matplotlib.org/</dc:title>
     </cc:Agent>
    </dc:creator>
   </cc:Work>
  </rdf:RDF>
 </metadata>
 <defs>
  <style type="text/css">*{stroke-linejoin: round; stroke-linecap: butt}</style>
 </defs>
 <g id="figure_1">
  <g id="patch_1">
   <path d="M 0 138.938369 
L 513.914687 138.938369 
L 513.914687 0 
L 0 0 
L 0 138.938369 
z
" style="fill: none"/>
  </g>
  <g id="axes_1">
   <g id="patch_2">
    <path d="M 60.314688 93.728681 
L 506.714687 93.728681 
L 506.714687 10.568681 
L 60.314688 10.568681 
L 60.314688 93.728681 
z
" style="fill: none"/>
   </g>
   <g id="matplotlib.axis_1">
    <g id="xtick_1">
     <g id="line2d_1">
      <defs>
       <path id="m3a12b30e64" d="M 0 0 
L 0 8.25 
" style="stroke: #000000; stroke-width: 1.4"/>
      </defs>
      <g>
       <use xlink:href="#m3a12b30e64" x="80.605597" y="93.728681" style="stroke: #000000; stroke-width: 1.4"/>
      </g>
     </g>
     <g id="text_1">
      <!-- 1 -->
      <g transform="translate(76.788097 114.596806) scale(0.12 -0.12)">
       <defs>
        <path id="DejaVuSans-31" d="M 794 531 
L 1825 531 
L 1825 4091 
L 703 3866 
L 703 4441 
L 1819 4666 
L 2450 4666 
L 2450 531 
L 3481 531 
L 3481 0 
L 794 0 
L 794 531 
z
" transform="scale(0.015625)"/>
       </defs>
       <use xlink:href="#DejaVuSans-31"/>
      </g>
     </g>
    </g>
    <g id="xtick_2">
     <g id="line2d_2">
      <g>
       <use xlink:href="#m3a12b30e64" x="184.958843" y="93.728681" style="stroke: #000000; stroke-width: 1.4"/>
      </g>
     </g>
     <g id="text_2">
      <!-- 10 -->
      <g transform="translate(177.323843 114.596806) scale(0.12 -0.12)">
       <defs>
        <path id="DejaVuSans-30" d="M 2034 4250 
Q 1547 4250 1301 3770 
Q 1056 3291 1056 2328 
Q 1056 1369 1301 889 
Q 1547 409 2034 409 
Q 2525 409 2770 889 
Q 3016 1369 3016 2328 
Q 3016 3291 2770 3770 
Q 2525 4250 2034 4250 
z
M 2034 4750 
Q 2819 4750 3233 4129 
Q 3647 3509 3647 2328 
Q 3647 1150 3233 529 
Q 2819 -91 2034 -91 
Q 1250 -91 836 529 
Q 422 1150 422 2328 
Q 422 3509 836 4129 
Q 1250 4750 2034 4750 
z
" transform="scale(0.015625)"/>
       </defs>
       <use xlink:href="#DejaVuSans-31"/>
       <use xlink:href="#DejaVuSans-30" transform="translate(63.623047 0)"/>
      </g>
     </g>
    </g>
    <g id="xtick_3">
     <g id="line2d_3">
      <g>
       <use xlink:href="#m3a12b30e64" x="300.906895" y="93.728681" style="stroke: #000000; stroke-width: 1.4"/>
      </g>
     </g>
     <g id="text_3">
      <!-- 20 -->
      <g transform="translate(293.271895 114.596806) scale(0.12 -0.12)">
       <defs>
        <path id="DejaVuSans-32" d="M 1228 531 
L 3431 531 
L 3431 0 
L 469 0 
L 469 531 
Q 828 903 1448 1529 
Q 2069 2156 2228 2338 
Q 2531 2678 2651 2914 
Q 2772 3150 2772 3378 
Q 2772 3750 2511 3984 
Q 2250 4219 1831 4219 
Q 1534 4219 1204 4116 
Q 875 4013 500 3803 
L 500 4441 
Q 881 4594 1212 4672 
Q 1544 4750 1819 4750 
Q 2544 4750 2975 4387 
Q 3406 4025 3406 3419 
Q 3406 3131 3298 2873 
Q 3191 2616 2906 2266 
Q 2828 2175 2409 1742 
Q 1991 1309 1228 531 
z
" transform="scale(0.015625)"/>
       </defs>
       <use xlink:href="#DejaVuSans-32"/>
       <use xlink:href="#DejaVuSans-30" transform="translate(63.623047 0)"/>
      </g>
     </g>
    </g>
    <g id="xtick_4">
     <g id="line2d_4">
      <g>
       <use xlink:href="#m3a12b30e64" x="416.854947" y="93.728681" style="stroke: #000000; stroke-width: 1.4"/>
      </g>
     </g>
     <g id="text_4">
      <!-- 30 -->
      <g transform="translate(409.219947 114.596806) scale(0.12 -0.12)">
       <defs>
        <path id="DejaVuSans-33" d="M 2597 2516 
Q 3050 2419 3304 2112 
Q 3559 1806 3559 1356 
Q 3559 666 3084 287 
Q 2609 -91 1734 -91 
Q 1441 -91 1130 -33 
Q 819 25 488 141 
L 488 750 
Q 750 597 1062 519 
Q 1375 441 1716 441 
Q 2309 441 2620 675 
Q 2931 909 2931 1356 
Q 2931 1769 2642 2001 
Q 2353 2234 1838 2234 
L 1294 2234 
L 1294 2753 
L 1863 2753 
Q 2328 2753 2575 2939 
Q 2822 3125 2822 3475 
Q 2822 3834 2567 4026 
Q 2313 4219 1838 4219 
Q 1578 4219 1281 4162 
Q 984 4106 628 3988 
L 628 4550 
Q 988 4650 1302 4700 
Q 1616 4750 1894 4750 
Q 2613 4750 3031 4423 
Q 3450 4097 3450 3541 
Q 3450 3153 3228 2886 
Q 3006 2619 2597 2516 
z
" transform="scale(0.015625)"/>
       </defs>
       <use xlink:href="#DejaVuSans-33"/>
       <use xlink:href="#DejaVuSans-30" transform="translate(63.623047 0)"/>
      </g>
     </g>
    </g>
    <g id="text_5">
     <!-- Sessions -->
     <g transform="translate(259.664453 129.450713) scale(0.11 -0.11)">
      <defs>
       <path id="DejaVuSans-53" d="M 3425 4513 
L 3425 3897 
Q 3066 4069 2747 4153 
Q 2428 4238 2131 4238 
Q 1616 4238 1336 4038 
Q 1056 3838 1056 3469 
Q 1056 3159 1242 3001 
Q 1428 2844 1947 2747 
L 2328 2669 
Q 3034 2534 3370 2195 
Q 3706 1856 3706 1288 
Q 3706 609 3251 259 
Q 2797 -91 1919 -91 
Q 1588 -91 1214 -16 
Q 841 59 441 206 
L 441 856 
Q 825 641 1194 531 
Q 1563 422 1919 422 
Q 2459 422 2753 634 
Q 3047 847 3047 1241 
Q 3047 1584 2836 1778 
Q 2625 1972 2144 2069 
L 1759 2144 
Q 1053 2284 737 2584 
Q 422 2884 422 3419 
Q 422 4038 858 4394 
Q 1294 4750 2059 4750 
Q 2388 4750 2728 4690 
Q 3069 4631 3425 4513 
z
" transform="scale(0.015625)"/>
       <path id="DejaVuSans-65" d="M 3597 1894 
L 3597 1613 
L 953 1613 
Q 991 1019 1311 708 
Q 1631 397 2203 397 
Q 2534 397 2845 478 
Q 3156 559 3463 722 
L 3463 178 
Q 3153 47 2828 -22 
Q 2503 -91 2169 -91 
Q 1331 -91 842 396 
Q 353 884 353 1716 
Q 353 2575 817 3079 
Q 1281 3584 2069 3584 
Q 2775 3584 3186 3129 
Q 3597 2675 3597 1894 
z
M 3022 2063 
Q 3016 2534 2758 2815 
Q 2500 3097 2075 3097 
Q 1594 3097 1305 2825 
Q 1016 2553 972 2059 
L 3022 2063 
z
" transform="scale(0.015625)"/>
       <path id="DejaVuSans-73" d="M 2834 3397 
L 2834 2853 
Q 2591 2978 2328 3040 
Q 2066 3103 1784 3103 
Q 1356 3103 1142 2972 
Q 928 2841 928 2578 
Q 928 2378 1081 2264 
Q 1234 2150 1697 2047 
L 1894 2003 
Q 2506 1872 2764 1633 
Q 3022 1394 3022 966 
Q 3022 478 2636 193 
Q 2250 -91 1575 -91 
Q 1294 -91 989 -36 
Q 684 19 347 128 
L 347 722 
Q 666 556 975 473 
Q 1284 391 1588 391 
Q 1994 391 2212 530 
Q 2431 669 2431 922 
Q 2431 1156 2273 1281 
Q 2116 1406 1581 1522 
L 1381 1569 
Q 847 1681 609 1914 
Q 372 2147 372 2553 
Q 372 3047 722 3315 
Q 1072 3584 1716 3584 
Q 2034 3584 2315 3537 
Q 2597 3491 2834 3397 
z
" transform="scale(0.015625)"/>
       <path id="DejaVuSans-69" d="M 603 3500 
L 1178 3500 
L 1178 0 
L 603 0 
L 603 3500 
z
M 603 4863 
L 1178 4863 
L 1178 4134 
L 603 4134 
L 603 4863 
z
" transform="scale(0.015625)"/>
       <path id="DejaVuSans-6f" d="M 1959 3097 
Q 1497 3097 1228 2736 
Q 959 2375 959 1747 
Q 959 1119 1226 758 
Q 1494 397 1959 397 
Q 2419 397 2687 759 
Q 2956 1122 2956 1747 
Q 2956 2369 2687 2733 
Q 2419 3097 1959 3097 
z
M 1959 3584 
Q 2709 3584 3137 3096 
Q 3566 2609 3566 1747 
Q 3566 888 3137 398 
Q 2709 -91 1959 -91 
Q 1206 -91 779 398 
Q 353 888 353 1747 
Q 353 2609 779 3096 
Q 1206 3584 1959 3584 
z
" transform="scale(0.015625)"/>
       <path id="DejaVuSans-6e" d="M 3513 2113 
L 3513 0 
L 2938 0 
L 2938 2094 
Q 2938 2591 2744 2837 
Q 2550 3084 2163 3084 
Q 1697 3084 1428 2787 
Q 1159 2491 1159 1978 
L 1159 0 
L 581 0 
L 581 3500 
L 1159 3500 
L 1159 2956 
Q 1366 3272 1645 3428 
Q 1925 3584 2291 3584 
Q 2894 3584 3203 3211 
Q 3513 2838 3513 2113 
z
" transform="scale(0.015625)"/>
      </defs>
      <use xlink:href="#DejaVuSans-53"/>
      <use xlink:href="#DejaVuSans-65" transform="translate(63.476562 0)"/>
      <use xlink:href="#DejaVuSans-73" transform="translate(125 0)"/>
      <use xlink:href="#DejaVuSans-73" transform="translate(177.099609 0)"/>
      <use xlink:href="#DejaVuSans-69" transform="translate(229.199219 0)"/>
      <use xlink:href="#DejaVuSans-6f" transform="translate(256.982422 0)"/>
      <use xlink:href="#DejaVuSans-6e" transform="translate(318.164062 0)"/>
      <use xlink:href="#DejaVuSans-73" transform="translate(381.542969 0)"/>
     </g>
    </g>
   </g>
   <g id="matplotlib.axis_2">
    <g id="ytick_1">
     <g id="line2d_5">
      <defs>
       <path id="m11757c30af" d="M 0 0 
L -8.25 0 
" style="stroke: #000000; stroke-width: 1.4"/>
      </defs>
      <g>
       <use xlink:href="#m11757c30af" x="60.314688" y="66.008681" style="stroke: #000000; stroke-width: 1.4"/>
      </g>
     </g>
     <g id="text_6">
      <!-- 0.25 -->
      <g transform="translate(21.845938 70.567744) scale(0.12 -0.12)">
       <defs>
        <path id="DejaVuSans-2e" d="M 684 794 
L 1344 794 
L 1344 0 
L 684 0 
L 684 794 
z
" transform="scale(0.015625)"/>
        <path id="DejaVuSans-35" d="M 691 4666 
L 3169 4666 
L 3169 4134 
L 1269 4134 
L 1269 2991 
Q 1406 3038 1543 3061 
Q 1681 3084 1819 3084 
Q 2600 3084 3056 2656 
Q 3513 2228 3513 1497 
Q 3513 744 3044 326 
Q 2575 -91 1722 -91 
Q 1428 -91 1123 -41 
Q 819 9 494 109 
L 494 744 
Q 775 591 1075 516 
Q 1375 441 1709 441 
Q 2250 441 2565 725 
Q 2881 1009 2881 1497 
Q 2881 1984 2565 2268 
Q 2250 2553 1709 2553 
Q 1456 2553 1204 2497 
Q 953 2441 691 2322 
L 691 4666 
z
" transform="scale(0.015625)"/>
       </defs>
       <use xlink:href="#DejaVuSans-30"/>
       <use xlink:href="#DejaVuSans-2e" transform="translate(63.623047 0)"/>
       <use xlink:href="#DejaVuSans-32" transform="translate(95.410156 0)"/>
       <use xlink:href="#DejaVuSans-35" transform="translate(159.033203 0)"/>
      </g>
     </g>
    </g>
    <g id="ytick_2">
     <g id="line2d_6">
      <g>
       <use xlink:href="#m11757c30af" x="60.314688" y="19.808681" style="stroke: #000000; stroke-width: 1.4"/>
      </g>
     </g>
     <g id="text_7">
      <!-- 0.50 -->
      <g transform="translate(21.845938 24.367744) scale(0.12 -0.12)">
       <use xlink:href="#DejaVuSans-30"/>
       <use xlink:href="#DejaVuSans-2e" transform="translate(63.623047 0)"/>
       <use xlink:href="#DejaVuSans-35" transform="translate(95.410156 0)"/>
       <use xlink:href="#DejaVuSans-30" transform="translate(159.033203 0)"/>
      </g>
     </g>
    </g>
    <g id="text_8">
     <!-- Reward rate -->
     <g transform="translate(15.558281 85.551728) rotate(-90) scale(0.11 -0.11)">
      <defs>
       <path id="DejaVuSans-52" d="M 2841 2188 
Q 3044 2119 3236 1894 
Q 3428 1669 3622 1275 
L 4263 0 
L 3584 0 
L 2988 1197 
Q 2756 1666 2539 1819 
Q 2322 1972 1947 1972 
L 1259 1972 
L 1259 0 
L 628 0 
L 628 4666 
L 2053 4666 
Q 2853 4666 3247 4331 
Q 3641 3997 3641 3322 
Q 3641 2881 3436 2590 
Q 3231 2300 2841 2188 
z
M 1259 4147 
L 1259 2491 
L 2053 2491 
Q 2509 2491 2742 2702 
Q 2975 2913 2975 3322 
Q 2975 3731 2742 3939 
Q 2509 4147 2053 4147 
L 1259 4147 
z
" transform="scale(0.015625)"/>
       <path id="DejaVuSans-77" d="M 269 3500 
L 844 3500 
L 1563 769 
L 2278 3500 
L 2956 3500 
L 3675 769 
L 4391 3500 
L 4966 3500 
L 4050 0 
L 3372 0 
L 2619 2869 
L 1863 0 
L 1184 0 
L 269 3500 
z
" transform="scale(0.015625)"/>
       <path id="DejaVuSans-61" d="M 2194 1759 
Q 1497 1759 1228 1600 
Q 959 1441 959 1056 
Q 959 750 1161 570 
Q 1363 391 1709 391 
Q 2188 391 2477 730 
Q 2766 1069 2766 1631 
L 2766 1759 
L 2194 1759 
z
M 3341 1997 
L 3341 0 
L 2766 0 
L 2766 531 
Q 2569 213 2275 61 
Q 1981 -91 1556 -91 
Q 1019 -91 701 211 
Q 384 513 384 1019 
Q 384 1609 779 1909 
Q 1175 2209 1959 2209 
L 2766 2209 
L 2766 2266 
Q 2766 2663 2505 2880 
Q 2244 3097 1772 3097 
Q 1472 3097 1187 3025 
Q 903 2953 641 2809 
L 641 3341 
Q 956 3463 1253 3523 
Q 1550 3584 1831 3584 
Q 2591 3584 2966 3190 
Q 3341 2797 3341 1997 
z
" transform="scale(0.015625)"/>
       <path id="DejaVuSans-72" d="M 2631 2963 
Q 2534 3019 2420 3045 
Q 2306 3072 2169 3072 
Q 1681 3072 1420 2755 
Q 1159 2438 1159 1844 
L 1159 0 
L 581 0 
L 581 3500 
L 1159 3500 
L 1159 2956 
Q 1341 3275 1631 3429 
Q 1922 3584 2338 3584 
Q 2397 3584 2469 3576 
Q 2541 3569 2628 3553 
L 2631 2963 
z
" transform="scale(0.015625)"/>
       <path id="DejaVuSans-64" d="M 2906 2969 
L 2906 4863 
L 3481 4863 
L 3481 0 
L 2906 0 
L 2906 525 
Q 2725 213 2448 61 
Q 2172 -91 1784 -91 
Q 1150 -91 751 415 
Q 353 922 353 1747 
Q 353 2572 751 3078 
Q 1150 3584 1784 3584 
Q 2172 3584 2448 3432 
Q 2725 3281 2906 2969 
z
M 947 1747 
Q 947 1113 1208 752 
Q 1469 391 1925 391 
Q 2381 391 2643 752 
Q 2906 1113 2906 1747 
Q 2906 2381 2643 2742 
Q 2381 3103 1925 3103 
Q 1469 3103 1208 2742 
Q 947 2381 947 1747 
z
" transform="scale(0.015625)"/>
       <path id="DejaVuSans-20" transform="scale(0.015625)"/>
       <path id="DejaVuSans-74" d="M 1172 4494 
L 1172 3500 
L 2356 3500 
L 2356 3053 
L 1172 3053 
L 1172 1153 
Q 1172 725 1289 603 
Q 1406 481 1766 481 
L 2356 481 
L 2356 0 
L 1766 0 
Q 1100 0 847 248 
Q 594 497 594 1153 
L 594 3053 
L 172 3053 
L 172 3500 
L 594 3500 
L 594 4494 
L 1172 4494 
z
" transform="scale(0.015625)"/>
      </defs>
      <use xlink:href="#DejaVuSans-52"/>
      <use xlink:href="#DejaVuSans-65" transform="translate(64.982422 0)"/>
      <use xlink:href="#DejaVuSans-77" transform="translate(126.505859 0)"/>
      <use xlink:href="#DejaVuSans-61" transform="translate(208.292969 0)"/>
      <use xlink:href="#DejaVuSans-72" transform="translate(269.572266 0)"/>
      <use xlink:href="#DejaVuSans-64" transform="translate(308.935547 0)"/>
      <use xlink:href="#DejaVuSans-20" transform="translate(372.412109 0)"/>
      <use xlink:href="#DejaVuSans-72" transform="translate(404.199219 0)"/>
      <use xlink:href="#DejaVuSans-61" transform="translate(445.3125 0)"/>
      <use xlink:href="#DejaVuSans-74" transform="translate(506.591797 0)"/>
      <use xlink:href="#DejaVuSans-65" transform="translate(545.800781 0)"/>
     </g>
    </g>
   </g>
   <g id="line2d_7">
    <path d="M 80.605597 38.712697 
L 92.200402 47.507537 
L 103.795207 74.380493 
L 115.390012 32.397884 
L 126.984817 36.813559 
L 138.579623 25.006181 
L 150.174428 39.738093 
L 161.769233 36.025824 
L 173.364038 24.303816 
L 184.958843 38.697079 
L 196.553649 28.859251 
L 208.148454 30.341324 
L 219.743259 21.381447 
L 231.338064 29.693332 
L 242.932869 26.543375 
L 254.527675 28.359129 
L 266.12248 31.008681 
L 277.717285 23.885152 
L 289.31209 34.465233 
L 300.906895 25.111638 
" clip-path="url(#p0d19e92882)" style="fill: none; stroke: #808080; stroke-opacity: 0.3; stroke-width: 0.5; stroke-linecap: square"/>
   </g>
   <g id="line2d_8">
    <path d="M 80.605597 59.942015 
L 92.200402 54.892892 
L 103.795207 45.880916 
L 115.390012 32.963935 
L 126.984817 43.505067 
L 138.579623 64.135708 
L 150.174428 39.707847 
L 161.769233 20.018205 
L 173.364038 19.429993 
L 184.958843 37.816349 
L 196.553649 32.40062 
L 208.148454 25.993671 
L 219.743259 28.484738 
L 231.338064 26.422998 
L 242.932869 27.873519 
L 254.527675 31.200462 
L 266.12248 19.580533 
L 277.717285 28.277113 
L 289.31209 26.359428 
L 300.906895 30.707143 
" clip-path="url(#p0d19e92882)" style="fill: none; stroke: #808080; stroke-opacity: 0.3; stroke-width: 0.5; stroke-linecap: square"/>
   </g>
   <g id="line2d_9">
    <path d="M 80.605597 52.221247 
L 92.200402 57.405923 
L 103.795207 57.776681 
L 115.390012 57.648681 
L 126.984817 38.762527 
L 138.579623 42.345267 
L 150.174428 32.865203 
L 161.769233 52.808681 
L 173.364038 38.512005 
L 184.958843 63.876374 
L 196.553649 38.809245 
L 208.148454 33.106098 
L 219.743259 42.005329 
L 231.338064 46.323464 
L 242.932869 30.868141 
L 254.527675 38.589169 
L 266.12248 19.324912 
L 277.717285 45.58011 
L 289.31209 41.520157 
L 300.906895 29.596817 
L 312.5017 25.206619 
L 324.096506 24.916219 
L 335.691311 36.814816 
L 347.286116 39.928036 
L 358.880921 27.820242 
L 370.475726 33.084543 
" clip-path="url(#p0d19e92882)" style="fill: none; stroke: #808080; stroke-opacity: 0.3; stroke-width: 0.5; stroke-linecap: square"/>
   </g>
   <g id="line2d_10">
    <path d="M 80.605597 69.739116 
L 92.200402 68.377912 
L 103.795207 70.886942 
L 115.390012 77.558681 
L 126.984817 39.364237 
L 138.579623 59.465334 
L 150.174428 41.021133 
L 161.769233 36.999379 
L 173.364038 35.878246 
L 184.958843 22.177912 
L 196.553649 26.073088 
L 208.148454 31.701751 
L 219.743259 23.108681 
L 231.338064 22.877316 
L 242.932869 35.833774 
L 254.527675 15.226863 
L 266.12248 47.598155 
L 277.717285 29.98997 
L 289.31209 31.090077 
L 300.906895 23.026592 
L 312.5017 39.767081 
L 324.096506 32.295168 
L 335.691311 48.154498 
L 347.286116 34.108681 
L 358.880921 30.718561 
L 370.475726 43.012269 
" clip-path="url(#p0d19e92882)" style="fill: none; stroke: #808080; stroke-opacity: 0.3; stroke-width: 0.5; stroke-linecap: square"/>
   </g>
   <g id="line2d_11">
    <path d="M 80.605597 44.756681 
L 92.200402 60.59787 
L 103.795207 44.685604 
L 115.390012 36.576249 
L 126.984817 41.192121 
L 138.579623 38.437714 
L 150.174428 31.701751 
L 161.769233 15.110376 
L 173.364038 30.368681 
L 184.958843 43.932819 
L 196.553649 38.396436 
L 208.148454 24.916219 
L 219.743259 29.152501 
L 231.338064 33.833681 
L 242.932869 31.312296 
L 254.527675 41.726821 
L 266.12248 39.206424 
L 277.717285 41.434213 
L 289.31209 28.49056 
L 300.906895 32.72481 
L 312.5017 35.634096 
L 324.096506 29.008681 
L 335.691311 27.186628 
L 347.286116 34.351054 
L 358.880921 32.846718 
L 370.475726 27.961622 
L 382.070532 28.444195 
" clip-path="url(#p0d19e92882)" style="fill: none; stroke: #808080; stroke-opacity: 0.3; stroke-width: 0.5; stroke-linecap: square"/>
   </g>
   <g id="line2d_12">
    <path d="M 80.605597 39.692226 
L 92.200402 37.68278 
L 103.795207 28.208681 
L 115.390012 22.345152 
L 126.984817 26.608681 
L 138.579623 39.812805 
L 150.174428 38.733982 
L 161.769233 20.208681 
L 173.364038 28.124681 
L 184.958843 19.24181 
L 196.553649 22.608681 
L 208.148454 41.625348 
L 219.743259 24.671839 
L 231.338064 19.808681 
L 242.932869 33.256569 
L 254.527675 16.112681 
L 266.12248 36.290843 
L 277.717285 19.808681 
L 289.31209 13.00026 
L 300.906895 26.342015 
L 312.5017 20.87075 
L 324.096506 25.105497 
L 335.691311 15.162871 
L 347.286116 19.220146 
L 358.880921 30.960405 
L 370.475726 23.451692 
L 382.070532 20.188928 
L 393.665337 38.288681 
L 405.260142 17.715477 
" clip-path="url(#p0d19e92882)" style="fill: none; stroke: #808080; stroke-opacity: 0.3; stroke-width: 0.5; stroke-linecap: square"/>
   </g>
   <g id="line2d_13">
    <path d="M 80.605597 42.761547 
L 92.200402 45.898093 
L 103.795207 40.148304 
L 115.390012 38.150254 
L 126.984817 14.675348 
L 138.579623 31.024866 
L 150.174428 53.727669 
L 161.769233 41.912211 
L 173.364038 46.652718 
L 184.958843 47.418243 
L 196.553649 42.509027 
L 208.148454 27.300573 
L 219.743259 24.968072 
L 231.338064 40.186929 
L 242.932869 34.592681 
L 254.527675 29.45042 
L 266.12248 28.005455 
L 277.717285 34.302799 
L 289.31209 26.63981 
L 300.906895 34.711907 
L 312.5017 36.415133 
L 324.096506 25.119026 
L 335.691311 37.0358 
L 347.286116 29.390903 
L 358.880921 25.490235 
L 370.475726 17.659844 
L 382.070532 36.183365 
L 393.665337 23.180944 
" clip-path="url(#p0d19e92882)" style="fill: none; stroke: #808080; stroke-opacity: 0.3; stroke-width: 0.5; stroke-linecap: square"/>
   </g>
   <g id="line2d_14">
    <path d="M 80.605597 106.826157 
L 92.200402 31.766328 
L 103.795207 58.532333 
L 115.390012 64.997002 
L 126.984817 29.348504 
L 138.579623 28.823315 
L 150.174428 27.243164 
L 161.769233 28.624229 
L 173.364038 35.126328 
L 184.958843 19.808681 
L 196.553649 38.288681 
L 208.148454 33.283681 
L 219.743259 27.78566 
L 231.338064 54.551081 
L 242.932869 28.148031 
L 254.527675 37.529229 
L 266.12248 23.945995 
L 277.717285 36.263476 
L 289.31209 39.201274 
L 300.906895 53.788036 
L 312.5017 30.008681 
L 324.096506 28.947143 
L 335.691311 20.100164 
L 347.286116 51.093721 
L 358.880921 30.828865 
L 370.475726 35.921137 
L 382.070532 17.718184 
L 393.665337 37.332819 
L 405.260142 36.872096 
L 416.854947 33.960033 
L 428.449752 18.376123 
L 440.044558 32.813126 
L 451.639363 23.408681 
L 463.234168 34.471654 
L 474.828973 35.624897 
L 486.423778 29.022356 
" clip-path="url(#p0d19e92882)" style="fill: none; stroke: #808080; stroke-opacity: 0.3; stroke-width: 0.5; stroke-linecap: square"/>
   </g>
   <g id="line2d_15">
    <path d="M 80.605597 42.757701 
L 92.200402 47.610451 
L 103.795207 31.756957 
L 115.390012 52.420446 
L 126.984817 33.195254 
L 138.579623 47.557288 
L 150.174428 42.908681 
L 161.769233 47.024681 
L 173.364038 28.53939 
L 184.958843 27.971225 
L 196.553649 14.418681 
L 208.148454 25.201677 
L 219.743259 34.055377 
L 231.338064 26.88011 
L 242.932869 15.490924 
L 254.527675 37.133681 
L 266.12248 34.024066 
L 277.717285 21.244951 
L 289.31209 37.882527 
L 300.906895 38.288681 
L 312.5017 30.075348 
L 324.096506 21.585604 
L 335.691311 36.048681 
L 347.286116 22.393297 
L 358.880921 26.916374 
L 370.475726 32.364779 
L 382.070532 22.319551 
L 393.665337 12.853843 
L 405.260142 19.324912 
" clip-path="url(#p0d19e92882)" style="fill: none; stroke: #808080; stroke-opacity: 0.3; stroke-width: 0.5; stroke-linecap: square"/>
   </g>
   <g id="line2d_16">
    <path d="M 80.605597 47.858681 
L 92.200402 67.960794 
L 103.795207 52.041239 
L 115.390012 40.002059 
L 126.984817 48.834859 
L 138.579623 49.057602 
L 150.174428 49.660989 
L 161.769233 60.134454 
L 173.364038 47.563814 
L 184.958843 39.925286 
L 196.553649 37.133681 
L 208.148454 29.68349 
L 219.743259 27.27932 
L 231.338064 21.458681 
L 242.932869 24.977912 
L 254.527675 29.103356 
L 266.12248 33.683442 
L 277.717285 39.895638 
L 289.31209 33.724344 
L 300.906895 22.448681 
L 312.5017 26.476722 
L 324.096506 19.124237 
L 335.691311 24.092125 
L 347.286116 20.824066 
L 358.880921 26.661878 
L 370.475726 32.53443 
L 382.070532 18.25574 
L 393.665337 11.773899 
L 405.260142 25.79757 
L 416.854947 22.737788 
L 428.449752 17.742228 
L 440.044558 25.482365 
" clip-path="url(#p0d19e92882)" style="fill: none; stroke: #808080; stroke-opacity: 0.3; stroke-width: 0.5; stroke-linecap: square"/>
   </g>
   <g id="line2d_17">
    <path d="M 80.605597 40.010832 
L 92.200402 40.928681 
L 103.795207 45.848681 
L 115.390012 50.867505 
L 126.984817 55.019934 
L 138.579623 41.697989 
L 150.174428 43.61861 
L 161.769233 53.346459 
L 173.364038 62.276648 
L 184.958843 59.896066 
L 196.553649 45.543429 
L 208.148454 43.568681 
L 219.743259 34.75574 
L 231.338064 33.471839 
L 242.932869 32.263854 
L 254.527675 35.693427 
L 266.12248 32.038093 
L 277.717285 33.360681 
L 289.31209 23.892659 
L 300.906895 27.463119 
L 312.5017 26.964237 
L 324.096506 41.131758 
L 335.691311 34.325389 
L 347.286116 28.905054 
L 358.880921 31.286942 
L 370.475726 23.446477 
L 382.070532 62.262735 
L 393.665337 26.987629 
L 405.260142 27.760017 
L 416.854947 86.245045 
L 428.449752 29.899474 
L 440.044558 24.392493 
" clip-path="url(#p0d19e92882)" style="fill: none; stroke: #808080; stroke-opacity: 0.3; stroke-width: 0.5; stroke-linecap: square"/>
   </g>
   <g id="line2d_18">
    <path d="M 80.605597 57.268141 
L 92.200402 40.168003 
L 103.795207 46.521477 
L 115.390012 45.594728 
L 126.984817 43.697462 
L 138.579623 39.243368 
L 150.174428 43.623114 
L 161.769233 40.342015 
L 173.364038 48.258817 
L 184.958843 37.542015 
L 196.553649 29.200157 
L 208.148454 33.008681 
L 219.743259 41.513379 
L 231.338064 26.916374 
L 242.932869 24.467505 
L 254.527675 35.699127 
L 266.12248 25.626459 
L 277.717285 39.128681 
L 289.31209 22.084543 
L 300.906895 28.836267 
L 312.5017 39.39669 
L 324.096506 20.173899 
L 335.691311 21.429734 
L 347.286116 36.252749 
L 358.880921 26.292892 
L 370.475726 40.605262 
L 382.070532 21.187786 
L 393.665337 28.275614 
L 405.260142 19.150249 
" clip-path="url(#p0d19e92882)" style="fill: none; stroke: #808080; stroke-opacity: 0.3; stroke-width: 0.5; stroke-linecap: square"/>
   </g>
   <g id="line2d_19">
    <path d="M 80.605597 50.608681 
L 92.200402 77.762334 
L 103.795207 27.728681 
L 115.390012 47.93042 
L 126.984817 37.900989 
L 138.579623 46.422273 
L 150.174428 35.942015 
L 161.769233 49.159269 
L 173.364038 63.353509 
L 184.958843 49.608217 
L 196.553649 44.249972 
L 208.148454 40.133265 
L 219.743259 36.393297 
L 231.338064 41.100855 
L 242.932869 40.691653 
L 254.527675 29.048681 
L 266.12248 36.713122 
L 277.717285 36.492015 
L 289.31209 41.078115 
L 300.906895 41.066996 
L 312.5017 26.408681 
L 324.096506 30.737714 
L 335.691311 32.247143 
L 347.286116 33.454251 
L 358.880921 31.248681 
L 370.475726 24.603021 
L 382.070532 19.216374 
L 393.665337 33.066073 
" clip-path="url(#p0d19e92882)" style="fill: none; stroke: #808080; stroke-opacity: 0.3; stroke-width: 0.5; stroke-linecap: square"/>
   </g>
   <g id="line2d_20">
    <path d="M 80.605597 64.013863 
L 92.200402 36.365907 
L 103.795207 38.577431 
L 115.390012 31.465297 
L 126.984817 32.316978 
L 138.579623 23.939505 
L 150.174428 28.086647 
L 161.769233 36.455954 
L 173.364038 23.897177 
L 184.958843 51.189813 
L 196.553649 27.597187 
L 208.148454 25.465824 
L 219.743259 29.190835 
L 231.338064 34.968056 
L 242.932869 24.065592 
L 254.527675 32.012455 
L 266.12248 37.64026 
L 277.717285 31.799521 
L 289.31209 32.674504 
L 300.906895 26.129202 
L 312.5017 22.458144 
L 324.096506 30.929031 
L 335.691311 23.533057 
L 347.286116 29.885576 
L 358.880921 24.242462 
L 370.475726 26.694643 
L 382.070532 44.397772 
L 393.665337 33.096976 
L 405.260142 36.699004 
L 416.854947 27.001496 
L 428.449752 21.725694 
L 440.044558 33.108681 
L 451.639363 27.095747 
L 463.234168 22.800681 
" clip-path="url(#p0d19e92882)" style="fill: none; stroke: #808080; stroke-opacity: 0.3; stroke-width: 0.5; stroke-linecap: square"/>
   </g>
   <g id="line2d_21">
    <path d="M 80.605597 37.972784 
L 92.200402 41.206576 
L 103.795207 50.608681 
L 115.390012 45.796181 
L 126.984817 32.192186 
L 138.579623 38.098656 
L 150.174428 46.684028 
L 161.769233 35.425583 
L 173.364038 33.248681 
L 184.958843 23.354505 
L 196.553649 23.59945 
L 208.148454 26.181095 
L 219.743259 19.018938 
L 231.338064 33.485216 
L 242.932869 25.020989 
L 254.527675 40.038267 
L 266.12248 23.163137 
L 277.717285 21.727969 
L 289.31209 20.345891 
L 300.906895 31.692146 
L 312.5017 20.339716 
L 324.096506 26.149858 
L 335.691311 23.658681 
L 347.286116 31.412402 
L 358.880921 56.67293 
L 370.475726 23.419716 
L 382.070532 22.153859 
L 393.665337 29.661131 
L 405.260142 32.767218 
L 416.854947 17.149688 
L 428.449752 21.506319 
L 440.044558 16.052584 
" clip-path="url(#p0d19e92882)" style="fill: none; stroke: #808080; stroke-opacity: 0.3; stroke-width: 0.5; stroke-linecap: square"/>
   </g>
   <g id="line2d_22">
    <path d="M 80.605597 44.843164 
L 92.200402 41.131758 
L 103.795207 32.756452 
L 115.390012 35.765308 
L 126.984817 21.448918 
L 138.579623 33.519649 
L 150.174428 31.812307 
L 161.769233 25.616681 
L 173.364038 24.023418 
L 184.958843 45.645648 
L 196.553649 25.389889 
L 208.148454 36.497668 
L 219.743259 28.711007 
L 231.338064 28.337912 
L 242.932869 12.265824 
L 254.527675 24.008681 
L 266.12248 33.381563 
L 277.717285 24.382939 
L 289.31209 42.256139 
L 300.906895 19.255388 
L 312.5017 29.779904 
L 324.096506 30.151965 
L 335.691311 25.583681 
L 347.286116 32.901799 
L 358.880921 20.949422 
L 370.475726 22.019208 
L 382.070532 18.681852 
L 393.665337 38.091034 
" clip-path="url(#p0d19e92882)" style="fill: none; stroke: #808080; stroke-opacity: 0.3; stroke-width: 0.5; stroke-linecap: square"/>
   </g>
   <g id="line2d_23">
    <path d="M 80.605597 49.598845 
L 92.200402 33.615578 
L 103.795207 43.142015 
L 115.390012 49.314564 
L 126.984817 44.612221 
L 138.579623 45.92783 
L 150.174428 57.015081 
L 161.769233 49.459428 
L 173.364038 52.221247 
L 184.958843 44.917377 
L 196.553649 44.124471 
L 208.148454 47.264681 
L 219.743259 38.205997 
L 231.338064 27.882468 
L 242.932869 36.114564 
L 254.527675 52.041239 
L 266.12248 31.715898 
L 277.717285 26.971472 
L 289.31209 20.316374 
L 300.906895 30.13574 
L 312.5017 24.718826 
L 324.096506 23.902352 
L 335.691311 21.704066 
L 347.286116 22.305979 
L 358.880921 22.916938 
L 370.475726 21.672658 
L 382.070532 21.594188 
L 393.665337 18.798845 
L 405.260142 14.235348 
L 416.854947 30.280681 
L 428.449752 20.862674 
" clip-path="url(#p0d19e92882)" style="fill: none; stroke: #808080; stroke-opacity: 0.3; stroke-width: 0.5; stroke-linecap: square"/>
   </g>
   <g id="line2d_24">
    <path d="M 80.605597 89.108681 
L 92.200402 61.321725 
L 103.795207 40.038267 
L 115.390012 46.765174 
L 126.984817 64.160681 
L 138.579623 47.258054 
L 150.174428 104.378173 
L 161.769233 50.608681 
L 173.364038 43.048118 
L 184.958843 33.808681 
L 196.553649 43.352912 
L 208.148454 33.277156 
L 219.743259 41.411039 
L 231.338064 39.243368 
L 242.932869 36.976948 
L 254.527675 31.676571 
L 266.12248 23.752584 
L 277.717285 21.074435 
L 289.31209 39.622694 
L 300.906895 43.389931 
L 312.5017 26.149858 
L 324.096506 25.499004 
" clip-path="url(#p0d19e92882)" style="fill: none; stroke: #808080; stroke-opacity: 0.3; stroke-width: 0.5; stroke-linecap: square"/>
   </g>
   <g id="line2d_25">
    <path d="M 80.605597 99.163975 
L 92.200402 57.296681 
L 103.795207 42.383681 
L 115.390012 50.608681 
L 126.984817 46.097132 
L 138.579623 57.923681 
L 150.174428 44.470603 
L 161.769233 33.24128 
L 173.364038 30.949107 
L 184.958843 53.978484 
L 196.553649 49.117156 
L 208.148454 73.904681 
L 219.743259 33.396917 
L 231.338064 100.243214 
L 242.932869 59.547995 
L 254.527675 22.742015 
L 266.12248 32.128681 
L 277.717285 39.408681 
L 289.31209 52.352077 
L 300.906895 57.549526 
L 312.5017 52.595778 
L 324.096506 48.361471 
" clip-path="url(#p0d19e92882)" style="fill: none; stroke: #808080; stroke-opacity: 0.3; stroke-width: 0.5; stroke-linecap: square"/>
   </g>
   <g id="line2d_26">
    <path d="M 80.605597 56.729318 
L 92.200402 49.97357 
L 103.795207 45.889659 
L 115.390012 45.219379 
L 126.984817 38.407719 
L 138.579623 42.08932 
L 150.174428 43.838899 
L 161.769233 38.553793 
L 173.364038 37.672442 
L 184.958843 40.042452 
L 196.553649 34.298527 
L 208.148454 34.866082 
L 219.743259 30.815269 
L 231.338064 36.193978 
L 242.932869 30.542745 
L 254.527675 31.968015 
L 266.12248 30.990963 
L 277.717285 31.317289 
L 289.31209 31.947193 
L 300.906895 32.75077 
L 312.5017 30.192133 
L 324.096506 28.419919 
L 335.691311 28.471822 
L 347.286116 31.095181 
L 358.880921 29.72357 
L 370.475726 28.56342 
L 382.070532 27.123425 
L 393.665337 27.617291 
L 405.260142 25.591321 
L 416.854947 36.229122 
L 428.449752 21.685418 
L 440.044558 26.36985 
L 451.639363 25.252214 
L 463.234168 28.636167 
L 474.828973 35.624897 
L 486.423778 29.022356 
" clip-path="url(#p0d19e92882)" style="fill: none; stroke: #000000; stroke-width: 2; stroke-linecap: square"/>
   </g>
   <g id="line2d_27">
    <path d="M 60.314688 19.808681 
L 506.714687 19.808681 
" clip-path="url(#p0d19e92882)" style="fill: none; stroke-dasharray: 7.4,3.2; stroke-dashoffset: 0; stroke: #000000; stroke-width: 2"/>
   </g>
   <g id="patch_3">
    <path d="M 60.314688 93.728681 
L 60.314688 10.568681 
" style="fill: none; stroke: #000000; stroke-width: 1.2; stroke-linejoin: miter; stroke-linecap: square"/>
   </g>
   <g id="patch_4">
    <path d="M 60.314688 93.728681 
L 506.714688 93.728681 
" style="fill: none; stroke: #000000; stroke-width: 1.2; stroke-linejoin: miter; stroke-linecap: square"/>
   </g>
   <g id="text_9">
    <!-- $n = 19$ mice -->
    <g transform="translate(417.434687 85.412681) scale(0.11 -0.11)">
     <defs>
      <path id="DejaVuSans-Oblique-6e" d="M 3566 2113 
L 3156 0 
L 2578 0 
L 2988 2091 
Q 3016 2238 3031 2350 
Q 3047 2463 3047 2528 
Q 3047 2791 2881 2937 
Q 2716 3084 2419 3084 
Q 1956 3084 1622 2776 
Q 1288 2469 1184 1941 
L 800 0 
L 225 0 
L 903 3500 
L 1478 3500 
L 1363 2950 
Q 1603 3253 1940 3418 
Q 2278 3584 2650 3584 
Q 3113 3584 3367 3334 
Q 3622 3084 3622 2631 
Q 3622 2519 3608 2391 
Q 3594 2263 3566 2113 
z
" transform="scale(0.015625)"/>
      <path id="DejaVuSans-3d" d="M 678 2906 
L 4684 2906 
L 4684 2381 
L 678 2381 
L 678 2906 
z
M 678 1631 
L 4684 1631 
L 4684 1100 
L 678 1100 
L 678 1631 
z
" transform="scale(0.015625)"/>
      <path id="DejaVuSans-39" d="M 703 97 
L 703 672 
Q 941 559 1184 500 
Q 1428 441 1663 441 
Q 2288 441 2617 861 
Q 2947 1281 2994 2138 
Q 2813 1869 2534 1725 
Q 2256 1581 1919 1581 
Q 1219 1581 811 2004 
Q 403 2428 403 3163 
Q 403 3881 828 4315 
Q 1253 4750 1959 4750 
Q 2769 4750 3195 4129 
Q 3622 3509 3622 2328 
Q 3622 1225 3098 567 
Q 2575 -91 1691 -91 
Q 1453 -91 1209 -44 
Q 966 3 703 97 
z
M 1959 2075 
Q 2384 2075 2632 2365 
Q 2881 2656 2881 3163 
Q 2881 3666 2632 3958 
Q 2384 4250 1959 4250 
Q 1534 4250 1286 3958 
Q 1038 3666 1038 3163 
Q 1038 2656 1286 2365 
Q 1534 2075 1959 2075 
z
" transform="scale(0.015625)"/>
      <path id="DejaVuSans-6d" d="M 3328 2828 
Q 3544 3216 3844 3400 
Q 4144 3584 4550 3584 
Q 5097 3584 5394 3201 
Q 5691 2819 5691 2113 
L 5691 0 
L 5113 0 
L 5113 2094 
Q 5113 2597 4934 2840 
Q 4756 3084 4391 3084 
Q 3944 3084 3684 2787 
Q 3425 2491 3425 1978 
L 3425 0 
L 2847 0 
L 2847 2094 
Q 2847 2600 2669 2842 
Q 2491 3084 2119 3084 
Q 1678 3084 1418 2786 
Q 1159 2488 1159 1978 
L 1159 0 
L 581 0 
L 581 3500 
L 1159 3500 
L 1159 2956 
Q 1356 3278 1631 3431 
Q 1906 3584 2284 3584 
Q 2666 3584 2933 3390 
Q 3200 3197 3328 2828 
z
" transform="scale(0.015625)"/>
      <path id="DejaVuSans-63" d="M 3122 3366 
L 3122 2828 
Q 2878 2963 2633 3030 
Q 2388 3097 2138 3097 
Q 1578 3097 1268 2742 
Q 959 2388 959 1747 
Q 959 1106 1268 751 
Q 1578 397 2138 397 
Q 2388 397 2633 464 
Q 2878 531 3122 666 
L 3122 134 
Q 2881 22 2623 -34 
Q 2366 -91 2075 -91 
Q 1284 -91 818 406 
Q 353 903 353 1747 
Q 353 2603 823 3093 
Q 1294 3584 2113 3584 
Q 2378 3584 2631 3529 
Q 2884 3475 3122 3366 
z
" transform="scale(0.015625)"/>
     </defs>
     <use xlink:href="#DejaVuSans-Oblique-6e" transform="translate(0 0.015625)"/>
     <use xlink:href="#DejaVuSans-3d" transform="translate(82.861328 0.015625)"/>
     <use xlink:href="#DejaVuSans-31" transform="translate(186.132812 0.015625)"/>
     <use xlink:href="#DejaVuSans-39" transform="translate(249.755859 0.015625)"/>
     <use xlink:href="#DejaVuSans-20" transform="translate(313.378906 0.015625)"/>
     <use xlink:href="#DejaVuSans-6d" transform="translate(345.166016 0.015625)"/>
     <use xlink:href="#DejaVuSans-69" transform="translate(442.578125 0.015625)"/>
     <use xlink:href="#DejaVuSans-63" transform="translate(470.361328 0.015625)"/>
     <use xlink:href="#DejaVuSans-65" transform="translate(525.341797 0.015625)"/>
    </g>
   </g>
   <g id="text_10">
    <!-- optimum = 0.5 -->
    <g transform="translate(395.114687 15.558281) scale(0.11 -0.11)">
     <defs>
      <path id="DejaVuSans-70" d="M 1159 525 
L 1159 -1331 
L 581 -1331 
L 581 3500 
L 1159 3500 
L 1159 2969 
Q 1341 3281 1617 3432 
Q 1894 3584 2278 3584 
Q 2916 3584 3314 3078 
Q 3713 2572 3713 1747 
Q 3713 922 3314 415 
Q 2916 -91 2278 -91 
Q 1894 -91 1617 61 
Q 1341 213 1159 525 
z
M 3116 1747 
Q 3116 2381 2855 2742 
Q 2594 3103 2138 3103 
Q 1681 3103 1420 2742 
Q 1159 2381 1159 1747 
Q 1159 1113 1420 752 
Q 1681 391 2138 391 
Q 2594 391 2855 752 
Q 3116 1113 3116 1747 
z
" transform="scale(0.015625)"/>
      <path id="DejaVuSans-75" d="M 544 1381 
L 544 3500 
L 1119 3500 
L 1119 1403 
Q 1119 906 1312 657 
Q 1506 409 1894 409 
Q 2359 409 2629 706 
Q 2900 1003 2900 1516 
L 2900 3500 
L 3475 3500 
L 3475 0 
L 2900 0 
L 2900 538 
Q 2691 219 2414 64 
Q 2138 -91 1772 -91 
Q 1169 -91 856 284 
Q 544 659 544 1381 
z
M 1991 3584 
L 1991 3584 
z
" transform="scale(0.015625)"/>
     </defs>
     <use xlink:href="#DejaVuSans-6f"/>
     <use xlink:href="#DejaVuSans-70" transform="translate(61.181641 0)"/>
     <use xlink:href="#DejaVuSans-74" transform="translate(124.658203 0)"/>
     <use xlink:href="#DejaVuSans-69" transform="translate(163.867188 0)"/>
     <use xlink:href="#DejaVuSans-6d" transform="translate(191.650391 0)"/>
     <use xlink:href="#DejaVuSans-75" transform="translate(289.0625 0)"/>
     <use xlink:href="#DejaVuSans-6d" transform="translate(352.441406 0)"/>
     <use xlink:href="#DejaVuSans-20" transform="translate(449.853516 0)"/>
     <use xlink:href="#DejaVuSans-3d" transform="translate(481.640625 0)"/>
     <use xlink:href="#DejaVuSans-20" transform="translate(565.429688 0)"/>
     <use xlink:href="#DejaVuSans-30" transform="translate(597.216797 0)"/>
     <use xlink:href="#DejaVuSans-2e" transform="translate(660.839844 0)"/>
     <use xlink:href="#DejaVuSans-35" transform="translate(692.626953 0)"/>
    </g>
   </g>
  </g>
 </g>
 <defs>
  <clipPath id="p0d19e92882">
   <rect x="60.314688" y="10.568681" width="446.4" height="83.16"/>
  </clipPath>
 </defs>
</svg>
