<?xml version="1.0" encoding="utf-8" standalone="no"?>
<!DOCTYPE svg PUBLIC "-//W3C//DTD SVG 1.1//EN"
  "http://www.w3.org/Graphics/SVG/1.1/DTD/svg11.dtd">
<svg xmlns:xlink="http://www.w3.org/1999/xlink" width="345.732263pt" height="191.009688pt" viewBox="0 0 345.732263 191.009688" xmlns="http://www.w3.org/2000/svg" version="1.1">
 <metadata>
  <rdf:RDF xmlns:dc="http://purl.org/dc/elements/1.1/" xmlns:cc="http://creativecommons.org/ns#" xmlns:rdf="http://www.w3.org/1999/02/22-rdf-syntax-ns#">
   <cc:Work>
    <dc:type rdf:resource="http://purl.org/dc/dcmitype/StillImage"/>
    <dc:date>2025-11-21T10:55:28.875674</dc:date>
    <dc:format>image/svg+xml</dc:format>
    <dc:creator>
     <cc:Agent>
      <dc:title>Matplotlib v3.10.6, https://matplotlib.org/</dc:title>
     </cc:Agent>
    </dc:creator>
   </cc:Work>
  </rdf:RDF>
 </metadata>
 <defs>
  <style type="text/css">*{stroke-linejoin: round; stroke-linecap: butt}</style>
 </defs>
 <g id="figure_1">
  <g id="patch_1">
   <path d="M 0 191.009688 
L 345.732263 191.009688 
L 345.732263 -0 
L 0 -0 
L 0 191.009688 
z
" style="fill: none"/>
  </g>
  <g id="axes_1">
   <g id="patch_2">
    <path d="M 52.679688 145.8 
L 179.497869 145.8 
L 179.497869 7.2 
L 52.679688 7.2 
L 52.679688 145.8 
z
" style="fill: none"/>
   </g>
   <g id="matplotlib.axis_1">
    <g id="xtick_1">
     <g id="line2d_1">
      <defs>
       <path id="m302363cd34" d="M 0 0 
L 0 8.25 
" style="stroke: #000000; stroke-width: 1.4"/>
      </defs>
      <g>
       <use xlink:href="#m302363cd34" x="58.44415" y="145.8" style="stroke: #000000; stroke-width: 1.4"/>
      </g>
     </g>
     <g id="text_1">
      <!-- 0 -->
      <g transform="translate(54.62665 166.668125) scale(0.12 -0.12)">
       <defs>
        <path id="DejaVuSans-30" d="M 2034 4250 
Q 1547 4250 1301 3770 
Q 1056 3291 1056 2328 
Q 1056 1369 1301 889 
Q 1547 409 2034 409 
Q 2525 409 2770 889 
Q 3016 1369 3016 2328 
Q 3016 3291 2770 3770 
Q 2525 4250 2034 4250 
z
M 2034 4750 
Q 2819 4750 3233 4129 
Q 3647 3509 3647 2328 
Q 3647 1150 3233 529 
Q 2819 -91 2034 -91 
Q 1250 -91 836 529 
Q 422 1150 422 2328 
Q 422 3509 836 4129 
Q 1250 4750 2034 4750 
z
" transform="scale(0.015625)"/>
       </defs>
       <use xlink:href="#DejaVuSans-30"/>
      </g>
     </g>
    </g>
    <g id="xtick_2">
     <g id="line2d_2">
      <g>
       <use xlink:href="#m302363cd34" x="116.671047" y="145.8" style="stroke: #000000; stroke-width: 1.4"/>
      </g>
     </g>
     <g id="text_2">
      <!-- 50 -->
      <g transform="translate(109.036047 166.668125) scale(0.12 -0.12)">
       <defs>
        <path id="DejaVuSans-35" d="M 691 4666 
L 3169 4666 
L 3169 4134 
L 1269 4134 
L 1269 2991 
Q 1406 3038 1543 3061 
Q 1681 3084 1819 3084 
Q 2600 3084 3056 2656 
Q 3513 2228 3513 1497 
Q 3513 744 3044 326 
Q 2575 -91 1722 -91 
Q 1428 -91 1123 -41 
Q 819 9 494 109 
L 494 744 
Q 775 591 1075 516 
Q 1375 441 1709 441 
Q 2250 441 2565 725 
Q 2881 1009 2881 1497 
Q 2881 1984 2565 2268 
Q 2250 2553 1709 2553 
Q 1456 2553 1204 2497 
Q 953 2441 691 2322 
L 691 4666 
z
" transform="scale(0.015625)"/>
       </defs>
       <use xlink:href="#DejaVuSans-35"/>
       <use xlink:href="#DejaVuSans-30" transform="translate(63.623047 0)"/>
      </g>
     </g>
    </g>
    <g id="xtick_3">
     <g id="line2d_3">
      <g>
       <use xlink:href="#m302363cd34" x="174.897944" y="145.8" style="stroke: #000000; stroke-width: 1.4"/>
      </g>
     </g>
     <g id="text_3">
      <!-- 100 -->
      <g transform="translate(163.445444 166.668125) scale(0.12 -0.12)">
       <defs>
        <path id="DejaVuSans-31" d="M 794 531 
L 1825 531 
L 1825 4091 
L 703 3866 
L 703 4441 
L 1819 4666 
L 2450 4666 
L 2450 531 
L 3481 531 
L 3481 0 
L 794 0 
L 794 531 
z
" transform="scale(0.015625)"/>
       </defs>
       <use xlink:href="#DejaVuSans-31"/>
       <use xlink:href="#DejaVuSans-30" transform="translate(63.623047 0)"/>
       <use xlink:href="#DejaVuSans-30" transform="translate(127.246094 0)"/>
      </g>
     </g>
    </g>
    <g id="text_4">
     <!-- Trials # / Total trials -->
     <g transform="translate(61.981669 181.522031) scale(0.11 -0.11)">
      <defs>
       <path id="DejaVuSans-54" d="M -19 4666 
L 3928 4666 
L 3928 4134 
L 2272 4134 
L 2272 0 
L 1638 0 
L 1638 4134 
L -19 4134 
L -19 4666 
z
" transform="scale(0.015625)"/>
       <path id="DejaVuSans-72" d="M 2631 2963 
Q 2534 3019 2420 3045 
Q 2306 3072 2169 3072 
Q 1681 3072 1420 2755 
Q 1159 2438 1159 1844 
L 1159 0 
L 581 0 
L 581 3500 
L 1159 3500 
L 1159 2956 
Q 1341 3275 1631 3429 
Q 1922 3584 2338 3584 
Q 2397 3584 2469 3576 
Q 2541 3569 2628 3553 
L 2631 2963 
z
" transform="scale(0.015625)"/>
       <path id="DejaVuSans-69" d="M 603 3500 
L 1178 3500 
L 1178 0 
L 603 0 
L 603 3500 
z
M 603 4863 
L 1178 4863 
L 1178 4134 
L 603 4134 
L 603 4863 
z
" transform="scale(0.015625)"/>
       <path id="DejaVuSans-61" d="M 2194 1759 
Q 1497 1759 1228 1600 
Q 959 1441 959 1056 
Q 959 750 1161 570 
Q 1363 391 1709 391 
Q 2188 391 2477 730 
Q 2766 1069 2766 1631 
L 2766 1759 
L 2194 1759 
z
M 3341 1997 
L 3341 0 
L 2766 0 
L 2766 531 
Q 2569 213 2275 61 
Q 1981 -91 1556 -91 
Q 1019 -91 701 211 
Q 384 513 384 1019 
Q 384 1609 779 1909 
Q 1175 2209 1959 2209 
L 2766 2209 
L 2766 2266 
Q 2766 2663 2505 2880 
Q 2244 3097 1772 3097 
Q 1472 3097 1187 3025 
Q 903 2953 641 2809 
L 641 3341 
Q 956 3463 1253 3523 
Q 1550 3584 1831 3584 
Q 2591 3584 2966 3190 
Q 3341 2797 3341 1997 
z
" transform="scale(0.015625)"/>
       <path id="DejaVuSans-6c" d="M 603 4863 
L 1178 4863 
L 1178 0 
L 603 0 
L 603 4863 
z
" transform="scale(0.015625)"/>
       <path id="DejaVuSans-73" d="M 2834 3397 
L 2834 2853 
Q 2591 2978 2328 3040 
Q 2066 3103 1784 3103 
Q 1356 3103 1142 2972 
Q 928 2841 928 2578 
Q 928 2378 1081 2264 
Q 1234 2150 1697 2047 
L 1894 2003 
Q 2506 1872 2764 1633 
Q 3022 1394 3022 966 
Q 3022 478 2636 193 
Q 2250 -91 1575 -91 
Q 1294 -91 989 -36 
Q 684 19 347 128 
L 347 722 
Q 666 556 975 473 
Q 1284 391 1588 391 
Q 1994 391 2212 530 
Q 2431 669 2431 922 
Q 2431 1156 2273 1281 
Q 2116 1406 1581 1522 
L 1381 1569 
Q 847 1681 609 1914 
Q 372 2147 372 2553 
Q 372 3047 722 3315 
Q 1072 3584 1716 3584 
Q 2034 3584 2315 3537 
Q 2597 3491 2834 3397 
z
" transform="scale(0.015625)"/>
       <path id="DejaVuSans-20" transform="scale(0.015625)"/>
       <path id="DejaVuSans-23" d="M 3272 2816 
L 2363 2816 
L 2100 1772 
L 3016 1772 
L 3272 2816 
z
M 2803 4594 
L 2478 3297 
L 3391 3297 
L 3719 4594 
L 4219 4594 
L 3897 3297 
L 4872 3297 
L 4872 2816 
L 3775 2816 
L 3519 1772 
L 4513 1772 
L 4513 1294 
L 3397 1294 
L 3072 0 
L 2572 0 
L 2894 1294 
L 1978 1294 
L 1656 0 
L 1153 0 
L 1478 1294 
L 494 1294 
L 494 1772 
L 1594 1772 
L 1856 2816 
L 850 2816 
L 850 3297 
L 1978 3297 
L 2297 4594 
L 2803 4594 
z
" transform="scale(0.015625)"/>
       <path id="DejaVuSans-2f" d="M 1625 4666 
L 2156 4666 
L 531 -594 
L 0 -594 
L 1625 4666 
z
" transform="scale(0.015625)"/>
       <path id="DejaVuSans-6f" d="M 1959 3097 
Q 1497 3097 1228 2736 
Q 959 2375 959 1747 
Q 959 1119 1226 758 
Q 1494 397 1959 397 
Q 2419 397 2687 759 
Q 2956 1122 2956 1747 
Q 2956 2369 2687 2733 
Q 2419 3097 1959 3097 
z
M 1959 3584 
Q 2709 3584 3137 3096 
Q 3566 2609 3566 1747 
Q 3566 888 3137 398 
Q 2709 -91 1959 -91 
Q 1206 -91 779 398 
Q 353 888 353 1747 
Q 353 2609 779 3096 
Q 1206 3584 1959 3584 
z
" transform="scale(0.015625)"/>
       <path id="DejaVuSans-74" d="M 1172 4494 
L 1172 3500 
L 2356 3500 
L 2356 3053 
L 1172 3053 
L 1172 1153 
Q 1172 725 1289 603 
Q 1406 481 1766 481 
L 2356 481 
L 2356 0 
L 1766 0 
Q 1100 0 847 248 
Q 594 497 594 1153 
L 594 3053 
L 172 3053 
L 172 3500 
L 594 3500 
L 594 4494 
L 1172 4494 
z
" transform="scale(0.015625)"/>
      </defs>
      <use xlink:href="#DejaVuSans-54"/>
      <use xlink:href="#DejaVuSans-72" transform="translate(46.333984 0)"/>
      <use xlink:href="#DejaVuSans-69" transform="translate(87.447266 0)"/>
      <use xlink:href="#DejaVuSans-61" transform="translate(115.230469 0)"/>
      <use xlink:href="#DejaVuSans-6c" transform="translate(176.509766 0)"/>
      <use xlink:href="#DejaVuSans-73" transform="translate(204.292969 0)"/>
      <use xlink:href="#DejaVuSans-20" transform="translate(256.392578 0)"/>
      <use xlink:href="#DejaVuSans-23" transform="translate(288.179688 0)"/>
      <use xlink:href="#DejaVuSans-20" transform="translate(371.96875 0)"/>
      <use xlink:href="#DejaVuSans-2f" transform="translate(403.755859 0)"/>
      <use xlink:href="#DejaVuSans-20" transform="translate(437.447266 0)"/>
      <use xlink:href="#DejaVuSans-54" transform="translate(469.234375 0)"/>
      <use xlink:href="#DejaVuSans-6f" transform="translate(513.318359 0)"/>
      <use xlink:href="#DejaVuSans-74" transform="translate(574.5 0)"/>
      <use xlink:href="#DejaVuSans-61" transform="translate(613.708984 0)"/>
      <use xlink:href="#DejaVuSans-6c" transform="translate(674.988281 0)"/>
      <use xlink:href="#DejaVuSans-20" transform="translate(702.771484 0)"/>
      <use xlink:href="#DejaVuSans-74" transform="translate(734.558594 0)"/>
      <use xlink:href="#DejaVuSans-72" transform="translate(773.767578 0)"/>
      <use xlink:href="#DejaVuSans-69" transform="translate(814.880859 0)"/>
      <use xlink:href="#DejaVuSans-61" transform="translate(842.664062 0)"/>
      <use xlink:href="#DejaVuSans-6c" transform="translate(903.943359 0)"/>
      <use xlink:href="#DejaVuSans-73" transform="translate(931.726562 0)"/>
     </g>
    </g>
   </g>
   <g id="matplotlib.axis_2">
    <g id="ytick_1">
     <g id="line2d_4">
      <defs>
       <path id="m648fbb80a7" d="M 0 0 
L -8.25 0 
" style="stroke: #000000; stroke-width: 1.4"/>
      </defs>
      <g>
       <use xlink:href="#m648fbb80a7" x="52.679688" y="139.744759" style="stroke: #000000; stroke-width: 1.4"/>
      </g>
     </g>
     <g id="text_5">
      <!-- 0.0 -->
      <g transform="translate(21.845938 144.303822) scale(0.12 -0.12)">
       <defs>
        <path id="DejaVuSans-2e" d="M 684 794 
L 1344 794 
L 1344 0 
L 684 0 
L 684 794 
z
" transform="scale(0.015625)"/>
       </defs>
       <use xlink:href="#DejaVuSans-30"/>
       <use xlink:href="#DejaVuSans-2e" transform="translate(63.623047 0)"/>
       <use xlink:href="#DejaVuSans-30" transform="translate(95.410156 0)"/>
      </g>
     </g>
    </g>
    <g id="ytick_2">
     <g id="line2d_5">
      <g>
       <use xlink:href="#m648fbb80a7" x="52.679688" y="111.543987" style="stroke: #000000; stroke-width: 1.4"/>
      </g>
     </g>
     <g id="text_6">
      <!-- 0.2 -->
      <g transform="translate(21.845938 116.103049) scale(0.12 -0.12)">
       <defs>
        <path id="DejaVuSans-32" d="M 1228 531 
L 3431 531 
L 3431 0 
L 469 0 
L 469 531 
Q 828 903 1448 1529 
Q 2069 2156 2228 2338 
Q 2531 2678 2651 2914 
Q 2772 3150 2772 3378 
Q 2772 3750 2511 3984 
Q 2250 4219 1831 4219 
Q 1534 4219 1204 4116 
Q 875 4013 500 3803 
L 500 4441 
Q 881 4594 1212 4672 
Q 1544 4750 1819 4750 
Q 2544 4750 2975 4387 
Q 3406 4025 3406 3419 
Q 3406 3131 3298 2873 
Q 3191 2616 2906 2266 
Q 2828 2175 2409 1742 
Q 1991 1309 1228 531 
z
" transform="scale(0.015625)"/>
       </defs>
       <use xlink:href="#DejaVuSans-30"/>
       <use xlink:href="#DejaVuSans-2e" transform="translate(63.623047 0)"/>
       <use xlink:href="#DejaVuSans-32" transform="translate(95.410156 0)"/>
      </g>
     </g>
    </g>
    <g id="ytick_3">
     <g id="line2d_6">
      <g>
       <use xlink:href="#m648fbb80a7" x="52.679688" y="83.343214" style="stroke: #000000; stroke-width: 1.4"/>
      </g>
     </g>
     <g id="text_7">
      <!-- 0.4 -->
      <g transform="translate(21.845938 87.902276) scale(0.12 -0.12)">
       <defs>
        <path id="DejaVuSans-34" d="M 2419 4116 
L 825 1625 
L 2419 1625 
L 2419 4116 
z
M 2253 4666 
L 3047 4666 
L 3047 1625 
L 3713 1625 
L 3713 1100 
L 3047 1100 
L 3047 0 
L 2419 0 
L 2419 1100 
L 313 1100 
L 313 1709 
L 2253 4666 
z
" transform="scale(0.015625)"/>
       </defs>
       <use xlink:href="#DejaVuSans-30"/>
       <use xlink:href="#DejaVuSans-2e" transform="translate(63.623047 0)"/>
       <use xlink:href="#DejaVuSans-34" transform="translate(95.410156 0)"/>
      </g>
     </g>
    </g>
    <g id="ytick_4">
     <g id="line2d_7">
      <g>
       <use xlink:href="#m648fbb80a7" x="52.679688" y="55.142441" style="stroke: #000000; stroke-width: 1.4"/>
      </g>
     </g>
     <g id="text_8">
      <!-- 0.6 -->
      <g transform="translate(21.845938 59.701504) scale(0.12 -0.12)">
       <defs>
        <path id="DejaVuSans-36" d="M 2113 2584 
Q 1688 2584 1439 2293 
Q 1191 2003 1191 1497 
Q 1191 994 1439 701 
Q 1688 409 2113 409 
Q 2538 409 2786 701 
Q 3034 994 3034 1497 
Q 3034 2003 2786 2293 
Q 2538 2584 2113 2584 
z
M 3366 4563 
L 3366 3988 
Q 3128 4100 2886 4159 
Q 2644 4219 2406 4219 
Q 1781 4219 1451 3797 
Q 1122 3375 1075 2522 
Q 1259 2794 1537 2939 
Q 1816 3084 2150 3084 
Q 2853 3084 3261 2657 
Q 3669 2231 3669 1497 
Q 3669 778 3244 343 
Q 2819 -91 2113 -91 
Q 1303 -91 875 529 
Q 447 1150 447 2328 
Q 447 3434 972 4092 
Q 1497 4750 2381 4750 
Q 2619 4750 2861 4703 
Q 3103 4656 3366 4563 
z
" transform="scale(0.015625)"/>
       </defs>
       <use xlink:href="#DejaVuSans-30"/>
       <use xlink:href="#DejaVuSans-2e" transform="translate(63.623047 0)"/>
       <use xlink:href="#DejaVuSans-36" transform="translate(95.410156 0)"/>
      </g>
     </g>
    </g>
    <g id="ytick_5">
     <g id="line2d_8">
      <g>
       <use xlink:href="#m648fbb80a7" x="52.679688" y="26.941669" style="stroke: #000000; stroke-width: 1.4"/>
      </g>
     </g>
     <g id="text_9">
      <!-- 0.8 -->
      <g transform="translate(21.845938 31.500731) scale(0.12 -0.12)">
       <defs>
        <path id="DejaVuSans-38" d="M 2034 2216 
Q 1584 2216 1326 1975 
Q 1069 1734 1069 1313 
Q 1069 891 1326 650 
Q 1584 409 2034 409 
Q 2484 409 2743 651 
Q 3003 894 3003 1313 
Q 3003 1734 2745 1975 
Q 2488 2216 2034 2216 
z
M 1403 2484 
Q 997 2584 770 2862 
Q 544 3141 544 3541 
Q 544 4100 942 4425 
Q 1341 4750 2034 4750 
Q 2731 4750 3128 4425 
Q 3525 4100 3525 3541 
Q 3525 3141 3298 2862 
Q 3072 2584 2669 2484 
Q 3125 2378 3379 2068 
Q 3634 1759 3634 1313 
Q 3634 634 3220 271 
Q 2806 -91 2034 -91 
Q 1263 -91 848 271 
Q 434 634 434 1313 
Q 434 1759 690 2068 
Q 947 2378 1403 2484 
z
M 1172 3481 
Q 1172 3119 1398 2916 
Q 1625 2713 2034 2713 
Q 2441 2713 2670 2916 
Q 2900 3119 2900 3481 
Q 2900 3844 2670 4047 
Q 2441 4250 2034 4250 
Q 1625 4250 1398 4047 
Q 1172 3844 1172 3481 
z
" transform="scale(0.015625)"/>
       </defs>
       <use xlink:href="#DejaVuSans-30"/>
       <use xlink:href="#DejaVuSans-2e" transform="translate(63.623047 0)"/>
       <use xlink:href="#DejaVuSans-38" transform="translate(95.410156 0)"/>
      </g>
     </g>
    </g>
    <g id="text_10">
     <!-- P(stochastic) -->
     <g transform="translate(15.558281 111.948359) rotate(-90) scale(0.11 -0.11)">
      <defs>
       <path id="DejaVuSans-50" d="M 1259 4147 
L 1259 2394 
L 2053 2394 
Q 2494 2394 2734 2622 
Q 2975 2850 2975 3272 
Q 2975 3691 2734 3919 
Q 2494 4147 2053 4147 
L 1259 4147 
z
M 628 4666 
L 2053 4666 
Q 2838 4666 3239 4311 
Q 3641 3956 3641 3272 
Q 3641 2581 3239 2228 
Q 2838 1875 2053 1875 
L 1259 1875 
L 1259 0 
L 628 0 
L 628 4666 
z
" transform="scale(0.015625)"/>
       <path id="DejaVuSans-28" d="M 1984 4856 
Q 1566 4138 1362 3434 
Q 1159 2731 1159 2009 
Q 1159 1288 1364 580 
Q 1569 -128 1984 -844 
L 1484 -844 
Q 1016 -109 783 600 
Q 550 1309 550 2009 
Q 550 2706 781 3412 
Q 1013 4119 1484 4856 
L 1984 4856 
z
" transform="scale(0.015625)"/>
       <path id="DejaVuSans-63" d="M 3122 3366 
L 3122 2828 
Q 2878 2963 2633 3030 
Q 2388 3097 2138 3097 
Q 1578 3097 1268 2742 
Q 959 2388 959 1747 
Q 959 1106 1268 751 
Q 1578 397 2138 397 
Q 2388 397 2633 464 
Q 2878 531 3122 666 
L 3122 134 
Q 2881 22 2623 -34 
Q 2366 -91 2075 -91 
Q 1284 -91 818 406 
Q 353 903 353 1747 
Q 353 2603 823 3093 
Q 1294 3584 2113 3584 
Q 2378 3584 2631 3529 
Q 2884 3475 3122 3366 
z
" transform="scale(0.015625)"/>
       <path id="DejaVuSans-68" d="M 3513 2113 
L 3513 0 
L 2938 0 
L 2938 2094 
Q 2938 2591 2744 2837 
Q 2550 3084 2163 3084 
Q 1697 3084 1428 2787 
Q 1159 2491 1159 1978 
L 1159 0 
L 581 0 
L 581 4863 
L 1159 4863 
L 1159 2956 
Q 1366 3272 1645 3428 
Q 1925 3584 2291 3584 
Q 2894 3584 3203 3211 
Q 3513 2838 3513 2113 
z
" transform="scale(0.015625)"/>
       <path id="DejaVuSans-29" d="M 513 4856 
L 1013 4856 
Q 1481 4119 1714 3412 
Q 1947 2706 1947 2009 
Q 1947 1309 1714 600 
Q 1481 -109 1013 -844 
L 513 -844 
Q 928 -128 1133 580 
Q 1338 1288 1338 2009 
Q 1338 2731 1133 3434 
Q 928 4138 513 4856 
z
" transform="scale(0.015625)"/>
      </defs>
      <use xlink:href="#DejaVuSans-50"/>
      <use xlink:href="#DejaVuSans-28" transform="translate(60.302734 0)"/>
      <use xlink:href="#DejaVuSans-73" transform="translate(99.316406 0)"/>
      <use xlink:href="#DejaVuSans-74" transform="translate(151.416016 0)"/>
      <use xlink:href="#DejaVuSans-6f" transform="translate(190.625 0)"/>
      <use xlink:href="#DejaVuSans-63" transform="translate(251.806641 0)"/>
      <use xlink:href="#DejaVuSans-68" transform="translate(306.787109 0)"/>
      <use xlink:href="#DejaVuSans-61" transform="translate(370.166016 0)"/>
      <use xlink:href="#DejaVuSans-73" transform="translate(431.445312 0)"/>
      <use xlink:href="#DejaVuSans-74" transform="translate(483.544922 0)"/>
      <use xlink:href="#DejaVuSans-69" transform="translate(522.753906 0)"/>
      <use xlink:href="#DejaVuSans-63" transform="translate(550.537109 0)"/>
      <use xlink:href="#DejaVuSans-29" transform="translate(605.517578 0)"/>
     </g>
    </g>
   </g>
   <g id="line2d_9">
    <path d="M 58.44415 138.393363 
L 59.608688 139.236864 
L 60.773226 139.442688 
L 61.937764 139.497942 
L 63.102302 139.437415 
L 64.26684 139.408717 
L 65.431378 139.438881 
L 66.595916 139.100732 
L 67.760454 139.098043 
L 68.924992 138.560428 
L 70.08953 129.979818 
L 71.254068 95.008715 
L 72.418606 91.049255 
L 73.583144 93.000822 
L 74.747681 132.040656 
L 75.912219 131.226959 
L 77.076757 131.761039 
L 78.241295 131.70855 
L 79.405833 131.202525 
L 80.570371 126.946688 
L 81.734909 112.399509 
L 82.899447 102.972978 
L 84.063985 103.982782 
L 85.228523 107.9373 
L 86.393061 116.282288 
L 87.557599 121.343849 
L 88.722137 127.358337 
L 89.886675 130.61317 
L 91.051213 132.430151 
L 92.215751 133.373977 
L 93.380289 136.147997 
L 94.544826 138.043135 
L 95.709364 139.118292 
L 96.873902 139.5 
L 98.03844 138.383144 
L 99.202978 121.994824 
L 100.367516 127.306803 
L 101.532054 134.302576 
L 102.696592 138.834092 
L 103.86113 139.332966 
L 105.025668 139.326296 
L 106.190206 138.467798 
L 107.354744 105.308964 
L 108.519282 95.131913 
L 109.68382 92.83541 
L 110.848358 92.66821 
L 112.012896 92.701899 
L 113.177434 92.68133 
L 114.341971 92.412636 
L 115.506509 92.905738 
L 116.671047 111.405218 
L 117.835585 134.565504 
L 119.000123 139.050861 
L 120.164661 138.752406 
L 121.329199 138.7368 
L 122.493737 138.52417 
L 123.658275 138.285353 
L 124.822813 138.471828 
L 125.987351 138.485652 
L 127.151889 134.453608 
L 128.316427 94.183058 
L 129.480965 100.175159 
L 130.645503 122.553134 
L 131.810041 136.479197 
L 132.974579 139.346645 
L 134.139117 139.02788 
L 135.303654 137.753232 
L 136.468192 137.40397 
L 137.63273 135.661875 
L 138.797268 130.115973 
L 139.961806 88.105906 
L 141.126344 100.955029 
L 142.290882 102.00235 
L 143.45542 111.037022 
L 144.619958 117.575457 
L 145.784496 128.82522 
L 146.949034 128.161503 
L 148.113572 87.75947 
L 149.27811 76.89169 
L 150.442648 77.347106 
L 151.607186 76.959505 
L 152.771724 76.576454 
L 153.936262 74.942701 
L 155.100799 87.293662 
L 156.265337 68.102592 
L 157.429875 68.786267 
L 158.594413 59.609613 
L 159.758951 53.048312 
L 160.923489 56.553997 
L 162.088027 49.905115 
L 163.252565 49.096038 
L 164.417103 46.168404 
L 165.581641 47.652769 
L 166.746179 45.939834 
L 167.910717 46.374401 
L 169.075255 47.988814 
L 170.239793 46.724779 
L 171.404331 46.175261 
L 172.568869 66.328578 
L 173.733407 50.646199 
" clip-path="url(#pdf1cbc521d)" style="fill: none; stroke: #4dbbd5; stroke-opacity: 0.25; stroke-width: 2; stroke-linecap: square"/>
   </g>
   <g id="line2d_10">
    <path d="M 58.44415 26.242306 
L 59.608688 26.870369 
L 60.773226 27.763045 
L 61.937764 28.839091 
L 63.102302 29.555445 
L 64.26684 31.333854 
L 65.431378 30.292602 
L 66.595916 28.684657 
L 67.760454 26.293966 
L 68.924992 21.350925 
L 70.08953 19.469186 
L 71.254068 19.509566 
L 72.418606 26.283767 
L 73.583144 24.066491 
L 74.747681 25.543645 
L 75.912219 26.089705 
L 77.076757 26.490099 
L 78.241295 26.996919 
L 79.405833 26.542833 
L 80.570371 28.685341 
L 81.734909 28.20629 
L 82.899447 30.37193 
L 84.063985 37.517722 
L 85.228523 37.344657 
L 86.393061 36.852252 
L 87.557599 34.402195 
L 88.722137 32.544108 
L 89.886675 27.669911 
L 91.051213 26.148823 
L 92.215751 25.610223 
L 93.380289 20.966364 
L 94.544826 19.308987 
L 95.709364 19.850589 
L 96.873902 15.818428 
L 98.03844 16.70705 
L 99.202978 20.056281 
L 100.367516 21.840959 
L 101.532054 22.586174 
L 102.696592 22.061038 
L 103.86113 20.966396 
L 105.025668 19.273971 
L 106.190206 13.5 
L 107.354744 20.643483 
L 108.519282 20.649835 
L 109.68382 20.667687 
L 110.848358 20.556263 
L 112.012896 19.699893 
L 113.177434 19.622091 
L 114.341971 24.792885 
L 115.506509 31.022499 
L 116.671047 33.437348 
L 117.835585 33.291987 
L 119.000123 31.645061 
L 120.164661 28.561506 
L 121.329199 27.220373 
L 122.493737 26.053306 
L 123.658275 26.550936 
L 124.822813 24.950665 
L 125.987351 23.079474 
L 127.151889 22.356047 
L 128.316427 23.53721 
L 129.480965 26.958319 
L 130.645503 27.393586 
L 131.810041 35.213529 
L 132.974579 35.293774 
L 134.139117 34.403183 
L 135.303654 33.897684 
L 136.468192 33.005122 
L 137.63273 31.883736 
L 138.797268 30.489941 
L 139.961806 29.573197 
L 141.126344 27.197471 
L 142.290882 26.604066 
L 143.45542 26.28594 
L 144.619958 28.666694 
L 145.784496 29.968678 
L 146.949034 31.200724 
L 148.113572 35.205781 
L 149.27811 35.038635 
L 150.442648 35.6428 
L 151.607186 35.9742 
L 152.771724 36.56626 
L 153.936262 38.407518 
L 155.100799 40.490276 
L 156.265337 40.900716 
L 157.429875 39.62904 
L 158.594413 36.900796 
L 159.758951 36.356008 
L 160.923489 35.209677 
L 162.088027 33.656673 
L 163.252565 31.620279 
L 164.417103 30.499529 
L 165.581641 28.773009 
L 166.746179 27.700674 
L 167.910717 26.811338 
L 169.075255 24.972571 
L 170.239793 22.087541 
L 171.404331 21.065717 
L 172.568869 20.043956 
L 173.733407 18.904031 
" clip-path="url(#pdf1cbc521d)" style="fill: none; stroke: #4dbbd5; stroke-opacity: 0.5; stroke-width: 2; stroke-linecap: square"/>
   </g>
   <g id="line2d_11">
    <path d="M 58.44415 38.672561 
L 59.608688 37.611352 
L 60.773226 38.706496 
L 61.937764 37.027695 
L 63.102302 36.811408 
L 64.26684 34.867979 
L 65.431378 34.482375 
L 66.595916 33.629292 
L 67.760454 32.9056 
L 68.924992 30.353545 
L 70.08953 28.586521 
L 71.254068 28.636003 
L 72.418606 29.669143 
L 73.583144 34.656604 
L 74.747681 34.238362 
L 75.912219 33.635551 
L 77.076757 32.733337 
L 78.241295 31.127178 
L 79.405833 29.652519 
L 80.570371 26.927911 
L 81.734909 26.177215 
L 82.899447 24.795712 
L 84.063985 24.163364 
L 85.228523 24.455795 
L 86.393061 24.196847 
L 87.557599 24.0086 
L 88.722137 22.365325 
L 89.886675 23.06126 
L 91.051213 22.723293 
L 92.215751 22.816613 
L 93.380289 22.534012 
L 94.544826 22.467745 
L 95.709364 22.330758 
L 96.873902 22.239422 
L 98.03844 21.617484 
L 99.202978 20.680568 
L 100.367516 20.032218 
L 101.532054 19.465643 
L 102.696592 19.258393 
L 103.86113 19.385743 
L 105.025668 19.138343 
L 106.190206 18.945557 
L 107.354744 19.859104 
L 108.519282 20.976663 
L 109.68382 21.112927 
L 110.848358 21.60344 
L 112.012896 24.579464 
L 113.177434 22.833801 
L 114.341971 22.501753 
L 115.506509 20.332898 
L 116.671047 19.508961 
L 117.835585 25.847046 
L 119.000123 26.679153 
L 120.164661 27.903208 
L 121.329199 26.507042 
L 122.493737 26.180552 
L 123.658275 26.185559 
L 124.822813 26.757476 
L 125.987351 30.457023 
L 127.151889 27.059799 
L 128.316427 26.308276 
L 129.480965 26.475825 
L 130.645503 25.159359 
L 131.810041 24.027239 
L 132.974579 26.313316 
L 134.139117 24.763885 
L 135.303654 24.796519 
L 136.468192 25.721336 
L 137.63273 36.280543 
L 138.797268 37.374223 
L 139.961806 38.635997 
L 141.126344 41.062003 
L 142.290882 50.834982 
L 143.45542 49.82833 
L 144.619958 53.406665 
L 145.784496 51.336276 
L 146.949034 50.915241 
L 148.113572 50.063487 
L 149.27811 47.834543 
L 150.442648 42.943783 
L 151.607186 40.272714 
L 152.771724 33.76343 
L 153.936262 29.656654 
L 155.100799 28.995725 
L 156.265337 27.469121 
L 157.429875 27.174732 
L 158.594413 26.190394 
L 159.758951 25.844729 
L 160.923489 24.805524 
L 162.088027 22.176574 
L 163.252565 25.775591 
L 164.417103 19.660386 
L 165.581641 18.371533 
L 166.746179 19.742089 
L 167.910717 21.041183 
L 169.075255 23.871394 
L 170.239793 24.460068 
L 171.404331 25.687282 
L 172.568869 31.961788 
L 173.733407 35.516592 
" clip-path="url(#pdf1cbc521d)" style="fill: none; stroke: #4dbbd5; stroke-width: 2; stroke-linecap: square"/>
   </g>
   <g id="patch_3">
    <path d="M 52.679688 145.8 
L 52.679688 7.2 
" style="fill: none; stroke: #000000; stroke-width: 1.2; stroke-linejoin: miter; stroke-linecap: square"/>
   </g>
   <g id="patch_4">
    <path d="M 52.679688 145.8 
L 179.497869 145.8 
" style="fill: none; stroke: #000000; stroke-width: 1.2; stroke-linejoin: miter; stroke-linecap: square"/>
   </g>
  </g>
  <g id="axes_2">
   <g id="patch_5">
    <path d="M 204.861506 145.8 
L 331.679687 145.8 
L 331.679687 7.2 
L 204.861506 7.2 
L 204.861506 145.8 
z
" style="fill: none"/>
   </g>
   <g id="matplotlib.axis_3">
    <g id="xtick_4">
     <g id="line2d_12">
      <g>
       <use xlink:href="#m302363cd34" x="210.625968" y="145.8" style="stroke: #000000; stroke-width: 1.4"/>
      </g>
     </g>
     <g id="text_11">
      <!-- 0 -->
      <g transform="translate(206.808468 166.668125) scale(0.12 -0.12)">
       <use xlink:href="#DejaVuSans-30"/>
      </g>
     </g>
    </g>
    <g id="xtick_5">
     <g id="line2d_13">
      <g>
       <use xlink:href="#m302363cd34" x="268.852866" y="145.8" style="stroke: #000000; stroke-width: 1.4"/>
      </g>
     </g>
     <g id="text_12">
      <!-- 50 -->
      <g transform="translate(261.217866 166.668125) scale(0.12 -0.12)">
       <use xlink:href="#DejaVuSans-35"/>
       <use xlink:href="#DejaVuSans-30" transform="translate(63.623047 0)"/>
      </g>
     </g>
    </g>
    <g id="xtick_6">
     <g id="line2d_14">
      <g>
       <use xlink:href="#m302363cd34" x="327.079763" y="145.8" style="stroke: #000000; stroke-width: 1.4"/>
      </g>
     </g>
     <g id="text_13">
      <!-- 100 -->
      <g transform="translate(315.627263 166.668125) scale(0.12 -0.12)">
       <use xlink:href="#DejaVuSans-31"/>
       <use xlink:href="#DejaVuSans-30" transform="translate(63.623047 0)"/>
       <use xlink:href="#DejaVuSans-30" transform="translate(127.246094 0)"/>
      </g>
     </g>
    </g>
   </g>
   <g id="matplotlib.axis_4">
    <g id="ytick_6">
     <g id="line2d_15">
      <g>
       <use xlink:href="#m648fbb80a7" x="204.861506" y="139.744759" style="stroke: #000000; stroke-width: 1.4"/>
      </g>
     </g>
    </g>
    <g id="ytick_7">
     <g id="line2d_16">
      <g>
       <use xlink:href="#m648fbb80a7" x="204.861506" y="111.543987" style="stroke: #000000; stroke-width: 1.4"/>
      </g>
     </g>
    </g>
    <g id="ytick_8">
     <g id="line2d_17">
      <g>
       <use xlink:href="#m648fbb80a7" x="204.861506" y="83.343214" style="stroke: #000000; stroke-width: 1.4"/>
      </g>
     </g>
    </g>
    <g id="ytick_9">
     <g id="line2d_18">
      <g>
       <use xlink:href="#m648fbb80a7" x="204.861506" y="55.142441" style="stroke: #000000; stroke-width: 1.4"/>
      </g>
     </g>
    </g>
    <g id="ytick_10">
     <g id="line2d_19">
      <g>
       <use xlink:href="#m648fbb80a7" x="204.861506" y="26.941669" style="stroke: #000000; stroke-width: 1.4"/>
      </g>
     </g>
    </g>
   </g>
   <g id="line2d_20">
    <path d="M 210.625968 129.961183 
L 211.790506 129.711236 
L 212.955044 130.390053 
L 214.119582 131.474191 
L 215.28412 130.980471 
L 216.448658 128.555604 
L 217.613196 123.98207 
L 218.777734 122.699421 
L 219.942272 122.244951 
L 221.10681 120.911263 
L 222.271348 120.261475 
L 223.435886 118.838112 
L 224.600424 118.030656 
L 225.764962 113.37577 
L 226.9295 111.751905 
L 228.094038 111.413554 
L 229.258576 111.890869 
L 230.423113 114.316096 
L 231.587651 121.471628 
L 232.752189 121.965471 
L 233.916727 120.784755 
L 235.081265 117.286661 
L 236.245803 118.205938 
L 237.410341 117.779271 
L 238.574879 115.870809 
L 239.739417 115.322733 
L 240.903955 117.335945 
L 242.068493 118.16802 
L 243.233031 117.732555 
L 244.397569 117.919206 
L 245.562107 116.922975 
L 246.726645 113.637627 
L 247.891183 111.611138 
L 249.055721 111.029442 
L 250.220258 111.0387 
L 251.384796 111.282836 
L 252.549334 112.888538 
L 253.713872 114.253355 
L 254.87841 115.875971 
L 256.042948 116.609526 
L 257.207486 116.334617 
L 258.372024 115.914567 
L 259.536562 114.51693 
L 260.7011 109.9537 
L 261.865638 106.123507 
L 263.030176 105.061147 
L 264.194714 104.029853 
L 265.359252 104.45843 
L 266.52379 100.611015 
L 267.688328 100.290526 
L 268.852866 100.06098 
L 270.017404 100.760474 
L 271.181941 102.920988 
L 272.346479 104.513616 
L 273.511017 106.506052 
L 274.675555 108.337828 
L 275.840093 110.077847 
L 277.004631 108.50131 
L 278.169169 104.022068 
L 279.333707 101.759709 
L 280.498245 99.990265 
L 281.662783 97.631952 
L 282.827321 94.76253 
L 283.991859 96.427993 
L 285.156397 95.798762 
L 286.320935 90.95183 
L 287.485473 87.443978 
L 288.650011 85.889244 
L 289.814549 84.392009 
L 290.979086 80.725499 
L 292.143624 79.924791 
L 293.308162 77.419622 
L 294.4727 74.026624 
L 295.637238 72.421698 
L 296.801776 74.982173 
L 297.966314 75.354911 
L 299.130852 77.232083 
L 300.29539 84.186158 
L 301.459928 89.349669 
L 302.624466 91.840971 
L 303.789004 96.152769 
L 304.953542 99.760724 
L 306.11808 101.019131 
L 307.282618 100.628227 
L 308.447156 99.798835 
L 309.611694 98.554292 
L 310.776231 98.210487 
L 311.940769 92.798477 
L 313.105307 91.233518 
L 314.269845 89.985666 
L 315.434383 88.397066 
L 316.598921 86.780717 
L 317.763459 86.187491 
L 318.927997 84.603321 
L 320.092535 82.118635 
L 321.257073 82.720657 
L 322.421611 84.627235 
L 323.586149 84.30086 
L 324.750687 86.12344 
L 325.915225 85.204444 
" clip-path="url(#p4756fb59e1)" style="fill: none; stroke: #e64b35; stroke-opacity: 0.25; stroke-width: 2; stroke-linecap: square"/>
   </g>
   <g id="line2d_21">
    <path d="M 210.625968 120.05365 
L 211.790506 109.466558 
L 212.955044 99.415762 
L 214.119582 95.065915 
L 215.28412 90.798889 
L 216.448658 89.922276 
L 217.613196 87.246181 
L 218.777734 84.311105 
L 219.942272 79.877206 
L 221.10681 76.815334 
L 222.271348 72.461865 
L 223.435886 69.454037 
L 224.600424 67.160497 
L 225.764962 61.880198 
L 226.9295 56.105706 
L 228.094038 53.384832 
L 229.258576 51.197595 
L 230.423113 49.226479 
L 231.587651 48.149019 
L 232.752189 50.025645 
L 233.916727 50.012944 
L 235.081265 50.205545 
L 236.245803 50.185196 
L 237.410341 49.065755 
L 238.574879 45.89072 
L 239.739417 45.133511 
L 240.903955 44.612216 
L 242.068493 45.17174 
L 243.233031 43.30526 
L 244.397569 43.459475 
L 245.562107 43.991045 
L 246.726645 44.136542 
L 247.891183 44.668682 
L 249.055721 44.423257 
L 250.220258 44.349521 
L 251.384796 43.214259 
L 252.549334 41.619203 
L 253.713872 42.016152 
L 254.87841 42.971538 
L 256.042948 45.476197 
L 257.207486 45.357348 
L 258.372024 43.772872 
L 259.536562 43.073233 
L 260.7011 43.474713 
L 261.865638 44.72656 
L 263.030176 44.51572 
L 264.194714 44.399661 
L 265.359252 42.403282 
L 266.52379 40.303637 
L 267.688328 40.609087 
L 268.852866 41.638153 
L 270.017404 41.666146 
L 271.181941 39.873255 
L 272.346479 39.045659 
L 273.511017 40.40739 
L 274.675555 41.376713 
L 275.840093 41.840789 
L 277.004631 42.852449 
L 278.169169 44.024048 
L 279.333707 43.700783 
L 280.498245 42.64984 
L 281.662783 43.944427 
L 282.827321 41.633439 
L 283.991859 39.851581 
L 285.156397 37.001817 
L 286.320935 35.677818 
L 287.485473 33.776089 
L 288.650011 31.76017 
L 289.814549 30.915254 
L 290.979086 32.003031 
L 292.143624 31.247552 
L 293.308162 32.351093 
L 294.4727 33.127725 
L 295.637238 33.259943 
L 296.801776 34.755076 
L 297.966314 35.541095 
L 299.130852 37.82803 
L 300.29539 41.315389 
L 301.459928 43.100494 
L 302.624466 43.47477 
L 303.789004 43.614873 
L 304.953542 44.613601 
L 306.11808 45.113184 
L 307.282618 45.377911 
L 308.447156 46.387532 
L 309.611694 47.368117 
L 310.776231 47.323404 
L 311.940769 47.891137 
L 313.105307 50.313577 
L 314.269845 52.516954 
L 315.434383 57.512102 
L 316.598921 62.187559 
L 317.763459 69.906248 
L 318.927997 77.729396 
L 320.092535 83.988433 
L 321.257073 92.253339 
L 322.421611 97.775304 
L 323.586149 98.708452 
L 324.750687 97.442938 
L 325.915225 89.850694 
" clip-path="url(#p4756fb59e1)" style="fill: none; stroke: #e64b35; stroke-opacity: 0.5; stroke-width: 2; stroke-linecap: square"/>
   </g>
   <g id="line2d_22">
    <path d="M 210.625968 121.609341 
L 211.790506 110.638649 
L 212.955044 101.54231 
L 214.119582 93.275569 
L 215.28412 85.666621 
L 216.448658 77.976926 
L 217.613196 73.816077 
L 218.777734 70.098579 
L 219.942272 65.500583 
L 221.10681 60.1535 
L 222.271348 56.41791 
L 223.435886 53.747815 
L 224.600424 50.865195 
L 225.764962 50.186574 
L 226.9295 51.65689 
L 228.094038 52.23968 
L 229.258576 49.441033 
L 230.423113 46.123982 
L 231.587651 44.401803 
L 232.752189 43.457276 
L 233.916727 42.768297 
L 235.081265 41.989266 
L 236.245803 39.393913 
L 237.410341 37.808206 
L 238.574879 36.622601 
L 239.739417 35.271071 
L 240.903955 34.429069 
L 242.068493 34.343563 
L 243.233031 34.434125 
L 244.397569 36.883345 
L 245.562107 41.271306 
L 246.726645 43.419699 
L 247.891183 42.092939 
L 249.055721 41.411755 
L 250.220258 40.324654 
L 251.384796 40.141236 
L 252.549334 39.876371 
L 253.713872 38.710853 
L 254.87841 37.481745 
L 256.042948 38.080578 
L 257.207486 38.896229 
L 258.372024 40.305692 
L 259.536562 41.286331 
L 260.7011 39.809278 
L 261.865638 38.441476 
L 263.030176 38.900627 
L 264.194714 38.68502 
L 265.359252 38.761695 
L 266.52379 37.731601 
L 267.688328 37.070962 
L 268.852866 36.061299 
L 270.017404 36.448087 
L 271.181941 36.297444 
L 272.346479 36.168984 
L 273.511017 36.186253 
L 274.675555 36.267368 
L 275.840093 35.780336 
L 277.004631 33.978581 
L 278.169169 30.781187 
L 279.333707 31.442213 
L 280.498245 31.875103 
L 281.662783 35.191899 
L 282.827321 39.224788 
L 283.991859 40.07072 
L 285.156397 39.589596 
L 286.320935 37.069883 
L 287.485473 35.123967 
L 288.650011 35.962671 
L 289.814549 37.233469 
L 290.979086 39.091141 
L 292.143624 39.165968 
L 293.308162 38.529863 
L 294.4727 35.759294 
L 295.637238 33.670921 
L 296.801776 32.756365 
L 297.966314 34.521717 
L 299.130852 35.697814 
L 300.29539 34.745071 
L 301.459928 36.186797 
L 302.624466 38.188645 
L 303.789004 38.227687 
L 304.953542 39.895997 
L 306.11808 42.212635 
L 307.282618 42.608151 
L 308.447156 41.027935 
L 309.611694 42.82514 
L 310.776231 43.575705 
L 311.940769 44.12295 
L 313.105307 47.036304 
L 314.269845 49.243061 
L 315.434383 51.195458 
L 316.598921 55.255831 
L 317.763459 57.984458 
L 318.927997 59.938565 
L 320.092535 61.12369 
L 321.257073 64.242668 
L 322.421611 68.67292 
L 323.586149 73.365579 
L 324.750687 80.030573 
L 325.915225 77.654979 
" clip-path="url(#p4756fb59e1)" style="fill: none; stroke: #e64b35; stroke-width: 2; stroke-linecap: square"/>
   </g>
   <g id="patch_6">
    <path d="M 204.861506 145.8 
L 204.861506 7.2 
" style="fill: none; stroke: #000000; stroke-width: 1.2; stroke-linejoin: miter; stroke-linecap: square"/>
   </g>
   <g id="patch_7">
    <path d="M 204.861506 145.8 
L 331.679687 145.8 
" style="fill: none; stroke: #000000; stroke-width: 1.2; stroke-linejoin: miter; stroke-linecap: square"/>
   </g>
   <g id="text_14">
    <!-- Early -->
    <g style="fill: #e64b35; opacity: 0.25" transform="translate(210.625968 41.042055) scale(0.12 -0.12)">
     <defs>
      <path id="DejaVuSans-45" d="M 628 4666 
L 3578 4666 
L 3578 4134 
L 1259 4134 
L 1259 2753 
L 3481 2753 
L 3481 2222 
L 1259 2222 
L 1259 531 
L 3634 531 
L 3634 0 
L 628 0 
L 628 4666 
z
" transform="scale(0.015625)"/>
      <path id="DejaVuSans-79" d="M 2059 -325 
Q 1816 -950 1584 -1140 
Q 1353 -1331 966 -1331 
L 506 -1331 
L 506 -850 
L 844 -850 
Q 1081 -850 1212 -737 
Q 1344 -625 1503 -206 
L 1606 56 
L 191 3500 
L 800 3500 
L 1894 763 
L 2988 3500 
L 3597 3500 
L 2059 -325 
z
" transform="scale(0.015625)"/>
     </defs>
     <use xlink:href="#DejaVuSans-45"/>
     <use xlink:href="#DejaVuSans-61" transform="translate(63.183594 0)"/>
     <use xlink:href="#DejaVuSans-72" transform="translate(124.462891 0)"/>
     <use xlink:href="#DejaVuSans-6c" transform="translate(165.576172 0)"/>
     <use xlink:href="#DejaVuSans-79" transform="translate(193.359375 0)"/>
    </g>
   </g>
   <g id="text_15">
    <!-- Middle -->
    <g style="fill: #e64b35; opacity: 0.5" transform="translate(210.625968 30.466765) scale(0.12 -0.12)">
     <defs>
      <path id="DejaVuSans-4d" d="M 628 4666 
L 1569 4666 
L 2759 1491 
L 3956 4666 
L 4897 4666 
L 4897 0 
L 4281 0 
L 4281 4097 
L 3078 897 
L 2444 897 
L 1241 4097 
L 1241 0 
L 628 0 
L 628 4666 
z
" transform="scale(0.015625)"/>
      <path id="DejaVuSans-64" d="M 2906 2969 
L 2906 4863 
L 3481 4863 
L 3481 0 
L 2906 0 
L 2906 525 
Q 2725 213 2448 61 
Q 2172 -91 1784 -91 
Q 1150 -91 751 415 
Q 353 922 353 1747 
Q 353 2572 751 3078 
Q 1150 3584 1784 3584 
Q 2172 3584 2448 3432 
Q 2725 3281 2906 2969 
z
M 947 1747 
Q 947 1113 1208 752 
Q 1469 391 1925 391 
Q 2381 391 2643 752 
Q 2906 1113 2906 1747 
Q 2906 2381 2643 2742 
Q 2381 3103 1925 3103 
Q 1469 3103 1208 2742 
Q 947 2381 947 1747 
z
" transform="scale(0.015625)"/>
      <path id="DejaVuSans-65" d="M 3597 1894 
L 3597 1613 
L 953 1613 
Q 991 1019 1311 708 
Q 1631 397 2203 397 
Q 2534 397 2845 478 
Q 3156 559 3463 722 
L 3463 178 
Q 3153 47 2828 -22 
Q 2503 -91 2169 -91 
Q 1331 -91 842 396 
Q 353 884 353 1716 
Q 353 2575 817 3079 
Q 1281 3584 2069 3584 
Q 2775 3584 3186 3129 
Q 3597 2675 3597 1894 
z
M 3022 2063 
Q 3016 2534 2758 2815 
Q 2500 3097 2075 3097 
Q 1594 3097 1305 2825 
Q 1016 2553 972 2059 
L 3022 2063 
z
" transform="scale(0.015625)"/>
     </defs>
     <use xlink:href="#DejaVuSans-4d"/>
     <use xlink:href="#DejaVuSans-69" transform="translate(86.279297 0)"/>
     <use xlink:href="#DejaVuSans-64" transform="translate(114.0625 0)"/>
     <use xlink:href="#DejaVuSans-64" transform="translate(177.539062 0)"/>
     <use xlink:href="#DejaVuSans-6c" transform="translate(241.015625 0)"/>
     <use xlink:href="#DejaVuSans-65" transform="translate(268.798828 0)"/>
    </g>
   </g>
   <g id="text_16">
    <!-- Late -->
    <g style="fill: #e64b35" transform="translate(210.625968 19.891476) scale(0.12 -0.12)">
     <defs>
      <path id="DejaVuSans-4c" d="M 628 4666 
L 1259 4666 
L 1259 531 
L 3531 531 
L 3531 0 
L 628 0 
L 628 4666 
z
" transform="scale(0.015625)"/>
     </defs>
     <use xlink:href="#DejaVuSans-4c"/>
     <use xlink:href="#DejaVuSans-61" transform="translate(55.712891 0)"/>
     <use xlink:href="#DejaVuSans-74" transform="translate(116.992188 0)"/>
     <use xlink:href="#DejaVuSans-65" transform="translate(156.201172 0)"/>
    </g>
   </g>
  </g>
 </g>
 <defs>
  <clipPath id="pdf1cbc521d">
   <rect x="52.679688" y="7.2" width="126.818182" height="138.6"/>
  </clipPath>
  <clipPath id="p4756fb59e1">
   <rect x="204.861506" y="7.2" width="126.818182" height="138.6"/>
  </clipPath>
 </defs>
</svg>
