<?xml version="1.0" encoding="UTF-8" standalone="no"?>
<!-- Created with Inkscape (http://www.inkscape.org/) -->

<svg
   width="127.86412mm"
   height="38.577881mm"
   viewBox="0 0 127.86412 38.577881"
   version="1.1"
   id="svg28828"
   inkscape:version="1.2.2 (b0a8486541, 2022-12-01)"
   sodipodi:docname="mouse-against-algorithm-2.svg"
   xmlns:inkscape="http://www.inkscape.org/namespaces/inkscape"
   xmlns:sodipodi="http://sodipodi.sourceforge.net/DTD/sodipodi-0.dtd"
   xmlns="http://www.w3.org/2000/svg"
   xmlns:svg="http://www.w3.org/2000/svg">
  <sodipodi:namedview
     id="namedview28830"
     pagecolor="#ffffff"
     bordercolor="#000000"
     borderopacity="0.25"
     inkscape:showpageshadow="2"
     inkscape:pageopacity="0.0"
     inkscape:pagecheckerboard="0"
     inkscape:deskcolor="#d1d1d1"
     inkscape:document-units="mm"
     showgrid="false"
     inkscape:zoom="1.5081116"
     inkscape:cx="292.08714"
     inkscape:cy="131.29002"
     inkscape:window-width="1751"
     inkscape:window-height="1379"
     inkscape:window-x="805"
     inkscape:window-y="59"
     inkscape:window-maximized="1"
     inkscape:current-layer="layer1" />
  <defs
     id="defs28825" />
  <g
     inkscape:label="Layer 1"
     inkscape:groupmode="layer"
     id="layer1"
     transform="translate(-29.533751,-114.73288)">
    <text
       xml:space="preserve"
       style="font-weight:bold;font-size:4.23333px;line-height:normal;font-family:sans-serif;-inkscape-font-specification:'sans-serif, Bold';text-decoration-color:#000000;fill:#4f6db8;fill-opacity:1;stroke:none;stroke-width:0.264583;stop-color:#000000"
       x="127.02619"
       y="117.95021"
       id="text1003-7-3"><tspan
         sodipodi:role="line"
         id="tspan1001-5-5"
         style="fill:#4f6db8;fill-opacity:1;stroke:none;stroke-width:0.264583"
         x="127.02619"
         y="117.95021">Algorithm 2</tspan></text>
    <path
       style="fill:#4f6db8;fill-opacity:1;stroke-width:0.0326378"
       d="m 136.07278,151.46782 c -0.5694,-0.15313 -1.04469,-0.63336 -1.19393,-1.20632 -0.0591,-0.22707 -0.0669,-0.84418 -0.0139,-1.09857 0.12866,-0.61699 0.67853,-1.16686 1.29552,-1.29553 0.10995,-0.0229 0.65984,-0.0361 1.5095,-0.0361 h 1.33654 v -0.94574 -0.94573 l -6.6173,-0.0106 c -5.30291,-0.008 -6.64973,-0.0191 -6.7805,-0.0531 -0.70406,-0.18336 -1.2741,-0.70966 -1.52336,-1.40648 l -0.0759,-0.21215 v -10.75413 c 0,-10.33813 0.002,-10.76165 0.0599,-10.94814 0.11942,-0.387 0.25251,-0.60794 0.54385,-0.90283 0.30132,-0.305 0.58248,-0.47084 0.96159,-0.56721 0.17237,-0.0438 1.89533,-0.0494 15.12826,-0.0494 h 14.93374 l 0.24412,0.0674 c 0.67795,0.18709 1.24171,0.74826 1.45696,1.45028 0.0578,0.18845 0.06,0.59997 0.06,10.91733 0,10.33635 -0.002,10.72854 -0.0603,10.91734 -0.2286,0.74197 -0.753,1.25582 -1.50628,1.47599 -0.18333,0.0536 -0.61803,0.0578 -6.81314,0.0665 l -6.6173,0.009 v 0.94386 0.94386 l 1.4279,0.0104 c 1.41841,0.0103 1.4292,0.0109 1.62372,0.0886 0.50641,0.20215 0.86173,0.55811 1.03157,1.03341 0.097,0.27133 0.12273,0.94959 0.0482,1.26688 -0.14273,0.60721 -0.60928,1.08568 -1.21162,1.24258 -0.28092,0.0732 -8.97536,0.0716 -9.24779,-0.002 z m 8.95287,-1.05671 c 0.14604,-0.0339 0.26225,-0.11218 0.35953,-0.2423 0.057,-0.0762 0.0687,-0.1461 0.0764,-0.45491 0.008,-0.32984 0.002,-0.37728 -0.0653,-0.49364 -0.0409,-0.0708 -0.1258,-0.15893 -0.18861,-0.19583 -0.11077,-0.0651 -0.1713,-0.0676 -2.00721,-0.0834 l -1.89299,-0.0163 -0.008,-2.04765 -0.008,-2.04766 7.13976,-0.008 c 6.75188,-0.008 7.14672,-0.0116 7.2678,-0.0663 0.21865,-0.0987 0.3989,-0.2719 0.50593,-0.4861 l 0.10038,-0.20087 v -10.56822 -10.56821 l -0.0695,-0.18584 c -0.0821,-0.21953 -0.26783,-0.4173 -0.50199,-0.53463 l -0.16283,-0.0816 h -14.8502 c -12.28595,0 -14.8714,0.008 -14.97304,0.0435 -0.19128,0.0677 -0.42224,0.27034 -0.5299,0.46493 l -0.0979,0.17698 -0.008,10.61907 -0.008,10.61907 0.0864,0.19257 c 0.0978,0.21803 0.2738,0.39397 0.49745,0.49738 l 0.15087,0.0698 7.13135,0.0163 7.13136,0.0163 v 2.03985 2.03986 l -1.91188,0.0163 -1.91188,0.0163 -0.11523,0.0879 c -0.13877,0.10587 -0.21038,0.24697 -0.24047,0.47376 -0.0615,0.4639 0.1129,0.81189 0.44644,0.89065 0.15541,0.0367 8.5008,0.0381 8.65879,0.002 z m -17.53276,-6.67746 c -0.24264,-0.0653 -0.34082,-0.12262 -0.52405,-0.30585 -0.1951,-0.1951 -0.29277,-0.38806 -0.33466,-0.66119 -0.02,-0.13053 -0.0284,-3.55591 -0.0226,-9.32853 0.008,-8.61898 0.0121,-9.13035 0.0664,-9.26912 0.0822,-0.21007 0.27808,-0.45627 0.46071,-0.57901 0.33072,-0.22228 -0.86142,-0.20433 13.54647,-0.2039 14.31588,3.4e-4 13.23496,-0.0152 13.56432,0.19613 0.27966,0.17946 0.46245,0.4678 0.51951,0.81947 0.0469,0.28903 0.0469,18.07757 0,18.36662 -0.0792,0.4879 -0.39754,0.84435 -0.86232,0.9654 -0.1739,0.0453 -1.55593,0.0504 -13.21797,0.0484 -11.13789,-0.002 -13.04868,-0.009 -13.19576,-0.0484 z m 26.1843,-10.1487 v -9.07329 h -12.97352 -12.97351 l -0.008,9.04066 c -0.005,4.97236 -0.002,9.05903 0.007,9.0815 0.0124,0.0326 2.62587,0.0392 12.98187,0.0327 l 12.96636,-0.008 z"
       id="path1213-2-7" />
    <text
       xml:space="preserve"
       style="font-weight:bold;font-size:4.23333px;line-height:normal;font-family:sans-serif;-inkscape-font-specification:'sans-serif, Bold';text-decoration-color:#000000;fill:#4f6db8;fill-opacity:1;stroke:none;stroke-width:0.264583;stop-color:#000000"
       x="133.47882"
       y="128.75388"
       id="text1003-7-0-0"><tspan
         sodipodi:role="line"
         id="tspan1001-5-9-62"
         style="fill:#4f6db8;fill-opacity:1;stroke:none;stroke-width:0.264583"
         x="133.47882"
         y="128.75388">Choice</tspan></text>
    <text
       xml:space="preserve"
       style="font-weight:bold;font-size:4.23333px;line-height:normal;font-family:sans-serif;-inkscape-font-specification:'sans-serif, Bold';text-decoration-color:#000000;fill:#4f6db8;fill-opacity:1;stroke:none;stroke-width:0.264583;stop-color:#000000"
       x="132.9881"
       y="137.07805"
       id="text1003-7-0-0-0"><tspan
         sodipodi:role="line"
         id="tspan1001-5-9-62-3"
         style="fill:#4f6db8;fill-opacity:1;stroke:none;stroke-width:0.264583"
         x="132.9881"
         y="137.07805">Reward</tspan></text>
    <text
       xml:space="preserve"
       style="font-style:normal;font-variant:normal;font-weight:normal;font-stretch:normal;font-size:4.23333px;line-height:normal;font-family:sans-serif;-inkscape-font-specification:'sans-serif, Normal';font-variant-ligatures:normal;font-variant-caps:normal;font-variant-numeric:normal;font-variant-east-asian:normal;text-decoration-color:#000000;fill:#4f6db8;fill-opacity:1;stroke:none;stroke-width:0.264583;stop-color:#000000"
       x="131.35159"
       y="133.07373"
       id="text1003-7-0-3-6"><tspan
         sodipodi:role="line"
         id="tspan1001-5-9-6-1"
         style="font-style:normal;font-variant:normal;font-weight:normal;font-stretch:normal;font-size:4.23333px;font-family:sans-serif;-inkscape-font-specification:'sans-serif, Normal';font-variant-ligatures:normal;font-variant-caps:normal;font-variant-numeric:normal;font-variant-east-asian:normal;fill:#4f6db8;fill-opacity:1;stroke:none;stroke-width:0.264583"
         x="131.35159"
         y="133.07373">LRLLRRLR</tspan></text>
    <text
       xml:space="preserve"
       style="font-style:normal;font-variant:normal;font-weight:normal;font-stretch:normal;font-size:4.23333px;line-height:normal;font-family:sans-serif;-inkscape-font-specification:'sans-serif, Normal';font-variant-ligatures:normal;font-variant-caps:normal;font-variant-numeric:normal;font-variant-east-asian:normal;text-decoration-color:#000000;fill:#4f6db8;fill-opacity:1;stroke:none;stroke-width:0.264583;stop-color:#000000"
       x="131.41119"
       y="141.485"
       id="text1003-7-0-3-6-0"><tspan
         sodipodi:role="line"
         id="tspan1001-5-9-6-1-6"
         style="font-style:normal;font-variant:normal;font-weight:normal;font-stretch:normal;font-size:4.23333px;font-family:sans-serif;-inkscape-font-specification:'sans-serif, Normal';font-variant-ligatures:normal;font-variant-caps:normal;font-variant-numeric:normal;font-variant-east-asian:normal;fill:#4f6db8;fill-opacity:1;stroke:none;stroke-width:0.264583"
         x="131.41119"
         y="141.485">10110010</tspan></text>
    <g
       id="g29099"
       transform="matrix(0.67597916,0,0,0.67597916,-23.434707,71.93931)">
      <path
         d="m 84.756376,112.3701 c 1.546611,1.61517 3.842795,2.78022 7.119544,2.88467 3.016974,0.0962 4.985452,0.40337 6.279819,0.79753 l 0.175227,-0.16395 c -4.246487,-1.88317 -10.124575,-0.85402 -13.020284,-4.04749 -3.377991,-3.72534 -2.028301,-8.67122 -2.028301,-8.67122 l -0.840985,-0.81386 c -0.87507,2.05411 -0.685613,6.88071 2.31498,10.01432 z"
         id="path2407"
         style="fill:#000000;fill-opacity:0.313725;fill-rule:evenodd;stroke:none;stroke-width:0.124;stroke-linecap:butt;stroke-linejoin:miter;stroke-miterlimit:4;stroke-dasharray:none;stroke-opacity:1" />
      <g
         id="g554"
         style="fill:#5a5a5a;fill-opacity:1;stroke-width:1.00118;stroke-dasharray:none"
         transform="matrix(-0.08461899,-0.09043957,0.09043957,-0.08461899,95.607108,125.99527)">
        <path
           d="m 227.1271,51.998016 c -1.88857,-23.2923 -78.06067,-85.61493 -144.789961,-22.66277 -66.72928,62.95215 -72.3949801,33.36464 -78.6901901,34.62368 -6.29522,1.25904 6.26581,14.89338 23.9218101,12.59043 43.43699,-5.66569 72.39498,-59.80455 112.684361,-59.17503 40.59797,0.63434 62.32264,35.88274 62.32264,35.88274 z"
           id="path3264"
           style="fill:#5a5a5a;fill-opacity:1;fill-rule:evenodd;stroke:#000000;stroke-width:1.00118;stroke-linecap:butt;stroke-linejoin:miter;stroke-miterlimit:4;stroke-dasharray:none;stroke-opacity:1" />
        <path
           d="m 317.14868,151.46242 c 0,56.98933 -61.81769,161.78704 -103.24154,161.78704 -42.58485,0 -103.24154,-104.79771 -103.24154,-161.78704 0,-56.989334 46.25221,-103.241544 103.24154,-103.241544 56.98933,0 103.24154,46.25221 103.24154,103.241544 z"
           id="path2383"
           style="fill:#5a5a5a;fill-opacity:1;fill-rule:nonzero;stroke:#000000;stroke-width:1.00118;stroke-linecap:round;stroke-linejoin:miter;stroke-miterlimit:4;stroke-dasharray:none;stroke-opacity:1" />
      </g>
      <path
         d="m 81.061578,86.047675 c 0.242963,-0.269441 0.498337,-0.52987 0.768092,-0.782264 5.154092,-4.822379 19.86328,-8.103706 23.36852,-4.357351 3.28659,3.512666 -0.0376,15.763637 -4.55836,21.54957 4.83534,-5.391041 8.63685,-18.640768 5.19726,-22.316962 -3.50525,-3.746355 -18.214431,-0.465027 -23.368522,4.357351 -0.519023,0.485619 -0.987251,1.003975 -1.40699,1.549656 z"
         id="path3397"
         style="fill:#000000;fill-opacity:0.313725;fill-rule:nonzero;stroke:none;stroke-width:0.124;stroke-linecap:round;stroke-linejoin:miter;stroke-miterlimit:4;stroke-dasharray:none;stroke-opacity:1" />
      <path
         d="m 92.510725,80.439659 c -2.24727,-1.973188 -5.669654,-1.956778 -7.898846,0.128947 -2.372767,2.220059 -2.496721,5.947988 -0.276659,8.320753 2.220058,2.372767 5.947984,2.49672 8.320752,0.276659 0.166772,-0.156039 0.323628,-0.321084 0.468148,-0.491022"
         id="path2386"
         style="fill:#5a5a5a;fill-opacity:1;fill-rule:nonzero;stroke:#000000;stroke-width:0.124;stroke-linecap:round;stroke-linejoin:miter;stroke-miterlimit:4;stroke-dasharray:none;stroke-opacity:1" />
      <path
         d="m 96.800205,92.507638 c -0.198329,0.143667 -0.390916,0.302152 -0.57437,0.473799 -2.372767,2.220059 -2.499364,5.945163 -0.279303,8.317923 2.220058,2.37277 5.947988,2.49672 8.320748,0.27666 2.28419,-2.137176 2.48558,-5.669427 0.51675,-8.04715"
         id="path2388"
         style="fill:#595959;fill-opacity:1;fill-rule:nonzero;stroke:#000000;stroke-width:0.124;stroke-linecap:round;stroke-linejoin:miter;stroke-miterlimit:4;stroke-dasharray:none;stroke-opacity:1" />
      <path
         d="m 102.91314,80.942018 c 0.55414,-0.518476 1.83811,-0.475784 2.15674,-0.135236 0.3586,0.383267 0.27594,1.624512 -0.2782,2.142988 -0.55414,0.518475 -0.91205,0.0099 -1.43053,-0.544234 -0.51847,-0.55414 -1.00215,-0.945043 -0.44801,-1.463518 z"
         id="path2390"
         style="fill:#000000;fill-opacity:1;fill-rule:nonzero;stroke:none;stroke-width:0.124;stroke-linecap:round;stroke-linejoin:miter;stroke-miterlimit:4;stroke-dasharray:none;stroke-opacity:1" />
      <path
         d="m 102.03618,87.435735 c 0.51881,-0.48576 1.23782,-0.560828 1.60569,-0.16766 0.36786,0.393166 0.24519,1.105595 -0.27395,1.591001 -0.51881,0.485761 -1.23782,0.560828 -1.60569,0.167662 -0.36786,-0.393168 -0.24519,-1.105597 0.27395,-1.591003 z"
         id="path2397"
         style="fill:#000000;fill-opacity:1;fill-rule:nonzero;stroke:#000000;stroke-width:0.124;stroke-linecap:round;stroke-linejoin:miter;stroke-miterlimit:4;stroke-dasharray:none;stroke-opacity:1" />
      <path
         d="m 97.241928,82.311706 c 0.518811,-0.485761 1.237823,-0.560828 1.605687,-0.16766 0.367863,0.393167 0.245192,1.105595 -0.27395,1.591001 -0.518811,0.48576 -1.237822,0.560829 -1.605685,0.167662 -0.367864,-0.393168 -0.245194,-1.105597 0.273948,-1.591003 z"
         id="path2399"
         style="fill:#000000;fill-opacity:1;fill-rule:nonzero;stroke:#000000;stroke-width:0.124;stroke-linecap:round;stroke-linejoin:miter;stroke-miterlimit:4;stroke-dasharray:none;stroke-opacity:1" />
      <path
         d="m 102.21726,88.067124 c 0.17808,-0.166762 0.40606,-0.212712 0.50908,-0.102607 0.10302,0.110105 0.042,0.334529 -0.1362,0.501143 -0.17808,0.166761 -0.40606,0.212712 -0.50908,0.102606 -0.10302,-0.110104 -0.042,-0.334528 0.1362,-0.501142 z"
         id="path2401"
         style="fill:#ffffff;fill-opacity:1;fill-rule:nonzero;stroke:none;stroke-width:0.124;stroke-linecap:round;stroke-linejoin:miter;stroke-miterlimit:4;stroke-dasharray:none;stroke-opacity:1" />
      <path
         d="m 97.641578,83.005526 c 0.178083,-0.166762 0.406063,-0.212713 0.509082,-0.102608 0.103019,0.110106 0.04203,0.33453 -0.136196,0.501143 -0.178084,0.166762 -0.406064,0.212712 -0.509083,0.102607 -0.103019,-0.110105 -0.04203,-0.334529 0.136197,-0.501142 z"
         id="path2403"
         style="fill:#ffffff;fill-opacity:1;fill-rule:nonzero;stroke:none;stroke-width:0.124;stroke-linecap:round;stroke-linejoin:miter;stroke-miterlimit:4;stroke-dasharray:none;stroke-opacity:1" />
      <path
         d="m 84.935109,88.306875 c 1.531438,1.591249 4.182055,1.914577 6.094645,0.848885 -1.207777,-0.291427 -2.396136,-0.96343 -3.362012,-1.995744 -1.941202,-2.074727 -2.374155,-4.943255 -1.224897,-6.974138 -2.925874,1.215765 -3.892872,5.603326 -1.679436,7.931821 0.05558,0.06507 0.112692,0.127858 0.171705,0.189172 z"
         id="path2427"
         style="fill:#000000;fill-opacity:0.313725;fill-rule:nonzero;stroke:none;stroke-width:0.124;stroke-linecap:round;stroke-linejoin:miter;stroke-miterlimit:4;stroke-dasharray:none;stroke-opacity:1" />
      <g
         transform="matrix(-0.11776765,-0.12586839,0.12714186,-0.11895917,56.172225,203.47139)"
         id="g3221"
         style="stroke:#000000;stroke-width:0.715763;stroke-linecap:round;stroke-miterlimit:4;stroke-dasharray:none;stroke-opacity:1">
        <path
           d="m 340.57116,672.76068 c 32.73512,-15.10851 47.84364,-1.25904 47.84364,-1.25904"
           id="path2445"
           style="fill:none;fill-opacity:0.75;fill-rule:evenodd;stroke:#000000;stroke-width:0.715763;stroke-linecap:round;stroke-linejoin:miter;stroke-miterlimit:4;stroke-dasharray:none;stroke-opacity:1" />
        <path
           d="m 337.42356,678.42638 c 23.92181,-15.10852 44.69602,9.44282 44.69602,9.44282"
           id="path2447"
           style="fill:none;fill-opacity:0.75;fill-rule:evenodd;stroke:#000000;stroke-width:0.715763;stroke-linecap:round;stroke-linejoin:miter;stroke-miterlimit:4;stroke-dasharray:none;stroke-opacity:1" />
        <path
           d="m 337.42356,681.57398 c 25.18086,-12.59043 29.58751,18.25613 29.58751,18.25613"
           id="path2449"
           style="fill:none;fill-opacity:0.75;fill-rule:evenodd;stroke:#000000;stroke-width:0.715763;stroke-linecap:round;stroke-linejoin:miter;stroke-miterlimit:4;stroke-dasharray:none;stroke-opacity:1" />
      </g>
      <g
         transform="matrix(0.11776765,0.12586839,0.12714186,-0.11895917,-20.518588,121.50535)"
         id="g3384"
         style="stroke:#000000;stroke-width:0.715763;stroke-linecap:round;stroke-miterlimit:4;stroke-dasharray:none;stroke-opacity:1">
        <path
           d="m 340.57116,672.76068 c 32.73512,-15.10851 47.84364,-1.25904 47.84364,-1.25904"
           id="path3386"
           style="fill:none;fill-opacity:0.75;fill-rule:evenodd;stroke:#000000;stroke-width:0.715763;stroke-linecap:round;stroke-linejoin:miter;stroke-miterlimit:4;stroke-dasharray:none;stroke-opacity:1" />
        <path
           d="m 337.42356,678.42638 c 23.92181,-15.10852 44.69602,9.44282 44.69602,9.44282"
           id="path3388"
           style="fill:none;fill-opacity:0.75;fill-rule:evenodd;stroke:#000000;stroke-width:0.715763;stroke-linecap:round;stroke-linejoin:miter;stroke-miterlimit:4;stroke-dasharray:none;stroke-opacity:1" />
        <path
           d="m 337.42356,681.57398 c 25.18086,-12.59043 29.58751,18.25613 29.58751,18.25613"
           id="path3390"
           style="fill:none;fill-opacity:0.75;fill-rule:evenodd;stroke:#000000;stroke-width:0.715763;stroke-linecap:round;stroke-linejoin:miter;stroke-miterlimit:4;stroke-dasharray:none;stroke-opacity:1" />
      </g>
      <path
         d="m 96.402291,100.56284 c -1.486007,-1.633758 -1.632554,-4.299998 -0.442171,-6.137576 0.210556,1.224469 0.802138,2.45484 1.768014,3.487155 1.941199,2.07473 4.774636,2.697271 6.877366,1.685451 -1.40743,2.83865 -5.849531,3.51207 -8.025856,1.14885 -0.06124,-0.0598 -0.120089,-0.12093 -0.177348,-0.18389 z"
         id="path3405"
         style="fill:#000000;fill-opacity:0.313725;fill-rule:nonzero;stroke:none;stroke-width:0.124;stroke-linecap:round;stroke-linejoin:miter;stroke-miterlimit:4;stroke-dasharray:none;stroke-opacity:1" />
    </g>
  </g>
</svg>
