<?xml version="1.0" encoding="utf-8" standalone="no"?>
<!DOCTYPE svg PUBLIC "-//W3C//DTD SVG 1.1//EN"
  "http://www.w3.org/Graphics/SVG/1.1/DTD/svg11.dtd">
<svg xmlns:xlink="http://www.w3.org/1999/xlink" width="513.914687pt" height="138.938369pt" viewBox="0 0 513.914687 138.938369" xmlns="http://www.w3.org/2000/svg" version="1.1">
 <metadata>
  <rdf:RDF xmlns:dc="http://purl.org/dc/elements/1.1/" xmlns:cc="http://creativecommons.org/ns#" xmlns:rdf="http://www.w3.org/1999/02/22-rdf-syntax-ns#">
   <cc:Work>
    <dc:type rdf:resource="http://purl.org/dc/dcmitype/StillImage"/>
    <dc:date>2026-04-15T15:11:02.487480</dc:date>
    <dc:format>image/svg+xml</dc:format>
    <dc:creator>
     <cc:Agent>
      <dc:title>Matplotlib v3.10.8, https://matplotlib.org/</dc:title>
     </cc:Agent>
    </dc:creator>
   </cc:Work>
  </rdf:RDF>
 </metadata>
 <defs>
  <style type="text/css">*{stroke-linejoin: round; stroke-linecap: butt}</style>
 </defs>
 <g id="figure_1">
  <g id="patch_1">
   <path d="M 0 138.938369 
L 513.914687 138.938369 
L 513.914687 0 
L 0 0 
L 0 138.938369 
z
" style="fill: none"/>
  </g>
  <g id="axes_1">
   <g id="patch_2">
    <path d="M 60.314688 93.728681 
L 506.714687 93.728681 
L 506.714687 10.568681 
L 60.314688 10.568681 
L 60.314688 93.728681 
z
" style="fill: none"/>
   </g>
   <g id="matplotlib.axis_1">
    <g id="xtick_1">
     <g id="line2d_1">
      <defs>
       <path id="m3378d4545e" d="M 0 0 
L 0 8.25 
" style="stroke: #000000; stroke-width: 1.4"/>
      </defs>
      <g>
       <use xlink:href="#m3378d4545e" x="80.605597" y="93.728681" style="stroke: #000000; stroke-width: 1.4"/>
      </g>
     </g>
     <g id="text_1">
      <!-- 1 -->
      <g transform="translate(76.788097 114.596806) scale(0.12 -0.12)">
       <defs>
        <path id="DejaVuSans-31" d="M 794 531 
L 1825 531 
L 1825 4091 
L 703 3866 
L 703 4441 
L 1819 4666 
L 2450 4666 
L 2450 531 
L 3481 531 
L 3481 0 
L 794 0 
L 794 531 
z
" transform="scale(0.015625)"/>
       </defs>
       <use xlink:href="#DejaVuSans-31"/>
      </g>
     </g>
    </g>
    <g id="xtick_2">
     <g id="line2d_2">
      <g>
       <use xlink:href="#m3378d4545e" x="171.914687" y="93.728681" style="stroke: #000000; stroke-width: 1.4"/>
      </g>
     </g>
     <g id="text_2">
      <!-- 10 -->
      <g transform="translate(164.279687 114.596806) scale(0.12 -0.12)">
       <defs>
        <path id="DejaVuSans-30" d="M 2034 4250 
Q 1547 4250 1301 3770 
Q 1056 3291 1056 2328 
Q 1056 1369 1301 889 
Q 1547 409 2034 409 
Q 2525 409 2770 889 
Q 3016 1369 3016 2328 
Q 3016 3291 2770 3770 
Q 2525 4250 2034 4250 
z
M 2034 4750 
Q 2819 4750 3233 4129 
Q 3647 3509 3647 2328 
Q 3647 1150 3233 529 
Q 2819 -91 2034 -91 
Q 1250 -91 836 529 
Q 422 1150 422 2328 
Q 422 3509 836 4129 
Q 1250 4750 2034 4750 
z
" transform="scale(0.015625)"/>
       </defs>
       <use xlink:href="#DejaVuSans-31"/>
       <use xlink:href="#DejaVuSans-30" transform="translate(63.623047 0)"/>
      </g>
     </g>
    </g>
    <g id="xtick_3">
     <g id="line2d_3">
      <g>
       <use xlink:href="#m3378d4545e" x="273.369233" y="93.728681" style="stroke: #000000; stroke-width: 1.4"/>
      </g>
     </g>
     <g id="text_3">
      <!-- 20 -->
      <g transform="translate(265.734233 114.596806) scale(0.12 -0.12)">
       <defs>
        <path id="DejaVuSans-32" d="M 1228 531 
L 3431 531 
L 3431 0 
L 469 0 
L 469 531 
Q 828 903 1448 1529 
Q 2069 2156 2228 2338 
Q 2531 2678 2651 2914 
Q 2772 3150 2772 3378 
Q 2772 3750 2511 3984 
Q 2250 4219 1831 4219 
Q 1534 4219 1204 4116 
Q 875 4013 500 3803 
L 500 4441 
Q 881 4594 1212 4672 
Q 1544 4750 1819 4750 
Q 2544 4750 2975 4387 
Q 3406 4025 3406 3419 
Q 3406 3131 3298 2873 
Q 3191 2616 2906 2266 
Q 2828 2175 2409 1742 
Q 1991 1309 1228 531 
z
" transform="scale(0.015625)"/>
       </defs>
       <use xlink:href="#DejaVuSans-32"/>
       <use xlink:href="#DejaVuSans-30" transform="translate(63.623047 0)"/>
      </g>
     </g>
    </g>
    <g id="xtick_4">
     <g id="line2d_4">
      <g>
       <use xlink:href="#m3378d4545e" x="374.823778" y="93.728681" style="stroke: #000000; stroke-width: 1.4"/>
      </g>
     </g>
     <g id="text_4">
      <!-- 30 -->
      <g transform="translate(367.188778 114.596806) scale(0.12 -0.12)">
       <defs>
        <path id="DejaVuSans-33" d="M 2597 2516 
Q 3050 2419 3304 2112 
Q 3559 1806 3559 1356 
Q 3559 666 3084 287 
Q 2609 -91 1734 -91 
Q 1441 -91 1130 -33 
Q 819 25 488 141 
L 488 750 
Q 750 597 1062 519 
Q 1375 441 1716 441 
Q 2309 441 2620 675 
Q 2931 909 2931 1356 
Q 2931 1769 2642 2001 
Q 2353 2234 1838 2234 
L 1294 2234 
L 1294 2753 
L 1863 2753 
Q 2328 2753 2575 2939 
Q 2822 3125 2822 3475 
Q 2822 3834 2567 4026 
Q 2313 4219 1838 4219 
Q 1578 4219 1281 4162 
Q 984 4106 628 3988 
L 628 4550 
Q 988 4650 1302 4700 
Q 1616 4750 1894 4750 
Q 2613 4750 3031 4423 
Q 3450 4097 3450 3541 
Q 3450 3153 3228 2886 
Q 3006 2619 2597 2516 
z
" transform="scale(0.015625)"/>
       </defs>
       <use xlink:href="#DejaVuSans-33"/>
       <use xlink:href="#DejaVuSans-30" transform="translate(63.623047 0)"/>
      </g>
     </g>
    </g>
    <g id="text_5">
     <!-- Sessions -->
     <g transform="translate(259.664453 129.450713) scale(0.11 -0.11)">
      <defs>
       <path id="DejaVuSans-53" d="M 3425 4513 
L 3425 3897 
Q 3066 4069 2747 4153 
Q 2428 4238 2131 4238 
Q 1616 4238 1336 4038 
Q 1056 3838 1056 3469 
Q 1056 3159 1242 3001 
Q 1428 2844 1947 2747 
L 2328 2669 
Q 3034 2534 3370 2195 
Q 3706 1856 3706 1288 
Q 3706 609 3251 259 
Q 2797 -91 1919 -91 
Q 1588 -91 1214 -16 
Q 841 59 441 206 
L 441 856 
Q 825 641 1194 531 
Q 1563 422 1919 422 
Q 2459 422 2753 634 
Q 3047 847 3047 1241 
Q 3047 1584 2836 1778 
Q 2625 1972 2144 2069 
L 1759 2144 
Q 1053 2284 737 2584 
Q 422 2884 422 3419 
Q 422 4038 858 4394 
Q 1294 4750 2059 4750 
Q 2388 4750 2728 4690 
Q 3069 4631 3425 4513 
z
" transform="scale(0.015625)"/>
       <path id="DejaVuSans-65" d="M 3597 1894 
L 3597 1613 
L 953 1613 
Q 991 1019 1311 708 
Q 1631 397 2203 397 
Q 2534 397 2845 478 
Q 3156 559 3463 722 
L 3463 178 
Q 3153 47 2828 -22 
Q 2503 -91 2169 -91 
Q 1331 -91 842 396 
Q 353 884 353 1716 
Q 353 2575 817 3079 
Q 1281 3584 2069 3584 
Q 2775 3584 3186 3129 
Q 3597 2675 3597 1894 
z
M 3022 2063 
Q 3016 2534 2758 2815 
Q 2500 3097 2075 3097 
Q 1594 3097 1305 2825 
Q 1016 2553 972 2059 
L 3022 2063 
z
" transform="scale(0.015625)"/>
       <path id="DejaVuSans-73" d="M 2834 3397 
L 2834 2853 
Q 2591 2978 2328 3040 
Q 2066 3103 1784 3103 
Q 1356 3103 1142 2972 
Q 928 2841 928 2578 
Q 928 2378 1081 2264 
Q 1234 2150 1697 2047 
L 1894 2003 
Q 2506 1872 2764 1633 
Q 3022 1394 3022 966 
Q 3022 478 2636 193 
Q 2250 -91 1575 -91 
Q 1294 -91 989 -36 
Q 684 19 347 128 
L 347 722 
Q 666 556 975 473 
Q 1284 391 1588 391 
Q 1994 391 2212 530 
Q 2431 669 2431 922 
Q 2431 1156 2273 1281 
Q 2116 1406 1581 1522 
L 1381 1569 
Q 847 1681 609 1914 
Q 372 2147 372 2553 
Q 372 3047 722 3315 
Q 1072 3584 1716 3584 
Q 2034 3584 2315 3537 
Q 2597 3491 2834 3397 
z
" transform="scale(0.015625)"/>
       <path id="DejaVuSans-69" d="M 603 3500 
L 1178 3500 
L 1178 0 
L 603 0 
L 603 3500 
z
M 603 4863 
L 1178 4863 
L 1178 4134 
L 603 4134 
L 603 4863 
z
" transform="scale(0.015625)"/>
       <path id="DejaVuSans-6f" d="M 1959 3097 
Q 1497 3097 1228 2736 
Q 959 2375 959 1747 
Q 959 1119 1226 758 
Q 1494 397 1959 397 
Q 2419 397 2687 759 
Q 2956 1122 2956 1747 
Q 2956 2369 2687 2733 
Q 2419 3097 1959 3097 
z
M 1959 3584 
Q 2709 3584 3137 3096 
Q 3566 2609 3566 1747 
Q 3566 888 3137 398 
Q 2709 -91 1959 -91 
Q 1206 -91 779 398 
Q 353 888 353 1747 
Q 353 2609 779 3096 
Q 1206 3584 1959 3584 
z
" transform="scale(0.015625)"/>
       <path id="DejaVuSans-6e" d="M 3513 2113 
L 3513 0 
L 2938 0 
L 2938 2094 
Q 2938 2591 2744 2837 
Q 2550 3084 2163 3084 
Q 1697 3084 1428 2787 
Q 1159 2491 1159 1978 
L 1159 0 
L 581 0 
L 581 3500 
L 1159 3500 
L 1159 2956 
Q 1366 3272 1645 3428 
Q 1925 3584 2291 3584 
Q 2894 3584 3203 3211 
Q 3513 2838 3513 2113 
z
" transform="scale(0.015625)"/>
      </defs>
      <use xlink:href="#DejaVuSans-53"/>
      <use xlink:href="#DejaVuSans-65" transform="translate(63.476562 0)"/>
      <use xlink:href="#DejaVuSans-73" transform="translate(125 0)"/>
      <use xlink:href="#DejaVuSans-73" transform="translate(177.099609 0)"/>
      <use xlink:href="#DejaVuSans-69" transform="translate(229.199219 0)"/>
      <use xlink:href="#DejaVuSans-6f" transform="translate(256.982422 0)"/>
      <use xlink:href="#DejaVuSans-6e" transform="translate(318.164062 0)"/>
      <use xlink:href="#DejaVuSans-73" transform="translate(381.542969 0)"/>
     </g>
    </g>
   </g>
   <g id="matplotlib.axis_2">
    <g id="ytick_1">
     <g id="line2d_5">
      <defs>
       <path id="md54576c498" d="M 0 0 
L -8.25 0 
" style="stroke: #000000; stroke-width: 1.4"/>
      </defs>
      <g>
       <use xlink:href="#md54576c498" x="60.314688" y="66.008681" style="stroke: #000000; stroke-width: 1.4"/>
      </g>
     </g>
     <g id="text_6">
      <!-- 0.25 -->
      <g transform="translate(21.845938 70.567744) scale(0.12 -0.12)">
       <defs>
        <path id="DejaVuSans-2e" d="M 684 794 
L 1344 794 
L 1344 0 
L 684 0 
L 684 794 
z
" transform="scale(0.015625)"/>
        <path id="DejaVuSans-35" d="M 691 4666 
L 3169 4666 
L 3169 4134 
L 1269 4134 
L 1269 2991 
Q 1406 3038 1543 3061 
Q 1681 3084 1819 3084 
Q 2600 3084 3056 2656 
Q 3513 2228 3513 1497 
Q 3513 744 3044 326 
Q 2575 -91 1722 -91 
Q 1428 -91 1123 -41 
Q 819 9 494 109 
L 494 744 
Q 775 591 1075 516 
Q 1375 441 1709 441 
Q 2250 441 2565 725 
Q 2881 1009 2881 1497 
Q 2881 1984 2565 2268 
Q 2250 2553 1709 2553 
Q 1456 2553 1204 2497 
Q 953 2441 691 2322 
L 691 4666 
z
" transform="scale(0.015625)"/>
       </defs>
       <use xlink:href="#DejaVuSans-30"/>
       <use xlink:href="#DejaVuSans-2e" transform="translate(63.623047 0)"/>
       <use xlink:href="#DejaVuSans-32" transform="translate(95.410156 0)"/>
       <use xlink:href="#DejaVuSans-35" transform="translate(159.033203 0)"/>
      </g>
     </g>
    </g>
    <g id="ytick_2">
     <g id="line2d_6">
      <g>
       <use xlink:href="#md54576c498" x="60.314688" y="19.808681" style="stroke: #000000; stroke-width: 1.4"/>
      </g>
     </g>
     <g id="text_7">
      <!-- 0.50 -->
      <g transform="translate(21.845938 24.367744) scale(0.12 -0.12)">
       <use xlink:href="#DejaVuSans-30"/>
       <use xlink:href="#DejaVuSans-2e" transform="translate(63.623047 0)"/>
       <use xlink:href="#DejaVuSans-35" transform="translate(95.410156 0)"/>
       <use xlink:href="#DejaVuSans-30" transform="translate(159.033203 0)"/>
      </g>
     </g>
    </g>
    <g id="text_8">
     <!-- Reward rate -->
     <g transform="translate(15.558281 85.551728) rotate(-90) scale(0.11 -0.11)">
      <defs>
       <path id="DejaVuSans-52" d="M 2841 2188 
Q 3044 2119 3236 1894 
Q 3428 1669 3622 1275 
L 4263 0 
L 3584 0 
L 2988 1197 
Q 2756 1666 2539 1819 
Q 2322 1972 1947 1972 
L 1259 1972 
L 1259 0 
L 628 0 
L 628 4666 
L 2053 4666 
Q 2853 4666 3247 4331 
Q 3641 3997 3641 3322 
Q 3641 2881 3436 2590 
Q 3231 2300 2841 2188 
z
M 1259 4147 
L 1259 2491 
L 2053 2491 
Q 2509 2491 2742 2702 
Q 2975 2913 2975 3322 
Q 2975 3731 2742 3939 
Q 2509 4147 2053 4147 
L 1259 4147 
z
" transform="scale(0.015625)"/>
       <path id="DejaVuSans-77" d="M 269 3500 
L 844 3500 
L 1563 769 
L 2278 3500 
L 2956 3500 
L 3675 769 
L 4391 3500 
L 4966 3500 
L 4050 0 
L 3372 0 
L 2619 2869 
L 1863 0 
L 1184 0 
L 269 3500 
z
" transform="scale(0.015625)"/>
       <path id="DejaVuSans-61" d="M 2194 1759 
Q 1497 1759 1228 1600 
Q 959 1441 959 1056 
Q 959 750 1161 570 
Q 1363 391 1709 391 
Q 2188 391 2477 730 
Q 2766 1069 2766 1631 
L 2766 1759 
L 2194 1759 
z
M 3341 1997 
L 3341 0 
L 2766 0 
L 2766 531 
Q 2569 213 2275 61 
Q 1981 -91 1556 -91 
Q 1019 -91 701 211 
Q 384 513 384 1019 
Q 384 1609 779 1909 
Q 1175 2209 1959 2209 
L 2766 2209 
L 2766 2266 
Q 2766 2663 2505 2880 
Q 2244 3097 1772 3097 
Q 1472 3097 1187 3025 
Q 903 2953 641 2809 
L 641 3341 
Q 956 3463 1253 3523 
Q 1550 3584 1831 3584 
Q 2591 3584 2966 3190 
Q 3341 2797 3341 1997 
z
" transform="scale(0.015625)"/>
       <path id="DejaVuSans-72" d="M 2631 2963 
Q 2534 3019 2420 3045 
Q 2306 3072 2169 3072 
Q 1681 3072 1420 2755 
Q 1159 2438 1159 1844 
L 1159 0 
L 581 0 
L 581 3500 
L 1159 3500 
L 1159 2956 
Q 1341 3275 1631 3429 
Q 1922 3584 2338 3584 
Q 2397 3584 2469 3576 
Q 2541 3569 2628 3553 
L 2631 2963 
z
" transform="scale(0.015625)"/>
       <path id="DejaVuSans-64" d="M 2906 2969 
L 2906 4863 
L 3481 4863 
L 3481 0 
L 2906 0 
L 2906 525 
Q 2725 213 2448 61 
Q 2172 -91 1784 -91 
Q 1150 -91 751 415 
Q 353 922 353 1747 
Q 353 2572 751 3078 
Q 1150 3584 1784 3584 
Q 2172 3584 2448 3432 
Q 2725 3281 2906 2969 
z
M 947 1747 
Q 947 1113 1208 752 
Q 1469 391 1925 391 
Q 2381 391 2643 752 
Q 2906 1113 2906 1747 
Q 2906 2381 2643 2742 
Q 2381 3103 1925 3103 
Q 1469 3103 1208 2742 
Q 947 2381 947 1747 
z
" transform="scale(0.015625)"/>
       <path id="DejaVuSans-20" transform="scale(0.015625)"/>
       <path id="DejaVuSans-74" d="M 1172 4494 
L 1172 3500 
L 2356 3500 
L 2356 3053 
L 1172 3053 
L 1172 1153 
Q 1172 725 1289 603 
Q 1406 481 1766 481 
L 2356 481 
L 2356 0 
L 1766 0 
Q 1100 0 847 248 
Q 594 497 594 1153 
L 594 3053 
L 172 3053 
L 172 3500 
L 594 3500 
L 594 4494 
L 1172 4494 
z
" transform="scale(0.015625)"/>
      </defs>
      <use xlink:href="#DejaVuSans-52"/>
      <use xlink:href="#DejaVuSans-65" transform="translate(64.982422 0)"/>
      <use xlink:href="#DejaVuSans-77" transform="translate(126.505859 0)"/>
      <use xlink:href="#DejaVuSans-61" transform="translate(208.292969 0)"/>
      <use xlink:href="#DejaVuSans-72" transform="translate(269.572266 0)"/>
      <use xlink:href="#DejaVuSans-64" transform="translate(308.935547 0)"/>
      <use xlink:href="#DejaVuSans-20" transform="translate(372.412109 0)"/>
      <use xlink:href="#DejaVuSans-72" transform="translate(404.199219 0)"/>
      <use xlink:href="#DejaVuSans-61" transform="translate(445.3125 0)"/>
      <use xlink:href="#DejaVuSans-74" transform="translate(506.591797 0)"/>
      <use xlink:href="#DejaVuSans-65" transform="translate(545.800781 0)"/>
     </g>
    </g>
   </g>
   <g id="line2d_7">
    <path d="M 80.605597 38.712697 
L 90.751051 47.507537 
L 100.896506 74.380493 
L 111.04196 32.397884 
L 121.187415 36.813559 
L 131.332869 25.006181 
L 141.478324 39.738093 
L 151.623778 36.025824 
L 161.769233 24.303816 
L 171.914687 38.697079 
L 182.060142 28.859251 
L 192.205597 30.341324 
L 202.351051 21.381447 
L 212.496506 29.693332 
L 222.64196 26.543375 
L 232.787415 28.359129 
L 242.932869 31.008681 
L 253.078324 23.885152 
L 263.223778 34.465233 
L 273.369233 25.111638 
" clip-path="url(#p6067004468)" style="fill: none; stroke: #808080; stroke-opacity: 0.3; stroke-width: 0.5; stroke-linecap: square"/>
   </g>
   <g id="line2d_8">
    <path d="M 80.605597 59.942015 
L 90.751051 54.892892 
L 100.896506 45.880916 
L 111.04196 32.963935 
L 121.187415 43.505067 
L 131.332869 64.135708 
L 141.478324 39.707847 
L 151.623778 20.018205 
L 161.769233 19.429993 
L 171.914687 37.816349 
L 182.060142 32.40062 
L 192.205597 25.993671 
L 202.351051 28.484738 
L 212.496506 26.422998 
L 222.64196 27.873519 
L 232.787415 31.200462 
L 242.932869 19.580533 
L 253.078324 28.277113 
L 263.223778 26.359428 
L 273.369233 30.707143 
" clip-path="url(#p6067004468)" style="fill: none; stroke: #808080; stroke-opacity: 0.3; stroke-width: 0.5; stroke-linecap: square"/>
   </g>
   <g id="line2d_9">
    <path d="M 80.605597 52.221247 
L 90.751051 57.405923 
L 100.896506 57.776681 
L 111.04196 57.648681 
L 121.187415 38.762527 
L 131.332869 42.345267 
L 141.478324 32.865203 
L 151.623778 52.808681 
L 161.769233 38.512005 
L 171.914687 63.876374 
L 182.060142 38.809245 
L 192.205597 33.106098 
L 202.351051 42.005329 
L 212.496506 46.323464 
L 222.64196 30.868141 
L 232.787415 38.589169 
L 242.932869 19.324912 
L 253.078324 45.58011 
L 263.223778 41.520157 
L 273.369233 29.596817 
L 283.514687 25.206619 
L 293.660142 24.916219 
L 303.805597 36.814816 
L 313.951051 39.928036 
L 324.096506 27.820242 
L 334.24196 33.084543 
" clip-path="url(#p6067004468)" style="fill: none; stroke: #808080; stroke-opacity: 0.3; stroke-width: 0.5; stroke-linecap: square"/>
   </g>
   <g id="line2d_10">
    <path d="M 80.605597 69.739116 
L 90.751051 68.377912 
L 100.896506 70.886942 
L 111.04196 77.558681 
L 121.187415 39.364237 
L 131.332869 59.465334 
L 141.478324 41.021133 
L 151.623778 36.999379 
L 161.769233 35.878246 
L 171.914687 22.177912 
L 182.060142 26.073088 
L 192.205597 31.701751 
L 202.351051 23.108681 
L 212.496506 22.877316 
L 222.64196 35.833774 
L 232.787415 15.226863 
L 242.932869 47.598155 
L 253.078324 29.98997 
L 263.223778 31.090077 
L 273.369233 23.026592 
L 283.514687 39.767081 
L 293.660142 32.295168 
L 303.805597 48.154498 
L 313.951051 34.108681 
L 324.096506 30.718561 
L 334.24196 43.012269 
" clip-path="url(#p6067004468)" style="fill: none; stroke: #808080; stroke-opacity: 0.3; stroke-width: 0.5; stroke-linecap: square"/>
   </g>
   <g id="line2d_11">
    <path d="M 80.605597 44.756681 
L 90.751051 60.59787 
L 100.896506 44.685604 
L 111.04196 36.576249 
L 121.187415 41.192121 
L 131.332869 38.437714 
L 141.478324 31.701751 
L 151.623778 15.110376 
L 161.769233 30.368681 
L 171.914687 43.932819 
L 182.060142 38.396436 
L 192.205597 24.916219 
L 202.351051 29.152501 
L 212.496506 33.833681 
L 222.64196 31.312296 
L 232.787415 41.726821 
L 242.932869 39.206424 
L 253.078324 41.434213 
L 263.223778 28.49056 
L 273.369233 32.72481 
L 283.514687 35.634096 
L 293.660142 29.008681 
L 303.805597 27.186628 
L 313.951051 34.351054 
L 324.096506 32.846718 
L 334.24196 27.961622 
L 344.387415 28.444195 
" clip-path="url(#p6067004468)" style="fill: none; stroke: #808080; stroke-opacity: 0.3; stroke-width: 0.5; stroke-linecap: square"/>
   </g>
   <g id="line2d_12">
    <path d="M 80.605597 39.692226 
L 90.751051 37.68278 
L 100.896506 28.208681 
L 111.04196 22.345152 
L 121.187415 26.608681 
L 131.332869 39.812805 
L 141.478324 38.733982 
L 151.623778 20.208681 
L 161.769233 28.124681 
L 171.914687 19.24181 
L 182.060142 22.608681 
L 192.205597 41.625348 
L 202.351051 24.671839 
L 212.496506 19.808681 
L 222.64196 33.256569 
L 232.787415 16.112681 
L 242.932869 36.290843 
L 253.078324 19.808681 
L 263.223778 13.00026 
L 273.369233 26.342015 
L 283.514687 20.87075 
L 293.660142 25.105497 
L 303.805597 15.162871 
L 313.951051 19.220146 
L 324.096506 30.960405 
L 334.24196 23.451692 
L 344.387415 20.188928 
L 354.532869 38.288681 
L 364.678324 17.715477 
" clip-path="url(#p6067004468)" style="fill: none; stroke: #808080; stroke-opacity: 0.3; stroke-width: 0.5; stroke-linecap: square"/>
   </g>
   <g id="line2d_13">
    <path d="M 80.605597 42.761547 
L 90.751051 45.898093 
L 100.896506 40.148304 
L 111.04196 38.150254 
L 121.187415 14.675348 
L 131.332869 31.024866 
L 141.478324 53.727669 
L 151.623778 41.912211 
L 161.769233 46.652718 
L 171.914687 47.418243 
L 182.060142 42.509027 
L 192.205597 27.300573 
L 202.351051 24.968072 
L 212.496506 40.186929 
L 222.64196 34.592681 
L 232.787415 29.45042 
L 242.932869 28.005455 
L 253.078324 34.302799 
L 263.223778 26.63981 
L 273.369233 34.711907 
L 283.514687 36.415133 
L 293.660142 25.119026 
L 303.805597 37.0358 
L 313.951051 29.390903 
L 324.096506 25.490235 
L 334.24196 17.659844 
L 344.387415 36.183365 
L 354.532869 23.180944 
" clip-path="url(#p6067004468)" style="fill: none; stroke: #808080; stroke-opacity: 0.3; stroke-width: 0.5; stroke-linecap: square"/>
   </g>
   <g id="line2d_14">
    <path d="M 80.605597 106.826157 
L 90.751051 31.766328 
L 100.896506 58.532333 
L 111.04196 64.997002 
L 121.187415 29.348504 
L 131.332869 28.823315 
L 141.478324 27.243164 
L 151.623778 28.624229 
L 161.769233 35.126328 
L 171.914687 19.808681 
L 182.060142 38.288681 
L 192.205597 33.283681 
L 202.351051 27.78566 
L 212.496506 54.551081 
L 222.64196 28.148031 
L 232.787415 37.529229 
L 242.932869 23.945995 
L 253.078324 36.263476 
L 263.223778 39.201274 
L 273.369233 53.788036 
L 283.514687 30.008681 
L 293.660142 28.947143 
L 303.805597 20.100164 
L 313.951051 51.093721 
L 324.096506 30.828865 
L 334.24196 35.921137 
L 344.387415 17.718184 
L 354.532869 37.332819 
L 364.678324 36.872096 
L 374.823778 33.960033 
L 384.969233 18.376123 
L 395.114687 32.813126 
L 405.260142 23.408681 
L 415.405597 34.471654 
L 425.551051 35.624897 
L 435.696506 29.022356 
" clip-path="url(#p6067004468)" style="fill: none; stroke: #808080; stroke-opacity: 0.3; stroke-width: 0.5; stroke-linecap: square"/>
   </g>
   <g id="line2d_15">
    <path d="M 80.605597 42.757701 
L 90.751051 47.610451 
L 100.896506 31.756957 
L 111.04196 52.420446 
L 121.187415 33.195254 
L 131.332869 47.557288 
L 141.478324 42.908681 
L 151.623778 47.024681 
L 161.769233 28.53939 
L 171.914687 27.971225 
L 182.060142 14.418681 
L 192.205597 25.201677 
L 202.351051 34.055377 
L 212.496506 26.88011 
L 222.64196 15.490924 
L 232.787415 37.133681 
L 242.932869 34.024066 
L 253.078324 21.244951 
L 263.223778 37.882527 
L 273.369233 38.288681 
L 283.514687 30.075348 
L 293.660142 21.585604 
L 303.805597 36.048681 
L 313.951051 22.393297 
L 324.096506 26.916374 
L 334.24196 32.364779 
L 344.387415 22.319551 
L 354.532869 12.853843 
L 364.678324 19.324912 
" clip-path="url(#p6067004468)" style="fill: none; stroke: #808080; stroke-opacity: 0.3; stroke-width: 0.5; stroke-linecap: square"/>
   </g>
   <g id="line2d_16">
    <path d="M 80.605597 58.900989 
L 90.751051 47.060294 
L 100.896506 39.65757 
L 111.04196 42.243249 
L 121.187415 39.277578 
L 131.332869 30.977912 
L 141.478324 31.283191 
L 151.623778 21.574286 
L 161.769233 51.760083 
L 171.914687 39.261313 
L 182.060142 23.079478 
L 192.205597 32.853387 
L 202.351051 32.247143 
L 212.496506 30.521725 
L 222.64196 30.376423 
L 232.787415 39.452776 
L 242.932869 29.106794 
L 253.078324 22.177912 
L 263.223778 49.176123 
L 273.369233 26.971472 
L 283.514687 25.130147 
L 293.660142 31.421796 
L 303.805597 32.735106 
L 313.951051 42.711245 
L 324.096506 22.126961 
L 334.24196 11.797121 
L 344.387415 20.714564 
L 354.532869 29.39736 
L 364.678324 18.313536 
L 374.823778 26.331034 
L 384.969233 31.298837 
L 395.114687 27.397087 
" clip-path="url(#p6067004468)" style="fill: none; stroke: #808080; stroke-opacity: 0.3; stroke-width: 0.5; stroke-linecap: square"/>
   </g>
   <g id="line2d_17">
    <path d="M 80.605597 47.858681 
L 90.751051 67.960794 
L 100.896506 52.041239 
L 111.04196 40.002059 
L 121.187415 48.834859 
L 131.332869 49.057602 
L 141.478324 49.660989 
L 151.623778 60.134454 
L 161.769233 47.563814 
L 171.914687 39.925286 
L 182.060142 37.133681 
L 192.205597 29.68349 
L 202.351051 27.27932 
L 212.496506 21.458681 
L 222.64196 24.977912 
L 232.787415 29.103356 
L 242.932869 33.683442 
L 253.078324 39.895638 
L 263.223778 33.724344 
L 273.369233 22.448681 
L 283.514687 26.476722 
L 293.660142 19.124237 
L 303.805597 24.092125 
L 313.951051 20.824066 
L 324.096506 26.661878 
L 334.24196 32.53443 
L 344.387415 18.25574 
L 354.532869 11.773899 
L 364.678324 25.79757 
L 374.823778 22.737788 
L 384.969233 17.742228 
L 395.114687 25.482365 
" clip-path="url(#p6067004468)" style="fill: none; stroke: #808080; stroke-opacity: 0.3; stroke-width: 0.5; stroke-linecap: square"/>
   </g>
   <g id="line2d_18">
    <path d="M 80.605597 40.010832 
L 90.751051 40.928681 
L 100.896506 45.848681 
L 111.04196 50.867505 
L 121.187415 55.019934 
L 131.332869 41.697989 
L 141.478324 43.61861 
L 151.623778 53.346459 
L 161.769233 62.276648 
L 171.914687 59.896066 
L 182.060142 45.543429 
L 192.205597 43.568681 
L 202.351051 34.75574 
L 212.496506 33.471839 
L 222.64196 32.263854 
L 232.787415 35.693427 
L 242.932869 32.038093 
L 253.078324 33.360681 
L 263.223778 23.892659 
L 273.369233 27.463119 
L 283.514687 26.964237 
L 293.660142 41.131758 
L 303.805597 34.325389 
L 313.951051 28.905054 
L 324.096506 31.286942 
L 334.24196 23.446477 
L 344.387415 62.262735 
L 354.532869 26.987629 
L 364.678324 27.760017 
L 374.823778 86.245045 
L 384.969233 29.899474 
L 395.114687 24.392493 
" clip-path="url(#p6067004468)" style="fill: none; stroke: #808080; stroke-opacity: 0.3; stroke-width: 0.5; stroke-linecap: square"/>
   </g>
   <g id="line2d_19">
    <path d="M 80.605597 57.268141 
L 90.751051 40.168003 
L 100.896506 46.521477 
L 111.04196 45.594728 
L 121.187415 43.697462 
L 131.332869 39.243368 
L 141.478324 43.623114 
L 151.623778 40.342015 
L 161.769233 48.258817 
L 171.914687 37.542015 
L 182.060142 29.200157 
L 192.205597 33.008681 
L 202.351051 41.513379 
L 212.496506 26.916374 
L 222.64196 24.467505 
L 232.787415 35.699127 
L 242.932869 25.626459 
L 253.078324 39.128681 
L 263.223778 22.084543 
L 273.369233 28.836267 
L 283.514687 39.39669 
L 293.660142 20.173899 
L 303.805597 21.429734 
L 313.951051 36.252749 
L 324.096506 26.292892 
L 334.24196 40.605262 
L 344.387415 21.187786 
L 354.532869 28.275614 
L 364.678324 19.150249 
" clip-path="url(#p6067004468)" style="fill: none; stroke: #808080; stroke-opacity: 0.3; stroke-width: 0.5; stroke-linecap: square"/>
   </g>
   <g id="line2d_20">
    <path d="M 80.605597 50.608681 
L 90.751051 77.762334 
L 100.896506 27.728681 
L 111.04196 47.93042 
L 121.187415 37.900989 
L 131.332869 46.422273 
L 141.478324 35.942015 
L 151.623778 49.159269 
L 161.769233 63.353509 
L 171.914687 49.608217 
L 182.060142 44.249972 
L 192.205597 40.133265 
L 202.351051 36.393297 
L 212.496506 41.100855 
L 222.64196 40.691653 
L 232.787415 29.048681 
L 242.932869 36.713122 
L 253.078324 36.492015 
L 263.223778 41.078115 
L 273.369233 41.066996 
L 283.514687 26.408681 
L 293.660142 30.737714 
L 303.805597 32.247143 
L 313.951051 33.454251 
L 324.096506 31.248681 
L 334.24196 24.603021 
L 344.387415 19.216374 
L 354.532869 33.066073 
" clip-path="url(#p6067004468)" style="fill: none; stroke: #808080; stroke-opacity: 0.3; stroke-width: 0.5; stroke-linecap: square"/>
   </g>
   <g id="line2d_21">
    <path d="M 80.605597 64.013863 
L 90.751051 36.365907 
L 100.896506 38.577431 
L 111.04196 31.465297 
L 121.187415 32.316978 
L 131.332869 23.939505 
L 141.478324 28.086647 
L 151.623778 36.455954 
L 161.769233 23.897177 
L 171.914687 51.189813 
L 182.060142 27.597187 
L 192.205597 25.465824 
L 202.351051 29.190835 
L 212.496506 34.968056 
L 222.64196 24.065592 
L 232.787415 32.012455 
L 242.932869 37.64026 
L 253.078324 31.799521 
L 263.223778 32.674504 
L 273.369233 26.129202 
L 283.514687 22.458144 
L 293.660142 30.929031 
L 303.805597 23.533057 
L 313.951051 29.885576 
L 324.096506 24.242462 
L 334.24196 26.694643 
L 344.387415 44.397772 
L 354.532869 33.096976 
L 364.678324 36.699004 
L 374.823778 27.001496 
L 384.969233 21.725694 
L 395.114687 33.108681 
L 405.260142 27.095747 
L 415.405597 22.800681 
" clip-path="url(#p6067004468)" style="fill: none; stroke: #808080; stroke-opacity: 0.3; stroke-width: 0.5; stroke-linecap: square"/>
   </g>
   <g id="line2d_22">
    <path d="M 80.605597 37.972784 
L 90.751051 41.206576 
L 100.896506 50.608681 
L 111.04196 45.796181 
L 121.187415 32.192186 
L 131.332869 38.098656 
L 141.478324 46.684028 
L 151.623778 35.425583 
L 161.769233 33.248681 
L 171.914687 23.354505 
L 182.060142 23.59945 
L 192.205597 26.181095 
L 202.351051 19.018938 
L 212.496506 33.485216 
L 222.64196 25.020989 
L 232.787415 40.038267 
L 242.932869 23.163137 
L 253.078324 21.727969 
L 263.223778 20.345891 
L 273.369233 31.692146 
L 283.514687 20.339716 
L 293.660142 26.149858 
L 303.805597 23.658681 
L 313.951051 31.412402 
L 324.096506 56.67293 
L 334.24196 23.419716 
L 344.387415 22.153859 
L 354.532869 29.661131 
L 364.678324 32.767218 
L 374.823778 17.149688 
L 384.969233 21.506319 
L 395.114687 16.052584 
" clip-path="url(#p6067004468)" style="fill: none; stroke: #808080; stroke-opacity: 0.3; stroke-width: 0.5; stroke-linecap: square"/>
   </g>
   <g id="line2d_23">
    <path d="M 80.605597 44.843164 
L 90.751051 41.131758 
L 100.896506 32.756452 
L 111.04196 35.765308 
L 121.187415 21.448918 
L 131.332869 33.519649 
L 141.478324 31.812307 
L 151.623778 25.616681 
L 161.769233 24.023418 
L 171.914687 45.645648 
L 182.060142 25.389889 
L 192.205597 36.497668 
L 202.351051 28.711007 
L 212.496506 28.337912 
L 222.64196 12.265824 
L 232.787415 24.008681 
L 242.932869 33.381563 
L 253.078324 24.382939 
L 263.223778 42.256139 
L 273.369233 19.255388 
L 283.514687 29.779904 
L 293.660142 30.151965 
L 303.805597 25.583681 
L 313.951051 32.901799 
L 324.096506 20.949422 
L 334.24196 22.019208 
L 344.387415 18.681852 
L 354.532869 38.091034 
" clip-path="url(#p6067004468)" style="fill: none; stroke: #808080; stroke-opacity: 0.3; stroke-width: 0.5; stroke-linecap: square"/>
   </g>
   <g id="line2d_24">
    <path d="M 80.605597 29.534997 
L 90.751051 36.066142 
L 100.896506 38.195583 
L 111.04196 35.261241 
L 121.187415 28.305233 
L 131.332869 46.723997 
L 141.478324 39.78706 
L 151.623778 33.221584 
L 161.769233 37.153391 
L 171.914687 28.048172 
L 182.060142 42.472832 
L 192.205597 26.808681 
L 202.351051 24.008681 
L 212.496506 43.472096 
L 222.64196 31.908681 
L 232.787415 49.527979 
L 242.932869 38.288681 
L 253.078324 41.967957 
L 263.223778 29.092892 
L 273.369233 39.273088 
L 283.514687 48.810141 
L 293.660142 20.514025 
L 303.805597 42.138681 
L 313.951051 47.293101 
L 324.096506 51.643975 
L 334.24196 25.286942 
L 344.387415 40.98853 
L 354.532869 26.097686 
L 364.678324 26.008042 
L 374.823778 27.363398 
L 384.969233 23.669405 
L 395.114687 26.057957 
L 405.260142 36.235348 
L 415.405597 40.014087 
L 425.551051 50.608681 
L 435.696506 29.896017 
L 445.84196 36.333618 
L 455.987415 33.6102 
L 466.132869 25.088681 
L 476.278324 20.697143 
L 486.423778 29.638468 
" clip-path="url(#p6067004468)" style="fill: none; stroke: #808080; stroke-opacity: 0.3; stroke-width: 0.5; stroke-linecap: square"/>
   </g>
   <g id="line2d_25">
    <path d="M 80.605597 49.564613 
L 90.751051 54.856957 
L 100.896506 72.721502 
L 111.04196 49.493749 
L 121.187415 52.467302 
L 131.332869 57.473197 
L 141.478324 47.018497 
L 151.623778 65.286806 
L 161.769233 54.6169 
L 171.914687 48.907024 
L 182.060142 48.23945 
L 192.205597 37.469623 
L 202.351051 44.685604 
L 212.496506 50.337316 
L 222.64196 27.882468 
L 232.787415 46.249297 
L 242.932869 62.473589 
L 253.078324 75.067505 
L 263.223778 72.608681 
L 273.369233 43.623114 
L 283.514687 57.942015 
L 293.660142 69.730956 
L 303.805597 57.426073 
L 313.951051 45.774251 
L 324.096506 51.075348 
L 334.24196 59.920309 
L 344.387415 51.03795 
L 354.532869 41.502594 
L 364.678324 42.150174 
L 374.823778 31.390854 
L 384.969233 35.421978 
L 395.114687 25.678799 
L 405.260142 27.843464 
L 415.405597 27.969365 
L 425.551051 25.641239 
" clip-path="url(#p6067004468)" style="fill: none; stroke: #808080; stroke-opacity: 0.3; stroke-width: 0.5; stroke-linecap: square"/>
   </g>
   <g id="line2d_26">
    <path d="M 80.605597 49.598845 
L 90.751051 33.615578 
L 100.896506 43.142015 
L 111.04196 49.314564 
L 121.187415 44.612221 
L 131.332869 45.92783 
L 141.478324 57.015081 
L 151.623778 49.459428 
L 161.769233 52.221247 
L 171.914687 44.917377 
L 182.060142 44.124471 
L 192.205597 47.264681 
L 202.351051 38.205997 
L 212.496506 27.882468 
L 222.64196 36.114564 
L 232.787415 52.041239 
L 242.932869 31.715898 
L 253.078324 26.971472 
L 263.223778 20.316374 
L 273.369233 30.13574 
L 283.514687 24.718826 
L 293.660142 23.902352 
L 303.805597 21.704066 
L 313.951051 22.305979 
L 324.096506 22.916938 
L 334.24196 21.672658 
L 344.387415 21.594188 
L 354.532869 18.798845 
L 364.678324 14.235348 
L 374.823778 30.280681 
L 384.969233 20.862674 
" clip-path="url(#p6067004468)" style="fill: none; stroke: #808080; stroke-opacity: 0.3; stroke-width: 0.5; stroke-linecap: square"/>
   </g>
   <g id="line2d_27">
    <path d="M 80.605597 89.108681 
L 90.751051 61.321725 
L 100.896506 40.038267 
L 111.04196 46.765174 
L 121.187415 64.160681 
L 131.332869 47.258054 
L 141.478324 104.378173 
L 151.623778 50.608681 
L 161.769233 43.048118 
L 171.914687 33.808681 
L 182.060142 43.352912 
L 192.205597 33.277156 
L 202.351051 41.411039 
L 212.496506 39.243368 
L 222.64196 36.976948 
L 232.787415 31.676571 
L 242.932869 23.752584 
L 253.078324 21.074435 
L 263.223778 39.622694 
L 273.369233 43.389931 
L 283.514687 26.149858 
L 293.660142 25.499004 
" clip-path="url(#p6067004468)" style="fill: none; stroke: #808080; stroke-opacity: 0.3; stroke-width: 0.5; stroke-linecap: square"/>
   </g>
   <g id="line2d_28">
    <path d="M 80.605597 99.163975 
L 90.751051 57.296681 
L 100.896506 42.383681 
L 111.04196 50.608681 
L 121.187415 46.097132 
L 131.332869 57.923681 
L 141.478324 44.470603 
L 151.623778 33.24128 
L 161.769233 30.949107 
L 171.914687 53.978484 
L 182.060142 49.117156 
L 192.205597 73.904681 
L 202.351051 33.396917 
L 212.496506 100.243214 
L 222.64196 59.547995 
L 232.787415 22.742015 
L 242.932869 32.128681 
L 253.078324 39.408681 
L 263.223778 52.352077 
L 273.369233 57.549526 
L 283.514687 52.595778 
L 293.660142 48.361471 
" clip-path="url(#p6067004468)" style="fill: none; stroke: #808080; stroke-opacity: 0.3; stroke-width: 0.5; stroke-linecap: square"/>
   </g>
   <g id="line2d_29">
    <path d="M 80.605597 55.266256 
L 90.751051 49.430964 
L 100.896506 46.476281 
L 111.04196 44.825747 
L 121.187415 38.627126 
L 131.332869 42.49419 
L 141.478324 43.228538 
L 151.623778 38.754761 
L 161.769233 39.059399 
L 171.914687 39.864686 
L 182.060142 34.793808 
L 192.205597 34.526694 
L 202.351051 31.201434 
L 212.496506 36.90985 
L 222.64196 30.476351 
L 232.787415 33.75556 
L 242.932869 32.668062 
L 253.078324 33.37463 
L 263.223778 34.448835 
L 273.369233 33.278741 
L 283.514687 32.257428 
L 293.660142 30.24027 
L 303.805597 31.076511 
L 313.951051 33.455906 
L 324.096506 31.705546 
L 334.24196 29.191982 
L 344.387415 29.084098 
L 354.532869 28.560342 
L 364.678324 26.39947 
L 374.823778 33.606669 
L 384.969233 24.500303 
L 395.114687 26.372886 
L 405.260142 28.64581 
L 415.405597 31.313947 
L 425.551051 37.291606 
L 435.696506 29.459187 
L 445.84196 36.333618 
L 455.987415 33.6102 
L 466.132869 25.088681 
L 476.278324 20.697143 
L 486.423778 29.638468 
" clip-path="url(#p6067004468)" style="fill: none; stroke: #000000; stroke-width: 2; stroke-linecap: square"/>
   </g>
   <g id="line2d_30">
    <path d="M 60.314688 19.808681 
L 506.714687 19.808681 
" clip-path="url(#p6067004468)" style="fill: none; stroke-dasharray: 7.4,3.2; stroke-dashoffset: 0; stroke: #000000; stroke-width: 2"/>
   </g>
   <g id="patch_3">
    <path d="M 60.314688 93.728681 
L 60.314688 10.568681 
" style="fill: none; stroke: #000000; stroke-width: 1.2; stroke-linejoin: miter; stroke-linecap: square"/>
   </g>
   <g id="patch_4">
    <path d="M 60.314688 93.728681 
L 506.714687 93.728681 
" style="fill: none; stroke: #000000; stroke-width: 1.2; stroke-linejoin: miter; stroke-linecap: square"/>
   </g>
   <g id="text_9">
    <!-- $n = 22$ mice -->
    <g transform="translate(417.434687 85.412681) scale(0.11 -0.11)">
     <defs>
      <path id="DejaVuSans-Oblique-6e" d="M 3566 2113 
L 3156 0 
L 2578 0 
L 2988 2091 
Q 3016 2238 3031 2350 
Q 3047 2463 3047 2528 
Q 3047 2791 2881 2937 
Q 2716 3084 2419 3084 
Q 1956 3084 1622 2776 
Q 1288 2469 1184 1941 
L 800 0 
L 225 0 
L 903 3500 
L 1478 3500 
L 1363 2950 
Q 1603 3253 1940 3418 
Q 2278 3584 2650 3584 
Q 3113 3584 3367 3334 
Q 3622 3084 3622 2631 
Q 3622 2519 3608 2391 
Q 3594 2263 3566 2113 
z
" transform="scale(0.015625)"/>
      <path id="DejaVuSans-3d" d="M 678 2906 
L 4684 2906 
L 4684 2381 
L 678 2381 
L 678 2906 
z
M 678 1631 
L 4684 1631 
L 4684 1100 
L 678 1100 
L 678 1631 
z
" transform="scale(0.015625)"/>
      <path id="DejaVuSans-6d" d="M 3328 2828 
Q 3544 3216 3844 3400 
Q 4144 3584 4550 3584 
Q 5097 3584 5394 3201 
Q 5691 2819 5691 2113 
L 5691 0 
L 5113 0 
L 5113 2094 
Q 5113 2597 4934 2840 
Q 4756 3084 4391 3084 
Q 3944 3084 3684 2787 
Q 3425 2491 3425 1978 
L 3425 0 
L 2847 0 
L 2847 2094 
Q 2847 2600 2669 2842 
Q 2491 3084 2119 3084 
Q 1678 3084 1418 2786 
Q 1159 2488 1159 1978 
L 1159 0 
L 581 0 
L 581 3500 
L 1159 3500 
L 1159 2956 
Q 1356 3278 1631 3431 
Q 1906 3584 2284 3584 
Q 2666 3584 2933 3390 
Q 3200 3197 3328 2828 
z
" transform="scale(0.015625)"/>
      <path id="DejaVuSans-63" d="M 3122 3366 
L 3122 2828 
Q 2878 2963 2633 3030 
Q 2388 3097 2138 3097 
Q 1578 3097 1268 2742 
Q 959 2388 959 1747 
Q 959 1106 1268 751 
Q 1578 397 2138 397 
Q 2388 397 2633 464 
Q 2878 531 3122 666 
L 3122 134 
Q 2881 22 2623 -34 
Q 2366 -91 2075 -91 
Q 1284 -91 818 406 
Q 353 903 353 1747 
Q 353 2603 823 3093 
Q 1294 3584 2113 3584 
Q 2378 3584 2631 3529 
Q 2884 3475 3122 3366 
z
" transform="scale(0.015625)"/>
     </defs>
     <use xlink:href="#DejaVuSans-Oblique-6e" transform="translate(0 0.015625)"/>
     <use xlink:href="#DejaVuSans-3d" transform="translate(82.861328 0.015625)"/>
     <use xlink:href="#DejaVuSans-32" transform="translate(186.132812 0.015625)"/>
     <use xlink:href="#DejaVuSans-32" transform="translate(249.755859 0.015625)"/>
     <use xlink:href="#DejaVuSans-20" transform="translate(313.378906 0.015625)"/>
     <use xlink:href="#DejaVuSans-6d" transform="translate(345.166016 0.015625)"/>
     <use xlink:href="#DejaVuSans-69" transform="translate(442.578125 0.015625)"/>
     <use xlink:href="#DejaVuSans-63" transform="translate(470.361328 0.015625)"/>
     <use xlink:href="#DejaVuSans-65" transform="translate(525.341797 0.015625)"/>
    </g>
   </g>
   <g id="text_10">
    <!-- optimum = 0.5 -->
    <g transform="translate(395.114687 15.558281) scale(0.11 -0.11)">
     <defs>
      <path id="DejaVuSans-70" d="M 1159 525 
L 1159 -1331 
L 581 -1331 
L 581 3500 
L 1159 3500 
L 1159 2969 
Q 1341 3281 1617 3432 
Q 1894 3584 2278 3584 
Q 2916 3584 3314 3078 
Q 3713 2572 3713 1747 
Q 3713 922 3314 415 
Q 2916 -91 2278 -91 
Q 1894 -91 1617 61 
Q 1341 213 1159 525 
z
M 3116 1747 
Q 3116 2381 2855 2742 
Q 2594 3103 2138 3103 
Q 1681 3103 1420 2742 
Q 1159 2381 1159 1747 
Q 1159 1113 1420 752 
Q 1681 391 2138 391 
Q 2594 391 2855 752 
Q 3116 1113 3116 1747 
z
" transform="scale(0.015625)"/>
      <path id="DejaVuSans-75" d="M 544 1381 
L 544 3500 
L 1119 3500 
L 1119 1403 
Q 1119 906 1312 657 
Q 1506 409 1894 409 
Q 2359 409 2629 706 
Q 2900 1003 2900 1516 
L 2900 3500 
L 3475 3500 
L 3475 0 
L 2900 0 
L 2900 538 
Q 2691 219 2414 64 
Q 2138 -91 1772 -91 
Q 1169 -91 856 284 
Q 544 659 544 1381 
z
M 1991 3584 
L 1991 3584 
z
" transform="scale(0.015625)"/>
     </defs>
     <use xlink:href="#DejaVuSans-6f"/>
     <use xlink:href="#DejaVuSans-70" transform="translate(61.181641 0)"/>
     <use xlink:href="#DejaVuSans-74" transform="translate(124.658203 0)"/>
     <use xlink:href="#DejaVuSans-69" transform="translate(163.867188 0)"/>
     <use xlink:href="#DejaVuSans-6d" transform="translate(191.650391 0)"/>
     <use xlink:href="#DejaVuSans-75" transform="translate(289.0625 0)"/>
     <use xlink:href="#DejaVuSans-6d" transform="translate(352.441406 0)"/>
     <use xlink:href="#DejaVuSans-20" transform="translate(449.853516 0)"/>
     <use xlink:href="#DejaVuSans-3d" transform="translate(481.640625 0)"/>
     <use xlink:href="#DejaVuSans-20" transform="translate(565.429688 0)"/>
     <use xlink:href="#DejaVuSans-30" transform="translate(597.216797 0)"/>
     <use xlink:href="#DejaVuSans-2e" transform="translate(660.839844 0)"/>
     <use xlink:href="#DejaVuSans-35" transform="translate(692.626953 0)"/>
    </g>
   </g>
  </g>
 </g>
 <defs>
  <clipPath id="p6067004468">
   <rect x="60.314688" y="10.568681" width="446.4" height="83.16"/>
  </clipPath>
 </defs>
</svg>
