<?xml version="1.0" encoding="utf-8" standalone="no"?>
<!DOCTYPE svg PUBLIC "-//W3C//DTD SVG 1.1//EN"
  "http://www.w3.org/Graphics/SVG/1.1/DTD/svg11.dtd">
<svg xmlns:xlink="http://www.w3.org/1999/xlink" width="246.841563pt" height="218.729688pt" viewBox="0 0 246.841563 218.729688" xmlns="http://www.w3.org/2000/svg" version="1.1">
 <metadata>
  <rdf:RDF xmlns:dc="http://purl.org/dc/elements/1.1/" xmlns:cc="http://creativecommons.org/ns#" xmlns:rdf="http://www.w3.org/1999/02/22-rdf-syntax-ns#">
   <cc:Work>
    <dc:type rdf:resource="http://purl.org/dc/dcmitype/StillImage"/>
    <dc:date>2026-03-22T11:49:40.915597</dc:date>
    <dc:format>image/svg+xml</dc:format>
    <dc:creator>
     <cc:Agent>
      <dc:title>Matplotlib v3.10.8, https://matplotlib.org/</dc:title>
     </cc:Agent>
    </dc:creator>
   </cc:Work>
  </rdf:RDF>
 </metadata>
 <defs>
  <style type="text/css">*{stroke-linejoin: round; stroke-linecap: butt}</style>
 </defs>
 <g id="figure_1">
  <g id="patch_1">
   <path d="M 0 218.729688 
L 246.841563 218.729688 
L 246.841563 0 
L 0 0 
L 0 218.729688 
z
" style="fill: none"/>
  </g>
  <g id="axes_1">
   <g id="patch_2">
    <path d="M 60.314687 173.52 
L 227.714687 173.52 
L 227.714687 7.2 
L 60.314687 7.2 
L 60.314687 173.52 
z
" style="fill: none"/>
   </g>
   <g id="line2d_1">
    <path d="M 144.869642 173.52 
L 144.869642 7.2 
" clip-path="url(#p0815ffd277)" style="fill: none; stroke-dasharray: 3.7,1.6; stroke-dashoffset: 0; stroke: #808080"/>
   </g>
   <g id="FillBetweenPolyCollection_1">
    <defs>
     <path id="m3b5325054f" d="M 67.923778 -119.250055 
L 67.923778 -110.622151 
L 69.633686 -116.3781 
L 71.343595 -121.075706 
L 73.053503 -127.112899 
L 74.763411 -130.628866 
L 76.473319 -132.569548 
L 78.183227 -135.941876 
L 79.893135 -137.854451 
L 81.603043 -138.691665 
L 83.312951 -136.349299 
L 85.022859 -132.536809 
L 86.732767 -124.288659 
L 88.442675 -116.484413 
L 90.152583 -111.445699 
L 91.862491 -107.443487 
L 93.572399 -102.78316 
L 95.282308 -99.644974 
L 96.992216 -97.265191 
L 98.702124 -97.336618 
L 100.412032 -96.77191 
L 102.12194 -96.898611 
L 103.831848 -97.606677 
L 105.541756 -97.009976 
L 107.251664 -97.991404 
L 108.961572 -99.52257 
L 110.67148 -100.498202 
L 112.381388 -100.349457 
L 114.091296 -100.175472 
L 115.801204 -101.941418 
L 117.511112 -102.637271 
L 119.22102 -105.199292 
L 120.930929 -104.875265 
L 122.640837 -105.460845 
L 124.350745 -107.113351 
L 126.060653 -106.51796 
L 127.770561 -108.540213 
L 129.480469 -108.925459 
L 131.190377 -111.888445 
L 132.900285 -115.093905 
L 134.610193 -121.291952 
L 136.320101 -129.881554 
L 138.030009 -143.329506 
L 139.739917 -170.085246 
L 141.449825 -175.269187 
L 143.159733 -156.191504 
L 144.869642 -127.495556 
L 146.57955 -128.286052 
L 148.289458 -152.646706 
L 149.999366 -154.344804 
L 151.709274 -144.186317 
L 153.419182 -140.942034 
L 155.12909 -144.539404 
L 156.838998 -141.799754 
L 158.548906 -136.10305 
L 160.258814 -133.263382 
L 161.968722 -128.831764 
L 163.67863 -123.041773 
L 165.388538 -120.317983 
L 167.098446 -117.143498 
L 168.808355 -113.199837 
L 170.518263 -109.007777 
L 172.228171 -107.320095 
L 173.938079 -105.244202 
L 175.647987 -103.463897 
L 177.357895 -100.650007 
L 179.067803 -99.014661 
L 180.777711 -97.450894 
L 182.487619 -96.459093 
L 184.197527 -92.5036 
L 185.907435 -90.830799 
L 187.617343 -90.504991 
L 189.327251 -87.793142 
L 191.037159 -85.68499 
L 192.747067 -83.830691 
L 194.456976 -81.041601 
L 196.166884 -79.912917 
L 197.876792 -78.251156 
L 199.5867 -76.190559 
L 201.296608 -73.894898 
L 203.006516 -72.19283 
L 204.716424 -69.766682 
L 206.426332 -68.63079 
L 208.13624 -65.510239 
L 209.846148 -64.447418 
L 211.556056 -62.009349 
L 213.265964 -59.742345 
L 214.975872 -57.411869 
L 216.68578 -55.608701 
L 218.395689 -54.12331 
L 220.105597 -52.769688 
L 220.105597 -75.986589 
L 220.105597 -75.986589 
L 218.395689 -76.98453 
L 216.68578 -78.739193 
L 214.975872 -80.70856 
L 213.265964 -84.091633 
L 211.556056 -84.813361 
L 209.846148 -87.022022 
L 208.13624 -87.677012 
L 206.426332 -90.696777 
L 204.716424 -91.913785 
L 203.006516 -95.460625 
L 201.296608 -96.563418 
L 199.5867 -98.665948 
L 197.876792 -100.883461 
L 196.166884 -102.977443 
L 194.456976 -104.492035 
L 192.747067 -107.33401 
L 191.037159 -109.291558 
L 189.327251 -110.752868 
L 187.617343 -112.354075 
L 185.907435 -113.779014 
L 184.197527 -116.305764 
L 182.487619 -119.862243 
L 180.777711 -120.277492 
L 179.067803 -122.571585 
L 177.357895 -124.027044 
L 175.647987 -126.328871 
L 173.938079 -128.184012 
L 172.228171 -130.409531 
L 170.518263 -131.55988 
L 168.808355 -135.075413 
L 167.098446 -139.509667 
L 165.388538 -142.28238 
L 163.67863 -143.202459 
L 161.968722 -151.013902 
L 160.258814 -156.260031 
L 158.548906 -157.204912 
L 156.838998 -163.078769 
L 155.12909 -168.22369 
L 153.419182 -165.293714 
L 151.709274 -163.685941 
L 149.999366 -176.449191 
L 148.289458 -178.862964 
L 146.57955 -147.711572 
L 144.869642 -147.62005 
L 143.159733 -182.974492 
L 141.449825 -203.969688 
L 139.739917 -197.561616 
L 138.030009 -169.472118 
L 136.320101 -152.132815 
L 134.610193 -141.921747 
L 132.900285 -134.00642 
L 131.190377 -130.43261 
L 129.480469 -126.444768 
L 127.770561 -124.942253 
L 126.060653 -121.939934 
L 124.350745 -122.273981 
L 122.640837 -120.721922 
L 120.930929 -120.100613 
L 119.22102 -119.660031 
L 117.511112 -116.823907 
L 115.801204 -116.498124 
L 114.091296 -114.858261 
L 112.381388 -114.716603 
L 110.67148 -115.062575 
L 108.961572 -113.87455 
L 107.251664 -112.78689 
L 105.541756 -111.442094 
L 103.831848 -112.318773 
L 102.12194 -111.779389 
L 100.412032 -111.611915 
L 98.702124 -112.427716 
L 96.992216 -113.036715 
L 95.282308 -115.396051 
L 93.572399 -118.888596 
L 91.862491 -122.695357 
L 90.152583 -125.903765 
L 88.442675 -132.187658 
L 86.732767 -140.173704 
L 85.022859 -147.813813 
L 83.312951 -151.513997 
L 81.603043 -153.632483 
L 79.893135 -152.968279 
L 78.183227 -149.928275 
L 76.473319 -145.263572 
L 74.763411 -142.605027 
L 73.053503 -137.924675 
L 71.343595 -131.759338 
L 69.633686 -126.690205 
L 67.923778 -119.250055 
z
"/>
    </defs>
    <g clip-path="url(#p0815ffd277)">
     <use xlink:href="#m3b5325054f" x="0" y="218.729688" style="fill: #f45b69; fill-opacity: 0.3"/>
    </g>
   </g>
   <g id="FillBetweenPolyCollection_2">
    <defs>
     <path id="m5a85b86449" d="M 67.923778 -113.835279 
L 67.923778 -103.089609 
L 69.633686 -108.310884 
L 71.343595 -113.201986 
L 73.053503 -119.209975 
L 74.763411 -124.786231 
L 76.473319 -128.939925 
L 78.183227 -132.45305 
L 79.893135 -134.801733 
L 81.603043 -136.089504 
L 83.312951 -138.740793 
L 85.022859 -137.347543 
L 86.732767 -131.739076 
L 88.442675 -126.739816 
L 90.152583 -121.766231 
L 91.862491 -118.371652 
L 93.572399 -116.229177 
L 95.282308 -115.191388 
L 96.992216 -114.860039 
L 98.702124 -115.030419 
L 100.412032 -115.955601 
L 102.12194 -116.454821 
L 103.831848 -118.143427 
L 105.541756 -120.312775 
L 107.251664 -121.10297 
L 108.961572 -123.436525 
L 110.67148 -125.423532 
L 112.381388 -126.785331 
L 114.091296 -127.833518 
L 115.801204 -127.622785 
L 117.511112 -129.804454 
L 119.22102 -130.020638 
L 120.930929 -131.75675 
L 122.640837 -131.856823 
L 124.350745 -131.425828 
L 126.060653 -131.772509 
L 127.770561 -132.30066 
L 129.480469 -133.007033 
L 131.190377 -135.504343 
L 132.900285 -137.018736 
L 134.610193 -139.452887 
L 136.320101 -143.661897 
L 138.030009 -152.959236 
L 139.739917 -171.65556 
L 141.449825 -170.62393 
L 143.159733 -149.418184 
L 144.869642 -117.602304 
L 146.57955 -118.389099 
L 148.289458 -145.594744 
L 149.999366 -148.451994 
L 151.709274 -137.418485 
L 153.419182 -135.605847 
L 155.12909 -138.433004 
L 156.838998 -137.763044 
L 158.548906 -132.300305 
L 160.258814 -130.450019 
L 161.968722 -125.324845 
L 163.67863 -122.194839 
L 165.388538 -120.770498 
L 167.098446 -118.801365 
L 168.808355 -114.650102 
L 170.518263 -113.608283 
L 172.228171 -111.9604 
L 173.938079 -109.994661 
L 175.647987 -107.646088 
L 177.357895 -107.455788 
L 179.067803 -105.57849 
L 180.777711 -103.818973 
L 182.487619 -102.343519 
L 184.197527 -101.462815 
L 185.907435 -100.33909 
L 187.617343 -97.955322 
L 189.327251 -95.996167 
L 191.037159 -94.897318 
L 192.747067 -94.125159 
L 194.456976 -92.253811 
L 196.166884 -90.497525 
L 197.876792 -88.695644 
L 199.5867 -86.396959 
L 201.296608 -84.862275 
L 203.006516 -83.447789 
L 204.716424 -81.471054 
L 206.426332 -79.041258 
L 208.13624 -77.242183 
L 209.846148 -75.68319 
L 211.556056 -74.216333 
L 213.265964 -70.820767 
L 214.975872 -69.151751 
L 216.68578 -68.588047 
L 218.395689 -66.962832 
L 220.105597 -63.860872 
L 220.105597 -93.731218 
L 220.105597 -93.731218 
L 218.395689 -96.250185 
L 216.68578 -97.784526 
L 214.975872 -98.352675 
L 213.265964 -99.636582 
L 211.556056 -102.729779 
L 209.846148 -103.872349 
L 208.13624 -105.390271 
L 206.426332 -106.389075 
L 204.716424 -108.605558 
L 203.006516 -110.645726 
L 201.296608 -112.599126 
L 199.5867 -113.558396 
L 197.876792 -114.834002 
L 196.166884 -116.596322 
L 194.456976 -119.137323 
L 192.747067 -120.592424 
L 191.037159 -121.085132 
L 189.327251 -121.189855 
L 187.617343 -123.317967 
L 185.907435 -126.331279 
L 184.197527 -127.284611 
L 182.487619 -126.846116 
L 180.777711 -129.090838 
L 179.067803 -131.520068 
L 177.357895 -133.549875 
L 175.647987 -132.333892 
L 173.938079 -134.30552 
L 172.228171 -137.015267 
L 170.518263 -137.079042 
L 168.808355 -137.652943 
L 167.098446 -142.103072 
L 165.388538 -144.270299 
L 163.67863 -144.403073 
L 161.968722 -147.494201 
L 160.258814 -154.003057 
L 158.548906 -155.220917 
L 156.838998 -160.434826 
L 155.12909 -163.432312 
L 153.419182 -161.946768 
L 151.709274 -158.959337 
L 149.999366 -170.583537 
L 148.289458 -170.633928 
L 146.57955 -139.785728 
L 144.869642 -139.699795 
L 143.159733 -173.777111 
L 141.449825 -194.691946 
L 139.739917 -189.87803 
L 138.030009 -168.48587 
L 136.320101 -160.082593 
L 134.610193 -156.114813 
L 132.900285 -152.222336 
L 131.190377 -149.460882 
L 129.480469 -147.710467 
L 127.770561 -146.555121 
L 126.060653 -145.963821 
L 124.350745 -145.479509 
L 122.640837 -144.777005 
L 120.930929 -144.97535 
L 119.22102 -144.088372 
L 117.511112 -143.644583 
L 115.801204 -141.794971 
L 114.091296 -142.734957 
L 112.381388 -141.523327 
L 110.67148 -139.918837 
L 108.961572 -138.072793 
L 107.251664 -135.434861 
L 105.541756 -135.263353 
L 103.831848 -132.641473 
L 102.12194 -132.074382 
L 100.412032 -132.013879 
L 98.702124 -131.199401 
L 96.992216 -130.342907 
L 95.282308 -131.384722 
L 93.572399 -133.178535 
L 91.862491 -135.72339 
L 90.152583 -139.186163 
L 88.442675 -144.77533 
L 86.732767 -150.443016 
L 85.022859 -156.287328 
L 83.312951 -157.936806 
L 81.603043 -154.562159 
L 79.893135 -153.006731 
L 78.183227 -148.921569 
L 76.473319 -144.70322 
L 74.763411 -139.778315 
L 73.053503 -132.597784 
L 71.343595 -125.558686 
L 69.633686 -120.201426 
L 67.923778 -113.835279 
z
"/>
    </defs>
    <g clip-path="url(#p0815ffd277)">
     <use xlink:href="#m5a85b86449" x="0" y="218.729688" style="fill-opacity: 0.3"/>
    </g>
   </g>
   <g id="FillBetweenPolyCollection_3">
    <defs>
     <path id="m58ec148ad1" d="M 67.923778 -106.420877 
L 67.923778 -99.278392 
L 69.633686 -106.85384 
L 71.343595 -113.476382 
L 73.053503 -119.412881 
L 74.763411 -124.157581 
L 76.473319 -125.425789 
L 78.183227 -132.490504 
L 79.893135 -134.385704 
L 81.603043 -134.475167 
L 83.312951 -132.642202 
L 85.022859 -128.176359 
L 86.732767 -119.190932 
L 88.442675 -111.09816 
L 90.152583 -104.636278 
L 91.862491 -100.851243 
L 93.572399 -96.818501 
L 95.282308 -94.664381 
L 96.992216 -93.420264 
L 98.702124 -93.607114 
L 100.412032 -92.881057 
L 102.12194 -92.369324 
L 103.831848 -91.437982 
L 105.541756 -91.111775 
L 107.251664 -90.218166 
L 108.961572 -92.600884 
L 110.67148 -92.358447 
L 112.381388 -92.819861 
L 114.091296 -93.48032 
L 115.801204 -97.989675 
L 117.511112 -95.965861 
L 119.22102 -99.204976 
L 120.930929 -97.987366 
L 122.640837 -99.07736 
L 124.350745 -99.418042 
L 126.060653 -99.518982 
L 127.770561 -98.629612 
L 129.480469 -100.923461 
L 131.190377 -103.033549 
L 132.900285 -104.94179 
L 134.610193 -111.906717 
L 136.320101 -120.529852 
L 138.030009 -133.389122 
L 139.739917 -156.115336 
L 141.449825 -159.614655 
L 143.159733 -139.236307 
L 144.869642 -111.378072 
L 146.57955 -110.136392 
L 148.289458 -134.812952 
L 149.999366 -136.808304 
L 151.709274 -128.110637 
L 153.419182 -127.697743 
L 155.12909 -130.110223 
L 156.838998 -128.49391 
L 158.548906 -124.1657 
L 160.258814 -122.639779 
L 161.968722 -116.29737 
L 163.67863 -113.428951 
L 165.388538 -108.546505 
L 167.098446 -106.584786 
L 168.808355 -105.149654 
L 170.518263 -101.282039 
L 172.228171 -101.901668 
L 173.938079 -97.773792 
L 175.647987 -96.531845 
L 177.357895 -95.680204 
L 179.067803 -92.457689 
L 180.777711 -92.329856 
L 182.487619 -91.438947 
L 184.197527 -88.770759 
L 185.907435 -85.880948 
L 187.617343 -86.581621 
L 189.327251 -86.492824 
L 191.037159 -85.15115 
L 192.747067 -82.381262 
L 194.456976 -81.489631 
L 196.166884 -79.062009 
L 197.876792 -78.734835 
L 199.5867 -76.106341 
L 201.296608 -74.086228 
L 203.006516 -73.339356 
L 204.716424 -72.178064 
L 206.426332 -68.518919 
L 208.13624 -67.697578 
L 209.846148 -68.846016 
L 211.556056 -65.513468 
L 213.265964 -62.211266 
L 214.975872 -62.747218 
L 216.68578 -60.461926 
L 218.395689 -61.094987 
L 220.105597 -58.643593 
L 220.105597 -77.829247 
L 220.105597 -77.829247 
L 218.395689 -79.865755 
L 216.68578 -78.56199 
L 214.975872 -81.786738 
L 213.265964 -80.831987 
L 211.556056 -83.525245 
L 209.846148 -86.975131 
L 208.13624 -87.240852 
L 206.426332 -87.905168 
L 204.716424 -92.998505 
L 203.006516 -94.265656 
L 201.296608 -93.728791 
L 199.5867 -96.484964 
L 197.876792 -100.744599 
L 196.166884 -99.554609 
L 194.456976 -102.763489 
L 192.747067 -102.03089 
L 191.037159 -106.673056 
L 189.327251 -108.194875 
L 187.617343 -106.87095 
L 185.907435 -107.094334 
L 184.197527 -111.254255 
L 182.487619 -114.840574 
L 180.777711 -116.251653 
L 179.067803 -116.394563 
L 177.357895 -120.295367 
L 175.647987 -119.282549 
L 173.938079 -118.201697 
L 172.228171 -122.243619 
L 170.518263 -123.909729 
L 168.808355 -126.020819 
L 167.098446 -128.4205 
L 165.388538 -130.273031 
L 163.67863 -134.828885 
L 161.968722 -138.723607 
L 160.258814 -144.82264 
L 158.548906 -146.64565 
L 156.838998 -149.047413 
L 155.12909 -153.821362 
L 153.419182 -153.250954 
L 151.709274 -148.580138 
L 149.999366 -159.236039 
L 148.289458 -160.545686 
L 146.57955 -127.193105 
L 144.869642 -131.334573 
L 143.159733 -164.519133 
L 141.449825 -188.932267 
L 139.739917 -183.359713 
L 138.030009 -154.449058 
L 136.320101 -137.808262 
L 134.610193 -128.698378 
L 132.900285 -119.037642 
L 131.190377 -117.729673 
L 129.480469 -114.627433 
L 127.770561 -113.474549 
L 126.060653 -112.501597 
L 124.350745 -112.538414 
L 122.640837 -112.35176 
L 120.930929 -111.074971 
L 119.22102 -112.767044 
L 117.511112 -108.777403 
L 115.801204 -108.453976 
L 114.091296 -106.261979 
L 112.381388 -105.269606 
L 110.67148 -105.463036 
L 108.961572 -105.289183 
L 107.251664 -102.099593 
L 105.541756 -102.168564 
L 103.831848 -102.258869 
L 102.12194 -102.940096 
L 100.412032 -103.86011 
L 98.702124 -105.853524 
L 96.992216 -105.99499 
L 95.282308 -107.875504 
L 93.572399 -109.678591 
L 91.862491 -113.976359 
L 90.152583 -116.084145 
L 88.442675 -122.849983 
L 86.732767 -130.771491 
L 85.022859 -139.533786 
L 83.312951 -142.462388 
L 81.603043 -143.206382 
L 79.893135 -143.836227 
L 78.183227 -141.397308 
L 76.473319 -133.539003 
L 74.763411 -130.736671 
L 73.053503 -128.925255 
L 71.343595 -122.856662 
L 69.633686 -115.450899 
L 67.923778 -106.420877 
z
"/>
    </defs>
    <g clip-path="url(#p0815ffd277)">
     <use xlink:href="#m58ec148ad1" x="0" y="218.729688" style="fill: #8b5cf6; fill-opacity: 0.3"/>
    </g>
   </g>
   <g id="matplotlib.axis_1">
    <g id="xtick_1">
     <g id="line2d_2">
      <defs>
       <path id="m3cd7e7acb6" d="M 0 0 
L 0 8.25 
" style="stroke: #000000; stroke-width: 1.4"/>
      </defs>
      <g>
       <use xlink:href="#m3cd7e7acb6" x="93.572399" y="173.52" style="stroke: #000000; stroke-width: 1.4"/>
      </g>
     </g>
     <g id="text_1">
      <!-- −1 -->
      <g transform="translate(84.727087 194.388125) scale(0.12 -0.12)">
       <defs>
        <path id="DejaVuSans-2212" d="M 678 2272 
L 4684 2272 
L 4684 1741 
L 678 1741 
L 678 2272 
z
" transform="scale(0.015625)"/>
        <path id="DejaVuSans-31" d="M 794 531 
L 1825 531 
L 1825 4091 
L 703 3866 
L 703 4441 
L 1819 4666 
L 2450 4666 
L 2450 531 
L 3481 531 
L 3481 0 
L 794 0 
L 794 531 
z
" transform="scale(0.015625)"/>
       </defs>
       <use xlink:href="#DejaVuSans-2212"/>
       <use xlink:href="#DejaVuSans-31" transform="translate(83.789062 0)"/>
      </g>
     </g>
    </g>
    <g id="xtick_2">
     <g id="line2d_3">
      <g>
       <use xlink:href="#m3cd7e7acb6" x="144.869642" y="173.52" style="stroke: #000000; stroke-width: 1.4"/>
      </g>
     </g>
     <g id="text_2">
      <!-- 0 -->
      <g transform="translate(141.052142 194.388125) scale(0.12 -0.12)">
       <defs>
        <path id="DejaVuSans-30" d="M 2034 4250 
Q 1547 4250 1301 3770 
Q 1056 3291 1056 2328 
Q 1056 1369 1301 889 
Q 1547 409 2034 409 
Q 2525 409 2770 889 
Q 3016 1369 3016 2328 
Q 3016 3291 2770 3770 
Q 2525 4250 2034 4250 
z
M 2034 4750 
Q 2819 4750 3233 4129 
Q 3647 3509 3647 2328 
Q 3647 1150 3233 529 
Q 2819 -91 2034 -91 
Q 1250 -91 836 529 
Q 422 1150 422 2328 
Q 422 3509 836 4129 
Q 1250 4750 2034 4750 
z
" transform="scale(0.015625)"/>
       </defs>
       <use xlink:href="#DejaVuSans-30"/>
      </g>
     </g>
    </g>
    <g id="xtick_3">
     <g id="line2d_4">
      <g>
       <use xlink:href="#m3cd7e7acb6" x="196.166884" y="173.52" style="stroke: #000000; stroke-width: 1.4"/>
      </g>
     </g>
     <g id="text_3">
      <!-- 1 -->
      <g transform="translate(192.349384 194.388125) scale(0.12 -0.12)">
       <use xlink:href="#DejaVuSans-31"/>
      </g>
     </g>
    </g>
    <g id="text_4">
     <!-- Time from first lick (s) -->
     <g transform="translate(83.601484 209.242031) scale(0.11 -0.11)">
      <defs>
       <path id="DejaVuSans-54" d="M -19 4666 
L 3928 4666 
L 3928 4134 
L 2272 4134 
L 2272 0 
L 1638 0 
L 1638 4134 
L -19 4134 
L -19 4666 
z
" transform="scale(0.015625)"/>
       <path id="DejaVuSans-69" d="M 603 3500 
L 1178 3500 
L 1178 0 
L 603 0 
L 603 3500 
z
M 603 4863 
L 1178 4863 
L 1178 4134 
L 603 4134 
L 603 4863 
z
" transform="scale(0.015625)"/>
       <path id="DejaVuSans-6d" d="M 3328 2828 
Q 3544 3216 3844 3400 
Q 4144 3584 4550 3584 
Q 5097 3584 5394 3201 
Q 5691 2819 5691 2113 
L 5691 0 
L 5113 0 
L 5113 2094 
Q 5113 2597 4934 2840 
Q 4756 3084 4391 3084 
Q 3944 3084 3684 2787 
Q 3425 2491 3425 1978 
L 3425 0 
L 2847 0 
L 2847 2094 
Q 2847 2600 2669 2842 
Q 2491 3084 2119 3084 
Q 1678 3084 1418 2786 
Q 1159 2488 1159 1978 
L 1159 0 
L 581 0 
L 581 3500 
L 1159 3500 
L 1159 2956 
Q 1356 3278 1631 3431 
Q 1906 3584 2284 3584 
Q 2666 3584 2933 3390 
Q 3200 3197 3328 2828 
z
" transform="scale(0.015625)"/>
       <path id="DejaVuSans-65" d="M 3597 1894 
L 3597 1613 
L 953 1613 
Q 991 1019 1311 708 
Q 1631 397 2203 397 
Q 2534 397 2845 478 
Q 3156 559 3463 722 
L 3463 178 
Q 3153 47 2828 -22 
Q 2503 -91 2169 -91 
Q 1331 -91 842 396 
Q 353 884 353 1716 
Q 353 2575 817 3079 
Q 1281 3584 2069 3584 
Q 2775 3584 3186 3129 
Q 3597 2675 3597 1894 
z
M 3022 2063 
Q 3016 2534 2758 2815 
Q 2500 3097 2075 3097 
Q 1594 3097 1305 2825 
Q 1016 2553 972 2059 
L 3022 2063 
z
" transform="scale(0.015625)"/>
       <path id="DejaVuSans-20" transform="scale(0.015625)"/>
       <path id="DejaVuSans-66" d="M 2375 4863 
L 2375 4384 
L 1825 4384 
Q 1516 4384 1395 4259 
Q 1275 4134 1275 3809 
L 1275 3500 
L 2222 3500 
L 2222 3053 
L 1275 3053 
L 1275 0 
L 697 0 
L 697 3053 
L 147 3053 
L 147 3500 
L 697 3500 
L 697 3744 
Q 697 4328 969 4595 
Q 1241 4863 1831 4863 
L 2375 4863 
z
" transform="scale(0.015625)"/>
       <path id="DejaVuSans-72" d="M 2631 2963 
Q 2534 3019 2420 3045 
Q 2306 3072 2169 3072 
Q 1681 3072 1420 2755 
Q 1159 2438 1159 1844 
L 1159 0 
L 581 0 
L 581 3500 
L 1159 3500 
L 1159 2956 
Q 1341 3275 1631 3429 
Q 1922 3584 2338 3584 
Q 2397 3584 2469 3576 
Q 2541 3569 2628 3553 
L 2631 2963 
z
" transform="scale(0.015625)"/>
       <path id="DejaVuSans-6f" d="M 1959 3097 
Q 1497 3097 1228 2736 
Q 959 2375 959 1747 
Q 959 1119 1226 758 
Q 1494 397 1959 397 
Q 2419 397 2687 759 
Q 2956 1122 2956 1747 
Q 2956 2369 2687 2733 
Q 2419 3097 1959 3097 
z
M 1959 3584 
Q 2709 3584 3137 3096 
Q 3566 2609 3566 1747 
Q 3566 888 3137 398 
Q 2709 -91 1959 -91 
Q 1206 -91 779 398 
Q 353 888 353 1747 
Q 353 2609 779 3096 
Q 1206 3584 1959 3584 
z
" transform="scale(0.015625)"/>
       <path id="DejaVuSans-73" d="M 2834 3397 
L 2834 2853 
Q 2591 2978 2328 3040 
Q 2066 3103 1784 3103 
Q 1356 3103 1142 2972 
Q 928 2841 928 2578 
Q 928 2378 1081 2264 
Q 1234 2150 1697 2047 
L 1894 2003 
Q 2506 1872 2764 1633 
Q 3022 1394 3022 966 
Q 3022 478 2636 193 
Q 2250 -91 1575 -91 
Q 1294 -91 989 -36 
Q 684 19 347 128 
L 347 722 
Q 666 556 975 473 
Q 1284 391 1588 391 
Q 1994 391 2212 530 
Q 2431 669 2431 922 
Q 2431 1156 2273 1281 
Q 2116 1406 1581 1522 
L 1381 1569 
Q 847 1681 609 1914 
Q 372 2147 372 2553 
Q 372 3047 722 3315 
Q 1072 3584 1716 3584 
Q 2034 3584 2315 3537 
Q 2597 3491 2834 3397 
z
" transform="scale(0.015625)"/>
       <path id="DejaVuSans-74" d="M 1172 4494 
L 1172 3500 
L 2356 3500 
L 2356 3053 
L 1172 3053 
L 1172 1153 
Q 1172 725 1289 603 
Q 1406 481 1766 481 
L 2356 481 
L 2356 0 
L 1766 0 
Q 1100 0 847 248 
Q 594 497 594 1153 
L 594 3053 
L 172 3053 
L 172 3500 
L 594 3500 
L 594 4494 
L 1172 4494 
z
" transform="scale(0.015625)"/>
       <path id="DejaVuSans-6c" d="M 603 4863 
L 1178 4863 
L 1178 0 
L 603 0 
L 603 4863 
z
" transform="scale(0.015625)"/>
       <path id="DejaVuSans-63" d="M 3122 3366 
L 3122 2828 
Q 2878 2963 2633 3030 
Q 2388 3097 2138 3097 
Q 1578 3097 1268 2742 
Q 959 2388 959 1747 
Q 959 1106 1268 751 
Q 1578 397 2138 397 
Q 2388 397 2633 464 
Q 2878 531 3122 666 
L 3122 134 
Q 2881 22 2623 -34 
Q 2366 -91 2075 -91 
Q 1284 -91 818 406 
Q 353 903 353 1747 
Q 353 2603 823 3093 
Q 1294 3584 2113 3584 
Q 2378 3584 2631 3529 
Q 2884 3475 3122 3366 
z
" transform="scale(0.015625)"/>
       <path id="DejaVuSans-6b" d="M 581 4863 
L 1159 4863 
L 1159 1991 
L 2875 3500 
L 3609 3500 
L 1753 1863 
L 3688 0 
L 2938 0 
L 1159 1709 
L 1159 0 
L 581 0 
L 581 4863 
z
" transform="scale(0.015625)"/>
       <path id="DejaVuSans-28" d="M 1984 4856 
Q 1566 4138 1362 3434 
Q 1159 2731 1159 2009 
Q 1159 1288 1364 580 
Q 1569 -128 1984 -844 
L 1484 -844 
Q 1016 -109 783 600 
Q 550 1309 550 2009 
Q 550 2706 781 3412 
Q 1013 4119 1484 4856 
L 1984 4856 
z
" transform="scale(0.015625)"/>
       <path id="DejaVuSans-29" d="M 513 4856 
L 1013 4856 
Q 1481 4119 1714 3412 
Q 1947 2706 1947 2009 
Q 1947 1309 1714 600 
Q 1481 -109 1013 -844 
L 513 -844 
Q 928 -128 1133 580 
Q 1338 1288 1338 2009 
Q 1338 2731 1133 3434 
Q 928 4138 513 4856 
z
" transform="scale(0.015625)"/>
      </defs>
      <use xlink:href="#DejaVuSans-54"/>
      <use xlink:href="#DejaVuSans-69" transform="translate(57.958984 0)"/>
      <use xlink:href="#DejaVuSans-6d" transform="translate(85.742188 0)"/>
      <use xlink:href="#DejaVuSans-65" transform="translate(183.154297 0)"/>
      <use xlink:href="#DejaVuSans-20" transform="translate(244.677734 0)"/>
      <use xlink:href="#DejaVuSans-66" transform="translate(276.464844 0)"/>
      <use xlink:href="#DejaVuSans-72" transform="translate(311.669922 0)"/>
      <use xlink:href="#DejaVuSans-6f" transform="translate(350.533203 0)"/>
      <use xlink:href="#DejaVuSans-6d" transform="translate(411.714844 0)"/>
      <use xlink:href="#DejaVuSans-20" transform="translate(509.126953 0)"/>
      <use xlink:href="#DejaVuSans-66" transform="translate(540.914062 0)"/>
      <use xlink:href="#DejaVuSans-69" transform="translate(576.119141 0)"/>
      <use xlink:href="#DejaVuSans-72" transform="translate(603.902344 0)"/>
      <use xlink:href="#DejaVuSans-73" transform="translate(645.015625 0)"/>
      <use xlink:href="#DejaVuSans-74" transform="translate(697.115234 0)"/>
      <use xlink:href="#DejaVuSans-20" transform="translate(736.324219 0)"/>
      <use xlink:href="#DejaVuSans-6c" transform="translate(768.111328 0)"/>
      <use xlink:href="#DejaVuSans-69" transform="translate(795.894531 0)"/>
      <use xlink:href="#DejaVuSans-63" transform="translate(823.677734 0)"/>
      <use xlink:href="#DejaVuSans-6b" transform="translate(878.658203 0)"/>
      <use xlink:href="#DejaVuSans-20" transform="translate(936.568359 0)"/>
      <use xlink:href="#DejaVuSans-28" transform="translate(968.355469 0)"/>
      <use xlink:href="#DejaVuSans-73" transform="translate(1007.369141 0)"/>
      <use xlink:href="#DejaVuSans-29" transform="translate(1059.46875 0)"/>
     </g>
    </g>
   </g>
   <g id="matplotlib.axis_2">
    <g id="ytick_1">
     <g id="line2d_5">
      <defs>
       <path id="mff19f47872" d="M 0 0 
L -8.25 0 
" style="stroke: #000000; stroke-width: 1.4"/>
      </defs>
      <g>
       <use xlink:href="#mff19f47872" x="60.314687" y="144.635079" style="stroke: #000000; stroke-width: 1.4"/>
      </g>
     </g>
     <g id="text_5">
      <!-- 0.25 -->
      <g transform="translate(21.845937 149.194141) scale(0.12 -0.12)">
       <defs>
        <path id="DejaVuSans-2e" d="M 684 794 
L 1344 794 
L 1344 0 
L 684 0 
L 684 794 
z
" transform="scale(0.015625)"/>
        <path id="DejaVuSans-32" d="M 1228 531 
L 3431 531 
L 3431 0 
L 469 0 
L 469 531 
Q 828 903 1448 1529 
Q 2069 2156 2228 2338 
Q 2531 2678 2651 2914 
Q 2772 3150 2772 3378 
Q 2772 3750 2511 3984 
Q 2250 4219 1831 4219 
Q 1534 4219 1204 4116 
Q 875 4013 500 3803 
L 500 4441 
Q 881 4594 1212 4672 
Q 1544 4750 1819 4750 
Q 2544 4750 2975 4387 
Q 3406 4025 3406 3419 
Q 3406 3131 3298 2873 
Q 3191 2616 2906 2266 
Q 2828 2175 2409 1742 
Q 1991 1309 1228 531 
z
" transform="scale(0.015625)"/>
        <path id="DejaVuSans-35" d="M 691 4666 
L 3169 4666 
L 3169 4134 
L 1269 4134 
L 1269 2991 
Q 1406 3038 1543 3061 
Q 1681 3084 1819 3084 
Q 2600 3084 3056 2656 
Q 3513 2228 3513 1497 
Q 3513 744 3044 326 
Q 2575 -91 1722 -91 
Q 1428 -91 1123 -41 
Q 819 9 494 109 
L 494 744 
Q 775 591 1075 516 
Q 1375 441 1709 441 
Q 2250 441 2565 725 
Q 2881 1009 2881 1497 
Q 2881 1984 2565 2268 
Q 2250 2553 1709 2553 
Q 1456 2553 1204 2497 
Q 953 2441 691 2322 
L 691 4666 
z
" transform="scale(0.015625)"/>
       </defs>
       <use xlink:href="#DejaVuSans-30"/>
       <use xlink:href="#DejaVuSans-2e" transform="translate(63.623047 0)"/>
       <use xlink:href="#DejaVuSans-32" transform="translate(95.410156 0)"/>
       <use xlink:href="#DejaVuSans-35" transform="translate(159.033203 0)"/>
      </g>
     </g>
    </g>
    <g id="ytick_2">
     <g id="line2d_6">
      <g>
       <use xlink:href="#mff19f47872" x="60.314687" y="111.89738" style="stroke: #000000; stroke-width: 1.4"/>
      </g>
     </g>
     <g id="text_6">
      <!-- 0.50 -->
      <g transform="translate(21.845937 116.456443) scale(0.12 -0.12)">
       <use xlink:href="#DejaVuSans-30"/>
       <use xlink:href="#DejaVuSans-2e" transform="translate(63.623047 0)"/>
       <use xlink:href="#DejaVuSans-35" transform="translate(95.410156 0)"/>
       <use xlink:href="#DejaVuSans-30" transform="translate(159.033203 0)"/>
      </g>
     </g>
    </g>
    <g id="ytick_3">
     <g id="line2d_7">
      <g>
       <use xlink:href="#mff19f47872" x="60.314687" y="79.159682" style="stroke: #000000; stroke-width: 1.4"/>
      </g>
     </g>
     <g id="text_7">
      <!-- 0.75 -->
      <g transform="translate(21.845937 83.718744) scale(0.12 -0.12)">
       <defs>
        <path id="DejaVuSans-37" d="M 525 4666 
L 3525 4666 
L 3525 4397 
L 1831 0 
L 1172 0 
L 2766 4134 
L 525 4134 
L 525 4666 
z
" transform="scale(0.015625)"/>
       </defs>
       <use xlink:href="#DejaVuSans-30"/>
       <use xlink:href="#DejaVuSans-2e" transform="translate(63.623047 0)"/>
       <use xlink:href="#DejaVuSans-37" transform="translate(95.410156 0)"/>
       <use xlink:href="#DejaVuSans-35" transform="translate(159.033203 0)"/>
      </g>
     </g>
    </g>
    <g id="ytick_4">
     <g id="line2d_8">
      <g>
       <use xlink:href="#mff19f47872" x="60.314687" y="46.421983" style="stroke: #000000; stroke-width: 1.4"/>
      </g>
     </g>
     <g id="text_8">
      <!-- 1.00 -->
      <g transform="translate(21.845937 50.981045) scale(0.12 -0.12)">
       <use xlink:href="#DejaVuSans-31"/>
       <use xlink:href="#DejaVuSans-2e" transform="translate(63.623047 0)"/>
       <use xlink:href="#DejaVuSans-30" transform="translate(95.410156 0)"/>
       <use xlink:href="#DejaVuSans-30" transform="translate(159.033203 0)"/>
      </g>
     </g>
    </g>
    <g id="ytick_5">
     <g id="line2d_9">
      <g>
       <use xlink:href="#mff19f47872" x="60.314687" y="13.684284" style="stroke: #000000; stroke-width: 1.4"/>
      </g>
     </g>
     <g id="text_9">
      <!-- 1.25 -->
      <g transform="translate(21.845937 18.243347) scale(0.12 -0.12)">
       <use xlink:href="#DejaVuSans-31"/>
       <use xlink:href="#DejaVuSans-2e" transform="translate(63.623047 0)"/>
       <use xlink:href="#DejaVuSans-32" transform="translate(95.410156 0)"/>
       <use xlink:href="#DejaVuSans-35" transform="translate(159.033203 0)"/>
      </g>
     </g>
    </g>
    <g id="text_10">
     <!-- Motion energy (z-scored) -->
     <g transform="translate(15.558281 159.097969) rotate(-90) scale(0.11 -0.11)">
      <defs>
       <path id="DejaVuSans-4d" d="M 628 4666 
L 1569 4666 
L 2759 1491 
L 3956 4666 
L 4897 4666 
L 4897 0 
L 4281 0 
L 4281 4097 
L 3078 897 
L 2444 897 
L 1241 4097 
L 1241 0 
L 628 0 
L 628 4666 
z
" transform="scale(0.015625)"/>
       <path id="DejaVuSans-6e" d="M 3513 2113 
L 3513 0 
L 2938 0 
L 2938 2094 
Q 2938 2591 2744 2837 
Q 2550 3084 2163 3084 
Q 1697 3084 1428 2787 
Q 1159 2491 1159 1978 
L 1159 0 
L 581 0 
L 581 3500 
L 1159 3500 
L 1159 2956 
Q 1366 3272 1645 3428 
Q 1925 3584 2291 3584 
Q 2894 3584 3203 3211 
Q 3513 2838 3513 2113 
z
" transform="scale(0.015625)"/>
       <path id="DejaVuSans-67" d="M 2906 1791 
Q 2906 2416 2648 2759 
Q 2391 3103 1925 3103 
Q 1463 3103 1205 2759 
Q 947 2416 947 1791 
Q 947 1169 1205 825 
Q 1463 481 1925 481 
Q 2391 481 2648 825 
Q 2906 1169 2906 1791 
z
M 3481 434 
Q 3481 -459 3084 -895 
Q 2688 -1331 1869 -1331 
Q 1566 -1331 1297 -1286 
Q 1028 -1241 775 -1147 
L 775 -588 
Q 1028 -725 1275 -790 
Q 1522 -856 1778 -856 
Q 2344 -856 2625 -561 
Q 2906 -266 2906 331 
L 2906 616 
Q 2728 306 2450 153 
Q 2172 0 1784 0 
Q 1141 0 747 490 
Q 353 981 353 1791 
Q 353 2603 747 3093 
Q 1141 3584 1784 3584 
Q 2172 3584 2450 3431 
Q 2728 3278 2906 2969 
L 2906 3500 
L 3481 3500 
L 3481 434 
z
" transform="scale(0.015625)"/>
       <path id="DejaVuSans-79" d="M 2059 -325 
Q 1816 -950 1584 -1140 
Q 1353 -1331 966 -1331 
L 506 -1331 
L 506 -850 
L 844 -850 
Q 1081 -850 1212 -737 
Q 1344 -625 1503 -206 
L 1606 56 
L 191 3500 
L 800 3500 
L 1894 763 
L 2988 3500 
L 3597 3500 
L 2059 -325 
z
" transform="scale(0.015625)"/>
       <path id="DejaVuSans-7a" d="M 353 3500 
L 3084 3500 
L 3084 2975 
L 922 459 
L 3084 459 
L 3084 0 
L 275 0 
L 275 525 
L 2438 3041 
L 353 3041 
L 353 3500 
z
" transform="scale(0.015625)"/>
       <path id="DejaVuSans-2d" d="M 313 2009 
L 1997 2009 
L 1997 1497 
L 313 1497 
L 313 2009 
z
" transform="scale(0.015625)"/>
       <path id="DejaVuSans-64" d="M 2906 2969 
L 2906 4863 
L 3481 4863 
L 3481 0 
L 2906 0 
L 2906 525 
Q 2725 213 2448 61 
Q 2172 -91 1784 -91 
Q 1150 -91 751 415 
Q 353 922 353 1747 
Q 353 2572 751 3078 
Q 1150 3584 1784 3584 
Q 2172 3584 2448 3432 
Q 2725 3281 2906 2969 
z
M 947 1747 
Q 947 1113 1208 752 
Q 1469 391 1925 391 
Q 2381 391 2643 752 
Q 2906 1113 2906 1747 
Q 2906 2381 2643 2742 
Q 2381 3103 1925 3103 
Q 1469 3103 1208 2742 
Q 947 2381 947 1747 
z
" transform="scale(0.015625)"/>
      </defs>
      <use xlink:href="#DejaVuSans-4d"/>
      <use xlink:href="#DejaVuSans-6f" transform="translate(86.279297 0)"/>
      <use xlink:href="#DejaVuSans-74" transform="translate(147.460938 0)"/>
      <use xlink:href="#DejaVuSans-69" transform="translate(186.669922 0)"/>
      <use xlink:href="#DejaVuSans-6f" transform="translate(214.453125 0)"/>
      <use xlink:href="#DejaVuSans-6e" transform="translate(275.634766 0)"/>
      <use xlink:href="#DejaVuSans-20" transform="translate(339.013672 0)"/>
      <use xlink:href="#DejaVuSans-65" transform="translate(370.800781 0)"/>
      <use xlink:href="#DejaVuSans-6e" transform="translate(432.324219 0)"/>
      <use xlink:href="#DejaVuSans-65" transform="translate(495.703125 0)"/>
      <use xlink:href="#DejaVuSans-72" transform="translate(557.226562 0)"/>
      <use xlink:href="#DejaVuSans-67" transform="translate(596.589844 0)"/>
      <use xlink:href="#DejaVuSans-79" transform="translate(660.066406 0)"/>
      <use xlink:href="#DejaVuSans-20" transform="translate(719.246094 0)"/>
      <use xlink:href="#DejaVuSans-28" transform="translate(751.033203 0)"/>
      <use xlink:href="#DejaVuSans-7a" transform="translate(790.046875 0)"/>
      <use xlink:href="#DejaVuSans-2d" transform="translate(842.537109 0)"/>
      <use xlink:href="#DejaVuSans-73" transform="translate(878.621094 0)"/>
      <use xlink:href="#DejaVuSans-63" transform="translate(930.720703 0)"/>
      <use xlink:href="#DejaVuSans-6f" transform="translate(985.701172 0)"/>
      <use xlink:href="#DejaVuSans-72" transform="translate(1046.882812 0)"/>
      <use xlink:href="#DejaVuSans-65" transform="translate(1085.746094 0)"/>
      <use xlink:href="#DejaVuSans-64" transform="translate(1147.269531 0)"/>
      <use xlink:href="#DejaVuSans-29" transform="translate(1210.746094 0)"/>
     </g>
    </g>
   </g>
   <g id="line2d_10">
    <path d="M 67.923778 103.793584 
L 69.633686 97.195535 
L 71.343595 92.312166 
L 73.053503 86.2109 
L 74.763411 82.112741 
L 76.473319 79.813128 
L 78.183227 75.794612 
L 79.893135 73.318323 
L 81.603043 72.567613 
L 83.312951 74.79804 
L 85.022859 78.554376 
L 86.732767 86.498506 
L 88.442675 94.393652 
L 90.152583 100.054956 
L 91.862491 103.660265 
L 93.572399 107.89381 
L 95.282308 111.209175 
L 96.992216 113.578735 
L 98.702124 113.847521 
L 100.412032 114.537775 
L 102.12194 114.390687 
L 103.831848 113.766962 
L 105.541756 114.503653 
L 107.251664 113.34054 
L 108.961572 112.031127 
L 110.67148 110.949299 
L 112.381388 111.196657 
L 114.091296 111.212821 
L 115.801204 109.509916 
L 117.511112 108.999098 
L 119.22102 106.300026 
L 120.930929 106.241749 
L 122.640837 105.638304 
L 124.350745 104.036022 
L 126.060653 104.500741 
L 127.770561 101.988454 
L 129.480469 101.044574 
L 131.190377 97.56916 
L 132.900285 94.179525 
L 134.610193 87.122838 
L 136.320101 77.722503 
L 138.030009 62.328875 
L 139.739917 34.906257 
L 141.449825 29.11025 
L 143.159733 49.14669 
L 144.869642 81.171884 
L 146.57955 80.730876 
L 148.289458 52.974853 
L 149.999366 53.33269 
L 151.709274 64.793558 
L 153.419182 65.611813 
L 155.12909 62.34814 
L 156.838998 66.290426 
L 158.548906 72.075706 
L 160.258814 73.967981 
L 161.968722 78.806855 
L 163.67863 85.607571 
L 165.388538 87.429506 
L 167.098446 90.403105 
L 168.808355 94.592062 
L 170.518263 98.445859 
L 172.228171 99.864874 
L 173.938079 102.015581 
L 175.647987 103.833303 
L 177.357895 106.391162 
L 179.067803 107.936565 
L 180.777711 109.865494 
L 182.487619 110.569019 
L 184.197527 114.325005 
L 185.907435 116.424781 
L 187.617343 117.300154 
L 189.327251 119.456683 
L 191.037159 121.241413 
L 192.747067 123.147337 
L 194.456976 125.96287 
L 196.166884 127.284507 
L 197.876792 129.162379 
L 199.5867 131.301434 
L 201.296608 133.500529 
L 203.006516 134.90296 
L 204.716424 137.889454 
L 206.426332 139.065904 
L 208.13624 142.136062 
L 209.846148 142.994967 
L 211.556056 145.318333 
L 213.265964 146.812698 
L 214.975872 149.669473 
L 216.68578 151.555741 
L 218.395689 153.175768 
L 220.105597 154.351549 
" clip-path="url(#p0815ffd277)" style="fill: none; stroke: #f45b69; stroke-width: 2; stroke-linecap: square"/>
   </g>
   <g id="line2d_11">
    <path d="M 67.923778 110.267243 
L 69.633686 104.473532 
L 71.343595 99.349351 
L 73.053503 92.825808 
L 74.763411 86.447415 
L 76.473319 81.908115 
L 78.183227 78.042378 
L 79.893135 74.825455 
L 81.603043 73.403856 
L 83.312951 70.390888 
L 85.022859 71.912252 
L 86.732767 77.638641 
L 88.442675 82.972115 
L 90.152583 88.253491 
L 91.862491 91.682167 
L 93.572399 94.025832 
L 95.282308 95.441632 
L 96.992216 96.128214 
L 98.702124 95.614778 
L 100.412032 94.744947 
L 102.12194 94.465086 
L 103.831848 93.337237 
L 105.541756 90.941624 
L 107.251664 90.460772 
L 108.961572 87.975029 
L 110.67148 86.058503 
L 112.381388 84.575358 
L 114.091296 83.44545 
L 115.801204 84.020809 
L 117.511112 82.005169 
L 119.22102 81.675183 
L 120.930929 80.363638 
L 122.640837 80.412774 
L 124.350745 80.277019 
L 126.060653 79.861522 
L 127.770561 79.301797 
L 129.480469 78.370937 
L 131.190377 76.247075 
L 132.900285 74.109152 
L 134.610193 70.945837 
L 136.320101 66.857443 
L 138.030009 58.007135 
L 139.739917 37.962892 
L 141.449825 36.07175 
L 143.159733 57.13204 
L 144.869642 90.078638 
L 146.57955 89.642274 
L 148.289458 60.615352 
L 149.999366 59.211922 
L 151.709274 70.540777 
L 153.419182 69.95338 
L 155.12909 67.79703 
L 156.838998 69.630752 
L 158.548906 74.969077 
L 160.258814 76.503149 
L 161.968722 82.320165 
L 163.67863 85.430732 
L 165.388538 86.209289 
L 167.098446 88.277469 
L 168.808355 92.578165 
L 170.518263 93.386025 
L 172.228171 94.241854 
L 173.938079 96.579597 
L 175.647987 98.739698 
L 177.357895 98.226856 
L 179.067803 100.180409 
L 180.777711 102.274782 
L 182.487619 104.13487 
L 184.197527 104.355975 
L 185.907435 105.394503 
L 187.617343 108.093043 
L 189.327251 110.136677 
L 191.037159 110.738463 
L 192.747067 111.370896 
L 194.456976 113.034121 
L 196.166884 115.182764 
L 197.876792 116.964865 
L 199.5867 118.75201 
L 201.296608 119.998987 
L 203.006516 121.68293 
L 204.716424 123.691382 
L 206.426332 126.014521 
L 208.13624 127.41346 
L 209.846148 128.951918 
L 211.556056 130.256632 
L 213.265964 133.501013 
L 214.975872 134.977474 
L 216.68578 135.543401 
L 218.395689 137.123179 
L 220.105597 139.933643 
" clip-path="url(#p0815ffd277)" style="fill: none; stroke: #000000; stroke-width: 2; stroke-linecap: square"/>
   </g>
   <g id="line2d_12">
    <path d="M 67.923778 115.880053 
L 69.633686 107.577318 
L 71.343595 100.563166 
L 73.053503 94.56062 
L 74.763411 91.282561 
L 76.473319 89.247291 
L 78.183227 81.785781 
L 79.893135 79.618722 
L 81.603043 79.888913 
L 83.312951 81.177392 
L 85.022859 84.874615 
L 86.732767 93.748476 
L 88.442675 101.755616 
L 90.152583 108.369476 
L 91.862491 111.315887 
L 93.572399 115.481142 
L 95.282308 117.459745 
L 96.992216 119.022061 
L 98.702124 118.999369 
L 100.412032 120.359104 
L 102.12194 121.074978 
L 103.831848 121.881262 
L 105.541756 122.089518 
L 107.251664 122.570808 
L 108.961572 119.784654 
L 110.67148 119.818946 
L 112.381388 119.684954 
L 114.091296 118.858538 
L 115.801204 115.507862 
L 117.511112 116.358055 
L 119.22102 112.743677 
L 120.930929 114.198519 
L 122.640837 113.015127 
L 124.350745 112.751459 
L 126.060653 112.719398 
L 127.770561 112.677607 
L 129.480469 110.954241 
L 131.190377 108.348077 
L 132.900285 106.739971 
L 134.610193 98.42714 
L 136.320101 89.56063 
L 138.030009 74.810598 
L 139.739917 48.992163 
L 141.449825 44.456227 
L 143.159733 66.851968 
L 144.869642 97.373365 
L 146.57955 100.064939 
L 148.289458 71.050369 
L 149.999366 70.707516 
L 151.709274 80.3843 
L 153.419182 78.255339 
L 155.12909 76.763895 
L 156.838998 79.959026 
L 158.548906 83.324013 
L 160.258814 84.998478 
L 161.968722 91.219199 
L 163.67863 94.600769 
L 165.388538 99.319919 
L 167.098446 101.227044 
L 168.808355 103.144451 
L 170.518263 106.133804 
L 172.228171 106.657044 
L 173.938079 110.741943 
L 175.647987 110.822491 
L 177.357895 110.741902 
L 179.067803 114.303561 
L 180.777711 114.438933 
L 182.487619 115.589927 
L 184.197527 118.717181 
L 185.907435 122.242047 
L 187.617343 122.003402 
L 189.327251 121.385838 
L 191.037159 122.817585 
L 192.747067 126.523611 
L 194.456976 126.603128 
L 196.166884 129.421379 
L 197.876792 128.98997 
L 199.5867 132.434035 
L 201.296608 134.822178 
L 203.006516 134.927181 
L 204.716424 136.141403 
L 206.426332 140.517644 
L 208.13624 141.260472 
L 209.846148 140.819114 
L 211.556056 144.210331 
L 213.265964 147.208061 
L 214.975872 146.46271 
L 216.68578 149.21773 
L 218.395689 148.249316 
L 220.105597 150.493268 
" clip-path="url(#p0815ffd277)" style="fill: none; stroke: #8b5cf6; stroke-width: 2; stroke-linecap: square"/>
   </g>
   <g id="patch_3">
    <path d="M 60.314687 173.52 
L 60.314687 7.2 
" style="fill: none; stroke: #000000; stroke-width: 1.2; stroke-linejoin: miter; stroke-linecap: square"/>
   </g>
   <g id="patch_4">
    <path d="M 60.314687 173.52 
L 227.714688 173.52 
" style="fill: none; stroke: #000000; stroke-width: 1.2; stroke-linejoin: miter; stroke-linecap: square"/>
   </g>
   <g id="text_11">
    <!-- Bias -->
    <g style="fill: #f45b69" transform="translate(177.494687 23.832) scale(0.1 -0.1)">
     <defs>
      <path id="DejaVuSans-42" d="M 1259 2228 
L 1259 519 
L 2272 519 
Q 2781 519 3026 730 
Q 3272 941 3272 1375 
Q 3272 1813 3026 2020 
Q 2781 2228 2272 2228 
L 1259 2228 
z
M 1259 4147 
L 1259 2741 
L 2194 2741 
Q 2656 2741 2882 2914 
Q 3109 3088 3109 3444 
Q 3109 3797 2882 3972 
Q 2656 4147 2194 4147 
L 1259 4147 
z
M 628 4666 
L 2241 4666 
Q 2963 4666 3353 4366 
Q 3744 4066 3744 3513 
Q 3744 3084 3544 2831 
Q 3344 2578 2956 2516 
Q 3422 2416 3680 2098 
Q 3938 1781 3938 1306 
Q 3938 681 3513 340 
Q 3088 0 2303 0 
L 628 0 
L 628 4666 
z
" transform="scale(0.015625)"/>
      <path id="DejaVuSans-61" d="M 2194 1759 
Q 1497 1759 1228 1600 
Q 959 1441 959 1056 
Q 959 750 1161 570 
Q 1363 391 1709 391 
Q 2188 391 2477 730 
Q 2766 1069 2766 1631 
L 2766 1759 
L 2194 1759 
z
M 3341 1997 
L 3341 0 
L 2766 0 
L 2766 531 
Q 2569 213 2275 61 
Q 1981 -91 1556 -91 
Q 1019 -91 701 211 
Q 384 513 384 1019 
Q 384 1609 779 1909 
Q 1175 2209 1959 2209 
L 2766 2209 
L 2766 2266 
Q 2766 2663 2505 2880 
Q 2244 3097 1772 3097 
Q 1472 3097 1187 3025 
Q 903 2953 641 2809 
L 641 3341 
Q 956 3463 1253 3523 
Q 1550 3584 1831 3584 
Q 2591 3584 2966 3190 
Q 3341 2797 3341 1997 
z
" transform="scale(0.015625)"/>
     </defs>
     <use xlink:href="#DejaVuSans-42"/>
     <use xlink:href="#DejaVuSans-69" transform="translate(68.603516 0)"/>
     <use xlink:href="#DejaVuSans-61" transform="translate(96.386719 0)"/>
     <use xlink:href="#DejaVuSans-73" transform="translate(157.666016 0)"/>
    </g>
   </g>
   <g id="text_12">
    <!-- Stochastic -->
    <g transform="translate(177.494687 32.148) scale(0.1 -0.1)">
     <defs>
      <path id="DejaVuSans-53" d="M 3425 4513 
L 3425 3897 
Q 3066 4069 2747 4153 
Q 2428 4238 2131 4238 
Q 1616 4238 1336 4038 
Q 1056 3838 1056 3469 
Q 1056 3159 1242 3001 
Q 1428 2844 1947 2747 
L 2328 2669 
Q 3034 2534 3370 2195 
Q 3706 1856 3706 1288 
Q 3706 609 3251 259 
Q 2797 -91 1919 -91 
Q 1588 -91 1214 -16 
Q 841 59 441 206 
L 441 856 
Q 825 641 1194 531 
Q 1563 422 1919 422 
Q 2459 422 2753 634 
Q 3047 847 3047 1241 
Q 3047 1584 2836 1778 
Q 2625 1972 2144 2069 
L 1759 2144 
Q 1053 2284 737 2584 
Q 422 2884 422 3419 
Q 422 4038 858 4394 
Q 1294 4750 2059 4750 
Q 2388 4750 2728 4690 
Q 3069 4631 3425 4513 
z
" transform="scale(0.015625)"/>
      <path id="DejaVuSans-68" d="M 3513 2113 
L 3513 0 
L 2938 0 
L 2938 2094 
Q 2938 2591 2744 2837 
Q 2550 3084 2163 3084 
Q 1697 3084 1428 2787 
Q 1159 2491 1159 1978 
L 1159 0 
L 581 0 
L 581 4863 
L 1159 4863 
L 1159 2956 
Q 1366 3272 1645 3428 
Q 1925 3584 2291 3584 
Q 2894 3584 3203 3211 
Q 3513 2838 3513 2113 
z
" transform="scale(0.015625)"/>
     </defs>
     <use xlink:href="#DejaVuSans-53"/>
     <use xlink:href="#DejaVuSans-74" transform="translate(63.476562 0)"/>
     <use xlink:href="#DejaVuSans-6f" transform="translate(102.685547 0)"/>
     <use xlink:href="#DejaVuSans-63" transform="translate(163.867188 0)"/>
     <use xlink:href="#DejaVuSans-68" transform="translate(218.847656 0)"/>
     <use xlink:href="#DejaVuSans-61" transform="translate(282.226562 0)"/>
     <use xlink:href="#DejaVuSans-73" transform="translate(343.505859 0)"/>
     <use xlink:href="#DejaVuSans-74" transform="translate(395.605469 0)"/>
     <use xlink:href="#DejaVuSans-69" transform="translate(434.814453 0)"/>
     <use xlink:href="#DejaVuSans-63" transform="translate(462.597656 0)"/>
    </g>
   </g>
   <g id="text_13">
    <!-- Block switch -->
    <g style="fill: #8b5cf6" transform="translate(177.494687 40.464) scale(0.1 -0.1)">
     <defs>
      <path id="DejaVuSans-77" d="M 269 3500 
L 844 3500 
L 1563 769 
L 2278 3500 
L 2956 3500 
L 3675 769 
L 4391 3500 
L 4966 3500 
L 4050 0 
L 3372 0 
L 2619 2869 
L 1863 0 
L 1184 0 
L 269 3500 
z
" transform="scale(0.015625)"/>
     </defs>
     <use xlink:href="#DejaVuSans-42"/>
     <use xlink:href="#DejaVuSans-6c" transform="translate(68.603516 0)"/>
     <use xlink:href="#DejaVuSans-6f" transform="translate(96.386719 0)"/>
     <use xlink:href="#DejaVuSans-63" transform="translate(157.568359 0)"/>
     <use xlink:href="#DejaVuSans-6b" transform="translate(212.548828 0)"/>
     <use xlink:href="#DejaVuSans-20" transform="translate(270.458984 0)"/>
     <use xlink:href="#DejaVuSans-73" transform="translate(302.246094 0)"/>
     <use xlink:href="#DejaVuSans-77" transform="translate(354.345703 0)"/>
     <use xlink:href="#DejaVuSans-69" transform="translate(436.132812 0)"/>
     <use xlink:href="#DejaVuSans-74" transform="translate(463.916016 0)"/>
     <use xlink:href="#DejaVuSans-63" transform="translate(503.125 0)"/>
     <use xlink:href="#DejaVuSans-68" transform="translate(558.105469 0)"/>
    </g>
   </g>
  </g>
 </g>
 <defs>
  <clipPath id="p0815ffd277">
   <rect x="60.314687" y="7.2" width="167.4" height="166.32"/>
  </clipPath>
 </defs>
</svg>
