<?xml version="1.0" encoding="utf-8" standalone="no"?>
<!DOCTYPE svg PUBLIC "-//W3C//DTD SVG 1.1//EN"
  "http://www.w3.org/Graphics/SVG/1.1/DTD/svg11.dtd">
<svg xmlns:xlink="http://www.w3.org/1999/xlink" width="239.206563pt" height="218.729688pt" viewBox="0 0 239.206563 218.729688" xmlns="http://www.w3.org/2000/svg" version="1.1">
 <metadata>
  <rdf:RDF xmlns:dc="http://purl.org/dc/elements/1.1/" xmlns:cc="http://creativecommons.org/ns#" xmlns:rdf="http://www.w3.org/1999/02/22-rdf-syntax-ns#">
   <cc:Work>
    <dc:type rdf:resource="http://purl.org/dc/dcmitype/StillImage"/>
    <dc:date>2026-03-24T17:40:32.259262</dc:date>
    <dc:format>image/svg+xml</dc:format>
    <dc:creator>
     <cc:Agent>
      <dc:title>Matplotlib v3.10.8, https://matplotlib.org/</dc:title>
     </cc:Agent>
    </dc:creator>
   </cc:Work>
  </rdf:RDF>
 </metadata>
 <defs>
  <style type="text/css">*{stroke-linejoin: round; stroke-linecap: butt}</style>
 </defs>
 <g id="figure_1">
  <g id="patch_1">
   <path d="M 0 218.729688 
L 239.206563 218.729688 
L 239.206563 -0 
L 0 -0 
L 0 218.729688 
z
" style="fill: none"/>
  </g>
  <g id="axes_1">
   <g id="patch_2">
    <path d="M 52.679688 173.52 
L 220.079688 173.52 
L 220.079688 7.2 
L 52.679688 7.2 
L 52.679688 173.52 
z
" style="fill: none"/>
   </g>
   <g id="line2d_1">
    <path d="M 85.794111 173.52 
L 85.794111 7.2 
" clip-path="url(#pd55766bed9)" style="fill: none; stroke-dasharray: 3.7,1.6; stroke-dashoffset: 0; stroke: #808080"/>
   </g>
   <g id="FillBetweenPolyCollection_1">
    <defs>
     <path id="md76b03ffdf" d="M 60.288778 -70.055681 
L 60.288778 -68.75197 
L 61.138956 -69.556721 
L 61.989134 -69.090144 
L 62.839312 -69.691398 
L 63.689489 -70.002745 
L 64.539667 -69.623949 
L 65.389845 -70.545972 
L 66.240023 -70.067066 
L 67.0902 -70.187457 
L 67.940378 -71.151083 
L 68.790556 -71.425409 
L 69.640734 -71.305737 
L 70.490911 -71.708281 
L 71.341089 -71.976346 
L 72.191267 -72.815048 
L 73.041445 -72.402297 
L 73.891622 -72.61755 
L 74.7418 -72.479367 
L 75.591978 -72.524165 
L 76.442156 -72.547817 
L 77.292334 -73.199482 
L 78.142511 -73.949327 
L 78.992689 -74.135373 
L 79.842867 -74.497688 
L 80.693045 -75.084804 
L 81.543222 -75.042203 
L 82.3934 -75.265744 
L 83.243578 -75.678208 
L 84.093756 -75.437736 
L 84.943933 -74.998586 
L 85.794111 -75.354178 
L 86.644289 -167.965867 
L 87.494467 -184.268295 
L 88.344644 -171.939147 
L 89.194822 -162.648699 
L 90.045 -154.152336 
L 90.895178 -145.702113 
L 91.745355 -136.240487 
L 92.595533 -127.846221 
L 93.445711 -121.927269 
L 94.295889 -116.89732 
L 95.146066 -113.256657 
L 95.996244 -109.78073 
L 96.846422 -106.613278 
L 97.6966 -104.988683 
L 98.546777 -104.005797 
L 99.396955 -103.722028 
L 100.247133 -103.147708 
L 101.097311 -103.706803 
L 101.947488 -103.901915 
L 102.797666 -105.005036 
L 103.647844 -105.622739 
L 104.498022 -106.474075 
L 105.348199 -107.092121 
L 106.198377 -107.8621 
L 107.048555 -108.86693 
L 107.898733 -109.367009 
L 108.74891 -110.584027 
L 109.599088 -111.408862 
L 110.449266 -111.221657 
L 111.299444 -111.515739 
L 112.149621 -111.498618 
L 112.999799 -111.670525 
L 113.849977 -113.935008 
L 114.700155 -116.221322 
L 115.550332 -118.229529 
L 116.40051 -119.971467 
L 117.250688 -121.511094 
L 118.100866 -123.072081 
L 118.951044 -124.046965 
L 119.801221 -126.40264 
L 120.651399 -128.503071 
L 121.501577 -130.667672 
L 122.351755 -131.731744 
L 123.201932 -132.559641 
L 124.05211 -133.592433 
L 124.902288 -134.680845 
L 125.752466 -135.058864 
L 126.602643 -134.114584 
L 127.452821 -132.472454 
L 128.302999 -130.135377 
L 129.153177 -128.987925 
L 130.003354 -128.240734 
L 130.853532 -127.46121 
L 131.70371 -125.326556 
L 132.553888 -123.925342 
L 133.404065 -121.903271 
L 134.254243 -120.408416 
L 135.104421 -118.802523 
L 135.954599 -116.904101 
L 136.804776 -115.621575 
L 137.654954 -113.451001 
L 138.505132 -112.195683 
L 139.35531 -110.627568 
L 140.205487 -108.403678 
L 141.055665 -107.8017 
L 141.905843 -106.639018 
L 142.756021 -105.572197 
L 143.606198 -103.986259 
L 144.456376 -102.974709 
L 145.306554 -101.644769 
L 146.156732 -100.434804 
L 147.006909 -99.552819 
L 147.857087 -98.965467 
L 148.707265 -97.098453 
L 149.557443 -95.921787 
L 150.40762 -94.676689 
L 151.257798 -93.119281 
L 152.107976 -92.364397 
L 152.958154 -90.849356 
L 153.808331 -90.079359 
L 154.658509 -88.414468 
L 155.508687 -88.089407 
L 156.358865 -86.178442 
L 157.209043 -85.527372 
L 158.05922 -83.666677 
L 158.909398 -82.710498 
L 159.759576 -81.330824 
L 160.609754 -80.187558 
L 161.459931 -79.628376 
L 162.310109 -78.758296 
L 163.160287 -76.919726 
L 164.010465 -76.504486 
L 164.860642 -75.002408 
L 165.71082 -74.645594 
L 166.560998 -73.13873 
L 167.411176 -71.820394 
L 168.261353 -71.221593 
L 169.111531 -71.227597 
L 169.961709 -69.925667 
L 170.811887 -69.689526 
L 171.662064 -70.698481 
L 172.512242 -72.088227 
L 173.36242 -73.495415 
L 174.212598 -75.316176 
L 175.062775 -77.108528 
L 175.912953 -78.519842 
L 176.763131 -80.015441 
L 177.613309 -81.875701 
L 178.463486 -82.800576 
L 179.313664 -83.85242 
L 180.163842 -85.479707 
L 181.01402 -86.751597 
L 181.864197 -87.750756 
L 182.714375 -89.122673 
L 183.564553 -89.703522 
L 184.414731 -89.266871 
L 185.264908 -88.006751 
L 186.115086 -86.988246 
L 186.965264 -84.980239 
L 187.815442 -83.126373 
L 188.665619 -80.965542 
L 189.515797 -79.152799 
L 190.365975 -78.458814 
L 191.216153 -77.403964 
L 192.06633 -76.381914 
L 192.916508 -75.162915 
L 193.766686 -73.411256 
L 194.616864 -72.681741 
L 195.467041 -72.493211 
L 196.317219 -71.532972 
L 197.167397 -71.050979 
L 198.017575 -70.59147 
L 198.867753 -69.713535 
L 199.71793 -69.256747 
L 200.568108 -68.53434 
L 201.418286 -67.821299 
L 202.268464 -67.900706 
L 203.118641 -68.193857 
L 203.968819 -67.123006 
L 204.818997 -66.065278 
L 205.669175 -65.479372 
L 206.519352 -65.094107 
L 207.36953 -64.533014 
L 208.219708 -64.227978 
L 209.069886 -63.426176 
L 209.920063 -63.307019 
L 210.770241 -62.720603 
L 211.620419 -62.363786 
L 212.470597 -62.190757 
L 212.470597 -78.609047 
L 212.470597 -78.609047 
L 211.620419 -78.978842 
L 210.770241 -79.532213 
L 209.920063 -80.865054 
L 209.069886 -80.982978 
L 208.219708 -81.874652 
L 207.36953 -82.306967 
L 206.519352 -83.022463 
L 205.669175 -83.556589 
L 204.818997 -83.843555 
L 203.968819 -84.232105 
L 203.118641 -84.857473 
L 202.268464 -85.100631 
L 201.418286 -85.20982 
L 200.568108 -85.754025 
L 199.71793 -86.952743 
L 198.867753 -87.397918 
L 198.017575 -87.901873 
L 197.167397 -88.060878 
L 196.317219 -88.515587 
L 195.467041 -89.261907 
L 194.616864 -89.601431 
L 193.766686 -90.587717 
L 192.916508 -92.195628 
L 192.06633 -93.5465 
L 191.216153 -94.022057 
L 190.365975 -95.292226 
L 189.515797 -96.219015 
L 188.665619 -98.288889 
L 187.815442 -100.252164 
L 186.965264 -102.193389 
L 186.115086 -104.231877 
L 185.264908 -105.082009 
L 184.414731 -106.136851 
L 183.564553 -106.362819 
L 182.714375 -105.855052 
L 181.864197 -104.453797 
L 181.01402 -103.574964 
L 180.163842 -102.573936 
L 179.313664 -100.896261 
L 178.463486 -99.75494 
L 177.613309 -98.729636 
L 176.763131 -96.966969 
L 175.912953 -95.138738 
L 175.062775 -93.366976 
L 174.212598 -91.02944 
L 173.36242 -89.442916 
L 172.512242 -87.66296 
L 171.662064 -85.876459 
L 170.811887 -85.040219 
L 169.961709 -85.246654 
L 169.111531 -86.045608 
L 168.261353 -85.844727 
L 167.411176 -86.34665 
L 166.560998 -87.814862 
L 165.71082 -89.246585 
L 164.860642 -89.553536 
L 164.010465 -90.700894 
L 163.160287 -91.189909 
L 162.310109 -92.414587 
L 161.459931 -93.537072 
L 160.609754 -94.144256 
L 159.759576 -95.445494 
L 158.909398 -96.68172 
L 158.05922 -97.238393 
L 157.209043 -98.965004 
L 156.358865 -99.718113 
L 155.508687 -101.583227 
L 154.658509 -102.158229 
L 153.808331 -104.401818 
L 152.958154 -104.67778 
L 152.107976 -106.338861 
L 151.257798 -107.28232 
L 150.40762 -108.421737 
L 149.557443 -109.700716 
L 148.707265 -111.023266 
L 147.857087 -112.542264 
L 147.006909 -113.51783 
L 146.156732 -114.833448 
L 145.306554 -115.892769 
L 144.456376 -116.674452 
L 143.606198 -117.742777 
L 142.756021 -119.361428 
L 141.905843 -120.767675 
L 141.055665 -122.079485 
L 140.205487 -122.58406 
L 139.35531 -124.940991 
L 138.505132 -125.955908 
L 137.654954 -127.3106 
L 136.804776 -129.480629 
L 135.954599 -130.831775 
L 135.104421 -132.750516 
L 134.254243 -134.472722 
L 133.404065 -136.143614 
L 132.553888 -137.701345 
L 131.70371 -138.686765 
L 130.853532 -141.22775 
L 130.003354 -141.746673 
L 129.153177 -142.374177 
L 128.302999 -143.278233 
L 127.452821 -145.535039 
L 126.602643 -147.488011 
L 125.752466 -148.128298 
L 124.902288 -147.816489 
L 124.05211 -145.987232 
L 123.201932 -144.824278 
L 122.351755 -143.543831 
L 121.501577 -141.403998 
L 120.651399 -139.16318 
L 119.801221 -137.149626 
L 118.951044 -134.993119 
L 118.100866 -133.525065 
L 117.250688 -131.953483 
L 116.40051 -130.86553 
L 115.550332 -128.693958 
L 114.700155 -126.652456 
L 113.849977 -123.80194 
L 112.999799 -120.957218 
L 112.149621 -120.83521 
L 111.299444 -120.459635 
L 110.449266 -120.067282 
L 109.599088 -119.788171 
L 108.74891 -118.645394 
L 107.898733 -117.815236 
L 107.048555 -117.266774 
L 106.198377 -115.75588 
L 105.348199 -115.560526 
L 104.498022 -115.132698 
L 103.647844 -114.408008 
L 102.797666 -113.995823 
L 101.947488 -113.587778 
L 101.097311 -113.736444 
L 100.247133 -113.533357 
L 99.396955 -113.862431 
L 98.546777 -114.529433 
L 97.6966 -115.664601 
L 96.846422 -117.016446 
L 95.996244 -120.665921 
L 95.146066 -123.661438 
L 94.295889 -127.13684 
L 93.445711 -131.575692 
L 92.595533 -137.593309 
L 91.745355 -145.739688 
L 90.895178 -156.676452 
L 90.045 -166.637345 
L 89.194822 -174.561498 
L 88.344644 -186.090499 
L 87.494467 -203.969688 
L 86.644289 -187.979784 
L 85.794111 -76.673514 
L 84.943933 -76.073486 
L 84.093756 -76.249064 
L 83.243578 -76.298117 
L 82.3934 -76.07408 
L 81.543222 -75.654011 
L 80.693045 -75.667502 
L 79.842867 -75.396946 
L 78.992689 -74.931008 
L 78.142511 -74.756315 
L 77.292334 -74.413887 
L 76.442156 -73.543679 
L 75.591978 -73.402865 
L 74.7418 -73.293295 
L 73.891622 -73.3636 
L 73.041445 -73.159175 
L 72.191267 -73.639083 
L 71.341089 -72.402995 
L 70.490911 -72.410254 
L 69.640734 -71.765609 
L 68.790556 -72.307039 
L 67.940378 -71.908444 
L 67.0902 -71.005023 
L 66.240023 -71.164019 
L 65.389845 -71.245218 
L 64.539667 -70.49856 
L 63.689489 -70.913194 
L 62.839312 -71.004651 
L 61.989134 -70.679705 
L 61.138956 -70.808911 
L 60.288778 -70.055681 
z
"/>
    </defs>
    <g clip-path="url(#pd55766bed9)">
     <use xlink:href="#md76b03ffdf" x="0" y="218.729688" style="fill: #f45b69; fill-opacity: 0.3"/>
    </g>
   </g>
   <g id="FillBetweenPolyCollection_2">
    <defs>
     <path id="mdb5242baa2" d="M 60.288778 -69.251458 
L 60.288778 -67.511811 
L 61.138956 -68.549274 
L 61.989134 -68.066674 
L 62.839312 -68.542746 
L 63.689489 -69.115845 
L 64.539667 -69.456483 
L 65.389845 -69.416547 
L 66.240023 -70.269966 
L 67.0902 -70.276668 
L 67.940378 -70.908214 
L 68.790556 -71.10461 
L 69.640734 -71.71402 
L 70.490911 -72.069465 
L 71.341089 -71.898719 
L 72.191267 -72.501488 
L 73.041445 -72.804324 
L 73.891622 -72.76275 
L 74.7418 -73.226724 
L 75.591978 -72.738455 
L 76.442156 -73.398136 
L 77.292334 -74.139703 
L 78.142511 -74.253916 
L 78.992689 -74.560874 
L 79.842867 -74.135797 
L 80.693045 -74.052319 
L 81.543222 -74.939167 
L 82.3934 -75.20444 
L 83.243578 -75.079718 
L 84.093756 -74.941714 
L 84.943933 -74.814326 
L 85.794111 -76.121771 
L 86.644289 -161.120128 
L 87.494467 -172.322612 
L 88.344644 -163.157062 
L 89.194822 -155.411159 
L 90.045 -149.300716 
L 90.895178 -142.692096 
L 91.745355 -135.184056 
L 92.595533 -129.143149 
L 93.445711 -124.186841 
L 94.295889 -120.253677 
L 95.146066 -116.59956 
L 95.996244 -113.535833 
L 96.846422 -111.72687 
L 97.6966 -110.992453 
L 98.546777 -111.40923 
L 99.396955 -111.908746 
L 100.247133 -112.710872 
L 101.097311 -114.763121 
L 101.947488 -116.512568 
L 102.797666 -117.803113 
L 103.647844 -119.139729 
L 104.498022 -121.034746 
L 105.348199 -122.455246 
L 106.198377 -124.234821 
L 107.048555 -125.00039 
L 107.898733 -125.563654 
L 108.74891 -125.571716 
L 109.599088 -126.229182 
L 110.449266 -126.749566 
L 111.299444 -127.025368 
L 112.149621 -127.247395 
L 112.999799 -127.786168 
L 113.849977 -129.738286 
L 114.700155 -131.506343 
L 115.550332 -133.058792 
L 116.40051 -132.685637 
L 117.250688 -131.945584 
L 118.100866 -132.301723 
L 118.951044 -132.542111 
L 119.801221 -132.095495 
L 120.651399 -132.473099 
L 121.501577 -132.985778 
L 122.351755 -133.342734 
L 123.201932 -133.957509 
L 124.05211 -133.317503 
L 124.902288 -133.061564 
L 125.752466 -132.214483 
L 126.602643 -130.056334 
L 127.452821 -127.456299 
L 128.302999 -125.899052 
L 129.153177 -124.980791 
L 130.003354 -124.859903 
L 130.853532 -124.592714 
L 131.70371 -122.894321 
L 132.553888 -121.857943 
L 133.404065 -121.101306 
L 134.254243 -119.849576 
L 135.104421 -118.717007 
L 135.954599 -117.404738 
L 136.804776 -116.568768 
L 137.654954 -114.937386 
L 138.505132 -114.194056 
L 139.35531 -113.072247 
L 140.205487 -112.080364 
L 141.055665 -110.893514 
L 141.905843 -110.202108 
L 142.756021 -109.70098 
L 143.606198 -108.469768 
L 144.456376 -107.20391 
L 145.306554 -106.351324 
L 146.156732 -105.402531 
L 147.006909 -104.902235 
L 147.857087 -103.111022 
L 148.707265 -102.265765 
L 149.557443 -101.073257 
L 150.40762 -99.923288 
L 151.257798 -98.90742 
L 152.107976 -98.150722 
L 152.958154 -96.895673 
L 153.808331 -96.019468 
L 154.658509 -94.988652 
L 155.508687 -94.039225 
L 156.358865 -92.495269 
L 157.209043 -91.175919 
L 158.05922 -90.504495 
L 158.909398 -89.269395 
L 159.759576 -88.147731 
L 160.609754 -87.643645 
L 161.459931 -85.829191 
L 162.310109 -84.542839 
L 163.160287 -83.58067 
L 164.010465 -82.77953 
L 164.860642 -82.001421 
L 165.71082 -80.500345 
L 166.560998 -79.252516 
L 167.411176 -78.163525 
L 168.261353 -77.22806 
L 169.111531 -76.389257 
L 169.961709 -75.229892 
L 170.811887 -74.934419 
L 171.662064 -74.82707 
L 172.512242 -75.169477 
L 173.36242 -75.950453 
L 174.212598 -77.146835 
L 175.062775 -78.499225 
L 175.912953 -79.118757 
L 176.763131 -80.072123 
L 177.613309 -81.396973 
L 178.463486 -82.352958 
L 179.313664 -82.708208 
L 180.163842 -84.067174 
L 181.01402 -84.49447 
L 181.864197 -85.106517 
L 182.714375 -85.513182 
L 183.564553 -86.010537 
L 184.414731 -85.843872 
L 185.264908 -84.862493 
L 186.115086 -83.175539 
L 186.965264 -81.761253 
L 187.815442 -80.373425 
L 188.665619 -79.047416 
L 189.515797 -77.643256 
L 190.365975 -76.205799 
L 191.216153 -75.015944 
L 192.06633 -73.326243 
L 192.916508 -72.250443 
L 193.766686 -71.172391 
L 194.616864 -70.299803 
L 195.467041 -68.536959 
L 196.317219 -67.957491 
L 197.167397 -67.200603 
L 198.017575 -65.884499 
L 198.867753 -64.878082 
L 199.71793 -64.040854 
L 200.568108 -63.491519 
L 201.418286 -62.454103 
L 202.268464 -61.270839 
L 203.118641 -60.543386 
L 203.968819 -60.091703 
L 204.818997 -59.614496 
L 205.669175 -58.617923 
L 206.519352 -57.838349 
L 207.36953 -57.208766 
L 208.219708 -56.572076 
L 209.069886 -56.280067 
L 209.920063 -54.968022 
L 210.770241 -54.348133 
L 211.620419 -53.763203 
L 212.470597 -52.769688 
L 212.470597 -75.998518 
L 212.470597 -75.998518 
L 211.620419 -77.20658 
L 210.770241 -77.592279 
L 209.920063 -78.749549 
L 209.069886 -79.772251 
L 208.219708 -80.291606 
L 207.36953 -80.87539 
L 206.519352 -81.504231 
L 205.669175 -82.440093 
L 204.818997 -83.028098 
L 203.968819 -83.873041 
L 203.118641 -84.257175 
L 202.268464 -85.140742 
L 201.418286 -85.88559 
L 200.568108 -87.021064 
L 199.71793 -87.527913 
L 198.867753 -88.38964 
L 198.017575 -89.123323 
L 197.167397 -90.098088 
L 196.317219 -90.851683 
L 195.467041 -91.709509 
L 194.616864 -93.845942 
L 193.766686 -94.52961 
L 192.916508 -95.567295 
L 192.06633 -96.57879 
L 191.216153 -98.204525 
L 190.365975 -99.365754 
L 189.515797 -100.270619 
L 188.665619 -102.396448 
L 187.815442 -103.392518 
L 186.965264 -104.714943 
L 186.115086 -106.303002 
L 185.264908 -107.414146 
L 184.414731 -108.488678 
L 183.564553 -108.447095 
L 182.714375 -108.125012 
L 181.864197 -107.519535 
L 181.01402 -106.947887 
L 180.163842 -106.109404 
L 179.313664 -104.87031 
L 178.463486 -104.132588 
L 177.613309 -103.131047 
L 176.763131 -101.080297 
L 175.912953 -100.10354 
L 175.062775 -99.086463 
L 174.212598 -97.622766 
L 173.36242 -96.218778 
L 172.512242 -95.346686 
L 171.662064 -94.101991 
L 170.811887 -94.186028 
L 169.961709 -94.523474 
L 169.111531 -95.447875 
L 168.261353 -95.934438 
L 167.411176 -96.6739 
L 166.560998 -97.585949 
L 165.71082 -98.377045 
L 164.860642 -99.928131 
L 164.010465 -101.177319 
L 163.160287 -101.920343 
L 162.310109 -102.616212 
L 161.459931 -103.421919 
L 160.609754 -105.462848 
L 159.759576 -106.016358 
L 158.909398 -106.907908 
L 158.05922 -107.981996 
L 157.209043 -108.438412 
L 156.358865 -110.078548 
L 155.508687 -111.125233 
L 154.658509 -112.23459 
L 153.808331 -113.121755 
L 152.958154 -113.616518 
L 152.107976 -114.951274 
L 151.257798 -115.420997 
L 150.40762 -116.178804 
L 149.557443 -117.398713 
L 148.707265 -118.188151 
L 147.857087 -119.076548 
L 147.006909 -120.880349 
L 146.156732 -121.174235 
L 145.306554 -122.004101 
L 144.456376 -122.817924 
L 143.606198 -124.199306 
L 142.756021 -124.897147 
L 141.905843 -125.793246 
L 141.055665 -126.354728 
L 140.205487 -127.226856 
L 139.35531 -128.373413 
L 138.505132 -129.21063 
L 137.654954 -129.755426 
L 136.804776 -131.163402 
L 135.954599 -132.056811 
L 135.104421 -133.377609 
L 134.254243 -134.510723 
L 133.404065 -135.634704 
L 132.553888 -136.460432 
L 131.70371 -136.981487 
L 130.853532 -138.930082 
L 130.003354 -139.132563 
L 129.153177 -138.528974 
L 128.302999 -139.517851 
L 127.452821 -140.659203 
L 126.602643 -143.152154 
L 125.752466 -144.880722 
L 124.902288 -145.820805 
L 124.05211 -145.384334 
L 123.201932 -145.760352 
L 122.351755 -144.80172 
L 121.501577 -143.82021 
L 120.651399 -142.87595 
L 119.801221 -142.611565 
L 118.951044 -142.665887 
L 118.100866 -142.269128 
L 117.250688 -141.914267 
L 116.40051 -142.070115 
L 115.550332 -142.211583 
L 114.700155 -140.196751 
L 113.849977 -137.856366 
L 112.999799 -136.059608 
L 112.149621 -135.209106 
L 111.299444 -135.03026 
L 110.449266 -134.944721 
L 109.599088 -134.136845 
L 108.74891 -133.569518 
L 107.898733 -133.448173 
L 107.048555 -133.662678 
L 106.198377 -133.044699 
L 105.348199 -131.437044 
L 104.498022 -130.227484 
L 103.647844 -128.601312 
L 102.797666 -127.334391 
L 101.947488 -126.120904 
L 101.097311 -125.021039 
L 100.247133 -123.747811 
L 99.396955 -123.129992 
L 98.546777 -122.793802 
L 97.6966 -122.458091 
L 96.846422 -123.17756 
L 95.996244 -125.047819 
L 95.146066 -128.482056 
L 94.295889 -132.477441 
L 93.445711 -136.35394 
L 92.595533 -141.403748 
L 91.745355 -147.768312 
L 90.895178 -156.567522 
L 90.045 -164.488343 
L 89.194822 -169.547959 
L 88.344644 -180.895718 
L 87.494467 -194.729092 
L 86.644289 -180.803144 
L 85.794111 -78.002768 
L 84.943933 -76.618212 
L 84.093756 -76.65448 
L 83.243578 -76.478152 
L 82.3934 -76.325754 
L 81.543222 -76.176817 
L 80.693045 -75.300613 
L 79.842867 -75.429188 
L 78.992689 -75.40937 
L 78.142511 -75.336679 
L 77.292334 -75.039107 
L 76.442156 -74.089871 
L 75.591978 -73.690142 
L 74.7418 -73.956723 
L 73.891622 -73.462664 
L 73.041445 -73.319718 
L 72.191267 -72.937809 
L 71.341089 -72.591138 
L 70.490911 -72.627744 
L 69.640734 -72.074068 
L 68.790556 -71.962319 
L 67.940378 -72.363556 
L 67.0902 -71.695962 
L 66.240023 -71.355877 
L 65.389845 -71.259207 
L 64.539667 -71.072987 
L 63.689489 -70.738807 
L 62.839312 -70.401173 
L 61.989134 -69.705718 
L 61.138956 -69.968035 
L 60.288778 -69.251458 
z
"/>
    </defs>
    <g clip-path="url(#pd55766bed9)">
     <use xlink:href="#mdb5242baa2" x="0" y="218.729688" style="fill-opacity: 0.3"/>
    </g>
   </g>
   <g id="FillBetweenPolyCollection_3">
    <defs>
     <path id="m2a7aec575d" d="M 60.288778 -72.460254 
L 60.288778 -69.28943 
L 61.138956 -69.910142 
L 61.989134 -69.274279 
L 62.839312 -69.556144 
L 63.689489 -69.0706 
L 64.539667 -69.758673 
L 65.389845 -70.604288 
L 66.240023 -69.771172 
L 67.0902 -70.801422 
L 67.940378 -71.029 
L 68.790556 -70.548724 
L 69.640734 -71.117135 
L 70.490911 -72.718313 
L 71.341089 -74.35451 
L 72.191267 -73.182266 
L 73.041445 -73.179356 
L 73.891622 -72.617491 
L 74.7418 -71.818153 
L 75.591978 -72.200498 
L 76.442156 -73.027727 
L 77.292334 -73.444106 
L 78.142511 -74.164622 
L 78.992689 -71.455002 
L 79.842867 -72.271637 
L 80.693045 -72.62208 
L 81.543222 -73.118522 
L 82.3934 -73.232719 
L 83.243578 -72.27214 
L 84.093756 -71.896241 
L 84.943933 -73.550746 
L 85.794111 -74.468252 
L 86.644289 -161.78896 
L 87.494467 -182.86468 
L 88.344644 -169.033779 
L 89.194822 -159.279017 
L 90.045 -151.957554 
L 90.895178 -142.602177 
L 91.745355 -131.232725 
L 92.595533 -124.284155 
L 93.445711 -117.729122 
L 94.295889 -113.284787 
L 95.146066 -108.70858 
L 95.996244 -104.689238 
L 96.846422 -101.627814 
L 97.6966 -98.624789 
L 98.546777 -99.802414 
L 99.396955 -98.190643 
L 100.247133 -97.86852 
L 101.097311 -98.623163 
L 101.947488 -99.029061 
L 102.797666 -100.135085 
L 103.647844 -101.594279 
L 104.498022 -102.849943 
L 105.348199 -104.274141 
L 106.198377 -104.597148 
L 107.048555 -105.425496 
L 107.898733 -104.438775 
L 108.74891 -107.256032 
L 109.599088 -107.708333 
L 110.449266 -108.337602 
L 111.299444 -108.772253 
L 112.149621 -108.490478 
L 112.999799 -108.719833 
L 113.849977 -110.562723 
L 114.700155 -112.985157 
L 115.550332 -114.727915 
L 116.40051 -116.368696 
L 117.250688 -115.900365 
L 118.100866 -116.17987 
L 118.951044 -117.719218 
L 119.801221 -119.520677 
L 120.651399 -120.182645 
L 121.501577 -121.681001 
L 122.351755 -123.298589 
L 123.201932 -124.587688 
L 124.05211 -123.592453 
L 124.902288 -126.460675 
L 125.752466 -126.216573 
L 126.602643 -125.089174 
L 127.452821 -123.294448 
L 128.302999 -122.165519 
L 129.153177 -120.735125 
L 130.003354 -120.866969 
L 130.853532 -119.847205 
L 131.70371 -118.108873 
L 132.553888 -116.570402 
L 133.404065 -115.026952 
L 134.254243 -113.639984 
L 135.104421 -113.29911 
L 135.954599 -111.221198 
L 136.804776 -109.539563 
L 137.654954 -108.453143 
L 138.505132 -106.533614 
L 139.35531 -105.583579 
L 140.205487 -103.897425 
L 141.055665 -103.514342 
L 141.905843 -103.065339 
L 142.756021 -101.582141 
L 143.606198 -101.128057 
L 144.456376 -100.716225 
L 145.306554 -99.887509 
L 146.156732 -99.425217 
L 147.006909 -99.013249 
L 147.857087 -96.599428 
L 148.707265 -94.535952 
L 149.557443 -95.49906 
L 150.40762 -93.652417 
L 151.257798 -93.611518 
L 152.107976 -92.614415 
L 152.958154 -92.068673 
L 153.808331 -92.048787 
L 154.658509 -90.377135 
L 155.508687 -88.501201 
L 156.358865 -87.915835 
L 157.209043 -87.492013 
L 158.05922 -85.814799 
L 158.909398 -85.63366 
L 159.759576 -84.685291 
L 160.609754 -83.602635 
L 161.459931 -81.857945 
L 162.310109 -84.521282 
L 163.160287 -80.921138 
L 164.010465 -79.913505 
L 164.860642 -77.782212 
L 165.71082 -77.604897 
L 166.560998 -76.161017 
L 167.411176 -75.885646 
L 168.261353 -74.835967 
L 169.111531 -74.288703 
L 169.961709 -73.591305 
L 170.811887 -73.715111 
L 171.662064 -73.851628 
L 172.512242 -75.279203 
L 173.36242 -77.867606 
L 174.212598 -80.28642 
L 175.062775 -81.799028 
L 175.912953 -84.164076 
L 176.763131 -85.070982 
L 177.613309 -86.585755 
L 178.463486 -88.592597 
L 179.313664 -88.866802 
L 180.163842 -90.180535 
L 181.01402 -91.778588 
L 181.864197 -91.698476 
L 182.714375 -92.43849 
L 183.564553 -92.21361 
L 184.414731 -92.752775 
L 185.264908 -92.114993 
L 186.115086 -91.430005 
L 186.965264 -89.451391 
L 187.815442 -87.566422 
L 188.665619 -85.499677 
L 189.515797 -84.034129 
L 190.365975 -82.909229 
L 191.216153 -82.756526 
L 192.06633 -81.525907 
L 192.916508 -80.290098 
L 193.766686 -77.91629 
L 194.616864 -76.770363 
L 195.467041 -75.989046 
L 196.317219 -76.339152 
L 197.167397 -74.59197 
L 198.017575 -73.683725 
L 198.867753 -73.173953 
L 199.71793 -73.751058 
L 200.568108 -72.800777 
L 201.418286 -71.333613 
L 202.268464 -70.95851 
L 203.118641 -69.070955 
L 203.968819 -69.335157 
L 204.818997 -70.422854 
L 205.669175 -69.120415 
L 206.519352 -68.411275 
L 207.36953 -66.312058 
L 208.219708 -66.273766 
L 209.069886 -66.659884 
L 209.920063 -64.173159 
L 210.770241 -64.229008 
L 211.620419 -63.658097 
L 212.470597 -62.999439 
L 212.470597 -79.712345 
L 212.470597 -79.712345 
L 211.620419 -80.041204 
L 210.770241 -81.200219 
L 209.920063 -81.831166 
L 209.069886 -84.297298 
L 208.219708 -83.345142 
L 207.36953 -83.33551 
L 206.519352 -85.008861 
L 205.669175 -85.359961 
L 204.818997 -85.942701 
L 203.968819 -85.12037 
L 203.118641 -83.995929 
L 202.268464 -85.195279 
L 201.418286 -87.239219 
L 200.568108 -87.569874 
L 199.71793 -88.974071 
L 198.867753 -88.59521 
L 198.017575 -87.847214 
L 197.167397 -87.961253 
L 196.317219 -88.852989 
L 195.467041 -88.151072 
L 194.616864 -89.086858 
L 193.766686 -91.031171 
L 192.916508 -91.882804 
L 192.06633 -92.680394 
L 191.216153 -94.011902 
L 190.365975 -94.290137 
L 189.515797 -95.280206 
L 188.665619 -97.929981 
L 187.815442 -99.514426 
L 186.965264 -101.56078 
L 186.115086 -102.472306 
L 185.264908 -103.695849 
L 184.414731 -104.871492 
L 183.564553 -104.658851 
L 182.714375 -104.732511 
L 181.864197 -104.116042 
L 181.01402 -105.170596 
L 180.163842 -103.031754 
L 179.313664 -101.857837 
L 178.463486 -101.193907 
L 177.613309 -99.445354 
L 176.763131 -98.273093 
L 175.912953 -97.858481 
L 175.062775 -95.133499 
L 174.212598 -93.329638 
L 173.36242 -90.695501 
L 172.512242 -87.777092 
L 171.662064 -86.475246 
L 170.811887 -85.847387 
L 169.961709 -85.991918 
L 169.111531 -86.45253 
L 168.261353 -86.32582 
L 167.411176 -87.043973 
L 166.560998 -87.732007 
L 165.71082 -88.575817 
L 164.860642 -89.447686 
L 164.010465 -90.94197 
L 163.160287 -91.846116 
L 162.310109 -93.978585 
L 161.459931 -93.120404 
L 160.609754 -94.826032 
L 159.759576 -96.549499 
L 158.909398 -97.407979 
L 158.05922 -97.643143 
L 157.209043 -99.38105 
L 156.358865 -99.119715 
L 155.508687 -100.093455 
L 154.658509 -101.931147 
L 153.808331 -104.316718 
L 152.958154 -104.61369 
L 152.107976 -105.08685 
L 151.257798 -106.214581 
L 150.40762 -105.993059 
L 149.557443 -107.653383 
L 148.707265 -106.528211 
L 147.857087 -108.690606 
L 147.006909 -111.763304 
L 146.156732 -113.494568 
L 145.306554 -113.084382 
L 144.456376 -113.415646 
L 143.606198 -114.172502 
L 142.756021 -114.819398 
L 141.905843 -116.113971 
L 141.055665 -116.700029 
L 140.205487 -117.813508 
L 139.35531 -118.646613 
L 138.505132 -120.680447 
L 137.654954 -122.964646 
L 136.804776 -124.411648 
L 135.954599 -125.11648 
L 135.104421 -126.762173 
L 134.254243 -127.058909 
L 133.404065 -128.840116 
L 132.553888 -130.554959 
L 131.70371 -131.120889 
L 130.853532 -132.727453 
L 130.003354 -133.785876 
L 129.153177 -132.943118 
L 128.302999 -134.728054 
L 127.452821 -136.8999 
L 126.602643 -138.683547 
L 125.752466 -138.280296 
L 124.902288 -138.8037 
L 124.05211 -134.173781 
L 123.201932 -135.000497 
L 122.351755 -133.678113 
L 121.501577 -131.56068 
L 120.651399 -130.248389 
L 119.801221 -128.744391 
L 118.951044 -126.78734 
L 118.100866 -125.606161 
L 117.250688 -125.261955 
L 116.40051 -125.150086 
L 115.550332 -123.097146 
L 114.700155 -121.707106 
L 113.849977 -118.849701 
L 112.999799 -116.492887 
L 112.149621 -116.347438 
L 111.299444 -116.169428 
L 110.449266 -115.768075 
L 109.599088 -116.009564 
L 108.74891 -113.815912 
L 107.898733 -112.324086 
L 107.048555 -113.023629 
L 106.198377 -111.544325 
L 105.348199 -111.112173 
L 104.498022 -110.442479 
L 103.647844 -109.310482 
L 102.797666 -108.156636 
L 101.947488 -107.334696 
L 101.097311 -106.643277 
L 100.247133 -106.734833 
L 99.396955 -107.12493 
L 98.546777 -109.108021 
L 97.6966 -109.046467 
L 96.846422 -111.792004 
L 95.996244 -114.548888 
L 95.146066 -118.215712 
L 94.295889 -122.247171 
L 93.445711 -125.816963 
L 92.595533 -131.811879 
L 91.745355 -137.27103 
L 90.895178 -148.774374 
L 90.045 -160.262036 
L 89.194822 -167.765833 
L 88.344644 -180.033161 
L 87.494467 -199.387126 
L 86.644289 -179.12992 
L 85.794111 -77.309404 
L 84.943933 -75.70662 
L 84.093756 -74.668569 
L 83.243578 -74.299657 
L 82.3934 -75.927277 
L 81.543222 -75.788471 
L 80.693045 -74.517217 
L 79.842867 -74.047544 
L 78.992689 -73.229391 
L 78.142511 -74.758726 
L 77.292334 -76.417314 
L 76.442156 -74.381915 
L 75.591978 -73.749545 
L 74.7418 -72.873863 
L 73.891622 -73.737679 
L 73.041445 -73.917112 
L 72.191267 -74.170052 
L 71.341089 -75.593301 
L 70.490911 -74.277905 
L 69.640734 -72.880222 
L 68.790556 -73.111263 
L 67.940378 -73.552344 
L 67.0902 -72.2569 
L 66.240023 -71.780386 
L 65.389845 -72.579842 
L 64.539667 -71.5806 
L 63.689489 -70.583815 
L 62.839312 -72.637551 
L 61.989134 -71.656981 
L 61.138956 -73.095669 
L 60.288778 -72.460254 
z
"/>
    </defs>
    <g clip-path="url(#pd55766bed9)">
     <use xlink:href="#m2a7aec575d" x="0" y="218.729688" style="fill: #8b5cf6; fill-opacity: 0.3"/>
    </g>
   </g>
   <g id="matplotlib.axis_1">
    <g id="xtick_1">
     <g id="line2d_2">
      <defs>
       <path id="mce867b5717" d="M 0 0 
L 0 8.25 
" style="stroke: #000000; stroke-width: 1.4"/>
      </defs>
      <g>
       <use xlink:href="#mce867b5717" x="85.794111" y="173.52" style="stroke: #000000; stroke-width: 1.4"/>
      </g>
     </g>
     <g id="text_1">
      <!-- 0 -->
      <g transform="translate(81.976611 194.388125) scale(0.12 -0.12)">
       <defs>
        <path id="DejaVuSans-30" d="M 2034 4250 
Q 1547 4250 1301 3770 
Q 1056 3291 1056 2328 
Q 1056 1369 1301 889 
Q 1547 409 2034 409 
Q 2525 409 2770 889 
Q 3016 1369 3016 2328 
Q 3016 3291 2770 3770 
Q 2525 4250 2034 4250 
z
M 2034 4750 
Q 2819 4750 3233 4129 
Q 3647 3509 3647 2328 
Q 3647 1150 3233 529 
Q 2819 -91 2034 -91 
Q 1250 -91 836 529 
Q 422 1150 422 2328 
Q 422 3509 836 4129 
Q 1250 4750 2034 4750 
z
" transform="scale(0.015625)"/>
       </defs>
       <use xlink:href="#DejaVuSans-30"/>
      </g>
     </g>
    </g>
    <g id="xtick_2">
     <g id="line2d_3">
      <g>
       <use xlink:href="#mce867b5717" x="136.804776" y="173.52" style="stroke: #000000; stroke-width: 1.4"/>
      </g>
     </g>
     <g id="text_2">
      <!-- 2 -->
      <g transform="translate(132.987276 194.388125) scale(0.12 -0.12)">
       <defs>
        <path id="DejaVuSans-32" d="M 1228 531 
L 3431 531 
L 3431 0 
L 469 0 
L 469 531 
Q 828 903 1448 1529 
Q 2069 2156 2228 2338 
Q 2531 2678 2651 2914 
Q 2772 3150 2772 3378 
Q 2772 3750 2511 3984 
Q 2250 4219 1831 4219 
Q 1534 4219 1204 4116 
Q 875 4013 500 3803 
L 500 4441 
Q 881 4594 1212 4672 
Q 1544 4750 1819 4750 
Q 2544 4750 2975 4387 
Q 3406 4025 3406 3419 
Q 3406 3131 3298 2873 
Q 3191 2616 2906 2266 
Q 2828 2175 2409 1742 
Q 1991 1309 1228 531 
z
" transform="scale(0.015625)"/>
       </defs>
       <use xlink:href="#DejaVuSans-32"/>
      </g>
     </g>
    </g>
    <g id="xtick_3">
     <g id="line2d_4">
      <g>
       <use xlink:href="#mce867b5717" x="187.815442" y="173.52" style="stroke: #000000; stroke-width: 1.4"/>
      </g>
     </g>
     <g id="text_3">
      <!-- 4 -->
      <g transform="translate(183.997942 194.388125) scale(0.12 -0.12)">
       <defs>
        <path id="DejaVuSans-34" d="M 2419 4116 
L 825 1625 
L 2419 1625 
L 2419 4116 
z
M 2253 4666 
L 3047 4666 
L 3047 1625 
L 3713 1625 
L 3713 1100 
L 3047 1100 
L 3047 0 
L 2419 0 
L 2419 1100 
L 313 1100 
L 313 1709 
L 2253 4666 
z
" transform="scale(0.015625)"/>
       </defs>
       <use xlink:href="#DejaVuSans-34"/>
      </g>
     </g>
    </g>
    <g id="text_4">
     <!-- Time from sound onset (s) -->
     <g transform="translate(64.028047 209.242031) scale(0.11 -0.11)">
      <defs>
       <path id="DejaVuSans-54" d="M -19 4666 
L 3928 4666 
L 3928 4134 
L 2272 4134 
L 2272 0 
L 1638 0 
L 1638 4134 
L -19 4134 
L -19 4666 
z
" transform="scale(0.015625)"/>
       <path id="DejaVuSans-69" d="M 603 3500 
L 1178 3500 
L 1178 0 
L 603 0 
L 603 3500 
z
M 603 4863 
L 1178 4863 
L 1178 4134 
L 603 4134 
L 603 4863 
z
" transform="scale(0.015625)"/>
       <path id="DejaVuSans-6d" d="M 3328 2828 
Q 3544 3216 3844 3400 
Q 4144 3584 4550 3584 
Q 5097 3584 5394 3201 
Q 5691 2819 5691 2113 
L 5691 0 
L 5113 0 
L 5113 2094 
Q 5113 2597 4934 2840 
Q 4756 3084 4391 3084 
Q 3944 3084 3684 2787 
Q 3425 2491 3425 1978 
L 3425 0 
L 2847 0 
L 2847 2094 
Q 2847 2600 2669 2842 
Q 2491 3084 2119 3084 
Q 1678 3084 1418 2786 
Q 1159 2488 1159 1978 
L 1159 0 
L 581 0 
L 581 3500 
L 1159 3500 
L 1159 2956 
Q 1356 3278 1631 3431 
Q 1906 3584 2284 3584 
Q 2666 3584 2933 3390 
Q 3200 3197 3328 2828 
z
" transform="scale(0.015625)"/>
       <path id="DejaVuSans-65" d="M 3597 1894 
L 3597 1613 
L 953 1613 
Q 991 1019 1311 708 
Q 1631 397 2203 397 
Q 2534 397 2845 478 
Q 3156 559 3463 722 
L 3463 178 
Q 3153 47 2828 -22 
Q 2503 -91 2169 -91 
Q 1331 -91 842 396 
Q 353 884 353 1716 
Q 353 2575 817 3079 
Q 1281 3584 2069 3584 
Q 2775 3584 3186 3129 
Q 3597 2675 3597 1894 
z
M 3022 2063 
Q 3016 2534 2758 2815 
Q 2500 3097 2075 3097 
Q 1594 3097 1305 2825 
Q 1016 2553 972 2059 
L 3022 2063 
z
" transform="scale(0.015625)"/>
       <path id="DejaVuSans-20" transform="scale(0.015625)"/>
       <path id="DejaVuSans-66" d="M 2375 4863 
L 2375 4384 
L 1825 4384 
Q 1516 4384 1395 4259 
Q 1275 4134 1275 3809 
L 1275 3500 
L 2222 3500 
L 2222 3053 
L 1275 3053 
L 1275 0 
L 697 0 
L 697 3053 
L 147 3053 
L 147 3500 
L 697 3500 
L 697 3744 
Q 697 4328 969 4595 
Q 1241 4863 1831 4863 
L 2375 4863 
z
" transform="scale(0.015625)"/>
       <path id="DejaVuSans-72" d="M 2631 2963 
Q 2534 3019 2420 3045 
Q 2306 3072 2169 3072 
Q 1681 3072 1420 2755 
Q 1159 2438 1159 1844 
L 1159 0 
L 581 0 
L 581 3500 
L 1159 3500 
L 1159 2956 
Q 1341 3275 1631 3429 
Q 1922 3584 2338 3584 
Q 2397 3584 2469 3576 
Q 2541 3569 2628 3553 
L 2631 2963 
z
" transform="scale(0.015625)"/>
       <path id="DejaVuSans-6f" d="M 1959 3097 
Q 1497 3097 1228 2736 
Q 959 2375 959 1747 
Q 959 1119 1226 758 
Q 1494 397 1959 397 
Q 2419 397 2687 759 
Q 2956 1122 2956 1747 
Q 2956 2369 2687 2733 
Q 2419 3097 1959 3097 
z
M 1959 3584 
Q 2709 3584 3137 3096 
Q 3566 2609 3566 1747 
Q 3566 888 3137 398 
Q 2709 -91 1959 -91 
Q 1206 -91 779 398 
Q 353 888 353 1747 
Q 353 2609 779 3096 
Q 1206 3584 1959 3584 
z
" transform="scale(0.015625)"/>
       <path id="DejaVuSans-73" d="M 2834 3397 
L 2834 2853 
Q 2591 2978 2328 3040 
Q 2066 3103 1784 3103 
Q 1356 3103 1142 2972 
Q 928 2841 928 2578 
Q 928 2378 1081 2264 
Q 1234 2150 1697 2047 
L 1894 2003 
Q 2506 1872 2764 1633 
Q 3022 1394 3022 966 
Q 3022 478 2636 193 
Q 2250 -91 1575 -91 
Q 1294 -91 989 -36 
Q 684 19 347 128 
L 347 722 
Q 666 556 975 473 
Q 1284 391 1588 391 
Q 1994 391 2212 530 
Q 2431 669 2431 922 
Q 2431 1156 2273 1281 
Q 2116 1406 1581 1522 
L 1381 1569 
Q 847 1681 609 1914 
Q 372 2147 372 2553 
Q 372 3047 722 3315 
Q 1072 3584 1716 3584 
Q 2034 3584 2315 3537 
Q 2597 3491 2834 3397 
z
" transform="scale(0.015625)"/>
       <path id="DejaVuSans-75" d="M 544 1381 
L 544 3500 
L 1119 3500 
L 1119 1403 
Q 1119 906 1312 657 
Q 1506 409 1894 409 
Q 2359 409 2629 706 
Q 2900 1003 2900 1516 
L 2900 3500 
L 3475 3500 
L 3475 0 
L 2900 0 
L 2900 538 
Q 2691 219 2414 64 
Q 2138 -91 1772 -91 
Q 1169 -91 856 284 
Q 544 659 544 1381 
z
M 1991 3584 
L 1991 3584 
z
" transform="scale(0.015625)"/>
       <path id="DejaVuSans-6e" d="M 3513 2113 
L 3513 0 
L 2938 0 
L 2938 2094 
Q 2938 2591 2744 2837 
Q 2550 3084 2163 3084 
Q 1697 3084 1428 2787 
Q 1159 2491 1159 1978 
L 1159 0 
L 581 0 
L 581 3500 
L 1159 3500 
L 1159 2956 
Q 1366 3272 1645 3428 
Q 1925 3584 2291 3584 
Q 2894 3584 3203 3211 
Q 3513 2838 3513 2113 
z
" transform="scale(0.015625)"/>
       <path id="DejaVuSans-64" d="M 2906 2969 
L 2906 4863 
L 3481 4863 
L 3481 0 
L 2906 0 
L 2906 525 
Q 2725 213 2448 61 
Q 2172 -91 1784 -91 
Q 1150 -91 751 415 
Q 353 922 353 1747 
Q 353 2572 751 3078 
Q 1150 3584 1784 3584 
Q 2172 3584 2448 3432 
Q 2725 3281 2906 2969 
z
M 947 1747 
Q 947 1113 1208 752 
Q 1469 391 1925 391 
Q 2381 391 2643 752 
Q 2906 1113 2906 1747 
Q 2906 2381 2643 2742 
Q 2381 3103 1925 3103 
Q 1469 3103 1208 2742 
Q 947 2381 947 1747 
z
" transform="scale(0.015625)"/>
       <path id="DejaVuSans-74" d="M 1172 4494 
L 1172 3500 
L 2356 3500 
L 2356 3053 
L 1172 3053 
L 1172 1153 
Q 1172 725 1289 603 
Q 1406 481 1766 481 
L 2356 481 
L 2356 0 
L 1766 0 
Q 1100 0 847 248 
Q 594 497 594 1153 
L 594 3053 
L 172 3053 
L 172 3500 
L 594 3500 
L 594 4494 
L 1172 4494 
z
" transform="scale(0.015625)"/>
       <path id="DejaVuSans-28" d="M 1984 4856 
Q 1566 4138 1362 3434 
Q 1159 2731 1159 2009 
Q 1159 1288 1364 580 
Q 1569 -128 1984 -844 
L 1484 -844 
Q 1016 -109 783 600 
Q 550 1309 550 2009 
Q 550 2706 781 3412 
Q 1013 4119 1484 4856 
L 1984 4856 
z
" transform="scale(0.015625)"/>
       <path id="DejaVuSans-29" d="M 513 4856 
L 1013 4856 
Q 1481 4119 1714 3412 
Q 1947 2706 1947 2009 
Q 1947 1309 1714 600 
Q 1481 -109 1013 -844 
L 513 -844 
Q 928 -128 1133 580 
Q 1338 1288 1338 2009 
Q 1338 2731 1133 3434 
Q 928 4138 513 4856 
z
" transform="scale(0.015625)"/>
      </defs>
      <use xlink:href="#DejaVuSans-54"/>
      <use xlink:href="#DejaVuSans-69" transform="translate(57.958984 0)"/>
      <use xlink:href="#DejaVuSans-6d" transform="translate(85.742188 0)"/>
      <use xlink:href="#DejaVuSans-65" transform="translate(183.154297 0)"/>
      <use xlink:href="#DejaVuSans-20" transform="translate(244.677734 0)"/>
      <use xlink:href="#DejaVuSans-66" transform="translate(276.464844 0)"/>
      <use xlink:href="#DejaVuSans-72" transform="translate(311.669922 0)"/>
      <use xlink:href="#DejaVuSans-6f" transform="translate(350.533203 0)"/>
      <use xlink:href="#DejaVuSans-6d" transform="translate(411.714844 0)"/>
      <use xlink:href="#DejaVuSans-20" transform="translate(509.126953 0)"/>
      <use xlink:href="#DejaVuSans-73" transform="translate(540.914062 0)"/>
      <use xlink:href="#DejaVuSans-6f" transform="translate(593.013672 0)"/>
      <use xlink:href="#DejaVuSans-75" transform="translate(654.195312 0)"/>
      <use xlink:href="#DejaVuSans-6e" transform="translate(717.574219 0)"/>
      <use xlink:href="#DejaVuSans-64" transform="translate(780.953125 0)"/>
      <use xlink:href="#DejaVuSans-20" transform="translate(844.429688 0)"/>
      <use xlink:href="#DejaVuSans-6f" transform="translate(876.216797 0)"/>
      <use xlink:href="#DejaVuSans-6e" transform="translate(937.398438 0)"/>
      <use xlink:href="#DejaVuSans-73" transform="translate(1000.777344 0)"/>
      <use xlink:href="#DejaVuSans-65" transform="translate(1052.876953 0)"/>
      <use xlink:href="#DejaVuSans-74" transform="translate(1114.400391 0)"/>
      <use xlink:href="#DejaVuSans-20" transform="translate(1153.609375 0)"/>
      <use xlink:href="#DejaVuSans-28" transform="translate(1185.396484 0)"/>
      <use xlink:href="#DejaVuSans-73" transform="translate(1224.410156 0)"/>
      <use xlink:href="#DejaVuSans-29" transform="translate(1276.509766 0)"/>
     </g>
    </g>
   </g>
   <g id="matplotlib.axis_2">
    <g id="ytick_1">
     <g id="line2d_5">
      <defs>
       <path id="m9a00c371a8" d="M 0 0 
L -8.25 0 
" style="stroke: #000000; stroke-width: 1.4"/>
      </defs>
      <g>
       <use xlink:href="#m9a00c371a8" x="52.679688" y="145.925288" style="stroke: #000000; stroke-width: 1.4"/>
      </g>
     </g>
     <g id="text_5">
      <!-- 0.0 -->
      <g transform="translate(21.845938 150.48435) scale(0.12 -0.12)">
       <defs>
        <path id="DejaVuSans-2e" d="M 684 794 
L 1344 794 
L 1344 0 
L 684 0 
L 684 794 
z
" transform="scale(0.015625)"/>
       </defs>
       <use xlink:href="#DejaVuSans-30"/>
       <use xlink:href="#DejaVuSans-2e" transform="translate(63.623047 0)"/>
       <use xlink:href="#DejaVuSans-30" transform="translate(95.410156 0)"/>
      </g>
     </g>
    </g>
    <g id="ytick_2">
     <g id="line2d_6">
      <g>
       <use xlink:href="#m9a00c371a8" x="52.679688" y="106.626178" style="stroke: #000000; stroke-width: 1.4"/>
      </g>
     </g>
     <g id="text_6">
      <!-- 0.5 -->
      <g transform="translate(21.845938 111.18524) scale(0.12 -0.12)">
       <defs>
        <path id="DejaVuSans-35" d="M 691 4666 
L 3169 4666 
L 3169 4134 
L 1269 4134 
L 1269 2991 
Q 1406 3038 1543 3061 
Q 1681 3084 1819 3084 
Q 2600 3084 3056 2656 
Q 3513 2228 3513 1497 
Q 3513 744 3044 326 
Q 2575 -91 1722 -91 
Q 1428 -91 1123 -41 
Q 819 9 494 109 
L 494 744 
Q 775 591 1075 516 
Q 1375 441 1709 441 
Q 2250 441 2565 725 
Q 2881 1009 2881 1497 
Q 2881 1984 2565 2268 
Q 2250 2553 1709 2553 
Q 1456 2553 1204 2497 
Q 953 2441 691 2322 
L 691 4666 
z
" transform="scale(0.015625)"/>
       </defs>
       <use xlink:href="#DejaVuSans-30"/>
       <use xlink:href="#DejaVuSans-2e" transform="translate(63.623047 0)"/>
       <use xlink:href="#DejaVuSans-35" transform="translate(95.410156 0)"/>
      </g>
     </g>
    </g>
    <g id="ytick_3">
     <g id="line2d_7">
      <g>
       <use xlink:href="#m9a00c371a8" x="52.679688" y="67.327068" style="stroke: #000000; stroke-width: 1.4"/>
      </g>
     </g>
     <g id="text_7">
      <!-- 1.0 -->
      <g transform="translate(21.845938 71.88613) scale(0.12 -0.12)">
       <defs>
        <path id="DejaVuSans-31" d="M 794 531 
L 1825 531 
L 1825 4091 
L 703 3866 
L 703 4441 
L 1819 4666 
L 2450 4666 
L 2450 531 
L 3481 531 
L 3481 0 
L 794 0 
L 794 531 
z
" transform="scale(0.015625)"/>
       </defs>
       <use xlink:href="#DejaVuSans-31"/>
       <use xlink:href="#DejaVuSans-2e" transform="translate(63.623047 0)"/>
       <use xlink:href="#DejaVuSans-30" transform="translate(95.410156 0)"/>
      </g>
     </g>
    </g>
    <g id="ytick_4">
     <g id="line2d_8">
      <g>
       <use xlink:href="#m9a00c371a8" x="52.679688" y="28.027958" style="stroke: #000000; stroke-width: 1.4"/>
      </g>
     </g>
     <g id="text_8">
      <!-- 1.5 -->
      <g transform="translate(21.845938 32.58702) scale(0.12 -0.12)">
       <use xlink:href="#DejaVuSans-31"/>
       <use xlink:href="#DejaVuSans-2e" transform="translate(63.623047 0)"/>
       <use xlink:href="#DejaVuSans-35" transform="translate(95.410156 0)"/>
      </g>
     </g>
    </g>
    <g id="text_9">
     <!-- Motion energy (z-scored) -->
     <g transform="translate(15.558281 159.097969) rotate(-90) scale(0.11 -0.11)">
      <defs>
       <path id="DejaVuSans-4d" d="M 628 4666 
L 1569 4666 
L 2759 1491 
L 3956 4666 
L 4897 4666 
L 4897 0 
L 4281 0 
L 4281 4097 
L 3078 897 
L 2444 897 
L 1241 4097 
L 1241 0 
L 628 0 
L 628 4666 
z
" transform="scale(0.015625)"/>
       <path id="DejaVuSans-67" d="M 2906 1791 
Q 2906 2416 2648 2759 
Q 2391 3103 1925 3103 
Q 1463 3103 1205 2759 
Q 947 2416 947 1791 
Q 947 1169 1205 825 
Q 1463 481 1925 481 
Q 2391 481 2648 825 
Q 2906 1169 2906 1791 
z
M 3481 434 
Q 3481 -459 3084 -895 
Q 2688 -1331 1869 -1331 
Q 1566 -1331 1297 -1286 
Q 1028 -1241 775 -1147 
L 775 -588 
Q 1028 -725 1275 -790 
Q 1522 -856 1778 -856 
Q 2344 -856 2625 -561 
Q 2906 -266 2906 331 
L 2906 616 
Q 2728 306 2450 153 
Q 2172 0 1784 0 
Q 1141 0 747 490 
Q 353 981 353 1791 
Q 353 2603 747 3093 
Q 1141 3584 1784 3584 
Q 2172 3584 2450 3431 
Q 2728 3278 2906 2969 
L 2906 3500 
L 3481 3500 
L 3481 434 
z
" transform="scale(0.015625)"/>
       <path id="DejaVuSans-79" d="M 2059 -325 
Q 1816 -950 1584 -1140 
Q 1353 -1331 966 -1331 
L 506 -1331 
L 506 -850 
L 844 -850 
Q 1081 -850 1212 -737 
Q 1344 -625 1503 -206 
L 1606 56 
L 191 3500 
L 800 3500 
L 1894 763 
L 2988 3500 
L 3597 3500 
L 2059 -325 
z
" transform="scale(0.015625)"/>
       <path id="DejaVuSans-7a" d="M 353 3500 
L 3084 3500 
L 3084 2975 
L 922 459 
L 3084 459 
L 3084 0 
L 275 0 
L 275 525 
L 2438 3041 
L 353 3041 
L 353 3500 
z
" transform="scale(0.015625)"/>
       <path id="DejaVuSans-2d" d="M 313 2009 
L 1997 2009 
L 1997 1497 
L 313 1497 
L 313 2009 
z
" transform="scale(0.015625)"/>
       <path id="DejaVuSans-63" d="M 3122 3366 
L 3122 2828 
Q 2878 2963 2633 3030 
Q 2388 3097 2138 3097 
Q 1578 3097 1268 2742 
Q 959 2388 959 1747 
Q 959 1106 1268 751 
Q 1578 397 2138 397 
Q 2388 397 2633 464 
Q 2878 531 3122 666 
L 3122 134 
Q 2881 22 2623 -34 
Q 2366 -91 2075 -91 
Q 1284 -91 818 406 
Q 353 903 353 1747 
Q 353 2603 823 3093 
Q 1294 3584 2113 3584 
Q 2378 3584 2631 3529 
Q 2884 3475 3122 3366 
z
" transform="scale(0.015625)"/>
      </defs>
      <use xlink:href="#DejaVuSans-4d"/>
      <use xlink:href="#DejaVuSans-6f" transform="translate(86.279297 0)"/>
      <use xlink:href="#DejaVuSans-74" transform="translate(147.460938 0)"/>
      <use xlink:href="#DejaVuSans-69" transform="translate(186.669922 0)"/>
      <use xlink:href="#DejaVuSans-6f" transform="translate(214.453125 0)"/>
      <use xlink:href="#DejaVuSans-6e" transform="translate(275.634766 0)"/>
      <use xlink:href="#DejaVuSans-20" transform="translate(339.013672 0)"/>
      <use xlink:href="#DejaVuSans-65" transform="translate(370.800781 0)"/>
      <use xlink:href="#DejaVuSans-6e" transform="translate(432.324219 0)"/>
      <use xlink:href="#DejaVuSans-65" transform="translate(495.703125 0)"/>
      <use xlink:href="#DejaVuSans-72" transform="translate(557.226562 0)"/>
      <use xlink:href="#DejaVuSans-67" transform="translate(596.589844 0)"/>
      <use xlink:href="#DejaVuSans-79" transform="translate(660.066406 0)"/>
      <use xlink:href="#DejaVuSans-20" transform="translate(719.246094 0)"/>
      <use xlink:href="#DejaVuSans-28" transform="translate(751.033203 0)"/>
      <use xlink:href="#DejaVuSans-7a" transform="translate(790.046875 0)"/>
      <use xlink:href="#DejaVuSans-2d" transform="translate(842.537109 0)"/>
      <use xlink:href="#DejaVuSans-73" transform="translate(878.621094 0)"/>
      <use xlink:href="#DejaVuSans-63" transform="translate(930.720703 0)"/>
      <use xlink:href="#DejaVuSans-6f" transform="translate(985.701172 0)"/>
      <use xlink:href="#DejaVuSans-72" transform="translate(1046.882812 0)"/>
      <use xlink:href="#DejaVuSans-65" transform="translate(1085.746094 0)"/>
      <use xlink:href="#DejaVuSans-64" transform="translate(1147.269531 0)"/>
      <use xlink:href="#DejaVuSans-29" transform="translate(1210.746094 0)"/>
     </g>
    </g>
   </g>
   <g id="line2d_9">
    <path d="M 60.288778 149.325862 
L 61.138956 148.546872 
L 61.989134 148.844763 
L 62.839312 148.381663 
L 63.689489 148.271718 
L 64.539667 148.668433 
L 65.389845 147.834093 
L 66.240023 148.114145 
L 67.0902 148.133448 
L 67.940378 147.199924 
L 68.790556 146.863463 
L 69.640734 147.194015 
L 70.490911 146.67042 
L 71.341089 146.540017 
L 72.191267 145.502622 
L 73.041445 145.948952 
L 73.891622 145.739112 
L 74.7418 145.843356 
L 76.442156 145.68394 
L 77.292334 144.923003 
L 78.142511 144.376867 
L 78.992689 144.196497 
L 80.693045 143.353535 
L 81.543222 143.381581 
L 83.243578 142.741525 
L 84.093756 142.886287 
L 84.943933 143.193652 
L 85.794111 142.715841 
L 86.644289 40.756862 
L 87.494467 24.610696 
L 88.344644 39.714864 
L 89.194822 50.124589 
L 90.895178 67.540405 
L 91.745355 77.7396 
L 92.595533 86.009923 
L 93.445711 91.978207 
L 94.295889 96.712607 
L 96.846422 106.914825 
L 97.6966 108.403045 
L 98.546777 109.462073 
L 100.247133 110.389155 
L 101.097311 110.008064 
L 101.947488 109.984841 
L 102.797666 109.229258 
L 103.647844 108.714314 
L 104.498022 107.926301 
L 106.198377 106.920697 
L 107.048555 105.662836 
L 107.898733 105.138565 
L 109.599088 103.131171 
L 110.449266 103.085218 
L 111.299444 102.742001 
L 112.999799 102.415816 
L 114.700155 97.292798 
L 116.40051 93.311189 
L 117.250688 91.997399 
L 118.100866 90.431115 
L 118.951044 89.209645 
L 121.501577 82.693852 
L 122.351755 81.0919 
L 124.05211 78.939855 
L 124.902288 77.48102 
L 125.752466 77.136106 
L 126.602643 77.92839 
L 127.452821 79.725941 
L 128.302999 82.022883 
L 129.153177 83.048636 
L 130.853532 84.385208 
L 131.70371 86.723027 
L 132.553888 87.916344 
L 134.254243 91.289119 
L 135.104421 92.953168 
L 135.954599 94.86175 
L 136.804776 96.178585 
L 137.654954 98.348887 
L 139.35531 100.945408 
L 140.205487 103.235819 
L 141.055665 103.789095 
L 142.756021 106.262875 
L 143.606198 107.86517 
L 147.857087 112.975822 
L 148.707265 114.668828 
L 151.257798 118.528887 
L 152.107976 119.378059 
L 152.958154 120.96612 
L 153.808331 121.489099 
L 154.658509 123.443339 
L 155.508687 123.893371 
L 156.358865 125.78141 
L 157.209043 126.483499 
L 158.05922 128.277153 
L 158.909398 129.033578 
L 160.609754 131.563781 
L 161.459931 132.146963 
L 162.310109 133.143246 
L 163.160287 134.67487 
L 164.010465 135.126997 
L 164.860642 136.451715 
L 165.71082 136.783598 
L 167.411176 139.646165 
L 168.261353 140.196528 
L 169.111531 140.093085 
L 169.961709 141.143527 
L 170.811887 141.364815 
L 171.662064 140.442218 
L 174.212598 135.556879 
L 175.062775 133.491936 
L 176.763131 130.238482 
L 177.613309 128.427019 
L 179.313664 126.355347 
L 180.163842 124.702866 
L 181.01402 123.566407 
L 181.864197 122.627411 
L 182.714375 121.240825 
L 183.564553 120.696517 
L 184.414731 121.027826 
L 185.264908 122.185308 
L 186.115086 123.119626 
L 189.515797 131.043781 
L 190.365975 131.854168 
L 191.216153 133.016677 
L 192.06633 133.76548 
L 192.916508 135.050416 
L 193.766686 136.730201 
L 194.616864 137.588102 
L 195.467041 137.852128 
L 196.317219 138.705408 
L 197.167397 139.173759 
L 198.017575 139.483016 
L 198.867753 140.173961 
L 199.71793 140.624942 
L 200.568108 141.585505 
L 201.418286 142.214128 
L 203.118641 142.204022 
L 204.818997 143.775271 
L 206.519352 144.671403 
L 207.36953 145.309697 
L 208.219708 145.678372 
L 209.069886 146.52511 
L 209.920063 146.643651 
L 210.770241 147.60328 
L 211.620419 148.058374 
L 212.470597 148.329785 
L 212.470597 148.329785 
" clip-path="url(#pd55766bed9)" style="fill: none; stroke: #f45b69; stroke-width: 2; stroke-linecap: square"/>
   </g>
   <g id="line2d_10">
    <path d="M 60.288778 150.348053 
L 61.138956 149.471033 
L 61.989134 149.843491 
L 63.689489 148.802362 
L 64.539667 148.464953 
L 65.389845 148.391811 
L 66.240023 147.916766 
L 67.0902 147.743373 
L 67.940378 147.093802 
L 68.790556 147.196223 
L 70.490911 146.381083 
L 71.341089 146.484759 
L 72.191267 146.010039 
L 73.041445 145.667667 
L 73.891622 145.61698 
L 74.7418 145.137964 
L 75.591978 145.515389 
L 76.442156 144.985684 
L 77.292334 144.140282 
L 78.992689 143.744566 
L 80.693045 144.053222 
L 81.543222 143.171696 
L 82.3934 142.96459 
L 84.943933 143.013419 
L 85.794111 141.667418 
L 86.644289 47.768052 
L 87.494467 35.203836 
L 88.344644 46.703298 
L 89.194822 56.250128 
L 90.045 61.835158 
L 92.595533 83.456239 
L 93.445711 88.459297 
L 95.146066 96.18888 
L 95.996244 99.437862 
L 96.846422 101.277473 
L 97.6966 102.004416 
L 99.396955 101.210318 
L 100.247133 100.500346 
L 101.947488 97.412951 
L 103.647844 94.859167 
L 104.498022 93.098573 
L 105.348199 91.783542 
L 106.198377 90.089927 
L 107.048555 89.398153 
L 108.74891 89.15907 
L 110.449266 87.882544 
L 112.149621 87.501437 
L 112.999799 86.806799 
L 115.550332 81.0945 
L 116.40051 81.351811 
L 117.250688 81.799762 
L 118.951044 81.125688 
L 119.801221 81.376158 
L 120.651399 81.055163 
L 123.201932 78.870757 
L 124.05211 79.378769 
L 124.902288 79.288503 
L 125.752466 80.182085 
L 126.602643 82.125443 
L 127.452821 84.671937 
L 128.302999 86.021236 
L 129.153177 86.974805 
L 130.003354 86.733454 
L 130.853532 86.968289 
L 131.70371 88.791783 
L 133.404065 90.361682 
L 135.954599 93.998913 
L 136.804776 94.863603 
L 137.654954 96.383282 
L 138.505132 97.027344 
L 141.055665 100.105566 
L 142.756021 101.430624 
L 143.606198 102.395151 
L 144.456376 103.718771 
L 146.156732 105.441305 
L 147.006909 105.838395 
L 147.857087 107.635903 
L 149.557443 109.493702 
L 150.40762 110.678642 
L 151.257798 111.565479 
L 152.107976 112.178689 
L 152.958154 113.473592 
L 153.808331 114.159076 
L 155.508687 116.147458 
L 157.209043 118.922522 
L 158.05922 119.486442 
L 159.759576 121.647643 
L 160.609754 122.176441 
L 161.459931 124.104133 
L 162.310109 125.150162 
L 164.860642 127.764912 
L 165.71082 129.290993 
L 167.411176 131.310975 
L 168.261353 132.148438 
L 169.111531 132.811121 
L 169.961709 133.853004 
L 170.811887 134.169464 
L 171.662064 134.265157 
L 173.36242 132.645072 
L 175.062775 129.936843 
L 176.763131 128.153478 
L 177.613309 126.465677 
L 178.463486 125.486914 
L 179.313664 124.940428 
L 180.163842 123.641399 
L 181.864197 122.416662 
L 183.564553 121.500872 
L 184.414731 121.563412 
L 185.264908 122.591368 
L 190.365975 130.943911 
L 191.216153 132.119453 
L 192.06633 133.777171 
L 193.766686 135.878687 
L 194.616864 136.656815 
L 195.467041 138.606454 
L 197.167397 140.080342 
L 198.017575 141.225777 
L 199.71793 142.945304 
L 200.568108 143.473396 
L 202.268464 145.523897 
L 203.118641 146.329407 
L 203.968819 146.747315 
L 205.669175 148.200679 
L 206.519352 149.058398 
L 208.219708 150.297847 
L 209.069886 150.703529 
L 209.920063 151.870902 
L 210.770241 152.759481 
L 211.620419 153.244796 
L 212.470597 154.345585 
L 212.470597 154.345585 
" clip-path="url(#pd55766bed9)" style="fill: none; stroke: #000000; stroke-width: 2; stroke-linecap: square"/>
   </g>
   <g id="line2d_11">
    <path d="M 60.288778 147.854846 
L 61.138956 147.226782 
L 61.989134 148.264058 
L 62.839312 147.63284 
L 63.689489 148.90248 
L 65.389845 147.137622 
L 66.240023 147.953908 
L 67.940378 146.439016 
L 68.790556 146.899694 
L 69.640734 146.731009 
L 71.341089 143.755782 
L 72.191267 145.053528 
L 73.041445 145.181454 
L 73.891622 145.552102 
L 74.7418 146.383679 
L 76.442156 145.024867 
L 77.292334 143.798977 
L 78.142511 144.268013 
L 78.992689 146.387491 
L 79.842867 145.570097 
L 80.693045 145.160039 
L 81.543222 144.276191 
L 82.3934 144.14969 
L 83.243578 145.443789 
L 84.093756 145.447283 
L 85.794111 142.84086 
L 86.644289 48.270247 
L 87.494467 27.603784 
L 88.344644 44.196217 
L 89.194822 55.207262 
L 90.045 62.619893 
L 91.745355 84.47781 
L 93.445711 96.956645 
L 95.996244 109.110624 
L 97.6966 114.89406 
L 98.546777 114.27447 
L 99.396955 116.071901 
L 100.247133 116.428011 
L 101.097311 116.096468 
L 101.947488 115.547809 
L 102.797666 114.583827 
L 104.498022 112.083476 
L 105.348199 111.036531 
L 106.198377 110.658951 
L 107.048555 109.505125 
L 107.898733 110.348257 
L 108.74891 108.193715 
L 109.599088 106.870739 
L 110.449266 106.676849 
L 111.299444 106.258847 
L 112.149621 106.310729 
L 112.999799 106.123328 
L 113.849977 104.023475 
L 114.700155 101.383556 
L 115.550332 99.817157 
L 116.40051 97.970296 
L 117.250688 98.148528 
L 118.100866 97.836672 
L 118.951044 96.476408 
L 119.801221 94.597154 
L 120.651399 93.51417 
L 121.501577 92.108847 
L 122.351755 90.241337 
L 123.201932 88.935595 
L 124.05211 89.84657 
L 124.902288 86.0975 
L 126.602643 86.843327 
L 128.302999 90.282901 
L 129.153177 91.890566 
L 130.003354 91.403265 
L 130.853532 92.442359 
L 131.70371 94.114806 
L 132.553888 95.167007 
L 134.254243 98.380241 
L 135.104421 98.699046 
L 135.954599 100.560849 
L 137.654954 103.020793 
L 138.505132 105.122657 
L 139.35531 106.614591 
L 140.205487 107.874221 
L 141.055665 108.622502 
L 141.905843 109.140032 
L 142.756021 110.528918 
L 145.306554 112.243742 
L 146.156732 112.269795 
L 147.006909 113.341411 
L 147.857087 116.084671 
L 148.707265 118.197606 
L 149.557443 117.153466 
L 150.40762 118.906949 
L 151.257798 118.816638 
L 152.107976 119.879055 
L 152.958154 120.388506 
L 153.808331 120.546935 
L 155.508687 124.43236 
L 156.358865 125.211912 
L 157.209043 125.293156 
L 158.05922 127.000716 
L 158.909398 127.208868 
L 159.759576 128.112292 
L 160.609754 129.515354 
L 161.459931 131.240513 
L 162.310109 129.479754 
L 163.160287 132.34606 
L 164.010465 133.30195 
L 164.860642 135.114738 
L 165.71082 135.639331 
L 166.560998 136.783176 
L 167.411176 137.264878 
L 168.261353 138.148794 
L 169.111531 138.359071 
L 169.961709 138.938076 
L 170.811887 138.948439 
L 171.662064 138.566251 
L 172.512242 137.20154 
L 174.212598 131.921659 
L 175.062775 130.263424 
L 175.912953 127.718409 
L 176.763131 127.05765 
L 177.613309 125.714133 
L 178.463486 123.836436 
L 179.313664 123.367368 
L 180.163842 122.123543 
L 181.01402 120.255096 
L 181.864197 120.822428 
L 182.714375 120.144187 
L 183.564553 120.293457 
L 184.414731 119.917554 
L 186.115086 121.778532 
L 186.965264 123.223602 
L 189.515797 129.07252 
L 190.365975 130.130004 
L 191.216153 130.345473 
L 192.06633 131.626537 
L 192.916508 132.643236 
L 194.616864 135.801077 
L 195.467041 136.659628 
L 196.317219 136.133617 
L 197.167397 137.453076 
L 198.017575 137.964218 
L 198.867753 137.845106 
L 199.71793 137.367123 
L 200.568108 138.544362 
L 201.418286 139.443271 
L 202.268464 140.652793 
L 203.118641 142.196245 
L 203.968819 141.501924 
L 204.818997 140.54691 
L 205.669175 141.489499 
L 206.519352 142.01962 
L 207.36953 143.905903 
L 208.219708 143.920234 
L 209.069886 143.251097 
L 209.920063 145.727525 
L 210.770241 146.015074 
L 211.620419 146.880037 
L 212.470597 147.373796 
L 212.470597 147.373796 
" clip-path="url(#pd55766bed9)" style="fill: none; stroke: #8b5cf6; stroke-width: 2; stroke-linecap: square"/>
   </g>
   <g id="patch_3">
    <path d="M 52.679688 173.52 
L 52.679688 7.2 
" style="fill: none; stroke: #000000; stroke-width: 1.2; stroke-linejoin: miter; stroke-linecap: square"/>
   </g>
   <g id="patch_4">
    <path d="M 52.679688 173.52 
L 220.079688 173.52 
" style="fill: none; stroke: #000000; stroke-width: 1.2; stroke-linejoin: miter; stroke-linecap: square"/>
   </g>
   <g id="text_10">
    <!-- Bias -->
    <g style="fill: #f45b69" transform="translate(169.859688 23.832) scale(0.1 -0.1)">
     <defs>
      <path id="DejaVuSans-42" d="M 1259 2228 
L 1259 519 
L 2272 519 
Q 2781 519 3026 730 
Q 3272 941 3272 1375 
Q 3272 1813 3026 2020 
Q 2781 2228 2272 2228 
L 1259 2228 
z
M 1259 4147 
L 1259 2741 
L 2194 2741 
Q 2656 2741 2882 2914 
Q 3109 3088 3109 3444 
Q 3109 3797 2882 3972 
Q 2656 4147 2194 4147 
L 1259 4147 
z
M 628 4666 
L 2241 4666 
Q 2963 4666 3353 4366 
Q 3744 4066 3744 3513 
Q 3744 3084 3544 2831 
Q 3344 2578 2956 2516 
Q 3422 2416 3680 2098 
Q 3938 1781 3938 1306 
Q 3938 681 3513 340 
Q 3088 0 2303 0 
L 628 0 
L 628 4666 
z
" transform="scale(0.015625)"/>
      <path id="DejaVuSans-61" d="M 2194 1759 
Q 1497 1759 1228 1600 
Q 959 1441 959 1056 
Q 959 750 1161 570 
Q 1363 391 1709 391 
Q 2188 391 2477 730 
Q 2766 1069 2766 1631 
L 2766 1759 
L 2194 1759 
z
M 3341 1997 
L 3341 0 
L 2766 0 
L 2766 531 
Q 2569 213 2275 61 
Q 1981 -91 1556 -91 
Q 1019 -91 701 211 
Q 384 513 384 1019 
Q 384 1609 779 1909 
Q 1175 2209 1959 2209 
L 2766 2209 
L 2766 2266 
Q 2766 2663 2505 2880 
Q 2244 3097 1772 3097 
Q 1472 3097 1187 3025 
Q 903 2953 641 2809 
L 641 3341 
Q 956 3463 1253 3523 
Q 1550 3584 1831 3584 
Q 2591 3584 2966 3190 
Q 3341 2797 3341 1997 
z
" transform="scale(0.015625)"/>
     </defs>
     <use xlink:href="#DejaVuSans-42"/>
     <use xlink:href="#DejaVuSans-69" transform="translate(68.603516 0)"/>
     <use xlink:href="#DejaVuSans-61" transform="translate(96.386719 0)"/>
     <use xlink:href="#DejaVuSans-73" transform="translate(157.666016 0)"/>
    </g>
   </g>
   <g id="text_11">
    <!-- Stochastic -->
    <g transform="translate(169.859688 32.148) scale(0.1 -0.1)">
     <defs>
      <path id="DejaVuSans-53" d="M 3425 4513 
L 3425 3897 
Q 3066 4069 2747 4153 
Q 2428 4238 2131 4238 
Q 1616 4238 1336 4038 
Q 1056 3838 1056 3469 
Q 1056 3159 1242 3001 
Q 1428 2844 1947 2747 
L 2328 2669 
Q 3034 2534 3370 2195 
Q 3706 1856 3706 1288 
Q 3706 609 3251 259 
Q 2797 -91 1919 -91 
Q 1588 -91 1214 -16 
Q 841 59 441 206 
L 441 856 
Q 825 641 1194 531 
Q 1563 422 1919 422 
Q 2459 422 2753 634 
Q 3047 847 3047 1241 
Q 3047 1584 2836 1778 
Q 2625 1972 2144 2069 
L 1759 2144 
Q 1053 2284 737 2584 
Q 422 2884 422 3419 
Q 422 4038 858 4394 
Q 1294 4750 2059 4750 
Q 2388 4750 2728 4690 
Q 3069 4631 3425 4513 
z
" transform="scale(0.015625)"/>
      <path id="DejaVuSans-68" d="M 3513 2113 
L 3513 0 
L 2938 0 
L 2938 2094 
Q 2938 2591 2744 2837 
Q 2550 3084 2163 3084 
Q 1697 3084 1428 2787 
Q 1159 2491 1159 1978 
L 1159 0 
L 581 0 
L 581 4863 
L 1159 4863 
L 1159 2956 
Q 1366 3272 1645 3428 
Q 1925 3584 2291 3584 
Q 2894 3584 3203 3211 
Q 3513 2838 3513 2113 
z
" transform="scale(0.015625)"/>
     </defs>
     <use xlink:href="#DejaVuSans-53"/>
     <use xlink:href="#DejaVuSans-74" transform="translate(63.476562 0)"/>
     <use xlink:href="#DejaVuSans-6f" transform="translate(102.685547 0)"/>
     <use xlink:href="#DejaVuSans-63" transform="translate(163.867188 0)"/>
     <use xlink:href="#DejaVuSans-68" transform="translate(218.847656 0)"/>
     <use xlink:href="#DejaVuSans-61" transform="translate(282.226562 0)"/>
     <use xlink:href="#DejaVuSans-73" transform="translate(343.505859 0)"/>
     <use xlink:href="#DejaVuSans-74" transform="translate(395.605469 0)"/>
     <use xlink:href="#DejaVuSans-69" transform="translate(434.814453 0)"/>
     <use xlink:href="#DejaVuSans-63" transform="translate(462.597656 0)"/>
    </g>
   </g>
   <g id="text_12">
    <!-- Block switch -->
    <g style="fill: #8b5cf6" transform="translate(169.859688 40.464) scale(0.1 -0.1)">
     <defs>
      <path id="DejaVuSans-6c" d="M 603 4863 
L 1178 4863 
L 1178 0 
L 603 0 
L 603 4863 
z
" transform="scale(0.015625)"/>
      <path id="DejaVuSans-6b" d="M 581 4863 
L 1159 4863 
L 1159 1991 
L 2875 3500 
L 3609 3500 
L 1753 1863 
L 3688 0 
L 2938 0 
L 1159 1709 
L 1159 0 
L 581 0 
L 581 4863 
z
" transform="scale(0.015625)"/>
      <path id="DejaVuSans-77" d="M 269 3500 
L 844 3500 
L 1563 769 
L 2278 3500 
L 2956 3500 
L 3675 769 
L 4391 3500 
L 4966 3500 
L 4050 0 
L 3372 0 
L 2619 2869 
L 1863 0 
L 1184 0 
L 269 3500 
z
" transform="scale(0.015625)"/>
     </defs>
     <use xlink:href="#DejaVuSans-42"/>
     <use xlink:href="#DejaVuSans-6c" transform="translate(68.603516 0)"/>
     <use xlink:href="#DejaVuSans-6f" transform="translate(96.386719 0)"/>
     <use xlink:href="#DejaVuSans-63" transform="translate(157.568359 0)"/>
     <use xlink:href="#DejaVuSans-6b" transform="translate(212.548828 0)"/>
     <use xlink:href="#DejaVuSans-20" transform="translate(270.458984 0)"/>
     <use xlink:href="#DejaVuSans-73" transform="translate(302.246094 0)"/>
     <use xlink:href="#DejaVuSans-77" transform="translate(354.345703 0)"/>
     <use xlink:href="#DejaVuSans-69" transform="translate(436.132812 0)"/>
     <use xlink:href="#DejaVuSans-74" transform="translate(463.916016 0)"/>
     <use xlink:href="#DejaVuSans-63" transform="translate(503.125 0)"/>
     <use xlink:href="#DejaVuSans-68" transform="translate(558.105469 0)"/>
    </g>
   </g>
  </g>
 </g>
 <defs>
  <clipPath id="pd55766bed9">
   <rect x="52.679688" y="7.2" width="167.4" height="166.32"/>
  </clipPath>
 </defs>
</svg>
