<?xml version="1.0" encoding="UTF-8" standalone="no"?>
<!-- Created with Inkscape (http://www.inkscape.org/) -->

<svg
   width="23.881187mm"
   height="23.568588mm"
   viewBox="0 0 23.881187 23.568588"
   version="1.1"
   id="svg83530"
   inkscape:version="1.2.2 (b0a8486541, 2022-12-01)"
   sodipodi:docname="photometry_set_up_cartoon_v2.svg"
   xmlns:inkscape="http://www.inkscape.org/namespaces/inkscape"
   xmlns:sodipodi="http://sodipodi.sourceforge.net/DTD/sodipodi-0.dtd"
   xmlns="http://www.w3.org/2000/svg"
   xmlns:svg="http://www.w3.org/2000/svg">
  <sodipodi:namedview
     id="namedview83532"
     pagecolor="#ffffff"
     bordercolor="#000000"
     borderopacity="0.25"
     inkscape:showpageshadow="2"
     inkscape:pageopacity="0.0"
     inkscape:pagecheckerboard="0"
     inkscape:deskcolor="#d1d1d1"
     inkscape:document-units="mm"
     showgrid="false"
     inkscape:zoom="5.0560972"
     inkscape:cx="250.48965"
     inkscape:cy="322.77861"
     inkscape:window-width="1387"
     inkscape:window-height="1379"
     inkscape:window-x="1169"
     inkscape:window-y="59"
     inkscape:window-maximized="1"
     inkscape:current-layer="layer1" />
  <defs
     id="defs83527">
    <clipPath
       id="clip-353">
      <path
         clip-rule="nonzero"
         d="M 407.22266,10 H 422 v 13 h -14.77734 z m 0,0"
         id="path72536" />
    </clipPath>
    <mask
       id="mask-283">
      <g
         filter="url(#filter-remove-color)"
         id="g72541">
        <rect
           x="-55.927601"
           y="-26.9151"
           width="671.13123"
           height="322.9812"
           fill="#000000"
           fill-opacity="0.25"
           id="rect72539" />
      </g>
    </mask>
    <filter
       id="filter-remove-color"
       x="0"
       y="0"
       width="1"
       height="1">
      <feColorMatrix
         color-interpolation-filters="sRGB"
         values="0 0 0 0 1 0 0 0 0 1 0 0 0 0 1 0 0 0 1 0"
         id="feColorMatrix64868" />
    </filter>
    <clipPath
       id="clip-355">
      <rect
         x="0"
         y="0"
         width="15"
         height="14"
         id="rect72547" />
    </clipPath>
    <clipPath
       id="clip-354">
      <path
         clip-rule="nonzero"
         d="M 0.851562,0.867188 H 14.617188 V 13.027344 H 0.851562 Z m 0,0"
         id="path72544" />
    </clipPath>
  </defs>
  <g
     inkscape:label="Layer 1"
     inkscape:groupmode="layer"
     id="layer1"
     transform="translate(-51.392419,-74.394872)">
    <path
       fill="none"
       stroke-width="0.472017"
       stroke-linecap="butt"
       stroke-linejoin="miter"
       stroke="#0092ff"
       stroke-opacity="1"
       stroke-miterlimit="10"
       d="m 71.675254,75.6103 h -3.16811"
       id="path81698" />
    <path
       fill-rule="nonzero"
       fill="#0092ff"
       fill-opacity="1"
       stroke-width="0.0391583"
       stroke-linecap="butt"
       stroke-linejoin="miter"
       stroke="#000000"
       stroke-opacity="1"
       stroke-miterlimit="10"
       d="m 75.25402,76.811948 h -3.581521 v -2.118044 h 3.581521 z m 0,0"
       id="path81700" />
    <g
       fill="#ffffff"
       fill-opacity="1"
       id="g81708"
       transform="matrix(0.35277777,0,0,0.35277777,-78.162969,69.858368)">
      <g
         id="use81702"
         transform="translate(426.42761,17.9986)">
        <path
           d="M 1.75,0 V -0.78125 H 2.15625 V -1.078125 H 1.75 v -1.78125 H 1.34375 L 0.0625,-1.03125 v 0.25 H 1.390625 V 0 Z M 0.453125,-1.078125 V -1.09375 L 1.15625,-2.0625 c 0.078125,-0.125 0.140625,-0.25 0.234375,-0.421875 H 1.40625 C 1.390625,-2.328125 1.390625,-2.1875 1.390625,-2.03125 v 0.953125 z m 0,0"
           id="path84055" />
      </g>
      <g
         id="use81704"
         transform="translate(428.67966,17.9986)">
        <path
           d="m 1.828125,-2.890625 c -0.078125,0 -0.171875,0 -0.28125,0.015625 C 1.1875,-2.828125 0.875,-2.6875 0.625,-2.453125 c -0.28125,0.28125 -0.46875,0.71875 -0.46875,1.28125 0,0.75 0.390625,1.21875 1,1.21875 0.59375,0 0.953125,-0.484375 0.953125,-1 C 2.109375,-1.515625 1.75,-1.875 1.25,-1.875 c -0.3125,0 -0.5625,0.140625 -0.6875,0.328125 H 0.546875 C 0.609375,-2.015625 0.9375,-2.46875 1.53125,-2.5625 1.640625,-2.578125 1.75,-2.59375 1.828125,-2.578125 Z M 1.15625,-0.25 c -0.40625,0 -0.609375,-0.34375 -0.625,-0.8125 0,-0.078125 0.015625,-0.125 0.046875,-0.171875 C 0.6875,-1.4375 0.890625,-1.59375 1.125,-1.59375 c 0.359375,0 0.59375,0.25 0.59375,0.65625 0,0.40625 -0.21875,0.6875 -0.5625,0.6875 z m 0,0"
           id="path84129" />
      </g>
      <g
         id="use81706"
         transform="translate(430.93173,17.9986)">
        <path
           d="m 1.90625,-2.859375 h -1.375 l -0.1875,1.375 C 0.453125,-1.5 0.578125,-1.515625 0.75,-1.515625 c 0.5625,0 0.8125,0.265625 0.8125,0.640625 0,0.375 -0.3125,0.609375 -0.671875,0.609375 -0.265625,0 -0.484375,-0.078125 -0.609375,-0.15625 L 0.1875,-0.125 c 0.140625,0.078125 0.390625,0.171875 0.703125,0.171875 0.625,0 1.0625,-0.421875 1.0625,-0.96875 0,-0.359375 -0.171875,-0.609375 -0.40625,-0.734375 C 1.375,-1.765625 1.15625,-1.8125 0.9375,-1.8125 c -0.109375,0 -0.171875,0.015625 -0.234375,0.015625 L 0.8125,-2.53125 h 1.09375 z m 0,0"
           id="path84051" />
      </g>
    </g>
    <path
       fill-rule="nonzero"
       fill="#ffffff"
       fill-opacity="1"
       d="m 67.508067,79.749926 h 1.074871 c 0.01101,0 0.02067,0.0096 0.02067,0.02067 v 5.474946 c 0,0.01102 -0.0096,0.02067 -0.02067,0.02067 h -1.074871 c -0.01101,0 -0.02067,-0.0096 -0.02067,-0.02067 v -5.474945 c 0,-0.01102 0.0096,-0.02067 0.02067,-0.02067"
       id="path81710"
       style="stroke-width:0.352778" />
    <path
       fill="none"
       stroke-width="0.0786694"
       stroke-linecap="butt"
       stroke-linejoin="miter"
       stroke="#000000"
       stroke-opacity="1"
       stroke-miterlimit="10"
       d="m 67.508067,79.749926 h 1.07487 c 0.01102,0 0.02067,0.0096 0.02067,0.02067 v 5.474946 c 0,0.01102 -0.0096,0.02067 -0.02067,0.02067 h -1.07487 c -0.01102,0 -0.02067,-0.0096 -0.02067,-0.02067 v -5.474946 c 0,-0.01102 0.0096,-0.02067 0.02067,-0.02067 z m 0,0"
       id="path81712" />
    <path
       fill="none"
       stroke-width="0.472017"
       stroke-linecap="butt"
       stroke-linejoin="miter"
       stroke="#0092ff"
       stroke-opacity="1"
       stroke-miterlimit="10"
       d="M 68.2715,85.67549 V 75.33607"
       id="path81714" />
    <path
       fill-rule="nonzero"
       fill="#ffffff"
       fill-opacity="1"
       stroke-width="0.0391583"
       stroke-linecap="butt"
       stroke-linejoin="miter"
       stroke="#ffffff"
       stroke-opacity="1"
       stroke-miterlimit="10"
       d="m 68.068929,75.183107 -0.03445,0.4079 0.424436,-0.286632 z m 0,0"
       id="path81716" />
    <path
       fill="none"
       stroke-width="0.472017"
       stroke-linecap="butt"
       stroke-linejoin="miter"
       stroke="#00ff00"
       stroke-opacity="1"
       stroke-miterlimit="10"
       d="M 67.782297,85.67549 V 74.39487"
       id="path81718" />
    <path
       fill="none"
       stroke-width="0.0786694"
       stroke-linecap="butt"
       stroke-linejoin="miter"
       stroke="#000000"
       stroke-opacity="1"
       stroke-miterlimit="10"
       d="m 68.2715,83.656664 v 0.861274"
       id="path81720" />
    <path
       fill-rule="nonzero"
       fill="#000000"
       fill-opacity="1"
       d="m 68.137832,84.36222 0.133667,0.132291 0.133671,-0.132291 v 0.112999 l -0.133671,0.132292 -0.133667,-0.132292 z m 0,0"
       id="path81722"
       style="stroke-width:0.352778" />
    <path
       fill="none"
       stroke-width="0.0786694"
       stroke-linecap="butt"
       stroke-linejoin="miter"
       stroke="#000000"
       stroke-opacity="1"
       stroke-miterlimit="10"
       d="m 67.782297,83.746237 v 0.861274"
       id="path81724" />
    <path
       fill-rule="nonzero"
       fill="#000000"
       fill-opacity="1"
       d="m 67.648628,83.901955 0.133667,-0.132292 0.132292,0.132292 v -0.112999 l -0.132292,-0.132292 -0.133667,0.132292 z m 0,0"
       id="path81726"
       style="stroke-width:0.352778" />
    <g
       clip-path="url(#clip-353)"
       id="g81730"
       transform="matrix(0.35277777,0,0,0.35277777,-78.162969,69.858368)">
      <path
         fill="none"
         stroke-width="0.223"
         stroke-linecap="butt"
         stroke-linejoin="miter"
         stroke="#000000"
         stroke-opacity="1"
         stroke-miterlimit="10"
         d="M 0.0017625,-0.00110625 -9.158394,-6.180794"
         transform="matrix(1,0,0,-1,418.7873,13.5028)"
         id="path81728" />
    </g>
    <path
       fill="none"
       stroke-width="0.0786694"
       stroke-linecap="butt"
       stroke-linejoin="miter"
       stroke="#000000"
       stroke-opacity="1"
       stroke-miterlimit="10"
       d="m 67.243484,77.179884 h 1.604036 c 0.08544,0 0.155718,0.07028 0.155718,0.157097 v 2.255848 c 0,0.08682 -0.07028,0.157096 -0.155718,0.157096 h -1.604036 c -0.08544,0 -0.155719,-0.07028 -0.155719,-0.157096 v -2.255848 c 0,-0.08682 0.07028,-0.157097 0.155719,-0.157097 z m 0,0"
       id="path81732" />
    <path
       fill-rule="nonzero"
       fill="#56b4e9"
       fill-opacity="1"
       d="m 54.875592,96.330481 h 0.387227 c 0.143316,0 0.250804,0.03169 0.322463,0.09646 0.07304,0.06477 0.110243,0.158474 0.110243,0.282498 0,0.125401 -0.03721,0.220486 -0.110243,0.285254 -0.07166,0.06339 -0.179147,0.09508 -0.322463,0.09508 h -0.216352 v 0.511252 h -0.170875 z m 0.170875,0.141938 v 0.476801 h 0.216352 c 0.07993,0 0.14194,-0.02067 0.186037,-0.06201 0.04272,-0.04134 0.06477,-0.100597 0.06477,-0.177767 0,-0.07579 -0.02205,-0.13367 -0.06477,-0.175011 -0.0441,-0.04134 -0.106108,-0.06201 -0.186037,-0.06201 z m 0,0"
       id="path81734"
       style="stroke-width:0.352778" />
    <path
       fill-rule="nonzero"
       fill="#56b4e9"
       fill-opacity="1"
       d="M 55.871914,97.224828 V 96.64743 h 0.157096 v 0.571886 c 0,0.08957 0.01792,0.157096 0.05237,0.202571 0.03583,0.04548 0.08819,0.06752 0.158471,0.06752 0.08406,0 0.151586,-0.02618 0.199817,-0.0813 0.04961,-0.05374 0.07442,-0.12678 0.07442,-0.220486 V 96.64743 h 0.155716 v 0.953602 H 56.514079 V 97.45496 c -0.03859,0.05788 -0.08268,0.100597 -0.132291,0.128158 -0.05099,0.02894 -0.108868,0.04272 -0.175013,0.04272 -0.110244,0 -0.192924,-0.03445 -0.249425,-0.101975 -0.0565,-0.0689 -0.08544,-0.168121 -0.08544,-0.299034"
       id="path81736"
       style="stroke-width:0.352778" />
    <path
       fill-rule="nonzero"
       fill="#56b4e9"
       fill-opacity="1"
       d="m 57.677142,97.125609 c 0,-0.115755 -0.02343,-0.205327 -0.07166,-0.271473 -0.04685,-0.06477 -0.111622,-0.09784 -0.194302,-0.09784 -0.08406,0 -0.14883,0.03307 -0.195683,0.09784 -0.04823,0.06615 -0.07166,0.155718 -0.07166,0.271473 0,0.114377 0.02343,0.205328 0.07166,0.270096 0.04685,0.06615 0.111623,0.09922 0.195683,0.09922 0.08268,0 0.14745,-0.03307 0.194302,-0.09922 0.04823,-0.06477 0.07166,-0.155719 0.07166,-0.270096 m -0.533302,0.332107 v 0.50574 H 56.986745 V 96.64743 h 0.157095 v 0.144694 c 0.03306,-0.0565 0.07442,-0.09784 0.125402,-0.125401 0.04961,-0.02756 0.110243,-0.04134 0.179148,-0.04134 0.115753,0 0.210838,0.04547 0.282497,0.137804 0.07304,0.09095 0.108864,0.212218 0.108864,0.362424 0,0.148828 -0.03583,0.270096 -0.108864,0.362424 -0.07166,0.09095 -0.166744,0.137804 -0.282497,0.137804 -0.06891,0 -0.129536,-0.01378 -0.179148,-0.04134 -0.05099,-0.02756 -0.09233,-0.07028 -0.125402,-0.12678"
       id="path81738"
       style="stroke-width:0.352778" />
    <path
       fill-rule="nonzero"
       fill="#56b4e9"
       fill-opacity="1"
       d="m 58.098824,96.276738 h 0.157095 v 0.198437 h -0.157095 z m 0,0.370692 h 0.157095 v 0.953602 h -0.157095 z m 0,0"
       id="path81740"
       style="stroke-width:0.352778" />
    <path
       fill-rule="nonzero"
       fill="#56b4e9"
       fill-opacity="1"
       d="m 58.582514,96.276738 h 0.157096 v 1.324294 h -0.157096 z m 0,0"
       id="path81742"
       style="stroke-width:0.352778" />
    <path
       fill-rule="nonzero"
       fill="#56b4e9"
       fill-opacity="1"
       d="m 59.775894,96.377334 v 0.270096 h 0.32246 v 0.122645 h -0.32246 v 0.516765 c 0,0.07855 0.01101,0.128157 0.03171,0.150206 0.02067,0.02205 0.06477,0.03307 0.129533,0.03307 h 0.16123 v 0.130913 h -0.16123 c -0.119888,0 -0.203948,-0.02205 -0.249425,-0.06752 -0.04547,-0.04548 -0.0689,-0.128158 -0.0689,-0.246669 V 96.770075 H 59.503059 V 96.64743 h 0.115757 v -0.270096 z m 0,0"
       id="path81744"
       style="stroke-width:0.352778" />
    <path
       fill-rule="nonzero"
       fill="#56b4e9"
       fill-opacity="1"
       d="m 60.856276,96.793502 c -0.01792,-0.0096 -0.03721,-0.01654 -0.05788,-0.02205 -0.0193,-0.0041 -0.04272,-0.0069 -0.06753,-0.0069 -0.08957,0 -0.157095,0.02894 -0.203948,0.08682 -0.04823,0.0565 -0.07166,0.139182 -0.07166,0.248047 v 0.501606 H 60.298171 V 96.64743 h 0.157096 v 0.148828 c 0.03305,-0.05788 0.07579,-0.100597 0.128157,-0.129535 0.05374,-0.02756 0.117136,-0.04134 0.192927,-0.04134 0.01101,0 0.02342,0 0.03583,0.0014 0.01379,0.0014 0.02755,0.0041 0.0441,0.0069 z m 0,0"
       id="path81746"
       style="stroke-width:0.352778" />
    <path
       fill-rule="nonzero"
       fill="#56b4e9"
       fill-opacity="1"
       d="m 61.765783,97.056707 v 0.544325 h -0.155719 v -0.144694 c -0.03583,0.05788 -0.08131,0.100597 -0.133672,0.128158 -0.05374,0.02756 -0.118508,0.04134 -0.197058,0.04134 -0.09646,0 -0.173633,-0.02756 -0.23151,-0.08268 -0.05788,-0.05512 -0.08682,-0.128158 -0.08682,-0.219108 0,-0.107487 0.03583,-0.188792 0.107484,-0.242535 0.07166,-0.05512 0.179148,-0.08268 0.321084,-0.08268 h 0.220487 v -0.01516 c 0,-0.07166 -0.0248,-0.128158 -0.07166,-0.166743 -0.04686,-0.03996 -0.114377,-0.05926 -0.199817,-0.05926 -0.05374,0 -0.107487,0.0069 -0.158474,0.01929 -0.05237,0.01378 -0.101974,0.03307 -0.148827,0.05926 v -0.144695 c 0.0565,-0.02205 0.112998,-0.03858 0.166741,-0.04961 0.05374,-0.01103 0.106108,-0.01654 0.157095,-0.01654 0.137806,0 0.241159,0.03583 0.308681,0.107487 0.0689,0.07028 0.101977,0.179145 0.101977,0.323839 m -0.311439,0.06477 c -0.126778,0 -0.214972,0.01516 -0.263204,0.0441 -0.04961,0.02894 -0.07304,0.07855 -0.07304,0.14745 0,0.0565 0.01792,0.100597 0.05512,0.132292 0.03583,0.03307 0.08544,0.04961 0.148826,0.04961 0.08682,0 0.157099,-0.03169 0.208086,-0.09233 0.05374,-0.06201 0.07993,-0.143316 0.07993,-0.245291 v -0.03583 z m 0,0"
       id="path81748"
       style="stroke-width:0.352778" />
    <path
       fill-rule="nonzero"
       fill="#56b4e9"
       fill-opacity="1"
       d="m 62.774505,96.684637 v 0.146072 c -0.0441,-0.0248 -0.08819,-0.04272 -0.133667,-0.05512 -0.0441,-0.0124 -0.08957,-0.01791 -0.133671,-0.01791 -0.101974,0 -0.181903,0.03169 -0.237025,0.09646 -0.0565,0.06477 -0.08406,0.15434 -0.08406,0.271473 0,0.115755 0.02755,0.206706 0.08406,0.270096 0.05512,0.06477 0.135051,0.09646 0.237025,0.09646 0.0441,0 0.08957,-0.0055 0.133671,-0.01791 0.04547,-0.0124 0.08957,-0.03032 0.133667,-0.05512 v 0.144694 c -0.0441,0.02067 -0.08957,0.03583 -0.136426,0.04685 -0.04685,0.0096 -0.09646,0.01516 -0.148826,0.01516 -0.143316,0 -0.257694,-0.04548 -0.341754,-0.135048 -0.08544,-0.09095 -0.126781,-0.212218 -0.126781,-0.36518 0,-0.155719 0.04272,-0.278364 0.128157,-0.366558 0.08544,-0.08957 0.202572,-0.133671 0.350023,-0.133671 0.04823,0 0.09646,0.0041 0.14194,0.01516 0.04547,0.0096 0.09095,0.0248 0.133667,0.0441"
       id="path81750"
       style="stroke-width:0.352778" />
    <path
       fill-rule="nonzero"
       fill="#56b4e9"
       fill-opacity="1"
       d="m 63.040468,96.276738 h 0.157095 v 0.782725 l 0.467156,-0.412033 h 0.199817 l -0.504363,0.446484 0.526411,0.507118 h -0.203951 l -0.48507,-0.465777 v 0.465777 h -0.157095 z m 0,0"
       id="path81752"
       style="stroke-width:0.352778" />
    <path
       fill-rule="nonzero"
       fill="#56b4e9"
       fill-opacity="1"
       d="m 64.05608,96.276738 h 0.15572 v 0.198437 h -0.15572 z m 0,0.370692 h 0.15572 v 0.953602 h -0.15572 z m 0,0"
       id="path81754"
       style="stroke-width:0.352778" />
    <path
       fill-rule="nonzero"
       fill="#56b4e9"
       fill-opacity="1"
       d="m 65.332144,97.025012 v 0.57602 h -0.157095 v -0.570507 c 0,-0.08957 -0.01792,-0.157097 -0.05237,-0.202572 -0.03583,-0.0441 -0.08819,-0.06615 -0.158474,-0.06615 -0.08406,0 -0.151582,0.02618 -0.199814,0.07993 -0.04961,0.05374 -0.07303,0.12678 -0.07303,0.220486 v 0.538813 H 64.53426 V 96.64743 h 0.157099 v 0.148828 c 0.0372,-0.05788 0.0813,-0.100597 0.132291,-0.128157 0.05099,-0.02894 0.108864,-0.04272 0.17501,-0.04272 0.110243,0 0.192923,0.03307 0.249424,0.101975 0.05512,0.06615 0.08406,0.166743 0.08406,0.297656"
       id="path81756"
       style="stroke-width:0.352778" />
    <path
       fill-rule="nonzero"
       fill="#56b4e9"
       fill-opacity="1"
       d="m 66.427685,97.482521 c 0,0.162609 -0.03583,0.282498 -0.107488,0.362424 -0.07304,0.07855 -0.183279,0.118511 -0.330729,0.118511 -0.05512,0 -0.107484,-0.0041 -0.157096,-0.0124 -0.04823,-0.0083 -0.09508,-0.02067 -0.141936,-0.03858 v -0.151583 c 0.04685,0.0248 0.09233,0.04272 0.136426,0.05512 0.04547,0.0124 0.09095,0.01791 0.137802,0.01791 0.101974,0 0.179144,-0.02618 0.230131,-0.07993 0.05099,-0.05374 0.07579,-0.135048 0.07579,-0.243913 v -0.07717 c -0.03171,0.0565 -0.07304,0.09784 -0.124022,0.12678 -0.04961,0.02756 -0.110243,0.04134 -0.180524,0.04134 -0.117132,0 -0.210841,-0.0441 -0.282497,-0.13367 -0.07166,-0.08957 -0.107488,-0.206706 -0.107488,-0.354156 0,-0.14745 0.03583,-0.265961 0.107488,-0.354155 0.07166,-0.08957 0.165365,-0.13367 0.282497,-0.13367 0.07028,0 0.130913,0.01378 0.180524,0.04134 0.05099,0.02756 0.09233,0.07028 0.124022,0.125401 v -0.14469 h 0.157096 z m -0.157096,-0.369314 c 0,-0.112999 -0.02342,-0.201194 -0.07028,-0.263205 -0.04548,-0.06201 -0.111622,-0.09371 -0.195682,-0.09371 -0.08406,0 -0.150206,0.03169 -0.197058,0.09371 -0.04685,0.06201 -0.07028,0.150206 -0.07028,0.263205 0,0.112999 0.02342,0.201193 0.07028,0.263205 0.04685,0.06201 0.112998,0.09371 0.197058,0.09371 0.08406,0 0.150205,-0.03169 0.195682,-0.09371 0.04685,-0.06201 0.07028,-0.150206 0.07028,-0.263205"
       id="path81758"
       style="stroke-width:0.352778" />
    <path
       fill-rule="nonzero"
       fill="#000000"
       fill-opacity="1"
       d="m 64.392323,92.240464 c 0,0 -0.288011,0.199815 -0.606337,0.07028 -0.254938,-0.117133 -0.372071,-0.457509 -0.372071,-0.457509 l 0.259073,0.07717 0.429948,0.106109 c 0.170875,0.09095 0.289387,0.20395 0.289387,0.20395"
       id="path81760"
       style="stroke-width:0.352778" />
    <path
       fill="none"
       stroke-width="0.176389"
       stroke-linecap="butt"
       stroke-linejoin="round"
       stroke="#000000"
       stroke-opacity="1"
       stroke-miterlimit="4"
       d="m 64.392323,92.240464 c 0,0 -0.28801,0.199815 -0.606337,0.07028 -0.254937,-0.117133 -0.37207,-0.457508 -0.37207,-0.457508 l 0.259071,0.07717 0.429948,0.106109 c 0.170877,0.09095 0.289388,0.20395 0.289388,0.203949 z m 0,0"
       id="path81762" />
    <path
       fill-rule="nonzero"
       fill="#000000"
       fill-opacity="1"
       d="m 64.435041,88.674101 c 0,0 -0.290767,-0.197059 -0.607713,-0.06477 -0.253559,0.121268 -0.366561,0.463021 -0.366561,0.463021 l 0.257694,-0.0813 0.428572,-0.110243 c 0.170875,-0.09233 0.288008,-0.206706 0.288008,-0.206706"
       id="path81764"
       style="stroke-width:0.352778" />
    <path
       fill="none"
       stroke-width="0.264583"
       stroke-linecap="butt"
       stroke-linejoin="miter"
       stroke="#000000"
       stroke-opacity="1"
       stroke-miterlimit="10"
       d="m 64.435042,88.674101 c 0,0 -0.290766,-0.197059 -0.607714,-0.06477 -0.25356,0.121267 -0.366559,0.46302 -0.366559,0.46302 l 0.257693,-0.0813 0.42857,-0.110243 c 0.170877,-0.09233 0.28801,-0.206706 0.28801,-0.206706 z m 0,0"
       id="path81766" />
    <path
       fill-rule="nonzero"
       fill="#000000"
       fill-opacity="1"
       d="m 61.685854,89.258389 h 0.02618 c 0.0014,-0.2949 -0.04547,-0.559483 -0.117132,-0.788238 -0.07166,-0.228754 -0.166741,-0.421679 -0.261829,-0.578775 -0.191544,-0.314193 -0.383092,-0.479558 -0.38585,-0.475424 -0.0028,0.0028 0.181903,0.173633 0.363802,0.487826 0.08957,0.158474 0.180523,0.3514 0.246669,0.578776 0.06615,0.225998 0.107488,0.485069 0.101978,0.775835 z m 0,0"
       id="path81768"
       style="stroke-width:0.352778" />
    <path
       fill-rule="nonzero"
       fill="#000000"
       fill-opacity="1"
       d="m 61.554942,89.330047 0.0248,-0.0069 c -0.0248,-0.08957 -0.06339,-0.188791 -0.114377,-0.293522 -0.04961,-0.104731 -0.110243,-0.214974 -0.18052,-0.327973 -0.137806,-0.227376 -0.31006,-0.467155 -0.493339,-0.695909 -0.184658,-0.228754 -0.38034,-0.447862 -0.566374,-0.632519 -0.09233,-0.09233 -0.183279,-0.176389 -0.267338,-0.248048 -0.08544,-0.07304 -0.165365,-0.133669 -0.237025,-0.1819 0.07028,0.04961 0.14883,0.111621 0.23289,0.186035 0.08268,0.07441 0.170875,0.159852 0.261828,0.253559 0.183279,0.187413 0.374826,0.407899 0.553971,0.639409 0.180523,0.231511 0.348643,0.472667 0.482314,0.700044 0.06615,0.112999 0.125398,0.223242 0.172254,0.327973 0.04685,0.103353 0.08268,0.199815 0.104729,0.286632 z m 0,0"
       id="path81770"
       style="stroke-width:0.352778" />
    <path
       fill-rule="nonzero"
       fill="#000000"
       fill-opacity="1"
       d="m 61.413005,89.451314 0.02205,-0.01378 c -0.217731,-0.343131 -0.518142,-0.649056 -0.840606,-0.909505 -0.323836,-0.260449 -0.672483,-0.478179 -0.986674,-0.644922 0.31006,0.175011 0.65319,0.399631 0.96876,0.665593 0.31695,0.265961 0.607716,0.574642 0.814423,0.916395 z m 0,0"
       id="path81772"
       style="stroke-width:0.352778" />
    <path
       fill-rule="nonzero"
       fill="#000000"
       fill-opacity="1"
       d="m 61.214568,89.596009 0.01792,-0.01929 c -0.148837,-0.139181 -0.27286,-0.249424 -0.383103,-0.34313 -0.111622,-0.09233 -0.208082,-0.166743 -0.304546,-0.232889 -0.09508,-0.06615 -0.190168,-0.122645 -0.294901,-0.180523 -0.104729,-0.0565 -0.219106,-0.114377 -0.356912,-0.181901 0.13505,0.07166 0.249425,0.132292 0.351402,0.194303 0.101974,0.06063 0.192924,0.11989 0.285253,0.188792 0.09233,0.0689 0.186033,0.146072 0.293521,0.242534 0.107488,0.09508 0.227376,0.209462 0.373451,0.350022 z m 0,0"
       id="path81774"
       style="stroke-width:0.352778" />
    <path
       fill-rule="nonzero"
       fill="#000000"
       fill-opacity="1"
       d="m 61.928389,89.099915 h 0.02618 c 0.0014,-0.584288 -0.0937,-0.949469 -0.191548,-1.16582 -0.04823,-0.108865 -0.09784,-0.180524 -0.135046,-0.224621 -0.03721,-0.0441 -0.06201,-0.06063 -0.06339,-0.05925 -0.0014,0.0028 0.02067,0.02205 0.05375,0.06752 0.03305,0.04547 0.07717,0.118511 0.121267,0.225998 0.08682,0.216352 0.173634,0.577398 0.162609,1.156174 z m 0,0"
       id="path81776"
       style="stroke-width:0.352778" />
    <path
       fill-rule="nonzero"
       fill="#000000"
       fill-opacity="1"
       d="m 61.696879,91.60381 0.02618,-0.0014 c 0.0041,0.296278 -0.04134,0.560862 -0.110243,0.789616 -0.0689,0.228755 -0.162606,0.424436 -0.256315,0.581532 -0.188792,0.315571 -0.378961,0.482314 -0.381716,0.479557 -0.0028,-0.0028 0.179144,-0.17501 0.358288,-0.491959 0.08957,-0.158475 0.177769,-0.352778 0.241159,-0.580154 0.06477,-0.227376 0.104729,-0.487825 0.09646,-0.777214 z m 0,0"
       id="path81778"
       style="stroke-width:0.352778" />
    <path
       fill-rule="nonzero"
       fill="#000000"
       fill-opacity="1"
       d="m 61.564587,91.532152 0.0248,0.0069 c -0.02342,0.09095 -0.06201,0.190169 -0.111622,0.2949 -0.04823,0.104731 -0.108864,0.216352 -0.176389,0.330729 -0.136426,0.227377 -0.307301,0.468533 -0.489204,0.700044 -0.181899,0.230132 -0.374826,0.450618 -0.559484,0.638032 -0.09095,0.09233 -0.18052,0.177766 -0.26596,0.250802 -0.08406,0.07304 -0.162609,0.135048 -0.234265,0.181901 0.07028,-0.04823 0.147447,-0.111621 0.230131,-0.186035 0.08268,-0.07579 0.170875,-0.16123 0.260449,-0.256315 0.180523,-0.188791 0.370691,-0.412033 0.54846,-0.644922 0.177764,-0.232888 0.343129,-0.475423 0.475421,-0.704177 0.06614,-0.114377 0.124026,-0.22462 0.169499,-0.329351 0.04686,-0.103353 0.0813,-0.201194 0.101977,-0.28801 z m 0,0"
       id="path81780"
       style="stroke-width:0.352778" />
    <path
       fill-rule="nonzero"
       fill="#000000"
       fill-opacity="1"
       d="m 61.421271,91.412263 0.02205,0.01378 c -0.213593,0.345888 -0.51125,0.654569 -0.832334,0.917774 -0.321084,0.264583 -0.666972,0.485069 -0.981163,0.654568 0.31006,-0.177767 0.650434,-0.405144 0.964625,-0.675239 0.314195,-0.268717 0.600826,-0.580154 0.804774,-0.924663 z m 0,0"
       id="path81782"
       style="stroke-width:0.352778" />
    <path
       fill-rule="nonzero"
       fill="#000000"
       fill-opacity="1"
       d="m 61.222833,91.270325 0.01792,0.01929 c -0.14883,0.14056 -0.271477,0.252181 -0.38172,0.345888 -0.108864,0.09371 -0.205327,0.169499 -0.300412,0.237022 -0.09646,0.06615 -0.188789,0.124024 -0.293521,0.181902 -0.104729,0.05788 -0.219107,0.117133 -0.355533,0.186034 0.135047,-0.07304 0.246669,-0.135047 0.348643,-0.197059 0.101974,-0.06201 0.192924,-0.122645 0.283877,-0.192925 0.09233,-0.0689 0.184654,-0.14745 0.290766,-0.243913 0.107485,-0.09646 0.225997,-0.212218 0.370692,-0.354156 z m 0,0"
       id="path81784"
       style="stroke-width:0.352778" />
    <path
       fill-rule="nonzero"
       fill="#000000"
       fill-opacity="1"
       d="m 61.940793,91.759528 h 0.02618 c 0.0069,0.584289 -0.08682,0.949469 -0.181903,1.167199 -0.04685,0.110243 -0.09508,0.181901 -0.132292,0.225998 -0.0372,0.0441 -0.06201,0.06063 -0.06339,0.05926 -0.0014,-0.0014 0.02067,-0.02067 0.05236,-0.06752 0.03305,-0.04547 0.07717,-0.118511 0.119892,-0.227376 0.08544,-0.216352 0.168119,-0.578777 0.15296,-1.156174 z m 0,0"
       id="path81786"
       style="stroke-width:0.352778" />
    <path
       fill="none"
       stroke-width="0.176389"
       stroke-linecap="butt"
       stroke-linejoin="round"
       stroke="#000000"
       stroke-opacity="1"
       stroke-miterlimit="4"
       d="m 64.684467,88.474286 c 0,0 -0.427191,0.388606 -0.610471,0.424435 -0.279741,0.05788 -0.686262,0.184658 -0.837847,0.264584"
       id="path81788" />
    <path
       fill="none"
       stroke-width="0.176389"
       stroke-linecap="butt"
       stroke-linejoin="round"
       stroke="#000000"
       stroke-opacity="1"
       stroke-miterlimit="4"
       d="m 64.702382,92.354841 c 0,0 -0.431326,-0.384473 -0.614605,-0.417546 -0.28112,-0.05512 -0.689019,-0.179145 -0.840604,-0.257693"
       id="path81790" />
    <path
       fill="none"
       stroke-width="0.176389"
       stroke-linecap="butt"
       stroke-linejoin="round"
       stroke="#b3b3b3"
       stroke-opacity="1"
       stroke-miterlimit="2.455"
       d="m 70.437776,90.36771 c -0.01516,-0.289388 -0.04134,-0.766189 -0.30868,-0.970139 0,0 -0.01103,-0.180523 -0.107487,-0.33762 0,0 -0.449241,-0.622873 -0.945334,-0.640787 -0.191548,-0.01791 -0.242535,0.237022 -0.242535,0.237022 m -1.102431,1.697743 1.008724,-0.0041 c 0.184657,-0.152962 0.270096,-0.508496 0.253559,-0.684885 -0.01791,-0.220486 -0.396875,-0.3514 -0.396875,-0.3514 m -3.844726,1.047309 c 0,0 -1.099675,0.01516 -1.186491,-0.0083 -0.09233,-0.03032 -0.213596,-0.08682 -0.205328,-0.214974 0.0028,-0.07579 0.19706,-0.254937 0.429948,-0.405143 0.122646,-0.06615 0.420302,-0.188791 0.690397,-0.176389 0.08406,0.0028 0.199816,0.07579 0.199816,0.07579 m 3.019281,0.724848 c 0.135048,0.0083 0.493338,-0.413411 0.622874,-0.592556 0.108865,-0.169499 0.620117,-0.92053 0.493338,-1.157552 0,0 -0.114378,-0.230133 -0.356912,-0.318327 0,0 -0.465778,-0.165365 -1.021127,-0.09233 -1.072114,0.172254 -1.386306,0.264583 -1.838303,0.549837 0,0 -0.464399,0.325217 -0.855761,0.813042 -0.130914,0.166743 -0.13367,0.307303 -0.146073,0.454753 0,0 -0.0096,0.319705 0.165365,0.348643 0.341753,0.0083 2.801552,0.0041 2.936599,-0.0055 z m 2.738162,-0.0248 c -0.0124,0.289388 -0.03445,0.766189 -0.300412,0.972895 0,0 -0.0096,0.180522 -0.103353,0.338997 0,0 -0.443728,0.627007 -0.9412,0.649056 -0.190169,0.02067 -0.243913,-0.234267 -0.243913,-0.234267 m -1.117589,-1.686718 1.008724,-0.0069 c 0.186036,0.151584 0.27423,0.507118 0.259071,0.683506 -0.01516,0.220487 -0.39274,0.354156 -0.39274,0.354156 m -3.854373,-1.010102 c 0,0 -1.099675,-0.0055 -1.186491,0.01929 -0.09233,0.03169 -0.212218,0.08819 -0.20395,0.216352 0.0041,0.07717 0.199816,0.252181 0.434082,0.401009 0.124024,0.06477 0.42168,0.184657 0.691775,0.170877 0.08544,-0.0041 0.199816,-0.07717 0.199816,-0.07717 m 3.012391,-0.753787 c 0.135048,-0.0096 0.497472,0.409277 0.628386,0.585666 0.108865,0.168121 0.627007,0.915017 0.502984,1.154796 0,0 -0.112999,0.228754 -0.352778,0.321083 0,0 -0.464399,0.16812 -1.021126,0.100596 -1.073492,-0.16123 -1.387685,-0.249424 -1.843815,-0.531922 0,0 -0.465777,-0.321083 -0.862652,-0.804774 -0.132292,-0.165365 -0.136426,-0.305925 -0.150206,-0.453375 0,0 -0.0124,-0.319705 0.162608,-0.350022 0.341753,-0.01102 2.801552,-0.03032 2.936599,-0.02205 z m 0,0"
       id="path81792" />
    <path
       fill="none"
       stroke-width="0.347839"
       stroke-linecap="butt"
       stroke-linejoin="round"
       stroke="#000000"
       stroke-opacity="1"
       stroke-miterlimit="2.455"
       d="m 67.88565,87.212003 c 0.417545,0.117133 1.8259,0.275608 2.505273,0.169499 0.920529,-0.168121 1.577854,-0.329351 1.796962,-0.928798 m -2.443262,1.781803 1.947168,-1.142393 c 0.486448,-0.285254 0.501606,-0.662837 0.501606,-0.662837 0.09508,-0.504362 -0.343132,-0.927419 -0.343132,-0.927419 -0.815798,-0.480936 -2.527322,0.06477 -2.527322,0.06477 -1.120345,0.319704 -1.752864,0.826822 -1.934765,1.609548 m 0.274229,-0.65319 -1.196137,0.241157 c -0.774457,0.21773 -0.989431,0.115755 -1.900314,0.73725 -0.366559,0.286632 -1.001834,0.144694 -1.689475,0.746897 l -0.563618,0.398253 c 0,0 -0.227376,0.132292 -0.788238,0.465777 0,0 -0.388606,0.166742 -0.672482,0.706933 0,0 -0.09922,0.04823 -0.168121,0.232889 -0.0689,0.179145 -0.0689,0.354156 -0.0689,0.354156 0,0 0.0014,0.235644 0.07166,0.416167 0.07166,0.183279 0.170877,0.230132 0.170877,0.230132 0.289388,0.538813 0.679373,0.701422 0.679373,0.701422 0.563617,0.327973 0.792372,0.451996 0.792372,0.451996 l 0.566374,0.392741 c 0.693152,0.595313 1.32705,0.446485 1.696364,0.73036 0.916396,0.611849 1.129992,0.501606 1.905827,0.712446 l 1.198893,0.230133 m 0.21773,-0.691775 c 0.416168,-0.11989 1.823145,-0.292145 2.502518,-0.191548 0.923285,0.158475 1.581987,0.312815 1.806608,0.910883 m -2.459798,-1.758376 1.958192,1.123101 c 0.487825,0.28112 0.507118,0.658702 0.507118,0.658702 0.09922,0.502984 -0.334863,0.930176 -0.334863,0.930176 -0.811665,0.487825 -2.527322,-0.03996 -2.527322,-0.03996 -1.124479,-0.310059 -1.761133,-0.811665 -1.949924,-1.591634"
       id="path81794" />
    <g
       mask="url(#mask-283)"
       id="g81798"
       transform="matrix(0.35277777,0,0,0.35277777,-78.162969,69.858368)">
      <g
         id="use81796"
         clip-path="url(#clip-355)"
         transform="translate(390,61)">
        <g
           clip-path="url(#clip-354)"
           id="g84081">
          <path
             fill-rule="nonzero"
             fill="#56b4e9"
             fill-opacity="1"
             d="M 0.851562,13.027344 11.027344,0.867188 14.617188,2.777344 Z m 0,0"
             id="path84079" />
        </g>
      </g>
    </g>
    <path
       fill-rule="nonzero"
       fill="#800080"
       fill-opacity="1"
       d="m 68.8048,89.759995 h -0.23151 v -0.606337 h 0.23151 z m 0,0"
       id="path81800"
       style="stroke-width:0.352778" />
    <path
       fill-rule="nonzero"
       fill="#800080"
       fill-opacity="1"
       d="m 68.690423,90.089346 c -0.06477,0 -0.126778,-0.02618 -0.172255,-0.07166 -0.04547,-0.04548 -0.07166,-0.107487 -0.07166,-0.172254 0,-0.06477 0.02618,-0.12678 0.07166,-0.172255 0.04548,-0.04548 0.107488,-0.07166 0.172255,-0.07166 0.06477,0 0.126781,0.02618 0.172254,0.07166 0.04548,0.04547 0.07166,0.107487 0.07166,0.172255 0,0.06477 -0.02618,0.126779 -0.07166,0.172254 -0.04547,0.04548 -0.107484,0.07166 -0.172254,0.07166"
       id="path81802"
       style="stroke-width:0.352778" />
    <path
       fill="none"
       stroke-width="0.219781"
       stroke-linecap="butt"
       stroke-linejoin="round"
       stroke="#800080"
       stroke-opacity="1"
       stroke-miterlimit="2.493"
       d="m 68.690424,90.089346 c -0.06477,0 -0.12678,-0.02618 -0.172255,-0.07166 -0.04547,-0.04548 -0.07166,-0.107487 -0.07166,-0.172254 0,-0.06477 0.02618,-0.12678 0.07166,-0.172255 0.04547,-0.04548 0.107487,-0.07166 0.172255,-0.07166 0.06477,0 0.126779,0.02618 0.172254,0.07166 0.04548,0.04547 0.07166,0.107487 0.07166,0.172255 0,0.06477 -0.02618,0.126779 -0.07166,0.172254 -0.04547,0.04548 -0.107486,0.07166 -0.172254,0.07166 z m 0,0"
       id="path81804" />
    <path
       fill="none"
       stroke-width="0.176389"
       stroke-linecap="butt"
       stroke-linejoin="miter"
       stroke="#800080"
       stroke-opacity="1"
       stroke-miterlimit="2.493"
       d="M 68.69318,89.804092 V 88.532163 C 68.304574,85.986927 67.331679,83.866126 65.774496,82.169761"
       id="path81806" />
    <path
       fill-rule="nonzero"
       fill="#800080"
       fill-opacity="1"
       d="m 65.774496,82.413674 c -0.06477,0 -0.126782,-0.02618 -0.172255,-0.07166 -0.04548,-0.04548 -0.07028,-0.107487 -0.07028,-0.172255 0,-0.06477 0.0248,-0.12678 0.07028,-0.172255 0.04547,-0.04547 0.107485,-0.07166 0.172255,-0.07166 0.06477,0 0.126777,0.02618 0.172254,0.07166 0.04548,0.04547 0.07166,0.107487 0.07166,0.172255 0,0.06477 -0.02618,0.126779 -0.07166,0.172255 -0.04548,0.04547 -0.107488,0.07166 -0.172254,0.07166"
       id="path81808"
       style="stroke-width:0.352778" />
    <path
       fill="none"
       stroke-width="0.219781"
       stroke-linecap="butt"
       stroke-linejoin="round"
       stroke="#800080"
       stroke-opacity="1"
       stroke-miterlimit="2.493"
       d="m 65.774495,82.413674 c -0.06477,0 -0.126779,-0.02618 -0.172255,-0.07166 -0.04547,-0.04547 -0.07028,-0.107487 -0.07028,-0.172255 0,-0.06477 0.02481,-0.126779 0.07028,-0.172255 0.04548,-0.04547 0.107487,-0.07166 0.172255,-0.07166 0.06477,0 0.12678,0.02618 0.172255,0.07166 0.04548,0.04548 0.07166,0.107488 0.07166,0.172255 0,0.06477 -0.02618,0.12678 -0.07166,0.172255 -0.04547,0.04547 -0.107487,0.07166 -0.172255,0.07166 z m 0,0"
       id="path81810" />
    <path
       fill-rule="nonzero"
       fill="#ffa500"
       fill-opacity="1"
       d="m 66.007382,89.313511 h -0.232886 v -0.527789 h 0.232886 z m 0,0"
       id="path81812"
       style="stroke-width:0.352778" />
    <path
       fill-rule="nonzero"
       fill="#ffa500"
       fill-opacity="1"
       d="m 65.884739,89.733813 c -0.06339,0 -0.125402,-0.02618 -0.172255,-0.07166 -0.04548,-0.04548 -0.07028,-0.107488 -0.07028,-0.172255 0,-0.06477 0.0248,-0.125402 0.07028,-0.172255 0.04685,-0.04547 0.108864,-0.07028 0.172255,-0.07028 0.06477,0 0.126778,0.0248 0.172254,0.07028 0.04548,0.04685 0.07166,0.107487 0.07166,0.172255 0,0.06477 -0.02618,0.126779 -0.07166,0.172255 -0.04548,0.04547 -0.107488,0.07166 -0.172254,0.07166"
       id="path81814"
       style="stroke-width:0.352778" />
    <path
       fill="none"
       stroke-width="0.219781"
       stroke-linecap="butt"
       stroke-linejoin="round"
       stroke="#ffa500"
       stroke-opacity="1"
       stroke-miterlimit="2.493"
       d="m 65.884738,89.733812 c -0.06339,0 -0.125401,-0.02618 -0.172254,-0.07166 -0.04548,-0.04547 -0.07028,-0.107487 -0.07028,-0.172255 0,-0.06477 0.0248,-0.125401 0.07028,-0.172254 0.04685,-0.04548 0.108865,-0.07028 0.172254,-0.07028 0.06477,0 0.12678,0.0248 0.172255,0.07028 0.04547,0.04685 0.07166,0.107487 0.07166,0.172254 0,0.06477 -0.02618,0.12678 -0.07166,0.172255 -0.04548,0.04548 -0.107487,0.07166 -0.172255,0.07166 z m 0,0"
       id="path81816" />
    <path
       fill="none"
       stroke-width="0.176389"
       stroke-linecap="butt"
       stroke-linejoin="miter"
       stroke="#ffa500"
       stroke-opacity="1"
       stroke-miterlimit="2.493"
       d="M 65.891629,89.190865 V 88.623114 C 65.741423,86.502313 64.175971,85.063641 61.191141,84.307098"
       id="path81818" />
    <path
       fill-rule="nonzero"
       fill="#ffa500"
       fill-opacity="1"
       d="m 61.19114,84.551011 c -0.06477,0 -0.126778,-0.02618 -0.172254,-0.07166 -0.04548,-0.04547 -0.07166,-0.107487 -0.07166,-0.172255 0,-0.06477 0.02618,-0.126779 0.07166,-0.172255 0.04548,-0.04548 0.107487,-0.07166 0.172254,-0.07166 0.06477,0 0.126781,0.02618 0.172254,0.07166 0.04548,0.04548 0.07166,0.107488 0.07166,0.172255 0,0.06477 -0.02618,0.12678 -0.07166,0.172255 -0.04547,0.04547 -0.107488,0.07166 -0.172254,0.07166"
       id="path81820"
       style="stroke-width:0.352778" />
    <path
       fill="none"
       stroke-width="0.219781"
       stroke-linecap="butt"
       stroke-linejoin="round"
       stroke="#ffa500"
       stroke-opacity="1"
       stroke-miterlimit="2.493"
       d="m 61.19114,84.551011 c -0.06477,0 -0.126779,-0.02618 -0.172254,-0.07166 -0.04548,-0.04548 -0.07166,-0.107486 -0.07166,-0.172254 0,-0.06477 0.02618,-0.12678 0.07166,-0.172255 0.04547,-0.04548 0.107486,-0.07166 0.172254,-0.07166 0.06477,0 0.12678,0.02618 0.172255,0.07166 0.04548,0.04547 0.07166,0.107487 0.07166,0.172255 0,0.06477 -0.02618,0.126779 -0.07166,0.172254 -0.04547,0.04548 -0.107487,0.07166 -0.172255,0.07166 z m 0,0"
       id="path81822" />
    <path
       fill-rule="nonzero"
       fill="#800080"
       fill-opacity="1"
       d="m 69.555832,89.321779 h 0.137802 v 0.905371 h 0.497474 v 0.117133 h -0.635276 z m 0,0"
       id="path81824"
       style="stroke-width:0.352778" />
    <path
       fill-rule="nonzero"
       fill="#800080"
       fill-opacity="1"
       d="m 71.100611,89.400327 v 0.146072 c -0.04547,-0.04272 -0.09508,-0.07579 -0.148826,-0.09646 -0.05237,-0.02205 -0.107488,-0.03169 -0.166744,-0.03169 -0.117133,0 -0.206703,0.03445 -0.268718,0.106109 -0.06201,0.07166 -0.0937,0.175011 -0.0937,0.310059 0,0.133669 0.03168,0.237022 0.0937,0.30868 0.06202,0.07166 0.151585,0.107487 0.268718,0.107487 0.05926,0 0.114377,-0.01102 0.166744,-0.03307 0.05374,-0.02067 0.103353,-0.05374 0.148826,-0.09646 v 0.144693 c -0.04823,0.03169 -0.09922,0.0565 -0.152961,0.07304 -0.05374,0.01653 -0.111622,0.0248 -0.170875,0.0248 -0.15572,0 -0.276987,-0.04685 -0.366561,-0.141938 -0.08819,-0.09508 -0.133667,-0.223242 -0.133667,-0.387229 0,-0.163987 0.04547,-0.293522 0.133667,-0.388607 0.08957,-0.09508 0.210841,-0.141938 0.366561,-0.141938 0.06063,0 0.118509,0.0083 0.172254,0.02343 0.05374,0.01654 0.10473,0.04134 0.151582,0.07304"
       id="path81826"
       style="stroke-width:0.352778" />
    <path
       fill-rule="nonzero"
       fill="#ffa500"
       fill-opacity="1"
       d="m 65.102013,90.36082 h 0.186034 l 0.451996,0.854383 V 90.36082 h 0.135047 v 1.021126 h -0.186034 l -0.453375,-0.854383 v 0.854383 h -0.133668 z m 0,0"
       id="path81828"
       style="stroke-width:0.352778" />
    <path
       fill-rule="nonzero"
       fill="#ffa500"
       fill-opacity="1"
       d="m 66.412526,90.36082 h 0.157096 l 0.389985,1.021126 h -0.143316 l -0.0937,-0.261827 H 66.26232 l -0.0937,0.261827 h -0.1447 z m 0.07855,0.136425 -0.187414,0.508496 h 0.376203 z m 0,0"
       id="path81830"
       style="stroke-width:0.352778" />
    <path
       fill-rule="nonzero"
       fill="#ffa500"
       fill-opacity="1"
       d="m 67.629334,90.644696 v 0.118511 c -0.03447,-0.01929 -0.07028,-0.03445 -0.106108,-0.0441 -0.03583,-0.0096 -0.07166,-0.01516 -0.108864,-0.01516 -0.08131,0 -0.144695,0.02618 -0.190172,0.07717 -0.04547,0.05236 -0.06752,0.125401 -0.06752,0.219108 0,0.09371 0.02205,0.165365 0.06752,0.21773 0.04548,0.05237 0.108867,0.07717 0.190172,0.07717 0.0372,0 0.07304,-0.0041 0.108864,-0.01516 0.03583,-0.0083 0.07166,-0.02343 0.106108,-0.0441 v 0.117133 c -0.03447,0.01654 -0.07166,0.02894 -0.108863,0.03721 -0.03721,0.0083 -0.07717,0.0124 -0.119892,0.0124 -0.115753,0 -0.206703,-0.03721 -0.275608,-0.108865 -0.06752,-0.07304 -0.101974,-0.170877 -0.101974,-0.293522 0,-0.125402 0.03447,-0.223242 0.103354,-0.2949 0.0689,-0.07166 0.162609,-0.107487 0.282497,-0.107487 0.03859,0 0.07717,0.0041 0.112998,0.0124 0.03721,0.0069 0.07304,0.01929 0.107488,0.03445"
       id="path81832"
       style="stroke-width:0.352778" />
    <g
       fill="#800080"
       fill-opacity="1"
       id="g81840"
       transform="matrix(0.35277777,0,0,0.35277777,-78.162969,69.858368)">
      <g
         id="use81834"
         transform="translate(366.7905,36.236401)">
        <path
           d="m 0.953125,0 v -1.734375 c 0,-0.671875 -0.015625,-1.15625 -0.046875,-1.65625 L 0.921875,-3.40625 C 1.125,-2.96875 1.390625,-2.5 1.6875,-2.046875 L 2.96875,0 H 3.484375 V -4.046875 H 3 v 1.6875 c 0,0.640625 0.015625,1.125 0.0625,1.671875 H 3.046875 C 2.859375,-1.09375 2.625,-1.53125 2.328125,-2 L 1.03125,-4.046875 H 0.453125 V 0 Z m 0,0"
           id="path84067" />
      </g>
      <g
         id="use81836"
         transform="translate(370.73849,36.236401)">
        <path
           d="m 1.671875,-2.96875 c -0.8125,0 -1.4375,0.5625 -1.4375,1.546875 0,0.90625 0.59375,1.484375 1.390625,1.484375 0.703125,0 1.4375,-0.46875 1.4375,-1.53125 0,-0.890625 -0.5625,-1.5 -1.390625,-1.5 z M 1.65625,-2.578125 c 0.625,0 0.875,0.625 0.875,1.125 0,0.65625 -0.390625,1.125 -0.890625,1.125 -0.515625,0 -0.875,-0.484375 -0.875,-1.125 0,-0.546875 0.265625,-1.125 0.890625,-1.125 z m 0,0"
           id="path84043" />
      </g>
      <g
         id="use81838"
         transform="translate(374.0325,36.236401)">
        <path
           d="m 0.4375,0 h 0.515625 v -1.546875 c 0,-0.09375 0.015625,-0.171875 0.03125,-0.25 C 1.0625,-2.1875 1.3125,-2.46875 1.6875,-2.46875 c 0.078125,0 0.125,0 0.1875,0.015625 v -0.5 C 1.828125,-2.96875 1.78125,-2.96875 1.71875,-2.96875 c -0.34375,0 -0.671875,0.25 -0.796875,0.640625 H 0.890625 L 0.875,-2.90625 H 0.40625 C 0.4375,-2.640625 0.4375,-2.34375 0.4375,-2 Z m 0,0"
           id="path84071" />
      </g>
    </g>
    <g
       fill="#800080"
       fill-opacity="1"
       id="g81858"
       transform="matrix(0.35277777,0,0,0.35277777,-78.162969,69.858368)">
      <g
         id="use81842"
         transform="translate(375.9339,36.236401)">
        <path
           d="m 2.765625,-1.359375 c 0.015625,-0.046875 0.03125,-0.140625 0.03125,-0.25 0,-0.53125 -0.265625,-1.359375 -1.203125,-1.359375 -0.84375,0 -1.359375,0.6875 -1.359375,1.5625 0,0.875 0.53125,1.46875 1.421875,1.46875 0.46875,0 0.78125,-0.09375 0.96875,-0.1875 L 2.53125,-0.5 c -0.203125,0.09375 -0.421875,0.15625 -0.796875,0.15625 -0.53125,0 -0.984375,-0.296875 -1,-1.015625 z m -2.03125,-0.375 c 0.046875,-0.359375 0.28125,-0.859375 0.8125,-0.859375 0.59375,0 0.734375,0.53125 0.734375,0.859375 z m 0,0"
           id="path84097" />
      </g>
      <g
         id="use81844"
         transform="translate(378.93991,36.236401)">
        <path
           d="M 0.4375,1.1875 H 0.953125 V -0.390625 H 0.96875 c 0.171875,0.28125 0.515625,0.453125 0.890625,0.453125 0.6875,0 1.328125,-0.515625 1.328125,-1.5625 0,-0.875 -0.53125,-1.46875 -1.234375,-1.46875 -0.46875,0 -0.8125,0.203125 -1.03125,0.5625 H 0.90625 l -0.015625,-0.5 H 0.40625 C 0.421875,-2.625 0.4375,-2.328125 0.4375,-1.953125 Z m 0.515625,-2.875 c 0,-0.0625 0.03125,-0.140625 0.046875,-0.203125 0.09375,-0.40625 0.4375,-0.65625 0.796875,-0.65625 0.5625,0 0.859375,0.5 0.859375,1.078125 0,0.671875 -0.328125,1.125 -0.875,1.125 -0.390625,0 -0.703125,-0.25 -0.796875,-0.625 -0.015625,-0.0625 -0.03125,-0.140625 -0.03125,-0.21875 z m 0,0"
           id="path84085" />
      </g>
      <g
         id="use81846"
         transform="translate(382.35391,36.236401)">
        <path
           d="M 0.96875,0 V -2.90625 H 0.4375 V 0 Z M 0.703125,-4.046875 c -0.1875,0 -0.328125,0.140625 -0.328125,0.328125 0,0.171875 0.125,0.328125 0.3125,0.328125 0.21875,0 0.34375,-0.15625 0.34375,-0.328125 0,-0.1875 -0.125,-0.328125 -0.328125,-0.328125 z m 0,0"
           id="path84027" />
      </g>
      <g
         id="use81848"
         transform="translate(383.7579,36.236401)">
        <path
           d="M 0.4375,0 H 0.96875 V -1.75 C 0.96875,-1.84375 0.984375,-1.921875 1,-1.984375 1.09375,-2.28125 1.359375,-2.53125 1.703125,-2.53125 c 0.5,0 0.671875,0.390625 0.671875,0.859375 V 0 h 0.53125 v -1.734375 c 0,-1 -0.625,-1.234375 -1.015625,-1.234375 -0.484375,0 -0.828125,0.265625 -0.96875,0.546875 H 0.90625 L 0.875,-2.90625 H 0.40625 c 0.03125,0.25 0.03125,0.484375 0.03125,0.78125 z m 0,0"
           id="path84113" />
      </g>
      <g
         id="use81850"
         transform="translate(387.08789,36.236401)">
        <path
           d="m 2.765625,-1.359375 c 0.015625,-0.046875 0.03125,-0.140625 0.03125,-0.25 0,-0.53125 -0.265625,-1.359375 -1.203125,-1.359375 -0.84375,0 -1.359375,0.6875 -1.359375,1.5625 0,0.875 0.53125,1.46875 1.421875,1.46875 0.46875,0 0.78125,-0.09375 0.96875,-0.1875 L 2.53125,-0.5 c -0.203125,0.09375 -0.421875,0.15625 -0.796875,0.15625 -0.53125,0 -0.984375,-0.296875 -1,-1.015625 z m -2.03125,-0.375 c 0.046875,-0.359375 0.28125,-0.859375 0.8125,-0.859375 0.59375,0 0.734375,0.53125 0.734375,0.859375 z m 0,0"
           id="path84101" />
      </g>
      <g
         id="use81852"
         transform="translate(390.0939,36.236401)">
        <path
           d="M 0.4375,1.1875 H 0.953125 V -0.390625 H 0.96875 c 0.171875,0.28125 0.515625,0.453125 0.890625,0.453125 0.6875,0 1.328125,-0.515625 1.328125,-1.5625 0,-0.875 -0.53125,-1.46875 -1.234375,-1.46875 -0.46875,0 -0.8125,0.203125 -1.03125,0.5625 H 0.90625 l -0.015625,-0.5 H 0.40625 C 0.421875,-2.625 0.4375,-2.328125 0.4375,-1.953125 Z m 0.515625,-2.875 c 0,-0.0625 0.03125,-0.140625 0.046875,-0.203125 0.09375,-0.40625 0.4375,-0.65625 0.796875,-0.65625 0.5625,0 0.859375,0.5 0.859375,1.078125 0,0.671875 -0.328125,1.125 -0.875,1.125 -0.390625,0 -0.703125,-0.25 -0.796875,-0.625 -0.015625,-0.0625 -0.03125,-0.140625 -0.03125,-0.21875 z m 0,0"
           id="path84089" />
      </g>
      <g
         id="use81854"
         transform="translate(393.5079,36.236401)">
        <path
           d="m 0.4375,0 h 0.53125 v -1.75 c 0,-0.109375 0,-0.1875 0.03125,-0.25 0.09375,-0.296875 0.375,-0.53125 0.703125,-0.53125 0.5,0 0.671875,0.390625 0.671875,0.859375 V 0 h 0.53125 v -1.734375 c 0,-1 -0.625,-1.234375 -1.015625,-1.234375 -0.1875,0 -0.375,0.0625 -0.53125,0.15625 -0.171875,0.078125 -0.296875,0.21875 -0.375,0.359375 H 0.96875 v -1.8125 H 0.4375 Z m 0,0"
           id="path84059" />
      </g>
      <g
         id="use81856"
         transform="translate(396.83789,36.236401)">
        <path
           d="m 0.4375,0 h 0.515625 v -1.546875 c 0,-0.09375 0.015625,-0.171875 0.03125,-0.25 C 1.0625,-2.1875 1.3125,-2.46875 1.6875,-2.46875 c 0.078125,0 0.125,0 0.1875,0.015625 v -0.5 C 1.828125,-2.96875 1.78125,-2.96875 1.71875,-2.96875 c -0.34375,0 -0.671875,0.25 -0.796875,0.640625 H 0.890625 L 0.875,-2.90625 H 0.40625 C 0.4375,-2.640625 0.4375,-2.34375 0.4375,-2 Z m 0,0"
           id="path84075" />
      </g>
    </g>
    <g
       fill="#800080"
       fill-opacity="1"
       id="g81866"
       transform="matrix(0.35277777,0,0,0.35277777,-78.162969,69.858368)">
      <g
         id="use81860"
         transform="translate(398.8233,36.236401)">
        <path
           d="M 0.96875,0 V -2.90625 H 0.4375 V 0 Z M 0.703125,-4.046875 c -0.1875,0 -0.328125,0.140625 -0.328125,0.328125 0,0.171875 0.125,0.328125 0.3125,0.328125 0.21875,0 0.34375,-0.15625 0.34375,-0.328125 0,-0.1875 -0.125,-0.328125 -0.328125,-0.328125 z m 0,0"
           id="path84031" />
      </g>
      <g
         id="use81862"
         transform="translate(400.22729,36.236401)">
        <path
           d="M 0.4375,0 H 0.96875 V -1.75 C 0.96875,-1.84375 0.984375,-1.921875 1,-1.984375 1.09375,-2.28125 1.359375,-2.53125 1.703125,-2.53125 c 0.5,0 0.671875,0.390625 0.671875,0.859375 V 0 h 0.53125 v -1.734375 c 0,-1 -0.625,-1.234375 -1.015625,-1.234375 -0.484375,0 -0.828125,0.265625 -0.96875,0.546875 H 0.90625 L 0.875,-2.90625 H 0.40625 c 0.03125,0.25 0.03125,0.484375 0.03125,0.78125 z m 0,0"
           id="path84117" />
      </g>
      <g
         id="use81864"
         transform="translate(403.55731,36.236401)">
        <path
           d="m 2.765625,-1.359375 c 0.015625,-0.046875 0.03125,-0.140625 0.03125,-0.25 0,-0.53125 -0.265625,-1.359375 -1.203125,-1.359375 -0.84375,0 -1.359375,0.6875 -1.359375,1.5625 0,0.875 0.53125,1.46875 1.421875,1.46875 0.46875,0 0.78125,-0.09375 0.96875,-0.1875 L 2.53125,-0.5 c -0.203125,0.09375 -0.421875,0.15625 -0.796875,0.15625 -0.53125,0 -0.984375,-0.296875 -1,-1.015625 z m -2.03125,-0.375 c 0.046875,-0.359375 0.28125,-0.859375 0.8125,-0.859375 0.59375,0 0.734375,0.53125 0.734375,0.859375 z m 0,0"
           id="path84105" />
      </g>
    </g>
    <g
       fill="#ffa500"
       fill-opacity="1"
       id="g81870"
       transform="matrix(0.35277777,0,0,0.35277777,-78.162969,69.858368)">
      <g
         id="use81868"
         transform="translate(366.7905,42.338402)">
        <path
           d="M 0.453125,-0.015625 C 0.71875,0.015625 1.03125,0.03125 1.40625,0.03125 c 0.78125,0 1.40625,-0.203125 1.78125,-0.578125 0.375,-0.375 0.59375,-0.90625 0.59375,-1.578125 0,-0.640625 -0.21875,-1.109375 -0.578125,-1.4375 C 2.84375,-3.90625 2.3125,-4.078125 1.5625,-4.078125 c -0.40625,0 -0.78125,0.046875 -1.109375,0.09375 z m 0.53125,-3.59375 c 0.125,-0.03125 0.328125,-0.046875 0.609375,-0.046875 1.09375,0 1.640625,0.609375 1.640625,1.5625 0,1.078125 -0.609375,1.703125 -1.734375,1.703125 -0.203125,0 -0.390625,0 -0.515625,-0.015625 z m 0,0"
           id="path84039" />
      </g>
    </g>
    <g
       fill="#ffa500"
       fill-opacity="1"
       id="g81886"
       transform="matrix(0.35277777,0,0,0.35277777,-78.162969,69.858368)">
      <g
         id="use81872"
         transform="translate(370.80991,42.338402)">
        <path
           d="m 1.671875,-2.96875 c -0.8125,0 -1.4375,0.5625 -1.4375,1.546875 0,0.90625 0.59375,1.484375 1.390625,1.484375 0.703125,0 1.4375,-0.46875 1.4375,-1.53125 0,-0.890625 -0.5625,-1.5 -1.390625,-1.5 z M 1.65625,-2.578125 c 0.625,0 0.875,0.625 0.875,1.125 0,0.65625 -0.390625,1.125 -0.890625,1.125 -0.515625,0 -0.875,-0.484375 -0.875,-1.125 0,-0.546875 0.265625,-1.125 0.890625,-1.125 z m 0,0"
           id="path84047" />
      </g>
      <g
         id="use81874"
         transform="translate(374.10391,42.338402)">
        <path
           d="M 0.4375,1.1875 H 0.953125 V -0.390625 H 0.96875 c 0.171875,0.28125 0.515625,0.453125 0.890625,0.453125 0.6875,0 1.328125,-0.515625 1.328125,-1.5625 0,-0.875 -0.53125,-1.46875 -1.234375,-1.46875 -0.46875,0 -0.8125,0.203125 -1.03125,0.5625 H 0.90625 l -0.015625,-0.5 H 0.40625 C 0.421875,-2.625 0.4375,-2.328125 0.4375,-1.953125 Z m 0.515625,-2.875 c 0,-0.0625 0.03125,-0.140625 0.046875,-0.203125 0.09375,-0.40625 0.4375,-0.65625 0.796875,-0.65625 0.5625,0 0.859375,0.5 0.859375,1.078125 0,0.671875 -0.328125,1.125 -0.875,1.125 -0.390625,0 -0.703125,-0.25 -0.796875,-0.625 -0.015625,-0.0625 -0.03125,-0.140625 -0.03125,-0.21875 z m 0,0"
           id="path84093" />
      </g>
      <g
         id="use81876"
         transform="translate(377.51791,42.338402)">
        <path
           d="M 2.53125,0 C 2.484375,-0.203125 2.484375,-0.4375 2.484375,-0.703125 V -1.78125 c 0,-0.578125 -0.21875,-1.1875 -1.109375,-1.1875 -0.359375,0 -0.71875,0.09375 -0.953125,0.25 l 0.125,0.359375 C 0.75,-2.5 1.03125,-2.578125 1.296875,-2.578125 c 0.59375,0 0.65625,0.4375 0.65625,0.671875 v 0.0625 c -1.125,-0.015625 -1.75,0.375 -1.75,1.078125 0,0.421875 0.3125,0.828125 0.890625,0.828125 0.421875,0 0.734375,-0.203125 0.890625,-0.421875 H 2 L 2.046875,0 Z m -0.5625,-0.984375 c 0,0.0625 -0.015625,0.125 -0.03125,0.171875 -0.078125,0.25 -0.328125,0.484375 -0.703125,0.484375 -0.265625,0 -0.5,-0.15625 -0.5,-0.5 0,-0.5625 0.65625,-0.671875 1.234375,-0.65625 z m 0,0"
           id="path84125" />
      </g>
      <g
         id="use81878"
         transform="translate(380.40991,42.338402)">
        <path
           d="M 0.4375,0 H 0.953125 V -1.75 C 0.953125,-1.84375 0.96875,-1.9375 1,-2.015625 1.078125,-2.28125 1.3125,-2.53125 1.65625,-2.53125 c 0.390625,0 0.59375,0.328125 0.59375,0.796875 V 0 h 0.515625 v -1.796875 c 0,-0.09375 0.03125,-0.1875 0.046875,-0.265625 0.09375,-0.25 0.328125,-0.46875 0.625,-0.46875 0.421875,0 0.625,0.328125 0.625,0.890625 V 0 h 0.515625 v -1.703125 c 0,-1.015625 -0.5625,-1.265625 -0.953125,-1.265625 -0.265625,0 -0.46875,0.078125 -0.640625,0.203125 -0.109375,0.09375 -0.234375,0.21875 -0.328125,0.375 -0.125,-0.34375 -0.4375,-0.578125 -0.828125,-0.578125 -0.484375,0 -0.75,0.25 -0.90625,0.53125 H 0.90625 L 0.875,-2.90625 H 0.40625 c 0.03125,0.25 0.03125,0.484375 0.03125,0.78125 z m 0,0"
           id="path84063" />
      </g>
      <g
         id="use81880"
         transform="translate(385.41391,42.338402)">
        <path
           d="M 0.96875,0 V -2.90625 H 0.4375 V 0 Z M 0.703125,-4.046875 c -0.1875,0 -0.328125,0.140625 -0.328125,0.328125 0,0.171875 0.125,0.328125 0.3125,0.328125 0.21875,0 0.34375,-0.15625 0.34375,-0.328125 0,-0.1875 -0.125,-0.328125 -0.328125,-0.328125 z m 0,0"
           id="path84035" />
      </g>
      <g
         id="use81882"
         transform="translate(386.8179,42.338402)">
        <path
           d="M 0.4375,0 H 0.96875 V -1.75 C 0.96875,-1.84375 0.984375,-1.921875 1,-1.984375 1.09375,-2.28125 1.359375,-2.53125 1.703125,-2.53125 c 0.5,0 0.671875,0.390625 0.671875,0.859375 V 0 h 0.53125 v -1.734375 c 0,-1 -0.625,-1.234375 -1.015625,-1.234375 -0.484375,0 -0.828125,0.265625 -0.96875,0.546875 H 0.90625 L 0.875,-2.90625 H 0.40625 c 0.03125,0.25 0.03125,0.484375 0.03125,0.78125 z m 0,0"
           id="path84121" />
      </g>
      <g
         id="use81884"
         transform="translate(390.14789,42.338402)">
        <path
           d="m 2.765625,-1.359375 c 0.015625,-0.046875 0.03125,-0.140625 0.03125,-0.25 0,-0.53125 -0.265625,-1.359375 -1.203125,-1.359375 -0.84375,0 -1.359375,0.6875 -1.359375,1.5625 0,0.875 0.53125,1.46875 1.421875,1.46875 0.46875,0 0.78125,-0.09375 0.96875,-0.1875 L 2.53125,-0.5 c -0.203125,0.09375 -0.421875,0.15625 -0.796875,0.15625 -0.53125,0 -0.984375,-0.296875 -1,-1.015625 z m -2.03125,-0.375 c 0.046875,-0.359375 0.28125,-0.859375 0.8125,-0.859375 0.59375,0 0.734375,0.53125 0.734375,0.859375 z m 0,0"
           id="path84109" />
      </g>
    </g>
  </g>
</svg>
