<?xml version="1.0" encoding="utf-8" standalone="no"?>
<!DOCTYPE svg PUBLIC "-//W3C//DTD SVG 1.1//EN"
  "http://www.w3.org/Graphics/SVG/1.1/DTD/svg11.dtd">
<svg xmlns:xlink="http://www.w3.org/1999/xlink" width="376.163531pt" height="195.078281pt" viewBox="0 0 376.163531 195.078281" xmlns="http://www.w3.org/2000/svg" version="1.1">
 <metadata>
  <rdf:RDF xmlns:dc="http://purl.org/dc/elements/1.1/" xmlns:cc="http://creativecommons.org/ns#" xmlns:rdf="http://www.w3.org/1999/02/22-rdf-syntax-ns#">
   <cc:Work>
    <dc:type rdf:resource="http://purl.org/dc/dcmitype/StillImage"/>
    <dc:date>2025-10-22T11:53:24.528124</dc:date>
    <dc:format>image/svg+xml</dc:format>
    <dc:creator>
     <cc:Agent>
      <dc:title>Matplotlib v3.10.6, https://matplotlib.org/</dc:title>
     </cc:Agent>
    </dc:creator>
   </cc:Work>
  </rdf:RDF>
 </metadata>
 <defs>
  <style type="text/css">*{stroke-linejoin: round; stroke-linecap: butt}</style>
 </defs>
 <g id="figure_1">
  <g id="patch_1">
   <path d="M 0 195.078281 
L 376.163531 195.078281 
L 376.163531 0 
L 0 0 
L 0 195.078281 
z
" style="fill: none"/>
  </g>
  <g id="axes_1">
   <g id="patch_2">
    <path d="M 34.163531 97.158281 
L 368.963531 97.158281 
L 368.963531 21.558281 
L 34.163531 21.558281 
L 34.163531 97.158281 
z
" style="fill: none"/>
   </g>
   <g id="matplotlib.axis_1"/>
   <g id="matplotlib.axis_2">
    <g id="text_1">
     <!-- Computer  -->
     <g transform="translate(15.558281 88.448125) rotate(-90) scale(0.11 -0.11)">
      <defs>
       <path id="DejaVuSans-43" d="M 4122 4306 
L 4122 3641 
Q 3803 3938 3442 4084 
Q 3081 4231 2675 4231 
Q 1875 4231 1450 3742 
Q 1025 3253 1025 2328 
Q 1025 1406 1450 917 
Q 1875 428 2675 428 
Q 3081 428 3442 575 
Q 3803 722 4122 1019 
L 4122 359 
Q 3791 134 3420 21 
Q 3050 -91 2638 -91 
Q 1578 -91 968 557 
Q 359 1206 359 2328 
Q 359 3453 968 4101 
Q 1578 4750 2638 4750 
Q 3056 4750 3426 4639 
Q 3797 4528 4122 4306 
z
" transform="scale(0.015625)"/>
       <path id="DejaVuSans-6f" d="M 1959 3097 
Q 1497 3097 1228 2736 
Q 959 2375 959 1747 
Q 959 1119 1226 758 
Q 1494 397 1959 397 
Q 2419 397 2687 759 
Q 2956 1122 2956 1747 
Q 2956 2369 2687 2733 
Q 2419 3097 1959 3097 
z
M 1959 3584 
Q 2709 3584 3137 3096 
Q 3566 2609 3566 1747 
Q 3566 888 3137 398 
Q 2709 -91 1959 -91 
Q 1206 -91 779 398 
Q 353 888 353 1747 
Q 353 2609 779 3096 
Q 1206 3584 1959 3584 
z
" transform="scale(0.015625)"/>
       <path id="DejaVuSans-6d" d="M 3328 2828 
Q 3544 3216 3844 3400 
Q 4144 3584 4550 3584 
Q 5097 3584 5394 3201 
Q 5691 2819 5691 2113 
L 5691 0 
L 5113 0 
L 5113 2094 
Q 5113 2597 4934 2840 
Q 4756 3084 4391 3084 
Q 3944 3084 3684 2787 
Q 3425 2491 3425 1978 
L 3425 0 
L 2847 0 
L 2847 2094 
Q 2847 2600 2669 2842 
Q 2491 3084 2119 3084 
Q 1678 3084 1418 2786 
Q 1159 2488 1159 1978 
L 1159 0 
L 581 0 
L 581 3500 
L 1159 3500 
L 1159 2956 
Q 1356 3278 1631 3431 
Q 1906 3584 2284 3584 
Q 2666 3584 2933 3390 
Q 3200 3197 3328 2828 
z
" transform="scale(0.015625)"/>
       <path id="DejaVuSans-70" d="M 1159 525 
L 1159 -1331 
L 581 -1331 
L 581 3500 
L 1159 3500 
L 1159 2969 
Q 1341 3281 1617 3432 
Q 1894 3584 2278 3584 
Q 2916 3584 3314 3078 
Q 3713 2572 3713 1747 
Q 3713 922 3314 415 
Q 2916 -91 2278 -91 
Q 1894 -91 1617 61 
Q 1341 213 1159 525 
z
M 3116 1747 
Q 3116 2381 2855 2742 
Q 2594 3103 2138 3103 
Q 1681 3103 1420 2742 
Q 1159 2381 1159 1747 
Q 1159 1113 1420 752 
Q 1681 391 2138 391 
Q 2594 391 2855 752 
Q 3116 1113 3116 1747 
z
" transform="scale(0.015625)"/>
       <path id="DejaVuSans-75" d="M 544 1381 
L 544 3500 
L 1119 3500 
L 1119 1403 
Q 1119 906 1312 657 
Q 1506 409 1894 409 
Q 2359 409 2629 706 
Q 2900 1003 2900 1516 
L 2900 3500 
L 3475 3500 
L 3475 0 
L 2900 0 
L 2900 538 
Q 2691 219 2414 64 
Q 2138 -91 1772 -91 
Q 1169 -91 856 284 
Q 544 659 544 1381 
z
M 1991 3584 
L 1991 3584 
z
" transform="scale(0.015625)"/>
       <path id="DejaVuSans-74" d="M 1172 4494 
L 1172 3500 
L 2356 3500 
L 2356 3053 
L 1172 3053 
L 1172 1153 
Q 1172 725 1289 603 
Q 1406 481 1766 481 
L 2356 481 
L 2356 0 
L 1766 0 
Q 1100 0 847 248 
Q 594 497 594 1153 
L 594 3053 
L 172 3053 
L 172 3500 
L 594 3500 
L 594 4494 
L 1172 4494 
z
" transform="scale(0.015625)"/>
       <path id="DejaVuSans-65" d="M 3597 1894 
L 3597 1613 
L 953 1613 
Q 991 1019 1311 708 
Q 1631 397 2203 397 
Q 2534 397 2845 478 
Q 3156 559 3463 722 
L 3463 178 
Q 3153 47 2828 -22 
Q 2503 -91 2169 -91 
Q 1331 -91 842 396 
Q 353 884 353 1716 
Q 353 2575 817 3079 
Q 1281 3584 2069 3584 
Q 2775 3584 3186 3129 
Q 3597 2675 3597 1894 
z
M 3022 2063 
Q 3016 2534 2758 2815 
Q 2500 3097 2075 3097 
Q 1594 3097 1305 2825 
Q 1016 2553 972 2059 
L 3022 2063 
z
" transform="scale(0.015625)"/>
       <path id="DejaVuSans-72" d="M 2631 2963 
Q 2534 3019 2420 3045 
Q 2306 3072 2169 3072 
Q 1681 3072 1420 2755 
Q 1159 2438 1159 1844 
L 1159 0 
L 581 0 
L 581 3500 
L 1159 3500 
L 1159 2956 
Q 1341 3275 1631 3429 
Q 1922 3584 2338 3584 
Q 2397 3584 2469 3576 
Q 2541 3569 2628 3553 
L 2631 2963 
z
" transform="scale(0.015625)"/>
       <path id="DejaVuSans-20" transform="scale(0.015625)"/>
      </defs>
      <use xlink:href="#DejaVuSans-43"/>
      <use xlink:href="#DejaVuSans-6f" transform="translate(69.824219 0)"/>
      <use xlink:href="#DejaVuSans-6d" transform="translate(131.005859 0)"/>
      <use xlink:href="#DejaVuSans-70" transform="translate(228.417969 0)"/>
      <use xlink:href="#DejaVuSans-75" transform="translate(291.894531 0)"/>
      <use xlink:href="#DejaVuSans-74" transform="translate(355.273438 0)"/>
      <use xlink:href="#DejaVuSans-65" transform="translate(394.482422 0)"/>
      <use xlink:href="#DejaVuSans-72" transform="translate(456.005859 0)"/>
      <use xlink:href="#DejaVuSans-20" transform="translate(497.119141 0)"/>
     </g>
     <!--  opponent -->
     <g transform="translate(27.875875 87.331797) rotate(-90) scale(0.11 -0.11)">
      <defs>
       <path id="DejaVuSans-6e" d="M 3513 2113 
L 3513 0 
L 2938 0 
L 2938 2094 
Q 2938 2591 2744 2837 
Q 2550 3084 2163 3084 
Q 1697 3084 1428 2787 
Q 1159 2491 1159 1978 
L 1159 0 
L 581 0 
L 581 3500 
L 1159 3500 
L 1159 2956 
Q 1366 3272 1645 3428 
Q 1925 3584 2291 3584 
Q 2894 3584 3203 3211 
Q 3513 2838 3513 2113 
z
" transform="scale(0.015625)"/>
      </defs>
      <use xlink:href="#DejaVuSans-20"/>
      <use xlink:href="#DejaVuSans-6f" transform="translate(31.787109 0)"/>
      <use xlink:href="#DejaVuSans-70" transform="translate(92.96875 0)"/>
      <use xlink:href="#DejaVuSans-70" transform="translate(156.445312 0)"/>
      <use xlink:href="#DejaVuSans-6f" transform="translate(219.921875 0)"/>
      <use xlink:href="#DejaVuSans-6e" transform="translate(281.103516 0)"/>
      <use xlink:href="#DejaVuSans-65" transform="translate(344.482422 0)"/>
      <use xlink:href="#DejaVuSans-6e" transform="translate(406.005859 0)"/>
      <use xlink:href="#DejaVuSans-74" transform="translate(469.384766 0)"/>
     </g>
    </g>
   </g>
   <g id="line2d_1">
    <path d="M 49.381713 59.358281 
L 49.381713 32.358281 
" clip-path="url(#pccda05f53a)" style="fill: none; stroke: #f45b69; stroke-width: 3; stroke-linecap: square"/>
   </g>
   <g id="line2d_2">
    <path d="M 55.593216 59.358281 
L 55.593216 32.358281 
" clip-path="url(#pccda05f53a)" style="fill: none; stroke: #f45b69; stroke-width: 3; stroke-linecap: square"/>
   </g>
   <g id="line2d_3">
    <path d="M 61.804719 59.358281 
L 61.804719 86.358281 
" clip-path="url(#pccda05f53a)" style="fill: none; stroke: #2a9df4; stroke-width: 3; stroke-linecap: square"/>
   </g>
   <g id="line2d_4">
    <path d="M 68.016221 59.358281 
L 68.016221 32.358281 
" clip-path="url(#pccda05f53a)" style="fill: none; stroke: #f45b69; stroke-width: 3; stroke-linecap: square"/>
   </g>
   <g id="line2d_5">
    <path d="M 74.227724 59.358281 
L 74.227724 86.358281 
" clip-path="url(#pccda05f53a)" style="fill: none; stroke: #2a9df4; stroke-width: 3; stroke-linecap: square"/>
   </g>
   <g id="line2d_6">
    <path d="M 80.439227 59.358281 
L 80.439227 32.358281 
" clip-path="url(#pccda05f53a)" style="fill: none; stroke: #f45b69; stroke-width: 3; stroke-linecap: square"/>
   </g>
   <g id="line2d_7">
    <path d="M 86.65073 59.358281 
L 86.65073 32.358281 
" clip-path="url(#pccda05f53a)" style="fill: none; stroke: #f45b69; stroke-width: 3; stroke-linecap: square"/>
   </g>
   <g id="line2d_8">
    <path d="M 92.862233 59.358281 
L 92.862233 86.358281 
" clip-path="url(#pccda05f53a)" style="fill: none; stroke: #2a9df4; stroke-width: 3; stroke-linecap: square"/>
   </g>
   <g id="line2d_9">
    <path d="M 99.073735 59.358281 
L 99.073735 32.358281 
" clip-path="url(#pccda05f53a)" style="fill: none; stroke: #f45b69; stroke-width: 3; stroke-linecap: square"/>
   </g>
   <g id="line2d_10">
    <path d="M 105.285238 59.358281 
L 105.285238 32.358281 
" clip-path="url(#pccda05f53a)" style="fill: none; stroke: #f45b69; stroke-width: 3; stroke-linecap: square"/>
   </g>
   <g id="line2d_11">
    <path d="M 111.496741 59.358281 
L 111.496741 86.358281 
" clip-path="url(#pccda05f53a)" style="fill: none; stroke: #2a9df4; stroke-width: 3; stroke-linecap: square"/>
   </g>
   <g id="line2d_12">
    <path d="M 117.708244 59.358281 
L 117.708244 32.358281 
" clip-path="url(#pccda05f53a)" style="fill: none; stroke: #f45b69; stroke-width: 3; stroke-linecap: square"/>
   </g>
   <g id="line2d_13">
    <path d="M 123.919746 59.358281 
L 123.919746 32.358281 
" clip-path="url(#pccda05f53a)" style="fill: none; stroke: #f45b69; stroke-width: 3; stroke-linecap: square"/>
   </g>
   <g id="line2d_14">
    <path d="M 130.131249 59.358281 
L 130.131249 86.358281 
" clip-path="url(#pccda05f53a)" style="fill: none; stroke: #2a9df4; stroke-width: 3; stroke-linecap: square"/>
   </g>
   <g id="line2d_15">
    <path d="M 136.342752 59.358281 
L 136.342752 86.358281 
" clip-path="url(#pccda05f53a)" style="fill: none; stroke: #2a9df4; stroke-width: 3; stroke-linecap: square"/>
   </g>
   <g id="line2d_16">
    <path d="M 142.554255 59.358281 
L 142.554255 32.358281 
" clip-path="url(#pccda05f53a)" style="fill: none; stroke: #f45b69; stroke-width: 3; stroke-linecap: square"/>
   </g>
   <g id="line2d_17">
    <path d="M 148.765758 59.358281 
L 148.765758 86.358281 
" clip-path="url(#pccda05f53a)" style="fill: none; stroke: #2a9df4; stroke-width: 3; stroke-linecap: square"/>
   </g>
   <g id="line2d_18">
    <path d="M 154.97726 59.358281 
L 154.97726 86.358281 
" clip-path="url(#pccda05f53a)" style="fill: none; stroke: #2a9df4; stroke-width: 3; stroke-linecap: square"/>
   </g>
   <g id="line2d_19">
    <path d="M 161.188763 59.358281 
L 161.188763 86.358281 
" clip-path="url(#pccda05f53a)" style="fill: none; stroke: #2a9df4; stroke-width: 3; stroke-linecap: square"/>
   </g>
   <g id="line2d_20">
    <path d="M 167.400266 59.358281 
L 167.400266 86.358281 
" clip-path="url(#pccda05f53a)" style="fill: none; stroke: #2a9df4; stroke-width: 3; stroke-linecap: square"/>
   </g>
   <g id="line2d_21">
    <path d="M 173.611769 59.358281 
L 173.611769 86.358281 
" clip-path="url(#pccda05f53a)" style="fill: none; stroke: #2a9df4; stroke-width: 3; stroke-linecap: square"/>
   </g>
   <g id="line2d_22">
    <path d="M 179.823272 59.358281 
L 179.823272 32.358281 
" clip-path="url(#pccda05f53a)" style="fill: none; stroke: #f45b69; stroke-width: 3; stroke-linecap: square"/>
   </g>
   <g id="line2d_23">
    <path d="M 186.034774 59.358281 
L 186.034774 86.358281 
" clip-path="url(#pccda05f53a)" style="fill: none; stroke: #2a9df4; stroke-width: 3; stroke-linecap: square"/>
   </g>
   <g id="line2d_24">
    <path d="M 192.246277 59.358281 
L 192.246277 86.358281 
" clip-path="url(#pccda05f53a)" style="fill: none; stroke: #2a9df4; stroke-width: 3; stroke-linecap: square"/>
   </g>
   <g id="line2d_25">
    <path d="M 198.45778 59.358281 
L 198.45778 32.358281 
" clip-path="url(#pccda05f53a)" style="fill: none; stroke: #f45b69; stroke-width: 3; stroke-linecap: square"/>
   </g>
   <g id="line2d_26">
    <path d="M 204.669283 59.358281 
L 204.669283 32.358281 
" clip-path="url(#pccda05f53a)" style="fill: none; stroke: #f45b69; stroke-width: 3; stroke-linecap: square"/>
   </g>
   <g id="line2d_27">
    <path d="M 210.880785 59.358281 
L 210.880785 86.358281 
" clip-path="url(#pccda05f53a)" style="fill: none; stroke: #2a9df4; stroke-width: 3; stroke-linecap: square"/>
   </g>
   <g id="line2d_28">
    <path d="M 217.092288 59.358281 
L 217.092288 86.358281 
" clip-path="url(#pccda05f53a)" style="fill: none; stroke: #2a9df4; stroke-width: 3; stroke-linecap: square"/>
   </g>
   <g id="line2d_29">
    <path d="M 223.303791 59.358281 
L 223.303791 32.358281 
" clip-path="url(#pccda05f53a)" style="fill: none; stroke: #f45b69; stroke-width: 3; stroke-linecap: square"/>
   </g>
   <g id="line2d_30">
    <path d="M 229.515294 59.358281 
L 229.515294 86.358281 
" clip-path="url(#pccda05f53a)" style="fill: none; stroke: #2a9df4; stroke-width: 3; stroke-linecap: square"/>
   </g>
   <g id="line2d_31">
    <path d="M 235.726797 59.358281 
L 235.726797 86.358281 
" clip-path="url(#pccda05f53a)" style="fill: none; stroke: #2a9df4; stroke-width: 3; stroke-linecap: square"/>
   </g>
   <g id="line2d_32">
    <path d="M 241.938299 59.358281 
L 241.938299 32.358281 
" clip-path="url(#pccda05f53a)" style="fill: none; stroke: #f45b69; stroke-width: 3; stroke-linecap: square"/>
   </g>
   <g id="line2d_33">
    <path d="M 248.149802 59.358281 
L 248.149802 86.358281 
" clip-path="url(#pccda05f53a)" style="fill: none; stroke: #2a9df4; stroke-width: 3; stroke-linecap: square"/>
   </g>
   <g id="line2d_34">
    <path d="M 254.361305 59.358281 
L 254.361305 86.358281 
" clip-path="url(#pccda05f53a)" style="fill: none; stroke: #2a9df4; stroke-width: 3; stroke-linecap: square"/>
   </g>
   <g id="line2d_35">
    <path d="M 260.572808 59.358281 
L 260.572808 86.358281 
" clip-path="url(#pccda05f53a)" style="fill: none; stroke: #2a9df4; stroke-width: 3; stroke-linecap: square"/>
   </g>
   <g id="line2d_36">
    <path d="M 266.78431 59.358281 
L 266.78431 32.358281 
" clip-path="url(#pccda05f53a)" style="fill: none; stroke: #f45b69; stroke-width: 3; stroke-linecap: square"/>
   </g>
   <g id="line2d_37">
    <path d="M 272.995813 59.358281 
L 272.995813 32.358281 
" clip-path="url(#pccda05f53a)" style="fill: none; stroke: #f45b69; stroke-width: 3; stroke-linecap: square"/>
   </g>
   <g id="line2d_38">
    <path d="M 279.207316 59.358281 
L 279.207316 86.358281 
" clip-path="url(#pccda05f53a)" style="fill: none; stroke: #2a9df4; stroke-width: 3; stroke-linecap: square"/>
   </g>
   <g id="line2d_39">
    <path d="M 285.418819 59.358281 
L 285.418819 32.358281 
" clip-path="url(#pccda05f53a)" style="fill: none; stroke: #f45b69; stroke-width: 3; stroke-linecap: square"/>
   </g>
   <g id="line2d_40">
    <path d="M 291.630322 59.358281 
L 291.630322 32.358281 
" clip-path="url(#pccda05f53a)" style="fill: none; stroke: #f45b69; stroke-width: 3; stroke-linecap: square"/>
   </g>
   <g id="line2d_41">
    <path d="M 297.841824 59.358281 
L 297.841824 32.358281 
" clip-path="url(#pccda05f53a)" style="fill: none; stroke: #f45b69; stroke-width: 3; stroke-linecap: square"/>
   </g>
   <g id="line2d_42">
    <path d="M 304.053327 59.358281 
L 304.053327 32.358281 
" clip-path="url(#pccda05f53a)" style="fill: none; stroke: #f45b69; stroke-width: 3; stroke-linecap: square"/>
   </g>
   <g id="line2d_43">
    <path d="M 310.26483 59.358281 
L 310.26483 32.358281 
" clip-path="url(#pccda05f53a)" style="fill: none; stroke: #f45b69; stroke-width: 3; stroke-linecap: square"/>
   </g>
   <g id="line2d_44">
    <path d="M 316.476333 59.358281 
L 316.476333 86.358281 
" clip-path="url(#pccda05f53a)" style="fill: none; stroke: #2a9df4; stroke-width: 3; stroke-linecap: square"/>
   </g>
   <g id="line2d_45">
    <path d="M 322.687836 59.358281 
L 322.687836 32.358281 
" clip-path="url(#pccda05f53a)" style="fill: none; stroke: #f45b69; stroke-width: 3; stroke-linecap: square"/>
   </g>
   <g id="line2d_46">
    <path d="M 328.899338 59.358281 
L 328.899338 86.358281 
" clip-path="url(#pccda05f53a)" style="fill: none; stroke: #2a9df4; stroke-width: 3; stroke-linecap: square"/>
   </g>
   <g id="line2d_47">
    <path d="M 335.110841 59.358281 
L 335.110841 86.358281 
" clip-path="url(#pccda05f53a)" style="fill: none; stroke: #2a9df4; stroke-width: 3; stroke-linecap: square"/>
   </g>
   <g id="line2d_48">
    <path d="M 341.322344 59.358281 
L 341.322344 86.358281 
" clip-path="url(#pccda05f53a)" style="fill: none; stroke: #2a9df4; stroke-width: 3; stroke-linecap: square"/>
   </g>
   <g id="line2d_49">
    <path d="M 347.533847 59.358281 
L 347.533847 86.358281 
" clip-path="url(#pccda05f53a)" style="fill: none; stroke: #2a9df4; stroke-width: 3; stroke-linecap: square"/>
   </g>
   <g id="line2d_50">
    <path d="M 353.745349 59.358281 
L 353.745349 32.358281 
" clip-path="url(#pccda05f53a)" style="fill: none; stroke: #f45b69; stroke-width: 3; stroke-linecap: square"/>
   </g>
   <g id="line2d_51">
    <path d="M 49.381713 59.358281 
L 353.745349 59.358281 
" clip-path="url(#pccda05f53a)" style="fill: none; stroke: #000000; stroke-width: 3; stroke-linecap: square"/>
   </g>
   <g id="text_2">
    <!-- Random environment: matching pennies -->
    <g transform="translate(89.150406 15.558281) scale(0.11 -0.11)">
     <defs>
      <path id="DejaVuSans-52" d="M 2841 2188 
Q 3044 2119 3236 1894 
Q 3428 1669 3622 1275 
L 4263 0 
L 3584 0 
L 2988 1197 
Q 2756 1666 2539 1819 
Q 2322 1972 1947 1972 
L 1259 1972 
L 1259 0 
L 628 0 
L 628 4666 
L 2053 4666 
Q 2853 4666 3247 4331 
Q 3641 3997 3641 3322 
Q 3641 2881 3436 2590 
Q 3231 2300 2841 2188 
z
M 1259 4147 
L 1259 2491 
L 2053 2491 
Q 2509 2491 2742 2702 
Q 2975 2913 2975 3322 
Q 2975 3731 2742 3939 
Q 2509 4147 2053 4147 
L 1259 4147 
z
" transform="scale(0.015625)"/>
      <path id="DejaVuSans-61" d="M 2194 1759 
Q 1497 1759 1228 1600 
Q 959 1441 959 1056 
Q 959 750 1161 570 
Q 1363 391 1709 391 
Q 2188 391 2477 730 
Q 2766 1069 2766 1631 
L 2766 1759 
L 2194 1759 
z
M 3341 1997 
L 3341 0 
L 2766 0 
L 2766 531 
Q 2569 213 2275 61 
Q 1981 -91 1556 -91 
Q 1019 -91 701 211 
Q 384 513 384 1019 
Q 384 1609 779 1909 
Q 1175 2209 1959 2209 
L 2766 2209 
L 2766 2266 
Q 2766 2663 2505 2880 
Q 2244 3097 1772 3097 
Q 1472 3097 1187 3025 
Q 903 2953 641 2809 
L 641 3341 
Q 956 3463 1253 3523 
Q 1550 3584 1831 3584 
Q 2591 3584 2966 3190 
Q 3341 2797 3341 1997 
z
" transform="scale(0.015625)"/>
      <path id="DejaVuSans-64" d="M 2906 2969 
L 2906 4863 
L 3481 4863 
L 3481 0 
L 2906 0 
L 2906 525 
Q 2725 213 2448 61 
Q 2172 -91 1784 -91 
Q 1150 -91 751 415 
Q 353 922 353 1747 
Q 353 2572 751 3078 
Q 1150 3584 1784 3584 
Q 2172 3584 2448 3432 
Q 2725 3281 2906 2969 
z
M 947 1747 
Q 947 1113 1208 752 
Q 1469 391 1925 391 
Q 2381 391 2643 752 
Q 2906 1113 2906 1747 
Q 2906 2381 2643 2742 
Q 2381 3103 1925 3103 
Q 1469 3103 1208 2742 
Q 947 2381 947 1747 
z
" transform="scale(0.015625)"/>
      <path id="DejaVuSans-76" d="M 191 3500 
L 800 3500 
L 1894 563 
L 2988 3500 
L 3597 3500 
L 2284 0 
L 1503 0 
L 191 3500 
z
" transform="scale(0.015625)"/>
      <path id="DejaVuSans-69" d="M 603 3500 
L 1178 3500 
L 1178 0 
L 603 0 
L 603 3500 
z
M 603 4863 
L 1178 4863 
L 1178 4134 
L 603 4134 
L 603 4863 
z
" transform="scale(0.015625)"/>
      <path id="DejaVuSans-3a" d="M 750 794 
L 1409 794 
L 1409 0 
L 750 0 
L 750 794 
z
M 750 3309 
L 1409 3309 
L 1409 2516 
L 750 2516 
L 750 3309 
z
" transform="scale(0.015625)"/>
      <path id="DejaVuSans-63" d="M 3122 3366 
L 3122 2828 
Q 2878 2963 2633 3030 
Q 2388 3097 2138 3097 
Q 1578 3097 1268 2742 
Q 959 2388 959 1747 
Q 959 1106 1268 751 
Q 1578 397 2138 397 
Q 2388 397 2633 464 
Q 2878 531 3122 666 
L 3122 134 
Q 2881 22 2623 -34 
Q 2366 -91 2075 -91 
Q 1284 -91 818 406 
Q 353 903 353 1747 
Q 353 2603 823 3093 
Q 1294 3584 2113 3584 
Q 2378 3584 2631 3529 
Q 2884 3475 3122 3366 
z
" transform="scale(0.015625)"/>
      <path id="DejaVuSans-68" d="M 3513 2113 
L 3513 0 
L 2938 0 
L 2938 2094 
Q 2938 2591 2744 2837 
Q 2550 3084 2163 3084 
Q 1697 3084 1428 2787 
Q 1159 2491 1159 1978 
L 1159 0 
L 581 0 
L 581 4863 
L 1159 4863 
L 1159 2956 
Q 1366 3272 1645 3428 
Q 1925 3584 2291 3584 
Q 2894 3584 3203 3211 
Q 3513 2838 3513 2113 
z
" transform="scale(0.015625)"/>
      <path id="DejaVuSans-67" d="M 2906 1791 
Q 2906 2416 2648 2759 
Q 2391 3103 1925 3103 
Q 1463 3103 1205 2759 
Q 947 2416 947 1791 
Q 947 1169 1205 825 
Q 1463 481 1925 481 
Q 2391 481 2648 825 
Q 2906 1169 2906 1791 
z
M 3481 434 
Q 3481 -459 3084 -895 
Q 2688 -1331 1869 -1331 
Q 1566 -1331 1297 -1286 
Q 1028 -1241 775 -1147 
L 775 -588 
Q 1028 -725 1275 -790 
Q 1522 -856 1778 -856 
Q 2344 -856 2625 -561 
Q 2906 -266 2906 331 
L 2906 616 
Q 2728 306 2450 153 
Q 2172 0 1784 0 
Q 1141 0 747 490 
Q 353 981 353 1791 
Q 353 2603 747 3093 
Q 1141 3584 1784 3584 
Q 2172 3584 2450 3431 
Q 2728 3278 2906 2969 
L 2906 3500 
L 3481 3500 
L 3481 434 
z
" transform="scale(0.015625)"/>
      <path id="DejaVuSans-73" d="M 2834 3397 
L 2834 2853 
Q 2591 2978 2328 3040 
Q 2066 3103 1784 3103 
Q 1356 3103 1142 2972 
Q 928 2841 928 2578 
Q 928 2378 1081 2264 
Q 1234 2150 1697 2047 
L 1894 2003 
Q 2506 1872 2764 1633 
Q 3022 1394 3022 966 
Q 3022 478 2636 193 
Q 2250 -91 1575 -91 
Q 1294 -91 989 -36 
Q 684 19 347 128 
L 347 722 
Q 666 556 975 473 
Q 1284 391 1588 391 
Q 1994 391 2212 530 
Q 2431 669 2431 922 
Q 2431 1156 2273 1281 
Q 2116 1406 1581 1522 
L 1381 1569 
Q 847 1681 609 1914 
Q 372 2147 372 2553 
Q 372 3047 722 3315 
Q 1072 3584 1716 3584 
Q 2034 3584 2315 3537 
Q 2597 3491 2834 3397 
z
" transform="scale(0.015625)"/>
     </defs>
     <use xlink:href="#DejaVuSans-52"/>
     <use xlink:href="#DejaVuSans-61" transform="translate(67.232422 0)"/>
     <use xlink:href="#DejaVuSans-6e" transform="translate(128.511719 0)"/>
     <use xlink:href="#DejaVuSans-64" transform="translate(191.890625 0)"/>
     <use xlink:href="#DejaVuSans-6f" transform="translate(255.367188 0)"/>
     <use xlink:href="#DejaVuSans-6d" transform="translate(316.548828 0)"/>
     <use xlink:href="#DejaVuSans-20" transform="translate(413.960938 0)"/>
     <use xlink:href="#DejaVuSans-65" transform="translate(445.748047 0)"/>
     <use xlink:href="#DejaVuSans-6e" transform="translate(507.271484 0)"/>
     <use xlink:href="#DejaVuSans-76" transform="translate(570.650391 0)"/>
     <use xlink:href="#DejaVuSans-69" transform="translate(629.830078 0)"/>
     <use xlink:href="#DejaVuSans-72" transform="translate(657.613281 0)"/>
     <use xlink:href="#DejaVuSans-6f" transform="translate(696.476562 0)"/>
     <use xlink:href="#DejaVuSans-6e" transform="translate(757.658203 0)"/>
     <use xlink:href="#DejaVuSans-6d" transform="translate(821.037109 0)"/>
     <use xlink:href="#DejaVuSans-65" transform="translate(918.449219 0)"/>
     <use xlink:href="#DejaVuSans-6e" transform="translate(979.972656 0)"/>
     <use xlink:href="#DejaVuSans-74" transform="translate(1043.351562 0)"/>
     <use xlink:href="#DejaVuSans-3a" transform="translate(1082.560547 0)"/>
     <use xlink:href="#DejaVuSans-20" transform="translate(1116.251953 0)"/>
     <use xlink:href="#DejaVuSans-6d" transform="translate(1148.039062 0)"/>
     <use xlink:href="#DejaVuSans-61" transform="translate(1245.451172 0)"/>
     <use xlink:href="#DejaVuSans-74" transform="translate(1306.730469 0)"/>
     <use xlink:href="#DejaVuSans-63" transform="translate(1345.939453 0)"/>
     <use xlink:href="#DejaVuSans-68" transform="translate(1400.919922 0)"/>
     <use xlink:href="#DejaVuSans-69" transform="translate(1464.298828 0)"/>
     <use xlink:href="#DejaVuSans-6e" transform="translate(1492.082031 0)"/>
     <use xlink:href="#DejaVuSans-67" transform="translate(1555.460938 0)"/>
     <use xlink:href="#DejaVuSans-20" transform="translate(1618.9375 0)"/>
     <use xlink:href="#DejaVuSans-70" transform="translate(1650.724609 0)"/>
     <use xlink:href="#DejaVuSans-65" transform="translate(1714.201172 0)"/>
     <use xlink:href="#DejaVuSans-6e" transform="translate(1775.724609 0)"/>
     <use xlink:href="#DejaVuSans-6e" transform="translate(1839.103516 0)"/>
     <use xlink:href="#DejaVuSans-69" transform="translate(1902.482422 0)"/>
     <use xlink:href="#DejaVuSans-65" transform="translate(1930.265625 0)"/>
     <use xlink:href="#DejaVuSans-73" transform="translate(1991.789062 0)"/>
    </g>
   </g>
  </g>
  <g id="axes_2">
   <g id="patch_3">
    <path d="M 34.163531 187.878281 
L 368.963531 187.878281 
L 368.963531 112.278281 
L 34.163531 112.278281 
L 34.163531 187.878281 
z
" style="fill: none"/>
   </g>
   <g id="PathCollection_1">
    <path d="M 55.593216 121.178281 
C 56.521427 121.178281 57.411745 120.809499 58.06809 120.153155 
C 58.724434 119.496811 59.093216 118.606492 59.093216 117.678281 
C 59.093216 116.75007 58.724434 115.859752 58.06809 115.203408 
C 57.411745 114.547063 56.521427 114.178281 55.593216 114.178281 
C 54.665005 114.178281 53.774686 114.547063 53.118342 115.203408 
C 52.461998 115.859752 52.093216 116.75007 52.093216 117.678281 
C 52.093216 118.606492 52.461998 119.496811 53.118342 120.153155 
C 53.774686 120.809499 54.665005 121.178281 55.593216 121.178281 
L 55.593216 121.178281 
z
" clip-path="url(#p35035fc57a)" style="fill: none; stroke: #f45b69; stroke-width: 2"/>
   </g>
   <g id="PathCollection_2">
    <path d="M 68.016221 121.178281 
C 68.944432 121.178281 69.834751 120.809499 70.491095 120.153155 
C 71.147439 119.496811 71.516221 118.606492 71.516221 117.678281 
C 71.516221 116.75007 71.147439 115.859752 70.491095 115.203408 
C 69.834751 114.547063 68.944432 114.178281 68.016221 114.178281 
C 67.088011 114.178281 66.197692 114.547063 65.541348 115.203408 
C 64.885003 115.859752 64.516221 116.75007 64.516221 117.678281 
C 64.516221 118.606492 64.885003 119.496811 65.541348 120.153155 
C 66.197692 120.809499 67.088011 121.178281 68.016221 121.178281 
L 68.016221 121.178281 
z
" clip-path="url(#p35035fc57a)" style="fill: none; stroke: #f45b69; stroke-width: 2"/>
   </g>
   <g id="PathCollection_3">
    <path d="M 74.227724 185.978281 
C 75.155935 185.978281 76.046254 185.609499 76.702598 184.953155 
C 77.358942 184.296811 77.727724 183.406492 77.727724 182.478281 
C 77.727724 181.55007 77.358942 180.659752 76.702598 180.003408 
C 76.046254 179.347063 75.155935 178.978281 74.227724 178.978281 
C 73.299513 178.978281 72.409195 179.347063 71.75285 180.003408 
C 71.096506 180.659752 70.727724 181.55007 70.727724 182.478281 
C 70.727724 183.406492 71.096506 184.296811 71.75285 184.953155 
C 72.409195 185.609499 73.299513 185.978281 74.227724 185.978281 
L 74.227724 185.978281 
z
" clip-path="url(#p35035fc57a)" style="fill: none; stroke: #2a9df4; stroke-width: 2"/>
   </g>
   <g id="PathCollection_4">
    <path d="M 80.439227 121.178281 
C 81.367438 121.178281 82.257757 120.809499 82.914101 120.153155 
C 83.570445 119.496811 83.939227 118.606492 83.939227 117.678281 
C 83.939227 116.75007 83.570445 115.859752 82.914101 115.203408 
C 82.257757 114.547063 81.367438 114.178281 80.439227 114.178281 
C 79.511016 114.178281 78.620697 114.547063 77.964353 115.203408 
C 77.308009 115.859752 76.939227 116.75007 76.939227 117.678281 
C 76.939227 118.606492 77.308009 119.496811 77.964353 120.153155 
C 78.620697 120.809499 79.511016 121.178281 80.439227 121.178281 
L 80.439227 121.178281 
z
" clip-path="url(#p35035fc57a)" style="fill: none; stroke: #f45b69; stroke-width: 2"/>
   </g>
   <g id="PathCollection_5">
    <path d="M 99.073735 121.178281 
C 100.001946 121.178281 100.892265 120.809499 101.548609 120.153155 
C 102.204953 119.496811 102.573735 118.606492 102.573735 117.678281 
C 102.573735 116.75007 102.204953 115.859752 101.548609 115.203408 
C 100.892265 114.547063 100.001946 114.178281 99.073735 114.178281 
C 98.145524 114.178281 97.255206 114.547063 96.598862 115.203408 
C 95.942517 115.859752 95.573735 116.75007 95.573735 117.678281 
C 95.573735 118.606492 95.942517 119.496811 96.598862 120.153155 
C 97.255206 120.809499 98.145524 121.178281 99.073735 121.178281 
L 99.073735 121.178281 
z
" clip-path="url(#p35035fc57a)" style="fill: none; stroke: #f45b69; stroke-width: 2"/>
   </g>
   <g id="PathCollection_6">
    <path d="M 136.342752 185.978281 
C 137.270963 185.978281 138.161282 185.609499 138.817626 184.953155 
C 139.47397 184.296811 139.842752 183.406492 139.842752 182.478281 
C 139.842752 181.55007 139.47397 180.659752 138.817626 180.003408 
C 138.161282 179.347063 137.270963 178.978281 136.342752 178.978281 
C 135.414541 178.978281 134.524222 179.347063 133.867878 180.003408 
C 133.211534 180.659752 132.842752 181.55007 132.842752 182.478281 
C 132.842752 183.406492 133.211534 184.296811 133.867878 184.953155 
C 134.524222 185.609499 135.414541 185.978281 136.342752 185.978281 
L 136.342752 185.978281 
z
" clip-path="url(#p35035fc57a)" style="fill: none; stroke: #2a9df4; stroke-width: 2"/>
   </g>
   <g id="PathCollection_7">
    <path d="M 148.765758 185.978281 
C 149.693968 185.978281 150.584287 185.609499 151.240631 184.953155 
C 151.896976 184.296811 152.265758 183.406492 152.265758 182.478281 
C 152.265758 181.55007 151.896976 180.659752 151.240631 180.003408 
C 150.584287 179.347063 149.693968 178.978281 148.765758 178.978281 
C 147.837547 178.978281 146.947228 179.347063 146.290884 180.003408 
C 145.63454 180.659752 145.265758 181.55007 145.265758 182.478281 
C 145.265758 183.406492 145.63454 184.296811 146.290884 184.953155 
C 146.947228 185.609499 147.837547 185.978281 148.765758 185.978281 
L 148.765758 185.978281 
z
" clip-path="url(#p35035fc57a)" style="fill: none; stroke: #2a9df4; stroke-width: 2"/>
   </g>
   <g id="PathCollection_8">
    <path d="M 167.400266 185.978281 
C 168.328477 185.978281 169.218795 185.609499 169.87514 184.953155 
C 170.531484 184.296811 170.900266 183.406492 170.900266 182.478281 
C 170.900266 181.55007 170.531484 180.659752 169.87514 180.003408 
C 169.218795 179.347063 168.328477 178.978281 167.400266 178.978281 
C 166.472055 178.978281 165.581736 179.347063 164.925392 180.003408 
C 164.269048 180.659752 163.900266 181.55007 163.900266 182.478281 
C 163.900266 183.406492 164.269048 184.296811 164.925392 184.953155 
C 165.581736 185.609499 166.472055 185.978281 167.400266 185.978281 
L 167.400266 185.978281 
z
" clip-path="url(#p35035fc57a)" style="fill: none; stroke: #2a9df4; stroke-width: 2"/>
   </g>
   <g id="PathCollection_9">
    <path d="M 173.611769 185.978281 
C 174.53998 185.978281 175.430298 185.609499 176.086642 184.953155 
C 176.742987 184.296811 177.111769 183.406492 177.111769 182.478281 
C 177.111769 181.55007 176.742987 180.659752 176.086642 180.003408 
C 175.430298 179.347063 174.53998 178.978281 173.611769 178.978281 
C 172.683558 178.978281 171.793239 179.347063 171.136895 180.003408 
C 170.480551 180.659752 170.111769 181.55007 170.111769 182.478281 
C 170.111769 183.406492 170.480551 184.296811 171.136895 184.953155 
C 171.793239 185.609499 172.683558 185.978281 173.611769 185.978281 
L 173.611769 185.978281 
z
" clip-path="url(#p35035fc57a)" style="fill: none; stroke: #2a9df4; stroke-width: 2"/>
   </g>
   <g id="PathCollection_10">
    <path d="M 192.246277 185.978281 
C 193.174488 185.978281 194.064807 185.609499 194.721151 184.953155 
C 195.377495 184.296811 195.746277 183.406492 195.746277 182.478281 
C 195.746277 181.55007 195.377495 180.659752 194.721151 180.003408 
C 194.064807 179.347063 193.174488 178.978281 192.246277 178.978281 
C 191.318066 178.978281 190.427748 179.347063 189.771403 180.003408 
C 189.115059 180.659752 188.746277 181.55007 188.746277 182.478281 
C 188.746277 183.406492 189.115059 184.296811 189.771403 184.953155 
C 190.427748 185.609499 191.318066 185.978281 192.246277 185.978281 
L 192.246277 185.978281 
z
" clip-path="url(#p35035fc57a)" style="fill: none; stroke: #2a9df4; stroke-width: 2"/>
   </g>
   <g id="PathCollection_11">
    <path d="M 198.45778 121.178281 
C 199.385991 121.178281 200.276309 120.809499 200.932654 120.153155 
C 201.588998 119.496811 201.95778 118.606492 201.95778 117.678281 
C 201.95778 116.75007 201.588998 115.859752 200.932654 115.203408 
C 200.276309 114.547063 199.385991 114.178281 198.45778 114.178281 
C 197.529569 114.178281 196.63925 114.547063 195.982906 115.203408 
C 195.326562 115.859752 194.95778 116.75007 194.95778 117.678281 
C 194.95778 118.606492 195.326562 119.496811 195.982906 120.153155 
C 196.63925 120.809499 197.529569 121.178281 198.45778 121.178281 
L 198.45778 121.178281 
z
" clip-path="url(#p35035fc57a)" style="fill: none; stroke: #f45b69; stroke-width: 2"/>
   </g>
   <g id="PathCollection_12">
    <path d="M 204.669283 121.178281 
C 205.597493 121.178281 206.487812 120.809499 207.144156 120.153155 
C 207.800501 119.496811 208.169283 118.606492 208.169283 117.678281 
C 208.169283 116.75007 207.800501 115.859752 207.144156 115.203408 
C 206.487812 114.547063 205.597493 114.178281 204.669283 114.178281 
C 203.741072 114.178281 202.850753 114.547063 202.194409 115.203408 
C 201.538065 115.859752 201.169283 116.75007 201.169283 117.678281 
C 201.169283 118.606492 201.538065 119.496811 202.194409 120.153155 
C 202.850753 120.809499 203.741072 121.178281 204.669283 121.178281 
L 204.669283 121.178281 
z
" clip-path="url(#p35035fc57a)" style="fill: none; stroke: #f45b69; stroke-width: 2"/>
   </g>
   <g id="PathCollection_13">
    <path d="M 210.880785 185.978281 
C 211.808996 185.978281 212.699315 185.609499 213.355659 184.953155 
C 214.012003 184.296811 214.380785 183.406492 214.380785 182.478281 
C 214.380785 181.55007 214.012003 180.659752 213.355659 180.003408 
C 212.699315 179.347063 211.808996 178.978281 210.880785 178.978281 
C 209.952575 178.978281 209.062256 179.347063 208.405912 180.003408 
C 207.749568 180.659752 207.380785 181.55007 207.380785 182.478281 
C 207.380785 183.406492 207.749568 184.296811 208.405912 184.953155 
C 209.062256 185.609499 209.952575 185.978281 210.880785 185.978281 
L 210.880785 185.978281 
z
" clip-path="url(#p35035fc57a)" style="fill: none; stroke: #2a9df4; stroke-width: 2"/>
   </g>
   <g id="PathCollection_14">
    <path d="M 223.303791 121.178281 
C 224.232002 121.178281 225.122321 120.809499 225.778665 120.153155 
C 226.435009 119.496811 226.803791 118.606492 226.803791 117.678281 
C 226.803791 116.75007 226.435009 115.859752 225.778665 115.203408 
C 225.122321 114.547063 224.232002 114.178281 223.303791 114.178281 
C 222.37558 114.178281 221.485261 114.547063 220.828917 115.203408 
C 220.172573 115.859752 219.803791 116.75007 219.803791 117.678281 
C 219.803791 118.606492 220.172573 119.496811 220.828917 120.153155 
C 221.485261 120.809499 222.37558 121.178281 223.303791 121.178281 
L 223.303791 121.178281 
z
" clip-path="url(#p35035fc57a)" style="fill: none; stroke: #f45b69; stroke-width: 2"/>
   </g>
   <g id="PathCollection_15">
    <path d="M 229.515294 185.978281 
C 230.443505 185.978281 231.333823 185.609499 231.990168 184.953155 
C 232.646512 184.296811 233.015294 183.406492 233.015294 182.478281 
C 233.015294 181.55007 232.646512 180.659752 231.990168 180.003408 
C 231.333823 179.347063 230.443505 178.978281 229.515294 178.978281 
C 228.587083 178.978281 227.696764 179.347063 227.04042 180.003408 
C 226.384076 180.659752 226.015294 181.55007 226.015294 182.478281 
C 226.015294 183.406492 226.384076 184.296811 227.04042 184.953155 
C 227.696764 185.609499 228.587083 185.978281 229.515294 185.978281 
L 229.515294 185.978281 
z
" clip-path="url(#p35035fc57a)" style="fill: none; stroke: #2a9df4; stroke-width: 2"/>
   </g>
   <g id="PathCollection_16">
    <path d="M 248.149802 185.978281 
C 249.078013 185.978281 249.968332 185.609499 250.624676 184.953155 
C 251.28102 184.296811 251.649802 183.406492 251.649802 182.478281 
C 251.649802 181.55007 251.28102 180.659752 250.624676 180.003408 
C 249.968332 179.347063 249.078013 178.978281 248.149802 178.978281 
C 247.221591 178.978281 246.331273 179.347063 245.674928 180.003408 
C 245.018584 180.659752 244.649802 181.55007 244.649802 182.478281 
C 244.649802 183.406492 245.018584 184.296811 245.674928 184.953155 
C 246.331273 185.609499 247.221591 185.978281 248.149802 185.978281 
L 248.149802 185.978281 
z
" clip-path="url(#p35035fc57a)" style="fill: none; stroke: #2a9df4; stroke-width: 2"/>
   </g>
   <g id="PathCollection_17">
    <path d="M 254.361305 185.978281 
C 255.289516 185.978281 256.179834 185.609499 256.836179 184.953155 
C 257.492523 184.296811 257.861305 183.406492 257.861305 182.478281 
C 257.861305 181.55007 257.492523 180.659752 256.836179 180.003408 
C 256.179834 179.347063 255.289516 178.978281 254.361305 178.978281 
C 253.433094 178.978281 252.542775 179.347063 251.886431 180.003408 
C 251.230087 180.659752 250.861305 181.55007 250.861305 182.478281 
C 250.861305 183.406492 251.230087 184.296811 251.886431 184.953155 
C 252.542775 185.609499 253.433094 185.978281 254.361305 185.978281 
L 254.361305 185.978281 
z
" clip-path="url(#p35035fc57a)" style="fill: none; stroke: #2a9df4; stroke-width: 2"/>
   </g>
   <g id="PathCollection_18">
    <path d="M 260.572808 185.978281 
C 261.501019 185.978281 262.391337 185.609499 263.047681 184.953155 
C 263.704026 184.296811 264.072808 183.406492 264.072808 182.478281 
C 264.072808 181.55007 263.704026 180.659752 263.047681 180.003408 
C 262.391337 179.347063 261.501019 178.978281 260.572808 178.978281 
C 259.644597 178.978281 258.754278 179.347063 258.097934 180.003408 
C 257.44159 180.659752 257.072808 181.55007 257.072808 182.478281 
C 257.072808 183.406492 257.44159 184.296811 258.097934 184.953155 
C 258.754278 185.609499 259.644597 185.978281 260.572808 185.978281 
L 260.572808 185.978281 
z
" clip-path="url(#p35035fc57a)" style="fill: none; stroke: #2a9df4; stroke-width: 2"/>
   </g>
   <g id="PathCollection_19">
    <path d="M 272.995813 121.178281 
C 273.924024 121.178281 274.814343 120.809499 275.470687 120.153155 
C 276.127031 119.496811 276.495813 118.606492 276.495813 117.678281 
C 276.495813 116.75007 276.127031 115.859752 275.470687 115.203408 
C 274.814343 114.547063 273.924024 114.178281 272.995813 114.178281 
C 272.067602 114.178281 271.177284 114.547063 270.52094 115.203408 
C 269.864595 115.859752 269.495813 116.75007 269.495813 117.678281 
C 269.495813 118.606492 269.864595 119.496811 270.52094 120.153155 
C 271.177284 120.809499 272.067602 121.178281 272.995813 121.178281 
L 272.995813 121.178281 
z
" clip-path="url(#p35035fc57a)" style="fill: none; stroke: #f45b69; stroke-width: 2"/>
   </g>
   <g id="PathCollection_20">
    <path d="M 279.207316 185.978281 
C 280.135527 185.978281 281.025846 185.609499 281.68219 184.953155 
C 282.338534 184.296811 282.707316 183.406492 282.707316 182.478281 
C 282.707316 181.55007 282.338534 180.659752 281.68219 180.003408 
C 281.025846 179.347063 280.135527 178.978281 279.207316 178.978281 
C 278.279105 178.978281 277.388786 179.347063 276.732442 180.003408 
C 276.076098 180.659752 275.707316 181.55007 275.707316 182.478281 
C 275.707316 183.406492 276.076098 184.296811 276.732442 184.953155 
C 277.388786 185.609499 278.279105 185.978281 279.207316 185.978281 
L 279.207316 185.978281 
z
" clip-path="url(#p35035fc57a)" style="fill: none; stroke: #2a9df4; stroke-width: 2"/>
   </g>
   <g id="PathCollection_21">
    <path d="M 285.418819 121.178281 
C 286.34703 121.178281 287.237348 120.809499 287.893693 120.153155 
C 288.550037 119.496811 288.918819 118.606492 288.918819 117.678281 
C 288.918819 116.75007 288.550037 115.859752 287.893693 115.203408 
C 287.237348 114.547063 286.34703 114.178281 285.418819 114.178281 
C 284.490608 114.178281 283.600289 114.547063 282.943945 115.203408 
C 282.287601 115.859752 281.918819 116.75007 281.918819 117.678281 
C 281.918819 118.606492 282.287601 119.496811 282.943945 120.153155 
C 283.600289 120.809499 284.490608 121.178281 285.418819 121.178281 
L 285.418819 121.178281 
z
" clip-path="url(#p35035fc57a)" style="fill: none; stroke: #f45b69; stroke-width: 2"/>
   </g>
   <g id="PathCollection_22">
    <path d="M 316.476333 185.978281 
C 317.404544 185.978281 318.294862 185.609499 318.951206 184.953155 
C 319.607551 184.296811 319.976333 183.406492 319.976333 182.478281 
C 319.976333 181.55007 319.607551 180.659752 318.951206 180.003408 
C 318.294862 179.347063 317.404544 178.978281 316.476333 178.978281 
C 315.548122 178.978281 314.657803 179.347063 314.001459 180.003408 
C 313.345115 180.659752 312.976333 181.55007 312.976333 182.478281 
C 312.976333 183.406492 313.345115 184.296811 314.001459 184.953155 
C 314.657803 185.609499 315.548122 185.978281 316.476333 185.978281 
L 316.476333 185.978281 
z
" clip-path="url(#p35035fc57a)" style="fill: none; stroke: #2a9df4; stroke-width: 2"/>
   </g>
   <g id="PathCollection_23">
    <path d="M 328.899338 185.978281 
C 329.827549 185.978281 330.717868 185.609499 331.374212 184.953155 
C 332.030556 184.296811 332.399338 183.406492 332.399338 182.478281 
C 332.399338 181.55007 332.030556 180.659752 331.374212 180.003408 
C 330.717868 179.347063 329.827549 178.978281 328.899338 178.978281 
C 327.971127 178.978281 327.080809 179.347063 326.424465 180.003408 
C 325.76812 180.659752 325.399338 181.55007 325.399338 182.478281 
C 325.399338 183.406492 325.76812 184.296811 326.424465 184.953155 
C 327.080809 185.609499 327.971127 185.978281 328.899338 185.978281 
L 328.899338 185.978281 
z
" clip-path="url(#p35035fc57a)" style="fill: none; stroke: #2a9df4; stroke-width: 2"/>
   </g>
   <g id="PathCollection_24">
    <path d="M 347.533847 185.978281 
C 348.462057 185.978281 349.352376 185.609499 350.00872 184.953155 
C 350.665065 184.296811 351.033847 183.406492 351.033847 182.478281 
C 351.033847 181.55007 350.665065 180.659752 350.00872 180.003408 
C 349.352376 179.347063 348.462057 178.978281 347.533847 178.978281 
C 346.605636 178.978281 345.715317 179.347063 345.058973 180.003408 
C 344.402629 180.659752 344.033847 181.55007 344.033847 182.478281 
C 344.033847 183.406492 344.402629 184.296811 345.058973 184.953155 
C 345.715317 185.609499 346.605636 185.978281 347.533847 185.978281 
L 347.533847 185.978281 
z
" clip-path="url(#p35035fc57a)" style="fill: none; stroke: #2a9df4; stroke-width: 2"/>
   </g>
   <g id="PathCollection_25">
    <path d="M 353.745349 121.178281 
C 354.67356 121.178281 355.563879 120.809499 356.220223 120.153155 
C 356.876567 119.496811 357.245349 118.606492 357.245349 117.678281 
C 357.245349 116.75007 356.876567 115.859752 356.220223 115.203408 
C 355.563879 114.547063 354.67356 114.178281 353.745349 114.178281 
C 352.817139 114.178281 351.92682 114.547063 351.270476 115.203408 
C 350.614132 115.859752 350.245349 116.75007 350.245349 117.678281 
C 350.245349 118.606492 350.614132 119.496811 351.270476 120.153155 
C 351.92682 120.809499 352.817139 121.178281 353.745349 121.178281 
L 353.745349 121.178281 
z
" clip-path="url(#p35035fc57a)" style="fill: none; stroke: #f45b69; stroke-width: 2"/>
   </g>
   <g id="matplotlib.axis_3"/>
   <g id="matplotlib.axis_4">
    <g id="text_3">
     <!-- Player 1 -->
     <g transform="translate(27.875875 172.440937) rotate(-90) scale(0.11 -0.11)">
      <defs>
       <path id="DejaVuSans-50" d="M 1259 4147 
L 1259 2394 
L 2053 2394 
Q 2494 2394 2734 2622 
Q 2975 2850 2975 3272 
Q 2975 3691 2734 3919 
Q 2494 4147 2053 4147 
L 1259 4147 
z
M 628 4666 
L 2053 4666 
Q 2838 4666 3239 4311 
Q 3641 3956 3641 3272 
Q 3641 2581 3239 2228 
Q 2838 1875 2053 1875 
L 1259 1875 
L 1259 0 
L 628 0 
L 628 4666 
z
" transform="scale(0.015625)"/>
       <path id="DejaVuSans-6c" d="M 603 4863 
L 1178 4863 
L 1178 0 
L 603 0 
L 603 4863 
z
" transform="scale(0.015625)"/>
       <path id="DejaVuSans-79" d="M 2059 -325 
Q 1816 -950 1584 -1140 
Q 1353 -1331 966 -1331 
L 506 -1331 
L 506 -850 
L 844 -850 
Q 1081 -850 1212 -737 
Q 1344 -625 1503 -206 
L 1606 56 
L 191 3500 
L 800 3500 
L 1894 763 
L 2988 3500 
L 3597 3500 
L 2059 -325 
z
" transform="scale(0.015625)"/>
       <path id="DejaVuSans-31" d="M 794 531 
L 1825 531 
L 1825 4091 
L 703 3866 
L 703 4441 
L 1819 4666 
L 2450 4666 
L 2450 531 
L 3481 531 
L 3481 0 
L 794 0 
L 794 531 
z
" transform="scale(0.015625)"/>
      </defs>
      <use xlink:href="#DejaVuSans-50"/>
      <use xlink:href="#DejaVuSans-6c" transform="translate(60.302734 0)"/>
      <use xlink:href="#DejaVuSans-61" transform="translate(88.085938 0)"/>
      <use xlink:href="#DejaVuSans-79" transform="translate(149.365234 0)"/>
      <use xlink:href="#DejaVuSans-65" transform="translate(208.544922 0)"/>
      <use xlink:href="#DejaVuSans-72" transform="translate(270.068359 0)"/>
      <use xlink:href="#DejaVuSans-20" transform="translate(311.181641 0)"/>
      <use xlink:href="#DejaVuSans-31" transform="translate(342.96875 0)"/>
     </g>
    </g>
   </g>
   <g id="line2d_52">
    <path d="M 49.381713 150.078281 
L 49.381713 177.078281 
" clip-path="url(#p35035fc57a)" style="fill: none; stroke: #2a9df4; stroke-width: 3; stroke-linecap: square"/>
   </g>
   <g id="line2d_53">
    <path d="M 55.593216 150.078281 
L 55.593216 123.078281 
" clip-path="url(#p35035fc57a)" style="fill: none; stroke: #f45b69; stroke-width: 3; stroke-linecap: square"/>
   </g>
   <g id="line2d_54">
    <path d="M 61.804719 150.078281 
L 61.804719 123.078281 
" clip-path="url(#p35035fc57a)" style="fill: none; stroke: #f45b69; stroke-width: 3; stroke-linecap: square"/>
   </g>
   <g id="line2d_55">
    <path d="M 68.016221 150.078281 
L 68.016221 123.078281 
" clip-path="url(#p35035fc57a)" style="fill: none; stroke: #f45b69; stroke-width: 3; stroke-linecap: square"/>
   </g>
   <g id="line2d_56">
    <path d="M 74.227724 150.078281 
L 74.227724 177.078281 
" clip-path="url(#p35035fc57a)" style="fill: none; stroke: #2a9df4; stroke-width: 3; stroke-linecap: square"/>
   </g>
   <g id="line2d_57">
    <path d="M 80.439227 150.078281 
L 80.439227 123.078281 
" clip-path="url(#p35035fc57a)" style="fill: none; stroke: #f45b69; stroke-width: 3; stroke-linecap: square"/>
   </g>
   <g id="line2d_58">
    <path d="M 86.65073 150.078281 
L 86.65073 177.078281 
" clip-path="url(#p35035fc57a)" style="fill: none; stroke: #2a9df4; stroke-width: 3; stroke-linecap: square"/>
   </g>
   <g id="line2d_59">
    <path d="M 92.862233 150.078281 
L 92.862233 123.078281 
" clip-path="url(#p35035fc57a)" style="fill: none; stroke: #f45b69; stroke-width: 3; stroke-linecap: square"/>
   </g>
   <g id="line2d_60">
    <path d="M 99.073735 150.078281 
L 99.073735 123.078281 
" clip-path="url(#p35035fc57a)" style="fill: none; stroke: #f45b69; stroke-width: 3; stroke-linecap: square"/>
   </g>
   <g id="line2d_61">
    <path d="M 105.285238 150.078281 
L 105.285238 177.078281 
" clip-path="url(#p35035fc57a)" style="fill: none; stroke: #2a9df4; stroke-width: 3; stroke-linecap: square"/>
   </g>
   <g id="line2d_62">
    <path d="M 111.496741 150.078281 
L 111.496741 123.078281 
" clip-path="url(#p35035fc57a)" style="fill: none; stroke: #f45b69; stroke-width: 3; stroke-linecap: square"/>
   </g>
   <g id="line2d_63">
    <path d="M 117.708244 150.078281 
L 117.708244 177.078281 
" clip-path="url(#p35035fc57a)" style="fill: none; stroke: #2a9df4; stroke-width: 3; stroke-linecap: square"/>
   </g>
   <g id="line2d_64">
    <path d="M 123.919746 150.078281 
L 123.919746 177.078281 
" clip-path="url(#p35035fc57a)" style="fill: none; stroke: #2a9df4; stroke-width: 3; stroke-linecap: square"/>
   </g>
   <g id="line2d_65">
    <path d="M 130.131249 150.078281 
L 130.131249 123.078281 
" clip-path="url(#p35035fc57a)" style="fill: none; stroke: #f45b69; stroke-width: 3; stroke-linecap: square"/>
   </g>
   <g id="line2d_66">
    <path d="M 136.342752 150.078281 
L 136.342752 177.078281 
" clip-path="url(#p35035fc57a)" style="fill: none; stroke: #2a9df4; stroke-width: 3; stroke-linecap: square"/>
   </g>
   <g id="line2d_67">
    <path d="M 142.554255 150.078281 
L 142.554255 177.078281 
" clip-path="url(#p35035fc57a)" style="fill: none; stroke: #2a9df4; stroke-width: 3; stroke-linecap: square"/>
   </g>
   <g id="line2d_68">
    <path d="M 148.765758 150.078281 
L 148.765758 177.078281 
" clip-path="url(#p35035fc57a)" style="fill: none; stroke: #2a9df4; stroke-width: 3; stroke-linecap: square"/>
   </g>
   <g id="line2d_69">
    <path d="M 154.97726 150.078281 
L 154.97726 123.078281 
" clip-path="url(#p35035fc57a)" style="fill: none; stroke: #f45b69; stroke-width: 3; stroke-linecap: square"/>
   </g>
   <g id="line2d_70">
    <path d="M 161.188763 150.078281 
L 161.188763 123.078281 
" clip-path="url(#p35035fc57a)" style="fill: none; stroke: #f45b69; stroke-width: 3; stroke-linecap: square"/>
   </g>
   <g id="line2d_71">
    <path d="M 167.400266 150.078281 
L 167.400266 177.078281 
" clip-path="url(#p35035fc57a)" style="fill: none; stroke: #2a9df4; stroke-width: 3; stroke-linecap: square"/>
   </g>
   <g id="line2d_72">
    <path d="M 173.611769 150.078281 
L 173.611769 177.078281 
" clip-path="url(#p35035fc57a)" style="fill: none; stroke: #2a9df4; stroke-width: 3; stroke-linecap: square"/>
   </g>
   <g id="line2d_73">
    <path d="M 179.823272 150.078281 
L 179.823272 177.078281 
" clip-path="url(#p35035fc57a)" style="fill: none; stroke: #2a9df4; stroke-width: 3; stroke-linecap: square"/>
   </g>
   <g id="line2d_74">
    <path d="M 186.034774 150.078281 
L 186.034774 123.078281 
" clip-path="url(#p35035fc57a)" style="fill: none; stroke: #f45b69; stroke-width: 3; stroke-linecap: square"/>
   </g>
   <g id="line2d_75">
    <path d="M 192.246277 150.078281 
L 192.246277 177.078281 
" clip-path="url(#p35035fc57a)" style="fill: none; stroke: #2a9df4; stroke-width: 3; stroke-linecap: square"/>
   </g>
   <g id="line2d_76">
    <path d="M 198.45778 150.078281 
L 198.45778 123.078281 
" clip-path="url(#p35035fc57a)" style="fill: none; stroke: #f45b69; stroke-width: 3; stroke-linecap: square"/>
   </g>
   <g id="line2d_77">
    <path d="M 204.669283 150.078281 
L 204.669283 123.078281 
" clip-path="url(#p35035fc57a)" style="fill: none; stroke: #f45b69; stroke-width: 3; stroke-linecap: square"/>
   </g>
   <g id="line2d_78">
    <path d="M 210.880785 150.078281 
L 210.880785 177.078281 
" clip-path="url(#p35035fc57a)" style="fill: none; stroke: #2a9df4; stroke-width: 3; stroke-linecap: square"/>
   </g>
   <g id="line2d_79">
    <path d="M 217.092288 150.078281 
L 217.092288 123.078281 
" clip-path="url(#p35035fc57a)" style="fill: none; stroke: #f45b69; stroke-width: 3; stroke-linecap: square"/>
   </g>
   <g id="line2d_80">
    <path d="M 223.303791 150.078281 
L 223.303791 123.078281 
" clip-path="url(#p35035fc57a)" style="fill: none; stroke: #f45b69; stroke-width: 3; stroke-linecap: square"/>
   </g>
   <g id="line2d_81">
    <path d="M 229.515294 150.078281 
L 229.515294 177.078281 
" clip-path="url(#p35035fc57a)" style="fill: none; stroke: #2a9df4; stroke-width: 3; stroke-linecap: square"/>
   </g>
   <g id="line2d_82">
    <path d="M 235.726797 150.078281 
L 235.726797 123.078281 
" clip-path="url(#p35035fc57a)" style="fill: none; stroke: #f45b69; stroke-width: 3; stroke-linecap: square"/>
   </g>
   <g id="line2d_83">
    <path d="M 241.938299 150.078281 
L 241.938299 177.078281 
" clip-path="url(#p35035fc57a)" style="fill: none; stroke: #2a9df4; stroke-width: 3; stroke-linecap: square"/>
   </g>
   <g id="line2d_84">
    <path d="M 248.149802 150.078281 
L 248.149802 177.078281 
" clip-path="url(#p35035fc57a)" style="fill: none; stroke: #2a9df4; stroke-width: 3; stroke-linecap: square"/>
   </g>
   <g id="line2d_85">
    <path d="M 254.361305 150.078281 
L 254.361305 177.078281 
" clip-path="url(#p35035fc57a)" style="fill: none; stroke: #2a9df4; stroke-width: 3; stroke-linecap: square"/>
   </g>
   <g id="line2d_86">
    <path d="M 260.572808 150.078281 
L 260.572808 177.078281 
" clip-path="url(#p35035fc57a)" style="fill: none; stroke: #2a9df4; stroke-width: 3; stroke-linecap: square"/>
   </g>
   <g id="line2d_87">
    <path d="M 266.78431 150.078281 
L 266.78431 177.078281 
" clip-path="url(#p35035fc57a)" style="fill: none; stroke: #2a9df4; stroke-width: 3; stroke-linecap: square"/>
   </g>
   <g id="line2d_88">
    <path d="M 272.995813 150.078281 
L 272.995813 123.078281 
" clip-path="url(#p35035fc57a)" style="fill: none; stroke: #f45b69; stroke-width: 3; stroke-linecap: square"/>
   </g>
   <g id="line2d_89">
    <path d="M 279.207316 150.078281 
L 279.207316 177.078281 
" clip-path="url(#p35035fc57a)" style="fill: none; stroke: #2a9df4; stroke-width: 3; stroke-linecap: square"/>
   </g>
   <g id="line2d_90">
    <path d="M 285.418819 150.078281 
L 285.418819 123.078281 
" clip-path="url(#p35035fc57a)" style="fill: none; stroke: #f45b69; stroke-width: 3; stroke-linecap: square"/>
   </g>
   <g id="line2d_91">
    <path d="M 291.630322 150.078281 
L 291.630322 177.078281 
" clip-path="url(#p35035fc57a)" style="fill: none; stroke: #2a9df4; stroke-width: 3; stroke-linecap: square"/>
   </g>
   <g id="line2d_92">
    <path d="M 297.841824 150.078281 
L 297.841824 177.078281 
" clip-path="url(#p35035fc57a)" style="fill: none; stroke: #2a9df4; stroke-width: 3; stroke-linecap: square"/>
   </g>
   <g id="line2d_93">
    <path d="M 304.053327 150.078281 
L 304.053327 177.078281 
" clip-path="url(#p35035fc57a)" style="fill: none; stroke: #2a9df4; stroke-width: 3; stroke-linecap: square"/>
   </g>
   <g id="line2d_94">
    <path d="M 310.26483 150.078281 
L 310.26483 177.078281 
" clip-path="url(#p35035fc57a)" style="fill: none; stroke: #2a9df4; stroke-width: 3; stroke-linecap: square"/>
   </g>
   <g id="line2d_95">
    <path d="M 316.476333 150.078281 
L 316.476333 177.078281 
" clip-path="url(#p35035fc57a)" style="fill: none; stroke: #2a9df4; stroke-width: 3; stroke-linecap: square"/>
   </g>
   <g id="line2d_96">
    <path d="M 322.687836 150.078281 
L 322.687836 177.078281 
" clip-path="url(#p35035fc57a)" style="fill: none; stroke: #2a9df4; stroke-width: 3; stroke-linecap: square"/>
   </g>
   <g id="line2d_97">
    <path d="M 328.899338 150.078281 
L 328.899338 177.078281 
" clip-path="url(#p35035fc57a)" style="fill: none; stroke: #2a9df4; stroke-width: 3; stroke-linecap: square"/>
   </g>
   <g id="line2d_98">
    <path d="M 335.110841 150.078281 
L 335.110841 123.078281 
" clip-path="url(#p35035fc57a)" style="fill: none; stroke: #f45b69; stroke-width: 3; stroke-linecap: square"/>
   </g>
   <g id="line2d_99">
    <path d="M 341.322344 150.078281 
L 341.322344 123.078281 
" clip-path="url(#p35035fc57a)" style="fill: none; stroke: #f45b69; stroke-width: 3; stroke-linecap: square"/>
   </g>
   <g id="line2d_100">
    <path d="M 347.533847 150.078281 
L 347.533847 177.078281 
" clip-path="url(#p35035fc57a)" style="fill: none; stroke: #2a9df4; stroke-width: 3; stroke-linecap: square"/>
   </g>
   <g id="line2d_101">
    <path d="M 353.745349 150.078281 
L 353.745349 123.078281 
" clip-path="url(#p35035fc57a)" style="fill: none; stroke: #f45b69; stroke-width: 3; stroke-linecap: square"/>
   </g>
   <g id="line2d_102">
    <path d="M 49.381713 150.078281 
L 353.745349 150.078281 
" clip-path="url(#p35035fc57a)" style="fill: none; stroke: #000000; stroke-width: 3; stroke-linecap: square"/>
   </g>
  </g>
 </g>
 <defs>
  <clipPath id="pccda05f53a">
   <rect x="34.163531" y="21.558281" width="334.8" height="75.6"/>
  </clipPath>
  <clipPath id="p35035fc57a">
   <rect x="34.163531" y="112.278281" width="334.8" height="75.6"/>
  </clipPath>
 </defs>
</svg>
