<?xml version="1.0" encoding="utf-8" standalone="no"?>
<!DOCTYPE svg PUBLIC "-//W3C//DTD SVG 1.1//EN"
  "http://www.w3.org/Graphics/SVG/1.1/DTD/svg11.dtd">
<svg xmlns:xlink="http://www.w3.org/1999/xlink" width="198.907418pt" height="223.049688pt" viewBox="0 0 198.907418 223.049688" xmlns="http://www.w3.org/2000/svg" version="1.1">
 <metadata>
  <rdf:RDF xmlns:dc="http://purl.org/dc/elements/1.1/" xmlns:cc="http://creativecommons.org/ns#" xmlns:rdf="http://www.w3.org/1999/02/22-rdf-syntax-ns#">
   <cc:Work>
    <dc:type rdf:resource="http://purl.org/dc/dcmitype/StillImage"/>
    <dc:date>2025-10-01T11:23:33.581005</dc:date>
    <dc:format>image/svg+xml</dc:format>
    <dc:creator>
     <cc:Agent>
      <dc:title>Matplotlib v3.10.6, https://matplotlib.org/</dc:title>
     </cc:Agent>
    </dc:creator>
   </cc:Work>
  </rdf:RDF>
 </metadata>
 <defs>
  <style type="text/css">*{stroke-linejoin: round; stroke-linecap: butt}</style>
 </defs>
 <g id="figure_1">
  <g id="patch_1">
   <path d="M 0 223.049688 
L 198.907418 223.049688 
L 198.907418 0 
L 0 0 
L 0 223.049688 
z
" style="fill: none"/>
  </g>
  <g id="axes_1">
   <g id="patch_2">
    <path d="M 72.632281 177.84 
L 184.232281 177.84 
L 184.232281 11.52 
L 72.632281 11.52 
L 72.632281 177.84 
z
" style="fill: none"/>
   </g>
   <g id="FillBetweenPolyCollection_1">
    <defs>
     <path id="m76238141f5" d="M 77.705009 -73.8167 
L 77.705009 -65.886016 
L 78.557568 -65.94505 
L 79.410127 -63.615279 
L 80.262686 -63.480117 
L 81.115245 -65.901691 
L 81.967805 -67.811552 
L 82.820364 -68.043024 
L 83.672923 -65.533865 
L 84.525482 -63.997932 
L 85.378041 -63.845015 
L 86.230601 -62.950161 
L 87.08316 -63.80523 
L 87.935719 -65.422929 
L 88.788278 -64.269161 
L 89.640837 -61.890744 
L 90.493397 -60.704682 
L 91.345956 -59.705003 
L 92.198515 -60.080211 
L 93.051074 -61.98461 
L 93.903633 -64.055294 
L 94.756193 -62.628662 
L 95.608752 -62.15648 
L 96.461311 -62.872676 
L 97.31387 -62.292422 
L 98.166429 -64.242717 
L 99.018989 -64.613858 
L 99.871548 -64.705105 
L 100.724107 -64.329095 
L 101.576666 -63.550589 
L 102.429225 -64.300618 
L 103.281785 -67.062481 
L 104.134344 -71.534053 
L 104.986903 -76.309873 
L 105.839462 -82.435064 
L 106.692022 -92.601877 
L 107.544581 -101.94587 
L 108.39714 -108.478539 
L 109.249699 -116.930334 
L 110.102258 -131.401377 
L 110.954818 -143.058188 
L 111.807377 -147.990619 
L 112.659936 -148.920849 
L 113.512495 -153.21202 
L 114.365054 -160.860196 
L 115.217614 -160.63225 
L 116.070173 -158.441343 
L 116.922732 -158.217247 
L 117.775291 -159.66022 
L 118.62785 -155.448699 
L 119.48041 -149.253921 
L 120.332969 -139.776724 
L 121.185528 -129.724874 
L 122.038087 -120.376998 
L 122.890646 -105.406293 
L 123.743206 -92.24498 
L 124.595765 -85.086285 
L 125.448324 -77.525309 
L 126.300883 -65.988782 
L 127.153442 -57.562933 
L 128.006002 -67.625215 
L 128.858561 -74.334002 
L 129.71112 -77.647011 
L 130.563679 -79.78628 
L 131.416238 -85.689871 
L 132.268798 -92.37578 
L 133.121357 -101.674291 
L 133.973916 -100.888479 
L 134.826475 -96.520113 
L 135.679034 -94.985922 
L 136.531594 -95.119749 
L 137.384153 -91.287597 
L 138.236712 -86.627317 
L 139.089271 -80.017397 
L 139.941831 -75.159554 
L 140.79439 -71.292439 
L 141.646949 -68.497026 
L 142.499508 -67.053936 
L 143.352067 -66.359773 
L 144.204627 -65.742094 
L 145.057186 -65.105722 
L 145.909745 -65.052886 
L 146.762304 -65.695049 
L 147.614863 -66.749409 
L 148.467423 -66.948852 
L 149.319982 -66.722467 
L 150.172541 -65.850438 
L 151.0251 -63.673985 
L 151.877659 -62.169635 
L 152.730219 -62.091302 
L 153.582778 -62.580222 
L 154.435337 -64.32875 
L 155.287896 -64.515911 
L 156.140455 -64.912674 
L 156.993015 -63.831768 
L 157.845574 -64.461351 
L 158.698133 -66.733835 
L 159.550692 -69.282172 
L 160.403251 -69.765422 
L 161.255811 -68.078848 
L 162.10837 -68.654444 
L 162.960929 -71.06953 
L 163.813488 -73.478173 
L 164.666047 -74.533739 
L 165.518607 -75.175453 
L 166.371166 -73.394471 
L 167.223725 -74.164678 
L 168.076284 -77.688561 
L 168.928844 -76.602174 
L 169.781403 -74.392668 
L 170.633962 -74.118584 
L 171.486521 -75.840872 
L 172.33908 -76.344279 
L 173.19164 -75.398389 
L 174.044199 -74.141003 
L 174.896758 -75.069393 
L 175.749317 -76.194136 
L 176.601876 -77.381247 
L 177.454436 -74.692724 
L 178.306995 -71.817699 
L 179.159554 -73.657357 
L 179.159554 -85.090808 
L 179.159554 -85.090808 
L 178.306995 -83.890932 
L 177.454436 -85.487418 
L 176.601876 -88.046417 
L 175.749317 -85.408927 
L 174.896758 -84.911847 
L 174.044199 -86.31292 
L 173.19164 -88.816685 
L 172.33908 -89.68997 
L 171.486521 -88.416995 
L 170.633962 -85.852241 
L 169.781403 -86.193685 
L 168.928844 -89.238455 
L 168.076284 -91.545197 
L 167.223725 -84.468003 
L 166.371166 -80.085102 
L 165.518607 -81.091221 
L 164.666047 -84.403583 
L 163.813488 -85.960987 
L 162.960929 -79.929589 
L 162.10837 -79.417164 
L 161.255811 -84.479457 
L 160.403251 -87.576405 
L 159.550692 -85.046874 
L 158.698133 -83.558948 
L 157.845574 -83.268842 
L 156.993015 -81.727103 
L 156.140455 -82.997368 
L 155.287896 -84.210582 
L 154.435337 -86.337073 
L 153.582778 -89.377986 
L 152.730219 -90.529449 
L 151.877659 -88.912078 
L 151.0251 -92.753677 
L 150.172541 -98.752682 
L 149.319982 -100.445529 
L 148.467423 -100.173098 
L 147.614863 -101.932305 
L 146.762304 -105.539808 
L 145.909745 -107.230893 
L 145.057186 -108.313532 
L 144.204627 -110.828628 
L 143.352067 -112.826294 
L 142.499508 -116.62597 
L 141.646949 -117.952594 
L 140.79439 -119.84007 
L 139.941831 -123.848054 
L 139.089271 -130.649872 
L 138.236712 -139.384532 
L 137.384153 -151.302066 
L 136.531594 -162.30486 
L 135.679034 -157.932073 
L 134.826475 -158.235779 
L 133.973916 -170.588846 
L 133.121357 -168.127641 
L 132.268798 -151.549179 
L 131.416238 -150.850442 
L 130.563679 -143.047398 
L 129.71112 -126.175921 
L 128.858561 -107.772701 
L 128.006002 -80.238091 
L 127.153442 -69.63965 
L 126.300883 -82.655566 
L 125.448324 -99.469192 
L 124.595765 -112.40908 
L 123.743206 -129.860103 
L 122.890646 -153.272154 
L 122.038087 -173.609142 
L 121.185528 -184.897145 
L 120.332969 -194.580826 
L 119.48041 -203.181524 
L 118.62785 -205.595022 
L 117.775291 -208.931884 
L 116.922732 -211.345992 
L 116.070173 -209.637116 
L 115.217614 -209.613935 
L 114.365054 -209.878104 
L 113.512495 -198.257424 
L 112.659936 -188.523849 
L 111.807377 -182.864074 
L 110.954818 -173.374559 
L 110.102258 -158.454092 
L 109.249699 -144.57258 
L 108.39714 -134.627005 
L 107.544581 -126.751421 
L 106.692022 -120.349845 
L 105.839462 -113.46865 
L 104.986903 -106.245211 
L 104.134344 -99.556033 
L 103.281785 -94.661467 
L 102.429225 -90.123033 
L 101.576666 -86.060241 
L 100.724107 -84.479081 
L 99.871548 -83.180767 
L 99.018989 -81.005824 
L 98.166429 -79.574824 
L 97.31387 -77.714122 
L 96.461311 -77.370827 
L 95.608752 -74.580921 
L 94.756193 -72.224065 
L 93.903633 -72.495463 
L 93.051074 -70.377383 
L 92.198515 -68.490372 
L 91.345956 -66.721596 
L 90.493397 -67.30729 
L 89.640837 -70.128898 
L 88.788278 -73.469341 
L 87.935719 -75.317123 
L 87.08316 -74.579707 
L 86.230601 -75.239788 
L 85.378041 -77.829924 
L 84.525482 -77.335958 
L 83.672923 -77.474866 
L 82.820364 -78.6182 
L 81.967805 -78.325443 
L 81.115245 -75.57923 
L 80.262686 -71.596329 
L 79.410127 -70.331874 
L 78.557568 -73.461777 
L 77.705009 -73.8167 
z
"/>
    </defs>
    <g clip-path="url(#pd9e9ce4f06)">
     <use xlink:href="#m76238141f5" x="0" y="223.049688" style="fill: #800080; fill-opacity: 0.3"/>
    </g>
   </g>
   <g id="FillBetweenPolyCollection_2">
    <defs>
     <path id="m0b36abad9c" d="M 77.705009 -66.256951 
L 77.705009 -59.283045 
L 78.557568 -63.454988 
L 79.410127 -65.136856 
L 80.262686 -65.35489 
L 81.115245 -60.702339 
L 81.967805 -57.193757 
L 82.820364 -56.809863 
L 83.672923 -59.856343 
L 84.525482 -61.398345 
L 85.378041 -55.56072 
L 86.230601 -50.045369 
L 87.08316 -50.882069 
L 87.935719 -51.593942 
L 88.788278 -55.950707 
L 89.640837 -57.093998 
L 90.493397 -59.407907 
L 91.345956 -59.681045 
L 92.198515 -59.197333 
L 93.051074 -62.626719 
L 93.903633 -68.269003 
L 94.756193 -70.43265 
L 95.608752 -72.627918 
L 96.461311 -75.698844 
L 97.31387 -72.955924 
L 98.166429 -70.267364 
L 99.018989 -68.752998 
L 99.871548 -70.648737 
L 100.724107 -73.658821 
L 101.576666 -76.660201 
L 102.429225 -76.530144 
L 103.281785 -76.511035 
L 104.134344 -75.271084 
L 104.986903 -71.830303 
L 105.839462 -69.064727 
L 106.692022 -67.272614 
L 107.544581 -70.579196 
L 108.39714 -69.862349 
L 109.249699 -67.202486 
L 110.102258 -63.66799 
L 110.954818 -63.137564 
L 111.807377 -63.377193 
L 112.659936 -60.625569 
L 113.512495 -57.376591 
L 114.365054 -57.901417 
L 115.217614 -57.578961 
L 116.070173 -56.319782 
L 116.922732 -57.426503 
L 117.775291 -56.929318 
L 118.62785 -58.459901 
L 119.48041 -65.390072 
L 120.332969 -67.066461 
L 121.185528 -68.164175 
L 122.038087 -71.198662 
L 122.890646 -71.184089 
L 123.743206 -68.032656 
L 124.595765 -66.882133 
L 125.448324 -71.246445 
L 126.300883 -77.246851 
L 127.153442 -86.266233 
L 128.006002 -102.328997 
L 128.858561 -108.303129 
L 129.71112 -111.46792 
L 130.563679 -105.093302 
L 131.416238 -95.534926 
L 132.268798 -89.388642 
L 133.121357 -81.836657 
L 133.973916 -74.005305 
L 134.826475 -73.03756 
L 135.679034 -75.414501 
L 136.531594 -75.271513 
L 137.384153 -75.757022 
L 138.236712 -79.250773 
L 139.089271 -86.585298 
L 139.941831 -90.568791 
L 140.79439 -92.811486 
L 141.646949 -92.629749 
L 142.499508 -89.558495 
L 143.352067 -86.281062 
L 144.204627 -91.182769 
L 145.057186 -92.090279 
L 145.909745 -91.161602 
L 146.762304 -88.337002 
L 147.614863 -84.661665 
L 148.467423 -85.167971 
L 149.319982 -89.172794 
L 150.172541 -97.942458 
L 151.0251 -103.312291 
L 151.877659 -110.287656 
L 152.730219 -108.932132 
L 153.582778 -101.190349 
L 154.435337 -99.2262 
L 155.287896 -98.991939 
L 156.140455 -88.6585 
L 156.993015 -77.397873 
L 157.845574 -85.331115 
L 158.698133 -90.144593 
L 159.550692 -82.84608 
L 160.403251 -77.144059 
L 161.255811 -75.766047 
L 162.10837 -76.325375 
L 162.960929 -77.48205 
L 163.813488 -73.525967 
L 164.666047 -69.894838 
L 165.518607 -68.083493 
L 166.371166 -65.199962 
L 167.223725 -63.962655 
L 168.076284 -59.845941 
L 168.928844 -60.860002 
L 169.781403 -61.943856 
L 170.633962 -58.431051 
L 171.486521 -58.108724 
L 172.33908 -56.644828 
L 173.19164 -57.541171 
L 174.044199 -57.658526 
L 174.896758 -57.750997 
L 175.749317 -54.040964 
L 176.601876 -52.016999 
L 177.454436 -51.360977 
L 178.306995 -53.236883 
L 179.159554 -57.060922 
L 179.159554 -63.610498 
L 179.159554 -63.610498 
L 178.306995 -62.347159 
L 177.454436 -63.620619 
L 176.601876 -61.907201 
L 175.749317 -62.193471 
L 174.896758 -64.80036 
L 174.044199 -65.158863 
L 173.19164 -65.52659 
L 172.33908 -65.93111 
L 171.486521 -65.781741 
L 170.633962 -63.72156 
L 169.781403 -68.848829 
L 168.928844 -68.77185 
L 168.076284 -65.211835 
L 167.223725 -70.59444 
L 166.371166 -75.948992 
L 165.518607 -76.848532 
L 164.666047 -83.282605 
L 163.813488 -95.760097 
L 162.960929 -95.212713 
L 162.10837 -94.213051 
L 161.255811 -89.934471 
L 160.403251 -86.433557 
L 159.550692 -89.410975 
L 158.698133 -107.515237 
L 157.845574 -96.666375 
L 156.993015 -94.342261 
L 156.140455 -110.747099 
L 155.287896 -120.100503 
L 154.435337 -120.423955 
L 153.582778 -120.374826 
L 152.730219 -133.543891 
L 151.877659 -140.977404 
L 151.0251 -128.145616 
L 150.172541 -120.739047 
L 149.319982 -117.009335 
L 148.467423 -114.55417 
L 147.614863 -106.061432 
L 146.762304 -103.134142 
L 145.909745 -103.649305 
L 145.057186 -99.38918 
L 144.204627 -97.574047 
L 143.352067 -96.944268 
L 142.499508 -97.897313 
L 141.646949 -96.776248 
L 140.79439 -94.818617 
L 139.941831 -94.417239 
L 139.089271 -94.699127 
L 138.236712 -93.343602 
L 137.384153 -95.665466 
L 136.531594 -101.223503 
L 135.679034 -110.402841 
L 134.826475 -124.92027 
L 133.973916 -149.848382 
L 133.121357 -178.606759 
L 132.268798 -210.419682 
L 131.416238 -219.671276 
L 130.563679 -208.611644 
L 129.71112 -190.519528 
L 128.858561 -181.332893 
L 128.006002 -171.627372 
L 127.153442 -138.016843 
L 126.300883 -97.895986 
L 125.448324 -78.147925 
L 124.595765 -73.187433 
L 123.743206 -76.650937 
L 122.890646 -88.547178 
L 122.038087 -100.282721 
L 121.185528 -94.859391 
L 120.332969 -89.572754 
L 119.48041 -81.041359 
L 118.62785 -68.404344 
L 117.775291 -63.427327 
L 116.922732 -62.990588 
L 116.070173 -61.417873 
L 115.217614 -65.130625 
L 114.365054 -69.120171 
L 113.512495 -76.517464 
L 112.659936 -79.547592 
L 111.807377 -85.059703 
L 110.954818 -92.685615 
L 110.102258 -98.808199 
L 109.249699 -104.772802 
L 108.39714 -108.399565 
L 107.544581 -112.035116 
L 106.692022 -108.375474 
L 105.839462 -106.399984 
L 104.986903 -114.735734 
L 104.134344 -110.444727 
L 103.281785 -112.1879 
L 102.429225 -121.694088 
L 101.576666 -117.879497 
L 100.724107 -107.644098 
L 99.871548 -103.660009 
L 99.018989 -97.003585 
L 98.166429 -95.46552 
L 97.31387 -94.687626 
L 96.461311 -96.915452 
L 95.608752 -89.094605 
L 94.756193 -79.387758 
L 93.903633 -78.569823 
L 93.051074 -75.888629 
L 92.198515 -71.952375 
L 91.345956 -71.332069 
L 90.493397 -69.802821 
L 89.640837 -64.883028 
L 88.788278 -60.066281 
L 87.935719 -58.065745 
L 87.08316 -58.172154 
L 86.230601 -57.477739 
L 85.378041 -62.597609 
L 84.525482 -74.833267 
L 83.672923 -74.017505 
L 82.820364 -64.858158 
L 81.967805 -64.039817 
L 81.115245 -66.243859 
L 80.262686 -71.533664 
L 79.410127 -68.521678 
L 78.557568 -69.052861 
L 77.705009 -66.256951 
z
"/>
    </defs>
    <g clip-path="url(#pd9e9ce4f06)">
     <use xlink:href="#m0b36abad9c" x="0" y="223.049688" style="fill: #ffa500; fill-opacity: 0.3"/>
    </g>
   </g>
   <g id="matplotlib.axis_1">
    <g id="xtick_1">
     <g id="line2d_1">
      <defs>
       <path id="ma0ff4bb888" d="M 0 0 
L 0 8.25 
" style="stroke: #000000; stroke-width: 1.4"/>
      </defs>
      <g>
       <use xlink:href="#ma0ff4bb888" x="77.705009" y="177.84" style="stroke: #000000; stroke-width: 1.4"/>
      </g>
     </g>
     <g id="text_1">
      <!-- −2 -->
      <g transform="translate(68.859696 198.708125) scale(0.12 -0.12)">
       <defs>
        <path id="DejaVuSans-2212" d="M 678 2272 
L 4684 2272 
L 4684 1741 
L 678 1741 
L 678 2272 
z
" transform="scale(0.015625)"/>
        <path id="DejaVuSans-32" d="M 1228 531 
L 3431 531 
L 3431 0 
L 469 0 
L 469 531 
Q 828 903 1448 1529 
Q 2069 2156 2228 2338 
Q 2531 2678 2651 2914 
Q 2772 3150 2772 3378 
Q 2772 3750 2511 3984 
Q 2250 4219 1831 4219 
Q 1534 4219 1204 4116 
Q 875 4013 500 3803 
L 500 4441 
Q 881 4594 1212 4672 
Q 1544 4750 1819 4750 
Q 2544 4750 2975 4387 
Q 3406 4025 3406 3419 
Q 3406 3131 3298 2873 
Q 3191 2616 2906 2266 
Q 2828 2175 2409 1742 
Q 1991 1309 1228 531 
z
" transform="scale(0.015625)"/>
       </defs>
       <use xlink:href="#DejaVuSans-2212"/>
       <use xlink:href="#DejaVuSans-32" transform="translate(83.789062 0)"/>
      </g>
     </g>
    </g>
    <g id="xtick_2">
     <g id="line2d_2">
      <g>
       <use xlink:href="#ma0ff4bb888" x="128.858561" y="177.84" style="stroke: #000000; stroke-width: 1.4"/>
      </g>
     </g>
     <g id="text_2">
      <!-- 0 -->
      <g transform="translate(125.041061 198.708125) scale(0.12 -0.12)">
       <defs>
        <path id="DejaVuSans-30" d="M 2034 4250 
Q 1547 4250 1301 3770 
Q 1056 3291 1056 2328 
Q 1056 1369 1301 889 
Q 1547 409 2034 409 
Q 2525 409 2770 889 
Q 3016 1369 3016 2328 
Q 3016 3291 2770 3770 
Q 2525 4250 2034 4250 
z
M 2034 4750 
Q 2819 4750 3233 4129 
Q 3647 3509 3647 2328 
Q 3647 1150 3233 529 
Q 2819 -91 2034 -91 
Q 1250 -91 836 529 
Q 422 1150 422 2328 
Q 422 3509 836 4129 
Q 1250 4750 2034 4750 
z
" transform="scale(0.015625)"/>
       </defs>
       <use xlink:href="#DejaVuSans-30"/>
      </g>
     </g>
    </g>
    <g id="xtick_3">
     <g id="line2d_3">
      <g>
       <use xlink:href="#ma0ff4bb888" x="180.012113" y="177.84" style="stroke: #000000; stroke-width: 1.4"/>
      </g>
     </g>
     <g id="text_3">
      <!-- 2 -->
      <g transform="translate(176.194613 198.708125) scale(0.12 -0.12)">
       <use xlink:href="#DejaVuSans-32"/>
      </g>
     </g>
    </g>
    <g id="text_4">
     <!-- Time from first lick (s) -->
     <g transform="translate(68.019078 213.562031) scale(0.11 -0.11)">
      <defs>
       <path id="DejaVuSans-54" d="M -19 4666 
L 3928 4666 
L 3928 4134 
L 2272 4134 
L 2272 0 
L 1638 0 
L 1638 4134 
L -19 4134 
L -19 4666 
z
" transform="scale(0.015625)"/>
       <path id="DejaVuSans-69" d="M 603 3500 
L 1178 3500 
L 1178 0 
L 603 0 
L 603 3500 
z
M 603 4863 
L 1178 4863 
L 1178 4134 
L 603 4134 
L 603 4863 
z
" transform="scale(0.015625)"/>
       <path id="DejaVuSans-6d" d="M 3328 2828 
Q 3544 3216 3844 3400 
Q 4144 3584 4550 3584 
Q 5097 3584 5394 3201 
Q 5691 2819 5691 2113 
L 5691 0 
L 5113 0 
L 5113 2094 
Q 5113 2597 4934 2840 
Q 4756 3084 4391 3084 
Q 3944 3084 3684 2787 
Q 3425 2491 3425 1978 
L 3425 0 
L 2847 0 
L 2847 2094 
Q 2847 2600 2669 2842 
Q 2491 3084 2119 3084 
Q 1678 3084 1418 2786 
Q 1159 2488 1159 1978 
L 1159 0 
L 581 0 
L 581 3500 
L 1159 3500 
L 1159 2956 
Q 1356 3278 1631 3431 
Q 1906 3584 2284 3584 
Q 2666 3584 2933 3390 
Q 3200 3197 3328 2828 
z
" transform="scale(0.015625)"/>
       <path id="DejaVuSans-65" d="M 3597 1894 
L 3597 1613 
L 953 1613 
Q 991 1019 1311 708 
Q 1631 397 2203 397 
Q 2534 397 2845 478 
Q 3156 559 3463 722 
L 3463 178 
Q 3153 47 2828 -22 
Q 2503 -91 2169 -91 
Q 1331 -91 842 396 
Q 353 884 353 1716 
Q 353 2575 817 3079 
Q 1281 3584 2069 3584 
Q 2775 3584 3186 3129 
Q 3597 2675 3597 1894 
z
M 3022 2063 
Q 3016 2534 2758 2815 
Q 2500 3097 2075 3097 
Q 1594 3097 1305 2825 
Q 1016 2553 972 2059 
L 3022 2063 
z
" transform="scale(0.015625)"/>
       <path id="DejaVuSans-20" transform="scale(0.015625)"/>
       <path id="DejaVuSans-66" d="M 2375 4863 
L 2375 4384 
L 1825 4384 
Q 1516 4384 1395 4259 
Q 1275 4134 1275 3809 
L 1275 3500 
L 2222 3500 
L 2222 3053 
L 1275 3053 
L 1275 0 
L 697 0 
L 697 3053 
L 147 3053 
L 147 3500 
L 697 3500 
L 697 3744 
Q 697 4328 969 4595 
Q 1241 4863 1831 4863 
L 2375 4863 
z
" transform="scale(0.015625)"/>
       <path id="DejaVuSans-72" d="M 2631 2963 
Q 2534 3019 2420 3045 
Q 2306 3072 2169 3072 
Q 1681 3072 1420 2755 
Q 1159 2438 1159 1844 
L 1159 0 
L 581 0 
L 581 3500 
L 1159 3500 
L 1159 2956 
Q 1341 3275 1631 3429 
Q 1922 3584 2338 3584 
Q 2397 3584 2469 3576 
Q 2541 3569 2628 3553 
L 2631 2963 
z
" transform="scale(0.015625)"/>
       <path id="DejaVuSans-6f" d="M 1959 3097 
Q 1497 3097 1228 2736 
Q 959 2375 959 1747 
Q 959 1119 1226 758 
Q 1494 397 1959 397 
Q 2419 397 2687 759 
Q 2956 1122 2956 1747 
Q 2956 2369 2687 2733 
Q 2419 3097 1959 3097 
z
M 1959 3584 
Q 2709 3584 3137 3096 
Q 3566 2609 3566 1747 
Q 3566 888 3137 398 
Q 2709 -91 1959 -91 
Q 1206 -91 779 398 
Q 353 888 353 1747 
Q 353 2609 779 3096 
Q 1206 3584 1959 3584 
z
" transform="scale(0.015625)"/>
       <path id="DejaVuSans-73" d="M 2834 3397 
L 2834 2853 
Q 2591 2978 2328 3040 
Q 2066 3103 1784 3103 
Q 1356 3103 1142 2972 
Q 928 2841 928 2578 
Q 928 2378 1081 2264 
Q 1234 2150 1697 2047 
L 1894 2003 
Q 2506 1872 2764 1633 
Q 3022 1394 3022 966 
Q 3022 478 2636 193 
Q 2250 -91 1575 -91 
Q 1294 -91 989 -36 
Q 684 19 347 128 
L 347 722 
Q 666 556 975 473 
Q 1284 391 1588 391 
Q 1994 391 2212 530 
Q 2431 669 2431 922 
Q 2431 1156 2273 1281 
Q 2116 1406 1581 1522 
L 1381 1569 
Q 847 1681 609 1914 
Q 372 2147 372 2553 
Q 372 3047 722 3315 
Q 1072 3584 1716 3584 
Q 2034 3584 2315 3537 
Q 2597 3491 2834 3397 
z
" transform="scale(0.015625)"/>
       <path id="DejaVuSans-74" d="M 1172 4494 
L 1172 3500 
L 2356 3500 
L 2356 3053 
L 1172 3053 
L 1172 1153 
Q 1172 725 1289 603 
Q 1406 481 1766 481 
L 2356 481 
L 2356 0 
L 1766 0 
Q 1100 0 847 248 
Q 594 497 594 1153 
L 594 3053 
L 172 3053 
L 172 3500 
L 594 3500 
L 594 4494 
L 1172 4494 
z
" transform="scale(0.015625)"/>
       <path id="DejaVuSans-6c" d="M 603 4863 
L 1178 4863 
L 1178 0 
L 603 0 
L 603 4863 
z
" transform="scale(0.015625)"/>
       <path id="DejaVuSans-63" d="M 3122 3366 
L 3122 2828 
Q 2878 2963 2633 3030 
Q 2388 3097 2138 3097 
Q 1578 3097 1268 2742 
Q 959 2388 959 1747 
Q 959 1106 1268 751 
Q 1578 397 2138 397 
Q 2388 397 2633 464 
Q 2878 531 3122 666 
L 3122 134 
Q 2881 22 2623 -34 
Q 2366 -91 2075 -91 
Q 1284 -91 818 406 
Q 353 903 353 1747 
Q 353 2603 823 3093 
Q 1294 3584 2113 3584 
Q 2378 3584 2631 3529 
Q 2884 3475 3122 3366 
z
" transform="scale(0.015625)"/>
       <path id="DejaVuSans-6b" d="M 581 4863 
L 1159 4863 
L 1159 1991 
L 2875 3500 
L 3609 3500 
L 1753 1863 
L 3688 0 
L 2938 0 
L 1159 1709 
L 1159 0 
L 581 0 
L 581 4863 
z
" transform="scale(0.015625)"/>
       <path id="DejaVuSans-28" d="M 1984 4856 
Q 1566 4138 1362 3434 
Q 1159 2731 1159 2009 
Q 1159 1288 1364 580 
Q 1569 -128 1984 -844 
L 1484 -844 
Q 1016 -109 783 600 
Q 550 1309 550 2009 
Q 550 2706 781 3412 
Q 1013 4119 1484 4856 
L 1984 4856 
z
" transform="scale(0.015625)"/>
       <path id="DejaVuSans-29" d="M 513 4856 
L 1013 4856 
Q 1481 4119 1714 3412 
Q 1947 2706 1947 2009 
Q 1947 1309 1714 600 
Q 1481 -109 1013 -844 
L 513 -844 
Q 928 -128 1133 580 
Q 1338 1288 1338 2009 
Q 1338 2731 1133 3434 
Q 928 4138 513 4856 
z
" transform="scale(0.015625)"/>
      </defs>
      <use xlink:href="#DejaVuSans-54"/>
      <use xlink:href="#DejaVuSans-69" transform="translate(57.958984 0)"/>
      <use xlink:href="#DejaVuSans-6d" transform="translate(85.742188 0)"/>
      <use xlink:href="#DejaVuSans-65" transform="translate(183.154297 0)"/>
      <use xlink:href="#DejaVuSans-20" transform="translate(244.677734 0)"/>
      <use xlink:href="#DejaVuSans-66" transform="translate(276.464844 0)"/>
      <use xlink:href="#DejaVuSans-72" transform="translate(311.669922 0)"/>
      <use xlink:href="#DejaVuSans-6f" transform="translate(350.533203 0)"/>
      <use xlink:href="#DejaVuSans-6d" transform="translate(411.714844 0)"/>
      <use xlink:href="#DejaVuSans-20" transform="translate(509.126953 0)"/>
      <use xlink:href="#DejaVuSans-66" transform="translate(540.914062 0)"/>
      <use xlink:href="#DejaVuSans-69" transform="translate(576.119141 0)"/>
      <use xlink:href="#DejaVuSans-72" transform="translate(603.902344 0)"/>
      <use xlink:href="#DejaVuSans-73" transform="translate(645.015625 0)"/>
      <use xlink:href="#DejaVuSans-74" transform="translate(697.115234 0)"/>
      <use xlink:href="#DejaVuSans-20" transform="translate(736.324219 0)"/>
      <use xlink:href="#DejaVuSans-6c" transform="translate(768.111328 0)"/>
      <use xlink:href="#DejaVuSans-69" transform="translate(795.894531 0)"/>
      <use xlink:href="#DejaVuSans-63" transform="translate(823.677734 0)"/>
      <use xlink:href="#DejaVuSans-6b" transform="translate(878.658203 0)"/>
      <use xlink:href="#DejaVuSans-20" transform="translate(936.568359 0)"/>
      <use xlink:href="#DejaVuSans-28" transform="translate(968.355469 0)"/>
      <use xlink:href="#DejaVuSans-73" transform="translate(1007.369141 0)"/>
      <use xlink:href="#DejaVuSans-29" transform="translate(1059.46875 0)"/>
     </g>
    </g>
   </g>
   <g id="matplotlib.axis_2">
    <g id="ytick_1">
     <g id="line2d_4">
      <defs>
       <path id="m3edf291504" d="M 0 0 
L -8.25 0 
" style="stroke: #000000; stroke-width: 1.4"/>
      </defs>
      <g>
       <use xlink:href="#m3edf291504" x="72.632281" y="166.752" style="stroke: #000000; stroke-width: 1.4"/>
      </g>
     </g>
     <g id="text_5">
      <!-- 0.00 -->
      <g transform="translate(34.163531 171.311062) scale(0.12 -0.12)">
       <defs>
        <path id="DejaVuSans-2e" d="M 684 794 
L 1344 794 
L 1344 0 
L 684 0 
L 684 794 
z
" transform="scale(0.015625)"/>
       </defs>
       <use xlink:href="#DejaVuSans-30"/>
       <use xlink:href="#DejaVuSans-2e" transform="translate(63.623047 0)"/>
       <use xlink:href="#DejaVuSans-30" transform="translate(95.410156 0)"/>
       <use xlink:href="#DejaVuSans-30" transform="translate(159.033203 0)"/>
      </g>
     </g>
    </g>
    <g id="ytick_2">
     <g id="line2d_5">
      <g>
       <use xlink:href="#m3edf291504" x="72.632281" y="122.4" style="stroke: #000000; stroke-width: 1.4"/>
      </g>
     </g>
     <g id="text_6">
      <!-- 0.01 -->
      <g transform="translate(34.163531 126.959063) scale(0.12 -0.12)">
       <defs>
        <path id="DejaVuSans-31" d="M 794 531 
L 1825 531 
L 1825 4091 
L 703 3866 
L 703 4441 
L 1819 4666 
L 2450 4666 
L 2450 531 
L 3481 531 
L 3481 0 
L 794 0 
L 794 531 
z
" transform="scale(0.015625)"/>
       </defs>
       <use xlink:href="#DejaVuSans-30"/>
       <use xlink:href="#DejaVuSans-2e" transform="translate(63.623047 0)"/>
       <use xlink:href="#DejaVuSans-30" transform="translate(95.410156 0)"/>
       <use xlink:href="#DejaVuSans-31" transform="translate(159.033203 0)"/>
      </g>
     </g>
    </g>
    <g id="ytick_3">
     <g id="line2d_6">
      <g>
       <use xlink:href="#m3edf291504" x="72.632281" y="78.048" style="stroke: #000000; stroke-width: 1.4"/>
      </g>
     </g>
     <g id="text_7">
      <!-- 0.02 -->
      <g transform="translate(34.163531 82.607063) scale(0.12 -0.12)">
       <use xlink:href="#DejaVuSans-30"/>
       <use xlink:href="#DejaVuSans-2e" transform="translate(63.623047 0)"/>
       <use xlink:href="#DejaVuSans-30" transform="translate(95.410156 0)"/>
       <use xlink:href="#DejaVuSans-32" transform="translate(159.033203 0)"/>
      </g>
     </g>
    </g>
    <g id="ytick_4">
     <g id="line2d_7">
      <g>
       <use xlink:href="#m3edf291504" x="72.632281" y="33.696" style="stroke: #000000; stroke-width: 1.4"/>
      </g>
     </g>
     <g id="text_8">
      <!-- 0.03 -->
      <g transform="translate(34.163531 38.255063) scale(0.12 -0.12)">
       <defs>
        <path id="DejaVuSans-33" d="M 2597 2516 
Q 3050 2419 3304 2112 
Q 3559 1806 3559 1356 
Q 3559 666 3084 287 
Q 2609 -91 1734 -91 
Q 1441 -91 1130 -33 
Q 819 25 488 141 
L 488 750 
Q 750 597 1062 519 
Q 1375 441 1716 441 
Q 2309 441 2620 675 
Q 2931 909 2931 1356 
Q 2931 1769 2642 2001 
Q 2353 2234 1838 2234 
L 1294 2234 
L 1294 2753 
L 1863 2753 
Q 2328 2753 2575 2939 
Q 2822 3125 2822 3475 
Q 2822 3834 2567 4026 
Q 2313 4219 1838 4219 
Q 1578 4219 1281 4162 
Q 984 4106 628 3988 
L 628 4550 
Q 988 4650 1302 4700 
Q 1616 4750 1894 4750 
Q 2613 4750 3031 4423 
Q 3450 4097 3450 3541 
Q 3450 3153 3228 2886 
Q 3006 2619 2597 2516 
z
" transform="scale(0.015625)"/>
       </defs>
       <use xlink:href="#DejaVuSans-30"/>
       <use xlink:href="#DejaVuSans-2e" transform="translate(63.623047 0)"/>
       <use xlink:href="#DejaVuSans-30" transform="translate(95.410156 0)"/>
       <use xlink:href="#DejaVuSans-33" transform="translate(159.033203 0)"/>
      </g>
     </g>
    </g>
    <g id="text_9">
     <!-- $\Delta$EV -->
     <g transform="translate(15.558281 105.68) rotate(-90) scale(0.11 -0.11)">
      <defs>
       <path id="DejaVuSans-394" d="M 2188 4044 
L 906 525 
L 3472 525 
L 2188 4044 
z
M 50 0 
L 1831 4666 
L 2547 4666 
L 4325 0 
L 50 0 
z
" transform="scale(0.015625)"/>
       <path id="DejaVuSans-45" d="M 628 4666 
L 3578 4666 
L 3578 4134 
L 1259 4134 
L 1259 2753 
L 3481 2753 
L 3481 2222 
L 1259 2222 
L 1259 531 
L 3634 531 
L 3634 0 
L 628 0 
L 628 4666 
z
" transform="scale(0.015625)"/>
       <path id="DejaVuSans-56" d="M 1831 0 
L 50 4666 
L 709 4666 
L 2188 738 
L 3669 4666 
L 4325 4666 
L 2547 0 
L 1831 0 
z
" transform="scale(0.015625)"/>
      </defs>
      <use xlink:href="#DejaVuSans-394" transform="translate(0 0.09375)"/>
      <use xlink:href="#DejaVuSans-45" transform="translate(68.408203 0.09375)"/>
      <use xlink:href="#DejaVuSans-56" transform="translate(131.591797 0.09375)"/>
     </g>
     <!--  (Stategy - No strategy model) -->
     <g transform="translate(27.875875 178.548125) rotate(-90) scale(0.11 -0.11)">
      <defs>
       <path id="DejaVuSans-53" d="M 3425 4513 
L 3425 3897 
Q 3066 4069 2747 4153 
Q 2428 4238 2131 4238 
Q 1616 4238 1336 4038 
Q 1056 3838 1056 3469 
Q 1056 3159 1242 3001 
Q 1428 2844 1947 2747 
L 2328 2669 
Q 3034 2534 3370 2195 
Q 3706 1856 3706 1288 
Q 3706 609 3251 259 
Q 2797 -91 1919 -91 
Q 1588 -91 1214 -16 
Q 841 59 441 206 
L 441 856 
Q 825 641 1194 531 
Q 1563 422 1919 422 
Q 2459 422 2753 634 
Q 3047 847 3047 1241 
Q 3047 1584 2836 1778 
Q 2625 1972 2144 2069 
L 1759 2144 
Q 1053 2284 737 2584 
Q 422 2884 422 3419 
Q 422 4038 858 4394 
Q 1294 4750 2059 4750 
Q 2388 4750 2728 4690 
Q 3069 4631 3425 4513 
z
" transform="scale(0.015625)"/>
       <path id="DejaVuSans-61" d="M 2194 1759 
Q 1497 1759 1228 1600 
Q 959 1441 959 1056 
Q 959 750 1161 570 
Q 1363 391 1709 391 
Q 2188 391 2477 730 
Q 2766 1069 2766 1631 
L 2766 1759 
L 2194 1759 
z
M 3341 1997 
L 3341 0 
L 2766 0 
L 2766 531 
Q 2569 213 2275 61 
Q 1981 -91 1556 -91 
Q 1019 -91 701 211 
Q 384 513 384 1019 
Q 384 1609 779 1909 
Q 1175 2209 1959 2209 
L 2766 2209 
L 2766 2266 
Q 2766 2663 2505 2880 
Q 2244 3097 1772 3097 
Q 1472 3097 1187 3025 
Q 903 2953 641 2809 
L 641 3341 
Q 956 3463 1253 3523 
Q 1550 3584 1831 3584 
Q 2591 3584 2966 3190 
Q 3341 2797 3341 1997 
z
" transform="scale(0.015625)"/>
       <path id="DejaVuSans-67" d="M 2906 1791 
Q 2906 2416 2648 2759 
Q 2391 3103 1925 3103 
Q 1463 3103 1205 2759 
Q 947 2416 947 1791 
Q 947 1169 1205 825 
Q 1463 481 1925 481 
Q 2391 481 2648 825 
Q 2906 1169 2906 1791 
z
M 3481 434 
Q 3481 -459 3084 -895 
Q 2688 -1331 1869 -1331 
Q 1566 -1331 1297 -1286 
Q 1028 -1241 775 -1147 
L 775 -588 
Q 1028 -725 1275 -790 
Q 1522 -856 1778 -856 
Q 2344 -856 2625 -561 
Q 2906 -266 2906 331 
L 2906 616 
Q 2728 306 2450 153 
Q 2172 0 1784 0 
Q 1141 0 747 490 
Q 353 981 353 1791 
Q 353 2603 747 3093 
Q 1141 3584 1784 3584 
Q 2172 3584 2450 3431 
Q 2728 3278 2906 2969 
L 2906 3500 
L 3481 3500 
L 3481 434 
z
" transform="scale(0.015625)"/>
       <path id="DejaVuSans-79" d="M 2059 -325 
Q 1816 -950 1584 -1140 
Q 1353 -1331 966 -1331 
L 506 -1331 
L 506 -850 
L 844 -850 
Q 1081 -850 1212 -737 
Q 1344 -625 1503 -206 
L 1606 56 
L 191 3500 
L 800 3500 
L 1894 763 
L 2988 3500 
L 3597 3500 
L 2059 -325 
z
" transform="scale(0.015625)"/>
       <path id="DejaVuSans-2d" d="M 313 2009 
L 1997 2009 
L 1997 1497 
L 313 1497 
L 313 2009 
z
" transform="scale(0.015625)"/>
       <path id="DejaVuSans-4e" d="M 628 4666 
L 1478 4666 
L 3547 763 
L 3547 4666 
L 4159 4666 
L 4159 0 
L 3309 0 
L 1241 3903 
L 1241 0 
L 628 0 
L 628 4666 
z
" transform="scale(0.015625)"/>
       <path id="DejaVuSans-64" d="M 2906 2969 
L 2906 4863 
L 3481 4863 
L 3481 0 
L 2906 0 
L 2906 525 
Q 2725 213 2448 61 
Q 2172 -91 1784 -91 
Q 1150 -91 751 415 
Q 353 922 353 1747 
Q 353 2572 751 3078 
Q 1150 3584 1784 3584 
Q 2172 3584 2448 3432 
Q 2725 3281 2906 2969 
z
M 947 1747 
Q 947 1113 1208 752 
Q 1469 391 1925 391 
Q 2381 391 2643 752 
Q 2906 1113 2906 1747 
Q 2906 2381 2643 2742 
Q 2381 3103 1925 3103 
Q 1469 3103 1208 2742 
Q 947 2381 947 1747 
z
" transform="scale(0.015625)"/>
      </defs>
      <use xlink:href="#DejaVuSans-20"/>
      <use xlink:href="#DejaVuSans-28" transform="translate(31.787109 0)"/>
      <use xlink:href="#DejaVuSans-53" transform="translate(70.800781 0)"/>
      <use xlink:href="#DejaVuSans-74" transform="translate(134.277344 0)"/>
      <use xlink:href="#DejaVuSans-61" transform="translate(173.486328 0)"/>
      <use xlink:href="#DejaVuSans-74" transform="translate(234.765625 0)"/>
      <use xlink:href="#DejaVuSans-65" transform="translate(273.974609 0)"/>
      <use xlink:href="#DejaVuSans-67" transform="translate(335.498047 0)"/>
      <use xlink:href="#DejaVuSans-79" transform="translate(398.974609 0)"/>
      <use xlink:href="#DejaVuSans-20" transform="translate(458.154297 0)"/>
      <use xlink:href="#DejaVuSans-2d" transform="translate(489.941406 0)"/>
      <use xlink:href="#DejaVuSans-20" transform="translate(526.025391 0)"/>
      <use xlink:href="#DejaVuSans-4e" transform="translate(557.8125 0)"/>
      <use xlink:href="#DejaVuSans-6f" transform="translate(632.617188 0)"/>
      <use xlink:href="#DejaVuSans-20" transform="translate(693.798828 0)"/>
      <use xlink:href="#DejaVuSans-73" transform="translate(725.585938 0)"/>
      <use xlink:href="#DejaVuSans-74" transform="translate(777.685547 0)"/>
      <use xlink:href="#DejaVuSans-72" transform="translate(816.894531 0)"/>
      <use xlink:href="#DejaVuSans-61" transform="translate(858.007812 0)"/>
      <use xlink:href="#DejaVuSans-74" transform="translate(919.287109 0)"/>
      <use xlink:href="#DejaVuSans-65" transform="translate(958.496094 0)"/>
      <use xlink:href="#DejaVuSans-67" transform="translate(1020.019531 0)"/>
      <use xlink:href="#DejaVuSans-79" transform="translate(1083.496094 0)"/>
      <use xlink:href="#DejaVuSans-20" transform="translate(1142.675781 0)"/>
      <use xlink:href="#DejaVuSans-6d" transform="translate(1174.462891 0)"/>
      <use xlink:href="#DejaVuSans-6f" transform="translate(1271.875 0)"/>
      <use xlink:href="#DejaVuSans-64" transform="translate(1333.056641 0)"/>
      <use xlink:href="#DejaVuSans-65" transform="translate(1396.533203 0)"/>
      <use xlink:href="#DejaVuSans-6c" transform="translate(1458.056641 0)"/>
      <use xlink:href="#DejaVuSans-29" transform="translate(1485.839844 0)"/>
     </g>
    </g>
   </g>
   <g id="line2d_8">
    <path d="M 77.705009 153.19833 
L 78.557568 153.346274 
L 79.410127 156.076111 
L 80.262686 155.511465 
L 81.115245 152.309227 
L 81.967805 149.98119 
L 82.820364 149.719075 
L 83.672923 151.545322 
L 84.525482 152.382743 
L 85.378041 152.212218 
L 86.230601 153.954713 
L 87.08316 153.857219 
L 87.935719 152.679661 
L 88.788278 154.180437 
L 89.640837 157.039867 
L 90.493397 159.043701 
L 91.345956 159.836388 
L 92.198515 158.764396 
L 93.051074 156.868691 
L 93.903633 154.774309 
L 94.756193 155.623324 
L 95.608752 154.680987 
L 96.461311 152.927936 
L 97.31387 153.046416 
L 98.166429 151.140917 
L 99.018989 150.239847 
L 99.871548 149.106751 
L 100.724107 148.6456 
L 101.576666 148.244272 
L 102.429225 145.837862 
L 103.281785 142.187714 
L 104.134344 137.504645 
L 104.986903 131.772145 
L 105.839462 125.097831 
L 106.692022 116.573827 
L 107.544581 108.701042 
L 108.39714 101.496916 
L 109.249699 92.298231 
L 110.102258 78.121953 
L 110.954818 64.833314 
L 111.807377 57.622341 
L 112.659936 54.327338 
L 113.512495 47.314965 
L 114.365054 37.680537 
L 115.217614 37.926595 
L 116.070173 39.010458 
L 116.922732 38.268068 
L 117.775291 38.753636 
L 118.62785 42.527827 
L 119.48041 46.831965 
L 120.332969 55.870912 
L 121.185528 65.738678 
L 122.038087 76.056618 
L 122.890646 93.710464 
L 123.743206 111.997146 
L 124.595765 124.302005 
L 125.448324 134.552437 
L 126.300883 148.727513 
L 127.153442 159.448396 
L 128.006002 149.118034 
L 128.858561 131.996336 
L 129.71112 121.138221 
L 130.563679 111.632848 
L 131.416238 104.779531 
L 132.268798 101.087208 
L 133.121357 88.148721 
L 133.973916 87.311025 
L 134.826475 95.671741 
L 135.679034 96.59069 
L 136.531594 94.337383 
L 137.384153 101.754856 
L 138.236712 110.043763 
L 139.089271 117.716053 
L 139.941831 123.545883 
L 140.79439 127.483433 
L 141.646949 129.824877 
L 142.499508 131.209734 
L 143.352067 133.456654 
L 144.204627 134.764326 
L 145.057186 136.34006 
L 145.909745 136.907798 
L 146.762304 137.432259 
L 147.614863 138.708831 
L 148.467423 139.488712 
L 149.319982 139.465689 
L 150.172541 140.748127 
L 151.0251 144.835856 
L 151.877659 147.508831 
L 152.730219 146.739312 
L 153.582778 147.070583 
L 154.435337 147.716776 
L 155.287896 148.686441 
L 156.140455 149.094666 
L 156.993015 150.270252 
L 157.845574 149.184591 
L 158.698133 147.903296 
L 159.550692 145.885165 
L 160.403251 144.378774 
L 161.255811 146.770535 
L 162.10837 149.013884 
L 162.960929 147.550128 
L 163.813488 143.330107 
L 164.666047 143.581026 
L 165.518607 144.91635 
L 166.371166 146.309901 
L 167.223725 143.733347 
L 168.076284 138.432808 
L 168.928844 140.129373 
L 169.781403 142.756511 
L 170.633962 143.064275 
L 171.486521 140.920754 
L 172.33908 140.032563 
L 173.19164 140.94215 
L 174.044199 142.822726 
L 174.896758 143.059068 
L 175.749317 142.248156 
L 176.601876 140.335856 
L 177.454436 142.959617 
L 178.306995 145.195372 
L 179.159554 143.675605 
" clip-path="url(#pd9e9ce4f06)" style="fill: none; stroke: #800080; stroke-width: 2; stroke-linecap: square"/>
   </g>
   <g id="line2d_9">
    <path d="M 77.705009 160.27969 
L 78.557568 156.795763 
L 79.410127 156.22042 
L 80.262686 154.60541 
L 81.115245 159.576589 
L 81.967805 162.4329 
L 82.820364 162.215677 
L 83.672923 156.112764 
L 84.525482 154.933881 
L 85.378041 163.970523 
L 86.230601 169.288134 
L 87.08316 168.522576 
L 87.935719 168.219844 
L 88.788278 165.041193 
L 89.640837 162.061174 
L 90.493397 158.444323 
L 91.345956 157.543131 
L 92.198515 157.474834 
L 93.051074 153.792013 
L 93.903633 149.630275 
L 94.756193 148.139484 
L 95.608752 142.188426 
L 96.461311 136.74254 
L 97.31387 139.227912 
L 98.166429 140.183245 
L 99.018989 140.171396 
L 99.871548 135.895315 
L 100.724107 132.398228 
L 101.576666 125.779839 
L 102.429225 123.937572 
L 103.281785 128.70022 
L 104.134344 130.191782 
L 104.986903 129.766669 
L 105.839462 135.317332 
L 106.692022 135.225644 
L 107.544581 131.742532 
L 108.39714 133.91873 
L 109.249699 137.062043 
L 110.102258 141.811593 
L 110.954818 145.138098 
L 111.807377 148.83124 
L 112.659936 152.963107 
L 113.512495 156.10266 
L 114.365054 159.538894 
L 115.217614 161.694895 
L 116.070173 164.18086 
L 116.922732 162.841142 
L 117.775291 162.871365 
L 118.62785 159.617565 
L 119.48041 149.833972 
L 120.332969 144.73008 
L 121.185528 141.537905 
L 122.038087 137.308996 
L 122.890646 143.184054 
L 123.743206 150.707891 
L 124.595765 153.014904 
L 125.448324 148.352503 
L 126.300883 135.478269 
L 127.153442 110.908149 
L 128.006002 86.071503 
L 128.858561 78.231676 
L 129.71112 72.055964 
L 130.563679 66.197215 
L 131.416238 65.446586 
L 132.268798 73.145526 
L 133.121357 92.82798 
L 133.973916 111.122844 
L 134.826475 124.070773 
L 135.679034 130.141016 
L 136.531594 134.802179 
L 137.384153 137.338444 
L 138.236712 136.7525 
L 139.089271 132.407475 
L 139.941831 130.556673 
L 140.79439 129.234636 
L 141.646949 128.346689 
L 142.499508 129.321784 
L 143.352067 131.437022 
L 144.204627 128.67128 
L 145.057186 127.309958 
L 145.909745 125.644234 
L 146.762304 127.314115 
L 147.614863 127.688139 
L 148.467423 123.188617 
L 149.319982 119.958623 
L 150.172541 113.708935 
L 151.0251 107.320734 
L 151.877659 97.417157 
L 152.730219 101.811676 
L 153.582778 112.2671 
L 154.435337 113.22461 
L 155.287896 113.503466 
L 156.140455 123.346888 
L 156.993015 137.179621 
L 157.845574 132.050943 
L 158.698133 124.219773 
L 159.550692 136.92116 
L 160.403251 141.260879 
L 161.255811 140.199429 
L 162.10837 137.780475 
L 162.960929 136.702306 
L 163.813488 138.406656 
L 164.666047 146.460966 
L 165.518607 150.583675 
L 166.371166 152.47521 
L 167.223725 155.77114 
L 168.076284 160.520799 
L 168.928844 158.233762 
L 169.781403 157.653345 
L 170.633962 161.973382 
L 171.486521 161.104455 
L 172.33908 161.761718 
L 173.19164 161.515807 
L 174.044199 161.640993 
L 174.896758 161.774009 
L 175.749317 164.93247 
L 176.601876 166.087587 
L 177.454436 165.558889 
L 178.306995 165.257666 
L 179.159554 162.713977 
" clip-path="url(#pd9e9ce4f06)" style="fill: none; stroke: #ffa500; stroke-width: 2; stroke-linecap: square"/>
   </g>
   <g id="patch_3">
    <path d="M 72.632281 177.84 
L 72.632281 11.52 
" style="fill: none; stroke: #000000; stroke-width: 1.2; stroke-linejoin: miter; stroke-linecap: square"/>
   </g>
   <g id="patch_4">
    <path d="M 72.632281 177.84 
L 184.232281 177.84 
" style="fill: none; stroke: #000000; stroke-width: 1.2; stroke-linejoin: miter; stroke-linecap: square"/>
   </g>
  </g>
  <g id="axes_2">
   <g id="patch_5">
    <path d="M 148.232281 72 
L 191.432281 72 
L 191.432281 7.2 
L 148.232281 7.2 
L 148.232281 72 
z
" style="fill: none"/>
   </g>
   <g id="FillBetweenPolyCollection_3">
    <defs>
     <path id="me3a97a4fa7" d="M 150.195918 -176.643346 
L 150.195918 -164.260255 
L 150.525941 -164.263922 
L 150.855963 -164.329698 
L 151.185986 -164.316067 
L 151.516009 -163.931862 
L 151.846032 -163.975146 
L 152.176055 -163.816501 
L 152.506078 -163.737419 
L 152.836101 -163.626795 
L 153.166124 -163.467053 
L 153.496147 -163.443182 
L 153.82617 -162.832818 
L 154.156193 -162.859287 
L 154.486216 -162.455524 
L 154.816238 -162.319892 
L 155.146261 -162.094373 
L 155.476284 -161.734145 
L 155.806307 -161.618226 
L 156.13633 -161.467488 
L 156.466353 -161.376947 
L 156.796376 -161.359939 
L 157.126399 -161.335043 
L 157.456422 -161.063562 
L 157.786445 -160.944452 
L 158.116468 -160.511957 
L 158.446491 -160.582475 
L 158.776513 -160.448514 
L 159.106536 -160.380052 
L 159.436559 -160.407734 
L 159.766582 -160.084664 
L 160.096605 -160.267477 
L 160.426628 -160.565267 
L 160.756651 -160.547283 
L 161.086674 -160.559008 
L 161.416697 -160.499369 
L 161.74672 -160.47651 
L 162.076743 -160.295229 
L 162.406766 -160.098811 
L 162.736789 -160.166005 
L 163.066811 -160.259923 
L 163.396834 -160.305124 
L 163.726857 -160.62857 
L 164.05688 -161.113465 
L 164.386903 -161.576761 
L 164.716926 -161.63104 
L 165.046949 -161.384053 
L 165.376972 -161.67613 
L 165.706995 -161.37482 
L 166.037018 -161.526096 
L 166.367041 -161.681955 
L 166.697064 -161.650062 
L 167.027086 -162.286897 
L 167.357109 -162.724647 
L 167.687132 -163.796403 
L 168.017155 -164.193576 
L 168.347178 -163.628641 
L 168.677201 -162.959652 
L 169.007224 -162.976691 
L 169.337247 -163.475458 
L 169.66727 -163.826469 
L 169.997293 -165.25927 
L 170.327316 -166.012018 
L 170.657339 -165.682489 
L 170.987361 -165.986335 
L 171.317384 -165.533796 
L 171.647407 -165.792857 
L 171.97743 -165.104483 
L 172.307453 -165.695834 
L 172.637476 -166.429706 
L 172.967499 -166.693544 
L 173.297522 -167.448374 
L 173.627545 -167.614095 
L 173.957568 -167.692043 
L 174.287591 -168.213134 
L 174.617614 -168.887769 
L 174.947636 -168.975038 
L 175.277659 -169.296971 
L 175.607682 -169.421003 
L 175.937705 -169.0352 
L 176.267728 -170.126567 
L 176.597751 -170.496872 
L 176.927774 -170.941413 
L 177.257797 -171.5216 
L 177.58782 -172.558107 
L 177.917843 -172.189113 
L 178.247866 -172.442545 
L 178.577889 -172.429054 
L 178.907912 -171.246795 
L 179.237934 -171.402252 
L 179.567957 -170.318194 
L 179.89798 -169.57403 
L 180.228003 -169.175976 
L 180.558026 -168.994518 
L 180.888049 -169.04006 
L 181.218072 -169.239291 
L 181.548095 -169.513081 
L 181.878118 -169.219329 
L 182.208141 -169.26402 
L 182.538164 -168.589934 
L 182.868187 -168.905249 
L 183.198209 -169.391256 
L 183.528232 -169.249339 
L 183.858255 -169.586938 
L 184.188278 -169.207426 
L 184.518301 -168.981931 
L 184.848324 -168.692398 
L 185.178347 -168.645343 
L 185.50837 -168.237863 
L 185.838393 -168.177986 
L 186.168416 -168.019705 
L 186.498439 -168.142803 
L 186.828462 -167.709398 
L 187.158484 -167.405615 
L 187.488507 -167.265658 
L 187.81853 -167.445409 
L 188.148553 -167.372666 
L 188.478576 -167.705248 
L 188.808599 -167.67314 
L 189.138622 -167.249315 
L 189.468645 -167.23457 
L 189.468645 -178.074779 
L 189.468645 -178.074779 
L 189.138622 -178.338333 
L 188.808599 -179.076692 
L 188.478576 -179.262312 
L 188.148553 -178.729322 
L 187.81853 -178.57603 
L 187.488507 -178.681561 
L 187.158484 -178.786375 
L 186.828462 -179.541403 
L 186.498439 -180.217104 
L 186.168416 -180.043788 
L 185.838393 -180.385924 
L 185.50837 -180.739806 
L 185.178347 -180.897692 
L 184.848324 -180.958335 
L 184.518301 -180.845865 
L 184.188278 -181.187058 
L 183.858255 -181.734987 
L 183.528232 -181.259714 
L 183.198209 -181.309428 
L 182.868187 -181.114832 
L 182.538164 -180.969622 
L 182.208141 -181.391198 
L 181.878118 -181.022572 
L 181.548095 -180.554318 
L 181.218072 -179.842874 
L 180.888049 -179.380427 
L 180.558026 -179.088295 
L 180.228003 -178.964969 
L 179.89798 -178.662277 
L 179.567957 -178.9607 
L 179.237934 -179.401374 
L 178.907912 -179.310738 
L 178.577889 -179.706381 
L 178.247866 -179.032399 
L 177.917843 -177.206698 
L 177.58782 -176.311987 
L 177.257797 -176.393053 
L 176.927774 -175.937131 
L 176.597751 -175.541271 
L 176.267728 -175.048298 
L 175.937705 -174.909184 
L 175.607682 -175.044787 
L 175.277659 -175.182942 
L 174.947636 -175.412946 
L 174.617614 -176.106852 
L 174.287591 -176.675066 
L 173.957568 -177.506315 
L 173.627545 -178.707737 
L 173.297522 -179.69008 
L 172.967499 -180.329366 
L 172.637476 -181.211 
L 172.307453 -181.572226 
L 171.97743 -182.094104 
L 171.647407 -183.449439 
L 171.317384 -184.511962 
L 170.987361 -185.384111 
L 170.657339 -185.971024 
L 170.327316 -186.317325 
L 169.997293 -186.042344 
L 169.66727 -186.12458 
L 169.337247 -186.325535 
L 169.007224 -186.812053 
L 168.677201 -187.525698 
L 168.347178 -189.256987 
L 168.017155 -191.792721 
L 167.687132 -192.942785 
L 167.357109 -189.588982 
L 167.027086 -186.1388 
L 166.697064 -184.019964 
L 166.367041 -183.29259 
L 166.037018 -182.274068 
L 165.706995 -181.039234 
L 165.376972 -180.596729 
L 165.046949 -179.653143 
L 164.716926 -178.996624 
L 164.386903 -178.537374 
L 164.05688 -178.071461 
L 163.726857 -177.20388 
L 163.396834 -177.322569 
L 163.066811 -177.555629 
L 162.736789 -177.743269 
L 162.406766 -177.718169 
L 162.076743 -178.023367 
L 161.74672 -178.483371 
L 161.416697 -178.756474 
L 161.086674 -179.130981 
L 160.756651 -179.686985 
L 160.426628 -180.279091 
L 160.096605 -180.634396 
L 159.766582 -180.834087 
L 159.436559 -181.355276 
L 159.106536 -181.671882 
L 158.776513 -181.402587 
L 158.446491 -181.264599 
L 158.116468 -181.553546 
L 157.786445 -181.855183 
L 157.456422 -181.548216 
L 157.126399 -181.483096 
L 156.796376 -181.550705 
L 156.466353 -181.409968 
L 156.13633 -181.623882 
L 155.806307 -181.462853 
L 155.476284 -181.048386 
L 155.146261 -181.147944 
L 154.816238 -180.793355 
L 154.486216 -180.304667 
L 154.156193 -180.028313 
L 153.82617 -179.313458 
L 153.496147 -179.359299 
L 153.166124 -179.052554 
L 152.836101 -178.52178 
L 152.506078 -178.666939 
L 152.176055 -178.536199 
L 151.846032 -178.072428 
L 151.516009 -177.335552 
L 151.185986 -176.918068 
L 150.855963 -176.771463 
L 150.525941 -176.67038 
L 150.195918 -176.643346 
z
"/>
    </defs>
    <g clip-path="url(#pdba35960f6)">
     <use xlink:href="#me3a97a4fa7" x="0" y="223.049688" style="fill: #56b4e9; fill-opacity: 0.3"/>
    </g>
   </g>
   <g id="matplotlib.axis_3">
    <g id="xtick_4">
     <g id="line2d_10">
      <defs>
       <path id="m30c3a78995" d="M 0 0 
L 0 2 
" style="stroke: #000000; stroke-width: 1.4"/>
      </defs>
      <g>
       <use xlink:href="#m30c3a78995" x="150.195918" y="72" style="stroke: #000000; stroke-width: 1.4"/>
      </g>
     </g>
     <g id="text_10">
      <!-- −2 -->
      <g transform="translate(145.773261 80.559063) scale(0.06 -0.06)">
       <use xlink:href="#DejaVuSans-2212"/>
       <use xlink:href="#DejaVuSans-32" transform="translate(83.789062 0)"/>
      </g>
     </g>
    </g>
    <g id="xtick_5">
     <g id="line2d_11">
      <g>
       <use xlink:href="#m30c3a78995" x="169.997293" y="72" style="stroke: #000000; stroke-width: 1.4"/>
      </g>
     </g>
     <g id="text_11">
      <!-- 0 -->
      <g transform="translate(168.088543 80.559063) scale(0.06 -0.06)">
       <use xlink:href="#DejaVuSans-30"/>
      </g>
     </g>
    </g>
    <g id="xtick_6">
     <g id="line2d_12">
      <g>
       <use xlink:href="#m30c3a78995" x="189.798668" y="72" style="stroke: #000000; stroke-width: 1.4"/>
      </g>
     </g>
     <g id="text_12">
      <!-- 2 -->
      <g transform="translate(187.889918 80.559063) scale(0.06 -0.06)">
       <use xlink:href="#DejaVuSans-32"/>
      </g>
     </g>
    </g>
   </g>
   <g id="matplotlib.axis_4">
    <g id="ytick_5">
     <g id="line2d_13">
      <defs>
       <path id="m4c78b13c65" d="M 0 0 
L -2 0 
" style="stroke: #000000; stroke-width: 1.4"/>
      </defs>
      <g>
       <use xlink:href="#m4c78b13c65" x="148.232281" y="67.68" style="stroke: #000000; stroke-width: 1.4"/>
      </g>
     </g>
     <g id="text_13">
      <!-- 0.00 -->
      <g transform="translate(130.872906 69.959531) scale(0.06 -0.06)">
       <use xlink:href="#DejaVuSans-30"/>
       <use xlink:href="#DejaVuSans-2e" transform="translate(63.623047 0)"/>
       <use xlink:href="#DejaVuSans-30" transform="translate(95.410156 0)"/>
       <use xlink:href="#DejaVuSans-30" transform="translate(159.033203 0)"/>
      </g>
     </g>
    </g>
    <g id="ytick_6">
     <g id="line2d_14">
      <g>
       <use xlink:href="#m4c78b13c65" x="148.232281" y="50.4" style="stroke: #000000; stroke-width: 1.4"/>
      </g>
     </g>
     <g id="text_14">
      <!-- 0.01 -->
      <g transform="translate(130.872906 52.679531) scale(0.06 -0.06)">
       <use xlink:href="#DejaVuSans-30"/>
       <use xlink:href="#DejaVuSans-2e" transform="translate(63.623047 0)"/>
       <use xlink:href="#DejaVuSans-30" transform="translate(95.410156 0)"/>
       <use xlink:href="#DejaVuSans-31" transform="translate(159.033203 0)"/>
      </g>
     </g>
    </g>
    <g id="ytick_7">
     <g id="line2d_15">
      <g>
       <use xlink:href="#m4c78b13c65" x="148.232281" y="33.12" style="stroke: #000000; stroke-width: 1.4"/>
      </g>
     </g>
     <g id="text_15">
      <!-- 0.02 -->
      <g transform="translate(130.872906 35.399531) scale(0.06 -0.06)">
       <use xlink:href="#DejaVuSans-30"/>
       <use xlink:href="#DejaVuSans-2e" transform="translate(63.623047 0)"/>
       <use xlink:href="#DejaVuSans-30" transform="translate(95.410156 0)"/>
       <use xlink:href="#DejaVuSans-32" transform="translate(159.033203 0)"/>
      </g>
     </g>
    </g>
    <g id="ytick_8">
     <g id="line2d_16">
      <g>
       <use xlink:href="#m4c78b13c65" x="148.232281" y="15.84" style="stroke: #000000; stroke-width: 1.4"/>
      </g>
     </g>
     <g id="text_16">
      <!-- 0.03 -->
      <g transform="translate(130.872906 18.119531) scale(0.06 -0.06)">
       <use xlink:href="#DejaVuSans-30"/>
       <use xlink:href="#DejaVuSans-2e" transform="translate(63.623047 0)"/>
       <use xlink:href="#DejaVuSans-30" transform="translate(95.410156 0)"/>
       <use xlink:href="#DejaVuSans-33" transform="translate(159.033203 0)"/>
      </g>
     </g>
    </g>
   </g>
   <g id="line2d_17">
    <path d="M 150.195918 52.597887 
L 150.525941 52.582536 
L 150.855963 52.499107 
L 151.185986 52.43262 
L 151.516009 52.415981 
L 151.846032 52.0259 
L 152.176055 51.873337 
L 152.506078 51.847509 
L 152.836101 51.9754 
L 153.166124 51.789884 
L 153.496147 51.648447 
L 153.82617 51.976549 
L 154.156193 51.605887 
L 154.486216 51.669592 
L 154.816238 51.493064 
L 155.146261 51.428529 
L 155.476284 51.658422 
L 155.806307 51.509148 
L 156.13633 51.504002 
L 156.466353 51.65623 
L 156.796376 51.594365 
L 157.126399 51.640618 
L 157.456422 51.743798 
L 157.786445 51.64987 
L 158.116468 52.016936 
L 158.446491 52.12615 
L 158.776513 52.124137 
L 159.106536 52.023721 
L 159.436559 52.168182 
L 159.766582 52.590312 
L 160.096605 52.598751 
L 160.426628 52.627509 
L 160.756651 52.932553 
L 161.086674 53.204693 
L 161.416697 53.421766 
L 161.74672 53.569747 
L 162.076743 53.89039 
L 162.406766 54.141198 
L 162.736789 54.09505 
L 163.066811 54.141911 
L 163.396834 54.235841 
L 163.726857 54.133463 
L 164.05688 53.457225 
L 164.386903 52.99262 
L 164.716926 52.735856 
L 165.046949 52.531089 
L 165.376972 51.913258 
L 165.706995 51.842661 
L 166.037018 51.149606 
L 166.367041 50.562415 
L 166.697064 50.214675 
L 167.027086 48.836839 
L 167.357109 46.892873 
L 167.687132 44.680093 
L 168.017155 45.056539 
L 168.347178 46.606874 
L 168.677201 47.807012 
L 169.007224 48.155315 
L 169.337247 48.149191 
L 169.66727 48.074163 
L 169.997293 47.398881 
L 170.327316 46.885016 
L 170.657339 47.222931 
L 170.987361 47.364465 
L 171.317384 48.026808 
L 171.647407 48.42854 
L 171.97743 49.450394 
L 172.307453 49.415657 
L 172.637476 49.229335 
L 172.967499 49.538233 
L 173.297522 49.48046 
L 173.627545 49.888771 
L 173.957568 50.450509 
L 174.287591 50.605588 
L 174.617614 50.552377 
L 174.947636 50.855696 
L 175.277659 50.809731 
L 175.607682 50.816792 
L 175.937705 51.077495 
L 176.267728 50.462255 
L 176.597751 50.030616 
L 176.927774 49.610416 
L 177.257797 49.092361 
L 177.58782 48.61464 
L 177.917843 48.351782 
L 178.247866 47.312216 
L 178.577889 46.98197 
L 178.907912 47.770921 
L 179.237934 47.647874 
L 179.567957 48.41024 
L 179.89798 48.931534 
L 180.228003 48.979215 
L 180.558026 49.008281 
L 180.888049 48.839444 
L 181.218072 48.508605 
L 181.548095 48.015988 
L 181.878118 47.928737 
L 182.208141 47.722078 
L 182.538164 48.26991 
L 182.868187 48.039647 
L 183.198209 47.699346 
L 183.528232 47.795161 
L 183.858255 47.388725 
L 184.188278 47.852446 
L 184.518301 48.13579 
L 184.848324 48.224321 
L 185.178347 48.27817 
L 185.50837 48.560853 
L 185.838393 48.767732 
L 186.168416 49.017941 
L 186.498439 48.869734 
L 186.828462 49.424287 
L 187.158484 49.953692 
L 187.488507 50.076078 
L 187.81853 50.038968 
L 188.148553 49.998693 
L 188.478576 49.565908 
L 188.808599 49.674772 
L 189.138622 50.255864 
L 189.468645 50.395013 
" clip-path="url(#pdba35960f6)" style="fill: none; stroke: #56b4e9; stroke-width: 2; stroke-linecap: square"/>
   </g>
   <g id="patch_6">
    <path d="M 148.232281 72 
L 148.232281 7.2 
" style="fill: none; stroke: #000000; stroke-width: 1.2; stroke-linejoin: miter; stroke-linecap: square"/>
   </g>
   <g id="patch_7">
    <path d="M 148.232281 72 
L 191.432281 72 
" style="fill: none; stroke: #000000; stroke-width: 1.2; stroke-linejoin: miter; stroke-linecap: square"/>
   </g>
  </g>
 </g>
 <defs>
  <clipPath id="pd9e9ce4f06">
   <rect x="72.632281" y="11.52" width="111.6" height="166.32"/>
  </clipPath>
  <clipPath id="pdba35960f6">
   <rect x="148.232281" y="7.2" width="43.2" height="64.8"/>
  </clipPath>
 </defs>
</svg>
