<?xml version="1.0" encoding="utf-8" standalone="no"?>
<!DOCTYPE svg PUBLIC "-//W3C//DTD SVG 1.1//EN"
  "http://www.w3.org/Graphics/SVG/1.1/DTD/svg11.dtd">
<svg xmlns:xlink="http://www.w3.org/1999/xlink" width="211.727725pt" height="242.714976pt" viewBox="0 0 211.727725 242.714976" xmlns="http://www.w3.org/2000/svg" version="1.1">
 <metadata>
  <rdf:RDF xmlns:dc="http://purl.org/dc/elements/1.1/" xmlns:cc="http://creativecommons.org/ns#" xmlns:rdf="http://www.w3.org/1999/02/22-rdf-syntax-ns#">
   <cc:Work>
    <dc:type rdf:resource="http://purl.org/dc/dcmitype/StillImage"/>
    <dc:date>2025-10-01T15:06:39.248437</dc:date>
    <dc:format>image/svg+xml</dc:format>
    <dc:creator>
     <cc:Agent>
      <dc:title>Matplotlib v3.10.6, https://matplotlib.org/</dc:title>
     </cc:Agent>
    </dc:creator>
   </cc:Work>
  </rdf:RDF>
 </metadata>
 <defs>
  <style type="text/css">*{stroke-linejoin: round; stroke-linecap: butt}</style>
 </defs>
 <g id="figure_1">
  <g id="patch_1">
   <path d="M -0 242.714976 
L 211.727725 242.714976 
L 211.727725 -0 
L -0 -0 
L -0 242.714976 
z
" style="fill: none"/>
  </g>
  <g id="axes_1">
   <g id="patch_2">
    <path d="M 64.997281 173.52 
L 162.647281 173.52 
L 162.647281 7.2 
L 64.997281 7.2 
L 64.997281 173.52 
z
" style="fill: none"/>
   </g>
   <g id="PathCollection_1">
    <defs>
     <path id="m1f3393e2f2" d="M 0 0 
C 0 0 0 0 0 0 
C 0 0 0 0 0 0 
C 0 0 0 0 0 0 
C 0 0 0 0 0 0 
C 0 0 0 0 0 0 
C 0 0 0 0 0 0 
C 0 0 0 0 0 0 
C 0 0 0 0 0 0 
z
" style="stroke: #ffa500"/>
    </defs>
    <g clip-path="url(#pab9b8547d5)">
     <use xlink:href="#m1f3393e2f2" x="69.435918" y="167.901291" style="fill: #ffa500; stroke: #ffa500"/>
     <use xlink:href="#m1f3393e2f2" x="87.190463" y="98.239167" style="fill: #ffa500; stroke: #ffa500"/>
     <use xlink:href="#m1f3393e2f2" x="104.945009" y="83.605082" style="fill: #ffa500; stroke: #ffa500"/>
     <use xlink:href="#m1f3393e2f2" x="122.699554" y="18.453339" style="fill: #ffa500; stroke: #ffa500"/>
     <use xlink:href="#m1f3393e2f2" x="140.454099" y="15.12" style="fill: #ffa500; stroke: #ffa500"/>
     <use xlink:href="#m1f3393e2f2" x="158.208645" y="17.385606" style="fill: #ffa500; stroke: #ffa500"/>
    </g>
   </g>
   <g id="PathCollection_2">
    <g clip-path="url(#pab9b8547d5)">
     <use xlink:href="#m1f3393e2f2" x="69.435918" y="173.583669" style="fill: #ffa500; stroke: #ffa500"/>
     <use xlink:href="#m1f3393e2f2" x="87.190463" y="111.046585" style="fill: #ffa500; stroke: #ffa500"/>
     <use xlink:href="#m1f3393e2f2" x="104.945009" y="101.43786" style="fill: #ffa500; stroke: #ffa500"/>
     <use xlink:href="#m1f3393e2f2" x="122.699554" y="15.578663" style="fill: #ffa500; stroke: #ffa500"/>
     <use xlink:href="#m1f3393e2f2" x="140.454099" y="15.12" style="fill: #ffa500; stroke: #ffa500"/>
     <use xlink:href="#m1f3393e2f2" x="158.208645" y="15.073575" style="fill: #ffa500; stroke: #ffa500"/>
    </g>
   </g>
   <g id="PathCollection_3">
    <g clip-path="url(#pab9b8547d5)">
     <use xlink:href="#m1f3393e2f2" x="69.435918" y="170.756139" style="fill: #ffa500; stroke: #ffa500"/>
     <use xlink:href="#m1f3393e2f2" x="87.190463" y="104.936532" style="fill: #ffa500; stroke: #ffa500"/>
     <use xlink:href="#m1f3393e2f2" x="104.945009" y="94.549613" style="fill: #ffa500; stroke: #ffa500"/>
     <use xlink:href="#m1f3393e2f2" x="122.699554" y="16.82773" style="fill: #ffa500; stroke: #ffa500"/>
     <use xlink:href="#m1f3393e2f2" x="140.454099" y="15.12" style="fill: #ffa500; stroke: #ffa500"/>
     <use xlink:href="#m1f3393e2f2" x="158.208645" y="15.283305" style="fill: #ffa500; stroke: #ffa500"/>
    </g>
   </g>
   <g id="PathCollection_4">
    <g clip-path="url(#pab9b8547d5)">
     <use xlink:href="#m1f3393e2f2" x="69.435918" y="161.673009" style="fill: #ffa500; stroke: #ffa500"/>
     <use xlink:href="#m1f3393e2f2" x="87.190463" y="127.521876" style="fill: #ffa500; stroke: #ffa500"/>
     <use xlink:href="#m1f3393e2f2" x="104.945009" y="115.082268" style="fill: #ffa500; stroke: #ffa500"/>
     <use xlink:href="#m1f3393e2f2" x="122.699554" y="19.779238" style="fill: #ffa500; stroke: #ffa500"/>
     <use xlink:href="#m1f3393e2f2" x="140.454099" y="15.12" style="fill: #ffa500; stroke: #ffa500"/>
     <use xlink:href="#m1f3393e2f2" x="158.208645" y="28.369465" style="fill: #ffa500; stroke: #ffa500"/>
    </g>
   </g>
   <g id="PathCollection_5">
    <defs>
     <path id="mcebb9ec52b" d="M 0 0 
C 0 0 0 0 0 0 
C 0 0 0 0 0 0 
C 0 0 0 0 0 0 
C 0 0 0 0 0 0 
C 0 0 0 0 0 0 
C 0 0 0 0 0 0 
C 0 0 0 0 0 0 
C 0 0 0 0 0 0 
z
" style="stroke: #800080"/>
    </defs>
    <g clip-path="url(#pab9b8547d5)">
     <use xlink:href="#mcebb9ec52b" x="69.435918" y="95.805425" style="fill: #800080; stroke: #800080"/>
     <use xlink:href="#mcebb9ec52b" x="87.190463" y="26.12082" style="fill: #800080; stroke: #800080"/>
     <use xlink:href="#mcebb9ec52b" x="104.945009" y="20.231149" style="fill: #800080; stroke: #800080"/>
     <use xlink:href="#mcebb9ec52b" x="122.699554" y="18.677092" style="fill: #800080; stroke: #800080"/>
     <use xlink:href="#mcebb9ec52b" x="140.454099" y="15.12" style="fill: #800080; stroke: #800080"/>
     <use xlink:href="#mcebb9ec52b" x="158.208645" y="69.673789" style="fill: #800080; stroke: #800080"/>
    </g>
   </g>
   <g id="PathCollection_6">
    <g clip-path="url(#pab9b8547d5)">
     <use xlink:href="#mcebb9ec52b" x="69.435918" y="85.812271" style="fill: #800080; stroke: #800080"/>
     <use xlink:href="#mcebb9ec52b" x="87.190463" y="21.394398" style="fill: #800080; stroke: #800080"/>
     <use xlink:href="#mcebb9ec52b" x="104.945009" y="17.259871" style="fill: #800080; stroke: #800080"/>
     <use xlink:href="#mcebb9ec52b" x="122.699554" y="16.295597" style="fill: #800080; stroke: #800080"/>
     <use xlink:href="#mcebb9ec52b" x="140.454099" y="15.12" style="fill: #800080; stroke: #800080"/>
     <use xlink:href="#mcebb9ec52b" x="158.208645" y="80.881307" style="fill: #800080; stroke: #800080"/>
    </g>
   </g>
   <g id="PathCollection_7">
    <g clip-path="url(#pab9b8547d5)">
     <use xlink:href="#mcebb9ec52b" x="69.435918" y="116.978069" style="fill: #800080; stroke: #800080"/>
     <use xlink:href="#mcebb9ec52b" x="87.190463" y="28.974222" style="fill: #800080; stroke: #800080"/>
     <use xlink:href="#mcebb9ec52b" x="104.945009" y="18.587743" style="fill: #800080; stroke: #800080"/>
     <use xlink:href="#mcebb9ec52b" x="122.699554" y="16.722987" style="fill: #800080; stroke: #800080"/>
     <use xlink:href="#mcebb9ec52b" x="140.454099" y="15.12" style="fill: #800080; stroke: #800080"/>
     <use xlink:href="#mcebb9ec52b" x="158.208645" y="60.373045" style="fill: #800080; stroke: #800080"/>
    </g>
   </g>
   <g id="PathCollection_8">
    <g clip-path="url(#pab9b8547d5)">
     <use xlink:href="#mcebb9ec52b" x="69.435918" y="118.415188" style="fill: #800080; stroke: #800080"/>
     <use xlink:href="#mcebb9ec52b" x="87.190463" y="30.435635" style="fill: #800080; stroke: #800080"/>
     <use xlink:href="#mcebb9ec52b" x="104.945009" y="17.97197" style="fill: #800080; stroke: #800080"/>
     <use xlink:href="#mcebb9ec52b" x="122.699554" y="15.717784" style="fill: #800080; stroke: #800080"/>
     <use xlink:href="#mcebb9ec52b" x="140.454099" y="15.12" style="fill: #800080; stroke: #800080"/>
     <use xlink:href="#mcebb9ec52b" x="158.208645" y="49.883002" style="fill: #800080; stroke: #800080"/>
    </g>
   </g>
   <g id="PathCollection_9">
    <g clip-path="url(#pab9b8547d5)">
     <use xlink:href="#mcebb9ec52b" x="69.435918" y="96.279564" style="fill: #800080; stroke: #800080"/>
     <use xlink:href="#mcebb9ec52b" x="87.190463" y="27.00099" style="fill: #800080; stroke: #800080"/>
     <use xlink:href="#mcebb9ec52b" x="104.945009" y="17.821684" style="fill: #800080; stroke: #800080"/>
     <use xlink:href="#mcebb9ec52b" x="122.699554" y="16.798804" style="fill: #800080; stroke: #800080"/>
     <use xlink:href="#mcebb9ec52b" x="140.454099" y="15.12" style="fill: #800080; stroke: #800080"/>
     <use xlink:href="#mcebb9ec52b" x="158.208645" y="56.236392" style="fill: #800080; stroke: #800080"/>
    </g>
   </g>
   <g id="matplotlib.axis_1">
    <g id="xtick_1">
     <g id="line2d_1">
      <defs>
       <path id="mb743ff755a" d="M 0 0 
L 0 8.25 
" style="stroke: #000000; stroke-width: 1.4"/>
      </defs>
      <g>
       <use xlink:href="#mb743ff755a" x="69.435918" y="173.52" style="stroke: #000000; stroke-width: 1.4"/>
      </g>
     </g>
     <g id="text_1">
      <!-- P -->
      <g transform="translate(64.641804 192.116703) rotate(-325) scale(0.11 -0.11)">
       <defs>
        <path id="DejaVuSans-50" d="M 1259 4147 
L 1259 2394 
L 2053 2394 
Q 2494 2394 2734 2622 
Q 2975 2850 2975 3272 
Q 2975 3691 2734 3919 
Q 2494 4147 2053 4147 
L 1259 4147 
z
M 628 4666 
L 2053 4666 
Q 2838 4666 3239 4311 
Q 3641 3956 3641 3272 
Q 3641 2581 3239 2228 
Q 2838 1875 2053 1875 
L 1259 1875 
L 1259 0 
L 628 0 
L 628 4666 
z
" transform="scale(0.015625)"/>
       </defs>
       <use xlink:href="#DejaVuSans-50"/>
      </g>
     </g>
    </g>
    <g id="xtick_2">
     <g id="line2d_2">
      <g>
       <use xlink:href="#mb743ff755a" x="87.190463" y="173.52" style="stroke: #000000; stroke-width: 1.4"/>
      </g>
     </g>
     <g id="text_2">
      <!-- P+T -->
      <g transform="translate(82.39635 192.116703) rotate(-325) scale(0.11 -0.11)">
       <defs>
        <path id="DejaVuSans-2b" d="M 2944 4013 
L 2944 2272 
L 4684 2272 
L 4684 1741 
L 2944 1741 
L 2944 0 
L 2419 0 
L 2419 1741 
L 678 1741 
L 678 2272 
L 2419 2272 
L 2419 4013 
L 2944 4013 
z
" transform="scale(0.015625)"/>
        <path id="DejaVuSans-54" d="M -19 4666 
L 3928 4666 
L 3928 4134 
L 2272 4134 
L 2272 0 
L 1638 0 
L 1638 4134 
L -19 4134 
L -19 4666 
z
" transform="scale(0.015625)"/>
       </defs>
       <use xlink:href="#DejaVuSans-50"/>
       <use xlink:href="#DejaVuSans-2b" transform="translate(60.302734 0)"/>
       <use xlink:href="#DejaVuSans-54" transform="translate(144.091797 0)"/>
      </g>
     </g>
    </g>
    <g id="xtick_3">
     <g id="line2d_3">
      <g>
       <use xlink:href="#mb743ff755a" x="104.945009" y="173.52" style="stroke: #000000; stroke-width: 1.4"/>
      </g>
     </g>
     <g id="text_3">
      <!-- P+T+B -->
      <g transform="translate(100.150895 192.116703) rotate(-325) scale(0.11 -0.11)">
       <defs>
        <path id="DejaVuSans-42" d="M 1259 2228 
L 1259 519 
L 2272 519 
Q 2781 519 3026 730 
Q 3272 941 3272 1375 
Q 3272 1813 3026 2020 
Q 2781 2228 2272 2228 
L 1259 2228 
z
M 1259 4147 
L 1259 2741 
L 2194 2741 
Q 2656 2741 2882 2914 
Q 3109 3088 3109 3444 
Q 3109 3797 2882 3972 
Q 2656 4147 2194 4147 
L 1259 4147 
z
M 628 4666 
L 2241 4666 
Q 2963 4666 3353 4366 
Q 3744 4066 3744 3513 
Q 3744 3084 3544 2831 
Q 3344 2578 2956 2516 
Q 3422 2416 3680 2098 
Q 3938 1781 3938 1306 
Q 3938 681 3513 340 
Q 3088 0 2303 0 
L 628 0 
L 628 4666 
z
" transform="scale(0.015625)"/>
       </defs>
       <use xlink:href="#DejaVuSans-50"/>
       <use xlink:href="#DejaVuSans-2b" transform="translate(60.302734 0)"/>
       <use xlink:href="#DejaVuSans-54" transform="translate(144.091797 0)"/>
       <use xlink:href="#DejaVuSans-2b" transform="translate(205.175781 0)"/>
       <use xlink:href="#DejaVuSans-42" transform="translate(288.964844 0)"/>
      </g>
     </g>
    </g>
    <g id="xtick_4">
     <g id="line2d_4">
      <g>
       <use xlink:href="#mb743ff755a" x="122.699554" y="173.52" style="stroke: #000000; stroke-width: 1.4"/>
      </g>
     </g>
     <g id="text_4">
      <!-- P+T+B+R -->
      <g transform="translate(117.905441 192.116703) rotate(-325) scale(0.11 -0.11)">
       <defs>
        <path id="DejaVuSans-52" d="M 2841 2188 
Q 3044 2119 3236 1894 
Q 3428 1669 3622 1275 
L 4263 0 
L 3584 0 
L 2988 1197 
Q 2756 1666 2539 1819 
Q 2322 1972 1947 1972 
L 1259 1972 
L 1259 0 
L 628 0 
L 628 4666 
L 2053 4666 
Q 2853 4666 3247 4331 
Q 3641 3997 3641 3322 
Q 3641 2881 3436 2590 
Q 3231 2300 2841 2188 
z
M 1259 4147 
L 1259 2491 
L 2053 2491 
Q 2509 2491 2742 2702 
Q 2975 2913 2975 3322 
Q 2975 3731 2742 3939 
Q 2509 4147 2053 4147 
L 1259 4147 
z
" transform="scale(0.015625)"/>
       </defs>
       <use xlink:href="#DejaVuSans-50"/>
       <use xlink:href="#DejaVuSans-2b" transform="translate(60.302734 0)"/>
       <use xlink:href="#DejaVuSans-54" transform="translate(144.091797 0)"/>
       <use xlink:href="#DejaVuSans-2b" transform="translate(205.175781 0)"/>
       <use xlink:href="#DejaVuSans-42" transform="translate(288.964844 0)"/>
       <use xlink:href="#DejaVuSans-2b" transform="translate(357.568359 0)"/>
       <use xlink:href="#DejaVuSans-52" transform="translate(441.357422 0)"/>
      </g>
     </g>
    </g>
    <g id="xtick_5">
     <g id="line2d_5">
      <g>
       <use xlink:href="#mb743ff755a" x="140.454099" y="173.52" style="stroke: #000000; stroke-width: 1.4"/>
      </g>
     </g>
     <g id="text_5">
      <!-- P+T+B+R+S -->
      <g transform="translate(135.659986 192.116703) rotate(-325) scale(0.11 -0.11)">
       <defs>
        <path id="DejaVuSans-53" d="M 3425 4513 
L 3425 3897 
Q 3066 4069 2747 4153 
Q 2428 4238 2131 4238 
Q 1616 4238 1336 4038 
Q 1056 3838 1056 3469 
Q 1056 3159 1242 3001 
Q 1428 2844 1947 2747 
L 2328 2669 
Q 3034 2534 3370 2195 
Q 3706 1856 3706 1288 
Q 3706 609 3251 259 
Q 2797 -91 1919 -91 
Q 1588 -91 1214 -16 
Q 841 59 441 206 
L 441 856 
Q 825 641 1194 531 
Q 1563 422 1919 422 
Q 2459 422 2753 634 
Q 3047 847 3047 1241 
Q 3047 1584 2836 1778 
Q 2625 1972 2144 2069 
L 1759 2144 
Q 1053 2284 737 2584 
Q 422 2884 422 3419 
Q 422 4038 858 4394 
Q 1294 4750 2059 4750 
Q 2388 4750 2728 4690 
Q 3069 4631 3425 4513 
z
" transform="scale(0.015625)"/>
       </defs>
       <use xlink:href="#DejaVuSans-50"/>
       <use xlink:href="#DejaVuSans-2b" transform="translate(60.302734 0)"/>
       <use xlink:href="#DejaVuSans-54" transform="translate(144.091797 0)"/>
       <use xlink:href="#DejaVuSans-2b" transform="translate(205.175781 0)"/>
       <use xlink:href="#DejaVuSans-42" transform="translate(288.964844 0)"/>
       <use xlink:href="#DejaVuSans-2b" transform="translate(357.568359 0)"/>
       <use xlink:href="#DejaVuSans-52" transform="translate(441.357422 0)"/>
       <use xlink:href="#DejaVuSans-2b" transform="translate(510.839844 0)"/>
       <use xlink:href="#DejaVuSans-53" transform="translate(594.628906 0)"/>
      </g>
     </g>
    </g>
    <g id="xtick_6">
     <g id="line2d_6">
      <g>
       <use xlink:href="#mb743ff755a" x="158.208645" y="173.52" style="stroke: #000000; stroke-width: 1.4"/>
      </g>
     </g>
     <g id="text_6">
      <!-- T+B+R+S -->
      <g transform="translate(153.414532 192.116703) rotate(-325) scale(0.11 -0.11)">
       <use xlink:href="#DejaVuSans-54"/>
       <use xlink:href="#DejaVuSans-2b" transform="translate(61.083984 0)"/>
       <use xlink:href="#DejaVuSans-42" transform="translate(144.873047 0)"/>
       <use xlink:href="#DejaVuSans-2b" transform="translate(213.476562 0)"/>
       <use xlink:href="#DejaVuSans-52" transform="translate(297.265625 0)"/>
       <use xlink:href="#DejaVuSans-2b" transform="translate(366.748047 0)"/>
       <use xlink:href="#DejaVuSans-53" transform="translate(450.537109 0)"/>
      </g>
     </g>
    </g>
   </g>
   <g id="matplotlib.axis_2">
    <g id="ytick_1">
     <g id="line2d_7">
      <defs>
       <path id="ma194912994" d="M 0 0 
L -8.25 0 
" style="stroke: #000000; stroke-width: 1.4"/>
      </defs>
      <g>
       <use xlink:href="#ma194912994" x="64.997281" y="173.52" style="stroke: #000000; stroke-width: 1.4"/>
      </g>
     </g>
     <g id="text_7">
      <!-- 0.0 -->
      <g transform="translate(34.163531 178.079062) scale(0.12 -0.12)">
       <defs>
        <path id="DejaVuSans-30" d="M 2034 4250 
Q 1547 4250 1301 3770 
Q 1056 3291 1056 2328 
Q 1056 1369 1301 889 
Q 1547 409 2034 409 
Q 2525 409 2770 889 
Q 3016 1369 3016 2328 
Q 3016 3291 2770 3770 
Q 2525 4250 2034 4250 
z
M 2034 4750 
Q 2819 4750 3233 4129 
Q 3647 3509 3647 2328 
Q 3647 1150 3233 529 
Q 2819 -91 2034 -91 
Q 1250 -91 836 529 
Q 422 1150 422 2328 
Q 422 3509 836 4129 
Q 1250 4750 2034 4750 
z
" transform="scale(0.015625)"/>
        <path id="DejaVuSans-2e" d="M 684 794 
L 1344 794 
L 1344 0 
L 684 0 
L 684 794 
z
" transform="scale(0.015625)"/>
       </defs>
       <use xlink:href="#DejaVuSans-30"/>
       <use xlink:href="#DejaVuSans-2e" transform="translate(63.623047 0)"/>
       <use xlink:href="#DejaVuSans-30" transform="translate(95.410156 0)"/>
      </g>
     </g>
    </g>
    <g id="ytick_2">
     <g id="line2d_8">
      <g>
       <use xlink:href="#ma194912994" x="64.997281" y="141.84" style="stroke: #000000; stroke-width: 1.4"/>
      </g>
     </g>
     <g id="text_8">
      <!-- 0.2 -->
      <g transform="translate(34.163531 146.399063) scale(0.12 -0.12)">
       <defs>
        <path id="DejaVuSans-32" d="M 1228 531 
L 3431 531 
L 3431 0 
L 469 0 
L 469 531 
Q 828 903 1448 1529 
Q 2069 2156 2228 2338 
Q 2531 2678 2651 2914 
Q 2772 3150 2772 3378 
Q 2772 3750 2511 3984 
Q 2250 4219 1831 4219 
Q 1534 4219 1204 4116 
Q 875 4013 500 3803 
L 500 4441 
Q 881 4594 1212 4672 
Q 1544 4750 1819 4750 
Q 2544 4750 2975 4387 
Q 3406 4025 3406 3419 
Q 3406 3131 3298 2873 
Q 3191 2616 2906 2266 
Q 2828 2175 2409 1742 
Q 1991 1309 1228 531 
z
" transform="scale(0.015625)"/>
       </defs>
       <use xlink:href="#DejaVuSans-30"/>
       <use xlink:href="#DejaVuSans-2e" transform="translate(63.623047 0)"/>
       <use xlink:href="#DejaVuSans-32" transform="translate(95.410156 0)"/>
      </g>
     </g>
    </g>
    <g id="ytick_3">
     <g id="line2d_9">
      <g>
       <use xlink:href="#ma194912994" x="64.997281" y="110.16" style="stroke: #000000; stroke-width: 1.4"/>
      </g>
     </g>
     <g id="text_9">
      <!-- 0.4 -->
      <g transform="translate(34.163531 114.719062) scale(0.12 -0.12)">
       <defs>
        <path id="DejaVuSans-34" d="M 2419 4116 
L 825 1625 
L 2419 1625 
L 2419 4116 
z
M 2253 4666 
L 3047 4666 
L 3047 1625 
L 3713 1625 
L 3713 1100 
L 3047 1100 
L 3047 0 
L 2419 0 
L 2419 1100 
L 313 1100 
L 313 1709 
L 2253 4666 
z
" transform="scale(0.015625)"/>
       </defs>
       <use xlink:href="#DejaVuSans-30"/>
       <use xlink:href="#DejaVuSans-2e" transform="translate(63.623047 0)"/>
       <use xlink:href="#DejaVuSans-34" transform="translate(95.410156 0)"/>
      </g>
     </g>
    </g>
    <g id="ytick_4">
     <g id="line2d_10">
      <g>
       <use xlink:href="#ma194912994" x="64.997281" y="78.48" style="stroke: #000000; stroke-width: 1.4"/>
      </g>
     </g>
     <g id="text_10">
      <!-- 0.6 -->
      <g transform="translate(34.163531 83.039062) scale(0.12 -0.12)">
       <defs>
        <path id="DejaVuSans-36" d="M 2113 2584 
Q 1688 2584 1439 2293 
Q 1191 2003 1191 1497 
Q 1191 994 1439 701 
Q 1688 409 2113 409 
Q 2538 409 2786 701 
Q 3034 994 3034 1497 
Q 3034 2003 2786 2293 
Q 2538 2584 2113 2584 
z
M 3366 4563 
L 3366 3988 
Q 3128 4100 2886 4159 
Q 2644 4219 2406 4219 
Q 1781 4219 1451 3797 
Q 1122 3375 1075 2522 
Q 1259 2794 1537 2939 
Q 1816 3084 2150 3084 
Q 2853 3084 3261 2657 
Q 3669 2231 3669 1497 
Q 3669 778 3244 343 
Q 2819 -91 2113 -91 
Q 1303 -91 875 529 
Q 447 1150 447 2328 
Q 447 3434 972 4092 
Q 1497 4750 2381 4750 
Q 2619 4750 2861 4703 
Q 3103 4656 3366 4563 
z
" transform="scale(0.015625)"/>
       </defs>
       <use xlink:href="#DejaVuSans-30"/>
       <use xlink:href="#DejaVuSans-2e" transform="translate(63.623047 0)"/>
       <use xlink:href="#DejaVuSans-36" transform="translate(95.410156 0)"/>
      </g>
     </g>
    </g>
    <g id="ytick_5">
     <g id="line2d_11">
      <g>
       <use xlink:href="#ma194912994" x="64.997281" y="46.8" style="stroke: #000000; stroke-width: 1.4"/>
      </g>
     </g>
     <g id="text_11">
      <!-- 0.8 -->
      <g transform="translate(34.163531 51.359063) scale(0.12 -0.12)">
       <defs>
        <path id="DejaVuSans-38" d="M 2034 2216 
Q 1584 2216 1326 1975 
Q 1069 1734 1069 1313 
Q 1069 891 1326 650 
Q 1584 409 2034 409 
Q 2484 409 2743 651 
Q 3003 894 3003 1313 
Q 3003 1734 2745 1975 
Q 2488 2216 2034 2216 
z
M 1403 2484 
Q 997 2584 770 2862 
Q 544 3141 544 3541 
Q 544 4100 942 4425 
Q 1341 4750 2034 4750 
Q 2731 4750 3128 4425 
Q 3525 4100 3525 3541 
Q 3525 3141 3298 2862 
Q 3072 2584 2669 2484 
Q 3125 2378 3379 2068 
Q 3634 1759 3634 1313 
Q 3634 634 3220 271 
Q 2806 -91 2034 -91 
Q 1263 -91 848 271 
Q 434 634 434 1313 
Q 434 1759 690 2068 
Q 947 2378 1403 2484 
z
M 1172 3481 
Q 1172 3119 1398 2916 
Q 1625 2713 2034 2713 
Q 2441 2713 2670 2916 
Q 2900 3119 2900 3481 
Q 2900 3844 2670 4047 
Q 2441 4250 2034 4250 
Q 1625 4250 1398 4047 
Q 1172 3844 1172 3481 
z
" transform="scale(0.015625)"/>
       </defs>
       <use xlink:href="#DejaVuSans-30"/>
       <use xlink:href="#DejaVuSans-2e" transform="translate(63.623047 0)"/>
       <use xlink:href="#DejaVuSans-38" transform="translate(95.410156 0)"/>
      </g>
     </g>
    </g>
    <g id="ytick_6">
     <g id="line2d_12">
      <g>
       <use xlink:href="#ma194912994" x="64.997281" y="15.12" style="stroke: #000000; stroke-width: 1.4"/>
      </g>
     </g>
     <g id="text_12">
      <!-- 1.0 -->
      <g transform="translate(34.163531 19.679063) scale(0.12 -0.12)">
       <defs>
        <path id="DejaVuSans-31" d="M 794 531 
L 1825 531 
L 1825 4091 
L 703 3866 
L 703 4441 
L 1819 4666 
L 2450 4666 
L 2450 531 
L 3481 531 
L 3481 0 
L 794 0 
L 794 531 
z
" transform="scale(0.015625)"/>
       </defs>
       <use xlink:href="#DejaVuSans-31"/>
       <use xlink:href="#DejaVuSans-2e" transform="translate(63.623047 0)"/>
       <use xlink:href="#DejaVuSans-30" transform="translate(95.410156 0)"/>
      </g>
     </g>
    </g>
    <g id="text_13">
     <!-- Explained variance  -->
     <g transform="translate(15.558281 144.545313) rotate(-90) scale(0.11 -0.11)">
      <defs>
       <path id="DejaVuSans-45" d="M 628 4666 
L 3578 4666 
L 3578 4134 
L 1259 4134 
L 1259 2753 
L 3481 2753 
L 3481 2222 
L 1259 2222 
L 1259 531 
L 3634 531 
L 3634 0 
L 628 0 
L 628 4666 
z
" transform="scale(0.015625)"/>
       <path id="DejaVuSans-78" d="M 3513 3500 
L 2247 1797 
L 3578 0 
L 2900 0 
L 1881 1375 
L 863 0 
L 184 0 
L 1544 1831 
L 300 3500 
L 978 3500 
L 1906 2253 
L 2834 3500 
L 3513 3500 
z
" transform="scale(0.015625)"/>
       <path id="DejaVuSans-70" d="M 1159 525 
L 1159 -1331 
L 581 -1331 
L 581 3500 
L 1159 3500 
L 1159 2969 
Q 1341 3281 1617 3432 
Q 1894 3584 2278 3584 
Q 2916 3584 3314 3078 
Q 3713 2572 3713 1747 
Q 3713 922 3314 415 
Q 2916 -91 2278 -91 
Q 1894 -91 1617 61 
Q 1341 213 1159 525 
z
M 3116 1747 
Q 3116 2381 2855 2742 
Q 2594 3103 2138 3103 
Q 1681 3103 1420 2742 
Q 1159 2381 1159 1747 
Q 1159 1113 1420 752 
Q 1681 391 2138 391 
Q 2594 391 2855 752 
Q 3116 1113 3116 1747 
z
" transform="scale(0.015625)"/>
       <path id="DejaVuSans-6c" d="M 603 4863 
L 1178 4863 
L 1178 0 
L 603 0 
L 603 4863 
z
" transform="scale(0.015625)"/>
       <path id="DejaVuSans-61" d="M 2194 1759 
Q 1497 1759 1228 1600 
Q 959 1441 959 1056 
Q 959 750 1161 570 
Q 1363 391 1709 391 
Q 2188 391 2477 730 
Q 2766 1069 2766 1631 
L 2766 1759 
L 2194 1759 
z
M 3341 1997 
L 3341 0 
L 2766 0 
L 2766 531 
Q 2569 213 2275 61 
Q 1981 -91 1556 -91 
Q 1019 -91 701 211 
Q 384 513 384 1019 
Q 384 1609 779 1909 
Q 1175 2209 1959 2209 
L 2766 2209 
L 2766 2266 
Q 2766 2663 2505 2880 
Q 2244 3097 1772 3097 
Q 1472 3097 1187 3025 
Q 903 2953 641 2809 
L 641 3341 
Q 956 3463 1253 3523 
Q 1550 3584 1831 3584 
Q 2591 3584 2966 3190 
Q 3341 2797 3341 1997 
z
" transform="scale(0.015625)"/>
       <path id="DejaVuSans-69" d="M 603 3500 
L 1178 3500 
L 1178 0 
L 603 0 
L 603 3500 
z
M 603 4863 
L 1178 4863 
L 1178 4134 
L 603 4134 
L 603 4863 
z
" transform="scale(0.015625)"/>
       <path id="DejaVuSans-6e" d="M 3513 2113 
L 3513 0 
L 2938 0 
L 2938 2094 
Q 2938 2591 2744 2837 
Q 2550 3084 2163 3084 
Q 1697 3084 1428 2787 
Q 1159 2491 1159 1978 
L 1159 0 
L 581 0 
L 581 3500 
L 1159 3500 
L 1159 2956 
Q 1366 3272 1645 3428 
Q 1925 3584 2291 3584 
Q 2894 3584 3203 3211 
Q 3513 2838 3513 2113 
z
" transform="scale(0.015625)"/>
       <path id="DejaVuSans-65" d="M 3597 1894 
L 3597 1613 
L 953 1613 
Q 991 1019 1311 708 
Q 1631 397 2203 397 
Q 2534 397 2845 478 
Q 3156 559 3463 722 
L 3463 178 
Q 3153 47 2828 -22 
Q 2503 -91 2169 -91 
Q 1331 -91 842 396 
Q 353 884 353 1716 
Q 353 2575 817 3079 
Q 1281 3584 2069 3584 
Q 2775 3584 3186 3129 
Q 3597 2675 3597 1894 
z
M 3022 2063 
Q 3016 2534 2758 2815 
Q 2500 3097 2075 3097 
Q 1594 3097 1305 2825 
Q 1016 2553 972 2059 
L 3022 2063 
z
" transform="scale(0.015625)"/>
       <path id="DejaVuSans-64" d="M 2906 2969 
L 2906 4863 
L 3481 4863 
L 3481 0 
L 2906 0 
L 2906 525 
Q 2725 213 2448 61 
Q 2172 -91 1784 -91 
Q 1150 -91 751 415 
Q 353 922 353 1747 
Q 353 2572 751 3078 
Q 1150 3584 1784 3584 
Q 2172 3584 2448 3432 
Q 2725 3281 2906 2969 
z
M 947 1747 
Q 947 1113 1208 752 
Q 1469 391 1925 391 
Q 2381 391 2643 752 
Q 2906 1113 2906 1747 
Q 2906 2381 2643 2742 
Q 2381 3103 1925 3103 
Q 1469 3103 1208 2742 
Q 947 2381 947 1747 
z
" transform="scale(0.015625)"/>
       <path id="DejaVuSans-20" transform="scale(0.015625)"/>
       <path id="DejaVuSans-76" d="M 191 3500 
L 800 3500 
L 1894 563 
L 2988 3500 
L 3597 3500 
L 2284 0 
L 1503 0 
L 191 3500 
z
" transform="scale(0.015625)"/>
       <path id="DejaVuSans-72" d="M 2631 2963 
Q 2534 3019 2420 3045 
Q 2306 3072 2169 3072 
Q 1681 3072 1420 2755 
Q 1159 2438 1159 1844 
L 1159 0 
L 581 0 
L 581 3500 
L 1159 3500 
L 1159 2956 
Q 1341 3275 1631 3429 
Q 1922 3584 2338 3584 
Q 2397 3584 2469 3576 
Q 2541 3569 2628 3553 
L 2631 2963 
z
" transform="scale(0.015625)"/>
       <path id="DejaVuSans-63" d="M 3122 3366 
L 3122 2828 
Q 2878 2963 2633 3030 
Q 2388 3097 2138 3097 
Q 1578 3097 1268 2742 
Q 959 2388 959 1747 
Q 959 1106 1268 751 
Q 1578 397 2138 397 
Q 2388 397 2633 464 
Q 2878 531 3122 666 
L 3122 134 
Q 2881 22 2623 -34 
Q 2366 -91 2075 -91 
Q 1284 -91 818 406 
Q 353 903 353 1747 
Q 353 2603 823 3093 
Q 1294 3584 2113 3584 
Q 2378 3584 2631 3529 
Q 2884 3475 3122 3366 
z
" transform="scale(0.015625)"/>
      </defs>
      <use xlink:href="#DejaVuSans-45"/>
      <use xlink:href="#DejaVuSans-78" transform="translate(63.183594 0)"/>
      <use xlink:href="#DejaVuSans-70" transform="translate(122.363281 0)"/>
      <use xlink:href="#DejaVuSans-6c" transform="translate(185.839844 0)"/>
      <use xlink:href="#DejaVuSans-61" transform="translate(213.623047 0)"/>
      <use xlink:href="#DejaVuSans-69" transform="translate(274.902344 0)"/>
      <use xlink:href="#DejaVuSans-6e" transform="translate(302.685547 0)"/>
      <use xlink:href="#DejaVuSans-65" transform="translate(366.064453 0)"/>
      <use xlink:href="#DejaVuSans-64" transform="translate(427.587891 0)"/>
      <use xlink:href="#DejaVuSans-20" transform="translate(491.064453 0)"/>
      <use xlink:href="#DejaVuSans-76" transform="translate(522.851562 0)"/>
      <use xlink:href="#DejaVuSans-61" transform="translate(582.03125 0)"/>
      <use xlink:href="#DejaVuSans-72" transform="translate(643.310547 0)"/>
      <use xlink:href="#DejaVuSans-69" transform="translate(684.423828 0)"/>
      <use xlink:href="#DejaVuSans-61" transform="translate(712.207031 0)"/>
      <use xlink:href="#DejaVuSans-6e" transform="translate(773.486328 0)"/>
      <use xlink:href="#DejaVuSans-63" transform="translate(836.865234 0)"/>
      <use xlink:href="#DejaVuSans-65" transform="translate(891.845703 0)"/>
      <use xlink:href="#DejaVuSans-20" transform="translate(953.369141 0)"/>
     </g>
     <!--  rel. full model -->
     <g transform="translate(27.875875 130.005547) rotate(-90) scale(0.11 -0.11)">
      <defs>
       <path id="DejaVuSans-66" d="M 2375 4863 
L 2375 4384 
L 1825 4384 
Q 1516 4384 1395 4259 
Q 1275 4134 1275 3809 
L 1275 3500 
L 2222 3500 
L 2222 3053 
L 1275 3053 
L 1275 0 
L 697 0 
L 697 3053 
L 147 3053 
L 147 3500 
L 697 3500 
L 697 3744 
Q 697 4328 969 4595 
Q 1241 4863 1831 4863 
L 2375 4863 
z
" transform="scale(0.015625)"/>
       <path id="DejaVuSans-75" d="M 544 1381 
L 544 3500 
L 1119 3500 
L 1119 1403 
Q 1119 906 1312 657 
Q 1506 409 1894 409 
Q 2359 409 2629 706 
Q 2900 1003 2900 1516 
L 2900 3500 
L 3475 3500 
L 3475 0 
L 2900 0 
L 2900 538 
Q 2691 219 2414 64 
Q 2138 -91 1772 -91 
Q 1169 -91 856 284 
Q 544 659 544 1381 
z
M 1991 3584 
L 1991 3584 
z
" transform="scale(0.015625)"/>
       <path id="DejaVuSans-6d" d="M 3328 2828 
Q 3544 3216 3844 3400 
Q 4144 3584 4550 3584 
Q 5097 3584 5394 3201 
Q 5691 2819 5691 2113 
L 5691 0 
L 5113 0 
L 5113 2094 
Q 5113 2597 4934 2840 
Q 4756 3084 4391 3084 
Q 3944 3084 3684 2787 
Q 3425 2491 3425 1978 
L 3425 0 
L 2847 0 
L 2847 2094 
Q 2847 2600 2669 2842 
Q 2491 3084 2119 3084 
Q 1678 3084 1418 2786 
Q 1159 2488 1159 1978 
L 1159 0 
L 581 0 
L 581 3500 
L 1159 3500 
L 1159 2956 
Q 1356 3278 1631 3431 
Q 1906 3584 2284 3584 
Q 2666 3584 2933 3390 
Q 3200 3197 3328 2828 
z
" transform="scale(0.015625)"/>
       <path id="DejaVuSans-6f" d="M 1959 3097 
Q 1497 3097 1228 2736 
Q 959 2375 959 1747 
Q 959 1119 1226 758 
Q 1494 397 1959 397 
Q 2419 397 2687 759 
Q 2956 1122 2956 1747 
Q 2956 2369 2687 2733 
Q 2419 3097 1959 3097 
z
M 1959 3584 
Q 2709 3584 3137 3096 
Q 3566 2609 3566 1747 
Q 3566 888 3137 398 
Q 2709 -91 1959 -91 
Q 1206 -91 779 398 
Q 353 888 353 1747 
Q 353 2609 779 3096 
Q 1206 3584 1959 3584 
z
" transform="scale(0.015625)"/>
      </defs>
      <use xlink:href="#DejaVuSans-20"/>
      <use xlink:href="#DejaVuSans-72" transform="translate(31.787109 0)"/>
      <use xlink:href="#DejaVuSans-65" transform="translate(70.650391 0)"/>
      <use xlink:href="#DejaVuSans-6c" transform="translate(132.173828 0)"/>
      <use xlink:href="#DejaVuSans-2e" transform="translate(159.957031 0)"/>
      <use xlink:href="#DejaVuSans-20" transform="translate(191.744141 0)"/>
      <use xlink:href="#DejaVuSans-66" transform="translate(223.53125 0)"/>
      <use xlink:href="#DejaVuSans-75" transform="translate(258.736328 0)"/>
      <use xlink:href="#DejaVuSans-6c" transform="translate(322.115234 0)"/>
      <use xlink:href="#DejaVuSans-6c" transform="translate(349.898438 0)"/>
      <use xlink:href="#DejaVuSans-20" transform="translate(377.681641 0)"/>
      <use xlink:href="#DejaVuSans-6d" transform="translate(409.46875 0)"/>
      <use xlink:href="#DejaVuSans-6f" transform="translate(506.880859 0)"/>
      <use xlink:href="#DejaVuSans-64" transform="translate(568.0625 0)"/>
      <use xlink:href="#DejaVuSans-65" transform="translate(631.539062 0)"/>
      <use xlink:href="#DejaVuSans-6c" transform="translate(693.0625 0)"/>
     </g>
    </g>
   </g>
   <g id="line2d_13">
    <path d="M 69.435918 167.901291 
L 87.190463 98.239167 
L 104.945009 83.605082 
L 122.699554 18.453339 
L 140.454099 15.12 
L 158.208645 17.385606 
" clip-path="url(#pab9b8547d5)" style="fill: none; stroke: #ffa500; stroke-width: 2; stroke-linecap: square"/>
   </g>
   <g id="line2d_14">
    <path d="M 69.435918 173.583669 
L 87.190463 111.046585 
L 104.945009 101.43786 
L 122.699554 15.578663 
L 140.454099 15.12 
L 158.208645 15.073575 
" clip-path="url(#pab9b8547d5)" style="fill: none; stroke: #ffa500; stroke-width: 2; stroke-linecap: square"/>
   </g>
   <g id="line2d_15">
    <path d="M 69.435918 170.756139 
L 87.190463 104.936532 
L 104.945009 94.549613 
L 122.699554 16.82773 
L 140.454099 15.12 
L 158.208645 15.283305 
" clip-path="url(#pab9b8547d5)" style="fill: none; stroke: #ffa500; stroke-width: 2; stroke-linecap: square"/>
   </g>
   <g id="line2d_16">
    <path d="M 69.435918 161.673009 
L 87.190463 127.521876 
L 104.945009 115.082268 
L 122.699554 19.779238 
L 140.454099 15.12 
L 158.208645 28.369465 
" clip-path="url(#pab9b8547d5)" style="fill: none; stroke: #ffa500; stroke-width: 2; stroke-linecap: square"/>
   </g>
   <g id="line2d_17">
    <path d="M 69.435918 95.805425 
L 87.190463 26.12082 
L 104.945009 20.231149 
L 122.699554 18.677092 
L 140.454099 15.12 
L 158.208645 69.673789 
" clip-path="url(#pab9b8547d5)" style="fill: none; stroke: #800080; stroke-width: 2; stroke-linecap: square"/>
   </g>
   <g id="line2d_18">
    <path d="M 69.435918 85.812271 
L 87.190463 21.394398 
L 104.945009 17.259871 
L 122.699554 16.295597 
L 140.454099 15.12 
L 158.208645 80.881307 
" clip-path="url(#pab9b8547d5)" style="fill: none; stroke: #800080; stroke-width: 2; stroke-linecap: square"/>
   </g>
   <g id="line2d_19">
    <path d="M 69.435918 116.978069 
L 87.190463 28.974222 
L 104.945009 18.587743 
L 122.699554 16.722987 
L 140.454099 15.12 
L 158.208645 60.373045 
" clip-path="url(#pab9b8547d5)" style="fill: none; stroke: #800080; stroke-width: 2; stroke-linecap: square"/>
   </g>
   <g id="line2d_20">
    <path d="M 69.435918 118.415188 
L 87.190463 30.435635 
L 104.945009 17.97197 
L 122.699554 15.717784 
L 140.454099 15.12 
L 158.208645 49.883002 
" clip-path="url(#pab9b8547d5)" style="fill: none; stroke: #800080; stroke-width: 2; stroke-linecap: square"/>
   </g>
   <g id="line2d_21">
    <path d="M 69.435918 96.279564 
L 87.190463 27.00099 
L 104.945009 17.821684 
L 122.699554 16.798804 
L 140.454099 15.12 
L 158.208645 56.236392 
" clip-path="url(#pab9b8547d5)" style="fill: none; stroke: #800080; stroke-width: 2; stroke-linecap: square"/>
   </g>
   <g id="patch_3">
    <path d="M 64.997281 173.52 
L 64.997281 15.12 
" style="fill: none; stroke: #000000; stroke-width: 1.2; stroke-linejoin: miter; stroke-linecap: square"/>
   </g>
   <g id="patch_4">
    <path d="M 69.435918 173.52 
L 158.208645 173.52 
" style="fill: none; stroke: #000000; stroke-width: 1.2; stroke-linejoin: miter; stroke-linecap: square"/>
   </g>
  </g>
 </g>
 <defs>
  <clipPath id="pab9b8547d5">
   <rect x="64.997281" y="7.2" width="97.65" height="166.32"/>
  </clipPath>
 </defs>
</svg>
