<?xml version="1.0" encoding="utf-8" standalone="no"?>
<!DOCTYPE svg PUBLIC "-//W3C//DTD SVG 1.1//EN"
  "http://www.w3.org/Graphics/SVG/1.1/DTD/svg11.dtd">
<svg xmlns:xlink="http://www.w3.org/1999/xlink" width="545.76pt" height="164.958281pt" viewBox="0 0 545.76 164.958281" xmlns="http://www.w3.org/2000/svg" version="1.1">
 <metadata>
  <rdf:RDF xmlns:dc="http://purl.org/dc/elements/1.1/" xmlns:cc="http://creativecommons.org/ns#" xmlns:rdf="http://www.w3.org/1999/02/22-rdf-syntax-ns#">
   <cc:Work>
    <dc:type rdf:resource="http://purl.org/dc/dcmitype/StillImage"/>
    <dc:date>2025-10-07T17:20:47.683353</dc:date>
    <dc:format>image/svg+xml</dc:format>
    <dc:creator>
     <cc:Agent>
      <dc:title>Matplotlib v3.10.6, https://matplotlib.org/</dc:title>
     </cc:Agent>
    </dc:creator>
   </cc:Work>
  </rdf:RDF>
 </metadata>
 <defs>
  <style type="text/css">*{stroke-linejoin: round; stroke-linecap: butt}</style>
 </defs>
 <g id="figure_1">
  <g id="patch_1">
   <path d="M 0 164.958281 
L 545.76 164.958281 
L 545.76 0 
L 0 0 
L 0 164.958281 
z
" style="fill: none"/>
  </g>
  <g id="axes_1">
   <g id="patch_2">
    <path d="M 36.36 68.658281 
L 120.06 68.658281 
L 120.06 19.158281 
L 36.36 19.158281 
L 36.36 68.658281 
z
" style="fill: none; opacity: 0"/>
   </g>
   <g id="matplotlib.axis_1"/>
   <g id="matplotlib.axis_2"/>
   <g id="line2d_1">
    <path d="M 40.164545 51.891774 
L 40.482917 50.563634 
L 40.801289 50.919792 
L 41.119661 50.71036 
L 41.438033 50.780332 
L 41.756405 50.617679 
L 42.074777 50.666511 
L 42.393149 50.50819 
L 42.711521 50.497082 
L 43.029893 50.315942 
L 45.57687 50.247473 
L 47.16873 50.118564 
L 49.397334 50.005132 
L 49.715706 49.317779 
L 50.670822 42.477943 
L 51.307566 38.947054 
L 51.625938 38.44138 
L 51.94431 38.494646 
L 52.262682 38.920895 
L 52.899426 40.38931 
L 53.854542 43.399595 
L 55.12803 47.351881 
L 55.764774 48.91573 
L 56.71989 50.705088 
L 57.356634 51.093401 
L 57.993378 51.490649 
L 58.630122 51.56975 
L 59.266866 51.272143 
L 60.221982 50.501214 
L 61.177098 47.980945 
L 62.132214 45.505099 
L 62.768958 44.560296 
L 63.405702 43.4898 
L 64.042446 42.912348 
L 64.360818 42.802941 
L 64.67919 42.841068 
L 64.997562 43.10331 
L 65.634306 44.527743 
L 67.544538 49.492754 
L 68.499654 51.28201 
L 70.409886 53.846191 
L 72.320118 55.652639 
L 73.911978 56.499408 
L 75.503838 56.948878 
L 76.458954 56.899703 
L 76.777326 57.110712 
L 77.095698 57.165082 
L 77.732442 56.900168 
L 78.687558 56.979113 
L 81.234534 56.93792 
L 81.871278 56.619168 
L 82.18965 56.464862 
L 82.508022 56.08064 
L 83.78151 53.591178 
L 84.736626 51.302384 
L 85.691742 49.339105 
L 86.010114 48.739612 
L 86.328486 48.394941 
L 86.96523 48.111046 
L 87.283602 48.168098 
L 87.920346 48.770046 
L 88.875462 50.623762 
L 89.512206 51.688049 
L 90.785694 54.02026 
L 91.74081 55.410219 
L 92.695926 55.983911 
L 94.287786 56.644925 
L 94.606158 56.587203 
L 95.879646 56.741455 
L 96.198018 56.749372 
L 96.834762 56.515539 
L 97.789878 56.594461 
L 98.426622 56.401226 
L 98.744994 56.351567 
L 100.655226 55.25229 
L 102.565458 53.708927 
L 103.202202 53.539756 
L 104.157318 53.121317 
L 104.794062 53.238886 
L 106.06755 53.654453 
L 107.341038 54.346913 
L 110.524758 54.755782 
L 110.84313 54.603628 
L 111.161502 54.688406 
L 111.798246 54.594452 
L 112.43499 54.773969 
L 112.753362 54.54983 
L 113.071734 54.54579 
L 114.026851 54.087309 
L 114.981967 54.299476 
L 115.300339 54.209448 
L 115.618711 54.346478 
L 115.937083 54.080396 
L 116.255455 54.291853 
L 116.255455 54.291853 
" clip-path="url(#p8c436526f7)" style="fill: none; stroke: #800080; stroke-linecap: square"/>
   </g>
  </g>
  <g id="axes_2">
   <g id="patch_3">
    <path d="M 120.06 68.658281 
L 203.76 68.658281 
L 203.76 19.158281 
L 120.06 19.158281 
L 120.06 68.658281 
z
" style="fill: none; opacity: 0"/>
   </g>
   <g id="matplotlib.axis_3"/>
   <g id="matplotlib.axis_4"/>
   <g id="line2d_2">
    <path d="M 123.864545 52.302547 
L 124.182917 51.035129 
L 124.501289 51.251802 
L 124.819661 50.787603 
L 125.456405 50.594939 
L 125.774777 50.861955 
L 126.729893 50.665415 
L 127.048266 50.756633 
L 127.366638 50.707888 
L 127.68501 50.800114 
L 128.321754 50.483907 
L 129.27687 50.821535 
L 129.595242 50.714897 
L 129.913614 50.375167 
L 130.231986 50.438808 
L 130.550358 50.638529 
L 130.86873 50.629403 
L 131.187102 50.485286 
L 131.505474 50.48012 
L 132.46059 49.975061 
L 133.097334 50.235261 
L 133.415706 49.55798 
L 134.370822 43.179189 
L 135.007566 40.22668 
L 135.325938 39.764093 
L 135.64431 39.63017 
L 135.962682 39.99777 
L 136.599426 41.405128 
L 138.191286 45.861743 
L 138.82803 47.539852 
L 139.464774 48.851905 
L 140.738262 50.491962 
L 141.693378 50.319253 
L 142.01175 50.050006 
L 142.330122 49.629516 
L 142.966866 49.636212 
L 143.921982 48.799559 
L 144.558726 47.189857 
L 145.19547 45.530194 
L 145.832214 44.426423 
L 146.78733 43.431103 
L 147.105702 43.386807 
L 148.060818 42.879314 
L 148.697562 43.249103 
L 149.015934 43.800721 
L 150.289422 46.732 
L 150.926166 47.890887 
L 154.109886 52.617503 
L 154.74663 53.113912 
L 155.701746 53.865936 
L 156.020118 54.08532 
L 156.33849 54.086543 
L 156.975234 54.235411 
L 158.248722 54.132317 
L 158.885466 53.938922 
L 159.203838 53.927536 
L 160.158954 53.571724 
L 160.477326 53.594145 
L 160.795698 53.445006 
L 161.11407 53.163619 
L 161.432442 53.077189 
L 161.750814 53.179829 
L 162.387558 53.011326 
L 163.024302 53.277657 
L 163.342674 53.252148 
L 165.571278 53.86703 
L 166.526394 53.69659 
L 166.844766 53.454875 
L 167.48151 53.234574 
L 168.118254 52.215096 
L 168.754998 51.395853 
L 169.710114 50.315332 
L 170.346858 49.405154 
L 170.66523 49.209691 
L 171.301974 49.272617 
L 171.620346 49.366662 
L 172.25709 49.972833 
L 173.212206 51.281122 
L 175.44081 54.211082 
L 176.714298 55.293306 
L 177.03267 55.419874 
L 177.669414 55.963893 
L 178.62453 56.169998 
L 178.942902 56.294375 
L 179.579646 56.229383 
L 180.534762 56.589741 
L 181.171506 56.699452 
L 181.489878 56.557791 
L 183.40011 56.540372 
L 183.718482 56.367091 
L 184.673598 56.306514 
L 185.628714 56.029243 
L 185.947086 55.864851 
L 187.220574 55.715349 
L 187.857318 55.309513 
L 188.494062 55.469908 
L 189.76755 54.982233 
L 190.404294 54.912622 
L 191.041038 54.800329 
L 191.35941 54.660108 
L 191.677782 54.704376 
L 192.314526 54.451406 
L 192.632898 54.315085 
L 192.95127 54.384874 
L 193.269642 54.180214 
L 193.906386 54.151968 
L 194.224758 54.294948 
L 194.54313 54.316097 
L 194.861502 54.097605 
L 195.179874 54.057261 
L 195.498246 54.135164 
L 195.816618 54.023311 
L 196.13499 54.1813 
L 197.726851 53.823669 
L 198.045223 53.97976 
L 198.363595 53.961259 
L 198.681967 54.137281 
L 199.000339 53.859913 
L 199.318711 54.085736 
L 199.637083 54.123197 
L 199.955455 54.408875 
L 199.955455 54.408875 
" clip-path="url(#p49f4d4f654)" style="fill: none; stroke: #800080; stroke-linecap: square"/>
   </g>
  </g>
  <g id="axes_3">
   <g id="patch_4">
    <path d="M 203.76 68.658281 
L 287.46 68.658281 
L 287.46 19.158281 
L 203.76 19.158281 
L 203.76 68.658281 
z
" style="fill: none; opacity: 0"/>
   </g>
   <g id="matplotlib.axis_5"/>
   <g id="matplotlib.axis_6"/>
   <g id="line2d_3">
    <path d="M 207.564545 52.804901 
L 207.882917 53.17093 
L 208.519661 53.362032 
L 208.838033 53.169613 
L 209.156405 53.265487 
L 209.793149 53.142923 
L 210.429893 53.296679 
L 210.748266 53.262636 
L 211.066638 53.560451 
L 211.38501 53.58225 
L 211.703382 53.408703 
L 212.340126 53.813412 
L 212.97687 53.647308 
L 213.295242 53.716727 
L 214.250358 53.660897 
L 214.887102 53.70636 
L 215.205474 53.717421 
L 215.523846 53.842164 
L 215.842218 53.793824 
L 216.478962 54.052088 
L 217.115706 53.945944 
L 217.434078 53.47405 
L 217.75245 52.578634 
L 218.070822 52.230471 
L 218.389194 52.429238 
L 219.981054 55.216315 
L 220.299426 55.330693 
L 220.617798 55.262362 
L 221.891286 53.208511 
L 222.52803 52.302535 
L 222.846402 51.843444 
L 223.164774 51.71467 
L 223.801518 51.119546 
L 224.438262 51.179379 
L 224.756634 51.271194 
L 225.075006 51.627337 
L 225.71175 51.880769 
L 226.666866 53.237857 
L 227.621982 54.970979 
L 227.940354 55.136267 
L 228.258726 54.481219 
L 230.168958 44.850418 
L 230.805702 42.92034 
L 231.124074 42.614666 
L 232.07919 43.076469 
L 232.715934 43.898098 
L 233.034306 45.159137 
L 234.626166 56.50829 
L 235.26291 59.608474 
L 235.899654 61.219893 
L 236.218026 61.871506 
L 236.85477 62.486132 
L 237.491514 62.732941 
L 237.809886 62.648171 
L 238.44663 62.142246 
L 239.083374 61.492419 
L 239.720118 60.663059 
L 241.63035 58.728038 
L 242.267094 58.025473 
L 244.177326 56.75279 
L 245.132442 55.990286 
L 245.450814 55.943915 
L 246.087558 55.482817 
L 246.40593 55.422631 
L 247.361046 54.801058 
L 247.99779 54.725243 
L 248.316162 54.589887 
L 248.952906 54.017164 
L 249.58965 53.726179 
L 251.818254 51.510483 
L 252.136626 51.423856 
L 252.77337 51.081087 
L 253.091742 51.311909 
L 254.046858 51.022408 
L 254.36523 50.874654 
L 256.275462 51.786502 
L 257.54895 51.79002 
L 257.867322 51.946335 
L 258.822438 51.763021 
L 260.414298 52.057368 
L 261.369414 51.972868 
L 261.687786 51.838581 
L 262.006158 51.837217 
L 262.32453 51.697443 
L 263.279646 51.925625 
L 263.91639 51.746974 
L 264.234762 51.888992 
L 264.553134 51.837193 
L 264.871506 51.672657 
L 265.50825 51.98205 
L 266.463366 51.88676 
L 266.781738 51.71086 
L 267.10011 51.79953 
L 267.736854 52.169027 
L 268.373598 52.073309 
L 268.69197 51.928504 
L 269.328714 52.14655 
L 269.647086 52.091948 
L 269.965458 52.250593 
L 270.602202 52.171332 
L 270.920574 52.425308 
L 271.238946 52.465204 
L 272.194062 52.194633 
L 272.830806 52.679304 
L 274.422666 52.797142 
L 275.05941 52.564696 
L 275.696154 52.802342 
L 276.332898 52.549004 
L 277.288014 52.572665 
L 277.606386 52.480059 
L 278.24313 52.779756 
L 278.561502 52.626301 
L 279.198246 52.806193 
L 279.83499 52.62858 
L 280.790107 52.766544 
L 281.108479 52.857457 
L 281.745223 52.556141 
L 282.381967 52.749372 
L 283.018711 52.606009 
L 283.655455 52.916273 
L 283.655455 52.916273 
" clip-path="url(#p191508535c)" style="fill: none; stroke: #ffa500; stroke-linecap: square"/>
   </g>
   <g id="text_1">
    <text style="font-size: 9px; font-family: 'Helvetica', 'Computer Modern Sans Serif', 'DejaVu Sans', 'Bitstream Vera Sans', 'Lucida Grande', 'Verdana', 'Geneva', 'Lucid', 'Arial', 'Avant Garde', sans-serif; text-anchor: end" x="287.46" y="32.958281" transform="rotate(-0 287.46 32.958281)">No reward</text>
   </g>
  </g>
  <g id="axes_4">
   <g id="patch_5">
    <path d="M 287.46 68.658281 
L 371.16 68.658281 
L 371.16 19.158281 
L 287.46 19.158281 
L 287.46 68.658281 
z
" style="fill: none; opacity: 0"/>
   </g>
   <g id="matplotlib.axis_7"/>
   <g id="matplotlib.axis_8"/>
   <g id="line2d_4">
    <path d="M 291.264545 53.101323 
L 291.582917 53.428934 
L 291.901289 53.237577 
L 292.219661 53.60663 
L 292.856405 53.638604 
L 293.493149 53.910811 
L 293.811521 54.01126 
L 294.448266 53.717204 
L 294.766638 53.997542 
L 295.721754 54.031791 
L 296.358498 54.278634 
L 296.995242 54.045359 
L 297.313614 54.219499 
L 298.26873 53.977176 
L 299.542218 53.976718 
L 299.86059 54.121814 
L 300.497334 53.9643 
L 300.815706 53.926589 
L 301.45245 52.586952 
L 301.770822 52.524519 
L 302.089194 52.858215 
L 303.04431 54.263341 
L 303.362682 54.661855 
L 303.681054 54.782572 
L 303.999426 54.664097 
L 305.272914 53.45114 
L 306.22803 51.410409 
L 306.546402 50.782208 
L 307.81989 50.39769 
L 308.456634 50.912729 
L 309.093378 50.878004 
L 309.730122 51.505294 
L 310.048494 51.979928 
L 310.685238 53.377212 
L 311.640354 54.500834 
L 311.958726 53.901513 
L 312.277098 52.214195 
L 312.913842 47.95211 
L 314.18733 41.185791 
L 315.460818 32.025063 
L 316.734306 22.490434 
L 317.052678 21.916243 
L 317.37105 21.63436 
L 318.326166 21.509117 
L 318.644538 21.893365 
L 318.96291 22.56784 
L 319.599654 24.622707 
L 319.918026 25.823824 
L 320.55477 29.664926 
L 323.101746 46.956174 
L 323.73849 49.894149 
L 324.693606 53.47715 
L 325.648722 55.650889 
L 326.285466 56.745943 
L 326.92221 57.369859 
L 327.240582 57.68695 
L 327.877326 57.670061 
L 328.51407 57.534306 
L 328.832442 57.398166 
L 329.469186 57.410002 
L 330.10593 56.90876 
L 330.424302 56.623225 
L 330.742674 56.173475 
L 331.061046 56.184193 
L 332.016162 55.208034 
L 333.28965 54.066803 
L 334.563138 53.138719 
L 334.88151 52.922209 
L 335.199882 52.845429 
L 335.836626 52.419622 
L 336.791742 52.33191 
L 337.110114 52.610179 
L 337.428486 52.490398 
L 337.746858 52.514298 
L 338.06523 52.684751 
L 338.383602 52.696507 
L 339.020346 52.507501 
L 339.65709 52.282099 
L 340.293834 51.888322 
L 340.930578 52.047074 
L 341.567322 51.414547 
L 342.84081 51.236907 
L 343.159182 51.010594 
L 343.795926 50.812777 
L 345.387786 50.110857 
L 346.02453 50.166039 
L 346.342902 50.105393 
L 346.979646 50.216064 
L 347.61639 50.084213 
L 348.889878 50.057734 
L 349.20825 50.133478 
L 350.80011 49.721207 
L 351.436854 49.540322 
L 352.073598 50.038971 
L 352.710342 49.629542 
L 353.347086 49.850298 
L 353.98383 49.573561 
L 355.257318 50.004641 
L 355.57569 49.827824 
L 356.849178 50.061719 
L 357.16755 49.795143 
L 357.804294 50.006398 
L 358.122666 49.828632 
L 358.441038 49.831032 
L 359.077782 50.165952 
L 359.714526 50.218223 
L 360.032898 50.392567 
L 360.35127 50.274892 
L 360.988014 50.434141 
L 361.306386 50.238977 
L 362.579874 50.55474 
L 362.898246 50.477536 
L 363.216618 50.2544 
L 363.53499 50.355574 
L 363.853362 50.897423 
L 364.171734 51.0049 
L 364.490107 50.784359 
L 364.808479 50.721156 
L 365.126851 50.839939 
L 366.081967 50.756452 
L 366.400339 50.872194 
L 366.718711 50.713926 
L 367.037083 50.91855 
L 367.355455 50.928805 
L 367.355455 50.928805 
" clip-path="url(#pe26706dcd3)" style="fill: none; stroke: #ffa500; stroke-linecap: square"/>
   </g>
   <g id="text_2">
    <text style="font-size: 9px; font-family: 'Helvetica', 'Computer Modern Sans Serif', 'DejaVu Sans', 'Bitstream Vera Sans', 'Lucida Grande', 'Verdana', 'Geneva', 'Lucid', 'Arial', 'Avant Garde', sans-serif; text-anchor: end" x="371.16" y="32.958281" transform="rotate(-0 371.16 32.958281)">Reward</text>
   </g>
  </g>
  <g id="axes_5">
   <g id="patch_6">
    <path d="M 371.16 68.658281 
L 454.86 68.658281 
L 454.86 19.158281 
L 371.16 19.158281 
L 371.16 68.658281 
z
" style="fill: none; opacity: 0"/>
   </g>
   <g id="matplotlib.axis_9"/>
   <g id="matplotlib.axis_10"/>
   <g id="line2d_5">
    <path d="M 374.964545 56.787076 
L 375.282917 56.8212 
L 375.601289 56.599565 
L 375.919661 56.621269 
L 376.238033 56.87666 
L 376.556405 56.63289 
L 377.193149 56.597054 
L 377.511521 55.928359 
L 377.829893 55.990566 
L 378.466638 55.911824 
L 378.78501 55.928032 
L 379.103382 55.674127 
L 380.058498 55.590775 
L 380.37687 55.713697 
L 380.695242 55.704949 
L 381.013614 55.563101 
L 381.331986 55.164661 
L 382.287102 54.595056 
L 382.605474 54.944777 
L 382.923846 54.190241 
L 383.56059 53.646449 
L 383.878962 53.145376 
L 384.515706 53.661199 
L 384.834078 53.593287 
L 385.470822 54.197708 
L 386.425938 57.104978 
L 386.74431 57.400571 
L 387.062682 57.093602 
L 387.381054 56.466713 
L 387.699426 56.447255 
L 388.017798 55.917884 
L 388.33617 54.897014 
L 388.654542 54.697166 
L 388.972914 53.123608 
L 390.883146 48.648331 
L 392.156634 46.072018 
L 392.475006 45.232446 
L 393.11175 44.542741 
L 393.430122 43.85648 
L 393.748494 43.899471 
L 394.066866 43.7703 
L 394.385238 44.15671 
L 395.021982 43.905492 
L 395.340354 44.34094 
L 395.977098 45.61905 
L 396.29547 45.927589 
L 397.250586 48.149381 
L 397.568958 50.109607 
L 398.205702 51.625329 
L 398.524074 51.425698 
L 398.842446 52.020163 
L 399.160818 53.007531 
L 399.47919 53.050985 
L 399.797562 53.409796 
L 400.115934 53.455516 
L 400.434306 52.86129 
L 400.752678 51.846535 
L 401.07105 51.886733 
L 404.25477 43.776853 
L 404.573142 42.751634 
L 404.891514 42.305198 
L 405.528258 40.84125 
L 406.165002 40.432622 
L 406.483374 39.791395 
L 407.43849 38.78313 
L 407.756862 39.548812 
L 408.075234 39.339038 
L 408.711978 39.506555 
L 409.03035 39.125628 
L 409.667094 38.887289 
L 409.985466 39.209738 
L 410.303838 39.756679 
L 410.62221 39.849326 
L 411.577326 39.706877 
L 411.895698 39.854513 
L 412.850814 42.17738 
L 413.169186 42.213899 
L 413.487558 42.593597 
L 414.124302 43.947102 
L 414.761046 45.364582 
L 415.39779 46.709598 
L 415.716162 47.058753 
L 416.352906 48.116463 
L 416.671278 48.407577 
L 417.308022 49.280098 
L 417.626394 49.043108 
L 417.944766 49.05828 
L 418.899882 50.212048 
L 419.218254 50.127531 
L 419.536626 50.233329 
L 419.854998 50.081046 
L 420.491742 50.577288 
L 420.810114 51.241393 
L 421.128486 51.583703 
L 421.446858 51.479453 
L 422.083602 51.13938 
L 422.720346 52.27951 
L 423.35709 52.181521 
L 423.675462 52.082439 
L 423.993834 52.175242 
L 424.312206 52.116997 
L 424.630578 51.87489 
L 424.94895 51.833908 
L 425.585694 50.910954 
L 425.904066 50.928767 
L 426.222438 50.606994 
L 426.54081 50.597061 
L 426.859182 50.911211 
L 427.177554 50.757672 
L 427.495926 50.958699 
L 427.814298 50.973812 
L 429.087786 51.661144 
L 430.361274 51.856953 
L 431.31639 53.176667 
L 431.953134 52.681948 
L 432.589878 53.274126 
L 433.226622 53.872541 
L 433.544994 54.651757 
L 433.863366 54.539754 
L 434.50011 54.707238 
L 434.818482 55.157831 
L 435.136854 55.29199 
L 435.455226 55.57418 
L 435.773598 55.703029 
L 436.410342 55.742752 
L 437.047086 56.254645 
L 437.365458 56.262776 
L 438.002202 55.927596 
L 438.638946 56.784529 
L 439.912434 56.980559 
L 440.230806 57.159155 
L 440.549178 57.190754 
L 440.86755 57.364004 
L 441.504294 56.74901 
L 442.141038 56.893056 
L 442.45941 57.059744 
L 443.414526 56.545854 
L 444.05127 56.652572 
L 445.006386 56.631968 
L 445.324758 56.523828 
L 446.598246 57.185351 
L 446.916618 56.840345 
L 448.508479 56.925656 
L 448.826851 57.084878 
L 449.145223 57.005284 
L 449.463595 56.80492 
L 449.781967 57.037921 
L 450.100339 57.071787 
L 451.055455 57.514698 
L 451.055455 57.514698 
" clip-path="url(#pfd4e792d5b)" style="fill: none; stroke: #56b4e9; stroke-linecap: square"/>
   </g>
  </g>
  <g id="axes_6">
   <g id="patch_7">
    <path d="M 454.86 68.658281 
L 538.56 68.658281 
L 538.56 19.158281 
L 454.86 19.158281 
L 454.86 68.658281 
z
" style="fill: none; opacity: 0"/>
   </g>
   <g id="matplotlib.axis_11"/>
   <g id="matplotlib.axis_12"/>
   <g id="line2d_6">
    <path d="M 458.664545 61.551347 
L 458.982917 60.999526 
L 459.938033 61.425384 
L 460.256405 61.262312 
L 460.574777 61.273491 
L 461.211521 60.60694 
L 461.529893 60.382719 
L 461.848266 60.334048 
L 462.166638 59.76071 
L 462.48501 59.923083 
L 463.121754 59.892584 
L 463.758498 58.876933 
L 464.07687 58.672336 
L 464.395242 58.05653 
L 465.031986 58.133118 
L 465.350358 57.629231 
L 465.66873 57.6334 
L 466.305474 57.086441 
L 466.623846 57.03149 
L 466.942218 56.65705 
L 468.215706 56.227861 
L 468.534078 55.793893 
L 468.85245 55.6261 
L 469.807566 57.525124 
L 470.44431 57.317949 
L 471.081054 57.012257 
L 471.717798 55.472156 
L 472.03617 55.219855 
L 472.672914 53.657176 
L 473.62803 50.540026 
L 473.946402 49.776265 
L 474.264774 48.636632 
L 474.901518 47.497775 
L 475.21989 47.602874 
L 475.538262 46.852409 
L 475.856634 46.39621 
L 476.175006 46.526167 
L 476.493378 46.532665 
L 476.81175 46.098811 
L 477.130122 46.034251 
L 477.448494 45.176556 
L 478.085238 44.301987 
L 478.40361 44.182735 
L 478.721982 44.771312 
L 479.040354 45.106319 
L 479.358726 45.225139 
L 479.677098 45.081738 
L 479.99547 46.701957 
L 481.268958 49.6644 
L 481.58733 51.153234 
L 481.905702 51.605244 
L 482.224074 51.454767 
L 482.542446 52.695348 
L 483.17919 53.288319 
L 483.497562 54.82614 
L 483.815934 54.811625 
L 484.452678 54.251726 
L 484.77105 53.737874 
L 485.407794 53.855108 
L 485.726166 52.681078 
L 486.999654 49.666953 
L 487.318026 48.801117 
L 487.636398 47.13256 
L 487.95477 47.357722 
L 488.591514 45.053049 
L 488.909886 44.606967 
L 489.228258 43.503365 
L 489.54663 43.165098 
L 490.183374 41.660813 
L 490.501746 41.48325 
L 490.820118 40.417369 
L 491.13849 40.4993 
L 491.775234 40.116562 
L 492.093606 39.692422 
L 492.411978 39.480986 
L 493.048722 40.022576 
L 493.685466 39.551256 
L 494.32221 40.494965 
L 494.640582 40.485592 
L 494.958954 40.851027 
L 495.277326 41.391187 
L 495.595698 41.559128 
L 495.91407 41.266236 
L 496.550814 42.240515 
L 497.50593 44.123618 
L 497.824302 44.18768 
L 498.142674 44.505602 
L 498.779418 46.535444 
L 499.09779 47.25252 
L 500.052906 48.275303 
L 500.371278 48.450952 
L 500.68965 49.239854 
L 501.008022 49.304044 
L 501.326394 49.897865 
L 501.644766 50.065072 
L 501.963138 50.445088 
L 503.236626 50.929202 
L 503.554998 50.494971 
L 503.87337 50.456222 
L 504.510114 49.657718 
L 504.828486 50.154811 
L 505.146858 50.036709 
L 506.738718 50.927727 
L 507.05709 50.900488 
L 507.693834 51.212147 
L 508.012206 51.198455 
L 508.330578 51.331908 
L 508.967322 50.630916 
L 509.604066 51.19454 
L 509.922438 51.792768 
L 510.24081 51.207872 
L 510.559182 51.047737 
L 510.877554 51.03986 
L 511.195926 51.443581 
L 511.514298 51.469129 
L 511.83267 51.360208 
L 512.151042 52.082168 
L 512.469414 52.216151 
L 512.787786 53.008319 
L 513.42453 53.231101 
L 513.742902 53.14248 
L 514.379646 54.155584 
L 514.698018 54.107516 
L 515.01639 54.418985 
L 515.653134 54.170122 
L 515.971506 54.489548 
L 516.289878 54.537115 
L 516.60825 55.075949 
L 517.244994 55.446671 
L 518.20011 57.150499 
L 518.518482 57.129834 
L 518.836854 57.43611 
L 519.473598 57.831054 
L 519.79197 58.699145 
L 520.110342 58.834152 
L 520.428714 59.292712 
L 520.747086 59.382362 
L 521.065458 59.356274 
L 521.38383 59.666466 
L 521.702202 59.348499 
L 522.338946 59.909133 
L 522.657318 59.89498 
L 522.97569 60.201795 
L 523.294062 60.683411 
L 523.612434 60.649061 
L 523.930806 60.975269 
L 524.249178 60.845976 
L 524.56755 61.21683 
L 524.885922 61.092178 
L 525.522666 61.467504 
L 525.841038 61.05472 
L 526.477782 61.747889 
L 526.796154 61.805759 
L 527.114526 61.980218 
L 527.432898 61.664689 
L 527.75127 61.766272 
L 528.069642 61.517419 
L 528.388014 61.715823 
L 528.706386 61.417802 
L 529.024758 61.848035 
L 529.34313 62.072542 
L 529.979874 62.036669 
L 530.298246 62.022127 
L 530.93499 61.845085 
L 531.253362 61.910987 
L 531.571734 61.602105 
L 531.890107 61.611522 
L 532.526851 61.298925 
L 533.163595 62.155431 
L 533.481967 62.177029 
L 533.800339 61.543548 
L 534.118711 61.334273 
L 534.437083 61.389307 
L 534.755455 62.11415 
L 534.755455 62.11415 
" clip-path="url(#p68dfef75a1)" style="fill: none; stroke: #56b4e9; stroke-linecap: square"/>
   </g>
  </g>
  <g id="axes_7">
   <g id="patch_8">
    <path d="M 36.36 98.358281 
L 120.06 98.358281 
L 120.06 48.858281 
L 36.36 48.858281 
L 36.36 98.358281 
z
" style="fill: none; opacity: 0"/>
   </g>
   <g id="matplotlib.axis_13"/>
   <g id="matplotlib.axis_14"/>
   <g id="line2d_7">
    <path d="M 40.164545 83.926283 
L 49.397334 83.926283 
L 49.715706 79.106935 
L 50.670822 72.440792 
L 51.307566 69.128037 
L 51.625938 68.638957 
L 51.94431 68.621576 
L 52.262682 69.025901 
L 52.899426 70.471779 
L 54.172914 74.34759 
L 55.446402 77.952976 
L 56.401518 79.670023 
L 56.71989 80.228538 
L 57.038262 80.489378 
L 57.675006 80.642959 
L 57.993378 80.749041 
L 58.630122 80.538285 
L 59.266866 80.358433 
L 59.585238 80.103835 
L 59.90361 82.925801 
L 60.221982 82.315126 
L 60.858726 80.383523 
L 61.813842 77.342999 
L 63.08733 74.253915 
L 63.724074 73.002786 
L 64.360818 72.706914 
L 64.67919 72.737757 
L 64.997562 72.997336 
L 65.315934 73.593111 
L 66.589422 76.772054 
L 67.86291 79.269043 
L 69.136398 81.278458 
L 70.091514 82.363112 
L 71.365002 83.399677 
L 72.320118 83.820664 
L 73.275234 83.955588 
L 79.961046 83.954381 
L 82.18965 84.167734 
L 82.826394 83.660699 
L 83.463138 82.783478 
L 86.328486 78.12975 
L 86.646858 77.880249 
L 86.96523 77.771925 
L 87.283602 77.817976 
L 87.601974 78.021169 
L 88.238718 78.823264 
L 89.512206 81.142369 
L 90.467322 82.737552 
L 91.104066 83.449544 
L 91.74081 83.955441 
L 92.377554 84.247973 
L 93.014298 84.36124 
L 93.969414 84.247938 
L 95.561274 83.952906 
L 97.789878 83.946761 
L 99.70011 83.938242 
L 101.29197 83.541978 
L 103.838946 82.957151 
L 104.794062 83.015322 
L 106.385922 83.469512 
L 107.977782 83.861493 
L 109.569642 83.997997 
L 111.798246 83.943 
L 114.026851 83.926283 
L 116.255455 83.926283 
L 116.255455 83.926283 
" clip-path="url(#ped9efc979f)" style="fill: none; stroke: #800080; stroke-opacity: 0.25; stroke-linecap: square"/>
   </g>
  </g>
  <g id="axes_8">
   <g id="patch_9">
    <path d="M 120.06 98.358281 
L 203.76 98.358281 
L 203.76 48.858281 
L 120.06 48.858281 
L 120.06 98.358281 
z
" style="fill: none; opacity: 0"/>
   </g>
   <g id="matplotlib.axis_15"/>
   <g id="matplotlib.axis_16"/>
   <g id="line2d_8">
    <path d="M 123.864545 83.926932 
L 133.097334 83.926932 
L 133.415706 79.110191 
L 134.370822 72.443533 
L 135.007566 69.129474 
L 135.325938 68.639364 
L 135.64431 68.622536 
L 135.962682 69.026456 
L 136.599426 70.47114 
L 137.872914 74.347505 
L 139.146402 77.95513 
L 140.101518 79.672407 
L 140.41989 80.230232 
L 140.738262 80.491021 
L 142.01175 80.701281 
L 142.648494 80.479944 
L 142.966866 80.35343 
L 143.285238 80.099085 
L 143.60361 82.88212 
L 143.921982 82.274622 
L 144.558726 80.267422 
L 145.513842 77.197253 
L 146.78733 74.136949 
L 147.424074 72.991073 
L 148.060818 72.722263 
L 148.37919 72.796659 
L 148.697562 73.093 
L 149.334306 74.518325 
L 150.289422 76.841599 
L 151.56291 79.32457 
L 152.836398 81.33084 
L 153.791514 82.405102 
L 154.74663 83.211625 
L 155.701746 83.726977 
L 156.656862 83.937157 
L 158.567094 83.926932 
L 163.979418 83.999184 
L 165.571278 84.282124 
L 166.208022 84.03245 
L 166.844766 83.299518 
L 167.799882 81.567032 
L 169.710114 77.896806 
L 170.346858 77.169287 
L 170.66523 77.002553 
L 170.983602 76.999218 
L 171.301974 77.165818 
L 171.938718 77.943534 
L 172.893834 79.822807 
L 174.167322 82.362373 
L 174.804066 83.239872 
L 175.44081 83.848178 
L 176.077554 84.205571 
L 177.03267 84.374936 
L 177.987786 84.241131 
L 179.261274 83.977077 
L 181.489878 83.927075 
L 199.955455 83.926932 
L 199.955455 83.926932 
" clip-path="url(#p994b1e9e8b)" style="fill: none; stroke: #800080; stroke-opacity: 0.25; stroke-linecap: square"/>
   </g>
  </g>
  <g id="axes_9">
   <g id="patch_10">
    <path d="M 203.76 98.358281 
L 287.46 98.358281 
L 287.46 48.858281 
L 203.76 48.858281 
L 203.76 98.358281 
z
" style="fill: none; opacity: 0"/>
   </g>
   <g id="matplotlib.axis_17"/>
   <g id="matplotlib.axis_18"/>
   <g id="line2d_9">
    <path d="M 207.564545 82.948186 
L 216.797334 82.948186 
L 217.115706 83.638224 
L 217.434078 83.10629 
L 217.75245 82.28265 
L 218.070822 82.044295 
L 218.389194 82.295374 
L 219.662682 84.405024 
L 219.981054 84.750596 
L 220.299426 84.775999 
L 220.617798 84.617493 
L 221.572914 83.49265 
L 222.209658 82.104564 
L 222.846402 81.136099 
L 223.483146 80.822792 
L 223.801518 80.58777 
L 224.11989 80.549432 
L 225.71175 81.298786 
L 226.348494 82.16298 
L 226.985238 83.366515 
L 227.621982 83.837002 
L 227.940354 83.781279 
L 228.258726 82.923328 
L 228.89547 79.427943 
L 229.850586 74.101196 
L 230.48733 71.351215 
L 231.124074 69.432046 
L 232.397562 66.224268 
L 232.715934 65.747668 
L 233.034306 66.119853 
L 233.67105 68.886437 
L 234.626166 72.846401 
L 235.899654 76.944273 
L 236.85477 79.51786 
L 237.809886 81.357431 
L 238.765002 82.537772 
L 239.401746 82.984746 
L 240.03849 83.18526 
L 240.675234 83.160836 
L 241.63035 82.948186 
L 249.58965 82.895333 
L 250.544766 82.527178 
L 252.136626 81.836443 
L 253.091742 81.680727 
L 254.36523 81.654351 
L 255.638718 81.886305 
L 256.593834 81.990776 
L 258.822438 82.027893 
L 261.051042 82.465524 
L 262.961274 82.856468 
L 265.50825 82.947288 
L 267.736854 82.870832 
L 270.28383 82.74432 
L 276.014526 82.813797 
L 283.337083 82.948186 
L 283.655455 82.948186 
L 283.655455 82.948186 
" clip-path="url(#p83cf5add40)" style="fill: none; stroke: #ffa500; stroke-opacity: 0.25; stroke-linecap: square"/>
   </g>
  </g>
  <g id="axes_10">
   <g id="patch_11">
    <path d="M 287.46 98.358281 
L 371.16 98.358281 
L 371.16 48.858281 
L 287.46 48.858281 
L 287.46 98.358281 
z
" style="fill: none; opacity: 0"/>
   </g>
   <g id="matplotlib.axis_19"/>
   <g id="matplotlib.axis_20"/>
   <g id="line2d_10">
    <path d="M 291.264545 82.947028 
L 300.497334 82.947028 
L 300.815706 83.638998 
L 301.134078 83.105648 
L 301.45245 82.280498 
L 301.770822 82.041543 
L 302.089194 82.291142 
L 303.362682 84.40173 
L 303.681054 84.748969 
L 303.999426 84.773527 
L 304.317798 84.614962 
L 305.272914 83.492385 
L 305.909658 82.104551 
L 306.546402 81.137046 
L 307.183146 80.82233 
L 307.501518 80.586022 
L 307.81989 80.551164 
L 309.41175 81.294894 
L 310.048494 82.159509 
L 310.685238 83.380647 
L 311.321982 83.883067 
L 311.640354 83.769174 
L 311.958726 82.819718 
L 313.550586 74.14712 
L 315.77919 67.022952 
L 316.097562 66.115813 
L 316.415934 65.56445 
L 316.734306 65.948046 
L 317.37105 68.796925 
L 318.326166 72.808998 
L 319.599654 76.909816 
L 320.55477 79.443567 
L 321.509886 81.245656 
L 322.465002 82.517171 
L 323.101746 82.990389 
L 323.73849 83.2075 
L 324.375234 83.177273 
L 325.33035 82.947028 
L 333.28965 82.880256 
L 334.244766 82.48893 
L 335.518254 81.85932 
L 336.791742 81.492841 
L 337.746858 81.404962 
L 338.701974 81.547405 
L 339.975462 81.848487 
L 340.930578 81.845927 
L 341.885694 81.835585 
L 343.795926 82.109471 
L 346.979646 82.865426 
L 349.20825 82.937984 
L 367.355455 82.947028 
L 367.355455 82.947028 
" clip-path="url(#pdf773da4cb)" style="fill: none; stroke: #ffa500; stroke-opacity: 0.25; stroke-linecap: square"/>
   </g>
  </g>
  <g id="axes_11">
   <g id="patch_12">
    <path d="M 371.16 98.358281 
L 454.86 98.358281 
L 454.86 48.858281 
L 371.16 48.858281 
L 371.16 98.358281 
z
" style="fill: none; opacity: 0"/>
   </g>
   <g id="matplotlib.axis_21"/>
   <g id="matplotlib.axis_22"/>
   <g id="line2d_11">
    <path d="M 374.964545 82.689714 
L 384.197334 82.689714 
L 384.515706 84.369342 
L 384.834078 84.156345 
L 385.15245 84.272432 
L 385.470822 84.734069 
L 386.425938 86.943671 
L 386.74431 87.064464 
L 387.062682 86.802243 
L 388.017798 85.441148 
L 388.33617 84.722784 
L 388.654542 84.32569 
L 389.291286 82.10037 
L 389.92803 80.541454 
L 391.201518 77.535395 
L 391.51989 77.23751 
L 392.156634 75.896997 
L 392.475006 75.439131 
L 393.11175 74.851465 
L 393.748494 74.098732 
L 394.066866 73.873622 
L 394.385238 73.930141 
L 394.70361 81.611897 
L 395.340354 81.119215 
L 395.977098 80.932271 
L 396.613842 80.719109 
L 397.250586 80.630695 
L 398.524074 80.656386 
L 399.160818 81.33171 
L 399.797562 81.669181 
L 400.115934 81.661522 
L 400.752678 81.289648 
L 401.389422 80.589076 
L 402.344538 79.090287 
L 403.936398 75.795741 
L 404.573142 75.895108 
L 405.209886 76.403968 
L 406.165002 77.392458 
L 407.756862 80.44357 
L 408.711978 82.689714 
L 414.761046 82.620158 
L 415.39779 82.401721 
L 418.58151 80.541759 
L 419.218254 80.287553 
L 419.854998 80.257376 
L 421.128486 80.566665 
L 423.038718 80.942038 
L 423.993834 80.891963 
L 425.267322 80.702342 
L 425.904066 80.823587 
L 427.177554 81.244641 
L 428.451042 81.850634 
L 429.72453 82.49184 
L 430.679646 82.652812 
L 432.90825 82.62908 
L 437.047086 82.355881 
L 440.549178 82.471969 
L 444.369642 82.51102 
L 447.871734 82.689714 
L 451.055455 82.689714 
L 451.055455 82.689714 
" clip-path="url(#p6ec5245857)" style="fill: none; stroke: #56b4e9; stroke-opacity: 0.25; stroke-linecap: square"/>
   </g>
  </g>
  <g id="axes_12">
   <g id="patch_13">
    <path d="M 454.86 98.358281 
L 538.56 98.358281 
L 538.56 48.858281 
L 454.86 48.858281 
L 454.86 98.358281 
z
" style="fill: none; opacity: 0"/>
   </g>
   <g id="matplotlib.axis_23"/>
   <g id="matplotlib.axis_24"/>
   <g id="line2d_12">
    <path d="M 458.664545 82.687049 
L 467.897334 82.687049 
L 468.215706 84.371073 
L 468.534078 84.161261 
L 468.85245 84.277642 
L 469.170822 84.737466 
L 470.125938 86.951968 
L 470.44431 87.073909 
L 470.762682 86.811707 
L 471.717798 85.44518 
L 472.03617 84.725811 
L 472.354542 84.330884 
L 472.991286 82.107049 
L 473.62803 80.547237 
L 474.901518 77.538042 
L 475.21989 77.243539 
L 475.856634 75.903506 
L 476.175006 75.443818 
L 476.81175 74.858865 
L 477.448494 74.105895 
L 477.766866 73.808811 
L 478.085238 73.887896 
L 478.40361 81.485 
L 479.040354 81.134993 
L 480.313842 80.688867 
L 482.224074 80.704298 
L 482.860818 81.338033 
L 483.497562 81.645695 
L 483.815934 81.623048 
L 484.452678 81.201459 
L 485.089422 80.5105 
L 486.044538 78.992534 
L 487.636398 75.695876 
L 487.95477 75.86802 
L 488.273142 75.910583 
L 488.591514 76.296382 
L 489.228258 76.732295 
L 490.183374 77.999599 
L 492.411978 82.687049 
L 498.461046 82.608668 
L 499.09779 82.373626 
L 500.052906 81.769662 
L 502.599882 80.16302 
L 503.236626 79.968216 
L 503.87337 79.989917 
L 507.05709 80.702411 
L 508.012206 80.585746 
L 508.967322 80.431675 
L 509.922438 80.642341 
L 511.514298 81.345753 
L 514.061274 82.598715 
L 515.653134 82.672225 
L 524.885922 82.687049 
L 534.755455 82.687049 
L 534.755455 82.687049 
" clip-path="url(#pf9e65d21d0)" style="fill: none; stroke: #56b4e9; stroke-opacity: 0.25; stroke-linecap: square"/>
   </g>
  </g>
  <g id="axes_13">
   <g id="patch_14">
    <path d="M 36.36 128.058281 
L 120.06 128.058281 
L 120.06 78.558281 
L 36.36 78.558281 
L 36.36 128.058281 
z
" style="fill: none; opacity: 0"/>
   </g>
   <g id="matplotlib.axis_25"/>
   <g id="matplotlib.axis_26"/>
   <g id="line2d_13">
    <path d="M 40.164545 111.221746 
L 43.666638 111.112859 
L 47.16873 110.759796 
L 49.078962 110.392823 
L 51.94431 109.721844 
L 52.899426 109.702757 
L 54.172914 109.919013 
L 56.083146 110.520923 
L 57.675006 110.976244 
L 59.266866 111.19365 
L 60.221982 111.182085 
L 61.177098 110.891405 
L 62.768958 110.240042 
L 64.042446 110.039266 
L 64.997562 110.114334 
L 65.952678 110.477564 
L 67.86291 111.343818 
L 69.45477 111.695135 
L 72.001746 112.214055 
L 77.732442 113.584024 
L 79.324302 113.591349 
L 80.59779 113.441991 
L 81.552906 113.073707 
L 85.691742 111.312323 
L 87.283602 111.232911 
L 97.153134 111.223613 
L 116.255455 111.221746 
L 116.255455 111.221746 
" clip-path="url(#p1b6b85d598)" style="fill: none; stroke: #800080; stroke-opacity: 0.5; stroke-linecap: square"/>
   </g>
  </g>
  <g id="axes_14">
   <g id="patch_15">
    <path d="M 120.06 128.058281 
L 203.76 128.058281 
L 203.76 78.558281 
L 120.06 78.558281 
L 120.06 128.058281 
z
" style="fill: none; opacity: 0"/>
   </g>
   <g id="matplotlib.axis_27"/>
   <g id="matplotlib.axis_28"/>
   <g id="line2d_14">
    <path d="M 123.864545 111.223075 
L 127.048266 111.31239 
L 130.550358 111.692938 
L 132.778962 112.1505 
L 135.64431 112.937175 
L 136.599426 112.976017 
L 137.872914 112.75092 
L 139.464774 112.204695 
L 141.375006 111.541755 
L 142.966866 111.27945 
L 143.921982 111.281628 
L 144.558726 111.437915 
L 147.424074 112.553785 
L 148.37919 112.54163 
L 149.334306 112.273299 
L 152.518026 110.843482 
L 156.975234 109.716123 
L 160.477326 108.666061 
L 162.069186 108.484247 
L 163.661046 108.545127 
L 164.616162 108.754395 
L 165.88965 109.370577 
L 168.754998 110.890074 
L 170.028486 111.169661 
L 172.25709 111.215432 
L 199.955455 111.223075 
L 199.955455 111.223075 
" clip-path="url(#p712d62f7e2)" style="fill: none; stroke: #800080; stroke-opacity: 0.5; stroke-linecap: square"/>
   </g>
  </g>
  <g id="axes_15">
   <g id="patch_16">
    <path d="M 203.76 128.058281 
L 287.46 128.058281 
L 287.46 78.558281 
L 203.76 78.558281 
L 203.76 128.058281 
z
" style="fill: none; opacity: 0"/>
   </g>
   <g id="matplotlib.axis_29"/>
   <g id="matplotlib.axis_30"/>
   <g id="line2d_15">
    <path d="M 207.564545 111.009705 
L 214.250358 111.109161 
L 220.299426 111.274727 
L 224.438262 111.028209 
L 227.940354 111.152849 
L 228.577098 110.842422 
L 229.532214 110.233093 
L 229.850586 110.151847 
L 230.168958 110.226427 
L 230.48733 110.491196 
L 231.124074 111.580128 
L 231.760818 113.407675 
L 232.715934 116.994463 
L 234.307794 123.349526 
L 234.944538 125.022533 
L 235.26291 125.505642 
L 235.581282 125.76404 
L 235.899654 125.808281 
L 236.218026 125.636891 
L 236.536398 125.259986 
L 237.173142 124.034257 
L 238.128258 121.574194 
L 240.03849 116.516555 
L 240.993606 114.637578 
L 241.948722 113.250923 
L 242.903838 112.298186 
L 243.858954 111.695795 
L 244.81407 111.352692 
L 246.087558 111.187713 
L 248.316162 111.298148 
L 250.863138 111.250005 
L 255.001974 111.021722 
L 275.696154 111.009705 
L 283.655455 111.009705 
L 283.655455 111.009705 
" clip-path="url(#pa2f278559c)" style="fill: none; stroke: #ffa500; stroke-opacity: 0.5; stroke-linecap: square"/>
   </g>
  </g>
  <g id="axes_16">
   <g id="patch_17">
    <path d="M 287.46 128.058281 
L 371.16 128.058281 
L 371.16 78.558281 
L 287.46 78.558281 
L 287.46 128.058281 
z
" style="fill: none; opacity: 0"/>
   </g>
   <g id="matplotlib.axis_31"/>
   <g id="matplotlib.axis_32"/>
   <g id="line2d_16">
    <path d="M 291.264545 111.008673 
L 297.631986 110.901828 
L 304.63617 110.765828 
L 307.501518 111.003767 
L 309.093378 110.909381 
L 311.321982 110.771116 
L 311.958726 110.989737 
L 313.550586 111.905298 
L 313.868958 111.792483 
L 314.18733 111.491799 
L 314.824074 110.369737 
L 315.460818 108.488445 
L 316.415934 104.612713 
L 318.326166 95.973751 
L 318.96291 94.460597 
L 319.281282 94.133983 
L 319.599654 94.063085 
L 319.918026 94.238886 
L 320.236398 94.642837 
L 320.873142 95.989931 
L 321.828258 98.799802 
L 323.73849 104.604895 
L 324.693606 106.766717 
L 325.648722 108.365886 
L 326.603838 109.472675 
L 327.558954 110.162566 
L 328.51407 110.562039 
L 329.469186 110.731679 
L 331.061046 110.699878 
L 332.971278 110.629882 
L 335.199882 110.798882 
L 337.428486 110.977389 
L 342.204066 111.007841 
L 367.355455 111.008673 
L 367.355455 111.008673 
" clip-path="url(#p57df9b858c)" style="fill: none; stroke: #ffa500; stroke-opacity: 0.5; stroke-linecap: square"/>
   </g>
  </g>
  <g id="axes_17">
   <g id="patch_18">
    <path d="M 371.16 128.058281 
L 454.86 128.058281 
L 454.86 78.558281 
L 371.16 78.558281 
L 371.16 128.058281 
z
" style="fill: none; opacity: 0"/>
   </g>
   <g id="matplotlib.axis_33"/>
   <g id="matplotlib.axis_34"/>
   <g id="line2d_17">
    <path d="M 374.964545 111.149595 
L 376.874777 111.201926 
L 377.829893 111.511324 
L 381.96873 113.045848 
L 384.834078 113.3611 
L 387.381054 113.716585 
L 388.654542 113.604419 
L 390.246402 113.131507 
L 392.475006 112.373203 
L 393.748494 112.159063 
L 395.021982 112.13287 
L 396.29547 112.354671 
L 398.205702 112.8012 
L 399.47919 112.86726 
L 400.434306 112.699874 
L 402.026166 111.979523 
L 404.25477 111.090696 
L 405.528258 110.894919 
L 407.756862 110.850847 
L 412.21407 111.227611 
L 414.124302 111.757378 
L 415.716162 112.112189 
L 416.671278 112.083771 
L 417.944766 111.85428 
L 420.810114 111.181842 
L 424.312206 111.149595 
L 451.055455 111.149595 
L 451.055455 111.149595 
" clip-path="url(#pfb92680fb5)" style="fill: none; stroke: #56b4e9; stroke-opacity: 0.5; stroke-linecap: square"/>
   </g>
  </g>
  <g id="axes_18">
   <g id="patch_19">
    <path d="M 454.86 128.058281 
L 538.56 128.058281 
L 538.56 78.558281 
L 454.86 78.558281 
L 454.86 128.058281 
z
" style="fill: none; opacity: 0"/>
   </g>
   <g id="matplotlib.axis_35"/>
   <g id="matplotlib.axis_36"/>
   <g id="line2d_18">
    <path d="M 458.664545 111.148334 
L 460.574777 111.087153 
L 461.211521 110.910236 
L 462.48501 110.309869 
L 465.66873 109.024164 
L 471.399426 108.269435 
L 472.672914 108.456654 
L 473.946402 108.901884 
L 475.856634 109.633043 
L 477.130122 109.962222 
L 478.721982 110.062108 
L 479.99547 109.823303 
L 482.224074 109.273054 
L 483.497562 109.259225 
L 484.452678 109.51565 
L 486.36291 110.496728 
L 487.95477 111.181666 
L 489.228258 111.425357 
L 491.13849 111.492777 
L 494.32221 111.336265 
L 495.91407 111.079166 
L 497.824302 110.488474 
L 499.09779 110.121197 
L 500.052906 110.069454 
L 501.326394 110.281099 
L 504.191742 111.071333 
L 505.46523 111.138136 
L 518.836854 111.148334 
L 534.755455 111.148334 
L 534.755455 111.148334 
" clip-path="url(#pdb9330c166)" style="fill: none; stroke: #56b4e9; stroke-opacity: 0.5; stroke-linecap: square"/>
   </g>
  </g>
  <g id="axes_19">
   <g id="patch_20">
    <path d="M 36.36 157.758281 
L 120.06 157.758281 
L 120.06 108.258281 
L 36.36 108.258281 
L 36.36 157.758281 
z
" style="fill: none; opacity: 0"/>
   </g>
   <g id="matplotlib.axis_37"/>
   <g id="matplotlib.axis_38"/>
   <g id="line2d_19">
    <path d="M 40.164545 143.595928 
L 42.074777 143.521763 
L 42.711521 143.249382 
L 46.850358 140.163031 
L 47.487102 139.994012 
L 48.442218 140.03131 
L 49.397334 140.186218 
L 49.715706 138.531205 
L 50.670822 131.828637 
L 51.307566 128.4941 
L 51.625938 127.989505 
L 51.94431 127.955144 
L 52.262682 128.348636 
L 52.899426 129.792012 
L 54.172914 133.709515 
L 55.446402 137.411724 
L 56.71989 139.834844 
L 57.038262 140.133894 
L 58.31175 140.479562 
L 58.948494 140.314141 
L 59.266866 140.219065 
L 59.90361 139.755872 
L 60.221982 139.361508 
L 60.858726 137.815833 
L 61.813842 135.415641 
L 63.08733 133.274664 
L 63.724074 132.579403 
L 64.360818 132.316432 
L 64.67919 132.359087 
L 64.997562 132.643231 
L 65.634306 134.119939 
L 66.589422 136.587874 
L 67.86291 139.20827 
L 68.818026 140.763853 
L 70.091514 142.385677 
L 71.683374 144.033179 
L 72.63849 144.745095 
L 73.911978 145.405428 
L 75.185466 145.855714 
L 76.777326 146.112606 
L 78.687558 146.204318 
L 80.916162 146.092715 
L 81.552906 145.883669 
L 82.18965 145.447008 
L 82.826394 144.567244 
L 83.78151 142.582207 
L 85.37337 139.050319 
L 86.010114 137.972559 
L 86.646858 137.329046 
L 86.96523 137.215662 
L 87.283602 137.259673 
L 87.601974 137.460781 
L 88.238718 138.261812 
L 89.512206 140.581099 
L 90.467322 142.186508 
L 91.104066 142.923916 
L 91.74081 143.456988 
L 92.377554 143.778854 
L 93.014298 143.922723 
L 93.969414 143.859314 
L 95.879646 143.603094 
L 99.70011 143.489831 
L 100.973598 143.183385 
L 102.247086 142.872039 
L 104.794062 142.649752 
L 106.385922 143.103943 
L 107.977782 143.499961 
L 109.569642 143.648564 
L 111.798246 143.610479 
L 114.345223 143.595928 
L 116.255455 143.595928 
L 116.255455 143.595928 
" clip-path="url(#p1a9c3206ad)" style="fill: none; stroke: #800080; stroke-opacity: 0.75; stroke-linecap: square"/>
   </g>
  </g>
  <g id="axes_20">
   <g id="patch_21">
    <path d="M 120.06 157.758281 
L 203.76 157.758281 
L 203.76 108.258281 
L 120.06 108.258281 
L 120.06 157.758281 
z
" style="fill: none; opacity: 0"/>
   </g>
   <g id="matplotlib.axis_39"/>
   <g id="matplotlib.axis_40"/>
   <g id="line2d_20">
    <path d="M 123.864545 143.595391 
L 125.774777 143.521994 
L 126.411521 143.269749 
L 127.68501 142.367852 
L 130.231986 140.231692 
L 131.187102 139.822314 
L 132.142218 139.83312 
L 133.097334 140.084316 
L 133.415706 138.460248 
L 134.370822 131.857267 
L 135.007566 128.587163 
L 135.325938 128.117928 
L 135.64431 128.123922 
L 135.962682 128.54409 
L 136.599426 129.998325 
L 138.191286 134.713313 
L 139.146402 137.265763 
L 140.101518 138.800243 
L 140.41989 139.294636 
L 140.738262 139.486482 
L 141.375006 139.519783 
L 141.693378 139.570945 
L 142.648494 139.15843 
L 142.966866 138.990764 
L 143.921982 137.975623 
L 144.558726 136.409896 
L 145.19547 134.847193 
L 145.832214 133.781625 
L 146.78733 132.603523 
L 147.424074 132.03672 
L 148.060818 131.802299 
L 148.37919 131.861908 
L 148.697562 132.126472 
L 149.334306 133.431029 
L 150.289422 135.512521 
L 152.199654 138.850751 
L 153.473142 140.74656 
L 154.74663 142.263068 
L 155.701746 143.042123 
L 156.656862 143.422312 
L 157.611978 143.457141 
L 158.567094 143.257906 
L 161.750814 142.40717 
L 163.024302 142.415621 
L 164.29779 142.699353 
L 165.571278 143.128472 
L 165.88965 143.106931 
L 166.526394 142.712608 
L 167.163138 141.878968 
L 168.118254 140.104807 
L 169.391742 137.732347 
L 170.028486 136.841887 
L 170.66523 136.392914 
L 170.983602 136.391694 
L 171.301974 136.554728 
L 171.938718 137.340008 
L 172.893834 139.218752 
L 174.167322 141.772121 
L 174.804066 142.674671 
L 175.759182 143.542592 
L 176.395926 143.820408 
L 177.03267 143.930978 
L 177.987786 143.849428 
L 179.261274 143.63225 
L 181.80825 143.594082 
L 199.955455 143.595391 
L 199.955455 143.595391 
" clip-path="url(#pda3c2c1b2d)" style="fill: none; stroke: #800080; stroke-opacity: 0.75; stroke-linecap: square"/>
   </g>
  </g>
  <g id="axes_21">
   <g id="patch_22">
    <path d="M 203.76 157.758281 
L 287.46 157.758281 
L 287.46 108.258281 
L 203.76 108.258281 
L 203.76 157.758281 
z
" style="fill: none; opacity: 0"/>
   </g>
   <g id="matplotlib.axis_41"/>
   <g id="matplotlib.axis_42"/>
   <g id="line2d_21">
    <path d="M 207.564545 141.187667 
L 210.111521 141.288802 
L 213.295242 141.981706 
L 214.56873 142.187335 
L 216.16059 142.112968 
L 216.797334 142.00069 
L 217.115706 142.930325 
L 217.434078 142.41398 
L 217.75245 141.604031 
L 218.070822 141.37819 
L 218.389194 141.642568 
L 219.662682 143.798666 
L 219.981054 144.146185 
L 220.299426 144.171641 
L 220.617798 144.001335 
L 221.572914 142.831865 
L 222.209658 141.43506 
L 222.846402 140.4627 
L 223.483146 140.149964 
L 223.801518 139.917217 
L 224.11989 139.882065 
L 225.71175 140.698068 
L 226.348494 141.589204 
L 226.985238 142.785346 
L 227.621982 143.318471 
L 227.940354 143.302759 
L 228.258726 142.459615 
L 229.213842 137.080483 
L 229.850586 133.791022 
L 230.48733 131.656189 
L 230.805702 131.14868 
L 231.124074 131.021696 
L 231.442446 131.044002 
L 232.07919 131.62126 
L 232.397562 131.971848 
L 232.715934 132.63726 
L 233.034306 134.159817 
L 234.626166 145.558873 
L 235.26291 148.4824 
L 235.899654 150.31896 
L 236.536398 151.287471 
L 237.173142 151.427783 
L 237.809886 151.21449 
L 238.765002 150.39511 
L 241.311978 147.546102 
L 243.22221 146.220464 
L 245.132442 145.050343 
L 247.042674 144.060971 
L 249.908022 142.706689 
L 252.136626 141.209352 
L 253.091742 140.986358 
L 254.36523 140.922155 
L 255.638718 141.147419 
L 256.593834 141.250753 
L 258.185694 141.141687 
L 260.414298 141.050609 
L 265.189878 141.230304 
L 267.736854 141.234965 
L 270.920574 141.129089 
L 283.655455 141.187667 
L 283.655455 141.187667 
" clip-path="url(#pe6527fb284)" style="fill: none; stroke: #ffa500; stroke-opacity: 0.75; stroke-linecap: square"/>
   </g>
  </g>
  <g id="axes_22">
   <g id="patch_23">
    <path d="M 287.46 157.758281 
L 371.16 157.758281 
L 371.16 108.258281 
L 287.46 108.258281 
L 287.46 157.758281 
z
" style="fill: none; opacity: 0"/>
   </g>
   <g id="matplotlib.axis_43"/>
   <g id="matplotlib.axis_44"/>
   <g id="line2d_22">
    <path d="M 291.264545 141.18554 
L 293.493149 141.278592 
L 294.766638 141.682071 
L 298.26873 142.712322 
L 299.86059 142.507521 
L 300.497334 142.333773 
L 300.815706 143.219048 
L 301.134078 142.659625 
L 301.45245 141.809359 
L 301.770822 141.541233 
L 302.089194 141.76873 
L 303.362682 143.813497 
L 303.681054 144.154375 
L 303.999426 144.183558 
L 304.317798 144.041202 
L 305.272914 142.974775 
L 305.909658 141.612168 
L 306.546402 140.646844 
L 307.183146 140.334618 
L 307.501518 140.093195 
L 307.81989 140.048822 
L 309.41175 140.690065 
L 310.048494 141.521 
L 310.685238 142.73997 
L 311.321982 143.286637 
L 311.640354 143.185703 
L 311.958726 142.250379 
L 312.913842 136.494405 
L 313.868958 131.581886 
L 314.505702 127.958474 
L 315.77919 118.440395 
L 316.415934 113.516139 
L 316.734306 112.05061 
L 317.052678 111.497732 
L 318.326166 111.075837 
L 318.644538 111.32279 
L 318.96291 111.913483 
L 319.599654 113.930752 
L 320.236398 117.014902 
L 321.191514 122.901348 
L 323.101746 135.23975 
L 324.056862 139.827103 
L 324.693606 142.097914 
L 325.648722 144.694793 
L 326.285466 145.820057 
L 326.92221 146.503835 
L 327.558954 146.852729 
L 328.195698 146.935123 
L 328.832442 146.778302 
L 329.469186 146.438499 
L 330.742674 145.432229 
L 332.971278 143.473795 
L 334.244766 142.31982 
L 335.199882 141.554753 
L 336.154998 141.118896 
L 337.110114 140.872941 
L 338.06523 140.835797 
L 339.020346 141.057115 
L 339.975462 141.259338 
L 340.930578 141.253034 
L 343.477554 141.01797 
L 345.387786 141.082654 
L 347.298018 141.169881 
L 356.849178 141.18554 
L 367.355455 141.18554 
L 367.355455 141.18554 
" clip-path="url(#p1d49d4c5d9)" style="fill: none; stroke: #ffa500; stroke-opacity: 0.75; stroke-linecap: square"/>
   </g>
  </g>
  <g id="axes_23">
   <g id="patch_24">
    <path d="M 371.16 157.758281 
L 454.86 157.758281 
L 454.86 108.258281 
L 371.16 108.258281 
L 371.16 157.758281 
z
" style="fill: none; opacity: 0"/>
   </g>
   <g id="matplotlib.axis_45"/>
   <g id="matplotlib.axis_46"/>
   <g id="line2d_23">
    <path d="M 374.964545 143.476831 
L 376.874777 143.58529 
L 377.511521 143.95155 
L 378.78501 145.150559 
L 380.695242 147.044557 
L 382.287102 148.723609 
L 383.242218 149.583715 
L 384.197334 150.847472 
L 384.515706 143.373897 
L 384.834078 143.164221 
L 385.15245 143.281443 
L 385.470822 143.730552 
L 386.425938 145.920431 
L 386.74431 146.042218 
L 387.062682 145.768084 
L 388.017798 144.36955 
L 388.33617 143.639855 
L 388.654542 143.237416 
L 389.291286 141.009035 
L 389.92803 139.443468 
L 390.883146 137.045078 
L 391.201518 136.5036 
L 391.51989 136.228962 
L 392.156634 134.945126 
L 392.475006 134.540821 
L 393.11175 134.040369 
L 393.748494 133.359363 
L 394.066866 133.186031 
L 394.385238 133.271164 
L 394.70361 144.276426 
L 395.340354 142.797585 
L 396.932214 140.842276 
L 397.568958 140.596411 
L 397.88733 140.485835 
L 398.205702 140.241594 
L 398.524074 139.857134 
L 399.47919 140.411564 
L 399.797562 140.497177 
L 400.115934 140.410487 
L 401.07105 139.536512 
L 402.026166 138.095546 
L 402.66291 136.926787 
L 403.936398 134.368099 
L 404.573142 134.073395 
L 406.165002 133.310894 
L 408.075234 133.514375 
L 408.711978 133.861933 
L 409.03035 133.469776 
L 409.667094 133.15772 
L 410.303838 133.21459 
L 411.258954 133.589625 
L 412.21407 134.337563 
L 413.487558 135.748895 
L 416.034534 138.85084 
L 417.308022 139.567494 
L 418.58151 139.795739 
L 420.810114 140.007627 
L 422.720346 140.473696 
L 423.675462 140.499177 
L 425.267322 140.323406 
L 425.904066 140.574163 
L 427.177554 141.30039 
L 428.451042 142.240971 
L 429.72453 143.186658 
L 430.361274 143.384897 
L 431.953134 143.469388 
L 433.544994 142.826459 
L 434.181738 142.692738 
L 434.50011 142.557206 
L 435.773598 142.590421 
L 436.728714 142.429957 
L 437.365458 143.00311 
L 440.549178 143.098749 
L 443.732898 143.138685 
L 448.190107 143.476831 
L 451.055455 143.476831 
L 451.055455 143.476831 
" clip-path="url(#p38a671008b)" style="fill: none; stroke: #56b4e9; stroke-opacity: 0.75; stroke-linecap: square"/>
   </g>
  </g>
  <g id="axes_24">
   <g id="patch_25">
    <path d="M 454.86 157.758281 
L 538.56 157.758281 
L 538.56 108.258281 
L 454.86 108.258281 
L 454.86 157.758281 
z
" style="fill: none; opacity: 0"/>
   </g>
   <g id="matplotlib.axis_47"/>
   <g id="matplotlib.axis_48"/>
   <g id="line2d_24">
    <path d="M 458.664545 143.473001 
L 460.256405 143.512095 
L 460.893149 143.754871 
L 461.848266 144.721785 
L 466.305474 150.002369 
L 467.26059 150.995252 
L 467.897334 151.843155 
L 468.215706 144.397122 
L 468.534078 144.191826 
L 468.85245 144.314161 
L 469.170822 144.790267 
L 470.125938 147.018022 
L 470.44431 147.151668 
L 470.762682 146.90297 
L 471.717798 145.589602 
L 472.03617 144.88863 
L 472.354542 144.50068 
L 472.991286 142.288604 
L 473.62803 140.716753 
L 474.901518 137.618327 
L 475.21989 137.285197 
L 475.856634 135.833086 
L 476.175006 135.295988 
L 476.81175 134.589737 
L 477.448494 133.741317 
L 477.766866 133.331838 
L 478.085238 133.357123 
L 478.40361 144.123158 
L 479.040354 142.720958 
L 479.677098 141.697433 
L 480.632214 140.949613 
L 481.905702 140.903943 
L 482.224074 140.694022 
L 483.17919 141.761675 
L 483.815934 142.083758 
L 484.452678 141.842701 
L 485.089422 141.274025 
L 486.044538 139.841373 
L 487.636398 136.248185 
L 487.95477 136.111704 
L 490.183374 133.081219 
L 491.775234 132.127169 
L 492.093606 132.057288 
L 492.411978 132.146751 
L 492.73035 131.615398 
L 493.048722 131.313477 
L 493.685466 131.168833 
L 494.640582 131.487162 
L 495.595698 132.220915 
L 496.550814 133.323636 
L 497.824302 135.218473 
L 499.416162 137.578339 
L 500.052906 138.250326 
L 501.008022 138.895883 
L 501.963138 139.177807 
L 503.554998 139.343976 
L 505.46523 139.83753 
L 506.738718 140.088791 
L 507.693834 140.053859 
L 508.967322 139.889031 
L 509.922438 140.314256 
L 511.83267 141.730225 
L 513.106158 142.826046 
L 514.061274 143.342648 
L 515.334762 143.450318 
L 534.755455 143.473001 
L 534.755455 143.473001 
" clip-path="url(#p7442a329cb)" style="fill: none; stroke: #56b4e9; stroke-opacity: 0.75; stroke-linecap: square"/>
   </g>
  </g>
  <g id="text_3">
   <text style="font-size: 11px; font-family: 'Helvetica', 'Computer Modern Sans Serif', 'DejaVu Sans', 'Bitstream Vera Sans', 'Lucida Grande', 'Verdana', 'Geneva', 'Lucid', 'Arial', 'Avant Garde', sans-serif; text-anchor: start; fill: #800080" x="84.96" y="15.558281" transform="rotate(-0 84.96 15.558281)">Norepinephrine</text>
  </g>
  <g id="text_4">
   <text style="font-size: 11px; font-family: 'Helvetica', 'Computer Modern Sans Serif', 'DejaVu Sans', 'Bitstream Vera Sans', 'Lucida Grande', 'Verdana', 'Geneva', 'Lucid', 'Arial', 'Avant Garde', sans-serif; text-anchor: start; fill: #ffa500" x="259.92" y="15.558281" transform="rotate(-0 259.92 15.558281)">Dopamine</text>
  </g>
  <g id="text_5">
   <text style="font-size: 11px; font-family: 'Helvetica', 'Computer Modern Sans Serif', 'DejaVu Sans', 'Bitstream Vera Sans', 'Lucida Grande', 'Verdana', 'Geneva', 'Lucid', 'Arial', 'Avant Garde', sans-serif; text-anchor: start; fill: #56b4e9" x="434.88" y="15.558281" transform="rotate(-0 434.88 15.558281)">Pupil</text>
  </g>
  <g id="text_6">
   <text style="font-size: 9px; font-family: 'Helvetica', 'Computer Modern Sans Serif', 'DejaVu Sans', 'Bitstream Vera Sans', 'Lucida Grande', 'Verdana', 'Geneva', 'Lucid', 'Arial', 'Avant Garde', sans-serif; text-anchor: start" x="7.2" y="47.958281" transform="rotate(-0 7.2 47.958281)">Data</text>
  </g>
  <g id="text_7">
   <text style="font-size: 9px; font-family: 'Helvetica', 'Computer Modern Sans Serif', 'DejaVu Sans', 'Bitstream Vera Sans', 'Lucida Grande', 'Verdana', 'Geneva', 'Lucid', 'Arial', 'Avant Garde', sans-serif; text-anchor: start; opacity: 0.25" x="7.2" y="67.758281" transform="rotate(-0 7.2 67.758281)">Task events only</text>
  </g>
  <g id="text_8">
   <text style="font-size: 9px; font-family: 'Helvetica', 'Computer Modern Sans Serif', 'DejaVu Sans', 'Bitstream Vera Sans', 'Lucida Grande', 'Verdana', 'Geneva', 'Lucid', 'Arial', 'Avant Garde', sans-serif; text-anchor: start; opacity: 0.5" x="7.2" y="101.958281" transform="rotate(-0 7.2 101.958281)">Reward only</text>
  </g>
  <g id="text_9">
   <text style="font-size: 9px; font-family: 'Helvetica', 'Computer Modern Sans Serif', 'DejaVu Sans', 'Bitstream Vera Sans', 'Lucida Grande', 'Verdana', 'Geneva', 'Lucid', 'Arial', 'Avant Garde', sans-serif; text-anchor: start; opacity: 0.75" x="7.2" y="127.158281" transform="rotate(-0 7.2 127.158281)">Full model</text>
  </g>
 </g>
 <defs>
  <clipPath id="p8c436526f7">
   <rect x="36.36" y="19.158281" width="83.7" height="49.5"/>
  </clipPath>
  <clipPath id="p49f4d4f654">
   <rect x="120.06" y="19.158281" width="83.7" height="49.5"/>
  </clipPath>
  <clipPath id="p191508535c">
   <rect x="203.76" y="19.158281" width="83.7" height="49.5"/>
  </clipPath>
  <clipPath id="pe26706dcd3">
   <rect x="287.46" y="19.158281" width="83.7" height="49.5"/>
  </clipPath>
  <clipPath id="pfd4e792d5b">
   <rect x="371.16" y="19.158281" width="83.7" height="49.5"/>
  </clipPath>
  <clipPath id="p68dfef75a1">
   <rect x="454.86" y="19.158281" width="83.7" height="49.5"/>
  </clipPath>
  <clipPath id="ped9efc979f">
   <rect x="36.36" y="48.858281" width="83.7" height="49.5"/>
  </clipPath>
  <clipPath id="p994b1e9e8b">
   <rect x="120.06" y="48.858281" width="83.7" height="49.5"/>
  </clipPath>
  <clipPath id="p83cf5add40">
   <rect x="203.76" y="48.858281" width="83.7" height="49.5"/>
  </clipPath>
  <clipPath id="pdf773da4cb">
   <rect x="287.46" y="48.858281" width="83.7" height="49.5"/>
  </clipPath>
  <clipPath id="p6ec5245857">
   <rect x="371.16" y="48.858281" width="83.7" height="49.5"/>
  </clipPath>
  <clipPath id="pf9e65d21d0">
   <rect x="454.86" y="48.858281" width="83.7" height="49.5"/>
  </clipPath>
  <clipPath id="p1b6b85d598">
   <rect x="36.36" y="78.558281" width="83.7" height="49.5"/>
  </clipPath>
  <clipPath id="p712d62f7e2">
   <rect x="120.06" y="78.558281" width="83.7" height="49.5"/>
  </clipPath>
  <clipPath id="pa2f278559c">
   <rect x="203.76" y="78.558281" width="83.7" height="49.5"/>
  </clipPath>
  <clipPath id="p57df9b858c">
   <rect x="287.46" y="78.558281" width="83.7" height="49.5"/>
  </clipPath>
  <clipPath id="pfb92680fb5">
   <rect x="371.16" y="78.558281" width="83.7" height="49.5"/>
  </clipPath>
  <clipPath id="pdb9330c166">
   <rect x="454.86" y="78.558281" width="83.7" height="49.5"/>
  </clipPath>
  <clipPath id="p1a9c3206ad">
   <rect x="36.36" y="108.258281" width="83.7" height="49.5"/>
  </clipPath>
  <clipPath id="pda3c2c1b2d">
   <rect x="120.06" y="108.258281" width="83.7" height="49.5"/>
  </clipPath>
  <clipPath id="pe6527fb284">
   <rect x="203.76" y="108.258281" width="83.7" height="49.5"/>
  </clipPath>
  <clipPath id="p1d49d4c5d9">
   <rect x="287.46" y="108.258281" width="83.7" height="49.5"/>
  </clipPath>
  <clipPath id="p38a671008b">
   <rect x="371.16" y="108.258281" width="83.7" height="49.5"/>
  </clipPath>
  <clipPath id="p7442a329cb">
   <rect x="454.86" y="108.258281" width="83.7" height="49.5"/>
  </clipPath>
 </defs>
</svg>
