<?xml version="1.0" encoding="utf-8" standalone="no"?>
<!DOCTYPE svg PUBLIC "-//W3C//DTD SVG 1.1//EN"
  "http://www.w3.org/Graphics/SVG/1.1/DTD/svg11.dtd">
<svg xmlns:xlink="http://www.w3.org/1999/xlink" width="317.456344pt" height="225.55pt" viewBox="0 0 317.456344 225.55" xmlns="http://www.w3.org/2000/svg" version="1.1">
 <metadata>
  <rdf:RDF xmlns:dc="http://purl.org/dc/elements/1.1/" xmlns:cc="http://creativecommons.org/ns#" xmlns:rdf="http://www.w3.org/1999/02/22-rdf-syntax-ns#">
   <cc:Work>
    <dc:type rdf:resource="http://purl.org/dc/dcmitype/StillImage"/>
    <dc:date>2025-10-07T17:59:04.465389</dc:date>
    <dc:format>image/svg+xml</dc:format>
    <dc:creator>
     <cc:Agent>
      <dc:title>Matplotlib v3.10.6, https://matplotlib.org/</dc:title>
     </cc:Agent>
    </dc:creator>
   </cc:Work>
  </rdf:RDF>
 </metadata>
 <defs>
  <style type="text/css">*{stroke-linejoin: round; stroke-linecap: butt}</style>
 </defs>
 <g id="figure_1">
  <g id="patch_1">
   <path d="M 0 225.55 
L 317.456344 225.55 
L 317.456344 0 
L 0 0 
L 0 225.55 
z
" style="fill: none"/>
  </g>
  <g id="axes_1">
   <g id="patch_2">
    <path d="M 72.656344 180.340312 
L 295.856344 180.340312 
L 295.856344 14.020312 
L 72.656344 14.020312 
L 72.656344 180.340312 
z
" style="fill: none"/>
   </g>
   <g id="FillBetweenPolyCollection_1">
    <defs>
     <path id="m3b63751ffb" d="M 82.801798 -73.8167 
L 82.801798 -65.886016 
L 84.506917 -65.94505 
L 86.212035 -63.615279 
L 87.917154 -63.480117 
L 89.622272 -65.901691 
L 91.32739 -67.811552 
L 93.032509 -68.043024 
L 94.737627 -65.533865 
L 96.442746 -63.997932 
L 98.147864 -63.845015 
L 99.852982 -62.950161 
L 101.558101 -63.80523 
L 103.263219 -65.422929 
L 104.968338 -64.269161 
L 106.673456 -61.890744 
L 108.378574 -60.704682 
L 110.083693 -59.705003 
L 111.788811 -60.080211 
L 113.49393 -61.98461 
L 115.199048 -64.055294 
L 116.904167 -62.628662 
L 118.609285 -62.15648 
L 120.314403 -62.872676 
L 122.019522 -62.292422 
L 123.72464 -64.242717 
L 125.429759 -64.613858 
L 127.134877 -64.705105 
L 128.839995 -64.329095 
L 130.545114 -63.550589 
L 132.250232 -64.300618 
L 133.955351 -67.062481 
L 135.660469 -71.534053 
L 137.365587 -76.309873 
L 139.070706 -82.435064 
L 140.775824 -92.601877 
L 142.480943 -101.94587 
L 144.186061 -108.478539 
L 145.89118 -116.930334 
L 147.596298 -131.401377 
L 149.301416 -143.058188 
L 151.006535 -147.990619 
L 152.711653 -148.920849 
L 154.416772 -153.21202 
L 156.12189 -160.860196 
L 157.827008 -160.63225 
L 159.532127 -158.441343 
L 161.237245 -158.217247 
L 162.942364 -159.66022 
L 164.647482 -155.448699 
L 166.3526 -149.253921 
L 168.057719 -139.776724 
L 169.762837 -129.724874 
L 171.467956 -120.376998 
L 173.173074 -105.406293 
L 174.878192 -92.24498 
L 176.583311 -85.086285 
L 178.288429 -77.525309 
L 179.993548 -65.988782 
L 181.698666 -57.562933 
L 183.403785 -67.625215 
L 185.108903 -74.334002 
L 186.814021 -77.647011 
L 188.51914 -79.78628 
L 190.224258 -85.689871 
L 191.929377 -92.37578 
L 193.634495 -101.674291 
L 195.339613 -100.888479 
L 197.044732 -96.520113 
L 198.74985 -94.985922 
L 200.454969 -95.119749 
L 202.160087 -91.287597 
L 203.865205 -86.627317 
L 205.570324 -80.017397 
L 207.275442 -75.159554 
L 208.980561 -71.292439 
L 210.685679 -68.497026 
L 212.390798 -67.053936 
L 214.095916 -66.359773 
L 215.801034 -65.742094 
L 217.506153 -65.105722 
L 219.211271 -65.052886 
L 220.91639 -65.695049 
L 222.621508 -66.749409 
L 224.326626 -66.948852 
L 226.031745 -66.722467 
L 227.736863 -65.850438 
L 229.441982 -63.673985 
L 231.1471 -62.169635 
L 232.852218 -62.091302 
L 234.557337 -62.580222 
L 236.262455 -64.32875 
L 237.967574 -64.515911 
L 239.672692 -64.912674 
L 241.377811 -63.831768 
L 243.082929 -64.461351 
L 244.788047 -66.733835 
L 246.493166 -69.282172 
L 248.198284 -69.765422 
L 249.903403 -68.078848 
L 251.608521 -68.654444 
L 253.313639 -71.06953 
L 255.018758 -73.478173 
L 256.723876 -74.533739 
L 258.428995 -75.175453 
L 260.134113 -73.394471 
L 261.839231 -74.164678 
L 263.54435 -77.688561 
L 265.249468 -76.602174 
L 266.954587 -74.392668 
L 268.659705 -74.118584 
L 270.364824 -75.840872 
L 272.069942 -76.344279 
L 273.77506 -75.398389 
L 275.480179 -74.141003 
L 277.185297 -75.069393 
L 278.890416 -76.194136 
L 280.595534 -77.381247 
L 282.300652 -74.692724 
L 284.005771 -71.817699 
L 285.710889 -73.657357 
L 285.710889 -85.090808 
L 285.710889 -85.090808 
L 284.005771 -83.890932 
L 282.300652 -85.487418 
L 280.595534 -88.046417 
L 278.890416 -85.408927 
L 277.185297 -84.911847 
L 275.480179 -86.31292 
L 273.77506 -88.816685 
L 272.069942 -89.68997 
L 270.364824 -88.416995 
L 268.659705 -85.852241 
L 266.954587 -86.193685 
L 265.249468 -89.238455 
L 263.54435 -91.545197 
L 261.839231 -84.468003 
L 260.134113 -80.085102 
L 258.428995 -81.091221 
L 256.723876 -84.403583 
L 255.018758 -85.960987 
L 253.313639 -79.929589 
L 251.608521 -79.417164 
L 249.903403 -84.479457 
L 248.198284 -87.576405 
L 246.493166 -85.046874 
L 244.788047 -83.558948 
L 243.082929 -83.268842 
L 241.377811 -81.727103 
L 239.672692 -82.997368 
L 237.967574 -84.210582 
L 236.262455 -86.337073 
L 234.557337 -89.377986 
L 232.852218 -90.529449 
L 231.1471 -88.912078 
L 229.441982 -92.753677 
L 227.736863 -98.752682 
L 226.031745 -100.445529 
L 224.326626 -100.173098 
L 222.621508 -101.932305 
L 220.91639 -105.539808 
L 219.211271 -107.230893 
L 217.506153 -108.313532 
L 215.801034 -110.828628 
L 214.095916 -112.826294 
L 212.390798 -116.62597 
L 210.685679 -117.952594 
L 208.980561 -119.84007 
L 207.275442 -123.848054 
L 205.570324 -130.649872 
L 203.865205 -139.384532 
L 202.160087 -151.302066 
L 200.454969 -162.30486 
L 198.74985 -157.932073 
L 197.044732 -158.235779 
L 195.339613 -170.588846 
L 193.634495 -168.127641 
L 191.929377 -151.549179 
L 190.224258 -150.850442 
L 188.51914 -143.047398 
L 186.814021 -126.175921 
L 185.108903 -107.772701 
L 183.403785 -80.238091 
L 181.698666 -69.63965 
L 179.993548 -82.655566 
L 178.288429 -99.469192 
L 176.583311 -112.40908 
L 174.878192 -129.860103 
L 173.173074 -153.272154 
L 171.467956 -173.609142 
L 169.762837 -184.897145 
L 168.057719 -194.580826 
L 166.3526 -203.181524 
L 164.647482 -205.595022 
L 162.942364 -208.931884 
L 161.237245 -211.345992 
L 159.532127 -209.637116 
L 157.827008 -209.613935 
L 156.12189 -209.878104 
L 154.416772 -198.257424 
L 152.711653 -188.523849 
L 151.006535 -182.864074 
L 149.301416 -173.374559 
L 147.596298 -158.454092 
L 145.89118 -144.57258 
L 144.186061 -134.627005 
L 142.480943 -126.751421 
L 140.775824 -120.349845 
L 139.070706 -113.46865 
L 137.365587 -106.245211 
L 135.660469 -99.556033 
L 133.955351 -94.661467 
L 132.250232 -90.123033 
L 130.545114 -86.060241 
L 128.839995 -84.479081 
L 127.134877 -83.180767 
L 125.429759 -81.005824 
L 123.72464 -79.574824 
L 122.019522 -77.714122 
L 120.314403 -77.370827 
L 118.609285 -74.580921 
L 116.904167 -72.224065 
L 115.199048 -72.495463 
L 113.49393 -70.377383 
L 111.788811 -68.490372 
L 110.083693 -66.721596 
L 108.378574 -67.30729 
L 106.673456 -70.128898 
L 104.968338 -73.469341 
L 103.263219 -75.317123 
L 101.558101 -74.579707 
L 99.852982 -75.239788 
L 98.147864 -77.829924 
L 96.442746 -77.335958 
L 94.737627 -77.474866 
L 93.032509 -78.6182 
L 91.32739 -78.325443 
L 89.622272 -75.57923 
L 87.917154 -71.596329 
L 86.212035 -70.331874 
L 84.506917 -73.461777 
L 82.801798 -73.8167 
z
"/>
    </defs>
    <g clip-path="url(#p0a22b001a9)">
     <use xlink:href="#m3b63751ffb" x="0" y="225.55" style="fill: #800080; fill-opacity: 0.3"/>
    </g>
   </g>
   <g id="FillBetweenPolyCollection_2">
    <defs>
     <path id="m7cc0d8d958" d="M 82.801798 -66.256951 
L 82.801798 -59.283045 
L 84.506917 -63.454988 
L 86.212035 -65.136856 
L 87.917154 -65.35489 
L 89.622272 -60.702339 
L 91.32739 -57.193757 
L 93.032509 -56.809863 
L 94.737627 -59.856343 
L 96.442746 -61.398345 
L 98.147864 -55.56072 
L 99.852982 -50.045369 
L 101.558101 -50.882069 
L 103.263219 -51.593942 
L 104.968338 -55.950707 
L 106.673456 -57.093998 
L 108.378574 -59.407907 
L 110.083693 -59.681045 
L 111.788811 -59.197333 
L 113.49393 -62.626719 
L 115.199048 -68.269003 
L 116.904167 -70.43265 
L 118.609285 -72.627918 
L 120.314403 -75.698844 
L 122.019522 -72.955924 
L 123.72464 -70.267364 
L 125.429759 -68.752998 
L 127.134877 -70.648737 
L 128.839995 -73.658821 
L 130.545114 -76.660201 
L 132.250232 -76.530144 
L 133.955351 -76.511035 
L 135.660469 -75.271084 
L 137.365587 -71.830303 
L 139.070706 -69.064727 
L 140.775824 -67.272614 
L 142.480943 -70.579196 
L 144.186061 -69.862349 
L 145.89118 -67.202486 
L 147.596298 -63.66799 
L 149.301416 -63.137564 
L 151.006535 -63.377193 
L 152.711653 -60.625569 
L 154.416772 -57.376591 
L 156.12189 -57.901417 
L 157.827008 -57.578961 
L 159.532127 -56.319782 
L 161.237245 -57.426503 
L 162.942364 -56.929318 
L 164.647482 -58.459901 
L 166.3526 -65.390072 
L 168.057719 -67.066461 
L 169.762837 -68.164175 
L 171.467956 -71.198662 
L 173.173074 -71.184089 
L 174.878192 -68.032656 
L 176.583311 -66.882133 
L 178.288429 -71.246445 
L 179.993548 -77.246851 
L 181.698666 -86.266233 
L 183.403785 -102.328997 
L 185.108903 -108.303129 
L 186.814021 -111.46792 
L 188.51914 -105.093302 
L 190.224258 -95.534926 
L 191.929377 -89.388642 
L 193.634495 -81.836657 
L 195.339613 -74.005305 
L 197.044732 -73.03756 
L 198.74985 -75.414501 
L 200.454969 -75.271513 
L 202.160087 -75.757022 
L 203.865205 -79.250773 
L 205.570324 -86.585298 
L 207.275442 -90.568791 
L 208.980561 -92.811486 
L 210.685679 -92.629749 
L 212.390798 -89.558495 
L 214.095916 -86.281062 
L 215.801034 -91.182769 
L 217.506153 -92.090279 
L 219.211271 -91.161602 
L 220.91639 -88.337002 
L 222.621508 -84.661665 
L 224.326626 -85.167971 
L 226.031745 -89.172794 
L 227.736863 -97.942458 
L 229.441982 -103.312291 
L 231.1471 -110.287656 
L 232.852218 -108.932132 
L 234.557337 -101.190349 
L 236.262455 -99.2262 
L 237.967574 -98.991939 
L 239.672692 -88.6585 
L 241.377811 -77.397873 
L 243.082929 -85.331115 
L 244.788047 -90.144593 
L 246.493166 -82.84608 
L 248.198284 -77.144059 
L 249.903403 -75.766047 
L 251.608521 -76.325375 
L 253.313639 -77.48205 
L 255.018758 -73.525967 
L 256.723876 -69.894838 
L 258.428995 -68.083493 
L 260.134113 -65.199962 
L 261.839231 -63.962655 
L 263.54435 -59.845941 
L 265.249468 -60.860002 
L 266.954587 -61.943856 
L 268.659705 -58.431051 
L 270.364824 -58.108724 
L 272.069942 -56.644828 
L 273.77506 -57.541171 
L 275.480179 -57.658526 
L 277.185297 -57.750997 
L 278.890416 -54.040964 
L 280.595534 -52.016999 
L 282.300652 -51.360977 
L 284.005771 -53.236883 
L 285.710889 -57.060922 
L 285.710889 -63.610498 
L 285.710889 -63.610498 
L 284.005771 -62.347159 
L 282.300652 -63.620619 
L 280.595534 -61.907201 
L 278.890416 -62.193471 
L 277.185297 -64.80036 
L 275.480179 -65.158863 
L 273.77506 -65.52659 
L 272.069942 -65.93111 
L 270.364824 -65.781741 
L 268.659705 -63.72156 
L 266.954587 -68.848829 
L 265.249468 -68.77185 
L 263.54435 -65.211835 
L 261.839231 -70.59444 
L 260.134113 -75.948992 
L 258.428995 -76.848532 
L 256.723876 -83.282605 
L 255.018758 -95.760097 
L 253.313639 -95.212713 
L 251.608521 -94.213051 
L 249.903403 -89.934471 
L 248.198284 -86.433557 
L 246.493166 -89.410975 
L 244.788047 -107.515237 
L 243.082929 -96.666375 
L 241.377811 -94.342261 
L 239.672692 -110.747099 
L 237.967574 -120.100503 
L 236.262455 -120.423955 
L 234.557337 -120.374826 
L 232.852218 -133.543891 
L 231.1471 -140.977404 
L 229.441982 -128.145616 
L 227.736863 -120.739047 
L 226.031745 -117.009335 
L 224.326626 -114.55417 
L 222.621508 -106.061432 
L 220.91639 -103.134142 
L 219.211271 -103.649305 
L 217.506153 -99.38918 
L 215.801034 -97.574047 
L 214.095916 -96.944268 
L 212.390798 -97.897313 
L 210.685679 -96.776248 
L 208.980561 -94.818617 
L 207.275442 -94.417239 
L 205.570324 -94.699127 
L 203.865205 -93.343602 
L 202.160087 -95.665466 
L 200.454969 -101.223503 
L 198.74985 -110.402841 
L 197.044732 -124.92027 
L 195.339613 -149.848382 
L 193.634495 -178.606759 
L 191.929377 -210.419682 
L 190.224258 -219.671276 
L 188.51914 -208.611644 
L 186.814021 -190.519528 
L 185.108903 -181.332893 
L 183.403785 -171.627372 
L 181.698666 -138.016843 
L 179.993548 -97.895986 
L 178.288429 -78.147925 
L 176.583311 -73.187433 
L 174.878192 -76.650937 
L 173.173074 -88.547178 
L 171.467956 -100.282721 
L 169.762837 -94.859391 
L 168.057719 -89.572754 
L 166.3526 -81.041359 
L 164.647482 -68.404344 
L 162.942364 -63.427327 
L 161.237245 -62.990588 
L 159.532127 -61.417873 
L 157.827008 -65.130625 
L 156.12189 -69.120171 
L 154.416772 -76.517464 
L 152.711653 -79.547592 
L 151.006535 -85.059703 
L 149.301416 -92.685615 
L 147.596298 -98.808199 
L 145.89118 -104.772802 
L 144.186061 -108.399565 
L 142.480943 -112.035116 
L 140.775824 -108.375474 
L 139.070706 -106.399984 
L 137.365587 -114.735734 
L 135.660469 -110.444727 
L 133.955351 -112.1879 
L 132.250232 -121.694088 
L 130.545114 -117.879497 
L 128.839995 -107.644098 
L 127.134877 -103.660009 
L 125.429759 -97.003585 
L 123.72464 -95.46552 
L 122.019522 -94.687626 
L 120.314403 -96.915452 
L 118.609285 -89.094605 
L 116.904167 -79.387758 
L 115.199048 -78.569823 
L 113.49393 -75.888629 
L 111.788811 -71.952375 
L 110.083693 -71.332069 
L 108.378574 -69.802821 
L 106.673456 -64.883028 
L 104.968338 -60.066281 
L 103.263219 -58.065745 
L 101.558101 -58.172154 
L 99.852982 -57.477739 
L 98.147864 -62.597609 
L 96.442746 -74.833267 
L 94.737627 -74.017505 
L 93.032509 -64.858158 
L 91.32739 -64.039817 
L 89.622272 -66.243859 
L 87.917154 -71.533664 
L 86.212035 -68.521678 
L 84.506917 -69.052861 
L 82.801798 -66.256951 
z
"/>
    </defs>
    <g clip-path="url(#p0a22b001a9)">
     <use xlink:href="#m7cc0d8d958" x="0" y="225.55" style="fill: #ffa500; fill-opacity: 0.3"/>
    </g>
   </g>
   <g id="matplotlib.axis_1">
    <g id="xtick_1">
     <g id="line2d_1">
      <defs>
       <path id="m7a92f31eb1" d="M 0 0 
L 0 8.25 
" style="stroke: #000000; stroke-width: 1.4"/>
      </defs>
      <g>
       <use xlink:href="#m7a92f31eb1" x="82.801798" y="180.340312" style="stroke: #000000; stroke-width: 1.4"/>
      </g>
     </g>
     <g id="text_1">
      <text style="font-size: 12px; font-family: 'Helvetica', 'Computer Modern Sans Serif', 'DejaVu Sans', 'Bitstream Vera Sans', 'Lucida Grande', 'Verdana', 'Geneva', 'Lucid', 'Arial', 'Avant Garde', sans-serif; text-anchor: middle" x="82.801798" y="201.208437" transform="rotate(-0 82.801798 201.208437)">−2</text>
     </g>
    </g>
    <g id="xtick_2">
     <g id="line2d_2">
      <g>
       <use xlink:href="#m7a92f31eb1" x="133.955351" y="180.340312" style="stroke: #000000; stroke-width: 1.4"/>
      </g>
     </g>
     <g id="text_2">
      <text style="font-size: 12px; font-family: 'Helvetica', 'Computer Modern Sans Serif', 'DejaVu Sans', 'Bitstream Vera Sans', 'Lucida Grande', 'Verdana', 'Geneva', 'Lucid', 'Arial', 'Avant Garde', sans-serif; text-anchor: middle" x="133.955351" y="201.208437" transform="rotate(-0 133.955351 201.208437)">−1</text>
     </g>
    </g>
    <g id="xtick_3">
     <g id="line2d_3">
      <g>
       <use xlink:href="#m7a92f31eb1" x="185.108903" y="180.340312" style="stroke: #000000; stroke-width: 1.4"/>
      </g>
     </g>
     <g id="text_3">
      <text style="font-size: 12px; font-family: 'Helvetica', 'Computer Modern Sans Serif', 'DejaVu Sans', 'Bitstream Vera Sans', 'Lucida Grande', 'Verdana', 'Geneva', 'Lucid', 'Arial', 'Avant Garde', sans-serif; text-anchor: middle" x="185.108903" y="201.208437" transform="rotate(-0 185.108903 201.208437)">0</text>
     </g>
    </g>
    <g id="xtick_4">
     <g id="line2d_4">
      <g>
       <use xlink:href="#m7a92f31eb1" x="236.262455" y="180.340312" style="stroke: #000000; stroke-width: 1.4"/>
      </g>
     </g>
     <g id="text_4">
      <text style="font-size: 12px; font-family: 'Helvetica', 'Computer Modern Sans Serif', 'DejaVu Sans', 'Bitstream Vera Sans', 'Lucida Grande', 'Verdana', 'Geneva', 'Lucid', 'Arial', 'Avant Garde', sans-serif; text-anchor: middle" x="236.262455" y="201.208437" transform="rotate(-0 236.262455 201.208437)">1</text>
     </g>
    </g>
    <g id="xtick_5">
     <g id="line2d_5">
      <g>
       <use xlink:href="#m7a92f31eb1" x="287.416008" y="180.340312" style="stroke: #000000; stroke-width: 1.4"/>
      </g>
     </g>
     <g id="text_5">
      <text style="font-size: 12px; font-family: 'Helvetica', 'Computer Modern Sans Serif', 'DejaVu Sans', 'Bitstream Vera Sans', 'Lucida Grande', 'Verdana', 'Geneva', 'Lucid', 'Arial', 'Avant Garde', sans-serif; text-anchor: middle" x="287.416008" y="201.208437" transform="rotate(-0 287.416008 201.208437)">2</text>
     </g>
    </g>
    <g id="text_6">
     <text style="font-size: 11px; font-family: 'Helvetica', 'Computer Modern Sans Serif', 'DejaVu Sans', 'Bitstream Vera Sans', 'Lucida Grande', 'Verdana', 'Geneva', 'Lucid', 'Arial', 'Avant Garde', sans-serif; text-anchor: middle" x="184.256344" y="216.062344" transform="rotate(-0 184.256344 216.062344)">Time from choice (s)</text>
    </g>
   </g>
   <g id="matplotlib.axis_2">
    <g id="ytick_1">
     <g id="line2d_6">
      <defs>
       <path id="md4092e5cd9" d="M 0 0 
L -8.25 0 
" style="stroke: #000000; stroke-width: 1.4"/>
      </defs>
      <g>
       <use xlink:href="#md4092e5cd9" x="72.656344" y="169.252312" style="stroke: #000000; stroke-width: 1.4"/>
      </g>
     </g>
     <g id="text_7">
      <text style="font-size: 12px; font-family: 'Helvetica', 'Computer Modern Sans Serif', 'DejaVu Sans', 'Bitstream Vera Sans', 'Lucida Grande', 'Verdana', 'Geneva', 'Lucid', 'Arial', 'Avant Garde', sans-serif; text-anchor: end" x="60.906344" y="173.811375" transform="rotate(-0 60.906344 173.811375)">0.00</text>
     </g>
    </g>
    <g id="ytick_2">
     <g id="line2d_7">
      <g>
       <use xlink:href="#md4092e5cd9" x="72.656344" y="124.900312" style="stroke: #000000; stroke-width: 1.4"/>
      </g>
     </g>
     <g id="text_8">
      <text style="font-size: 12px; font-family: 'Helvetica', 'Computer Modern Sans Serif', 'DejaVu Sans', 'Bitstream Vera Sans', 'Lucida Grande', 'Verdana', 'Geneva', 'Lucid', 'Arial', 'Avant Garde', sans-serif; text-anchor: end" x="60.906344" y="129.459375" transform="rotate(-0 60.906344 129.459375)">0.01</text>
     </g>
    </g>
    <g id="ytick_3">
     <g id="line2d_8">
      <g>
       <use xlink:href="#md4092e5cd9" x="72.656344" y="80.548312" style="stroke: #000000; stroke-width: 1.4"/>
      </g>
     </g>
     <g id="text_9">
      <text style="font-size: 12px; font-family: 'Helvetica', 'Computer Modern Sans Serif', 'DejaVu Sans', 'Bitstream Vera Sans', 'Lucida Grande', 'Verdana', 'Geneva', 'Lucid', 'Arial', 'Avant Garde', sans-serif; text-anchor: end" x="60.906344" y="85.107375" transform="rotate(-0 60.906344 85.107375)">0.02</text>
     </g>
    </g>
    <g id="ytick_4">
     <g id="line2d_9">
      <g>
       <use xlink:href="#md4092e5cd9" x="72.656344" y="36.196313" style="stroke: #000000; stroke-width: 1.4"/>
      </g>
     </g>
     <g id="text_10">
      <text style="font-size: 12px; font-family: 'Helvetica', 'Computer Modern Sans Serif', 'DejaVu Sans', 'Bitstream Vera Sans', 'Lucida Grande', 'Verdana', 'Geneva', 'Lucid', 'Arial', 'Avant Garde', sans-serif; text-anchor: end" x="60.906344" y="40.755375" transform="rotate(-0 60.906344 40.755375)">0.03</text>
     </g>
    </g>
    <g id="text_11">
     <!-- $\Delta$ Explained Variance -->
     <g transform="translate(15.56 155.645312) rotate(-90)">
      <text>
       <tspan x="0" y="-0.640625" style="font-size: 11px; font-family: 'DejaVu Sans'">Δ</tspan>
       <tspan x="7.524902" y="-0.640625" style="font-size: 11px; font-family: 'DejaVu Sans'"> </tspan>
       <tspan x="11.021484" y="-0.640625" style="font-size: 11px; font-family: 'DejaVu Sans'">E</tspan>
       <tspan x="17.97168" y="-0.640625" style="font-size: 11px; font-family: 'DejaVu Sans'">x</tspan>
       <tspan x="24.481445" y="-0.640625" style="font-size: 11px; font-family: 'DejaVu Sans'">p</tspan>
       <tspan x="31.463867" y="-0.640625" style="font-size: 11px; font-family: 'DejaVu Sans'">l</tspan>
       <tspan x="34.52002" y="-0.640625" style="font-size: 11px; font-family: 'DejaVu Sans'">a</tspan>
       <tspan x="41.260742" y="-0.640625" style="font-size: 11px; font-family: 'DejaVu Sans'">i</tspan>
       <tspan x="44.316895" y="-0.640625" style="font-size: 11px; font-family: 'DejaVu Sans'">n</tspan>
       <tspan x="51.288574" y="-0.640625" style="font-size: 11px; font-family: 'DejaVu Sans'">e</tspan>
       <tspan x="58.056152" y="-0.640625" style="font-size: 11px; font-family: 'DejaVu Sans'">d</tspan>
       <tspan x="65.038574" y="-0.640625" style="font-size: 11px; font-family: 'DejaVu Sans'"> </tspan>
       <tspan x="68.535156" y="-0.640625" style="font-size: 11px; font-family: 'DejaVu Sans'">V</tspan>
       <tspan x="76.060059" y="-0.640625" style="font-size: 11px; font-family: 'DejaVu Sans'">a</tspan>
       <tspan x="82.800781" y="-0.640625" style="font-size: 11px; font-family: 'DejaVu Sans'">r</tspan>
       <tspan x="87.323242" y="-0.640625" style="font-size: 11px; font-family: 'DejaVu Sans'">i</tspan>
       <tspan x="90.379395" y="-0.640625" style="font-size: 11px; font-family: 'DejaVu Sans'">a</tspan>
       <tspan x="97.120117" y="-0.640625" style="font-size: 11px; font-family: 'DejaVu Sans'">n</tspan>
       <tspan x="104.091797" y="-0.640625" style="font-size: 11px; font-family: 'DejaVu Sans'">c</tspan>
       <tspan x="110.139648" y="-0.640625" style="font-size: 11px; font-family: 'DejaVu Sans'">e</tspan>
      </text>
     </g>
     <text style="font-size: 11px; font-family: 'Helvetica', 'Computer Modern Sans Serif', 'DejaVu Sans', 'Bitstream Vera Sans', 'Lucida Grande', 'Verdana', 'Geneva', 'Lucid', 'Arial', 'Avant Garde', sans-serif" transform="translate(27.899938 181.048437) rotate(-90)"> (Stategy - No strategy model)</text>
    </g>
   </g>
   <g id="line2d_10">
    <path d="M 82.801798 155.698642 
L 84.506917 155.846586 
L 86.212035 158.576423 
L 87.917154 158.011777 
L 89.622272 154.80954 
L 91.32739 152.481502 
L 93.032509 152.219388 
L 94.737627 154.045635 
L 96.442746 154.883055 
L 98.147864 154.71253 
L 99.852982 156.455025 
L 101.558101 156.357531 
L 103.263219 155.179974 
L 104.968338 156.680749 
L 106.673456 159.540179 
L 108.378574 161.544014 
L 110.083693 162.336701 
L 111.788811 161.264709 
L 113.49393 159.369004 
L 115.199048 157.274622 
L 116.904167 158.123636 
L 118.609285 157.181299 
L 120.314403 155.428249 
L 122.019522 155.546728 
L 123.72464 153.64123 
L 125.429759 152.740159 
L 127.134877 151.607064 
L 128.839995 151.145912 
L 130.545114 150.744585 
L 132.250232 148.338175 
L 133.955351 144.688026 
L 135.660469 140.004957 
L 137.365587 134.272458 
L 139.070706 127.598143 
L 140.775824 119.074139 
L 142.480943 111.201354 
L 144.186061 103.997228 
L 145.89118 94.798543 
L 147.596298 80.622265 
L 149.301416 67.333627 
L 151.006535 60.122653 
L 152.711653 56.827651 
L 154.416772 49.815278 
L 156.12189 40.18085 
L 157.827008 40.426907 
L 159.532127 41.51077 
L 161.237245 40.768381 
L 162.942364 41.253948 
L 164.647482 45.02814 
L 166.3526 49.332277 
L 168.057719 58.371225 
L 169.762837 68.238991 
L 171.467956 78.55693 
L 173.173074 96.210777 
L 174.878192 114.497458 
L 176.583311 126.802317 
L 178.288429 137.052749 
L 179.993548 151.227826 
L 181.698666 161.948709 
L 183.403785 151.618347 
L 185.108903 134.496649 
L 186.814021 123.638534 
L 188.51914 114.133161 
L 190.224258 107.279844 
L 191.929377 103.58752 
L 193.634495 90.649034 
L 195.339613 89.811338 
L 197.044732 98.172054 
L 198.74985 99.091003 
L 200.454969 96.837696 
L 202.160087 104.255169 
L 203.865205 112.544076 
L 205.570324 120.216365 
L 207.275442 126.046196 
L 208.980561 129.983745 
L 210.685679 132.32519 
L 212.390798 133.710047 
L 214.095916 135.956967 
L 215.801034 137.264639 
L 217.506153 138.840373 
L 219.211271 139.408111 
L 220.91639 139.932572 
L 222.621508 141.209143 
L 224.326626 141.989025 
L 226.031745 141.966002 
L 227.736863 143.24844 
L 229.441982 147.336169 
L 231.1471 150.009143 
L 232.852218 149.239625 
L 234.557337 149.570896 
L 236.262455 150.217088 
L 237.967574 151.186754 
L 239.672692 151.594979 
L 241.377811 152.770564 
L 243.082929 151.684904 
L 244.788047 150.403608 
L 246.493166 148.385477 
L 248.198284 146.879086 
L 249.903403 149.270847 
L 251.608521 151.514196 
L 253.313639 150.05044 
L 255.018758 145.83042 
L 256.723876 146.081339 
L 258.428995 147.416663 
L 260.134113 148.810213 
L 261.839231 146.233659 
L 263.54435 140.933121 
L 265.249468 142.629686 
L 266.954587 145.256824 
L 268.659705 145.564587 
L 270.364824 143.421067 
L 272.069942 142.532876 
L 273.77506 143.442463 
L 275.480179 145.323039 
L 277.185297 145.55938 
L 278.890416 144.748469 
L 280.595534 142.836168 
L 282.300652 145.459929 
L 284.005771 147.695685 
L 285.710889 146.175918 
" clip-path="url(#p0a22b001a9)" style="fill: none; stroke: #800080; stroke-width: 2; stroke-linecap: square"/>
   </g>
   <g id="line2d_11">
    <path d="M 82.801798 162.780002 
L 84.506917 159.296076 
L 86.212035 158.720733 
L 87.917154 157.105723 
L 89.622272 162.076901 
L 91.32739 164.933213 
L 93.032509 164.715989 
L 94.737627 158.613076 
L 96.442746 157.434194 
L 98.147864 166.470836 
L 99.852982 171.788446 
L 101.558101 171.022888 
L 103.263219 170.720157 
L 104.968338 167.541506 
L 106.673456 164.561487 
L 108.378574 160.944636 
L 110.083693 160.043443 
L 111.788811 159.975146 
L 113.49393 156.292326 
L 115.199048 152.130587 
L 116.904167 150.639796 
L 118.609285 144.688738 
L 120.314403 139.242852 
L 122.019522 141.728225 
L 123.72464 142.683558 
L 125.429759 142.671709 
L 127.134877 138.395627 
L 128.839995 134.898541 
L 130.545114 128.280151 
L 132.250232 126.437884 
L 133.955351 131.200533 
L 135.660469 132.692095 
L 137.365587 132.266981 
L 139.070706 137.817644 
L 140.775824 137.725956 
L 142.480943 134.242844 
L 144.186061 136.419043 
L 145.89118 139.562356 
L 147.596298 144.311905 
L 149.301416 147.63841 
L 151.006535 151.331552 
L 152.711653 155.46342 
L 154.416772 158.602972 
L 156.12189 162.039206 
L 157.827008 164.195207 
L 159.532127 166.681173 
L 161.237245 165.341455 
L 162.942364 165.371677 
L 164.647482 162.117877 
L 166.3526 152.334285 
L 168.057719 147.230392 
L 169.762837 144.038217 
L 171.467956 139.809308 
L 173.173074 145.684367 
L 174.878192 153.208203 
L 176.583311 155.515217 
L 178.288429 150.852815 
L 179.993548 137.978582 
L 181.698666 113.408462 
L 183.403785 88.571816 
L 185.108903 80.731989 
L 186.814021 74.556276 
L 188.51914 68.697527 
L 190.224258 67.946899 
L 191.929377 75.645838 
L 193.634495 95.328292 
L 195.339613 113.623156 
L 197.044732 126.571085 
L 198.74985 132.641329 
L 200.454969 137.302492 
L 202.160087 139.838756 
L 203.865205 139.252812 
L 205.570324 134.907787 
L 207.275442 133.056985 
L 208.980561 131.734948 
L 210.685679 130.847002 
L 212.390798 131.822096 
L 214.095916 133.937335 
L 215.801034 131.171592 
L 217.506153 129.81027 
L 219.211271 128.144547 
L 220.91639 129.814428 
L 222.621508 130.188451 
L 224.326626 125.688929 
L 226.031745 122.458936 
L 227.736863 116.209247 
L 229.441982 109.821047 
L 231.1471 99.91747 
L 232.852218 104.311988 
L 234.557337 114.767413 
L 236.262455 115.724923 
L 237.967574 116.003779 
L 239.672692 125.847201 
L 241.377811 139.679933 
L 243.082929 134.551255 
L 244.788047 126.720085 
L 246.493166 139.421472 
L 248.198284 143.761192 
L 249.903403 142.699741 
L 251.608521 140.280787 
L 253.313639 139.202618 
L 255.018758 140.906968 
L 256.723876 148.961278 
L 258.428995 153.083987 
L 260.134113 154.975523 
L 261.839231 158.271452 
L 263.54435 163.021112 
L 265.249468 160.734074 
L 266.954587 160.153658 
L 268.659705 164.473695 
L 270.364824 163.604767 
L 272.069942 164.262031 
L 273.77506 164.016119 
L 275.480179 164.141305 
L 277.185297 164.274321 
L 278.890416 167.432783 
L 280.595534 168.5879 
L 282.300652 168.059202 
L 284.005771 167.757979 
L 285.710889 165.21429 
" clip-path="url(#p0a22b001a9)" style="fill: none; stroke: #ffa500; stroke-width: 2; stroke-linecap: square"/>
   </g>
   <g id="line2d_12">
    <path d="M 149.301416 18.455512 
L 168.057719 18.455512 
" clip-path="url(#p0a22b001a9)" style="fill: none; stroke: #000000; stroke-width: 2; stroke-linecap: square"/>
   </g>
   <g id="patch_3">
    <path d="M 72.656344 180.340312 
L 72.656344 14.020312 
" style="fill: none; stroke: #000000; stroke-width: 1.2; stroke-linejoin: miter; stroke-linecap: square"/>
   </g>
   <g id="patch_4">
    <path d="M 72.656344 180.340312 
L 295.856344 180.340312 
" style="fill: none; stroke: #000000; stroke-width: 1.2; stroke-linejoin: miter; stroke-linecap: square"/>
   </g>
   <g id="text_12">
    <!-- $p &lt; 0.05$ -->
    <g transform="translate(147.265553 14.020312)">
     <text>
      <tspan x="0" y="-0.3125" style="font-style: oblique; font-size: 9px; font-family: 'DejaVu Sans'">p</tspan>
      <tspan x="7.466309" y="-0.3125" style="font-size: 9px; font-family: 'DejaVu Sans'">&lt;</tspan>
      <tspan x="16.760742" y="-0.3125" style="font-size: 9px; font-family: 'DejaVu Sans'">0</tspan>
      <tspan x="22.486816" y="-0.3125" style="font-size: 9px; font-family: 'DejaVu Sans'">.</tspan>
      <tspan x="25.347656" y="-0.3125" style="font-size: 9px; font-family: 'DejaVu Sans'">0</tspan>
      <tspan x="31.07373" y="-0.3125" style="font-size: 9px; font-family: 'DejaVu Sans'">5</tspan>
     </text>
    </g>
   </g>
  </g>
  <g id="axes_2">
   <g id="patch_5">
    <path d="M 223.856344 74.500312 
L 310.256344 74.500312 
L 310.256344 9.700312 
L 223.856344 9.700312 
L 223.856344 74.500312 
z
" style="fill: none"/>
   </g>
   <g id="FillBetweenPolyCollection_3">
    <defs>
     <path id="me54763674c" d="M 227.783616 -176.643346 
L 227.783616 -164.260255 
L 228.443662 -164.263922 
L 229.103708 -164.329698 
L 229.763754 -164.316067 
L 230.4238 -163.931862 
L 231.083846 -163.975146 
L 231.743891 -163.816501 
L 232.403937 -163.737419 
L 233.063983 -163.626795 
L 233.724029 -163.467053 
L 234.384075 -163.443182 
L 235.044121 -162.832818 
L 235.704167 -162.859287 
L 236.364212 -162.455524 
L 237.024258 -162.319892 
L 237.684304 -162.094373 
L 238.34435 -161.734145 
L 239.004396 -161.618226 
L 239.664442 -161.467488 
L 240.324487 -161.376947 
L 240.984533 -161.359939 
L 241.644579 -161.335043 
L 242.304625 -161.063562 
L 242.964671 -160.944452 
L 243.624717 -160.511957 
L 244.284762 -160.582475 
L 244.944808 -160.448514 
L 245.604854 -160.380052 
L 246.2649 -160.407734 
L 246.924946 -160.084664 
L 247.584992 -160.267477 
L 248.245037 -160.565267 
L 248.905083 -160.547283 
L 249.565129 -160.559008 
L 250.225175 -160.499369 
L 250.885221 -160.47651 
L 251.545267 -160.295229 
L 252.205312 -160.098811 
L 252.865358 -160.166005 
L 253.525404 -160.259923 
L 254.18545 -160.305124 
L 254.845496 -160.62857 
L 255.505542 -161.113465 
L 256.165587 -161.576761 
L 256.825633 -161.63104 
L 257.485679 -161.384053 
L 258.145725 -161.67613 
L 258.805771 -161.37482 
L 259.465817 -161.526096 
L 260.125862 -161.681955 
L 260.785908 -161.650062 
L 261.445954 -162.286897 
L 262.106 -162.724647 
L 262.766046 -163.796403 
L 263.426092 -164.193576 
L 264.086137 -163.628641 
L 264.746183 -162.959652 
L 265.406229 -162.976691 
L 266.066275 -163.475458 
L 266.726321 -163.826469 
L 267.386367 -165.25927 
L 268.046413 -166.012018 
L 268.706458 -165.682489 
L 269.366504 -165.986335 
L 270.02655 -165.533796 
L 270.686596 -165.792857 
L 271.346642 -165.104483 
L 272.006688 -165.695834 
L 272.666733 -166.429706 
L 273.326779 -166.693544 
L 273.986825 -167.448374 
L 274.646871 -167.614095 
L 275.306917 -167.692043 
L 275.966963 -168.213134 
L 276.627008 -168.887769 
L 277.287054 -168.975038 
L 277.9471 -169.296971 
L 278.607146 -169.421003 
L 279.267192 -169.0352 
L 279.927238 -170.126567 
L 280.587283 -170.496872 
L 281.247329 -170.941413 
L 281.907375 -171.5216 
L 282.567421 -172.558107 
L 283.227467 -172.189113 
L 283.887513 -172.442545 
L 284.547558 -172.429054 
L 285.207604 -171.246795 
L 285.86765 -171.402252 
L 286.527696 -170.318194 
L 287.187742 -169.57403 
L 287.847788 -169.175976 
L 288.507833 -168.994518 
L 289.167879 -169.04006 
L 289.827925 -169.239291 
L 290.487971 -169.513081 
L 291.148017 -169.219329 
L 291.808063 -169.26402 
L 292.468108 -168.589934 
L 293.128154 -168.905249 
L 293.7882 -169.391256 
L 294.448246 -169.249339 
L 295.108292 -169.586938 
L 295.768338 -169.207426 
L 296.428383 -168.981931 
L 297.088429 -168.692398 
L 297.748475 -168.645343 
L 298.408521 -168.237863 
L 299.068567 -168.177986 
L 299.728613 -168.019705 
L 300.388658 -168.142803 
L 301.048704 -167.709398 
L 301.70875 -167.405615 
L 302.368796 -167.265658 
L 303.028842 -167.445409 
L 303.688888 -167.372666 
L 304.348934 -167.705248 
L 305.008979 -167.67314 
L 305.669025 -167.249315 
L 306.329071 -167.23457 
L 306.329071 -178.074779 
L 306.329071 -178.074779 
L 305.669025 -178.338333 
L 305.008979 -179.076692 
L 304.348934 -179.262312 
L 303.688888 -178.729322 
L 303.028842 -178.57603 
L 302.368796 -178.681561 
L 301.70875 -178.786375 
L 301.048704 -179.541403 
L 300.388658 -180.217104 
L 299.728613 -180.043788 
L 299.068567 -180.385924 
L 298.408521 -180.739806 
L 297.748475 -180.897692 
L 297.088429 -180.958335 
L 296.428383 -180.845865 
L 295.768338 -181.187058 
L 295.108292 -181.734987 
L 294.448246 -181.259714 
L 293.7882 -181.309428 
L 293.128154 -181.114832 
L 292.468108 -180.969622 
L 291.808063 -181.391198 
L 291.148017 -181.022572 
L 290.487971 -180.554318 
L 289.827925 -179.842874 
L 289.167879 -179.380427 
L 288.507833 -179.088295 
L 287.847788 -178.964969 
L 287.187742 -178.662277 
L 286.527696 -178.9607 
L 285.86765 -179.401374 
L 285.207604 -179.310738 
L 284.547558 -179.706381 
L 283.887513 -179.032399 
L 283.227467 -177.206698 
L 282.567421 -176.311987 
L 281.907375 -176.393053 
L 281.247329 -175.937131 
L 280.587283 -175.541271 
L 279.927238 -175.048298 
L 279.267192 -174.909184 
L 278.607146 -175.044787 
L 277.9471 -175.182942 
L 277.287054 -175.412946 
L 276.627008 -176.106852 
L 275.966963 -176.675066 
L 275.306917 -177.506315 
L 274.646871 -178.707737 
L 273.986825 -179.69008 
L 273.326779 -180.329366 
L 272.666733 -181.211 
L 272.006688 -181.572226 
L 271.346642 -182.094104 
L 270.686596 -183.449439 
L 270.02655 -184.511962 
L 269.366504 -185.384111 
L 268.706458 -185.971024 
L 268.046413 -186.317325 
L 267.386367 -186.042344 
L 266.726321 -186.12458 
L 266.066275 -186.325535 
L 265.406229 -186.812053 
L 264.746183 -187.525698 
L 264.086137 -189.256987 
L 263.426092 -191.792721 
L 262.766046 -192.942785 
L 262.106 -189.588982 
L 261.445954 -186.1388 
L 260.785908 -184.019964 
L 260.125862 -183.29259 
L 259.465817 -182.274068 
L 258.805771 -181.039234 
L 258.145725 -180.596729 
L 257.485679 -179.653143 
L 256.825633 -178.996624 
L 256.165587 -178.537374 
L 255.505542 -178.071461 
L 254.845496 -177.20388 
L 254.18545 -177.322569 
L 253.525404 -177.555629 
L 252.865358 -177.743269 
L 252.205312 -177.718169 
L 251.545267 -178.023367 
L 250.885221 -178.483371 
L 250.225175 -178.756474 
L 249.565129 -179.130981 
L 248.905083 -179.686985 
L 248.245037 -180.279091 
L 247.584992 -180.634396 
L 246.924946 -180.834087 
L 246.2649 -181.355276 
L 245.604854 -181.671882 
L 244.944808 -181.402587 
L 244.284762 -181.264599 
L 243.624717 -181.553546 
L 242.964671 -181.855183 
L 242.304625 -181.548216 
L 241.644579 -181.483096 
L 240.984533 -181.550705 
L 240.324487 -181.409968 
L 239.664442 -181.623882 
L 239.004396 -181.462853 
L 238.34435 -181.048386 
L 237.684304 -181.147944 
L 237.024258 -180.793355 
L 236.364212 -180.304667 
L 235.704167 -180.028313 
L 235.044121 -179.313458 
L 234.384075 -179.359299 
L 233.724029 -179.052554 
L 233.063983 -178.52178 
L 232.403937 -178.666939 
L 231.743891 -178.536199 
L 231.083846 -178.072428 
L 230.4238 -177.335552 
L 229.763754 -176.918068 
L 229.103708 -176.771463 
L 228.443662 -176.67038 
L 227.783616 -176.643346 
z
"/>
    </defs>
    <g clip-path="url(#p412141806c)">
     <use xlink:href="#me54763674c" x="0" y="225.55" style="fill: #56b4e9; fill-opacity: 0.3"/>
    </g>
   </g>
   <g id="matplotlib.axis_3">
    <g id="xtick_6">
     <g id="line2d_13">
      <defs>
       <path id="mecd72ed849" d="M 0 0 
L 0 2 
" style="stroke: #000000; stroke-width: 1.4"/>
      </defs>
      <g>
       <use xlink:href="#mecd72ed849" x="227.783616" y="74.500312" style="stroke: #000000; stroke-width: 1.4"/>
      </g>
     </g>
     <g id="text_13">
      <text style="font-size: 6px; font-family: 'Helvetica', 'Computer Modern Sans Serif', 'DejaVu Sans', 'Bitstream Vera Sans', 'Lucida Grande', 'Verdana', 'Geneva', 'Lucid', 'Arial', 'Avant Garde', sans-serif; text-anchor: middle" x="227.783616" y="83.059375" transform="rotate(-0 227.783616 83.059375)">−2</text>
     </g>
    </g>
    <g id="xtick_7">
     <g id="line2d_14">
      <g>
       <use xlink:href="#mecd72ed849" x="267.386367" y="74.500312" style="stroke: #000000; stroke-width: 1.4"/>
      </g>
     </g>
     <g id="text_14">
      <text style="font-size: 6px; font-family: 'Helvetica', 'Computer Modern Sans Serif', 'DejaVu Sans', 'Bitstream Vera Sans', 'Lucida Grande', 'Verdana', 'Geneva', 'Lucid', 'Arial', 'Avant Garde', sans-serif; text-anchor: middle" x="267.386367" y="83.059375" transform="rotate(-0 267.386367 83.059375)">0</text>
     </g>
    </g>
    <g id="xtick_8">
     <g id="line2d_15">
      <g>
       <use xlink:href="#mecd72ed849" x="306.989117" y="74.500312" style="stroke: #000000; stroke-width: 1.4"/>
      </g>
     </g>
     <g id="text_15">
      <text style="font-size: 6px; font-family: 'Helvetica', 'Computer Modern Sans Serif', 'DejaVu Sans', 'Bitstream Vera Sans', 'Lucida Grande', 'Verdana', 'Geneva', 'Lucid', 'Arial', 'Avant Garde', sans-serif; text-anchor: middle" x="306.989117" y="83.059375" transform="rotate(-0 306.989117 83.059375)">2</text>
     </g>
    </g>
   </g>
   <g id="matplotlib.axis_4">
    <g id="ytick_5">
     <g id="line2d_16">
      <defs>
       <path id="meba5521b60" d="M 0 0 
L -2 0 
" style="stroke: #000000; stroke-width: 1.4"/>
      </defs>
      <g>
       <use xlink:href="#meba5521b60" x="223.856344" y="70.180312" style="stroke: #000000; stroke-width: 1.4"/>
      </g>
     </g>
     <g id="text_16">
      <text style="font-size: 6px; font-family: 'Helvetica', 'Computer Modern Sans Serif', 'DejaVu Sans', 'Bitstream Vera Sans', 'Lucida Grande', 'Verdana', 'Geneva', 'Lucid', 'Arial', 'Avant Garde', sans-serif; text-anchor: end" x="219.856344" y="72.459844" transform="rotate(-0 219.856344 72.459844)">0.00</text>
     </g>
    </g>
    <g id="ytick_6">
     <g id="line2d_17">
      <g>
       <use xlink:href="#meba5521b60" x="223.856344" y="52.900312" style="stroke: #000000; stroke-width: 1.4"/>
      </g>
     </g>
     <g id="text_17">
      <text style="font-size: 6px; font-family: 'Helvetica', 'Computer Modern Sans Serif', 'DejaVu Sans', 'Bitstream Vera Sans', 'Lucida Grande', 'Verdana', 'Geneva', 'Lucid', 'Arial', 'Avant Garde', sans-serif; text-anchor: end" x="219.856344" y="55.179844" transform="rotate(-0 219.856344 55.179844)">0.01</text>
     </g>
    </g>
    <g id="ytick_7">
     <g id="line2d_18">
      <g>
       <use xlink:href="#meba5521b60" x="223.856344" y="35.620312" style="stroke: #000000; stroke-width: 1.4"/>
      </g>
     </g>
     <g id="text_18">
      <text style="font-size: 6px; font-family: 'Helvetica', 'Computer Modern Sans Serif', 'DejaVu Sans', 'Bitstream Vera Sans', 'Lucida Grande', 'Verdana', 'Geneva', 'Lucid', 'Arial', 'Avant Garde', sans-serif; text-anchor: end" x="219.856344" y="37.899844" transform="rotate(-0 219.856344 37.899844)">0.02</text>
     </g>
    </g>
    <g id="ytick_8">
     <g id="line2d_19">
      <g>
       <use xlink:href="#meba5521b60" x="223.856344" y="18.340313" style="stroke: #000000; stroke-width: 1.4"/>
      </g>
     </g>
     <g id="text_19">
      <text style="font-size: 6px; font-family: 'Helvetica', 'Computer Modern Sans Serif', 'DejaVu Sans', 'Bitstream Vera Sans', 'Lucida Grande', 'Verdana', 'Geneva', 'Lucid', 'Arial', 'Avant Garde', sans-serif; text-anchor: end" x="219.856344" y="20.619844" transform="rotate(-0 219.856344 20.619844)">0.03</text>
     </g>
    </g>
   </g>
   <g id="line2d_20">
    <path d="M 227.783616 55.098199 
L 228.443662 55.082849 
L 229.103708 54.99942 
L 229.763754 54.932933 
L 230.4238 54.916293 
L 231.083846 54.526213 
L 231.743891 54.37365 
L 232.403937 54.347821 
L 233.063983 54.475713 
L 233.724029 54.290197 
L 234.384075 54.148759 
L 235.044121 54.476862 
L 235.704167 54.1062 
L 236.364212 54.169904 
L 237.024258 53.993376 
L 237.684304 53.928841 
L 238.34435 54.158735 
L 239.004396 54.00946 
L 239.664442 54.004315 
L 240.324487 54.156543 
L 240.984533 54.094678 
L 241.644579 54.140931 
L 242.304625 54.244111 
L 242.964671 54.150182 
L 243.624717 54.517249 
L 244.284762 54.626463 
L 244.944808 54.624449 
L 245.604854 54.524033 
L 246.2649 54.668495 
L 246.924946 55.090624 
L 247.584992 55.099064 
L 248.245037 55.127821 
L 248.905083 55.432866 
L 249.565129 55.705006 
L 250.225175 55.922079 
L 250.885221 56.070059 
L 251.545267 56.390702 
L 252.205312 56.64151 
L 252.865358 56.595363 
L 253.525404 56.642224 
L 254.18545 56.736154 
L 254.845496 56.633775 
L 255.505542 55.957537 
L 256.165587 55.492933 
L 256.825633 55.236168 
L 257.485679 55.031402 
L 258.145725 54.41357 
L 258.805771 54.342973 
L 259.465817 53.649918 
L 260.125862 53.062728 
L 260.785908 52.714987 
L 261.445954 51.337152 
L 262.106 49.393185 
L 262.766046 47.180406 
L 263.426092 47.556852 
L 264.086137 49.107186 
L 264.746183 50.307325 
L 265.406229 50.655628 
L 266.066275 50.649503 
L 266.726321 50.574476 
L 267.386367 49.899193 
L 268.046413 49.385329 
L 268.706458 49.723244 
L 269.366504 49.864777 
L 270.02655 50.527121 
L 270.686596 50.928852 
L 271.346642 51.950706 
L 272.006688 51.91597 
L 272.666733 51.729647 
L 273.326779 52.038545 
L 273.986825 51.980773 
L 274.646871 52.389084 
L 275.306917 52.950821 
L 275.966963 53.1059 
L 276.627008 53.052689 
L 277.287054 53.356008 
L 277.9471 53.310043 
L 278.607146 53.317105 
L 279.267192 53.577808 
L 279.927238 52.962567 
L 280.587283 52.530928 
L 281.247329 52.110728 
L 281.907375 51.592673 
L 282.567421 51.114953 
L 283.227467 50.852094 
L 283.887513 49.812528 
L 284.547558 49.482283 
L 285.207604 50.271234 
L 285.86765 50.148187 
L 286.527696 50.910553 
L 287.187742 51.431846 
L 287.847788 51.479528 
L 288.507833 51.508594 
L 289.167879 51.339757 
L 289.827925 51.008917 
L 290.487971 50.516301 
L 291.148017 50.429049 
L 291.808063 50.222391 
L 292.468108 50.770222 
L 293.128154 50.53996 
L 293.7882 50.199658 
L 294.448246 50.295474 
L 295.108292 49.889037 
L 295.768338 50.352758 
L 296.428383 50.636102 
L 297.088429 50.724633 
L 297.748475 50.778482 
L 298.408521 51.061166 
L 299.068567 51.268045 
L 299.728613 51.518254 
L 300.388658 51.370046 
L 301.048704 51.9246 
L 301.70875 52.454005 
L 302.368796 52.576391 
L 303.028842 52.53928 
L 303.688888 52.499006 
L 304.348934 52.06622 
L 305.008979 52.175084 
L 305.669025 52.756176 
L 306.329071 52.895325 
" clip-path="url(#p412141806c)" style="fill: none; stroke: #56b4e9; stroke-width: 2; stroke-linecap: square"/>
   </g>
   <g id="patch_6">
    <path d="M 223.856344 74.500312 
L 223.856344 9.700313 
" style="fill: none; stroke: #000000; stroke-width: 1.2; stroke-linejoin: miter; stroke-linecap: square"/>
   </g>
   <g id="patch_7">
    <path d="M 223.856344 74.500312 
L 310.256344 74.500312 
" style="fill: none; stroke: #000000; stroke-width: 1.2; stroke-linejoin: miter; stroke-linecap: square"/>
   </g>
  </g>
 </g>
 <defs>
  <clipPath id="p0a22b001a9">
   <rect x="72.656344" y="14.020312" width="223.2" height="166.32"/>
  </clipPath>
  <clipPath id="p412141806c">
   <rect x="223.856344" y="9.700312" width="86.4" height="64.8"/>
  </clipPath>
 </defs>
</svg>
