<?xml version="1.0" encoding="utf-8" standalone="no"?>
<!DOCTYPE svg PUBLIC "-//W3C//DTD SVG 1.1//EN"
  "http://www.w3.org/Graphics/SVG/1.1/DTD/svg11.dtd">
<svg xmlns:xlink="http://www.w3.org/1999/xlink" width="457.2pt" height="193.398281pt" viewBox="0 0 457.2 193.398281" xmlns="http://www.w3.org/2000/svg" version="1.1">
 <metadata>
  <rdf:RDF xmlns:dc="http://purl.org/dc/elements/1.1/" xmlns:cc="http://creativecommons.org/ns#" xmlns:rdf="http://www.w3.org/1999/02/22-rdf-syntax-ns#">
   <cc:Work>
    <dc:type rdf:resource="http://purl.org/dc/dcmitype/StillImage"/>
    <dc:date>2025-09-30T16:44:09.447519</dc:date>
    <dc:format>image/svg+xml</dc:format>
    <dc:creator>
     <cc:Agent>
      <dc:title>Matplotlib v3.10.6, https://matplotlib.org/</dc:title>
     </cc:Agent>
    </dc:creator>
   </cc:Work>
  </rdf:RDF>
 </metadata>
 <defs>
  <style type="text/css">*{stroke-linejoin: round; stroke-linecap: butt}</style>
 </defs>
 <g id="figure_1">
  <g id="patch_1">
   <path d="M 0 193.398281 
L 457.2 193.398281 
L 457.2 0 
L 0 0 
L 0 193.398281 
z
" style="fill: none"/>
  </g>
  <g id="axes_1">
   <g id="patch_2">
    <path d="M 31.5 79.278281 
L 101.25 79.278281 
L 101.25 19.878281 
L 31.5 19.878281 
L 31.5 79.278281 
z
" style="fill: none; opacity: 0"/>
   </g>
   <g id="matplotlib.axis_1"/>
   <g id="matplotlib.axis_2"/>
   <g id="line2d_1">
    <path d="M 34.670455 62.610727 
L 34.935765 60.904854 
L 35.201075 61.362306 
L 35.466385 61.09331 
L 35.731695 61.183182 
L 35.997005 60.974269 
L 36.262315 61.03699 
L 36.527625 60.833641 
L 36.792935 60.819374 
L 37.058245 60.586716 
L 37.588865 60.618955 
L 37.854175 60.734544 
L 38.650105 60.534713 
L 38.915415 60.653408 
L 39.711345 60.292411 
L 40.241965 60.290628 
L 40.772585 60.308217 
L 42.364445 60.187509 
L 42.629755 59.304667 
L 43.690995 47.855514 
L 43.956305 45.984424 
L 44.221615 45.334932 
L 44.486925 45.403349 
L 44.752235 45.950826 
L 45.282855 47.83687 
L 46.078785 51.703304 
L 47.140025 56.779652 
L 47.670645 58.788272 
L 48.466575 61.086538 
L 48.731885 61.426529 
L 48.997195 61.585291 
L 49.527815 62.095519 
L 50.058435 62.197117 
L 50.323745 62.075027 
L 51.119675 61.242561 
L 51.384985 60.824681 
L 52.446225 56.485368 
L 52.976845 54.407631 
L 53.507465 53.194118 
L 54.038085 51.819165 
L 54.568705 51.07748 
L 54.834015 50.936957 
L 55.099325 50.985928 
L 55.364635 51.322753 
L 55.895255 53.152307 
L 57.487115 59.529406 
L 58.283045 61.827542 
L 59.874905 65.120996 
L 61.466765 67.441212 
L 62.793315 68.528809 
L 64.119865 69.106112 
L 64.915795 69.042952 
L 65.181105 69.313974 
L 65.446415 69.383806 
L 65.977035 69.043549 
L 66.772965 69.144946 
L 67.834205 69.198649 
L 68.099515 69.250771 
L 68.630135 69.053153 
L 68.895445 69.092038 
L 69.426065 68.68263 
L 69.691375 68.484438 
L 69.956685 67.99094 
L 71.017925 64.793456 
L 71.813855 61.85371 
L 72.875095 58.562065 
L 73.140405 58.119367 
L 73.671025 57.754729 
L 73.936335 57.828008 
L 74.466955 58.601154 
L 75.262885 60.982082 
L 75.793505 62.349061 
L 76.854745 65.344572 
L 77.650675 67.129847 
L 78.446605 67.866701 
L 79.773155 68.715713 
L 80.038465 68.641575 
L 80.303775 68.718273 
L 80.569085 68.927822 
L 81.099705 68.839697 
L 81.365015 68.849866 
L 81.895635 68.549529 
L 82.691565 68.650897 
L 83.222185 68.402704 
L 83.487495 68.338922 
L 85.079355 66.927001 
L 86.671215 64.944694 
L 87.201835 64.727408 
L 87.997765 64.189962 
L 88.528385 64.340969 
L 89.589625 64.874727 
L 90.650865 65.764127 
L 92.508035 66.148517 
L 92.773345 66.305554 
L 94.365205 66.082068 
L 94.895825 66.312642 
L 95.161135 66.024756 
L 95.426445 66.019567 
L 96.222375 65.43069 
L 96.487685 65.516835 
L 96.752995 65.466689 
L 97.018305 65.703199 
L 97.283615 65.587566 
L 97.548925 65.763569 
L 97.814235 65.42181 
L 98.079545 65.693409 
L 98.079545 65.693409 
" clip-path="url(#p2db85e6b3e)" style="fill: none; stroke: #800080; stroke-linecap: square"/>
   </g>
  </g>
  <g id="axes_2">
   <g id="patch_3">
    <path d="M 101.25 79.278281 
L 171 79.278281 
L 171 19.878281 
L 101.25 19.878281 
L 101.25 79.278281 
z
" style="fill: none; opacity: 0"/>
   </g>
   <g id="matplotlib.axis_3"/>
   <g id="matplotlib.axis_4"/>
   <g id="line2d_2">
    <path d="M 104.420455 63.138327 
L 104.685765 61.510446 
L 104.951075 61.788743 
L 105.216385 61.192522 
L 105.747005 60.945062 
L 106.012315 61.288019 
L 106.808245 61.035582 
L 107.073555 61.152744 
L 107.338865 61.090134 
L 107.604175 61.208591 
L 108.134795 60.802451 
L 108.930725 61.236104 
L 109.196035 61.099137 
L 109.461345 60.662785 
L 109.726655 60.744526 
L 109.991965 61.001049 
L 110.257275 60.989328 
L 110.522585 60.804223 
L 110.787895 60.797588 
L 111.583825 60.148885 
L 112.114445 60.483089 
L 112.379755 59.613183 
L 113.175685 51.420213 
L 113.706305 47.627986 
L 113.971615 47.033836 
L 114.236925 46.861824 
L 114.502235 47.333972 
L 115.298165 50.242674 
L 116.624715 56.158963 
L 117.420645 58.706294 
L 118.481885 60.812797 
L 119.277815 60.590968 
L 119.543125 60.245146 
L 119.808435 59.705064 
L 120.339055 59.713666 
L 121.134985 58.639061 
L 121.665605 56.571548 
L 122.196225 54.439862 
L 122.726845 53.02217 
L 123.522775 51.743773 
L 123.788085 51.686879 
L 124.053395 51.452317 
L 124.318705 51.062503 
L 124.584015 51.035051 
L 125.114635 51.51001 
L 125.645255 53.236866 
L 127.237115 58.089398 
L 129.624905 63.542859 
L 130.155525 64.180451 
L 130.951455 65.146357 
L 131.216765 65.428136 
L 131.482075 65.429707 
L 132.012695 65.620913 
L 132.278005 65.617686 
L 132.543315 65.735121 
L 132.808625 65.671569 
L 133.604555 65.2401 
L 133.869865 65.225476 
L 134.665795 64.768469 
L 134.931105 64.797266 
L 135.196415 64.605711 
L 135.461725 64.244296 
L 135.727035 64.133284 
L 135.992345 64.265115 
L 136.522965 64.048689 
L 137.053585 64.390767 
L 137.318895 64.358003 
L 138.910755 65.065188 
L 139.441375 65.117856 
L 139.971995 64.928848 
L 140.237305 64.618387 
L 140.767925 64.33543 
L 143.155715 59.416892 
L 143.421025 59.165838 
L 143.686335 59.149451 
L 144.216955 59.367453 
L 144.747575 60.146024 
L 145.543505 61.826401 
L 147.400675 65.589665 
L 148.461915 66.979682 
L 148.727225 67.142248 
L 149.257845 67.840989 
L 149.788465 67.965758 
L 150.319085 68.265464 
L 150.849705 68.181987 
L 151.645635 68.644834 
L 152.176255 68.785748 
L 152.441565 68.603797 
L 152.972185 68.57703 
L 153.237495 68.465748 
L 153.768115 68.672656 
L 154.033425 68.581424 
L 154.298735 68.358861 
L 155.094665 68.281055 
L 155.890595 67.924925 
L 156.155905 67.71378 
L 156.686525 67.562065 
L 157.482455 67.277823 
L 157.747765 67.000499 
L 158.278385 67.206511 
L 159.339625 66.580138 
L 159.870245 66.490729 
L 160.400865 66.346498 
L 160.666175 66.166397 
L 160.931485 66.223256 
L 161.462105 65.898339 
L 161.727415 65.723248 
L 161.992725 65.812884 
L 162.258035 65.550018 
L 162.788655 65.513738 
L 163.053965 65.697383 
L 163.319275 65.724547 
L 163.584585 65.443915 
L 163.849895 65.392096 
L 164.115205 65.492156 
L 164.380515 65.34849 
L 164.645825 65.551413 
L 165.972375 65.092069 
L 166.237685 65.292554 
L 166.502995 65.268791 
L 166.768305 65.494875 
L 167.033615 65.13862 
L 167.298925 65.428669 
L 167.564235 65.476785 
L 167.829545 65.843713 
L 167.829545 65.843713 
" clip-path="url(#pd7ef59b9f5)" style="fill: none; stroke: #800080; stroke-linecap: square"/>
   </g>
  </g>
  <g id="axes_3">
   <g id="patch_4">
    <path d="M 171 79.278281 
L 240.75 79.278281 
L 240.75 19.878281 
L 171 19.878281 
L 171 79.278281 
z
" style="fill: none; opacity: 0"/>
   </g>
   <g id="matplotlib.axis_5"/>
   <g id="matplotlib.axis_6"/>
   <g id="line2d_3">
    <path d="M 174.170455 63.783555 
L 174.435765 64.253685 
L 174.966385 64.499139 
L 175.231695 64.251994 
L 175.497005 64.375135 
L 176.027625 64.217713 
L 176.292935 64.388256 
L 176.823555 64.371473 
L 177.088865 64.75399 
L 177.354175 64.781988 
L 177.619485 64.559083 
L 178.150105 65.078894 
L 178.680725 64.865549 
L 178.946035 64.954712 
L 179.741965 64.883003 
L 180.007275 64.984688 
L 180.537895 64.955602 
L 180.803205 65.115824 
L 181.068515 65.053736 
L 181.599135 65.385452 
L 182.129755 65.24912 
L 182.395065 64.643016 
L 182.660375 63.492936 
L 182.925685 63.045752 
L 183.190995 63.30105 
L 184.517545 66.880794 
L 184.782855 67.027702 
L 185.048165 66.939937 
L 186.109405 64.301955 
L 186.905335 62.548652 
L 187.170645 62.383253 
L 187.701265 61.618871 
L 188.231885 61.695722 
L 188.497195 61.81365 
L 188.762505 62.271082 
L 189.293125 62.596593 
L 190.089055 64.339647 
L 190.884985 66.565684 
L 191.150295 66.777981 
L 191.415605 65.936632 
L 193.272775 52.169388 
L 193.538085 51.087745 
L 193.803395 50.695135 
L 194.599325 51.288278 
L 195.129945 52.343585 
L 195.395255 53.963274 
L 196.721805 68.540218 
L 197.252425 72.52212 
L 197.783045 74.591839 
L 198.313665 75.930514 
L 198.844285 76.376714 
L 199.109595 76.53521 
L 199.374905 76.426331 
L 199.905525 75.776517 
L 200.436145 74.941873 
L 200.966765 73.876636 
L 202.558625 71.39128 
L 203.089245 70.488899 
L 204.681105 68.854255 
L 205.477035 67.874889 
L 205.742345 67.81533 
L 206.272965 67.223091 
L 206.538275 67.145789 
L 207.334205 66.347435 
L 207.864825 66.250057 
L 208.130135 66.076206 
L 208.660755 65.340595 
L 209.191375 64.966852 
L 211.048545 62.120995 
L 211.313855 62.00973 
L 211.844475 61.569474 
L 212.109785 61.865943 
L 212.640405 61.682986 
L 213.171025 61.304331 
L 214.762885 62.475515 
L 215.558815 62.344195 
L 216.089435 62.680806 
L 216.885365 62.445356 
L 218.211915 62.823417 
L 219.007845 62.714885 
L 219.273155 62.542406 
L 219.538465 62.540653 
L 219.803775 62.361128 
L 220.334395 62.72503 
L 221.130325 62.424746 
L 221.395635 62.607154 
L 221.660945 62.540622 
L 221.926255 62.329291 
L 222.456875 62.726678 
L 223.252805 62.604288 
L 223.518115 62.378359 
L 223.783425 62.492248 
L 224.314045 62.966833 
L 224.844665 62.843892 
L 225.109975 62.657904 
L 225.640595 62.937964 
L 225.905905 62.867833 
L 226.171215 63.071597 
L 226.701835 62.969794 
L 226.967145 63.296003 
L 227.232455 63.347245 
L 227.763075 63.028931 
L 228.028385 62.999721 
L 228.559005 63.622238 
L 228.824315 63.677536 
L 229.089625 63.614918 
L 229.885555 63.77359 
L 230.416175 63.475034 
L 230.946795 63.780268 
L 231.477415 63.454878 
L 232.273345 63.485269 
L 232.538655 63.366325 
L 233.069275 63.751258 
L 233.334585 63.554159 
L 233.865205 63.785215 
L 234.395825 63.557087 
L 235.191755 63.734288 
L 235.457065 63.851059 
L 235.987685 63.464046 
L 236.518305 63.712234 
L 236.783615 63.549047 
L 237.048925 63.528096 
L 237.579545 63.926602 
L 237.579545 63.926602 
" clip-path="url(#pe41a38bafb)" style="fill: none; stroke: #ffa500; stroke-linecap: square"/>
   </g>
   <g id="text_1">
    <!-- No reward -->
    <g transform="translate(194.482969 37.638281) scale(0.09 -0.09)">
     <defs>
      <path id="DejaVuSans-4e" d="M 628 4666 
L 1478 4666 
L 3547 763 
L 3547 4666 
L 4159 4666 
L 4159 0 
L 3309 0 
L 1241 3903 
L 1241 0 
L 628 0 
L 628 4666 
z
" transform="scale(0.015625)"/>
      <path id="DejaVuSans-6f" d="M 1959 3097 
Q 1497 3097 1228 2736 
Q 959 2375 959 1747 
Q 959 1119 1226 758 
Q 1494 397 1959 397 
Q 2419 397 2687 759 
Q 2956 1122 2956 1747 
Q 2956 2369 2687 2733 
Q 2419 3097 1959 3097 
z
M 1959 3584 
Q 2709 3584 3137 3096 
Q 3566 2609 3566 1747 
Q 3566 888 3137 398 
Q 2709 -91 1959 -91 
Q 1206 -91 779 398 
Q 353 888 353 1747 
Q 353 2609 779 3096 
Q 1206 3584 1959 3584 
z
" transform="scale(0.015625)"/>
      <path id="DejaVuSans-20" transform="scale(0.015625)"/>
      <path id="DejaVuSans-72" d="M 2631 2963 
Q 2534 3019 2420 3045 
Q 2306 3072 2169 3072 
Q 1681 3072 1420 2755 
Q 1159 2438 1159 1844 
L 1159 0 
L 581 0 
L 581 3500 
L 1159 3500 
L 1159 2956 
Q 1341 3275 1631 3429 
Q 1922 3584 2338 3584 
Q 2397 3584 2469 3576 
Q 2541 3569 2628 3553 
L 2631 2963 
z
" transform="scale(0.015625)"/>
      <path id="DejaVuSans-65" d="M 3597 1894 
L 3597 1613 
L 953 1613 
Q 991 1019 1311 708 
Q 1631 397 2203 397 
Q 2534 397 2845 478 
Q 3156 559 3463 722 
L 3463 178 
Q 3153 47 2828 -22 
Q 2503 -91 2169 -91 
Q 1331 -91 842 396 
Q 353 884 353 1716 
Q 353 2575 817 3079 
Q 1281 3584 2069 3584 
Q 2775 3584 3186 3129 
Q 3597 2675 3597 1894 
z
M 3022 2063 
Q 3016 2534 2758 2815 
Q 2500 3097 2075 3097 
Q 1594 3097 1305 2825 
Q 1016 2553 972 2059 
L 3022 2063 
z
" transform="scale(0.015625)"/>
      <path id="DejaVuSans-77" d="M 269 3500 
L 844 3500 
L 1563 769 
L 2278 3500 
L 2956 3500 
L 3675 769 
L 4391 3500 
L 4966 3500 
L 4050 0 
L 3372 0 
L 2619 2869 
L 1863 0 
L 1184 0 
L 269 3500 
z
" transform="scale(0.015625)"/>
      <path id="DejaVuSans-61" d="M 2194 1759 
Q 1497 1759 1228 1600 
Q 959 1441 959 1056 
Q 959 750 1161 570 
Q 1363 391 1709 391 
Q 2188 391 2477 730 
Q 2766 1069 2766 1631 
L 2766 1759 
L 2194 1759 
z
M 3341 1997 
L 3341 0 
L 2766 0 
L 2766 531 
Q 2569 213 2275 61 
Q 1981 -91 1556 -91 
Q 1019 -91 701 211 
Q 384 513 384 1019 
Q 384 1609 779 1909 
Q 1175 2209 1959 2209 
L 2766 2209 
L 2766 2266 
Q 2766 2663 2505 2880 
Q 2244 3097 1772 3097 
Q 1472 3097 1187 3025 
Q 903 2953 641 2809 
L 641 3341 
Q 956 3463 1253 3523 
Q 1550 3584 1831 3584 
Q 2591 3584 2966 3190 
Q 3341 2797 3341 1997 
z
" transform="scale(0.015625)"/>
      <path id="DejaVuSans-64" d="M 2906 2969 
L 2906 4863 
L 3481 4863 
L 3481 0 
L 2906 0 
L 2906 525 
Q 2725 213 2448 61 
Q 2172 -91 1784 -91 
Q 1150 -91 751 415 
Q 353 922 353 1747 
Q 353 2572 751 3078 
Q 1150 3584 1784 3584 
Q 2172 3584 2448 3432 
Q 2725 3281 2906 2969 
z
M 947 1747 
Q 947 1113 1208 752 
Q 1469 391 1925 391 
Q 2381 391 2643 752 
Q 2906 1113 2906 1747 
Q 2906 2381 2643 2742 
Q 2381 3103 1925 3103 
Q 1469 3103 1208 2742 
Q 947 2381 947 1747 
z
" transform="scale(0.015625)"/>
     </defs>
     <use xlink:href="#DejaVuSans-4e"/>
     <use xlink:href="#DejaVuSans-6f" transform="translate(74.804688 0)"/>
     <use xlink:href="#DejaVuSans-20" transform="translate(135.986328 0)"/>
     <use xlink:href="#DejaVuSans-72" transform="translate(167.773438 0)"/>
     <use xlink:href="#DejaVuSans-65" transform="translate(206.636719 0)"/>
     <use xlink:href="#DejaVuSans-77" transform="translate(268.160156 0)"/>
     <use xlink:href="#DejaVuSans-61" transform="translate(349.947266 0)"/>
     <use xlink:href="#DejaVuSans-72" transform="translate(411.226562 0)"/>
     <use xlink:href="#DejaVuSans-64" transform="translate(450.589844 0)"/>
    </g>
   </g>
  </g>
  <g id="axes_4">
   <g id="patch_5">
    <path d="M 240.75 79.278281 
L 310.5 79.278281 
L 310.5 19.878281 
L 240.75 19.878281 
L 240.75 79.278281 
z
" style="fill: none; opacity: 0"/>
   </g>
   <g id="matplotlib.axis_7"/>
   <g id="matplotlib.axis_8"/>
   <g id="line2d_4">
    <path d="M 243.920455 64.164281 
L 244.185765 64.585068 
L 244.451075 64.339288 
L 244.716385 64.813302 
L 244.981695 64.774911 
L 245.247005 64.85437 
L 245.777625 65.203995 
L 246.042935 65.333013 
L 246.308245 65.210566 
L 246.573555 64.955324 
L 246.838865 65.315392 
L 247.634795 65.359382 
L 248.165415 65.67643 
L 248.696035 65.376809 
L 248.961345 65.600476 
L 249.491965 65.328731 
L 250.022585 65.289903 
L 250.287895 65.382838 
L 250.553205 65.262774 
L 250.818515 65.288647 
L 251.083825 65.475009 
L 251.349135 65.296499 
L 251.879755 65.22426 
L 252.410375 63.503619 
L 252.675685 63.42343 
L 252.940995 63.852032 
L 253.736925 65.656787 
L 254.002235 66.168641 
L 254.267545 66.323691 
L 254.532855 66.171521 
L 255.594095 64.613589 
L 256.655335 61.185592 
L 257.716575 60.691714 
L 258.247195 61.353234 
L 258.777815 61.308633 
L 259.308435 62.114329 
L 259.573745 62.723953 
L 260.104365 64.518636 
L 260.900295 65.961824 
L 261.165605 65.192052 
L 261.696225 59.955129 
L 263.818705 39.971565 
L 264.349325 33.792711 
L 264.879945 26.685764 
L 265.145255 24.847409 
L 265.410565 24.109913 
L 265.675875 23.747861 
L 266.206495 23.457483 
L 266.471805 23.586997 
L 266.737115 24.080528 
L 267.267735 26.157734 
L 267.798355 29.128842 
L 268.328975 34.062385 
L 270.451455 56.271402 
L 270.982075 60.044961 
L 272.043315 65.689525 
L 272.839245 68.244486 
L 273.369865 69.178674 
L 273.900485 70.054098 
L 274.431105 70.032405 
L 274.696415 70.006433 
L 275.227035 69.683181 
L 275.757655 69.698384 
L 276.288275 69.054584 
L 276.553585 68.687841 
L 276.818895 68.110179 
L 277.084205 68.123945 
L 277.880135 66.870159 
L 278.941375 65.404352 
L 280.002615 64.212313 
L 280.267925 63.934226 
L 280.533235 63.835609 
L 281.063855 63.288699 
L 281.329165 63.244985 
L 281.594475 63.077222 
L 281.859785 63.176041 
L 282.125095 63.533453 
L 282.390405 63.379605 
L 282.655715 63.410302 
L 282.921025 63.629233 
L 283.186335 63.644333 
L 283.716955 63.401572 
L 283.982265 63.326568 
L 284.778195 62.606293 
L 285.308815 62.810196 
L 285.839435 61.997773 
L 286.900675 61.769611 
L 287.165985 61.478932 
L 287.431295 61.417209 
L 289.023155 60.323303 
L 289.553775 60.394179 
L 289.819085 60.316285 
L 290.084395 60.45311 
L 290.349705 60.458432 
L 290.880325 60.289082 
L 291.676255 60.115375 
L 292.206875 60.352357 
L 293.268115 60.000055 
L 294.064045 59.590503 
L 294.594665 60.230972 
L 295.125285 59.705098 
L 295.390595 59.925186 
L 295.655905 59.988639 
L 296.186525 59.633195 
L 296.717145 60.036592 
L 296.982455 60.285266 
L 297.247765 60.186878 
L 297.513075 59.959773 
L 298.574315 60.26019 
L 298.839625 59.917797 
L 299.370245 60.189135 
L 299.635555 59.960811 
L 299.900865 59.963893 
L 300.431485 60.394068 
L 300.962105 60.461205 
L 301.227415 60.685134 
L 301.492725 60.533991 
L 302.023345 60.738531 
L 302.288655 60.487861 
L 303.349895 60.893431 
L 303.615205 60.794269 
L 303.880515 60.507671 
L 304.145825 60.637619 
L 304.411135 61.333575 
L 304.676445 61.471619 
L 304.941755 61.188355 
L 305.207065 61.107177 
L 305.472375 61.259742 
L 306.268305 61.152511 
L 306.533615 61.301171 
L 306.798925 61.09789 
L 307.064235 61.360711 
L 307.329545 61.373882 
L 307.329545 61.373882 
" clip-path="url(#p7bb8ce6fd7)" style="fill: none; stroke: #ffa500; stroke-linecap: square"/>
   </g>
   <g id="text_2">
    <!-- Reward -->
    <g transform="translate(276.982031 37.638281) scale(0.09 -0.09)">
     <defs>
      <path id="DejaVuSans-52" d="M 2841 2188 
Q 3044 2119 3236 1894 
Q 3428 1669 3622 1275 
L 4263 0 
L 3584 0 
L 2988 1197 
Q 2756 1666 2539 1819 
Q 2322 1972 1947 1972 
L 1259 1972 
L 1259 0 
L 628 0 
L 628 4666 
L 2053 4666 
Q 2853 4666 3247 4331 
Q 3641 3997 3641 3322 
Q 3641 2881 3436 2590 
Q 3231 2300 2841 2188 
z
M 1259 4147 
L 1259 2491 
L 2053 2491 
Q 2509 2491 2742 2702 
Q 2975 2913 2975 3322 
Q 2975 3731 2742 3939 
Q 2509 4147 2053 4147 
L 1259 4147 
z
" transform="scale(0.015625)"/>
     </defs>
     <use xlink:href="#DejaVuSans-52"/>
     <use xlink:href="#DejaVuSans-65" transform="translate(64.982422 0)"/>
     <use xlink:href="#DejaVuSans-77" transform="translate(126.505859 0)"/>
     <use xlink:href="#DejaVuSans-61" transform="translate(208.292969 0)"/>
     <use xlink:href="#DejaVuSans-72" transform="translate(269.572266 0)"/>
     <use xlink:href="#DejaVuSans-64" transform="translate(308.935547 0)"/>
    </g>
   </g>
  </g>
  <g id="axes_5">
   <g id="patch_6">
    <path d="M 310.5 79.278281 
L 380.25 79.278281 
L 380.25 19.878281 
L 310.5 19.878281 
L 310.5 79.278281 
z
" style="fill: none; opacity: 0"/>
   </g>
   <g id="matplotlib.axis_9"/>
   <g id="matplotlib.axis_10"/>
   <g id="line2d_5">
    <path d="M 313.670455 68.898293 
L 313.935765 68.942122 
L 314.201075 68.657452 
L 314.466385 68.685329 
L 314.731695 69.013354 
L 314.997005 68.700254 
L 315.262315 68.61751 
L 315.527625 68.654226 
L 315.792935 67.79535 
L 316.058245 67.875249 
L 316.588865 67.774111 
L 316.854175 67.79493 
L 317.119485 67.468812 
L 317.915415 67.361754 
L 318.180725 67.519636 
L 318.446035 67.5084 
L 318.711345 67.326209 
L 318.976655 66.814449 
L 319.772585 66.082845 
L 320.037895 66.532029 
L 320.303205 65.562897 
L 320.833825 64.864446 
L 321.099135 64.220864 
L 321.629755 64.883391 
L 321.895065 64.796165 
L 322.425685 65.572487 
L 323.221615 69.306608 
L 323.486925 69.686271 
L 323.752235 69.291997 
L 324.017545 68.486815 
L 324.282855 68.461824 
L 324.548165 67.781895 
L 324.813475 66.470682 
L 325.078785 66.213995 
L 325.344095 64.192905 
L 326.935955 58.444822 
L 327.997195 55.135785 
L 328.262505 54.057433 
L 329.058435 52.290131 
L 329.323745 52.345348 
L 329.589055 52.17944 
L 329.854365 52.675749 
L 330.119675 52.433007 
L 330.384985 52.353082 
L 330.650295 52.912375 
L 331.180915 54.55399 
L 331.446225 54.95028 
L 332.242155 57.803967 
L 332.507465 60.321698 
L 333.038085 62.268504 
L 333.303395 62.012096 
L 333.568705 62.775631 
L 333.834015 64.043815 
L 334.099325 64.099628 
L 334.364635 64.560487 
L 334.629945 64.61921 
L 334.895255 63.855981 
L 335.160565 62.552622 
L 335.425875 62.604252 
L 339.140215 48.417346 
L 339.670835 47.8925 
L 339.936145 47.068903 
L 340.732075 45.77388 
L 340.997385 46.757327 
L 341.262695 46.487892 
L 341.793315 46.703052 
L 342.058625 46.213786 
L 342.323935 46.124517 
L 342.589245 45.907662 
L 342.854555 46.321818 
L 343.119865 47.024314 
L 343.385175 47.14331 
L 344.181105 46.960347 
L 344.446415 47.149972 
L 345.242345 50.133481 
L 345.507655 50.180386 
L 345.772965 50.668074 
L 346.303585 52.406526 
L 346.834205 54.22715 
L 347.364825 55.954698 
L 347.630135 56.403156 
L 348.160755 57.761687 
L 348.426065 58.135596 
L 348.956685 59.25627 
L 349.221995 58.951878 
L 349.487305 58.971365 
L 350.283235 60.453274 
L 350.548545 60.344719 
L 350.813855 60.480607 
L 351.079165 60.285014 
L 351.609785 60.922391 
L 351.875095 61.775373 
L 352.140405 62.215039 
L 352.405715 62.081138 
L 352.671025 61.774923 
L 352.936335 61.644346 
L 353.466955 63.108739 
L 353.997575 62.98288 
L 354.262885 62.855619 
L 354.528195 62.974815 
L 354.793505 62.900006 
L 355.058815 62.589042 
L 355.324125 62.536404 
L 355.854745 61.350954 
L 356.120055 61.373833 
L 356.385365 60.960545 
L 356.650675 60.947787 
L 356.915985 61.351284 
L 357.181295 61.154078 
L 357.446605 61.412278 
L 357.711915 61.431689 
L 358.773155 62.314504 
L 359.038465 62.382578 
L 359.303775 62.578447 
L 359.569085 62.419635 
L 359.834395 62.566003 
L 360.630325 64.261055 
L 361.160945 63.625633 
L 361.691565 64.386231 
L 362.222185 65.15484 
L 362.487495 66.155672 
L 362.752805 66.011814 
L 363.283425 66.226931 
L 363.548735 66.805677 
L 363.814045 66.977992 
L 364.079355 67.340439 
L 364.344665 67.505934 
L 364.875285 67.556954 
L 365.405905 68.214434 
L 365.671215 68.224878 
L 366.201835 67.79437 
L 366.732455 68.895021 
L 367.528385 68.892484 
L 368.059005 69.376194 
L 368.324315 69.41678 
L 368.589625 69.639304 
L 369.120245 68.8494 
L 369.650865 69.034415 
L 369.916175 69.248509 
L 370.712105 68.588465 
L 371.242725 68.725535 
L 372.038655 68.699071 
L 372.303965 68.560174 
L 373.365205 69.40984 
L 373.630515 68.966712 
L 374.426445 69.13227 
L 374.691755 68.933043 
L 375.222375 69.280792 
L 375.487685 69.17856 
L 375.752995 68.921212 
L 376.018305 69.22048 
L 376.283615 69.263978 
L 377.079545 69.832857 
L 377.079545 69.832857 
" clip-path="url(#p875df76c8b)" style="fill: none; stroke: #56b4e9; stroke-linecap: square"/>
   </g>
  </g>
  <g id="axes_6">
   <g id="patch_7">
    <path d="M 380.25 79.278281 
L 450 79.278281 
L 450 19.878281 
L 380.25 19.878281 
L 380.25 79.278281 
z
" style="fill: none; opacity: 0"/>
   </g>
   <g id="matplotlib.axis_11"/>
   <g id="matplotlib.axis_12"/>
   <g id="line2d_6">
    <path d="M 383.420455 75.017561 
L 383.685765 74.308798 
L 384.481695 74.855772 
L 384.747005 74.646322 
L 385.012315 74.66068 
L 385.542935 73.804557 
L 385.808245 73.516565 
L 386.073555 73.454052 
L 386.338865 72.717653 
L 386.604175 72.926206 
L 386.869485 72.97345 
L 387.134795 72.887032 
L 387.665415 71.582521 
L 387.930725 71.319736 
L 388.196035 70.52879 
L 388.726655 70.62716 
L 388.991965 69.979964 
L 389.257275 69.985318 
L 389.787895 69.282799 
L 390.053205 69.212221 
L 390.318515 68.731286 
L 391.379755 68.180032 
L 391.645065 67.62264 
L 391.910375 67.407126 
L 392.706305 69.846248 
L 393.236925 69.58015 
L 393.767545 69.187517 
L 394.298165 67.209399 
L 394.563475 66.885342 
L 395.094095 64.878223 
L 395.890025 60.874532 
L 396.155335 59.89355 
L 396.420645 58.429796 
L 396.951265 56.96704 
L 397.216575 57.102029 
L 397.747195 55.55218 
L 398.012505 55.719098 
L 398.277815 55.727445 
L 398.543125 55.170199 
L 398.808435 55.087278 
L 399.073745 53.985647 
L 399.604365 52.862343 
L 399.869675 52.709175 
L 400.400295 53.895434 
L 400.665605 54.048048 
L 400.930915 53.863861 
L 401.196225 55.944884 
L 402.257465 59.749869 
L 402.522775 61.662141 
L 402.788085 62.242706 
L 403.053395 62.049432 
L 403.318705 63.642844 
L 403.849325 64.404461 
L 404.114635 66.37965 
L 404.379945 66.361008 
L 404.910565 65.641869 
L 405.175875 64.981873 
L 405.706495 65.13245 
L 406.237115 62.736702 
L 406.502425 61.519775 
L 406.767735 60.991287 
L 407.298355 58.641062 
L 407.563665 56.497955 
L 407.828975 56.787155 
L 408.890215 51.836587 
L 409.155525 51.402114 
L 409.686145 49.469999 
L 409.951455 49.241935 
L 410.216765 47.872909 
L 410.482075 47.978141 
L 411.012695 47.48655 
L 411.278005 46.941782 
L 411.543315 46.67021 
L 412.073935 47.365834 
L 412.604555 46.760466 
L 413.135175 47.972573 
L 413.400485 47.960535 
L 414.196415 49.339393 
L 414.461725 48.963201 
L 414.992345 50.214572 
L 415.788275 52.633245 
L 416.053585 52.715527 
L 416.318895 53.123868 
L 416.849515 55.731013 
L 417.114825 56.652032 
L 417.910755 57.965702 
L 418.176065 58.191307 
L 418.441375 59.204579 
L 418.706685 59.287026 
L 418.971995 60.049735 
L 419.237305 60.264496 
L 419.502615 60.752592 
L 420.563855 61.374391 
L 420.829165 60.816663 
L 421.094475 60.766893 
L 421.625095 59.741288 
L 421.890405 60.379757 
L 422.155715 60.228067 
L 423.482265 61.372498 
L 423.747575 61.337511 
L 424.278195 61.737809 
L 424.543505 61.720223 
L 424.808815 61.891631 
L 425.339435 60.991271 
L 425.870055 61.715194 
L 426.135365 62.483564 
L 426.400675 61.732318 
L 426.665985 61.526639 
L 426.931295 61.516522 
L 427.196605 62.035065 
L 427.461915 62.067879 
L 427.727225 61.927979 
L 427.992535 62.85527 
L 428.257845 63.02736 
L 428.523155 64.044826 
L 429.053775 64.33097 
L 429.319085 64.217144 
L 429.849705 65.518383 
L 430.115015 65.456644 
L 430.380325 65.856697 
L 430.910945 65.537056 
L 431.176255 65.947329 
L 431.441565 66.008425 
L 431.706875 66.700507 
L 432.237495 67.176666 
L 433.033425 69.365076 
L 433.298735 69.338534 
L 433.564045 69.731917 
L 434.094665 70.239187 
L 434.359975 71.35417 
L 434.625285 71.527574 
L 434.890595 72.116551 
L 435.155905 72.231699 
L 435.421215 72.198191 
L 435.686525 72.596604 
L 435.951835 72.188205 
L 436.482455 72.908288 
L 436.747765 72.89011 
L 437.013075 73.284186 
L 437.278385 73.902777 
L 437.543695 73.858657 
L 437.809005 74.277642 
L 438.074315 74.111577 
L 438.339625 74.587904 
L 438.604935 74.427801 
L 439.135555 74.909872 
L 439.400865 74.379688 
L 439.931485 75.270001 
L 440.196795 75.34433 
L 440.462105 75.568406 
L 440.727415 75.163139 
L 440.992725 75.293612 
L 441.258035 74.973983 
L 441.523345 75.228816 
L 441.788655 74.846035 
L 442.053965 75.398629 
L 442.319275 75.686988 
L 442.584585 75.599494 
L 443.115205 75.622234 
L 443.380515 75.440381 
L 443.645825 75.39484 
L 443.911135 75.479485 
L 444.176445 75.082754 
L 444.441755 75.09485 
L 444.972375 74.693348 
L 445.502995 75.793451 
L 445.768305 75.821192 
L 446.033615 75.007543 
L 446.298925 74.738749 
L 446.564235 74.809436 
L 446.829545 75.74043 
L 446.829545 75.74043 
" clip-path="url(#pdab1f4a872)" style="fill: none; stroke: #56b4e9; stroke-linecap: square"/>
   </g>
  </g>
  <g id="axes_7">
   <g id="patch_8">
    <path d="M 31.5 114.918281 
L 101.25 114.918281 
L 101.25 55.518281 
L 31.5 55.518281 
L 31.5 114.918281 
z
" style="fill: none; opacity: 0"/>
   </g>
   <g id="matplotlib.axis_13"/>
   <g id="matplotlib.axis_14"/>
   <g id="line2d_7">
    <path d="M 34.670455 101.249189 
L 42.364445 101.249189 
L 42.629755 95.05918 
L 43.425685 86.497132 
L 43.956305 82.242203 
L 44.221615 81.614025 
L 44.486925 81.5917 
L 44.752235 82.111018 
L 45.282855 83.968116 
L 46.609405 90.145886 
L 47.405335 93.577025 
L 48.466575 96.499776 
L 48.731885 96.834801 
L 49.262505 97.032061 
L 49.527815 97.168314 
L 49.793125 97.101804 
L 50.323745 96.820071 
L 50.589055 96.666614 
L 50.854365 96.339607 
L 51.119675 99.964162 
L 51.384985 99.179807 
L 52.180915 95.283455 
L 52.976845 91.733261 
L 54.038085 87.95297 
L 54.303395 87.218962 
L 54.834015 86.838942 
L 55.099325 86.878557 
L 55.364635 87.211962 
L 55.895255 89.047133 
L 56.691185 92.060239 
L 58.017735 95.976399 
L 59.078975 98.353297 
L 59.874905 99.621607 
L 60.670835 100.572812 
L 61.466765 101.113531 
L 62.262695 101.286829 
L 67.568895 101.259154 
L 68.364825 101.41381 
L 69.160755 101.670562 
L 69.426065 101.671559 
L 69.691375 101.559311 
L 70.221995 100.908071 
L 70.752615 99.781362 
L 73.140405 93.804075 
L 73.405715 93.483615 
L 73.671025 93.344483 
L 73.936335 93.403631 
L 74.201645 93.664613 
L 74.732265 94.69483 
L 75.793505 97.673508 
L 76.589435 99.722374 
L 77.120055 100.636862 
L 77.650675 101.286641 
L 78.181295 101.66237 
L 78.711915 101.807852 
L 79.507845 101.662326 
L 80.834395 101.283385 
L 82.426255 101.260714 
L 84.283425 101.26455 
L 85.344665 100.87672 
L 87.201835 100.127784 
L 87.997765 99.989776 
L 88.793695 100.170833 
L 91.446795 101.222154 
L 92.773345 101.349257 
L 94.365205 101.270661 
L 95.957065 101.249189 
L 98.079545 101.249189 
L 98.079545 101.249189 
" clip-path="url(#p6537e6bf13)" style="fill: none; stroke: #800080; stroke-opacity: 0.25; stroke-linecap: square"/>
   </g>
  </g>
  <g id="axes_8">
   <g id="patch_9">
    <path d="M 101.25 114.918281 
L 171 114.918281 
L 171 55.518281 
L 101.25 55.518281 
L 101.25 114.918281 
z
" style="fill: none; opacity: 0"/>
   </g>
   <g id="matplotlib.axis_15"/>
   <g id="matplotlib.axis_16"/>
   <g id="line2d_8">
    <path d="M 104.420455 101.250023 
L 112.114445 101.250023 
L 112.379755 95.063362 
L 113.175685 86.500653 
L 113.706305 82.244048 
L 113.971615 81.614547 
L 114.236925 81.592934 
L 114.502235 82.111731 
L 115.032855 83.967295 
L 116.359405 90.147234 
L 117.155335 93.579792 
L 118.216575 96.501952 
L 118.481885 96.836912 
L 119.012505 97.036083 
L 119.277815 97.171191 
L 119.543125 97.106971 
L 120.073745 96.822684 
L 120.339055 96.660188 
L 120.604365 96.333506 
L 120.869675 99.908058 
L 121.400295 98.013249 
L 122.461535 92.606369 
L 123.522775 88.67569 
L 124.053395 87.203917 
L 124.584015 86.858656 
L 124.849325 86.95421 
L 125.114635 87.334834 
L 125.645255 89.165532 
L 126.441185 92.149564 
L 127.767735 96.047826 
L 128.828975 98.418575 
L 129.624905 99.672133 
L 130.420835 100.594351 
L 131.216765 101.122439 
L 132.012695 101.284201 
L 137.849515 101.342823 
L 139.176065 101.706234 
L 139.441375 101.617357 
L 139.706685 101.385551 
L 140.237305 100.444168 
L 141.033235 98.218949 
L 142.625095 93.504881 
L 143.155715 92.57045 
L 143.421025 92.356294 
L 143.686335 92.352012 
L 143.951645 92.565994 
L 144.482265 93.564899 
L 145.278195 95.978652 
L 146.339435 99.240491 
L 146.870055 100.367558 
L 147.400675 101.148871 
L 147.931295 101.607909 
L 148.461915 101.806484 
L 148.992535 101.795463 
L 149.523155 101.653583 
L 150.584395 101.314429 
L 152.176255 101.258348 
L 156.421215 101.23916 
L 167.829545 101.250023 
L 167.829545 101.250023 
" clip-path="url(#p601c8cd786)" style="fill: none; stroke: #800080; stroke-opacity: 0.25; stroke-linecap: square"/>
   </g>
  </g>
  <g id="axes_9">
   <g id="patch_10">
    <path d="M 171 114.918281 
L 240.75 114.918281 
L 240.75 55.518281 
L 171 55.518281 
L 171 114.918281 
z
" style="fill: none; opacity: 0"/>
   </g>
   <g id="matplotlib.axis_17"/>
   <g id="matplotlib.axis_18"/>
   <g id="line2d_9">
    <path d="M 174.170455 99.992914 
L 181.864445 99.992914 
L 182.129755 100.879204 
L 182.395065 100.195984 
L 182.660375 99.138094 
L 182.925685 98.831949 
L 183.190995 99.154437 
L 184.252235 101.864088 
L 184.517545 102.307943 
L 184.782855 102.340571 
L 185.048165 102.136985 
L 185.844095 100.692228 
L 186.374715 98.909359 
L 186.905335 97.665455 
L 187.435955 97.26304 
L 187.701265 96.961176 
L 187.966575 96.911935 
L 189.293125 97.874411 
L 189.823745 98.984389 
L 190.354365 100.53022 
L 190.884985 101.134516 
L 191.150295 101.062945 
L 191.415605 99.960986 
L 192.211535 93.009923 
L 193.007465 86.765125 
L 193.538085 83.721179 
L 194.864635 78.512578 
L 195.129945 77.90043 
L 195.395255 78.378467 
L 195.925875 81.93189 
L 196.721805 87.0181 
L 197.783045 92.28144 
L 198.578975 95.586976 
L 199.374905 97.949735 
L 200.170835 99.465775 
L 200.701455 100.039872 
L 201.232075 100.297414 
L 201.762695 100.266043 
L 202.558625 99.992914 
L 209.191375 99.925028 
L 209.721995 99.64859 
L 211.313855 98.564983 
L 212.109785 98.364979 
L 213.171025 98.331102 
L 213.966955 98.540365 
L 214.762885 98.745045 
L 215.824125 98.711222 
L 216.885365 98.810882 
L 218.477225 99.285004 
L 220.599705 99.90644 
L 222.987495 99.997867 
L 224.314045 99.89356 
L 226.171215 99.735419 
L 228.293695 99.799699 
L 229.885555 99.817307 
L 231.477415 99.833649 
L 237.314235 99.992914 
L 237.579545 99.992914 
L 237.579545 99.992914 
" clip-path="url(#p7a22ff9792)" style="fill: none; stroke: #ffa500; stroke-opacity: 0.25; stroke-linecap: square"/>
   </g>
  </g>
  <g id="axes_10">
   <g id="patch_11">
    <path d="M 240.75 114.918281 
L 310.5 114.918281 
L 310.5 55.518281 
L 240.75 55.518281 
L 240.75 114.918281 
z
" style="fill: none; opacity: 0"/>
   </g>
   <g id="matplotlib.axis_19"/>
   <g id="matplotlib.axis_20"/>
   <g id="line2d_10">
    <path d="M 243.920455 99.991426 
L 251.614445 99.991426 
L 251.879755 100.880198 
L 252.145065 100.19516 
L 252.410375 99.13533 
L 252.675685 98.828414 
L 252.940995 99.149002 
L 254.002235 101.859857 
L 254.267545 102.305854 
L 254.532855 102.337396 
L 254.798165 102.133734 
L 255.594095 100.691887 
L 256.124715 98.909342 
L 256.655335 97.666671 
L 257.185955 97.262448 
L 257.451265 96.958931 
L 257.716575 96.914159 
L 259.043125 97.869412 
L 259.573745 98.97993 
L 260.104365 100.548371 
L 260.634985 101.193683 
L 260.900295 101.047398 
L 261.165605 99.827908 
L 262.492155 88.688754 
L 264.614635 78.373278 
L 264.879945 77.665103 
L 265.145255 78.157797 
L 265.941185 83.742099 
L 266.737115 88.405942 
L 267.798355 93.41526 
L 268.328975 95.491553 
L 269.124905 97.806171 
L 269.920835 99.439315 
L 270.451455 100.04712 
L 270.982075 100.325978 
L 271.512695 100.287156 
L 272.043315 99.991426 
L 278.941375 99.905664 
L 279.737305 99.403041 
L 280.798545 98.594366 
L 281.859785 98.123657 
L 282.655715 98.010784 
L 283.186335 98.090477 
L 284.778195 98.611572 
L 286.635365 98.646288 
L 287.961915 99.020228 
L 289.288465 99.64511 
L 290.084395 99.855545 
L 291.941565 99.972963 
L 296.717145 99.988939 
L 307.329545 99.991426 
L 307.329545 99.991426 
" clip-path="url(#p2496818859)" style="fill: none; stroke: #ffa500; stroke-opacity: 0.25; stroke-linecap: square"/>
   </g>
  </g>
  <g id="axes_11">
   <g id="patch_12">
    <path d="M 310.5 114.918281 
L 380.25 114.918281 
L 380.25 55.518281 
L 310.5 55.518281 
L 310.5 114.918281 
z
" style="fill: none; opacity: 0"/>
   </g>
   <g id="matplotlib.axis_21"/>
   <g id="matplotlib.axis_22"/>
   <g id="line2d_11">
    <path d="M 313.670455 99.660931 
L 321.364445 99.660931 
L 321.629755 101.818258 
L 321.895065 101.544683 
L 322.160375 101.693785 
L 322.425685 102.286717 
L 323.221615 105.124747 
L 323.486925 105.279894 
L 323.752235 104.943096 
L 324.548165 103.194894 
L 324.813475 102.272222 
L 325.078785 101.762191 
L 325.609405 98.903972 
L 326.140025 96.901688 
L 327.201265 93.040682 
L 327.466575 92.658076 
L 327.997195 90.93631 
L 328.262505 90.348224 
L 328.793125 89.59342 
L 329.323745 88.626604 
L 329.589055 88.337471 
L 329.854365 88.410064 
L 330.119675 98.276574 
L 330.650295 97.643769 
L 331.180915 97.403657 
L 331.711535 97.129869 
L 332.242155 97.016309 
L 333.038085 97.079385 
L 333.303395 97.049307 
L 333.834015 97.916699 
L 334.364635 98.35015 
L 334.629945 98.340312 
L 335.160565 97.862674 
L 335.691185 96.962854 
L 336.487115 95.037797 
L 337.813665 90.806256 
L 338.344285 90.933883 
L 338.874905 91.587467 
L 339.670835 92.857092 
L 341.262695 97.674959 
L 341.793315 99.660931 
L 346.834205 99.571591 
L 347.364825 99.291029 
L 349.752615 97.113072 
L 350.548545 96.575575 
L 351.079165 96.536816 
L 351.875095 96.8238 
L 353.466955 97.378218 
L 354.262885 97.41209 
L 355.854745 97.140488 
L 357.446605 97.974641 
L 358.507845 98.811019 
L 359.303775 99.40678 
L 360.099705 99.613533 
L 361.956875 99.583051 
L 365.140595 99.211193 
L 368.589625 99.374953 
L 370.977415 99.373732 
L 375.222375 99.660931 
L 377.079545 99.660931 
L 377.079545 99.660931 
" clip-path="url(#p2f180c28ff)" style="fill: none; stroke: #56b4e9; stroke-opacity: 0.25; stroke-linecap: square"/>
   </g>
  </g>
  <g id="axes_12">
   <g id="patch_13">
    <path d="M 380.25 114.918281 
L 450 114.918281 
L 450 55.518281 
L 380.25 55.518281 
L 380.25 114.918281 
z
" style="fill: none; opacity: 0"/>
   </g>
   <g id="matplotlib.axis_23"/>
   <g id="matplotlib.axis_24"/>
   <g id="line2d_12">
    <path d="M 383.420455 99.657507 
L 391.114445 99.657507 
L 391.379755 101.820481 
L 391.645065 101.550997 
L 391.910375 101.700477 
L 392.175685 102.29108 
L 392.971615 105.135403 
L 393.236925 105.292026 
L 393.502235 104.955251 
L 394.298165 103.200073 
L 394.563475 102.27611 
L 394.828785 101.768863 
L 395.359405 98.912551 
L 395.890025 96.909116 
L 396.951265 93.044081 
L 397.216575 92.66582 
L 397.747195 90.94467 
L 398.012505 90.354242 
L 398.543125 89.602924 
L 399.073745 88.635804 
L 399.339055 88.254227 
L 399.604365 88.355804 
L 399.869675 98.113586 
L 400.400295 97.664034 
L 401.461535 97.091026 
L 403.053395 97.110845 
L 403.584015 97.92482 
L 404.114635 98.319984 
L 404.379945 98.290896 
L 404.910565 97.749404 
L 405.441185 96.861931 
L 406.237115 94.912242 
L 407.563665 90.677988 
L 407.828975 90.899091 
L 408.094285 90.95376 
L 408.359595 91.449282 
L 408.890215 92.009173 
L 409.686145 93.636909 
L 411.543315 99.657507 
L 416.584205 99.556834 
L 417.114825 99.254945 
L 417.910755 98.479208 
L 420.033235 96.415624 
L 420.563855 96.165417 
L 421.094475 96.193289 
L 423.482265 97.094812 
L 424.278195 97.04793 
L 425.339435 96.760687 
L 426.135365 97.031267 
L 427.461915 97.934736 
L 429.584395 99.544051 
L 430.645635 99.637509 
L 446.829545 99.657507 
L 446.829545 99.657507 
" clip-path="url(#p863168368e)" style="fill: none; stroke: #56b4e9; stroke-opacity: 0.25; stroke-linecap: square"/>
   </g>
  </g>
  <g id="axes_13">
   <g id="patch_14">
    <path d="M 31.5 150.558281 
L 101.25 150.558281 
L 101.25 91.158281 
L 31.5 91.158281 
L 31.5 150.558281 
z
" style="fill: none; opacity: 0"/>
   </g>
   <g id="matplotlib.axis_25"/>
   <g id="matplotlib.axis_26"/>
   <g id="line2d_13">
    <path d="M 34.670455 134.574921 
L 98.079545 134.574921 
L 98.079545 134.574921 
" clip-path="url(#p8c7914c187)" style="fill: none; stroke: #800080; stroke-opacity: 0.5; stroke-linecap: square"/>
   </g>
  </g>
  <g id="axes_14">
   <g id="patch_15">
    <path d="M 101.25 150.558281 
L 171 150.558281 
L 171 91.158281 
L 101.25 91.158281 
L 101.25 150.558281 
z
" style="fill: none; opacity: 0"/>
   </g>
   <g id="matplotlib.axis_27"/>
   <g id="matplotlib.axis_28"/>
   <g id="line2d_14">
    <path d="M 104.420455 134.574484 
L 106.277625 134.469899 
L 107.073555 134.114476 
L 107.869485 133.622657 
L 108.930725 132.736572 
L 109.726655 131.79542 
L 110.522585 130.578216 
L 111.583825 128.580832 
L 113.440995 124.909095 
L 113.971615 124.335739 
L 114.502235 124.158495 
L 115.032855 124.370403 
L 115.563475 124.93121 
L 116.359405 126.245119 
L 117.951265 129.1704 
L 118.747195 130.07083 
L 119.277815 130.369991 
L 119.808435 130.418477 
L 120.339055 130.177283 
L 120.869675 129.46987 
L 121.400295 128.268081 
L 122.726845 124.777424 
L 123.522775 123.458323 
L 124.053395 123.016801 
L 124.318705 122.955155 
L 124.584015 123.032698 
L 124.849325 123.252906 
L 125.379945 124.121989 
L 126.441185 126.858071 
L 128.563665 132.139334 
L 129.624905 134.411603 
L 130.420835 135.746804 
L 131.216765 136.6324 
L 131.747385 136.943811 
L 132.278005 137.049995 
L 133.073935 136.889397 
L 135.992345 135.671132 
L 136.788275 135.657701 
L 137.849515 135.933106 
L 138.645445 136.047427 
L 139.706685 135.859784 
L 141.563855 135.095855 
L 142.359785 134.738064 
L 143.155715 134.60972 
L 145.543505 134.579146 
L 167.829545 134.574484 
L 167.829545 134.574484 
" clip-path="url(#p4c94fe95c5)" style="fill: none; stroke: #800080; stroke-opacity: 0.5; stroke-linecap: square"/>
   </g>
  </g>
  <g id="axes_15">
   <g id="patch_16">
    <path d="M 171 150.558281 
L 240.75 150.558281 
L 240.75 91.158281 
L 171 91.158281 
L 171 150.558281 
z
" style="fill: none; opacity: 0"/>
   </g>
   <g id="matplotlib.axis_29"/>
   <g id="matplotlib.axis_30"/>
   <g id="line2d_15">
    <path d="M 174.170455 134.99231 
L 237.579545 134.99231 
L 237.579545 134.99231 
" clip-path="url(#p49bd322f4f)" style="fill: none; stroke: #ffa500; stroke-opacity: 0.5; stroke-linecap: square"/>
   </g>
  </g>
  <g id="axes_16">
   <g id="patch_17">
    <path d="M 240.75 150.558281 
L 310.5 150.558281 
L 310.5 91.158281 
L 240.75 91.158281 
L 240.75 150.558281 
z
" style="fill: none; opacity: 0"/>
   </g>
   <g id="matplotlib.axis_31"/>
   <g id="matplotlib.axis_32"/>
   <g id="line2d_16">
    <path d="M 243.920455 134.991557 
L 245.777625 135.077735 
L 247.634795 135.669849 
L 249.491965 136.265208 
L 250.287895 136.274316 
L 251.614445 136.143041 
L 254.267545 135.656076 
L 255.594095 135.18058 
L 257.716575 134.29143 
L 258.247195 134.287473 
L 259.043125 134.531846 
L 260.104365 134.934655 
L 260.369675 134.918101 
L 260.634985 134.704493 
L 260.900295 134.15208 
L 261.430915 131.830118 
L 262.492155 125.016621 
L 263.022775 120.73225 
L 264.084015 109.093245 
L 264.879945 100.904841 
L 265.410565 97.228065 
L 265.941185 95.071762 
L 266.206495 94.274574 
L 266.471805 93.858281 
L 266.737115 93.98947 
L 267.002425 94.711154 
L 267.533045 97.519849 
L 268.063665 101.862454 
L 269.390215 116.057469 
L 270.451455 126.726004 
L 271.247385 132.742002 
L 272.043315 136.964084 
L 272.573935 138.890457 
L 273.104555 140.236688 
L 273.635175 141.063393 
L 274.165795 141.479022 
L 274.696415 141.577763 
L 275.227035 141.393734 
L 275.757655 140.950739 
L 276.818895 139.648887 
L 278.941375 136.708071 
L 279.737305 135.946973 
L 280.533235 135.461659 
L 281.329165 135.183464 
L 282.655715 135.040542 
L 286.370055 135.000881 
L 307.329545 134.991557 
L 307.329545 134.991557 
" clip-path="url(#pb4806e1eb3)" style="fill: none; stroke: #ffa500; stroke-opacity: 0.5; stroke-linecap: square"/>
   </g>
  </g>
  <g id="axes_17">
   <g id="patch_18">
    <path d="M 310.5 150.558281 
L 380.25 150.558281 
L 380.25 91.158281 
L 310.5 91.158281 
L 310.5 150.558281 
z
" style="fill: none; opacity: 0"/>
   </g>
   <g id="matplotlib.axis_33"/>
   <g id="matplotlib.axis_34"/>
   <g id="line2d_17">
    <path d="M 313.670455 134.718493 
L 377.079545 134.718493 
L 377.079545 134.718493 
" clip-path="url(#p555db00294)" style="fill: none; stroke: #56b4e9; stroke-opacity: 0.5; stroke-linecap: square"/>
   </g>
  </g>
  <g id="axes_18">
   <g id="patch_19">
    <path d="M 380.25 150.558281 
L 450 150.558281 
L 450 91.158281 
L 380.25 91.158281 
L 380.25 150.558281 
z
" style="fill: none; opacity: 0"/>
   </g>
   <g id="matplotlib.axis_35"/>
   <g id="matplotlib.axis_36"/>
   <g id="line2d_18">
    <path d="M 383.420455 134.711316 
L 384.747005 134.752654 
L 385.277625 135.029934 
L 386.073555 136.21328 
L 387.930725 139.474733 
L 388.991965 140.898376 
L 389.522585 141.184204 
L 390.053205 141.064078 
L 391.379755 140.357694 
L 392.440995 139.401597 
L 393.236925 138.383372 
L 394.032855 136.987665 
L 394.828785 135.135007 
L 396.951265 129.916967 
L 397.747195 128.31499 
L 398.277815 127.533982 
L 398.808435 127.052567 
L 399.339055 126.818647 
L 399.869675 126.840693 
L 400.400295 127.158567 
L 400.930915 127.82353 
L 401.726845 129.305581 
L 403.584015 133.219328 
L 404.114635 133.875151 
L 404.379945 134.096635 
L 404.910565 134.128725 
L 405.441185 133.789081 
L 405.971805 132.999962 
L 406.502425 131.802924 
L 407.563665 128.695572 
L 409.420835 122.934318 
L 410.216765 121.222933 
L 411.012695 120.130195 
L 411.543315 119.744097 
L 412.073935 119.616138 
L 412.604555 119.710713 
L 413.400485 120.174212 
L 414.196415 121.040577 
L 414.992345 122.304816 
L 416.318895 125.006878 
L 417.910755 128.872545 
L 418.971995 131.364365 
L 419.767925 132.807355 
L 420.563855 133.860708 
L 421.094475 134.327524 
L 421.625095 134.591555 
L 422.686335 134.690414 
L 438.074315 134.711316 
L 446.829545 134.711316 
L 446.829545 134.711316 
" clip-path="url(#p6cfaa91c76)" style="fill: none; stroke: #56b4e9; stroke-opacity: 0.5; stroke-linecap: square"/>
   </g>
  </g>
  <g id="axes_19">
   <g id="patch_20">
    <path d="M 31.5 186.198281 
L 101.25 186.198281 
L 101.25 126.798281 
L 31.5 126.798281 
L 31.5 186.198281 
z
" style="fill: none; opacity: 0"/>
   </g>
   <g id="matplotlib.axis_37"/>
   <g id="matplotlib.axis_38"/>
   <g id="line2d_19">
    <path d="M 34.670455 172.875524 
L 36.262315 172.780266 
L 36.792935 172.430418 
L 40.241965 168.466287 
L 40.772585 168.249197 
L 41.568515 168.297104 
L 42.364445 168.496069 
L 42.629755 166.370357 
L 43.425685 157.761525 
L 43.956305 153.478618 
L 44.221615 152.830512 
L 44.486925 152.786378 
L 44.752235 153.291782 
L 45.282855 155.145666 
L 46.609405 161.399587 
L 47.405335 164.932483 
L 48.466575 168.044756 
L 48.731885 168.428858 
L 49.262505 168.719446 
L 49.527815 168.899705 
L 49.793125 168.872836 
L 50.323745 168.660368 
L 50.589055 168.538251 
L 51.119675 167.943324 
L 51.384985 167.436798 
L 51.915605 165.451521 
L 52.711535 162.368696 
L 53.772775 159.618811 
L 54.303395 158.725813 
L 54.834015 158.388052 
L 55.099325 158.442838 
L 55.364635 158.807796 
L 55.895255 160.704492 
L 56.691185 163.874328 
L 57.752425 167.239986 
L 58.548355 169.237989 
L 59.609595 171.321072 
L 60.936145 173.437135 
L 61.732075 174.351525 
L 62.793315 175.19966 
L 63.854555 175.77801 
L 64.915795 176.068451 
L 66.507655 176.220407 
L 68.099515 176.179395 
L 68.895445 175.985623 
L 69.426065 175.588926 
L 69.956685 174.756698 
L 70.487305 173.365146 
L 72.875095 165.652823 
L 73.405715 164.82629 
L 73.671025 164.680659 
L 73.936335 164.737186 
L 74.201645 164.995491 
L 74.732265 166.024342 
L 75.793505 169.003253 
L 76.589435 171.065253 
L 77.120055 172.012386 
L 77.650675 172.697068 
L 78.181295 173.110476 
L 78.711915 173.295262 
L 79.507845 173.213819 
L 80.834395 172.901124 
L 84.814045 172.578442 
L 86.671215 171.89453 
L 87.732455 171.585533 
L 88.263075 171.596888 
L 89.059005 171.86354 
L 91.181485 172.752263 
L 92.508035 172.94313 
L 94.099895 172.919803 
L 95.691755 172.875524 
L 98.079545 172.875524 
L 98.079545 172.875524 
" clip-path="url(#p003ec9bfa9)" style="fill: none; stroke: #800080; stroke-opacity: 0.75; stroke-linecap: square"/>
   </g>
  </g>
  <g id="axes_20">
   <g id="patch_21">
    <path d="M 101.25 186.198281 
L 171 186.198281 
L 171 126.798281 
L 101.25 126.798281 
L 101.25 186.198281 
z
" style="fill: none; opacity: 0"/>
   </g>
   <g id="matplotlib.axis_39"/>
   <g id="matplotlib.axis_40"/>
   <g id="line2d_20">
    <path d="M 104.420455 172.874835 
L 106.012315 172.780562 
L 106.542935 172.456577 
L 107.604175 171.298171 
L 109.726655 168.554468 
L 110.522585 168.028659 
L 111.053205 168.003632 
L 111.583825 168.121676 
L 112.114445 168.365175 
L 112.379755 166.279208 
L 113.175685 157.798285 
L 113.706305 153.598138 
L 113.971615 152.995448 
L 114.236925 153.003147 
L 114.502235 153.542815 
L 115.032855 155.410646 
L 117.420645 165.490634 
L 118.216575 167.350911 
L 118.481885 167.59732 
L 119.012505 167.640092 
L 119.277815 167.705805 
L 119.543125 167.574139 
L 120.073745 167.175968 
L 120.339055 166.960617 
L 121.134985 165.656762 
L 121.665605 163.645729 
L 122.196225 161.63858 
L 122.992155 159.714054 
L 123.788085 158.365517 
L 124.318705 157.81938 
L 124.584015 157.727685 
L 124.849325 157.804247 
L 125.114635 158.144055 
L 125.645255 159.819637 
L 126.441185 162.493121 
L 128.298355 167.430483 
L 129.359595 169.753818 
L 130.420835 171.549281 
L 131.216765 172.37818 
L 131.747385 172.652524 
L 132.278005 172.730684 
L 133.073935 172.55665 
L 135.992345 171.348671 
L 137.053585 171.359526 
L 137.849515 171.601964 
L 139.441375 172.247451 
L 139.706685 172.071745 
L 140.237305 171.269083 
L 141.033235 169.205731 
L 142.359785 165.344293 
L 142.890405 164.200579 
L 143.421025 163.623914 
L 143.686335 163.622347 
L 143.951645 163.83175 
L 144.482265 164.84037 
L 145.278195 167.253443 
L 146.339435 170.533012 
L 146.870055 171.692254 
L 147.665985 172.807018 
L 148.196605 173.163848 
L 148.727225 173.305865 
L 149.523155 173.201122 
L 150.584395 172.922176 
L 152.441565 172.871393 
L 167.829545 172.874835 
L 167.829545 172.874835 
" clip-path="url(#pdd5407f782)" style="fill: none; stroke: #800080; stroke-opacity: 0.75; stroke-linecap: square"/>
   </g>
  </g>
  <g id="axes_21">
   <g id="patch_22">
    <path d="M 171 186.198281 
L 240.75 186.198281 
L 240.75 126.798281 
L 171 126.798281 
L 171 186.198281 
z
" style="fill: none; opacity: 0"/>
   </g>
   <g id="matplotlib.axis_41"/>
   <g id="matplotlib.axis_42"/>
   <g id="line2d_21">
    <path d="M 174.170455 169.782337 
L 176.027625 169.848677 
L 177.354175 170.26731 
L 179.211345 170.891225 
L 180.007275 171.066313 
L 181.068515 171.023506 
L 181.864445 170.826584 
L 182.129755 172.020615 
L 182.395065 171.357416 
L 182.660375 170.317112 
L 182.925685 170.027039 
L 183.190995 170.366608 
L 184.252235 173.135917 
L 184.517545 173.582273 
L 184.782855 173.614969 
L 185.048165 173.396226 
L 185.844095 171.894148 
L 186.374715 170.100081 
L 186.905335 168.851174 
L 187.435955 168.449493 
L 187.701265 168.150552 
L 187.966575 168.105401 
L 189.293125 169.153484 
L 189.823745 170.298068 
L 190.354365 171.834404 
L 190.884985 172.519153 
L 191.150295 172.498973 
L 191.415605 171.416034 
L 192.211535 164.507039 
L 193.007465 158.694883 
L 193.272775 157.54004 
L 193.538085 156.888193 
L 193.803395 156.725096 
L 194.068705 156.753747 
L 194.599325 157.495183 
L 194.864635 157.94548 
L 195.129945 158.80014 
L 195.395255 160.755724 
L 196.721805 175.396758 
L 197.252425 179.151756 
L 197.783045 181.510646 
L 198.313665 182.754606 
L 198.844285 182.934814 
L 199.109595 182.863801 
L 199.640215 182.352816 
L 200.436145 181.142549 
L 202.293315 177.949136 
L 203.619865 176.53168 
L 205.211725 174.973139 
L 207.068895 173.472827 
L 209.456685 171.733377 
L 211.313855 169.810186 
L 212.109785 169.52377 
L 213.171025 169.441308 
L 213.966955 169.643582 
L 214.762885 169.846175 
L 215.558815 169.829965 
L 217.946605 169.599896 
L 221.926255 169.805675 
L 223.518115 169.898155 
L 228.293695 169.777298 
L 229.885555 169.794905 
L 232.538655 169.75185 
L 237.579545 169.782337 
L 237.579545 169.782337 
" clip-path="url(#pe688a64eb9)" style="fill: none; stroke: #ffa500; stroke-opacity: 0.75; stroke-linecap: square"/>
   </g>
  </g>
  <g id="axes_22">
   <g id="patch_23">
    <path d="M 240.75 186.198281 
L 310.5 186.198281 
L 310.5 126.798281 
L 240.75 126.798281 
L 240.75 186.198281 
z
" style="fill: none; opacity: 0"/>
   </g>
   <g id="matplotlib.axis_43"/>
   <g id="matplotlib.axis_44"/>
   <g id="line2d_22">
    <path d="M 243.920455 169.779605 
L 245.512315 169.819065 
L 246.308245 170.126802 
L 249.757275 171.740618 
L 250.818515 171.568701 
L 251.614445 171.254407 
L 251.879755 172.39146 
L 252.145065 171.672933 
L 252.410375 170.580845 
L 252.675685 170.236463 
L 252.940995 170.528663 
L 254.002235 173.154979 
L 254.267545 173.592806 
L 254.532855 173.630289 
L 254.798165 173.447446 
L 255.594095 172.077719 
L 256.124715 170.327576 
L 256.655335 169.087707 
L 257.185955 168.686681 
L 257.451265 168.376595 
L 257.716575 168.319601 
L 259.043125 169.143217 
L 259.573745 170.210475 
L 260.104365 171.776127 
L 260.634985 172.478267 
L 260.900295 172.348625 
L 261.165605 171.147285 
L 263.288085 152.790625 
L 264.349325 140.565521 
L 264.879945 134.240767 
L 265.145255 132.35843 
L 265.410565 131.648312 
L 266.206495 131.149503 
L 266.471805 131.10644 
L 266.737115 131.423633 
L 267.002425 132.182327 
L 267.533045 134.77333 
L 268.063665 138.734643 
L 268.859595 146.295234 
L 270.451455 162.142772 
L 271.247385 168.034805 
L 272.043315 172.162922 
L 272.573935 174.286911 
L 273.104555 175.732213 
L 273.635175 176.610464 
L 274.165795 177.058588 
L 274.696415 177.164417 
L 275.227035 176.962994 
L 275.757655 176.526549 
L 276.818895 175.234087 
L 278.676065 172.718658 
L 279.737305 171.236481 
L 280.533235 170.253822 
L 281.063855 169.8375 
L 282.125095 169.378097 
L 282.921025 169.330389 
L 283.451645 169.492474 
L 284.512885 169.874388 
L 285.308815 169.866292 
L 287.165985 169.578893 
L 288.492535 169.594961 
L 291.145635 169.767949 
L 298.574315 169.779605 
L 307.329545 169.779605 
L 307.329545 169.779605 
" clip-path="url(#p3a48c16757)" style="fill: none; stroke: #ffa500; stroke-opacity: 0.75; stroke-linecap: square"/>
   </g>
  </g>
  <g id="axes_23">
   <g id="patch_24">
    <path d="M 310.5 186.198281 
L 380.25 186.198281 
L 380.25 126.798281 
L 310.5 126.798281 
L 310.5 186.198281 
z
" style="fill: none; opacity: 0"/>
   </g>
   <g id="matplotlib.axis_45"/>
   <g id="matplotlib.axis_46"/>
   <g id="line2d_23">
    <path d="M 313.670455 172.722091 
L 314.997005 172.76279 
L 315.527625 173.125001 
L 315.792935 173.473276 
L 316.588865 174.925518 
L 318.180725 177.744262 
L 319.507275 180.30189 
L 320.568515 181.779235 
L 321.364445 183.498281 
L 321.629755 173.925529 
L 321.895065 173.717804 
L 322.160375 173.916954 
L 322.425685 174.555248 
L 323.221615 177.565792 
L 323.486925 177.787989 
L 323.752235 177.495488 
L 324.548165 175.838412 
L 324.813475 174.949236 
L 325.078785 174.449073 
L 325.609405 171.607036 
L 326.140025 169.57785 
L 327.201265 165.679218 
L 327.466575 165.284885 
L 327.997195 163.546187 
L 328.262505 162.974015 
L 328.793125 162.236709 
L 329.323745 161.252764 
L 329.589055 160.970583 
L 329.854365 161.022552 
L 330.119675 175.092436 
L 330.650295 173.12285 
L 331.976845 170.533043 
L 332.507465 170.202685 
L 332.772775 170.045934 
L 333.038085 169.738132 
L 333.303395 169.223511 
L 333.834015 169.760787 
L 334.364635 169.933982 
L 334.629945 169.769552 
L 335.425875 168.430694 
L 336.487115 165.637558 
L 337.813665 161.458325 
L 338.344285 161.15525 
L 339.670835 160.39875 
L 340.466765 160.586959 
L 340.997385 160.654217 
L 341.528005 160.988212 
L 341.793315 161.269867 
L 342.323935 160.485688 
L 342.589245 160.348705 
L 343.119865 160.450382 
L 343.915795 161.002061 
L 344.711725 162.030493 
L 345.772965 164.021257 
L 347.630135 167.801804 
L 348.160755 168.333339 
L 348.691375 168.686789 
L 349.221995 168.746456 
L 350.017925 168.59671 
L 351.344475 168.186707 
L 352.140405 168.405953 
L 353.466955 168.866377 
L 354.262885 168.897978 
L 355.589435 168.672197 
L 355.854745 168.768589 
L 357.711915 170.482276 
L 359.303775 172.349422 
L 359.834395 172.60402 
L 360.895635 172.702314 
L 361.160945 172.712532 
L 362.487495 171.886762 
L 363.018115 171.715018 
L 363.283425 171.540946 
L 364.344665 171.583621 
L 365.140595 171.377532 
L 365.671215 172.113694 
L 368.059005 172.237867 
L 371.242725 172.326602 
L 373.895825 172.722091 
L 377.079545 172.722091 
L 377.079545 172.722091 
" clip-path="url(#pdb693972b7)" style="fill: none; stroke: #56b4e9; stroke-opacity: 0.75; stroke-linecap: square"/>
   </g>
  </g>
  <g id="axes_24">
   <g id="patch_25">
    <path d="M 380.25 186.198281 
L 450 186.198281 
L 450 126.798281 
L 380.25 126.798281 
L 380.25 186.198281 
z
" style="fill: none; opacity: 0"/>
   </g>
   <g id="matplotlib.axis_47"/>
   <g id="matplotlib.axis_48"/>
   <g id="line2d_24">
    <path d="M 383.420455 172.717183 
L 384.747005 172.750609 
L 385.277625 172.96656 
L 386.073555 173.824634 
L 388.461345 177.1552 
L 389.257275 178.536652 
L 391.114445 181.505565 
L 391.379755 171.856011 
L 391.645065 171.498538 
L 391.910375 171.569731 
L 392.175685 172.07367 
L 392.971615 174.630644 
L 393.236925 174.703802 
L 393.767545 173.702652 
L 394.032855 173.240244 
L 394.828785 170.920908 
L 395.359405 168.053757 
L 395.890025 166.071934 
L 396.951265 162.279326 
L 397.216575 161.894991 
L 397.747195 160.156903 
L 398.012505 159.541118 
L 398.543125 158.798035 
L 399.073745 157.884301 
L 399.339055 157.475884 
L 399.604365 157.600613 
L 399.869675 171.496092 
L 400.400295 169.806955 
L 400.930915 168.573961 
L 401.726845 167.646563 
L 402.788085 167.652435 
L 403.053395 167.395927 
L 403.849325 168.90207 
L 404.379945 169.452807 
L 404.910565 169.340823 
L 405.175875 169.175063 
L 405.706495 168.433864 
L 406.237115 167.312459 
L 407.563665 162.739553 
L 407.828975 162.528767 
L 409.686145 158.192672 
L 410.747385 156.984771 
L 411.278005 156.693165 
L 411.543315 156.799797 
L 412.073935 155.733878 
L 412.339245 155.568967 
L 412.869865 155.623398 
L 413.400485 155.87501 
L 413.931105 156.388113 
L 414.727035 157.527013 
L 415.522965 158.954823 
L 418.176065 164.466425 
L 418.971995 165.554109 
L 419.767925 166.275771 
L 420.829165 167.091005 
L 421.890405 167.769425 
L 422.951645 168.228529 
L 423.747575 168.383129 
L 424.543505 168.237562 
L 425.339435 168.114336 
L 425.870055 168.412795 
L 426.931295 169.504747 
L 429.053775 172.155278 
L 429.584395 172.549768 
L 430.380325 172.677259 
L 434.094665 172.717183 
L 446.829545 172.717183 
L 446.829545 172.717183 
" clip-path="url(#pe6f07d1365)" style="fill: none; stroke: #56b4e9; stroke-opacity: 0.75; stroke-linecap: square"/>
   </g>
  </g>
  <g id="text_3">
   <!-- Noradrenaline -->
   <g style="fill: #800080" transform="translate(72 15.558281) scale(0.11 -0.11)">
    <defs>
     <path id="DejaVuSans-6e" d="M 3513 2113 
L 3513 0 
L 2938 0 
L 2938 2094 
Q 2938 2591 2744 2837 
Q 2550 3084 2163 3084 
Q 1697 3084 1428 2787 
Q 1159 2491 1159 1978 
L 1159 0 
L 581 0 
L 581 3500 
L 1159 3500 
L 1159 2956 
Q 1366 3272 1645 3428 
Q 1925 3584 2291 3584 
Q 2894 3584 3203 3211 
Q 3513 2838 3513 2113 
z
" transform="scale(0.015625)"/>
     <path id="DejaVuSans-6c" d="M 603 4863 
L 1178 4863 
L 1178 0 
L 603 0 
L 603 4863 
z
" transform="scale(0.015625)"/>
     <path id="DejaVuSans-69" d="M 603 3500 
L 1178 3500 
L 1178 0 
L 603 0 
L 603 3500 
z
M 603 4863 
L 1178 4863 
L 1178 4134 
L 603 4134 
L 603 4863 
z
" transform="scale(0.015625)"/>
    </defs>
    <use xlink:href="#DejaVuSans-4e"/>
    <use xlink:href="#DejaVuSans-6f" transform="translate(74.804688 0)"/>
    <use xlink:href="#DejaVuSans-72" transform="translate(135.986328 0)"/>
    <use xlink:href="#DejaVuSans-61" transform="translate(177.099609 0)"/>
    <use xlink:href="#DejaVuSans-64" transform="translate(238.378906 0)"/>
    <use xlink:href="#DejaVuSans-72" transform="translate(301.855469 0)"/>
    <use xlink:href="#DejaVuSans-65" transform="translate(340.71875 0)"/>
    <use xlink:href="#DejaVuSans-6e" transform="translate(402.242188 0)"/>
    <use xlink:href="#DejaVuSans-61" transform="translate(465.621094 0)"/>
    <use xlink:href="#DejaVuSans-6c" transform="translate(526.900391 0)"/>
    <use xlink:href="#DejaVuSans-69" transform="translate(554.683594 0)"/>
    <use xlink:href="#DejaVuSans-6e" transform="translate(582.466797 0)"/>
    <use xlink:href="#DejaVuSans-65" transform="translate(645.845703 0)"/>
   </g>
  </g>
  <g id="text_4">
   <!-- Dopamine -->
   <g style="fill: #ffa500" transform="translate(217.8 15.558281) scale(0.11 -0.11)">
    <defs>
     <path id="DejaVuSans-44" d="M 1259 4147 
L 1259 519 
L 2022 519 
Q 2988 519 3436 956 
Q 3884 1394 3884 2338 
Q 3884 3275 3436 3711 
Q 2988 4147 2022 4147 
L 1259 4147 
z
M 628 4666 
L 1925 4666 
Q 3281 4666 3915 4102 
Q 4550 3538 4550 2338 
Q 4550 1131 3912 565 
Q 3275 0 1925 0 
L 628 0 
L 628 4666 
z
" transform="scale(0.015625)"/>
     <path id="DejaVuSans-70" d="M 1159 525 
L 1159 -1331 
L 581 -1331 
L 581 3500 
L 1159 3500 
L 1159 2969 
Q 1341 3281 1617 3432 
Q 1894 3584 2278 3584 
Q 2916 3584 3314 3078 
Q 3713 2572 3713 1747 
Q 3713 922 3314 415 
Q 2916 -91 2278 -91 
Q 1894 -91 1617 61 
Q 1341 213 1159 525 
z
M 3116 1747 
Q 3116 2381 2855 2742 
Q 2594 3103 2138 3103 
Q 1681 3103 1420 2742 
Q 1159 2381 1159 1747 
Q 1159 1113 1420 752 
Q 1681 391 2138 391 
Q 2594 391 2855 752 
Q 3116 1113 3116 1747 
z
" transform="scale(0.015625)"/>
     <path id="DejaVuSans-6d" d="M 3328 2828 
Q 3544 3216 3844 3400 
Q 4144 3584 4550 3584 
Q 5097 3584 5394 3201 
Q 5691 2819 5691 2113 
L 5691 0 
L 5113 0 
L 5113 2094 
Q 5113 2597 4934 2840 
Q 4756 3084 4391 3084 
Q 3944 3084 3684 2787 
Q 3425 2491 3425 1978 
L 3425 0 
L 2847 0 
L 2847 2094 
Q 2847 2600 2669 2842 
Q 2491 3084 2119 3084 
Q 1678 3084 1418 2786 
Q 1159 2488 1159 1978 
L 1159 0 
L 581 0 
L 581 3500 
L 1159 3500 
L 1159 2956 
Q 1356 3278 1631 3431 
Q 1906 3584 2284 3584 
Q 2666 3584 2933 3390 
Q 3200 3197 3328 2828 
z
" transform="scale(0.015625)"/>
    </defs>
    <use xlink:href="#DejaVuSans-44"/>
    <use xlink:href="#DejaVuSans-6f" transform="translate(77.001953 0)"/>
    <use xlink:href="#DejaVuSans-70" transform="translate(138.183594 0)"/>
    <use xlink:href="#DejaVuSans-61" transform="translate(201.660156 0)"/>
    <use xlink:href="#DejaVuSans-6d" transform="translate(262.939453 0)"/>
    <use xlink:href="#DejaVuSans-69" transform="translate(360.351562 0)"/>
    <use xlink:href="#DejaVuSans-6e" transform="translate(388.134766 0)"/>
    <use xlink:href="#DejaVuSans-65" transform="translate(451.513672 0)"/>
   </g>
  </g>
  <g id="text_5">
   <!-- Pupil -->
   <g style="fill: #56b4e9" transform="translate(363.6 15.558281) scale(0.11 -0.11)">
    <defs>
     <path id="DejaVuSans-50" d="M 1259 4147 
L 1259 2394 
L 2053 2394 
Q 2494 2394 2734 2622 
Q 2975 2850 2975 3272 
Q 2975 3691 2734 3919 
Q 2494 4147 2053 4147 
L 1259 4147 
z
M 628 4666 
L 2053 4666 
Q 2838 4666 3239 4311 
Q 3641 3956 3641 3272 
Q 3641 2581 3239 2228 
Q 2838 1875 2053 1875 
L 1259 1875 
L 1259 0 
L 628 0 
L 628 4666 
z
" transform="scale(0.015625)"/>
     <path id="DejaVuSans-75" d="M 544 1381 
L 544 3500 
L 1119 3500 
L 1119 1403 
Q 1119 906 1312 657 
Q 1506 409 1894 409 
Q 2359 409 2629 706 
Q 2900 1003 2900 1516 
L 2900 3500 
L 3475 3500 
L 3475 0 
L 2900 0 
L 2900 538 
Q 2691 219 2414 64 
Q 2138 -91 1772 -91 
Q 1169 -91 856 284 
Q 544 659 544 1381 
z
M 1991 3584 
L 1991 3584 
z
" transform="scale(0.015625)"/>
    </defs>
    <use xlink:href="#DejaVuSans-50"/>
    <use xlink:href="#DejaVuSans-75" transform="translate(58.552734 0)"/>
    <use xlink:href="#DejaVuSans-70" transform="translate(121.931641 0)"/>
    <use xlink:href="#DejaVuSans-69" transform="translate(185.408203 0)"/>
    <use xlink:href="#DejaVuSans-6c" transform="translate(213.191406 0)"/>
   </g>
  </g>
  <g id="text_6">
   <!-- Data -->
   <g transform="translate(7.2 54.438281) scale(0.09 -0.09)">
    <defs>
     <path id="DejaVuSans-74" d="M 1172 4494 
L 1172 3500 
L 2356 3500 
L 2356 3053 
L 1172 3053 
L 1172 1153 
Q 1172 725 1289 603 
Q 1406 481 1766 481 
L 2356 481 
L 2356 0 
L 1766 0 
Q 1100 0 847 248 
Q 594 497 594 1153 
L 594 3053 
L 172 3053 
L 172 3500 
L 594 3500 
L 594 4494 
L 1172 4494 
z
" transform="scale(0.015625)"/>
    </defs>
    <use xlink:href="#DejaVuSans-44"/>
    <use xlink:href="#DejaVuSans-61" transform="translate(77.001953 0)"/>
    <use xlink:href="#DejaVuSans-74" transform="translate(138.28125 0)"/>
    <use xlink:href="#DejaVuSans-61" transform="translate(177.490234 0)"/>
   </g>
  </g>
  <g id="text_7">
   <!-- Task only -->
   <g style="opacity: 0.25" transform="translate(7.2 76.038281) scale(0.09 -0.09)">
    <defs>
     <path id="DejaVuSans-54" d="M -19 4666 
L 3928 4666 
L 3928 4134 
L 2272 4134 
L 2272 0 
L 1638 0 
L 1638 4134 
L -19 4134 
L -19 4666 
z
" transform="scale(0.015625)"/>
     <path id="DejaVuSans-73" d="M 2834 3397 
L 2834 2853 
Q 2591 2978 2328 3040 
Q 2066 3103 1784 3103 
Q 1356 3103 1142 2972 
Q 928 2841 928 2578 
Q 928 2378 1081 2264 
Q 1234 2150 1697 2047 
L 1894 2003 
Q 2506 1872 2764 1633 
Q 3022 1394 3022 966 
Q 3022 478 2636 193 
Q 2250 -91 1575 -91 
Q 1294 -91 989 -36 
Q 684 19 347 128 
L 347 722 
Q 666 556 975 473 
Q 1284 391 1588 391 
Q 1994 391 2212 530 
Q 2431 669 2431 922 
Q 2431 1156 2273 1281 
Q 2116 1406 1581 1522 
L 1381 1569 
Q 847 1681 609 1914 
Q 372 2147 372 2553 
Q 372 3047 722 3315 
Q 1072 3584 1716 3584 
Q 2034 3584 2315 3537 
Q 2597 3491 2834 3397 
z
" transform="scale(0.015625)"/>
     <path id="DejaVuSans-6b" d="M 581 4863 
L 1159 4863 
L 1159 1991 
L 2875 3500 
L 3609 3500 
L 1753 1863 
L 3688 0 
L 2938 0 
L 1159 1709 
L 1159 0 
L 581 0 
L 581 4863 
z
" transform="scale(0.015625)"/>
     <path id="DejaVuSans-79" d="M 2059 -325 
Q 1816 -950 1584 -1140 
Q 1353 -1331 966 -1331 
L 506 -1331 
L 506 -850 
L 844 -850 
Q 1081 -850 1212 -737 
Q 1344 -625 1503 -206 
L 1606 56 
L 191 3500 
L 800 3500 
L 1894 763 
L 2988 3500 
L 3597 3500 
L 2059 -325 
z
" transform="scale(0.015625)"/>
    </defs>
    <use xlink:href="#DejaVuSans-54"/>
    <use xlink:href="#DejaVuSans-61" transform="translate(44.583984 0)"/>
    <use xlink:href="#DejaVuSans-73" transform="translate(105.863281 0)"/>
    <use xlink:href="#DejaVuSans-6b" transform="translate(157.962891 0)"/>
    <use xlink:href="#DejaVuSans-20" transform="translate(215.873047 0)"/>
    <use xlink:href="#DejaVuSans-6f" transform="translate(247.660156 0)"/>
    <use xlink:href="#DejaVuSans-6e" transform="translate(308.841797 0)"/>
    <use xlink:href="#DejaVuSans-6c" transform="translate(372.220703 0)"/>
    <use xlink:href="#DejaVuSans-79" transform="translate(400.003906 0)"/>
   </g>
  </g>
  <g id="text_8">
   <!-- Reward only -->
   <g style="opacity: 0.5" transform="translate(7.2 119.238281) scale(0.09 -0.09)">
    <use xlink:href="#DejaVuSans-52"/>
    <use xlink:href="#DejaVuSans-65" transform="translate(64.982422 0)"/>
    <use xlink:href="#DejaVuSans-77" transform="translate(126.505859 0)"/>
    <use xlink:href="#DejaVuSans-61" transform="translate(208.292969 0)"/>
    <use xlink:href="#DejaVuSans-72" transform="translate(269.572266 0)"/>
    <use xlink:href="#DejaVuSans-64" transform="translate(308.935547 0)"/>
    <use xlink:href="#DejaVuSans-20" transform="translate(372.412109 0)"/>
    <use xlink:href="#DejaVuSans-6f" transform="translate(404.199219 0)"/>
    <use xlink:href="#DejaVuSans-6e" transform="translate(465.380859 0)"/>
    <use xlink:href="#DejaVuSans-6c" transform="translate(528.759766 0)"/>
    <use xlink:href="#DejaVuSans-79" transform="translate(556.542969 0)"/>
   </g>
  </g>
  <g id="text_9">
   <!-- Full model -->
   <g style="opacity: 0.75" transform="translate(7.2 149.478281) scale(0.09 -0.09)">
    <defs>
     <path id="DejaVuSans-46" d="M 628 4666 
L 3309 4666 
L 3309 4134 
L 1259 4134 
L 1259 2759 
L 3109 2759 
L 3109 2228 
L 1259 2228 
L 1259 0 
L 628 0 
L 628 4666 
z
" transform="scale(0.015625)"/>
    </defs>
    <use xlink:href="#DejaVuSans-46"/>
    <use xlink:href="#DejaVuSans-75" transform="translate(52.019531 0)"/>
    <use xlink:href="#DejaVuSans-6c" transform="translate(115.398438 0)"/>
    <use xlink:href="#DejaVuSans-6c" transform="translate(143.181641 0)"/>
    <use xlink:href="#DejaVuSans-20" transform="translate(170.964844 0)"/>
    <use xlink:href="#DejaVuSans-6d" transform="translate(202.751953 0)"/>
    <use xlink:href="#DejaVuSans-6f" transform="translate(300.164062 0)"/>
    <use xlink:href="#DejaVuSans-64" transform="translate(361.345703 0)"/>
    <use xlink:href="#DejaVuSans-65" transform="translate(424.822266 0)"/>
    <use xlink:href="#DejaVuSans-6c" transform="translate(486.345703 0)"/>
   </g>
  </g>
 </g>
 <defs>
  <clipPath id="p2db85e6b3e">
   <rect x="31.5" y="19.878281" width="69.75" height="59.4"/>
  </clipPath>
  <clipPath id="pd7ef59b9f5">
   <rect x="101.25" y="19.878281" width="69.75" height="59.4"/>
  </clipPath>
  <clipPath id="pe41a38bafb">
   <rect x="171" y="19.878281" width="69.75" height="59.4"/>
  </clipPath>
  <clipPath id="p7bb8ce6fd7">
   <rect x="240.75" y="19.878281" width="69.75" height="59.4"/>
  </clipPath>
  <clipPath id="p875df76c8b">
   <rect x="310.5" y="19.878281" width="69.75" height="59.4"/>
  </clipPath>
  <clipPath id="pdab1f4a872">
   <rect x="380.25" y="19.878281" width="69.75" height="59.4"/>
  </clipPath>
  <clipPath id="p6537e6bf13">
   <rect x="31.5" y="55.518281" width="69.75" height="59.4"/>
  </clipPath>
  <clipPath id="p601c8cd786">
   <rect x="101.25" y="55.518281" width="69.75" height="59.4"/>
  </clipPath>
  <clipPath id="p7a22ff9792">
   <rect x="171" y="55.518281" width="69.75" height="59.4"/>
  </clipPath>
  <clipPath id="p2496818859">
   <rect x="240.75" y="55.518281" width="69.75" height="59.4"/>
  </clipPath>
  <clipPath id="p2f180c28ff">
   <rect x="310.5" y="55.518281" width="69.75" height="59.4"/>
  </clipPath>
  <clipPath id="p863168368e">
   <rect x="380.25" y="55.518281" width="69.75" height="59.4"/>
  </clipPath>
  <clipPath id="p8c7914c187">
   <rect x="31.5" y="91.158281" width="69.75" height="59.4"/>
  </clipPath>
  <clipPath id="p4c94fe95c5">
   <rect x="101.25" y="91.158281" width="69.75" height="59.4"/>
  </clipPath>
  <clipPath id="p49bd322f4f">
   <rect x="171" y="91.158281" width="69.75" height="59.4"/>
  </clipPath>
  <clipPath id="pb4806e1eb3">
   <rect x="240.75" y="91.158281" width="69.75" height="59.4"/>
  </clipPath>
  <clipPath id="p555db00294">
   <rect x="310.5" y="91.158281" width="69.75" height="59.4"/>
  </clipPath>
  <clipPath id="p6cfaa91c76">
   <rect x="380.25" y="91.158281" width="69.75" height="59.4"/>
  </clipPath>
  <clipPath id="p003ec9bfa9">
   <rect x="31.5" y="126.798281" width="69.75" height="59.4"/>
  </clipPath>
  <clipPath id="pdd5407f782">
   <rect x="101.25" y="126.798281" width="69.75" height="59.4"/>
  </clipPath>
  <clipPath id="pe688a64eb9">
   <rect x="171" y="126.798281" width="69.75" height="59.4"/>
  </clipPath>
  <clipPath id="p3a48c16757">
   <rect x="240.75" y="126.798281" width="69.75" height="59.4"/>
  </clipPath>
  <clipPath id="pdb693972b7">
   <rect x="310.5" y="126.798281" width="69.75" height="59.4"/>
  </clipPath>
  <clipPath id="pe6f07d1365">
   <rect x="380.25" y="126.798281" width="69.75" height="59.4"/>
  </clipPath>
 </defs>
</svg>
