<?xml version="1.0" encoding="utf-8" standalone="no"?>
<!DOCTYPE svg PUBLIC "-//W3C//DTD SVG 1.1//EN"
  "http://www.w3.org/Graphics/SVG/1.1/DTD/svg11.dtd">
<svg xmlns:xlink="http://www.w3.org/1999/xlink" width="417.6pt" height="280.512pt" viewBox="0 0 417.6 280.512" xmlns="http://www.w3.org/2000/svg" version="1.1">
 <metadata>
  <rdf:RDF xmlns:dc="http://purl.org/dc/elements/1.1/" xmlns:cc="http://creativecommons.org/ns#" xmlns:rdf="http://www.w3.org/1999/02/22-rdf-syntax-ns#">
   <cc:Work>
    <dc:type rdf:resource="http://purl.org/dc/dcmitype/StillImage"/>
    <dc:date>2025-09-29T11:51:13.679921</dc:date>
    <dc:format>image/svg+xml</dc:format>
    <dc:creator>
     <cc:Agent>
      <dc:title>Matplotlib v3.10.6, https://matplotlib.org/</dc:title>
     </cc:Agent>
    </dc:creator>
   </cc:Work>
  </rdf:RDF>
 </metadata>
 <defs>
  <style type="text/css">*{stroke-linejoin: round; stroke-linecap: butt}</style>
 </defs>
 <g id="figure_1">
  <g id="patch_1">
   <path d="M 0 280.512 
L 417.6 280.512 
L 417.6 0 
L 0 0 
L 0 280.512 
z
" style="fill: none"/>
  </g>
  <g id="axes_1">
   <g id="patch_2">
    <path d="M 7.2 273.312 
L 364.32 273.312 
L 364.32 7.2 
L 7.2 7.2 
L 7.2 273.312 
z
" style="fill: none"/>
   </g>
   <g id="patch_3">
    <path d="M 14.3424 85.03513 
L 96.48 85.03513 
Q 100.0512 85.03513 100.0512 82.405565 
L 100.0512 21.925565 
Q 100.0512 19.296 96.48 19.296 
L 14.3424 19.296 
Q 10.7712 19.296 10.7712 21.925565 
L 10.7712 82.405565 
Q 10.7712 85.03513 14.3424 85.03513 
z
" clip-path="url(#p35b2904e18)" style="fill: #ffffff; opacity: 0.25; stroke: #000000; stroke-width: 1.5; stroke-linejoin: miter"/>
   </g>
   <g id="patch_4">
    <path d="M 14.3424 138.941217 
L 96.48 138.941217 
Q 100.0512 138.941217 100.0512 136.311652 
L 100.0512 102.127304 
Q 100.0512 99.497739 96.48 99.497739 
L 14.3424 99.497739 
Q 10.7712 99.497739 10.7712 102.127304 
L 10.7712 136.311652 
Q 10.7712 138.941217 14.3424 138.941217 
z
" clip-path="url(#p35b2904e18)" style="fill: #ffffff; opacity: 0.5; stroke: #000000; stroke-width: 1.5; stroke-linejoin: miter"/>
   </g>
   <g id="patch_5">
    <path d="M 14.3424 188.902957 
L 96.48 188.902957 
Q 100.0512 188.902957 100.0512 186.273391 
L 100.0512 162.607304 
Q 100.0512 159.977739 96.48 159.977739 
L 14.3424 159.977739 
Q 10.7712 159.977739 10.7712 162.607304 
L 10.7712 186.273391 
Q 10.7712 188.902957 14.3424 188.902957 
z
" clip-path="url(#p35b2904e18)" style="fill: #ffffff; opacity: 0.75; stroke: #000000; stroke-width: 1.5; stroke-linejoin: miter"/>
   </g>
   <g id="patch_6">
    <path d="M 14.3424 261.216 
L 96.48 261.216 
Q 100.0512 261.216 100.0512 258.586435 
L 100.0512 204.680348 
Q 100.0512 202.050783 96.48 202.050783 
L 14.3424 202.050783 
Q 10.7712 202.050783 10.7712 204.680348 
L 10.7712 258.586435 
Q 10.7712 261.216 14.3424 261.216 
z
" clip-path="url(#p35b2904e18)" style="fill: #ffffff; stroke: #000000; stroke-width: 1.5; stroke-linejoin: miter"/>
   </g>
   <g id="patch_7">
    <path d="M 292.896 132.367304 
L 275.04 145.51513 
L 275.04 138.941217 
L 257.184 138.941217 
L 257.184 125.793391 
L 275.04 125.793391 
L 275.04 119.219478 
z
" clip-path="url(#p35b2904e18)" style="fill: #ffa500; stroke: #000000; stroke-width: 1.5; stroke-linejoin: miter"/>
   </g>
   <g id="matplotlib.axis_1"/>
   <g id="matplotlib.axis_2"/>
   <g id="text_1">
    <g id="patch_8">
     <path d="M 127.21 153.426435 
L 244.31 153.426435 
Q 254.31 153.426435 254.31 143.426435 
L 254.31 120.748622 
Q 254.31 110.748622 244.31 110.748622 
L 127.21 110.748622 
Q 117.21 110.748622 117.21 120.748622 
L 117.21 143.426435 
Q 117.21 153.426435 127.21 153.426435 
z
" style="fill: #ffa500; stroke: #000000; stroke-linejoin: miter"/>
    </g>
    <!-- Ridge regression  -->
    <g transform="translate(142.25375 124.626747) scale(0.1 -0.1)">
     <defs>
      <path id="DejaVuSans-52" d="M 2841 2188 
Q 3044 2119 3236 1894 
Q 3428 1669 3622 1275 
L 4263 0 
L 3584 0 
L 2988 1197 
Q 2756 1666 2539 1819 
Q 2322 1972 1947 1972 
L 1259 1972 
L 1259 0 
L 628 0 
L 628 4666 
L 2053 4666 
Q 2853 4666 3247 4331 
Q 3641 3997 3641 3322 
Q 3641 2881 3436 2590 
Q 3231 2300 2841 2188 
z
M 1259 4147 
L 1259 2491 
L 2053 2491 
Q 2509 2491 2742 2702 
Q 2975 2913 2975 3322 
Q 2975 3731 2742 3939 
Q 2509 4147 2053 4147 
L 1259 4147 
z
" transform="scale(0.015625)"/>
      <path id="DejaVuSans-69" d="M 603 3500 
L 1178 3500 
L 1178 0 
L 603 0 
L 603 3500 
z
M 603 4863 
L 1178 4863 
L 1178 4134 
L 603 4134 
L 603 4863 
z
" transform="scale(0.015625)"/>
      <path id="DejaVuSans-64" d="M 2906 2969 
L 2906 4863 
L 3481 4863 
L 3481 0 
L 2906 0 
L 2906 525 
Q 2725 213 2448 61 
Q 2172 -91 1784 -91 
Q 1150 -91 751 415 
Q 353 922 353 1747 
Q 353 2572 751 3078 
Q 1150 3584 1784 3584 
Q 2172 3584 2448 3432 
Q 2725 3281 2906 2969 
z
M 947 1747 
Q 947 1113 1208 752 
Q 1469 391 1925 391 
Q 2381 391 2643 752 
Q 2906 1113 2906 1747 
Q 2906 2381 2643 2742 
Q 2381 3103 1925 3103 
Q 1469 3103 1208 2742 
Q 947 2381 947 1747 
z
" transform="scale(0.015625)"/>
      <path id="DejaVuSans-67" d="M 2906 1791 
Q 2906 2416 2648 2759 
Q 2391 3103 1925 3103 
Q 1463 3103 1205 2759 
Q 947 2416 947 1791 
Q 947 1169 1205 825 
Q 1463 481 1925 481 
Q 2391 481 2648 825 
Q 2906 1169 2906 1791 
z
M 3481 434 
Q 3481 -459 3084 -895 
Q 2688 -1331 1869 -1331 
Q 1566 -1331 1297 -1286 
Q 1028 -1241 775 -1147 
L 775 -588 
Q 1028 -725 1275 -790 
Q 1522 -856 1778 -856 
Q 2344 -856 2625 -561 
Q 2906 -266 2906 331 
L 2906 616 
Q 2728 306 2450 153 
Q 2172 0 1784 0 
Q 1141 0 747 490 
Q 353 981 353 1791 
Q 353 2603 747 3093 
Q 1141 3584 1784 3584 
Q 2172 3584 2450 3431 
Q 2728 3278 2906 2969 
L 2906 3500 
L 3481 3500 
L 3481 434 
z
" transform="scale(0.015625)"/>
      <path id="DejaVuSans-65" d="M 3597 1894 
L 3597 1613 
L 953 1613 
Q 991 1019 1311 708 
Q 1631 397 2203 397 
Q 2534 397 2845 478 
Q 3156 559 3463 722 
L 3463 178 
Q 3153 47 2828 -22 
Q 2503 -91 2169 -91 
Q 1331 -91 842 396 
Q 353 884 353 1716 
Q 353 2575 817 3079 
Q 1281 3584 2069 3584 
Q 2775 3584 3186 3129 
Q 3597 2675 3597 1894 
z
M 3022 2063 
Q 3016 2534 2758 2815 
Q 2500 3097 2075 3097 
Q 1594 3097 1305 2825 
Q 1016 2553 972 2059 
L 3022 2063 
z
" transform="scale(0.015625)"/>
      <path id="DejaVuSans-20" transform="scale(0.015625)"/>
      <path id="DejaVuSans-72" d="M 2631 2963 
Q 2534 3019 2420 3045 
Q 2306 3072 2169 3072 
Q 1681 3072 1420 2755 
Q 1159 2438 1159 1844 
L 1159 0 
L 581 0 
L 581 3500 
L 1159 3500 
L 1159 2956 
Q 1341 3275 1631 3429 
Q 1922 3584 2338 3584 
Q 2397 3584 2469 3576 
Q 2541 3569 2628 3553 
L 2631 2963 
z
" transform="scale(0.015625)"/>
      <path id="DejaVuSans-73" d="M 2834 3397 
L 2834 2853 
Q 2591 2978 2328 3040 
Q 2066 3103 1784 3103 
Q 1356 3103 1142 2972 
Q 928 2841 928 2578 
Q 928 2378 1081 2264 
Q 1234 2150 1697 2047 
L 1894 2003 
Q 2506 1872 2764 1633 
Q 3022 1394 3022 966 
Q 3022 478 2636 193 
Q 2250 -91 1575 -91 
Q 1294 -91 989 -36 
Q 684 19 347 128 
L 347 722 
Q 666 556 975 473 
Q 1284 391 1588 391 
Q 1994 391 2212 530 
Q 2431 669 2431 922 
Q 2431 1156 2273 1281 
Q 2116 1406 1581 1522 
L 1381 1569 
Q 847 1681 609 1914 
Q 372 2147 372 2553 
Q 372 3047 722 3315 
Q 1072 3584 1716 3584 
Q 2034 3584 2315 3537 
Q 2597 3491 2834 3397 
z
" transform="scale(0.015625)"/>
      <path id="DejaVuSans-6f" d="M 1959 3097 
Q 1497 3097 1228 2736 
Q 959 2375 959 1747 
Q 959 1119 1226 758 
Q 1494 397 1959 397 
Q 2419 397 2687 759 
Q 2956 1122 2956 1747 
Q 2956 2369 2687 2733 
Q 2419 3097 1959 3097 
z
M 1959 3584 
Q 2709 3584 3137 3096 
Q 3566 2609 3566 1747 
Q 3566 888 3137 398 
Q 2709 -91 1959 -91 
Q 1206 -91 779 398 
Q 353 888 353 1747 
Q 353 2609 779 3096 
Q 1206 3584 1959 3584 
z
" transform="scale(0.015625)"/>
      <path id="DejaVuSans-6e" d="M 3513 2113 
L 3513 0 
L 2938 0 
L 2938 2094 
Q 2938 2591 2744 2837 
Q 2550 3084 2163 3084 
Q 1697 3084 1428 2787 
Q 1159 2491 1159 1978 
L 1159 0 
L 581 0 
L 581 3500 
L 1159 3500 
L 1159 2956 
Q 1366 3272 1645 3428 
Q 1925 3584 2291 3584 
Q 2894 3584 3203 3211 
Q 3513 2838 3513 2113 
z
" transform="scale(0.015625)"/>
     </defs>
     <use xlink:href="#DejaVuSans-52"/>
     <use xlink:href="#DejaVuSans-69" transform="translate(69.482422 0)"/>
     <use xlink:href="#DejaVuSans-64" transform="translate(97.265625 0)"/>
     <use xlink:href="#DejaVuSans-67" transform="translate(160.742188 0)"/>
     <use xlink:href="#DejaVuSans-65" transform="translate(224.21875 0)"/>
     <use xlink:href="#DejaVuSans-20" transform="translate(285.742188 0)"/>
     <use xlink:href="#DejaVuSans-72" transform="translate(317.529297 0)"/>
     <use xlink:href="#DejaVuSans-65" transform="translate(356.392578 0)"/>
     <use xlink:href="#DejaVuSans-67" transform="translate(417.916016 0)"/>
     <use xlink:href="#DejaVuSans-72" transform="translate(481.392578 0)"/>
     <use xlink:href="#DejaVuSans-65" transform="translate(520.255859 0)"/>
     <use xlink:href="#DejaVuSans-73" transform="translate(581.779297 0)"/>
     <use xlink:href="#DejaVuSans-73" transform="translate(633.878906 0)"/>
     <use xlink:href="#DejaVuSans-69" transform="translate(685.978516 0)"/>
     <use xlink:href="#DejaVuSans-6f" transform="translate(713.761719 0)"/>
     <use xlink:href="#DejaVuSans-6e" transform="translate(774.943359 0)"/>
     <use xlink:href="#DejaVuSans-20" transform="translate(838.322266 0)"/>
    </g>
    <!-- $\min_\boldsymbol{w} \vert\vert \boldsymbol{y} - \boldsymbol{Xw} \vert\vert^2_2 + \alpha \vert\vert \boldsymbol{w} \vert\vert^2_2$ -->
    <g transform="translate(127.21 137.626435) scale(0.1 -0.1)">
     <defs>
      <path id="DejaVuSans-6d" d="M 3328 2828 
Q 3544 3216 3844 3400 
Q 4144 3584 4550 3584 
Q 5097 3584 5394 3201 
Q 5691 2819 5691 2113 
L 5691 0 
L 5113 0 
L 5113 2094 
Q 5113 2597 4934 2840 
Q 4756 3084 4391 3084 
Q 3944 3084 3684 2787 
Q 3425 2491 3425 1978 
L 3425 0 
L 2847 0 
L 2847 2094 
Q 2847 2600 2669 2842 
Q 2491 3084 2119 3084 
Q 1678 3084 1418 2786 
Q 1159 2488 1159 1978 
L 1159 0 
L 581 0 
L 581 3500 
L 1159 3500 
L 1159 2956 
Q 1356 3278 1631 3431 
Q 1906 3584 2284 3584 
Q 2666 3584 2933 3390 
Q 3200 3197 3328 2828 
z
" transform="scale(0.015625)"/>
      <path id="DejaVuSans-BoldOblique-77" d="M 556 3500 
L 1588 3500 
L 1709 1094 
L 2766 3500 
L 3653 3500 
L 3781 1100 
L 4831 3500 
L 5931 3500 
L 4331 0 
L 3144 0 
L 3028 2406 
L 1959 0 
L 800 0 
L 556 3500 
z
" transform="scale(0.015625)"/>
      <path id="DejaVuSans-7c" d="M 1344 4891 
L 1344 -1509 
L 813 -1509 
L 813 4891 
L 1344 4891 
z
" transform="scale(0.015625)"/>
      <path id="DejaVuSans-BoldOblique-79" d="M 422 3500 
L 1478 3500 
L 1959 1075 
L 3200 3500 
L 4397 3500 
L 2181 -331 
Q 1809 -978 1493 -1179 
Q 1178 -1381 678 -1381 
L 0 -1381 
L 116 -647 
L 469 -647 
Q 744 -647 895 -555 
Q 1047 -463 1166 -231 
L 1269 -44 
L 422 3500 
z
" transform="scale(0.015625)"/>
      <path id="DejaVuSans-2212" d="M 678 2272 
L 4684 2272 
L 4684 1741 
L 678 1741 
L 678 2272 
z
" transform="scale(0.015625)"/>
      <path id="DejaVuSans-BoldOblique-58" d="M 3175 2363 
L 4319 0 
L 3097 0 
L 2338 1563 
L 972 0 
L -325 0 
L 1772 2394 
L 666 4666 
L 1894 4666 
L 2613 3200 
L 3891 4666 
L 5197 4666 
L 3175 2363 
z
" transform="scale(0.015625)"/>
      <path id="DejaVuSans-32" d="M 1228 531 
L 3431 531 
L 3431 0 
L 469 0 
L 469 531 
Q 828 903 1448 1529 
Q 2069 2156 2228 2338 
Q 2531 2678 2651 2914 
Q 2772 3150 2772 3378 
Q 2772 3750 2511 3984 
Q 2250 4219 1831 4219 
Q 1534 4219 1204 4116 
Q 875 4013 500 3803 
L 500 4441 
Q 881 4594 1212 4672 
Q 1544 4750 1819 4750 
Q 2544 4750 2975 4387 
Q 3406 4025 3406 3419 
Q 3406 3131 3298 2873 
Q 3191 2616 2906 2266 
Q 2828 2175 2409 1742 
Q 1991 1309 1228 531 
z
" transform="scale(0.015625)"/>
      <path id="DejaVuSans-2b" d="M 2944 4013 
L 2944 2272 
L 4684 2272 
L 4684 1741 
L 2944 1741 
L 2944 0 
L 2419 0 
L 2419 1741 
L 678 1741 
L 678 2272 
L 2419 2272 
L 2419 4013 
L 2944 4013 
z
" transform="scale(0.015625)"/>
      <path id="DejaVuSans-Oblique-3b1" d="M 2619 1628 
L 2622 2350 
Q 2625 3088 2069 3091 
Q 1653 3094 1394 2747 
Q 1069 2319 959 1747 
Q 825 1059 994 731 
Q 1169 397 1547 397 
Q 1966 397 2319 1063 
L 2619 1628 
z
M 2166 3578 
Q 3141 3594 3128 2584 
Q 3128 2584 3616 3500 
L 4128 3500 
L 3119 1603 
L 3109 919 
Q 3109 766 3194 638 
Q 3291 488 3391 488 
L 3669 488 
L 3575 0 
L 3228 0 
Q 2934 0 2722 263 
Q 2622 394 2619 669 
Q 2416 334 2066 50 
Q 1900 -81 1453 -78 
Q 722 -72 456 397 
Q 184 884 353 1747 
Q 534 2675 1009 3097 
Q 1544 3569 2166 3578 
z
" transform="scale(0.015625)"/>
     </defs>
     <use xlink:href="#DejaVuSans-6d" transform="translate(0 0.765625)"/>
     <use xlink:href="#DejaVuSans-69" transform="translate(97.412109 0.765625)"/>
     <use xlink:href="#DejaVuSans-6e" transform="translate(125.195312 0.765625)"/>
     <use xlink:href="#DejaVuSans-BoldOblique-77" transform="translate(62 -56.265625) scale(0.7)"/>
     <use xlink:href="#DejaVuSans-7c" transform="translate(188.574219 0.765625)"/>
     <use xlink:href="#DejaVuSans-7c" transform="translate(222.265625 0.765625)"/>
     <use xlink:href="#DejaVuSans-BoldOblique-79" transform="translate(255.957031 0.765625)"/>
     <use xlink:href="#DejaVuSans-2212" transform="translate(321.142578 0.765625)"/>
     <use xlink:href="#DejaVuSans-BoldOblique-58" transform="translate(404.931641 0.765625)"/>
     <use xlink:href="#DejaVuSans-BoldOblique-77" transform="translate(482.03125 0.765625)"/>
     <use xlink:href="#DejaVuSans-7c" transform="translate(574.414062 0.765625)"/>
     <use xlink:href="#DejaVuSans-7c" transform="translate(608.105469 0.765625)"/>
     <use xlink:href="#DejaVuSans-32" transform="translate(642.753906 39.046875) scale(0.7)"/>
     <use xlink:href="#DejaVuSans-32" transform="translate(642.753906 -26.578125) scale(0.7)"/>
     <use xlink:href="#DejaVuSans-2b" transform="translate(725.742512 0.765625)"/>
     <use xlink:href="#DejaVuSans-Oblique-3b1" transform="translate(829.013997 0.765625)"/>
     <use xlink:href="#DejaVuSans-7c" transform="translate(894.931965 0.765625)"/>
     <use xlink:href="#DejaVuSans-7c" transform="translate(928.623372 0.765625)"/>
     <use xlink:href="#DejaVuSans-BoldOblique-77" transform="translate(962.314778 0.765625)"/>
     <use xlink:href="#DejaVuSans-7c" transform="translate(1054.69759 0.765625)"/>
     <use xlink:href="#DejaVuSans-7c" transform="translate(1088.388997 0.765625)"/>
     <use xlink:href="#DejaVuSans-32" transform="translate(1123.037434 39.046875) scale(0.7)"/>
     <use xlink:href="#DejaVuSans-32" transform="translate(1123.037434 -26.578125) scale(0.7)"/>
    </g>
   </g>
   <g id="text_2">
    <g id="patch_9">
     <path d="M 10.7712 25.313221 
L 105.089325 25.313221 
Q 106.189325 25.313221 106.189325 24.213221 
L 106.189325 13.567284 
Q 106.189325 12.467284 105.089325 12.467284 
L 10.7712 12.467284 
Q 9.6712 12.467284 9.6712 13.567284 
L 9.6712 24.213221 
Q 9.6712 25.313221 10.7712 25.313221 
z
" style="fill: #ffffff"/>
    </g>
    <!-- Task events (T) -->
    <g style="opacity: 0.25" transform="translate(10.7712 21.925565) scale(0.11 -0.11)">
     <defs>
      <path id="DejaVuSans-Bold-54" d="M 31 4666 
L 4331 4666 
L 4331 3756 
L 2784 3756 
L 2784 0 
L 1581 0 
L 1581 3756 
L 31 3756 
L 31 4666 
z
" transform="scale(0.015625)"/>
      <path id="DejaVuSans-Bold-61" d="M 2106 1575 
Q 1756 1575 1579 1456 
Q 1403 1338 1403 1106 
Q 1403 894 1545 773 
Q 1688 653 1941 653 
Q 2256 653 2472 879 
Q 2688 1106 2688 1447 
L 2688 1575 
L 2106 1575 
z
M 3816 1997 
L 3816 0 
L 2688 0 
L 2688 519 
Q 2463 200 2181 54 
Q 1900 -91 1497 -91 
Q 953 -91 614 226 
Q 275 544 275 1050 
Q 275 1666 698 1953 
Q 1122 2241 2028 2241 
L 2688 2241 
L 2688 2328 
Q 2688 2594 2478 2717 
Q 2269 2841 1825 2841 
Q 1466 2841 1156 2769 
Q 847 2697 581 2553 
L 581 3406 
Q 941 3494 1303 3539 
Q 1666 3584 2028 3584 
Q 2975 3584 3395 3211 
Q 3816 2838 3816 1997 
z
" transform="scale(0.015625)"/>
      <path id="DejaVuSans-Bold-73" d="M 3272 3391 
L 3272 2541 
Q 2913 2691 2578 2766 
Q 2244 2841 1947 2841 
Q 1628 2841 1473 2761 
Q 1319 2681 1319 2516 
Q 1319 2381 1436 2309 
Q 1553 2238 1856 2203 
L 2053 2175 
Q 2913 2066 3209 1816 
Q 3506 1566 3506 1031 
Q 3506 472 3093 190 
Q 2681 -91 1863 -91 
Q 1516 -91 1145 -36 
Q 775 19 384 128 
L 384 978 
Q 719 816 1070 734 
Q 1422 653 1784 653 
Q 2113 653 2278 743 
Q 2444 834 2444 1013 
Q 2444 1163 2330 1236 
Q 2216 1309 1875 1350 
L 1678 1375 
Q 931 1469 631 1722 
Q 331 1975 331 2491 
Q 331 3047 712 3315 
Q 1094 3584 1881 3584 
Q 2191 3584 2531 3537 
Q 2872 3491 3272 3391 
z
" transform="scale(0.015625)"/>
      <path id="DejaVuSans-Bold-6b" d="M 538 4863 
L 1656 4863 
L 1656 2216 
L 2944 3500 
L 4244 3500 
L 2534 1894 
L 4378 0 
L 3022 0 
L 1656 1459 
L 1656 0 
L 538 0 
L 538 4863 
z
" transform="scale(0.015625)"/>
      <path id="DejaVuSans-Bold-20" transform="scale(0.015625)"/>
      <path id="DejaVuSans-Bold-65" d="M 4031 1759 
L 4031 1441 
L 1416 1441 
Q 1456 1047 1700 850 
Q 1944 653 2381 653 
Q 2734 653 3104 758 
Q 3475 863 3866 1075 
L 3866 213 
Q 3469 63 3072 -14 
Q 2675 -91 2278 -91 
Q 1328 -91 801 392 
Q 275 875 275 1747 
Q 275 2603 792 3093 
Q 1309 3584 2216 3584 
Q 3041 3584 3536 3087 
Q 4031 2591 4031 1759 
z
M 2881 2131 
Q 2881 2450 2695 2645 
Q 2509 2841 2209 2841 
Q 1884 2841 1681 2658 
Q 1478 2475 1428 2131 
L 2881 2131 
z
" transform="scale(0.015625)"/>
      <path id="DejaVuSans-Bold-76" d="M 97 3500 
L 1216 3500 
L 2088 1081 
L 2956 3500 
L 4078 3500 
L 2700 0 
L 1472 0 
L 97 3500 
z
" transform="scale(0.015625)"/>
      <path id="DejaVuSans-Bold-6e" d="M 4056 2131 
L 4056 0 
L 2931 0 
L 2931 347 
L 2931 1631 
Q 2931 2084 2911 2256 
Q 2891 2428 2841 2509 
Q 2775 2619 2662 2680 
Q 2550 2741 2406 2741 
Q 2056 2741 1856 2470 
Q 1656 2200 1656 1722 
L 1656 0 
L 538 0 
L 538 3500 
L 1656 3500 
L 1656 2988 
Q 1909 3294 2193 3439 
Q 2478 3584 2822 3584 
Q 3428 3584 3742 3212 
Q 4056 2841 4056 2131 
z
" transform="scale(0.015625)"/>
      <path id="DejaVuSans-Bold-74" d="M 1759 4494 
L 1759 3500 
L 2913 3500 
L 2913 2700 
L 1759 2700 
L 1759 1216 
Q 1759 972 1856 886 
Q 1953 800 2241 800 
L 2816 800 
L 2816 0 
L 1856 0 
Q 1194 0 917 276 
Q 641 553 641 1216 
L 641 2700 
L 84 2700 
L 84 3500 
L 641 3500 
L 641 4494 
L 1759 4494 
z
" transform="scale(0.015625)"/>
      <path id="DejaVuSans-Bold-28" d="M 2413 -844 
L 1484 -844 
Q 1006 -72 778 623 
Q 550 1319 550 2003 
Q 550 2688 779 3389 
Q 1009 4091 1484 4856 
L 2413 4856 
Q 2013 4116 1813 3408 
Q 1613 2700 1613 2009 
Q 1613 1319 1811 609 
Q 2009 -100 2413 -844 
z
" transform="scale(0.015625)"/>
      <path id="DejaVuSans-Bold-29" d="M 513 -844 
Q 913 -100 1113 609 
Q 1313 1319 1313 2009 
Q 1313 2700 1113 3408 
Q 913 4116 513 4856 
L 1441 4856 
Q 1916 4091 2145 3389 
Q 2375 2688 2375 2003 
Q 2375 1319 2147 623 
Q 1919 -72 1441 -844 
L 513 -844 
z
" transform="scale(0.015625)"/>
     </defs>
     <use xlink:href="#DejaVuSans-Bold-54"/>
     <use xlink:href="#DejaVuSans-Bold-61" transform="translate(55.337891 0)"/>
     <use xlink:href="#DejaVuSans-Bold-73" transform="translate(122.818359 0)"/>
     <use xlink:href="#DejaVuSans-Bold-6b" transform="translate(182.339844 0)"/>
     <use xlink:href="#DejaVuSans-Bold-20" transform="translate(248.84375 0)"/>
     <use xlink:href="#DejaVuSans-Bold-65" transform="translate(283.658203 0)"/>
     <use xlink:href="#DejaVuSans-Bold-76" transform="translate(351.480469 0)"/>
     <use xlink:href="#DejaVuSans-Bold-65" transform="translate(416.666016 0)"/>
     <use xlink:href="#DejaVuSans-Bold-6e" transform="translate(484.488281 0)"/>
     <use xlink:href="#DejaVuSans-Bold-74" transform="translate(555.679688 0)"/>
     <use xlink:href="#DejaVuSans-Bold-73" transform="translate(603.482422 0)"/>
     <use xlink:href="#DejaVuSans-Bold-20" transform="translate(663.003906 0)"/>
     <use xlink:href="#DejaVuSans-Bold-28" transform="translate(697.818359 0)"/>
     <use xlink:href="#DejaVuSans-Bold-54" transform="translate(743.521484 0)"/>
     <use xlink:href="#DejaVuSans-Bold-29" transform="translate(811.734375 0)"/>
    </g>
   </g>
   <g id="text_3">
    <!-- Sound -->
    <g transform="translate(14.3424 41.647304) scale(0.1 -0.1)">
     <defs>
      <path id="DejaVuSans-53" d="M 3425 4513 
L 3425 3897 
Q 3066 4069 2747 4153 
Q 2428 4238 2131 4238 
Q 1616 4238 1336 4038 
Q 1056 3838 1056 3469 
Q 1056 3159 1242 3001 
Q 1428 2844 1947 2747 
L 2328 2669 
Q 3034 2534 3370 2195 
Q 3706 1856 3706 1288 
Q 3706 609 3251 259 
Q 2797 -91 1919 -91 
Q 1588 -91 1214 -16 
Q 841 59 441 206 
L 441 856 
Q 825 641 1194 531 
Q 1563 422 1919 422 
Q 2459 422 2753 634 
Q 3047 847 3047 1241 
Q 3047 1584 2836 1778 
Q 2625 1972 2144 2069 
L 1759 2144 
Q 1053 2284 737 2584 
Q 422 2884 422 3419 
Q 422 4038 858 4394 
Q 1294 4750 2059 4750 
Q 2388 4750 2728 4690 
Q 3069 4631 3425 4513 
z
" transform="scale(0.015625)"/>
      <path id="DejaVuSans-75" d="M 544 1381 
L 544 3500 
L 1119 3500 
L 1119 1403 
Q 1119 906 1312 657 
Q 1506 409 1894 409 
Q 2359 409 2629 706 
Q 2900 1003 2900 1516 
L 2900 3500 
L 3475 3500 
L 3475 0 
L 2900 0 
L 2900 538 
Q 2691 219 2414 64 
Q 2138 -91 1772 -91 
Q 1169 -91 856 284 
Q 544 659 544 1381 
z
M 1991 3584 
L 1991 3584 
z
" transform="scale(0.015625)"/>
     </defs>
     <use xlink:href="#DejaVuSans-53"/>
     <use xlink:href="#DejaVuSans-6f" transform="translate(63.476562 0)"/>
     <use xlink:href="#DejaVuSans-75" transform="translate(124.658203 0)"/>
     <use xlink:href="#DejaVuSans-6e" transform="translate(188.037109 0)"/>
     <use xlink:href="#DejaVuSans-64" transform="translate(251.416016 0)"/>
    </g>
   </g>
   <g id="text_4">
    <!-- Port extension -->
    <g transform="translate(14.3424 54.79513) scale(0.1 -0.1)">
     <defs>
      <path id="DejaVuSans-50" d="M 1259 4147 
L 1259 2394 
L 2053 2394 
Q 2494 2394 2734 2622 
Q 2975 2850 2975 3272 
Q 2975 3691 2734 3919 
Q 2494 4147 2053 4147 
L 1259 4147 
z
M 628 4666 
L 2053 4666 
Q 2838 4666 3239 4311 
Q 3641 3956 3641 3272 
Q 3641 2581 3239 2228 
Q 2838 1875 2053 1875 
L 1259 1875 
L 1259 0 
L 628 0 
L 628 4666 
z
" transform="scale(0.015625)"/>
      <path id="DejaVuSans-74" d="M 1172 4494 
L 1172 3500 
L 2356 3500 
L 2356 3053 
L 1172 3053 
L 1172 1153 
Q 1172 725 1289 603 
Q 1406 481 1766 481 
L 2356 481 
L 2356 0 
L 1766 0 
Q 1100 0 847 248 
Q 594 497 594 1153 
L 594 3053 
L 172 3053 
L 172 3500 
L 594 3500 
L 594 4494 
L 1172 4494 
z
" transform="scale(0.015625)"/>
      <path id="DejaVuSans-78" d="M 3513 3500 
L 2247 1797 
L 3578 0 
L 2900 0 
L 1881 1375 
L 863 0 
L 184 0 
L 1544 1831 
L 300 3500 
L 978 3500 
L 1906 2253 
L 2834 3500 
L 3513 3500 
z
" transform="scale(0.015625)"/>
     </defs>
     <use xlink:href="#DejaVuSans-50"/>
     <use xlink:href="#DejaVuSans-6f" transform="translate(56.677734 0)"/>
     <use xlink:href="#DejaVuSans-72" transform="translate(117.859375 0)"/>
     <use xlink:href="#DejaVuSans-74" transform="translate(158.972656 0)"/>
     <use xlink:href="#DejaVuSans-20" transform="translate(198.181641 0)"/>
     <use xlink:href="#DejaVuSans-65" transform="translate(229.96875 0)"/>
     <use xlink:href="#DejaVuSans-78" transform="translate(289.742188 0)"/>
     <use xlink:href="#DejaVuSans-74" transform="translate(348.921875 0)"/>
     <use xlink:href="#DejaVuSans-65" transform="translate(388.130859 0)"/>
     <use xlink:href="#DejaVuSans-6e" transform="translate(449.654297 0)"/>
     <use xlink:href="#DejaVuSans-73" transform="translate(513.033203 0)"/>
     <use xlink:href="#DejaVuSans-69" transform="translate(565.132812 0)"/>
     <use xlink:href="#DejaVuSans-6f" transform="translate(592.916016 0)"/>
     <use xlink:href="#DejaVuSans-6e" transform="translate(654.097656 0)"/>
    </g>
   </g>
   <g id="text_5">
    <!-- Port retraction -->
    <g transform="translate(14.3424 67.942957) scale(0.1 -0.1)">
     <defs>
      <path id="DejaVuSans-61" d="M 2194 1759 
Q 1497 1759 1228 1600 
Q 959 1441 959 1056 
Q 959 750 1161 570 
Q 1363 391 1709 391 
Q 2188 391 2477 730 
Q 2766 1069 2766 1631 
L 2766 1759 
L 2194 1759 
z
M 3341 1997 
L 3341 0 
L 2766 0 
L 2766 531 
Q 2569 213 2275 61 
Q 1981 -91 1556 -91 
Q 1019 -91 701 211 
Q 384 513 384 1019 
Q 384 1609 779 1909 
Q 1175 2209 1959 2209 
L 2766 2209 
L 2766 2266 
Q 2766 2663 2505 2880 
Q 2244 3097 1772 3097 
Q 1472 3097 1187 3025 
Q 903 2953 641 2809 
L 641 3341 
Q 956 3463 1253 3523 
Q 1550 3584 1831 3584 
Q 2591 3584 2966 3190 
Q 3341 2797 3341 1997 
z
" transform="scale(0.015625)"/>
      <path id="DejaVuSans-63" d="M 3122 3366 
L 3122 2828 
Q 2878 2963 2633 3030 
Q 2388 3097 2138 3097 
Q 1578 3097 1268 2742 
Q 959 2388 959 1747 
Q 959 1106 1268 751 
Q 1578 397 2138 397 
Q 2388 397 2633 464 
Q 2878 531 3122 666 
L 3122 134 
Q 2881 22 2623 -34 
Q 2366 -91 2075 -91 
Q 1284 -91 818 406 
Q 353 903 353 1747 
Q 353 2603 823 3093 
Q 1294 3584 2113 3584 
Q 2378 3584 2631 3529 
Q 2884 3475 3122 3366 
z
" transform="scale(0.015625)"/>
     </defs>
     <use xlink:href="#DejaVuSans-50"/>
     <use xlink:href="#DejaVuSans-6f" transform="translate(56.677734 0)"/>
     <use xlink:href="#DejaVuSans-72" transform="translate(117.859375 0)"/>
     <use xlink:href="#DejaVuSans-74" transform="translate(158.972656 0)"/>
     <use xlink:href="#DejaVuSans-20" transform="translate(198.181641 0)"/>
     <use xlink:href="#DejaVuSans-72" transform="translate(229.96875 0)"/>
     <use xlink:href="#DejaVuSans-65" transform="translate(268.832031 0)"/>
     <use xlink:href="#DejaVuSans-74" transform="translate(330.355469 0)"/>
     <use xlink:href="#DejaVuSans-72" transform="translate(369.564453 0)"/>
     <use xlink:href="#DejaVuSans-61" transform="translate(410.677734 0)"/>
     <use xlink:href="#DejaVuSans-63" transform="translate(471.957031 0)"/>
     <use xlink:href="#DejaVuSans-74" transform="translate(526.9375 0)"/>
     <use xlink:href="#DejaVuSans-69" transform="translate(566.146484 0)"/>
     <use xlink:href="#DejaVuSans-6f" transform="translate(593.929688 0)"/>
     <use xlink:href="#DejaVuSans-6e" transform="translate(655.111328 0)"/>
    </g>
   </g>
   <g id="text_6">
    <g id="patch_10">
     <path d="M 10.7712 106.829743 
L 95.892294 106.829743 
Q 96.992294 106.829743 96.992294 105.729743 
L 96.992294 95.083806 
Q 96.992294 93.983806 95.892294 93.983806 
L 10.7712 93.983806 
Q 9.6712 93.983806 9.6712 95.083806 
L 9.6712 105.729743 
Q 9.6712 106.829743 10.7712 106.829743 
z
" style="fill: #ffffff"/>
    </g>
    <!-- Behaviour (B) -->
    <g style="opacity: 0.5" transform="translate(10.7712 103.442087) scale(0.11 -0.11)">
     <defs>
      <path id="DejaVuSans-Bold-42" d="M 2456 2859 
Q 2741 2859 2887 2984 
Q 3034 3109 3034 3353 
Q 3034 3594 2887 3720 
Q 2741 3847 2456 3847 
L 1791 3847 
L 1791 2859 
L 2456 2859 
z
M 2497 819 
Q 2859 819 3042 972 
Q 3225 1125 3225 1434 
Q 3225 1738 3044 1889 
Q 2863 2041 2497 2041 
L 1791 2041 
L 1791 819 
L 2497 819 
z
M 3616 2497 
Q 4003 2384 4215 2081 
Q 4428 1778 4428 1338 
Q 4428 663 3972 331 
Q 3516 0 2584 0 
L 588 0 
L 588 4666 
L 2394 4666 
Q 3366 4666 3802 4372 
Q 4238 4078 4238 3431 
Q 4238 3091 4078 2852 
Q 3919 2613 3616 2497 
z
" transform="scale(0.015625)"/>
      <path id="DejaVuSans-Bold-68" d="M 4056 2131 
L 4056 0 
L 2931 0 
L 2931 347 
L 2931 1625 
Q 2931 2084 2911 2256 
Q 2891 2428 2841 2509 
Q 2775 2619 2662 2680 
Q 2550 2741 2406 2741 
Q 2056 2741 1856 2470 
Q 1656 2200 1656 1722 
L 1656 0 
L 538 0 
L 538 4863 
L 1656 4863 
L 1656 2988 
Q 1909 3294 2193 3439 
Q 2478 3584 2822 3584 
Q 3428 3584 3742 3212 
Q 4056 2841 4056 2131 
z
" transform="scale(0.015625)"/>
      <path id="DejaVuSans-Bold-69" d="M 538 3500 
L 1656 3500 
L 1656 0 
L 538 0 
L 538 3500 
z
M 538 4863 
L 1656 4863 
L 1656 3950 
L 538 3950 
L 538 4863 
z
" transform="scale(0.015625)"/>
      <path id="DejaVuSans-Bold-6f" d="M 2203 2784 
Q 1831 2784 1636 2517 
Q 1441 2250 1441 1747 
Q 1441 1244 1636 976 
Q 1831 709 2203 709 
Q 2569 709 2762 976 
Q 2956 1244 2956 1747 
Q 2956 2250 2762 2517 
Q 2569 2784 2203 2784 
z
M 2203 3584 
Q 3106 3584 3614 3096 
Q 4122 2609 4122 1747 
Q 4122 884 3614 396 
Q 3106 -91 2203 -91 
Q 1297 -91 786 396 
Q 275 884 275 1747 
Q 275 2609 786 3096 
Q 1297 3584 2203 3584 
z
" transform="scale(0.015625)"/>
      <path id="DejaVuSans-Bold-75" d="M 500 1363 
L 500 3500 
L 1625 3500 
L 1625 3150 
Q 1625 2866 1622 2436 
Q 1619 2006 1619 1863 
Q 1619 1441 1641 1255 
Q 1663 1069 1716 984 
Q 1784 875 1895 815 
Q 2006 756 2150 756 
Q 2500 756 2700 1025 
Q 2900 1294 2900 1772 
L 2900 3500 
L 4019 3500 
L 4019 0 
L 2900 0 
L 2900 506 
Q 2647 200 2364 54 
Q 2081 -91 1741 -91 
Q 1134 -91 817 281 
Q 500 653 500 1363 
z
" transform="scale(0.015625)"/>
      <path id="DejaVuSans-Bold-72" d="M 3138 2547 
Q 2991 2616 2845 2648 
Q 2700 2681 2553 2681 
Q 2122 2681 1889 2404 
Q 1656 2128 1656 1613 
L 1656 0 
L 538 0 
L 538 3500 
L 1656 3500 
L 1656 2925 
Q 1872 3269 2151 3426 
Q 2431 3584 2822 3584 
Q 2878 3584 2943 3579 
Q 3009 3575 3134 3559 
L 3138 2547 
z
" transform="scale(0.015625)"/>
     </defs>
     <use xlink:href="#DejaVuSans-Bold-42"/>
     <use xlink:href="#DejaVuSans-Bold-65" transform="translate(76.220703 0)"/>
     <use xlink:href="#DejaVuSans-Bold-68" transform="translate(144.042969 0)"/>
     <use xlink:href="#DejaVuSans-Bold-61" transform="translate(215.234375 0)"/>
     <use xlink:href="#DejaVuSans-Bold-76" transform="translate(282.714844 0)"/>
     <use xlink:href="#DejaVuSans-Bold-69" transform="translate(347.900391 0)"/>
     <use xlink:href="#DejaVuSans-Bold-6f" transform="translate(382.177734 0)"/>
     <use xlink:href="#DejaVuSans-Bold-75" transform="translate(450.878906 0)"/>
     <use xlink:href="#DejaVuSans-Bold-72" transform="translate(522.070312 0)"/>
     <use xlink:href="#DejaVuSans-Bold-20" transform="translate(571.386719 0)"/>
     <use xlink:href="#DejaVuSans-Bold-28" transform="translate(606.201172 0)"/>
     <use xlink:href="#DejaVuSans-Bold-42" transform="translate(651.904297 0)"/>
     <use xlink:href="#DejaVuSans-Bold-29" transform="translate(728.125 0)"/>
    </g>
   </g>
   <g id="text_7">
    <!-- Lick -->
    <g transform="translate(21.4848 116.589913) scale(0.1 -0.1)">
     <defs>
      <path id="DejaVuSans-4c" d="M 628 4666 
L 1259 4666 
L 1259 531 
L 3531 531 
L 3531 0 
L 628 0 
L 628 4666 
z
" transform="scale(0.015625)"/>
      <path id="DejaVuSans-6b" d="M 581 4863 
L 1159 4863 
L 1159 1991 
L 2875 3500 
L 3609 3500 
L 1753 1863 
L 3688 0 
L 2938 0 
L 1159 1709 
L 1159 0 
L 581 0 
L 581 4863 
z
" transform="scale(0.015625)"/>
     </defs>
     <use xlink:href="#DejaVuSans-4c"/>
     <use xlink:href="#DejaVuSans-69" transform="translate(55.712891 0)"/>
     <use xlink:href="#DejaVuSans-63" transform="translate(83.496094 0)"/>
     <use xlink:href="#DejaVuSans-6b" transform="translate(138.476562 0)"/>
    </g>
   </g>
   <g id="text_8">
    <!-- Lick L/R -->
    <g transform="translate(21.4848 129.737739) scale(0.1 -0.1)">
     <defs>
      <path id="DejaVuSans-2f" d="M 1625 4666 
L 2156 4666 
L 531 -594 
L 0 -594 
L 1625 4666 
z
" transform="scale(0.015625)"/>
     </defs>
     <use xlink:href="#DejaVuSans-4c"/>
     <use xlink:href="#DejaVuSans-69" transform="translate(55.712891 0)"/>
     <use xlink:href="#DejaVuSans-63" transform="translate(83.496094 0)"/>
     <use xlink:href="#DejaVuSans-6b" transform="translate(138.476562 0)"/>
     <use xlink:href="#DejaVuSans-20" transform="translate(196.386719 0)"/>
     <use xlink:href="#DejaVuSans-4c" transform="translate(228.173828 0)"/>
     <use xlink:href="#DejaVuSans-2f" transform="translate(283.886719 0)"/>
     <use xlink:href="#DejaVuSans-52" transform="translate(317.578125 0)"/>
    </g>
   </g>
   <g id="text_9">
    <g id="patch_11">
     <path d="M 22.19904 167.309743 
L 91.368415 167.309743 
Q 92.468415 167.309743 92.468415 166.209743 
L 92.468415 155.563806 
Q 92.468415 154.463806 91.368415 154.463806 
L 22.19904 154.463806 
Q 21.09904 154.463806 21.09904 155.563806 
L 21.09904 166.209743 
Q 21.09904 167.309743 22.19904 167.309743 
z
" style="fill: #ffffff"/>
    </g>
    <!-- Reward (R) -->
    <g style="opacity: 0.75" transform="translate(22.19904 163.922087) scale(0.11 -0.11)">
     <defs>
      <path id="DejaVuSans-Bold-52" d="M 2297 2597 
Q 2675 2597 2839 2737 
Q 3003 2878 3003 3200 
Q 3003 3519 2839 3656 
Q 2675 3794 2297 3794 
L 1791 3794 
L 1791 2597 
L 2297 2597 
z
M 1791 1766 
L 1791 0 
L 588 0 
L 588 4666 
L 2425 4666 
Q 3347 4666 3776 4356 
Q 4206 4047 4206 3378 
Q 4206 2916 3982 2619 
Q 3759 2322 3309 2181 
Q 3556 2125 3751 1926 
Q 3947 1728 4147 1325 
L 4800 0 
L 3519 0 
L 2950 1159 
Q 2778 1509 2601 1637 
Q 2425 1766 2131 1766 
L 1791 1766 
z
" transform="scale(0.015625)"/>
      <path id="DejaVuSans-Bold-77" d="M 225 3500 
L 1313 3500 
L 1900 1088 
L 2491 3500 
L 3425 3500 
L 4013 1113 
L 4603 3500 
L 5691 3500 
L 4769 0 
L 3547 0 
L 2956 2406 
L 2369 0 
L 1147 0 
L 225 3500 
z
" transform="scale(0.015625)"/>
      <path id="DejaVuSans-Bold-64" d="M 2919 2988 
L 2919 4863 
L 4044 4863 
L 4044 0 
L 2919 0 
L 2919 506 
Q 2688 197 2409 53 
Q 2131 -91 1766 -91 
Q 1119 -91 703 423 
Q 288 938 288 1747 
Q 288 2556 703 3070 
Q 1119 3584 1766 3584 
Q 2128 3584 2408 3439 
Q 2688 3294 2919 2988 
z
M 2181 722 
Q 2541 722 2730 984 
Q 2919 1247 2919 1747 
Q 2919 2247 2730 2509 
Q 2541 2772 2181 2772 
Q 1825 2772 1636 2509 
Q 1447 2247 1447 1747 
Q 1447 1247 1636 984 
Q 1825 722 2181 722 
z
" transform="scale(0.015625)"/>
     </defs>
     <use xlink:href="#DejaVuSans-Bold-52"/>
     <use xlink:href="#DejaVuSans-Bold-65" transform="translate(77.001953 0)"/>
     <use xlink:href="#DejaVuSans-Bold-77" transform="translate(144.824219 0)"/>
     <use xlink:href="#DejaVuSans-Bold-61" transform="translate(237.207031 0)"/>
     <use xlink:href="#DejaVuSans-Bold-72" transform="translate(304.6875 0)"/>
     <use xlink:href="#DejaVuSans-Bold-64" transform="translate(354.003906 0)"/>
     <use xlink:href="#DejaVuSans-Bold-20" transform="translate(425.585938 0)"/>
     <use xlink:href="#DejaVuSans-Bold-28" transform="translate(460.400391 0)"/>
     <use xlink:href="#DejaVuSans-Bold-52" transform="translate(506.103516 0)"/>
     <use xlink:href="#DejaVuSans-Bold-29" transform="translate(583.105469 0)"/>
    </g>
   </g>
   <g id="text_10">
    <!-- Win/Loss -->
    <g transform="translate(22.19904 179.699478) scale(0.1 -0.1)">
     <defs>
      <path id="DejaVuSans-57" d="M 213 4666 
L 850 4666 
L 1831 722 
L 2809 4666 
L 3519 4666 
L 4500 722 
L 5478 4666 
L 6119 4666 
L 4947 0 
L 4153 0 
L 3169 4050 
L 2175 0 
L 1381 0 
L 213 4666 
z
" transform="scale(0.015625)"/>
     </defs>
     <use xlink:href="#DejaVuSans-57"/>
     <use xlink:href="#DejaVuSans-69" transform="translate(96.626953 0)"/>
     <use xlink:href="#DejaVuSans-6e" transform="translate(124.410156 0)"/>
     <use xlink:href="#DejaVuSans-2f" transform="translate(187.789062 0)"/>
     <use xlink:href="#DejaVuSans-4c" transform="translate(221.480469 0)"/>
     <use xlink:href="#DejaVuSans-6f" transform="translate(275.443359 0)"/>
     <use xlink:href="#DejaVuSans-73" transform="translate(336.625 0)"/>
     <use xlink:href="#DejaVuSans-73" transform="translate(388.724609 0)"/>
    </g>
   </g>
   <g id="text_11">
    <g id="patch_12">
     <path d="M 17.613309 209.468724 
L 93.209091 209.468724 
Q 94.309091 209.468724 94.309091 208.368724 
L 94.309091 197.64888 
Q 94.309091 196.54888 93.209091 196.54888 
L 17.613309 196.54888 
Q 16.513309 196.54888 16.513309 197.64888 
L 16.513309 208.368724 
Q 16.513309 209.468724 17.613309 209.468724 
z
" style="fill: #ffffff"/>
    </g>
    <!-- Strategy (S) -->
    <g transform="translate(17.613309 205.99513) scale(0.11 -0.11)">
     <defs>
      <path id="DejaVuSans-Bold-53" d="M 3834 4519 
L 3834 3531 
Q 3450 3703 3084 3790 
Q 2719 3878 2394 3878 
Q 1963 3878 1756 3759 
Q 1550 3641 1550 3391 
Q 1550 3203 1689 3098 
Q 1828 2994 2194 2919 
L 2706 2816 
Q 3484 2659 3812 2340 
Q 4141 2022 4141 1434 
Q 4141 663 3683 286 
Q 3225 -91 2284 -91 
Q 1841 -91 1394 -6 
Q 947 78 500 244 
L 500 1259 
Q 947 1022 1364 901 
Q 1781 781 2169 781 
Q 2563 781 2772 912 
Q 2981 1044 2981 1288 
Q 2981 1506 2839 1625 
Q 2697 1744 2272 1838 
L 1806 1941 
Q 1106 2091 782 2419 
Q 459 2747 459 3303 
Q 459 4000 909 4375 
Q 1359 4750 2203 4750 
Q 2588 4750 2994 4692 
Q 3400 4634 3834 4519 
z
" transform="scale(0.015625)"/>
      <path id="DejaVuSans-Bold-67" d="M 2919 594 
Q 2688 288 2409 144 
Q 2131 0 1766 0 
Q 1125 0 706 504 
Q 288 1009 288 1791 
Q 288 2575 706 3076 
Q 1125 3578 1766 3578 
Q 2131 3578 2409 3434 
Q 2688 3291 2919 2981 
L 2919 3500 
L 4044 3500 
L 4044 353 
Q 4044 -491 3511 -936 
Q 2978 -1381 1966 -1381 
Q 1638 -1381 1331 -1331 
Q 1025 -1281 716 -1178 
L 716 -306 
Q 1009 -475 1290 -558 
Q 1572 -641 1856 -641 
Q 2406 -641 2662 -400 
Q 2919 -159 2919 353 
L 2919 594 
z
M 2181 2772 
Q 1834 2772 1640 2515 
Q 1447 2259 1447 1791 
Q 1447 1309 1634 1061 
Q 1822 813 2181 813 
Q 2531 813 2725 1069 
Q 2919 1325 2919 1791 
Q 2919 2259 2725 2515 
Q 2531 2772 2181 2772 
z
" transform="scale(0.015625)"/>
      <path id="DejaVuSans-Bold-79" d="M 78 3500 
L 1197 3500 
L 2138 1125 
L 2938 3500 
L 4056 3500 
L 2584 -331 
Q 2363 -916 2067 -1148 
Q 1772 -1381 1288 -1381 
L 641 -1381 
L 641 -647 
L 991 -647 
Q 1275 -647 1404 -556 
Q 1534 -466 1606 -231 
L 1638 -134 
L 78 3500 
z
" transform="scale(0.015625)"/>
     </defs>
     <use xlink:href="#DejaVuSans-Bold-53"/>
     <use xlink:href="#DejaVuSans-Bold-74" transform="translate(72.021484 0)"/>
     <use xlink:href="#DejaVuSans-Bold-72" transform="translate(119.824219 0)"/>
     <use xlink:href="#DejaVuSans-Bold-61" transform="translate(169.140625 0)"/>
     <use xlink:href="#DejaVuSans-Bold-74" transform="translate(236.621094 0)"/>
     <use xlink:href="#DejaVuSans-Bold-65" transform="translate(284.423828 0)"/>
     <use xlink:href="#DejaVuSans-Bold-67" transform="translate(352.246094 0)"/>
     <use xlink:href="#DejaVuSans-Bold-79" transform="translate(423.828125 0)"/>
     <use xlink:href="#DejaVuSans-Bold-20" transform="translate(489.013672 0)"/>
     <use xlink:href="#DejaVuSans-Bold-28" transform="translate(523.828125 0)"/>
     <use xlink:href="#DejaVuSans-Bold-53" transform="translate(569.53125 0)"/>
     <use xlink:href="#DejaVuSans-Bold-29" transform="translate(641.552734 0)"/>
    </g>
   </g>
   <g id="text_12">
    <!-- GLM-HMM State -->
    <g transform="translate(17.9136 223.087304) scale(0.1 -0.1)">
     <defs>
      <path id="DejaVuSans-47" d="M 3809 666 
L 3809 1919 
L 2778 1919 
L 2778 2438 
L 4434 2438 
L 4434 434 
Q 4069 175 3628 42 
Q 3188 -91 2688 -91 
Q 1594 -91 976 548 
Q 359 1188 359 2328 
Q 359 3472 976 4111 
Q 1594 4750 2688 4750 
Q 3144 4750 3555 4637 
Q 3966 4525 4313 4306 
L 4313 3634 
Q 3963 3931 3569 4081 
Q 3175 4231 2741 4231 
Q 1884 4231 1454 3753 
Q 1025 3275 1025 2328 
Q 1025 1384 1454 906 
Q 1884 428 2741 428 
Q 3075 428 3337 486 
Q 3600 544 3809 666 
z
" transform="scale(0.015625)"/>
      <path id="DejaVuSans-4d" d="M 628 4666 
L 1569 4666 
L 2759 1491 
L 3956 4666 
L 4897 4666 
L 4897 0 
L 4281 0 
L 4281 4097 
L 3078 897 
L 2444 897 
L 1241 4097 
L 1241 0 
L 628 0 
L 628 4666 
z
" transform="scale(0.015625)"/>
      <path id="DejaVuSans-2d" d="M 313 2009 
L 1997 2009 
L 1997 1497 
L 313 1497 
L 313 2009 
z
" transform="scale(0.015625)"/>
      <path id="DejaVuSans-48" d="M 628 4666 
L 1259 4666 
L 1259 2753 
L 3553 2753 
L 3553 4666 
L 4184 4666 
L 4184 0 
L 3553 0 
L 3553 2222 
L 1259 2222 
L 1259 0 
L 628 0 
L 628 4666 
z
" transform="scale(0.015625)"/>
     </defs>
     <use xlink:href="#DejaVuSans-47"/>
     <use xlink:href="#DejaVuSans-4c" transform="translate(77.490234 0)"/>
     <use xlink:href="#DejaVuSans-4d" transform="translate(133.203125 0)"/>
     <use xlink:href="#DejaVuSans-2d" transform="translate(219.482422 0)"/>
     <use xlink:href="#DejaVuSans-48" transform="translate(255.566406 0)"/>
     <use xlink:href="#DejaVuSans-4d" transform="translate(330.761719 0)"/>
     <use xlink:href="#DejaVuSans-4d" transform="translate(417.041016 0)"/>
     <use xlink:href="#DejaVuSans-20" transform="translate(503.320312 0)"/>
     <use xlink:href="#DejaVuSans-53" transform="translate(535.107422 0)"/>
     <use xlink:href="#DejaVuSans-74" transform="translate(598.583984 0)"/>
     <use xlink:href="#DejaVuSans-61" transform="translate(637.792969 0)"/>
     <use xlink:href="#DejaVuSans-74" transform="translate(699.072266 0)"/>
     <use xlink:href="#DejaVuSans-65" transform="translate(738.28125 0)"/>
    </g>
   </g>
   <g id="text_13">
    <!-- Average  -->
    <g transform="translate(17.9136 238.185144) scale(0.1 -0.1)">
     <defs>
      <path id="DejaVuSans-41" d="M 2188 4044 
L 1331 1722 
L 3047 1722 
L 2188 4044 
z
M 1831 4666 
L 2547 4666 
L 4325 0 
L 3669 0 
L 3244 1197 
L 1141 1197 
L 716 0 
L 50 0 
L 1831 4666 
z
" transform="scale(0.015625)"/>
      <path id="DejaVuSans-76" d="M 191 3500 
L 800 3500 
L 1894 563 
L 2988 3500 
L 3597 3500 
L 2284 0 
L 1503 0 
L 191 3500 
z
" transform="scale(0.015625)"/>
     </defs>
     <use xlink:href="#DejaVuSans-41"/>
     <use xlink:href="#DejaVuSans-76" transform="translate(62.533203 0)"/>
     <use xlink:href="#DejaVuSans-65" transform="translate(121.712891 0)"/>
     <use xlink:href="#DejaVuSans-72" transform="translate(183.236328 0)"/>
     <use xlink:href="#DejaVuSans-61" transform="translate(224.349609 0)"/>
     <use xlink:href="#DejaVuSans-67" transform="translate(285.628906 0)"/>
     <use xlink:href="#DejaVuSans-65" transform="translate(349.105469 0)"/>
     <use xlink:href="#DejaVuSans-20" transform="translate(410.628906 0)"/>
    </g>
    <!-- reward rate -->
    <g transform="translate(17.9136 249.382957) scale(0.1 -0.1)">
     <defs>
      <path id="DejaVuSans-77" d="M 269 3500 
L 844 3500 
L 1563 769 
L 2278 3500 
L 2956 3500 
L 3675 769 
L 4391 3500 
L 4966 3500 
L 4050 0 
L 3372 0 
L 2619 2869 
L 1863 0 
L 1184 0 
L 269 3500 
z
" transform="scale(0.015625)"/>
     </defs>
     <use xlink:href="#DejaVuSans-72"/>
     <use xlink:href="#DejaVuSans-65" transform="translate(38.863281 0)"/>
     <use xlink:href="#DejaVuSans-77" transform="translate(100.386719 0)"/>
     <use xlink:href="#DejaVuSans-61" transform="translate(182.173828 0)"/>
     <use xlink:href="#DejaVuSans-72" transform="translate(243.453125 0)"/>
     <use xlink:href="#DejaVuSans-64" transform="translate(282.816406 0)"/>
     <use xlink:href="#DejaVuSans-20" transform="translate(346.292969 0)"/>
     <use xlink:href="#DejaVuSans-72" transform="translate(378.080078 0)"/>
     <use xlink:href="#DejaVuSans-61" transform="translate(419.193359 0)"/>
     <use xlink:href="#DejaVuSans-74" transform="translate(480.472656 0)"/>
     <use xlink:href="#DejaVuSans-65" transform="translate(519.681641 0)"/>
    </g>
   </g>
   <g id="line2d_1">
    <path d="M 100.0512 58.739478 
L 117.9072 131.052522 
" clip-path="url(#p35b2904e18)" style="fill: none; stroke: #000000; stroke-linecap: square"/>
    <defs>
     <path id="md7e8afb38c" d="M 0 3.5 
C 0.928211 3.5 1.81853 3.131218 2.474874 2.474874 
C 3.131218 1.81853 3.5 0.928211 3.5 0 
C 3.5 -0.928211 3.131218 -1.81853 2.474874 -2.474874 
C 1.81853 -3.131218 0.928211 -3.5 0 -3.5 
C -0.928211 -3.5 -1.81853 -3.131218 -2.474874 -2.474874 
C -3.131218 -1.81853 -3.5 -0.928211 -3.5 0 
C -3.5 0.928211 -3.131218 1.81853 -2.474874 2.474874 
C -1.81853 3.131218 -0.928211 3.5 0 3.5 
z
" style="stroke: #000000"/>
    </defs>
    <g clip-path="url(#p35b2904e18)">
     <use xlink:href="#md7e8afb38c" x="117.9072" y="131.052522" style="stroke: #000000"/>
    </g>
   </g>
   <g id="line2d_2">
    <path d="M 100.0512 111.330783 
L 117.9072 131.052522 
" clip-path="url(#p35b2904e18)" style="fill: none; stroke: #000000; stroke-linecap: square"/>
    <g clip-path="url(#p35b2904e18)">
     <use xlink:href="#md7e8afb38c" x="117.9072" y="131.052522" style="stroke: #000000"/>
    </g>
   </g>
   <g id="line2d_3">
    <path d="M 100.0512 163.922087 
L 117.9072 131.052522 
" clip-path="url(#p35b2904e18)" style="fill: none; stroke: #000000; stroke-linecap: square"/>
    <g clip-path="url(#p35b2904e18)">
     <use xlink:href="#md7e8afb38c" x="117.9072" y="131.052522" style="stroke: #000000"/>
    </g>
   </g>
   <g id="line2d_4">
    <path d="M 100.0512 229.661217 
L 117.9072 131.052522 
" clip-path="url(#p35b2904e18)" style="fill: none; stroke: #000000; stroke-linecap: square"/>
    <g clip-path="url(#p35b2904e18)">
     <use xlink:href="#md7e8afb38c" x="117.9072" y="131.052522" style="stroke: #000000"/>
    </g>
   </g>
  </g>
  <g id="axes_2">
   <g id="patch_13">
    <path d="M 272.16 173.088 
L 410.4 173.088 
L 410.4 69.408 
L 272.16 69.408 
L 272.16 173.088 
z
" style="fill: none; opacity: 0"/>
   </g>
   <g id="matplotlib.axis_3"/>
   <g id="matplotlib.axis_4"/>
   <g id="line2d_5">
    <path d="M 278.443636 154.845948 
L 279.49971 154.879072 
L 280.555783 155.076304 
L 281.611856 154.917583 
L 282.66793 154.447674 
L 283.724003 154.498844 
L 284.780076 154.513231 
L 285.83615 154.245952 
L 286.892223 154.20487 
L 287.948296 154.207819 
L 289.00437 154.418012 
L 290.060443 154.461504 
L 291.116516 154.632693 
L 292.17259 154.661636 
L 293.228663 154.298672 
L 294.284736 154.543368 
L 295.34081 154.354981 
L 296.396883 154.04181 
L 297.452956 154.212316 
L 298.50903 154.312336 
L 299.565103 153.852642 
L 300.621176 153.669271 
L 301.67725 153.784693 
L 302.733323 153.908 
L 303.789396 154.359336 
L 304.84547 154.193031 
L 305.901543 153.778495 
L 306.957617 153.671778 
L 308.01369 153.582028 
L 309.069763 153.398733 
L 310.125837 152.520801 
L 311.18191 151.499617 
L 312.237983 150.772807 
L 313.294057 149.956145 
L 314.35013 149.49828 
L 315.406203 149.486761 
L 316.462277 148.557808 
L 317.51835 148.247531 
L 318.574423 148.496299 
L 319.630497 148.481591 
L 320.68657 148.548043 
L 321.742643 148.728322 
L 322.798717 149.281813 
L 323.85479 150.434624 
L 324.910863 151.367287 
L 325.966937 152.284572 
L 327.02301 153.302967 
L 328.079083 154.19241 
L 329.135157 155.039306 
L 330.19123 155.650041 
L 331.247303 155.938241 
L 332.303377 155.331622 
L 333.35945 153.89709 
L 334.415523 152.103838 
L 335.471597 150.345168 
L 336.52767 148.423238 
L 337.583743 142.256422 
L 338.639817 124.900184 
L 339.69589 96.722392 
L 340.751963 75.634917 
L 341.808037 74.126345 
L 342.86411 83.461305 
L 343.920183 92.808002 
L 344.976257 98.254602 
L 346.03233 100.23605 
L 347.088403 102.151061 
L 348.144477 105.613159 
L 349.20055 108.585873 
L 350.256623 109.615443 
L 351.312697 110.946398 
L 352.36877 114.333632 
L 353.424843 119.496747 
L 354.480917 124.291657 
L 355.53699 128.039405 
L 356.593063 131.137214 
L 357.649137 134.199607 
L 358.70521 137.788065 
L 359.761283 141.850216 
L 360.817357 146.352904 
L 361.87343 150.530103 
L 362.929503 153.969192 
L 363.985577 156.787973 
L 365.04165 159.12767 
L 366.097723 161.044477 
L 367.153797 162.822887 
L 368.20987 164.088117 
L 369.265943 164.948072 
L 370.322017 166.131894 
L 371.37809 167.075434 
L 372.434163 167.802685 
L 373.490237 168.198826 
L 374.54631 167.857676 
L 375.602383 167.694379 
L 376.658457 167.839623 
L 377.71453 168.322335 
L 378.770604 168.375273 
L 379.826677 168.092591 
L 380.88275 168.066811 
L 381.938824 168.02917 
L 382.994897 167.274599 
L 384.05097 166.245643 
L 385.107044 165.855547 
L 386.163117 165.862454 
L 387.21919 165.311737 
L 388.275264 164.671868 
L 389.331337 163.985411 
L 390.38741 163.036404 
L 391.443484 162.261755 
L 392.499557 161.619332 
L 393.55563 160.917226 
L 394.611704 160.429671 
L 395.667777 159.515753 
L 396.72385 158.748779 
L 397.779924 157.928066 
L 398.835997 157.006498 
L 399.89207 156.422578 
L 400.948144 156.226281 
L 402.004217 155.491685 
L 403.06029 154.92325 
L 404.116364 154.144861 
" clip-path="url(#pb5c27470fc)" style="fill: none; stroke: #000000; stroke-width: 3; stroke-linecap: square"/>
   </g>
   <g id="line2d_6">
    <path d="M 278.443636 154.821482 
L 279.49971 154.882433 
L 280.555783 155.065037 
L 281.611856 154.89192 
L 282.66793 154.430173 
L 283.724003 154.481242 
L 284.780076 154.507457 
L 285.83615 154.249737 
L 286.892223 154.194816 
L 287.948296 154.216873 
L 289.00437 154.427594 
L 290.060443 154.450829 
L 291.116516 154.619199 
L 292.17259 154.663463 
L 293.228663 154.308122 
L 294.284736 154.552074 
L 295.34081 154.363556 
L 296.396883 154.061424 
L 297.452956 154.21948 
L 298.50903 154.291755 
L 299.565103 153.844136 
L 300.621176 153.671474 
L 301.67725 153.80241 
L 302.733323 153.928149 
L 303.789396 154.348004 
L 304.84547 154.169432 
L 305.901543 153.774499 
L 306.957617 153.670205 
L 308.01369 153.580711 
L 309.069763 153.391833 
L 310.125837 152.510071 
L 311.18191 151.487682 
L 312.237983 150.768862 
L 313.294057 149.952318 
L 314.35013 149.47233 
L 315.406203 149.469617 
L 316.462277 148.548898 
L 317.51835 148.225881 
L 318.574423 148.487563 
L 319.630497 148.484277 
L 320.68657 148.547494 
L 321.742643 148.72872 
L 322.798717 149.272564 
L 323.85479 150.408848 
L 324.910863 151.349772 
L 325.966937 152.293165 
L 327.02301 153.321791 
L 328.079083 154.194157 
L 329.135157 155.031069 
L 330.19123 155.652741 
L 331.247303 155.958865 
L 332.303377 155.344078 
L 333.35945 153.901766 
L 334.415523 152.099432 
L 335.471597 150.333043 
L 336.52767 148.401624 
L 337.583743 142.25645 
L 338.639817 124.878987 
L 339.69589 96.683218 
L 340.751963 75.617217 
L 341.808037 74.120727 
L 342.86411 83.448882 
L 343.920183 92.779971 
L 344.976257 98.215383 
L 346.03233 100.197496 
L 347.088403 102.137122 
L 348.144477 105.626961 
L 349.20055 108.592613 
L 350.256623 109.617126 
L 351.312697 110.960182 
L 352.36877 114.359167 
L 353.424843 119.50438 
L 354.480917 124.298376 
L 355.53699 128.043473 
L 356.593063 131.140236 
L 357.649137 134.205813 
L 358.70521 137.79051 
L 359.761283 141.849974 
L 360.817357 146.351322 
L 361.87343 150.544029 
L 362.929503 153.964226 
L 363.985577 156.786675 
L 365.04165 159.129403 
L 366.097723 161.036926 
L 367.153797 162.824381 
L 368.20987 164.0933 
L 369.265943 164.925627 
L 370.322017 166.125093 
L 371.37809 167.08958 
L 372.434163 167.799148 
L 373.490237 168.194362 
L 374.54631 167.855901 
L 375.602383 167.684757 
L 376.658457 167.839938 
L 377.71453 168.327712 
L 378.770604 168.369199 
L 379.826677 168.073848 
L 380.88275 168.05791 
L 381.938824 168.032202 
L 382.994897 167.284948 
L 384.05097 166.255244 
L 385.107044 165.843645 
L 386.163117 165.860602 
L 387.21919 165.300639 
L 388.275264 164.660112 
L 389.331337 163.985133 
L 390.38741 163.0337 
L 391.443484 162.253187 
L 392.499557 161.618275 
L 393.55563 160.919822 
L 394.611704 160.434624 
L 395.667777 159.526249 
L 396.72385 158.755189 
L 397.779924 157.920586 
L 398.835997 157.015277 
L 399.89207 156.430331 
L 400.948144 156.21429 
L 402.004217 155.480514 
L 403.06029 154.909155 
L 404.116364 154.149019 
" clip-path="url(#pb5c27470fc)" style="fill: none; stroke: #ffa500; stroke-linecap: square"/>
   </g>
   <g id="line2d_7">
    <path d="M 278.443636 166.593666 
L 310.125837 166.593666 
" clip-path="url(#pb5c27470fc)" style="fill: none; stroke: #000000; stroke-width: 2; stroke-linecap: square"/>
   </g>
   <g id="text_14">
    <!-- 1 s -->
    <g transform="translate(286.909736 176.983804) scale(0.1 -0.1)">
     <defs>
      <path id="DejaVuSans-31" d="M 794 531 
L 1825 531 
L 1825 4091 
L 703 3866 
L 703 4441 
L 1819 4666 
L 2450 4666 
L 2450 531 
L 3481 531 
L 3481 0 
L 794 0 
L 794 531 
z
" transform="scale(0.015625)"/>
     </defs>
     <use xlink:href="#DejaVuSans-31"/>
     <use xlink:href="#DejaVuSans-20" transform="translate(63.623047 0)"/>
     <use xlink:href="#DejaVuSans-73" transform="translate(95.410156 0)"/>
    </g>
   </g>
   <g id="text_15">
    <!-- $y$ -->
    <g transform="translate(352.36877 80.009185) scale(0.11 -0.11)">
     <defs>
      <path id="DejaVuSans-Oblique-79" d="M 1588 -325 
Q 1188 -997 936 -1164 
Q 684 -1331 294 -1331 
L -159 -1331 
L -63 -850 
L 269 -850 
Q 509 -850 678 -719 
Q 847 -588 1056 -206 
L 1234 128 
L 459 3500 
L 1069 3500 
L 1650 819 
L 3256 3500 
L 3859 3500 
L 1588 -325 
z
" transform="scale(0.015625)"/>
     </defs>
     <use xlink:href="#DejaVuSans-Oblique-79" transform="translate(0 0.3125)"/>
    </g>
   </g>
   <g id="text_16">
    <!-- $\hat{y}$ -->
    <g style="fill: #ffa500" transform="translate(352.36877 97.326082) scale(0.11 -0.11)">
     <defs>
      <path id="DejaVuSans-302" d="M -1831 5119 
L -1369 5119 
L -603 3944 
L -1038 3944 
L -1600 4709 
L -2163 3944 
L -2597 3944 
L -1831 5119 
z
M -1600 3584 
L -1600 3584 
z
" transform="scale(0.015625)"/>
     </defs>
     <use xlink:href="#DejaVuSans-302" transform="translate(62.373047 12.015625)"/>
     <use xlink:href="#DejaVuSans-Oblique-79" transform="translate(0 0.828125)"/>
    </g>
   </g>
  </g>
 </g>
 <defs>
  <clipPath id="p35b2904e18">
   <rect x="7.2" y="7.2" width="357.12" height="266.112"/>
  </clipPath>
  <clipPath id="pb5c27470fc">
   <rect x="272.16" y="69.408" width="138.24" height="103.68"/>
  </clipPath>
 </defs>
</svg>
