<?xml version="1.0" encoding="utf-8" standalone="no"?>
<!DOCTYPE svg PUBLIC "-//W3C//DTD SVG 1.1//EN"
  "http://www.w3.org/Graphics/SVG/1.1/DTD/svg11.dtd">
<svg xmlns:xlink="http://www.w3.org/1999/xlink" width="243.860902pt" height="262.113685pt" viewBox="0 0 243.860902 262.113685" xmlns="http://www.w3.org/2000/svg" version="1.1">
 <metadata>
  <rdf:RDF xmlns:dc="http://purl.org/dc/elements/1.1/" xmlns:cc="http://creativecommons.org/ns#" xmlns:rdf="http://www.w3.org/1999/02/22-rdf-syntax-ns#">
   <cc:Work>
    <dc:type rdf:resource="http://purl.org/dc/dcmitype/StillImage"/>
    <dc:date>2026-03-24T15:36:10.769027</dc:date>
    <dc:format>image/svg+xml</dc:format>
    <dc:creator>
     <cc:Agent>
      <dc:title>Matplotlib v3.10.8, https://matplotlib.org/</dc:title>
     </cc:Agent>
    </dc:creator>
   </cc:Work>
  </rdf:RDF>
 </metadata>
 <defs>
  <style type="text/css">*{stroke-linejoin: round; stroke-linecap: butt}</style>
 </defs>
 <g id="figure_1">
  <g id="patch_1">
   <path d="M 0 262.113685 
L 243.860902 262.113685 
L 243.860902 0 
L 0 0 
L 0 262.113685 
z
" style="fill: none"/>
  </g>
  <g id="axes_1">
   <g id="patch_2">
    <path d="M 52.679688 187.878281 
L 220.079688 187.878281 
L 220.079688 21.558281 
L 52.679688 21.558281 
L 52.679688 187.878281 
z
" style="fill: none"/>
   </g>
   <g id="PathCollection_1">
    <defs>
     <path id="maef3c50caf" d="M 0 0 
C 0 0 0 0 0 0 
C 0 0 0 0 0 0 
C 0 0 0 0 0 0 
C 0 0 0 0 0 0 
C 0 0 0 0 0 0 
C 0 0 0 0 0 0 
C 0 0 0 0 0 0 
C 0 0 0 0 0 0 
z
"/>
    </defs>
    <g clip-path="url(#pf57970d5bc)">
     <use xlink:href="#maef3c50caf" x="117.889421" y="96.187704" style="fill: #8b5cf6; fill-opacity: 0.3"/>
     <use xlink:href="#maef3c50caf" x="140.538776" y="117.869229" style="fill: #8b5cf6; fill-opacity: 0.3"/>
     <use xlink:href="#maef3c50caf" x="150.018163" y="87.794856" style="fill: #8b5cf6; fill-opacity: 0.3"/>
     <use xlink:href="#maef3c50caf" x="157.537289" y="123.884103" style="fill: #8b5cf6; fill-opacity: 0.3"/>
     <use xlink:href="#maef3c50caf" x="177.11116" y="119.687679" style="fill: #8b5cf6; fill-opacity: 0.3"/>
    </g>
   </g>
   <g id="PathCollection_2">
    <g clip-path="url(#pf57970d5bc)">
     <use xlink:href="#maef3c50caf" x="120.436037" y="116.286367" style="fill: #8b5cf6; fill-opacity: 0.3"/>
     <use xlink:href="#maef3c50caf" x="142.510534" y="142.878444" style="fill: #8b5cf6; fill-opacity: 0.3"/>
     <use xlink:href="#maef3c50caf" x="153.547783" y="128.395259" style="fill: #8b5cf6; fill-opacity: 0.3"/>
     <use xlink:href="#maef3c50caf" x="164.711501" y="111.854354" style="fill: #8b5cf6; fill-opacity: 0.3"/>
     <use xlink:href="#maef3c50caf" x="202.485335" y="129.582406" style="fill: #8b5cf6; fill-opacity: 0.3"/>
    </g>
   </g>
   <g id="PathCollection_3">
    <g clip-path="url(#pf57970d5bc)">
     <use xlink:href="#maef3c50caf" x="119.481774" y="114.445377" style="fill: #8b5cf6; fill-opacity: 0.3"/>
     <use xlink:href="#maef3c50caf" x="139.222354" y="121.064631" style="fill: #8b5cf6; fill-opacity: 0.3"/>
     <use xlink:href="#maef3c50caf" x="147.914187" y="110.558843" style="fill: #8b5cf6; fill-opacity: 0.3"/>
     <use xlink:href="#maef3c50caf" x="156.904947" y="81.592016" style="fill: #8b5cf6; fill-opacity: 0.3"/>
     <use xlink:href="#maef3c50caf" x="176.530555" y="133.878049" style="fill: #8b5cf6; fill-opacity: 0.3"/>
    </g>
   </g>
   <g id="PathCollection_4">
    <g clip-path="url(#pf57970d5bc)">
     <use xlink:href="#maef3c50caf" x="90.606722" y="69.750232" style="fill: #8b5cf6; fill-opacity: 0.3"/>
     <use xlink:href="#maef3c50caf" x="124.632491" y="130.567297" style="fill: #8b5cf6; fill-opacity: 0.3"/>
     <use xlink:href="#maef3c50caf" x="136.91143" y="114.861791" style="fill: #8b5cf6; fill-opacity: 0.3"/>
     <use xlink:href="#maef3c50caf" x="150.144632" y="130.567297" style="fill: #8b5cf6; fill-opacity: 0.3"/>
     <use xlink:href="#maef3c50caf" x="176.651275" y="123.884103" style="fill: #8b5cf6; fill-opacity: 0.3"/>
    </g>
   </g>
   <g id="PathCollection_5">
    <g clip-path="url(#pf57970d5bc)">
     <use xlink:href="#maef3c50caf" x="103.989386" y="107.176118" style="fill: #8b5cf6; fill-opacity: 0.3"/>
     <use xlink:href="#maef3c50caf" x="133.209353" y="135.245533" style="fill: #8b5cf6; fill-opacity: 0.3"/>
     <use xlink:href="#maef3c50caf" x="143.476294" y="130.567297" style="fill: #8b5cf6; fill-opacity: 0.3"/>
     <use xlink:href="#maef3c50caf" x="153.254606" y="116.53259" style="fill: #8b5cf6; fill-opacity: 0.3"/>
     <use xlink:href="#maef3c50caf" x="181.336357" y="116.53259" style="fill: #8b5cf6; fill-opacity: 0.3"/>
    </g>
   </g>
   <g id="PathCollection_6">
    <g clip-path="url(#pf57970d5bc)">
     <use xlink:href="#maef3c50caf" x="107.697212" y="102.111251" style="fill: #8b5cf6; fill-opacity: 0.3"/>
     <use xlink:href="#maef3c50caf" x="131.961914" y="107.643942" style="fill: #8b5cf6; fill-opacity: 0.3"/>
     <use xlink:href="#maef3c50caf" x="140.050148" y="116.064766" style="fill: #8b5cf6; fill-opacity: 0.3"/>
     <use xlink:href="#maef3c50caf" x="149.495043" y="118.169972" style="fill: #8b5cf6; fill-opacity: 0.3"/>
     <use xlink:href="#maef3c50caf" x="174.052922" y="118.813713" style="fill: #8b5cf6; fill-opacity: 0.3"/>
    </g>
   </g>
   <g id="PathCollection_7">
    <g clip-path="url(#pf57970d5bc)">
     <use xlink:href="#maef3c50caf" x="120.90167" y="107.513723" style="fill: #8b5cf6; fill-opacity: 0.3"/>
     <use xlink:href="#maef3c50caf" x="136.112379" y="91.887451" style="fill: #8b5cf6; fill-opacity: 0.3"/>
     <use xlink:href="#maef3c50caf" x="143.907436" y="130.953131" style="fill: #8b5cf6; fill-opacity: 0.3"/>
     <use xlink:href="#maef3c50caf" x="151.696745" y="141.370646" style="fill: #8b5cf6; fill-opacity: 0.3"/>
     <use xlink:href="#maef3c50caf" x="178.071171" y="125.744374" style="fill: #8b5cf6; fill-opacity: 0.3"/>
    </g>
   </g>
   <g id="PathCollection_8">
    <defs>
     <path id="m9b5865d855" d="M 0 0 
C 0 0 0 0 0 0 
C 0 0 0 0 0 0 
C 0 0 0 0 0 0 
C 0 0 0 0 0 0 
C 0 0 0 0 0 0 
C 0 0 0 0 0 0 
C 0 0 0 0 0 0 
C 0 0 0 0 0 0 
z
"/>
    </defs>
    <g clip-path="url(#pf57970d5bc)">
     <use xlink:href="#m9b5865d855" x="86.755182" y="65.394633" style="fill-opacity: 0.3"/>
     <use xlink:href="#m9b5865d855" x="120.378551" y="65.816628" style="fill-opacity: 0.3"/>
     <use xlink:href="#m9b5865d855" x="131.829697" y="81.551041" style="fill-opacity: 0.3"/>
     <use xlink:href="#m9b5865d855" x="142.562271" y="84.173443" style="fill-opacity: 0.3"/>
     <use xlink:href="#m9b5865d855" x="190.896224" y="70.621351" style="fill-opacity: 0.3"/>
    </g>
   </g>
   <g id="PathCollection_9">
    <g clip-path="url(#pf57970d5bc)">
     <use xlink:href="#m9b5865d855" x="60.288778" y="74.958989" style="fill-opacity: 0.3"/>
     <use xlink:href="#m9b5865d855" x="118.889672" y="85.376504" style="fill-opacity: 0.3"/>
     <use xlink:href="#m9b5865d855" x="132.933421" y="76.912273" style="fill-opacity: 0.3"/>
     <use xlink:href="#m9b5865d855" x="147.028908" y="79.516652" style="fill-opacity: 0.3"/>
     <use xlink:href="#m9b5865d855" x="202.726775" y="85.376504" style="fill-opacity: 0.3"/>
    </g>
   </g>
   <g id="PathCollection_10">
    <g clip-path="url(#pf57970d5bc)">
     <use xlink:href="#m9b5865d855" x="95.653964" y="55.175728" style="fill-opacity: 0.3"/>
     <use xlink:href="#m9b5865d855" x="122.706721" y="44.162839" style="fill-opacity: 0.3"/>
     <use xlink:href="#m9b5865d855" x="133.18061" y="70.968679" style="fill-opacity: 0.3"/>
     <use xlink:href="#m9b5865d855" x="143.608511" y="57.971908" style="fill-opacity: 0.3"/>
     <use xlink:href="#m9b5865d855" x="175.823481" y="65.701758" style="fill-opacity: 0.3"/>
    </g>
   </g>
   <g id="PathCollection_11">
    <g clip-path="url(#pf57970d5bc)">
     <use xlink:href="#m9b5865d855" x="98.735196" y="56.276912" style="fill-opacity: 0.3"/>
     <use xlink:href="#m9b5865d855" x="127.265334" y="65.948187" style="fill-opacity: 0.3"/>
     <use xlink:href="#m9b5865d855" x="136.434299" y="46.515515" style="fill-opacity: 0.3"/>
     <use xlink:href="#m9b5865d855" x="146.247103" y="54.964503" style="fill-opacity: 0.3"/>
     <use xlink:href="#m9b5865d855" x="192.183903" y="53.750665" style="fill-opacity: 0.3"/>
    </g>
   </g>
   <g id="PathCollection_12">
    <g clip-path="url(#pf57970d5bc)">
     <use xlink:href="#m9b5865d855" x="135.123626" y="57.15961" style="fill-opacity: 0.3"/>
     <use xlink:href="#m9b5865d855" x="146.82196" y="59.156291" style="fill-opacity: 0.3"/>
     <use xlink:href="#m9b5865d855" x="152.145133" y="74.639743" style="fill-opacity: 0.3"/>
     <use xlink:href="#m9b5865d855" x="157.617769" y="77.899417" style="fill-opacity: 0.3"/>
     <use xlink:href="#m9b5865d855" x="174.300111" y="67.719486" style="fill-opacity: 0.3"/>
    </g>
   </g>
   <g id="PathCollection_13">
    <g clip-path="url(#pf57970d5bc)">
     <use xlink:href="#m9b5865d855" x="82.86915" y="34.418101" style="fill-opacity: 0.3"/>
     <use xlink:href="#m9b5865d855" x="120.993648" y="36.510135" style="fill-opacity: 0.3"/>
     <use xlink:href="#m9b5865d855" x="132.318325" y="29.118281" style="fill-opacity: 0.3"/>
     <use xlink:href="#m9b5865d855" x="144.258099" y="47.146966" style="fill-opacity: 0.3"/>
     <use xlink:href="#m9b5865d855" x="183.940458" y="35.301404" style="fill-opacity: 0.3"/>
    </g>
   </g>
   <g id="PathCollection_14">
    <g clip-path="url(#pf57970d5bc)">
     <use xlink:href="#m9b5865d855" x="87.927889" y="36.357307" style="fill-opacity: 0.3"/>
     <use xlink:href="#m9b5865d855" x="115.923411" y="55.175728" style="fill-opacity: 0.3"/>
     <use xlink:href="#m9b5865d855" x="127.397551" y="68.298365" style="fill-opacity: 0.3"/>
     <use xlink:href="#m9b5865d855" x="140.808958" y="59.062262" style="fill-opacity: 0.3"/>
     <use xlink:href="#m9b5865d855" x="196.397603" y="50.87597" style="fill-opacity: 0.3"/>
    </g>
   </g>
   <g id="PathCollection_15">
    <defs>
     <path id="mc0b3c50af9" d="M 0 0 
C 0 0 0 0 0 0 
C 0 0 0 0 0 0 
C 0 0 0 0 0 0 
C 0 0 0 0 0 0 
C 0 0 0 0 0 0 
C 0 0 0 0 0 0 
C 0 0 0 0 0 0 
C 0 0 0 0 0 0 
z
"/>
    </defs>
    <g clip-path="url(#pf57970d5bc)">
     <use xlink:href="#mc0b3c50af9" x="95.119347" y="157.197255" style="fill: #f45b69; fill-opacity: 0.3"/>
     <use xlink:href="#mc0b3c50af9" x="143.395814" y="165.908453" style="fill: #f45b69; fill-opacity: 0.3"/>
     <use xlink:href="#mc0b3c50af9" x="152.11639" y="165.238361" style="fill: #f45b69; fill-opacity: 0.3"/>
     <use xlink:href="#mc0b3c50af9" x="159.882704" y="171.26919" style="fill: #f45b69; fill-opacity: 0.3"/>
     <use xlink:href="#mc0b3c50af9" x="193.138165" y="162.557992" style="fill: #f45b69; fill-opacity: 0.3"/>
    </g>
   </g>
   <g id="PathCollection_16">
    <g clip-path="url(#pf57970d5bc)">
     <use xlink:href="#mc0b3c50af9" x="104.288311" y="159.564408" style="fill: #f45b69; fill-opacity: 0.3"/>
     <use xlink:href="#mc0b3c50af9" x="141.28609" y="163.142662" style="fill: #f45b69; fill-opacity: 0.3"/>
     <use xlink:href="#mc0b3c50af9" x="152.23711" y="170.225978" style="fill: #f45b69; fill-opacity: 0.3"/>
     <use xlink:href="#mc0b3c50af9" x="163.14789" y="180.318281" style="fill: #f45b69; fill-opacity: 0.3"/>
     <use xlink:href="#mc0b3c50af9" x="205.779264" y="166.005265" style="fill: #f45b69; fill-opacity: 0.3"/>
    </g>
   </g>
   <g id="PathCollection_17">
    <g clip-path="url(#pf57970d5bc)">
     <use xlink:href="#mc0b3c50af9" x="115.549754" y="142.787995" style="fill: #f45b69; fill-opacity: 0.3"/>
     <use xlink:href="#mc0b3c50af9" x="142.119632" y="158.987979" style="fill: #f45b69; fill-opacity: 0.3"/>
     <use xlink:href="#mc0b3c50af9" x="150.115889" y="160.71238" style="fill: #f45b69; fill-opacity: 0.3"/>
     <use xlink:href="#mc0b3c50af9" x="159.152636" y="150.365975" style="fill: #f45b69; fill-opacity: 0.3"/>
     <use xlink:href="#mc0b3c50af9" x="188.30362" y="162.551155" style="fill: #f45b69; fill-opacity: 0.3"/>
    </g>
   </g>
   <g id="PathCollection_18">
    <g clip-path="url(#pf57970d5bc)">
     <use xlink:href="#mc0b3c50af9" x="75.263796" y="143.432446" style="fill: #f45b69; fill-opacity: 0.3"/>
     <use xlink:href="#mc0b3c50af9" x="123.741463" y="160.351249" style="fill: #f45b69; fill-opacity: 0.3"/>
     <use xlink:href="#mc0b3c50af9" x="135.411054" y="155.27423" style="fill: #f45b69; fill-opacity: 0.3"/>
     <use xlink:href="#mc0b3c50af9" x="147.724485" y="169.609747" style="fill: #f45b69; fill-opacity: 0.3"/>
     <use xlink:href="#mc0b3c50af9" x="212.470597" y="161.852999" style="fill: #f45b69; fill-opacity: 0.3"/>
    </g>
   </g>
   <g id="PathCollection_19">
    <g clip-path="url(#pf57970d5bc)">
     <use xlink:href="#mc0b3c50af9" x="102.437273" y="155.642641" style="fill: #f45b69; fill-opacity: 0.3"/>
     <use xlink:href="#mc0b3c50af9" x="133.853192" y="166.75813" style="fill: #f45b69; fill-opacity: 0.3"/>
     <use xlink:href="#mc0b3c50af9" x="146.350577" y="167.654998" style="fill: #f45b69; fill-opacity: 0.3"/>
     <use xlink:href="#mc0b3c50af9" x="159.039389" y="164.737132" style="fill: #f45b69; fill-opacity: 0.3"/>
     <use xlink:href="#mc0b3c50af9" x="198.894206" y="169.789627" style="fill: #f45b69; fill-opacity: 0.3"/>
    </g>
   </g>
   <g id="PathCollection_20">
    <g clip-path="url(#pf57970d5bc)">
     <use xlink:href="#mc0b3c50af9" x="101.92565" y="165.870862" style="fill: #f45b69; fill-opacity: 0.3"/>
     <use xlink:href="#mc0b3c50af9" x="133.726724" y="171.416283" style="fill: #f45b69; fill-opacity: 0.3"/>
     <use xlink:href="#mc0b3c50af9" x="142.424306" y="176.297339" style="fill: #f45b69; fill-opacity: 0.3"/>
     <use xlink:href="#mc0b3c50af9" x="152.605018" y="177.577862" style="fill: #f45b69; fill-opacity: 0.3"/>
     <use xlink:href="#mc0b3c50af9" x="189.740762" y="172.648599" style="fill: #f45b69; fill-opacity: 0.3"/>
    </g>
   </g>
   <g id="PathCollection_21">
    <g clip-path="url(#pf57970d5bc)">
     <use xlink:href="#mc0b3c50af9" x="80.949129" y="151.335597" style="fill: #f45b69; fill-opacity: 0.3"/>
     <use xlink:href="#mc0b3c50af9" x="137.716229" y="161.160497" style="fill: #f45b69; fill-opacity: 0.3"/>
     <use xlink:href="#mc0b3c50af9" x="144.930681" y="166.977514" style="fill: #f45b69; fill-opacity: 0.3"/>
     <use xlink:href="#mc0b3c50af9" x="152.576275" y="161.9915" style="fill: #f45b69; fill-opacity: 0.3"/>
     <use xlink:href="#mc0b3c50af9" x="191.718269" y="162.103208" style="fill: #f45b69; fill-opacity: 0.3"/>
    </g>
   </g>
   <g id="matplotlib.axis_1">
    <g id="xtick_1">
     <g id="line2d_1">
      <defs>
       <path id="m4fc9b6b68f" d="M 0 0 
L 0 8.25 
" style="stroke: #000000; stroke-width: 1.4"/>
      </defs>
      <g>
       <use xlink:href="#m4fc9b6b68f" x="109.013634" y="187.878281" style="stroke: #000000; stroke-width: 1.4"/>
      </g>
     </g>
     <g id="text_1">
      <!-- −5 -->
      <g transform="translate(100.168321 208.746406) scale(0.12 -0.12)">
       <defs>
        <path id="DejaVuSans-2212" d="M 678 2272 
L 4684 2272 
L 4684 1741 
L 678 1741 
L 678 2272 
z
" transform="scale(0.015625)"/>
        <path id="DejaVuSans-35" d="M 691 4666 
L 3169 4666 
L 3169 4134 
L 1269 4134 
L 1269 2991 
Q 1406 3038 1543 3061 
Q 1681 3084 1819 3084 
Q 2600 3084 3056 2656 
Q 3513 2228 3513 1497 
Q 3513 744 3044 326 
Q 2575 -91 1722 -91 
Q 1428 -91 1123 -41 
Q 819 9 494 109 
L 494 744 
Q 775 591 1075 516 
Q 1375 441 1709 441 
Q 2250 441 2565 725 
Q 2881 1009 2881 1497 
Q 2881 1984 2565 2268 
Q 2250 2553 1709 2553 
Q 1456 2553 1204 2497 
Q 953 2441 691 2322 
L 691 4666 
z
" transform="scale(0.015625)"/>
       </defs>
       <use xlink:href="#DejaVuSans-2212"/>
       <use xlink:href="#DejaVuSans-35" transform="translate(83.789062 0)"/>
      </g>
     </g>
    </g>
    <g id="xtick_2">
     <g id="line2d_2">
      <g>
       <use xlink:href="#m4fc9b6b68f" x="166.499305" y="187.878281" style="stroke: #000000; stroke-width: 1.4"/>
      </g>
     </g>
     <g id="text_2">
      <!-- 0 -->
      <g transform="translate(162.681805 208.746406) scale(0.12 -0.12)">
       <defs>
        <path id="DejaVuSans-30" d="M 2034 4250 
Q 1547 4250 1301 3770 
Q 1056 3291 1056 2328 
Q 1056 1369 1301 889 
Q 1547 409 2034 409 
Q 2525 409 2770 889 
Q 3016 1369 3016 2328 
Q 3016 3291 2770 3770 
Q 2525 4250 2034 4250 
z
M 2034 4750 
Q 2819 4750 3233 4129 
Q 3647 3509 3647 2328 
Q 3647 1150 3233 529 
Q 2819 -91 2034 -91 
Q 1250 -91 836 529 
Q 422 1150 422 2328 
Q 422 3509 836 4129 
Q 1250 4750 2034 4750 
z
" transform="scale(0.015625)"/>
       </defs>
       <use xlink:href="#DejaVuSans-30"/>
      </g>
     </g>
    </g>
    <g id="text_3">
     <!-- Reward axis projection  -->
     <g transform="translate(72.168047 223.600313) scale(0.11 -0.11)">
      <defs>
       <path id="DejaVuSans-52" d="M 2841 2188 
Q 3044 2119 3236 1894 
Q 3428 1669 3622 1275 
L 4263 0 
L 3584 0 
L 2988 1197 
Q 2756 1666 2539 1819 
Q 2322 1972 1947 1972 
L 1259 1972 
L 1259 0 
L 628 0 
L 628 4666 
L 2053 4666 
Q 2853 4666 3247 4331 
Q 3641 3997 3641 3322 
Q 3641 2881 3436 2590 
Q 3231 2300 2841 2188 
z
M 1259 4147 
L 1259 2491 
L 2053 2491 
Q 2509 2491 2742 2702 
Q 2975 2913 2975 3322 
Q 2975 3731 2742 3939 
Q 2509 4147 2053 4147 
L 1259 4147 
z
" transform="scale(0.015625)"/>
       <path id="DejaVuSans-65" d="M 3597 1894 
L 3597 1613 
L 953 1613 
Q 991 1019 1311 708 
Q 1631 397 2203 397 
Q 2534 397 2845 478 
Q 3156 559 3463 722 
L 3463 178 
Q 3153 47 2828 -22 
Q 2503 -91 2169 -91 
Q 1331 -91 842 396 
Q 353 884 353 1716 
Q 353 2575 817 3079 
Q 1281 3584 2069 3584 
Q 2775 3584 3186 3129 
Q 3597 2675 3597 1894 
z
M 3022 2063 
Q 3016 2534 2758 2815 
Q 2500 3097 2075 3097 
Q 1594 3097 1305 2825 
Q 1016 2553 972 2059 
L 3022 2063 
z
" transform="scale(0.015625)"/>
       <path id="DejaVuSans-77" d="M 269 3500 
L 844 3500 
L 1563 769 
L 2278 3500 
L 2956 3500 
L 3675 769 
L 4391 3500 
L 4966 3500 
L 4050 0 
L 3372 0 
L 2619 2869 
L 1863 0 
L 1184 0 
L 269 3500 
z
" transform="scale(0.015625)"/>
       <path id="DejaVuSans-61" d="M 2194 1759 
Q 1497 1759 1228 1600 
Q 959 1441 959 1056 
Q 959 750 1161 570 
Q 1363 391 1709 391 
Q 2188 391 2477 730 
Q 2766 1069 2766 1631 
L 2766 1759 
L 2194 1759 
z
M 3341 1997 
L 3341 0 
L 2766 0 
L 2766 531 
Q 2569 213 2275 61 
Q 1981 -91 1556 -91 
Q 1019 -91 701 211 
Q 384 513 384 1019 
Q 384 1609 779 1909 
Q 1175 2209 1959 2209 
L 2766 2209 
L 2766 2266 
Q 2766 2663 2505 2880 
Q 2244 3097 1772 3097 
Q 1472 3097 1187 3025 
Q 903 2953 641 2809 
L 641 3341 
Q 956 3463 1253 3523 
Q 1550 3584 1831 3584 
Q 2591 3584 2966 3190 
Q 3341 2797 3341 1997 
z
" transform="scale(0.015625)"/>
       <path id="DejaVuSans-72" d="M 2631 2963 
Q 2534 3019 2420 3045 
Q 2306 3072 2169 3072 
Q 1681 3072 1420 2755 
Q 1159 2438 1159 1844 
L 1159 0 
L 581 0 
L 581 3500 
L 1159 3500 
L 1159 2956 
Q 1341 3275 1631 3429 
Q 1922 3584 2338 3584 
Q 2397 3584 2469 3576 
Q 2541 3569 2628 3553 
L 2631 2963 
z
" transform="scale(0.015625)"/>
       <path id="DejaVuSans-64" d="M 2906 2969 
L 2906 4863 
L 3481 4863 
L 3481 0 
L 2906 0 
L 2906 525 
Q 2725 213 2448 61 
Q 2172 -91 1784 -91 
Q 1150 -91 751 415 
Q 353 922 353 1747 
Q 353 2572 751 3078 
Q 1150 3584 1784 3584 
Q 2172 3584 2448 3432 
Q 2725 3281 2906 2969 
z
M 947 1747 
Q 947 1113 1208 752 
Q 1469 391 1925 391 
Q 2381 391 2643 752 
Q 2906 1113 2906 1747 
Q 2906 2381 2643 2742 
Q 2381 3103 1925 3103 
Q 1469 3103 1208 2742 
Q 947 2381 947 1747 
z
" transform="scale(0.015625)"/>
       <path id="DejaVuSans-20" transform="scale(0.015625)"/>
       <path id="DejaVuSans-78" d="M 3513 3500 
L 2247 1797 
L 3578 0 
L 2900 0 
L 1881 1375 
L 863 0 
L 184 0 
L 1544 1831 
L 300 3500 
L 978 3500 
L 1906 2253 
L 2834 3500 
L 3513 3500 
z
" transform="scale(0.015625)"/>
       <path id="DejaVuSans-69" d="M 603 3500 
L 1178 3500 
L 1178 0 
L 603 0 
L 603 3500 
z
M 603 4863 
L 1178 4863 
L 1178 4134 
L 603 4134 
L 603 4863 
z
" transform="scale(0.015625)"/>
       <path id="DejaVuSans-73" d="M 2834 3397 
L 2834 2853 
Q 2591 2978 2328 3040 
Q 2066 3103 1784 3103 
Q 1356 3103 1142 2972 
Q 928 2841 928 2578 
Q 928 2378 1081 2264 
Q 1234 2150 1697 2047 
L 1894 2003 
Q 2506 1872 2764 1633 
Q 3022 1394 3022 966 
Q 3022 478 2636 193 
Q 2250 -91 1575 -91 
Q 1294 -91 989 -36 
Q 684 19 347 128 
L 347 722 
Q 666 556 975 473 
Q 1284 391 1588 391 
Q 1994 391 2212 530 
Q 2431 669 2431 922 
Q 2431 1156 2273 1281 
Q 2116 1406 1581 1522 
L 1381 1569 
Q 847 1681 609 1914 
Q 372 2147 372 2553 
Q 372 3047 722 3315 
Q 1072 3584 1716 3584 
Q 2034 3584 2315 3537 
Q 2597 3491 2834 3397 
z
" transform="scale(0.015625)"/>
       <path id="DejaVuSans-70" d="M 1159 525 
L 1159 -1331 
L 581 -1331 
L 581 3500 
L 1159 3500 
L 1159 2969 
Q 1341 3281 1617 3432 
Q 1894 3584 2278 3584 
Q 2916 3584 3314 3078 
Q 3713 2572 3713 1747 
Q 3713 922 3314 415 
Q 2916 -91 2278 -91 
Q 1894 -91 1617 61 
Q 1341 213 1159 525 
z
M 3116 1747 
Q 3116 2381 2855 2742 
Q 2594 3103 2138 3103 
Q 1681 3103 1420 2742 
Q 1159 2381 1159 1747 
Q 1159 1113 1420 752 
Q 1681 391 2138 391 
Q 2594 391 2855 752 
Q 3116 1113 3116 1747 
z
" transform="scale(0.015625)"/>
       <path id="DejaVuSans-6f" d="M 1959 3097 
Q 1497 3097 1228 2736 
Q 959 2375 959 1747 
Q 959 1119 1226 758 
Q 1494 397 1959 397 
Q 2419 397 2687 759 
Q 2956 1122 2956 1747 
Q 2956 2369 2687 2733 
Q 2419 3097 1959 3097 
z
M 1959 3584 
Q 2709 3584 3137 3096 
Q 3566 2609 3566 1747 
Q 3566 888 3137 398 
Q 2709 -91 1959 -91 
Q 1206 -91 779 398 
Q 353 888 353 1747 
Q 353 2609 779 3096 
Q 1206 3584 1959 3584 
z
" transform="scale(0.015625)"/>
       <path id="DejaVuSans-6a" d="M 603 3500 
L 1178 3500 
L 1178 -63 
Q 1178 -731 923 -1031 
Q 669 -1331 103 -1331 
L -116 -1331 
L -116 -844 
L 38 -844 
Q 366 -844 484 -692 
Q 603 -541 603 -63 
L 603 3500 
z
M 603 4863 
L 1178 4863 
L 1178 4134 
L 603 4134 
L 603 4863 
z
" transform="scale(0.015625)"/>
       <path id="DejaVuSans-63" d="M 3122 3366 
L 3122 2828 
Q 2878 2963 2633 3030 
Q 2388 3097 2138 3097 
Q 1578 3097 1268 2742 
Q 959 2388 959 1747 
Q 959 1106 1268 751 
Q 1578 397 2138 397 
Q 2388 397 2633 464 
Q 2878 531 3122 666 
L 3122 134 
Q 2881 22 2623 -34 
Q 2366 -91 2075 -91 
Q 1284 -91 818 406 
Q 353 903 353 1747 
Q 353 2603 823 3093 
Q 1294 3584 2113 3584 
Q 2378 3584 2631 3529 
Q 2884 3475 3122 3366 
z
" transform="scale(0.015625)"/>
       <path id="DejaVuSans-74" d="M 1172 4494 
L 1172 3500 
L 2356 3500 
L 2356 3053 
L 1172 3053 
L 1172 1153 
Q 1172 725 1289 603 
Q 1406 481 1766 481 
L 2356 481 
L 2356 0 
L 1766 0 
Q 1100 0 847 248 
Q 594 497 594 1153 
L 594 3053 
L 172 3053 
L 172 3500 
L 594 3500 
L 594 4494 
L 1172 4494 
z
" transform="scale(0.015625)"/>
       <path id="DejaVuSans-6e" d="M 3513 2113 
L 3513 0 
L 2938 0 
L 2938 2094 
Q 2938 2591 2744 2837 
Q 2550 3084 2163 3084 
Q 1697 3084 1428 2787 
Q 1159 2491 1159 1978 
L 1159 0 
L 581 0 
L 581 3500 
L 1159 3500 
L 1159 2956 
Q 1366 3272 1645 3428 
Q 1925 3584 2291 3584 
Q 2894 3584 3203 3211 
Q 3513 2838 3513 2113 
z
" transform="scale(0.015625)"/>
      </defs>
      <use xlink:href="#DejaVuSans-52"/>
      <use xlink:href="#DejaVuSans-65" transform="translate(64.982422 0)"/>
      <use xlink:href="#DejaVuSans-77" transform="translate(126.505859 0)"/>
      <use xlink:href="#DejaVuSans-61" transform="translate(208.292969 0)"/>
      <use xlink:href="#DejaVuSans-72" transform="translate(269.572266 0)"/>
      <use xlink:href="#DejaVuSans-64" transform="translate(308.935547 0)"/>
      <use xlink:href="#DejaVuSans-20" transform="translate(372.412109 0)"/>
      <use xlink:href="#DejaVuSans-61" transform="translate(404.199219 0)"/>
      <use xlink:href="#DejaVuSans-78" transform="translate(465.478516 0)"/>
      <use xlink:href="#DejaVuSans-69" transform="translate(524.658203 0)"/>
      <use xlink:href="#DejaVuSans-73" transform="translate(552.441406 0)"/>
      <use xlink:href="#DejaVuSans-20" transform="translate(604.541016 0)"/>
      <use xlink:href="#DejaVuSans-70" transform="translate(636.328125 0)"/>
      <use xlink:href="#DejaVuSans-72" transform="translate(699.804688 0)"/>
      <use xlink:href="#DejaVuSans-6f" transform="translate(738.667969 0)"/>
      <use xlink:href="#DejaVuSans-6a" transform="translate(799.849609 0)"/>
      <use xlink:href="#DejaVuSans-65" transform="translate(827.632812 0)"/>
      <use xlink:href="#DejaVuSans-63" transform="translate(889.15625 0)"/>
      <use xlink:href="#DejaVuSans-74" transform="translate(944.136719 0)"/>
      <use xlink:href="#DejaVuSans-69" transform="translate(983.345703 0)"/>
      <use xlink:href="#DejaVuSans-6f" transform="translate(1011.128906 0)"/>
      <use xlink:href="#DejaVuSans-6e" transform="translate(1072.310547 0)"/>
      <use xlink:href="#DejaVuSans-20" transform="translate(1135.689453 0)"/>
     </g>
     <!--  on trial $t$ -->
     <g transform="translate(111.244687 235.917906) scale(0.11 -0.11)">
      <defs>
       <path id="DejaVuSans-6c" d="M 603 4863 
L 1178 4863 
L 1178 0 
L 603 0 
L 603 4863 
z
" transform="scale(0.015625)"/>
       <path id="DejaVuSans-Oblique-74" d="M 2706 3500 
L 2619 3053 
L 1472 3053 
L 1100 1153 
Q 1081 1047 1072 975 
Q 1063 903 1063 863 
Q 1063 663 1183 572 
Q 1303 481 1569 481 
L 2150 481 
L 2053 0 
L 1503 0 
Q 991 0 739 200 
Q 488 400 488 806 
Q 488 878 497 964 
Q 506 1050 525 1153 
L 897 3053 
L 409 3053 
L 500 3500 
L 978 3500 
L 1172 4494 
L 1747 4494 
L 1556 3500 
L 2706 3500 
z
" transform="scale(0.015625)"/>
      </defs>
      <use xlink:href="#DejaVuSans-20" transform="translate(0 0.015625)"/>
      <use xlink:href="#DejaVuSans-6f" transform="translate(31.787109 0.015625)"/>
      <use xlink:href="#DejaVuSans-6e" transform="translate(92.96875 0.015625)"/>
      <use xlink:href="#DejaVuSans-20" transform="translate(156.347656 0.015625)"/>
      <use xlink:href="#DejaVuSans-74" transform="translate(188.134766 0.015625)"/>
      <use xlink:href="#DejaVuSans-72" transform="translate(227.34375 0.015625)"/>
      <use xlink:href="#DejaVuSans-69" transform="translate(268.457031 0.015625)"/>
      <use xlink:href="#DejaVuSans-61" transform="translate(296.240234 0.015625)"/>
      <use xlink:href="#DejaVuSans-6c" transform="translate(357.519531 0.015625)"/>
      <use xlink:href="#DejaVuSans-20" transform="translate(385.302734 0.015625)"/>
      <use xlink:href="#DejaVuSans-Oblique-74" transform="translate(417.089844 0.015625)"/>
     </g>
    </g>
   </g>
   <g id="matplotlib.axis_2">
    <g id="ytick_1">
     <g id="line2d_3">
      <defs>
       <path id="m3e758e9715" d="M 0 0 
L -8.25 0 
" style="stroke: #000000; stroke-width: 1.4"/>
      </defs>
      <g>
       <use xlink:href="#m3e758e9715" x="52.679688" y="145.537652" style="stroke: #000000; stroke-width: 1.4"/>
      </g>
     </g>
     <g id="text_4">
      <!-- 0.2 -->
      <g transform="translate(21.845938 150.096715) scale(0.12 -0.12)">
       <defs>
        <path id="DejaVuSans-2e" d="M 684 794 
L 1344 794 
L 1344 0 
L 684 0 
L 684 794 
z
" transform="scale(0.015625)"/>
        <path id="DejaVuSans-32" d="M 1228 531 
L 3431 531 
L 3431 0 
L 469 0 
L 469 531 
Q 828 903 1448 1529 
Q 2069 2156 2228 2338 
Q 2531 2678 2651 2914 
Q 2772 3150 2772 3378 
Q 2772 3750 2511 3984 
Q 2250 4219 1831 4219 
Q 1534 4219 1204 4116 
Q 875 4013 500 3803 
L 500 4441 
Q 881 4594 1212 4672 
Q 1544 4750 1819 4750 
Q 2544 4750 2975 4387 
Q 3406 4025 3406 3419 
Q 3406 3131 3298 2873 
Q 3191 2616 2906 2266 
Q 2828 2175 2409 1742 
Q 1991 1309 1228 531 
z
" transform="scale(0.015625)"/>
       </defs>
       <use xlink:href="#DejaVuSans-30"/>
       <use xlink:href="#DejaVuSans-2e" transform="translate(63.623047 0)"/>
       <use xlink:href="#DejaVuSans-32" transform="translate(95.410156 0)"/>
      </g>
     </g>
    </g>
    <g id="ytick_2">
     <g id="line2d_4">
      <g>
       <use xlink:href="#m3e758e9715" x="52.679688" y="95.012705" style="stroke: #000000; stroke-width: 1.4"/>
      </g>
     </g>
     <g id="text_5">
      <!-- 0.4 -->
      <g transform="translate(21.845938 99.571768) scale(0.12 -0.12)">
       <defs>
        <path id="DejaVuSans-34" d="M 2419 4116 
L 825 1625 
L 2419 1625 
L 2419 4116 
z
M 2253 4666 
L 3047 4666 
L 3047 1625 
L 3713 1625 
L 3713 1100 
L 3047 1100 
L 3047 0 
L 2419 0 
L 2419 1100 
L 313 1100 
L 313 1709 
L 2253 4666 
z
" transform="scale(0.015625)"/>
       </defs>
       <use xlink:href="#DejaVuSans-30"/>
       <use xlink:href="#DejaVuSans-2e" transform="translate(63.623047 0)"/>
       <use xlink:href="#DejaVuSans-34" transform="translate(95.410156 0)"/>
      </g>
     </g>
    </g>
    <g id="ytick_3">
     <g id="line2d_5">
      <g>
       <use xlink:href="#m3e758e9715" x="52.679688" y="44.487758" style="stroke: #000000; stroke-width: 1.4"/>
      </g>
     </g>
     <g id="text_6">
      <!-- 0.6 -->
      <g transform="translate(21.845938 49.046821) scale(0.12 -0.12)">
       <defs>
        <path id="DejaVuSans-36" d="M 2113 2584 
Q 1688 2584 1439 2293 
Q 1191 2003 1191 1497 
Q 1191 994 1439 701 
Q 1688 409 2113 409 
Q 2538 409 2786 701 
Q 3034 994 3034 1497 
Q 3034 2003 2786 2293 
Q 2538 2584 2113 2584 
z
M 3366 4563 
L 3366 3988 
Q 3128 4100 2886 4159 
Q 2644 4219 2406 4219 
Q 1781 4219 1451 3797 
Q 1122 3375 1075 2522 
Q 1259 2794 1537 2939 
Q 1816 3084 2150 3084 
Q 2853 3084 3261 2657 
Q 3669 2231 3669 1497 
Q 3669 778 3244 343 
Q 2819 -91 2113 -91 
Q 1303 -91 875 529 
Q 447 1150 447 2328 
Q 447 3434 972 4092 
Q 1497 4750 2381 4750 
Q 2619 4750 2861 4703 
Q 3103 4656 3366 4563 
z
" transform="scale(0.015625)"/>
       </defs>
       <use xlink:href="#DejaVuSans-30"/>
       <use xlink:href="#DejaVuSans-2e" transform="translate(63.623047 0)"/>
       <use xlink:href="#DejaVuSans-36" transform="translate(95.410156 0)"/>
      </g>
     </g>
    </g>
    <g id="text_7">
     <!-- P(switch) on trial $t+1$ -->
     <g transform="translate(15.558281 165.273281) rotate(-90) scale(0.11 -0.11)">
      <defs>
       <path id="DejaVuSans-50" d="M 1259 4147 
L 1259 2394 
L 2053 2394 
Q 2494 2394 2734 2622 
Q 2975 2850 2975 3272 
Q 2975 3691 2734 3919 
Q 2494 4147 2053 4147 
L 1259 4147 
z
M 628 4666 
L 2053 4666 
Q 2838 4666 3239 4311 
Q 3641 3956 3641 3272 
Q 3641 2581 3239 2228 
Q 2838 1875 2053 1875 
L 1259 1875 
L 1259 0 
L 628 0 
L 628 4666 
z
" transform="scale(0.015625)"/>
       <path id="DejaVuSans-28" d="M 1984 4856 
Q 1566 4138 1362 3434 
Q 1159 2731 1159 2009 
Q 1159 1288 1364 580 
Q 1569 -128 1984 -844 
L 1484 -844 
Q 1016 -109 783 600 
Q 550 1309 550 2009 
Q 550 2706 781 3412 
Q 1013 4119 1484 4856 
L 1984 4856 
z
" transform="scale(0.015625)"/>
       <path id="DejaVuSans-68" d="M 3513 2113 
L 3513 0 
L 2938 0 
L 2938 2094 
Q 2938 2591 2744 2837 
Q 2550 3084 2163 3084 
Q 1697 3084 1428 2787 
Q 1159 2491 1159 1978 
L 1159 0 
L 581 0 
L 581 4863 
L 1159 4863 
L 1159 2956 
Q 1366 3272 1645 3428 
Q 1925 3584 2291 3584 
Q 2894 3584 3203 3211 
Q 3513 2838 3513 2113 
z
" transform="scale(0.015625)"/>
       <path id="DejaVuSans-29" d="M 513 4856 
L 1013 4856 
Q 1481 4119 1714 3412 
Q 1947 2706 1947 2009 
Q 1947 1309 1714 600 
Q 1481 -109 1013 -844 
L 513 -844 
Q 928 -128 1133 580 
Q 1338 1288 1338 2009 
Q 1338 2731 1133 3434 
Q 928 4138 513 4856 
z
" transform="scale(0.015625)"/>
       <path id="DejaVuSans-2b" d="M 2944 4013 
L 2944 2272 
L 4684 2272 
L 4684 1741 
L 2944 1741 
L 2944 0 
L 2419 0 
L 2419 1741 
L 678 1741 
L 678 2272 
L 2419 2272 
L 2419 4013 
L 2944 4013 
z
" transform="scale(0.015625)"/>
       <path id="DejaVuSans-31" d="M 794 531 
L 1825 531 
L 1825 4091 
L 703 3866 
L 703 4441 
L 1819 4666 
L 2450 4666 
L 2450 531 
L 3481 531 
L 3481 0 
L 794 0 
L 794 531 
z
" transform="scale(0.015625)"/>
      </defs>
      <use xlink:href="#DejaVuSans-50" transform="translate(0 0.015625)"/>
      <use xlink:href="#DejaVuSans-28" transform="translate(60.302734 0.015625)"/>
      <use xlink:href="#DejaVuSans-73" transform="translate(99.316406 0.015625)"/>
      <use xlink:href="#DejaVuSans-77" transform="translate(151.416016 0.015625)"/>
      <use xlink:href="#DejaVuSans-69" transform="translate(233.203125 0.015625)"/>
      <use xlink:href="#DejaVuSans-74" transform="translate(260.986328 0.015625)"/>
      <use xlink:href="#DejaVuSans-63" transform="translate(300.195312 0.015625)"/>
      <use xlink:href="#DejaVuSans-68" transform="translate(355.175781 0.015625)"/>
      <use xlink:href="#DejaVuSans-29" transform="translate(418.554688 0.015625)"/>
      <use xlink:href="#DejaVuSans-20" transform="translate(457.568359 0.015625)"/>
      <use xlink:href="#DejaVuSans-6f" transform="translate(489.355469 0.015625)"/>
      <use xlink:href="#DejaVuSans-6e" transform="translate(550.537109 0.015625)"/>
      <use xlink:href="#DejaVuSans-20" transform="translate(613.916016 0.015625)"/>
      <use xlink:href="#DejaVuSans-74" transform="translate(645.703125 0.015625)"/>
      <use xlink:href="#DejaVuSans-72" transform="translate(684.912109 0.015625)"/>
      <use xlink:href="#DejaVuSans-69" transform="translate(726.025391 0.015625)"/>
      <use xlink:href="#DejaVuSans-61" transform="translate(753.808594 0.015625)"/>
      <use xlink:href="#DejaVuSans-6c" transform="translate(815.087891 0.015625)"/>
      <use xlink:href="#DejaVuSans-20" transform="translate(842.871094 0.015625)"/>
      <use xlink:href="#DejaVuSans-Oblique-74" transform="translate(874.658203 0.015625)"/>
      <use xlink:href="#DejaVuSans-2b" transform="translate(933.349609 0.015625)"/>
      <use xlink:href="#DejaVuSans-31" transform="translate(1036.621094 0.015625)"/>
     </g>
    </g>
   </g>
   <g id="line2d_6">
    <path d="M 117.889421 96.187704 
L 140.538776 117.869229 
L 150.018163 87.794856 
L 157.537289 123.884103 
L 177.11116 119.687679 
" clip-path="url(#pf57970d5bc)" style="fill: none; stroke: #8b5cf6; stroke-opacity: 0.3; stroke-width: 0.5; stroke-linecap: square"/>
   </g>
   <g id="line2d_7">
    <path d="M 120.436037 116.286367 
L 142.510534 142.878444 
L 153.547783 128.395259 
L 164.711501 111.854354 
L 202.485335 129.582406 
" clip-path="url(#pf57970d5bc)" style="fill: none; stroke: #8b5cf6; stroke-opacity: 0.3; stroke-width: 0.5; stroke-linecap: square"/>
   </g>
   <g id="line2d_8">
    <path d="M 119.481774 114.445377 
L 139.222354 121.064631 
L 147.914187 110.558843 
L 156.904947 81.592016 
L 176.530555 133.878049 
" clip-path="url(#pf57970d5bc)" style="fill: none; stroke: #8b5cf6; stroke-opacity: 0.3; stroke-width: 0.5; stroke-linecap: square"/>
   </g>
   <g id="line2d_9">
    <path d="M 90.606722 69.750232 
L 124.632491 130.567297 
L 136.91143 114.861791 
L 150.144632 130.567297 
L 176.651275 123.884103 
" clip-path="url(#pf57970d5bc)" style="fill: none; stroke: #8b5cf6; stroke-opacity: 0.3; stroke-width: 0.5; stroke-linecap: square"/>
   </g>
   <g id="line2d_10">
    <path d="M 103.989386 107.176118 
L 133.209353 135.245533 
L 143.476294 130.567297 
L 153.254606 116.53259 
L 181.336357 116.53259 
" clip-path="url(#pf57970d5bc)" style="fill: none; stroke: #8b5cf6; stroke-opacity: 0.3; stroke-width: 0.5; stroke-linecap: square"/>
   </g>
   <g id="line2d_11">
    <path d="M 107.697212 102.111251 
L 131.961914 107.643942 
L 140.050148 116.064766 
L 149.495043 118.169972 
L 174.052922 118.813713 
" clip-path="url(#pf57970d5bc)" style="fill: none; stroke: #8b5cf6; stroke-opacity: 0.3; stroke-width: 0.5; stroke-linecap: square"/>
   </g>
   <g id="line2d_12">
    <path d="M 120.90167 107.513723 
L 136.112379 91.887451 
L 143.907436 130.953131 
L 151.696745 141.370646 
L 178.071171 125.744374 
" clip-path="url(#pf57970d5bc)" style="fill: none; stroke: #8b5cf6; stroke-opacity: 0.3; stroke-width: 0.5; stroke-linecap: square"/>
   </g>
   <g id="line2d_13">
    <path d="M 86.755182 65.394633 
L 120.378551 65.816628 
L 131.829697 81.551041 
L 142.562271 84.173443 
L 190.896224 70.621351 
" clip-path="url(#pf57970d5bc)" style="fill: none; stroke: #000000; stroke-opacity: 0.3; stroke-width: 0.5; stroke-linecap: square"/>
   </g>
   <g id="line2d_14">
    <path d="M 60.288778 74.958989 
L 118.889672 85.376504 
L 132.933421 76.912273 
L 147.028908 79.516652 
L 202.726775 85.376504 
" clip-path="url(#pf57970d5bc)" style="fill: none; stroke: #000000; stroke-opacity: 0.3; stroke-width: 0.5; stroke-linecap: square"/>
   </g>
   <g id="line2d_15">
    <path d="M 95.653964 55.175728 
L 122.706721 44.162839 
L 133.18061 70.968679 
L 143.608511 57.971908 
L 175.823481 65.701758 
" clip-path="url(#pf57970d5bc)" style="fill: none; stroke: #000000; stroke-opacity: 0.3; stroke-width: 0.5; stroke-linecap: square"/>
   </g>
   <g id="line2d_16">
    <path d="M 98.735196 56.276912 
L 127.265334 65.948187 
L 136.434299 46.515515 
L 146.247103 54.964503 
L 192.183903 53.750665 
" clip-path="url(#pf57970d5bc)" style="fill: none; stroke: #000000; stroke-opacity: 0.3; stroke-width: 0.5; stroke-linecap: square"/>
   </g>
   <g id="line2d_17">
    <path d="M 135.123626 57.15961 
L 146.82196 59.156291 
L 152.145133 74.639743 
L 157.617769 77.899417 
L 174.300111 67.719486 
" clip-path="url(#pf57970d5bc)" style="fill: none; stroke: #000000; stroke-opacity: 0.3; stroke-width: 0.5; stroke-linecap: square"/>
   </g>
   <g id="line2d_18">
    <path d="M 82.86915 34.418101 
L 120.993648 36.510135 
L 132.318325 29.118281 
L 144.258099 47.146966 
L 183.940458 35.301404 
" clip-path="url(#pf57970d5bc)" style="fill: none; stroke: #000000; stroke-opacity: 0.3; stroke-width: 0.5; stroke-linecap: square"/>
   </g>
   <g id="line2d_19">
    <path d="M 87.927889 36.357307 
L 115.923411 55.175728 
L 127.397551 68.298365 
L 140.808958 59.062262 
L 196.397603 50.87597 
" clip-path="url(#pf57970d5bc)" style="fill: none; stroke: #000000; stroke-opacity: 0.3; stroke-width: 0.5; stroke-linecap: square"/>
   </g>
   <g id="line2d_20">
    <path d="M 95.119347 157.197255 
L 143.395814 165.908453 
L 152.11639 165.238361 
L 159.882704 171.26919 
L 193.138165 162.557992 
" clip-path="url(#pf57970d5bc)" style="fill: none; stroke: #f45b69; stroke-opacity: 0.3; stroke-width: 0.5; stroke-linecap: square"/>
   </g>
   <g id="line2d_21">
    <path d="M 104.288311 159.564408 
L 141.28609 163.142662 
L 152.23711 170.225978 
L 163.14789 180.318281 
L 205.779264 166.005265 
" clip-path="url(#pf57970d5bc)" style="fill: none; stroke: #f45b69; stroke-opacity: 0.3; stroke-width: 0.5; stroke-linecap: square"/>
   </g>
   <g id="line2d_22">
    <path d="M 115.549754 142.787995 
L 142.119632 158.987979 
L 150.115889 160.71238 
L 159.152636 150.365975 
L 188.30362 162.551155 
" clip-path="url(#pf57970d5bc)" style="fill: none; stroke: #f45b69; stroke-opacity: 0.3; stroke-width: 0.5; stroke-linecap: square"/>
   </g>
   <g id="line2d_23">
    <path d="M 75.263796 143.432446 
L 123.741463 160.351249 
L 135.411054 155.27423 
L 147.724485 169.609747 
L 212.470597 161.852999 
" clip-path="url(#pf57970d5bc)" style="fill: none; stroke: #f45b69; stroke-opacity: 0.3; stroke-width: 0.5; stroke-linecap: square"/>
   </g>
   <g id="line2d_24">
    <path d="M 102.437273 155.642641 
L 133.853192 166.75813 
L 146.350577 167.654998 
L 159.039389 164.737132 
L 198.894206 169.789627 
" clip-path="url(#pf57970d5bc)" style="fill: none; stroke: #f45b69; stroke-opacity: 0.3; stroke-width: 0.5; stroke-linecap: square"/>
   </g>
   <g id="line2d_25">
    <path d="M 101.92565 165.870862 
L 133.726724 171.416283 
L 142.424306 176.297339 
L 152.605018 177.577862 
L 189.740762 172.648599 
" clip-path="url(#pf57970d5bc)" style="fill: none; stroke: #f45b69; stroke-opacity: 0.3; stroke-width: 0.5; stroke-linecap: square"/>
   </g>
   <g id="line2d_26">
    <path d="M 80.949129 151.335597 
L 137.716229 161.160497 
L 144.930681 166.977514 
L 152.576275 161.9915 
L 191.718269 162.103208 
" clip-path="url(#pf57970d5bc)" style="fill: none; stroke: #f45b69; stroke-opacity: 0.3; stroke-width: 0.5; stroke-linecap: square"/>
   </g>
   <g id="patch_3">
    <path d="M 52.679688 187.878281 
L 52.679688 21.558281 
" style="fill: none; stroke: #000000; stroke-width: 1.2; stroke-linejoin: miter; stroke-linecap: square"/>
   </g>
   <g id="patch_4">
    <path d="M 52.679687 187.878281 
L 220.079687 187.878281 
" style="fill: none; stroke: #000000; stroke-width: 1.2; stroke-linejoin: miter; stroke-linecap: square"/>
   </g>
   <g id="line2d_27">
    <path d="M 107.243075 101.924396 
L 132.117125 116.762202 
L 145.206612 119.827396 
L 158.324843 119.170895 
L 184.53256 124.017559 
" clip-path="url(#pf57970d5bc)" style="fill: none; stroke: #8b5cf6; stroke-linecap: square"/>
   </g>
   <g id="PathCollection_22">
    <defs>
     <path id="m5fca2d9748" d="M 0 2.236068 
C 0.593012 2.236068 1.161816 2.000462 1.581139 1.581139 
C 2.000462 1.161816 2.236068 0.593012 2.236068 0 
C 2.236068 -0.593012 2.000462 -1.161816 1.581139 -1.581139 
C 1.161816 -2.000462 0.593012 -2.236068 0 -2.236068 
C -0.593012 -2.236068 -1.161816 -2.000462 -1.581139 -1.581139 
C -2.000462 -1.161816 -2.236068 -0.593012 -2.236068 0 
C -2.236068 0.593012 -2.000462 1.161816 -1.581139 1.581139 
C -1.161816 2.000462 -0.593012 2.236068 0 2.236068 
z
"/>
    </defs>
    <g clip-path="url(#pf57970d5bc)">
     <use xlink:href="#m5fca2d9748" x="107.243075" y="101.924396" style="fill: #8b5cf6"/>
     <use xlink:href="#m5fca2d9748" x="132.117125" y="116.762202" style="fill: #8b5cf6"/>
     <use xlink:href="#m5fca2d9748" x="145.206612" y="119.827396" style="fill: #8b5cf6"/>
     <use xlink:href="#m5fca2d9748" x="158.324843" y="119.170895" style="fill: #8b5cf6"/>
     <use xlink:href="#m5fca2d9748" x="184.53256" y="124.017559" style="fill: #8b5cf6"/>
    </g>
   </g>
   <g id="line2d_28">
    <path d="M 89.284551 53.965342 
L 125.207347 63.951957 
L 137.549521 60.55858 
L 151.966927 64.470783 
L 181.842231 61.335306 
" clip-path="url(#pf57970d5bc)" style="fill: none; stroke: #000000; stroke-linecap: square"/>
   </g>
   <g id="PathCollection_23">
    <defs>
     <path id="mfdc6f3ca9c" d="M 0 2.236068 
C 0.593012 2.236068 1.161816 2.000462 1.581139 1.581139 
C 2.000462 1.161816 2.236068 0.593012 2.236068 0 
C 2.236068 -0.593012 2.000462 -1.161816 1.581139 -1.581139 
C 1.161816 -2.000462 0.593012 -2.236068 0 -2.236068 
C -0.593012 -2.236068 -1.161816 -2.000462 -1.581139 -1.581139 
C -2.000462 -1.161816 -2.236068 -0.593012 -2.236068 0 
C -2.236068 0.593012 -2.000462 1.161816 -1.581139 1.581139 
C -1.161816 2.000462 -0.593012 2.236068 0 2.236068 
z
"/>
    </defs>
    <g clip-path="url(#pf57970d5bc)">
     <use xlink:href="#mfdc6f3ca9c" x="89.284551" y="53.965342"/>
     <use xlink:href="#mfdc6f3ca9c" x="125.207347" y="63.951957"/>
     <use xlink:href="#mfdc6f3ca9c" x="137.549521" y="60.55858"/>
     <use xlink:href="#mfdc6f3ca9c" x="151.966927" y="64.470783"/>
     <use xlink:href="#mfdc6f3ca9c" x="181.842231" y="61.335306"/>
    </g>
   </g>
   <g id="line2d_29">
    <path d="M 98.67771 153.690172 
L 132.197605 162.441576 
L 147.230108 167.485542 
L 160.170133 168.069417 
L 190.321367 165.358407 
" clip-path="url(#pf57970d5bc)" style="fill: none; stroke: #f45b69; stroke-linecap: square"/>
   </g>
   <g id="PathCollection_24">
    <defs>
     <path id="mf764f1fc52" d="M 0 2.236068 
C 0.593012 2.236068 1.161816 2.000462 1.581139 1.581139 
C 2.000462 1.161816 2.236068 0.593012 2.236068 0 
C 2.236068 -0.593012 2.000462 -1.161816 1.581139 -1.581139 
C 1.161816 -2.000462 0.593012 -2.236068 0 -2.236068 
C -0.593012 -2.236068 -1.161816 -2.000462 -1.581139 -1.581139 
C -2.000462 -1.161816 -2.236068 -0.593012 -2.236068 0 
C -2.236068 0.593012 -2.000462 1.161816 -1.581139 1.581139 
C -1.161816 2.000462 -0.593012 2.236068 0 2.236068 
z
"/>
    </defs>
    <g clip-path="url(#pf57970d5bc)">
     <use xlink:href="#mf764f1fc52" x="98.67771" y="153.690172" style="fill: #f45b69"/>
     <use xlink:href="#mf764f1fc52" x="132.197605" y="162.441576" style="fill: #f45b69"/>
     <use xlink:href="#mf764f1fc52" x="147.230108" y="167.485542" style="fill: #f45b69"/>
     <use xlink:href="#mf764f1fc52" x="160.170133" y="168.069417" style="fill: #f45b69"/>
     <use xlink:href="#mf764f1fc52" x="190.321367" y="165.358407" style="fill: #f45b69"/>
    </g>
   </g>
   <g id="patch_5">
    <path d="M 69.245335 237.774281 
Q 137.757472 237.774281 206.269609 237.774281 
" style="fill: none; stroke: #000000; stroke-width: 1.2; stroke-linecap: round"/>
    <path d="M 73.245335 239.774281 
L 69.245335 237.774281 
L 73.245335 235.774281 
" style="fill: none; stroke: #000000; stroke-width: 1.2; stroke-linecap: round"/>
    <path d="M 202.269609 235.774281 
L 206.269609 237.774281 
L 202.269609 239.774281 
" style="fill: none; stroke: #000000; stroke-width: 1.2; stroke-linecap: round"/>
   </g>
   <g id="text_8">
    <!-- Activity similar  -->
    <g transform="translate(182.566215 245.619435) scale(0.07 -0.07)">
     <defs>
      <path id="DejaVuSans-41" d="M 2188 4044 
L 1331 1722 
L 3047 1722 
L 2188 4044 
z
M 1831 4666 
L 2547 4666 
L 4325 0 
L 3669 0 
L 3244 1197 
L 1141 1197 
L 716 0 
L 50 0 
L 1831 4666 
z
" transform="scale(0.015625)"/>
      <path id="DejaVuSans-76" d="M 191 3500 
L 800 3500 
L 1894 563 
L 2988 3500 
L 3597 3500 
L 2284 0 
L 1503 0 
L 191 3500 
z
" transform="scale(0.015625)"/>
      <path id="DejaVuSans-79" d="M 2059 -325 
Q 1816 -950 1584 -1140 
Q 1353 -1331 966 -1331 
L 506 -1331 
L 506 -850 
L 844 -850 
Q 1081 -850 1212 -737 
Q 1344 -625 1503 -206 
L 1606 56 
L 191 3500 
L 800 3500 
L 1894 763 
L 2988 3500 
L 3597 3500 
L 2059 -325 
z
" transform="scale(0.015625)"/>
      <path id="DejaVuSans-6d" d="M 3328 2828 
Q 3544 3216 3844 3400 
Q 4144 3584 4550 3584 
Q 5097 3584 5394 3201 
Q 5691 2819 5691 2113 
L 5691 0 
L 5113 0 
L 5113 2094 
Q 5113 2597 4934 2840 
Q 4756 3084 4391 3084 
Q 3944 3084 3684 2787 
Q 3425 2491 3425 1978 
L 3425 0 
L 2847 0 
L 2847 2094 
Q 2847 2600 2669 2842 
Q 2491 3084 2119 3084 
Q 1678 3084 1418 2786 
Q 1159 2488 1159 1978 
L 1159 0 
L 581 0 
L 581 3500 
L 1159 3500 
L 1159 2956 
Q 1356 3278 1631 3431 
Q 1906 3584 2284 3584 
Q 2666 3584 2933 3390 
Q 3200 3197 3328 2828 
z
" transform="scale(0.015625)"/>
     </defs>
     <use xlink:href="#DejaVuSans-41"/>
     <use xlink:href="#DejaVuSans-63" transform="translate(66.658203 0)"/>
     <use xlink:href="#DejaVuSans-74" transform="translate(121.638672 0)"/>
     <use xlink:href="#DejaVuSans-69" transform="translate(160.847656 0)"/>
     <use xlink:href="#DejaVuSans-76" transform="translate(188.630859 0)"/>
     <use xlink:href="#DejaVuSans-69" transform="translate(247.810547 0)"/>
     <use xlink:href="#DejaVuSans-74" transform="translate(275.59375 0)"/>
     <use xlink:href="#DejaVuSans-79" transform="translate(314.802734 0)"/>
     <use xlink:href="#DejaVuSans-20" transform="translate(373.982422 0)"/>
     <use xlink:href="#DejaVuSans-73" transform="translate(405.769531 0)"/>
     <use xlink:href="#DejaVuSans-69" transform="translate(457.869141 0)"/>
     <use xlink:href="#DejaVuSans-6d" transform="translate(485.652344 0)"/>
     <use xlink:href="#DejaVuSans-69" transform="translate(583.064453 0)"/>
     <use xlink:href="#DejaVuSans-6c" transform="translate(610.847656 0)"/>
     <use xlink:href="#DejaVuSans-61" transform="translate(638.630859 0)"/>
     <use xlink:href="#DejaVuSans-72" transform="translate(699.910156 0)"/>
     <use xlink:href="#DejaVuSans-20" transform="translate(741.023438 0)"/>
    </g>
    <!--  to rewarded -->
    <g transform="translate(187.379262 253.457904) scale(0.07 -0.07)">
     <use xlink:href="#DejaVuSans-20"/>
     <use xlink:href="#DejaVuSans-74" transform="translate(31.787109 0)"/>
     <use xlink:href="#DejaVuSans-6f" transform="translate(70.996094 0)"/>
     <use xlink:href="#DejaVuSans-20" transform="translate(132.177734 0)"/>
     <use xlink:href="#DejaVuSans-72" transform="translate(163.964844 0)"/>
     <use xlink:href="#DejaVuSans-65" transform="translate(202.828125 0)"/>
     <use xlink:href="#DejaVuSans-77" transform="translate(264.351562 0)"/>
     <use xlink:href="#DejaVuSans-61" transform="translate(346.138672 0)"/>
     <use xlink:href="#DejaVuSans-72" transform="translate(407.417969 0)"/>
     <use xlink:href="#DejaVuSans-64" transform="translate(446.78125 0)"/>
     <use xlink:href="#DejaVuSans-65" transform="translate(510.257812 0)"/>
     <use xlink:href="#DejaVuSans-64" transform="translate(571.78125 0)"/>
    </g>
   </g>
   <g id="text_9">
    <!-- Activity similar  -->
    <g transform="translate(38.852036 245.619435) scale(0.07 -0.07)">
     <use xlink:href="#DejaVuSans-41"/>
     <use xlink:href="#DejaVuSans-63" transform="translate(66.658203 0)"/>
     <use xlink:href="#DejaVuSans-74" transform="translate(121.638672 0)"/>
     <use xlink:href="#DejaVuSans-69" transform="translate(160.847656 0)"/>
     <use xlink:href="#DejaVuSans-76" transform="translate(188.630859 0)"/>
     <use xlink:href="#DejaVuSans-69" transform="translate(247.810547 0)"/>
     <use xlink:href="#DejaVuSans-74" transform="translate(275.59375 0)"/>
     <use xlink:href="#DejaVuSans-79" transform="translate(314.802734 0)"/>
     <use xlink:href="#DejaVuSans-20" transform="translate(373.982422 0)"/>
     <use xlink:href="#DejaVuSans-73" transform="translate(405.769531 0)"/>
     <use xlink:href="#DejaVuSans-69" transform="translate(457.869141 0)"/>
     <use xlink:href="#DejaVuSans-6d" transform="translate(485.652344 0)"/>
     <use xlink:href="#DejaVuSans-69" transform="translate(583.064453 0)"/>
     <use xlink:href="#DejaVuSans-6c" transform="translate(610.847656 0)"/>
     <use xlink:href="#DejaVuSans-61" transform="translate(638.630859 0)"/>
     <use xlink:href="#DejaVuSans-72" transform="translate(699.910156 0)"/>
     <use xlink:href="#DejaVuSans-20" transform="translate(741.023438 0)"/>
    </g>
    <!--  to unrewarded -->
    <g transform="translate(39.228833 253.457904) scale(0.07 -0.07)">
     <defs>
      <path id="DejaVuSans-75" d="M 544 1381 
L 544 3500 
L 1119 3500 
L 1119 1403 
Q 1119 906 1312 657 
Q 1506 409 1894 409 
Q 2359 409 2629 706 
Q 2900 1003 2900 1516 
L 2900 3500 
L 3475 3500 
L 3475 0 
L 2900 0 
L 2900 538 
Q 2691 219 2414 64 
Q 2138 -91 1772 -91 
Q 1169 -91 856 284 
Q 544 659 544 1381 
z
M 1991 3584 
L 1991 3584 
z
" transform="scale(0.015625)"/>
     </defs>
     <use xlink:href="#DejaVuSans-20"/>
     <use xlink:href="#DejaVuSans-74" transform="translate(31.787109 0)"/>
     <use xlink:href="#DejaVuSans-6f" transform="translate(70.996094 0)"/>
     <use xlink:href="#DejaVuSans-20" transform="translate(132.177734 0)"/>
     <use xlink:href="#DejaVuSans-75" transform="translate(163.964844 0)"/>
     <use xlink:href="#DejaVuSans-6e" transform="translate(227.34375 0)"/>
     <use xlink:href="#DejaVuSans-72" transform="translate(290.722656 0)"/>
     <use xlink:href="#DejaVuSans-65" transform="translate(329.585938 0)"/>
     <use xlink:href="#DejaVuSans-77" transform="translate(391.109375 0)"/>
     <use xlink:href="#DejaVuSans-61" transform="translate(472.896484 0)"/>
     <use xlink:href="#DejaVuSans-72" transform="translate(534.175781 0)"/>
     <use xlink:href="#DejaVuSans-64" transform="translate(573.539062 0)"/>
     <use xlink:href="#DejaVuSans-65" transform="translate(637.015625 0)"/>
     <use xlink:href="#DejaVuSans-64" transform="translate(698.539062 0)"/>
    </g>
   </g>
   <g id="text_10">
    <!-- Stochastic -->
    <g transform="translate(117.62613 44.487758) scale(0.1 -0.1)">
     <defs>
      <path id="DejaVuSans-53" d="M 3425 4513 
L 3425 3897 
Q 3066 4069 2747 4153 
Q 2428 4238 2131 4238 
Q 1616 4238 1336 4038 
Q 1056 3838 1056 3469 
Q 1056 3159 1242 3001 
Q 1428 2844 1947 2747 
L 2328 2669 
Q 3034 2534 3370 2195 
Q 3706 1856 3706 1288 
Q 3706 609 3251 259 
Q 2797 -91 1919 -91 
Q 1588 -91 1214 -16 
Q 841 59 441 206 
L 441 856 
Q 825 641 1194 531 
Q 1563 422 1919 422 
Q 2459 422 2753 634 
Q 3047 847 3047 1241 
Q 3047 1584 2836 1778 
Q 2625 1972 2144 2069 
L 1759 2144 
Q 1053 2284 737 2584 
Q 422 2884 422 3419 
Q 422 4038 858 4394 
Q 1294 4750 2059 4750 
Q 2388 4750 2728 4690 
Q 3069 4631 3425 4513 
z
" transform="scale(0.015625)"/>
     </defs>
     <use xlink:href="#DejaVuSans-53"/>
     <use xlink:href="#DejaVuSans-74" transform="translate(63.476562 0)"/>
     <use xlink:href="#DejaVuSans-6f" transform="translate(102.685547 0)"/>
     <use xlink:href="#DejaVuSans-63" transform="translate(163.867188 0)"/>
     <use xlink:href="#DejaVuSans-68" transform="translate(218.847656 0)"/>
     <use xlink:href="#DejaVuSans-61" transform="translate(282.226562 0)"/>
     <use xlink:href="#DejaVuSans-73" transform="translate(343.505859 0)"/>
     <use xlink:href="#DejaVuSans-74" transform="translate(395.605469 0)"/>
     <use xlink:href="#DejaVuSans-69" transform="translate(434.814453 0)"/>
     <use xlink:href="#DejaVuSans-63" transform="translate(462.597656 0)"/>
    </g>
   </g>
   <g id="text_11">
    <!-- Block switch -->
    <g style="fill: #8b5cf6" transform="translate(112.431599 95.012705) scale(0.1 -0.1)">
     <defs>
      <path id="DejaVuSans-42" d="M 1259 2228 
L 1259 519 
L 2272 519 
Q 2781 519 3026 730 
Q 3272 941 3272 1375 
Q 3272 1813 3026 2020 
Q 2781 2228 2272 2228 
L 1259 2228 
z
M 1259 4147 
L 1259 2741 
L 2194 2741 
Q 2656 2741 2882 2914 
Q 3109 3088 3109 3444 
Q 3109 3797 2882 3972 
Q 2656 4147 2194 4147 
L 1259 4147 
z
M 628 4666 
L 2241 4666 
Q 2963 4666 3353 4366 
Q 3744 4066 3744 3513 
Q 3744 3084 3544 2831 
Q 3344 2578 2956 2516 
Q 3422 2416 3680 2098 
Q 3938 1781 3938 1306 
Q 3938 681 3513 340 
Q 3088 0 2303 0 
L 628 0 
L 628 4666 
z
" transform="scale(0.015625)"/>
      <path id="DejaVuSans-6b" d="M 581 4863 
L 1159 4863 
L 1159 1991 
L 2875 3500 
L 3609 3500 
L 1753 1863 
L 3688 0 
L 2938 0 
L 1159 1709 
L 1159 0 
L 581 0 
L 581 4863 
z
" transform="scale(0.015625)"/>
     </defs>
     <use xlink:href="#DejaVuSans-42"/>
     <use xlink:href="#DejaVuSans-6c" transform="translate(68.603516 0)"/>
     <use xlink:href="#DejaVuSans-6f" transform="translate(96.386719 0)"/>
     <use xlink:href="#DejaVuSans-63" transform="translate(157.568359 0)"/>
     <use xlink:href="#DejaVuSans-6b" transform="translate(212.548828 0)"/>
     <use xlink:href="#DejaVuSans-20" transform="translate(270.458984 0)"/>
     <use xlink:href="#DejaVuSans-73" transform="translate(302.246094 0)"/>
     <use xlink:href="#DejaVuSans-77" transform="translate(354.345703 0)"/>
     <use xlink:href="#DejaVuSans-69" transform="translate(436.132812 0)"/>
     <use xlink:href="#DejaVuSans-74" transform="translate(463.916016 0)"/>
     <use xlink:href="#DejaVuSans-63" transform="translate(503.125 0)"/>
     <use xlink:href="#DejaVuSans-68" transform="translate(558.105469 0)"/>
    </g>
   </g>
   <g id="text_12">
    <!-- Bias -->
    <g style="fill: #f45b69" transform="translate(133.016755 150.590147) scale(0.1 -0.1)">
     <use xlink:href="#DejaVuSans-42"/>
     <use xlink:href="#DejaVuSans-69" transform="translate(68.603516 0)"/>
     <use xlink:href="#DejaVuSans-61" transform="translate(96.386719 0)"/>
     <use xlink:href="#DejaVuSans-73" transform="translate(157.666016 0)"/>
    </g>
   </g>
   <g id="text_13">
    <!-- Unrewarded trials -->
    <g transform="translate(87.489844 15.558281) scale(0.11 -0.11)">
     <defs>
      <path id="DejaVuSans-55" d="M 556 4666 
L 1191 4666 
L 1191 1831 
Q 1191 1081 1462 751 
Q 1734 422 2344 422 
Q 2950 422 3222 751 
Q 3494 1081 3494 1831 
L 3494 4666 
L 4128 4666 
L 4128 1753 
Q 4128 841 3676 375 
Q 3225 -91 2344 -91 
Q 1459 -91 1007 375 
Q 556 841 556 1753 
L 556 4666 
z
" transform="scale(0.015625)"/>
     </defs>
     <use xlink:href="#DejaVuSans-55"/>
     <use xlink:href="#DejaVuSans-6e" transform="translate(73.193359 0)"/>
     <use xlink:href="#DejaVuSans-72" transform="translate(136.572266 0)"/>
     <use xlink:href="#DejaVuSans-65" transform="translate(175.435547 0)"/>
     <use xlink:href="#DejaVuSans-77" transform="translate(236.958984 0)"/>
     <use xlink:href="#DejaVuSans-61" transform="translate(318.746094 0)"/>
     <use xlink:href="#DejaVuSans-72" transform="translate(380.025391 0)"/>
     <use xlink:href="#DejaVuSans-64" transform="translate(419.388672 0)"/>
     <use xlink:href="#DejaVuSans-65" transform="translate(482.865234 0)"/>
     <use xlink:href="#DejaVuSans-64" transform="translate(544.388672 0)"/>
     <use xlink:href="#DejaVuSans-20" transform="translate(607.865234 0)"/>
     <use xlink:href="#DejaVuSans-74" transform="translate(639.652344 0)"/>
     <use xlink:href="#DejaVuSans-72" transform="translate(678.861328 0)"/>
     <use xlink:href="#DejaVuSans-69" transform="translate(719.974609 0)"/>
     <use xlink:href="#DejaVuSans-61" transform="translate(747.757812 0)"/>
     <use xlink:href="#DejaVuSans-6c" transform="translate(809.037109 0)"/>
     <use xlink:href="#DejaVuSans-73" transform="translate(836.820312 0)"/>
    </g>
   </g>
  </g>
 </g>
 <defs>
  <clipPath id="pf57970d5bc">
   <rect x="52.679688" y="21.558281" width="167.4" height="166.32"/>
  </clipPath>
 </defs>
</svg>
