<?xml version="1.0" encoding="utf-8" standalone="no"?>
<!DOCTYPE svg PUBLIC "-//W3C//DTD SVG 1.1//EN"
  "http://www.w3.org/Graphics/SVG/1.1/DTD/svg11.dtd">
<svg xmlns:xlink="http://www.w3.org/1999/xlink" width="460.8pt" height="268.595875pt" viewBox="0 0 460.8 268.595875" xmlns="http://www.w3.org/2000/svg" version="1.1">
 <metadata>
  <rdf:RDF xmlns:dc="http://purl.org/dc/elements/1.1/" xmlns:cc="http://creativecommons.org/ns#" xmlns:rdf="http://www.w3.org/1999/02/22-rdf-syntax-ns#">
   <cc:Work>
    <dc:type rdf:resource="http://purl.org/dc/dcmitype/StillImage"/>
    <dc:date>2025-10-11T20:39:48.489042</dc:date>
    <dc:format>image/svg+xml</dc:format>
    <dc:creator>
     <cc:Agent>
      <dc:title>Matplotlib v3.10.6, https://matplotlib.org/</dc:title>
     </cc:Agent>
    </dc:creator>
   </cc:Work>
  </rdf:RDF>
 </metadata>
 <defs>
  <style type="text/css">*{stroke-linejoin: round; stroke-linecap: butt}</style>
 </defs>
 <g id="figure_1">
  <g id="patch_1">
   <path d="M 0 268.595875 
L 460.8 268.595875 
L 460.8 0 
L 0 0 
L 0 268.595875 
z
" style="fill: none"/>
  </g>
  <g id="axes_1">
   <g id="patch_2">
    <path d="M 7.2 261.395875 
L 453.6 261.395875 
L 453.6 39.635875 
L 7.2 39.635875 
L 7.2 261.395875 
z
" style="fill: none"/>
   </g>
   <g id="matplotlib.axis_1"/>
   <g id="matplotlib.axis_2"/>
   <g id="patch_3">
    <path d="M 145.549019 102.737842 
L 138.993396 100.196594 
Q 205.213471 52.771823 266.752941 97.752574 
L 267.066864 92.893463 
Q 271.165333 97.787491 273.470816 104.923237 
Q 266.049757 104.4601 260.421683 102.885539 
L 264.710837 100.717335 
Q 203.20575 60.945981 146.381267 109.652775 
L 145.549019 102.737842 
z
"/>
   </g>
   <g id="patch_4">
    <path d="M 146.522908 196.346707 
L 144.653071 189.634548 
Q 222.545002 214.866042 267.602945 148.434472 
L 262.805894 148.107029 
Q 267.395472 144.43662 274.065483 141.174756 
Q 274.67963 148.633285 272.816398 154.724415 
L 270.635221 150.374911 
Q 227.575154 221.64312 141.433812 201.194668 
L 146.522908 196.346707 
z
"/>
   </g>
  </g>
  <g id="axes_2">
   <g id="patch_5">
    <path d="M 50.4 120.275875 
L 223.2 120.275875 
L 223.2 33.875875 
L 50.4 33.875875 
L 50.4 120.275875 
z
" style="fill: none"/>
   </g>
   <g id="PathCollection_1">
    <defs>
     <path id="m94ff44eb8b" d="M 0 3.5 
C 0.928211 3.5 1.81853 3.131218 2.474874 2.474874 
C 3.131218 1.81853 3.5 0.928211 3.5 0 
C 3.5 -0.928211 3.131218 -1.81853 2.474874 -2.474874 
C 1.81853 -3.131218 0.928211 -3.5 0 -3.5 
C -0.928211 -3.5 -1.81853 -3.131218 -2.474874 -2.474874 
C -3.131218 -1.81853 -3.5 -0.928211 -3.5 0 
C -3.5 0.928211 -3.131218 1.81853 -2.474874 2.474874 
C -1.81853 3.131218 -0.928211 3.5 0 3.5 
z
" style="stroke: #f45b69"/>
    </defs>
    <g clip-path="url(#p95177f61bf)">
     <use xlink:href="#m94ff44eb8b" x="101.454545" y="37.803148" style="fill: #ffffff; stroke: #f45b69"/>
    </g>
   </g>
   <g id="PathCollection_2">
    <g clip-path="url(#p95177f61bf)">
     <use xlink:href="#m94ff44eb8b" x="117.163636" y="37.803148" style="fill: #ffffff; stroke: #f45b69"/>
    </g>
   </g>
   <g id="PathCollection_3">
    <g clip-path="url(#p95177f61bf)">
     <use xlink:href="#m94ff44eb8b" x="167.432727" y="37.803148" style="fill: #ffffff; stroke: #f45b69"/>
    </g>
   </g>
   <g id="PathCollection_4">
    <defs>
     <path id="m5a8f9153a9" d="M 0 3.5 
C 0.928211 3.5 1.81853 3.131218 2.474874 2.474874 
C 3.131218 1.81853 3.5 0.928211 3.5 0 
C 3.5 -0.928211 3.131218 -1.81853 2.474874 -2.474874 
C 1.81853 -3.131218 0.928211 -3.5 0 -3.5 
C -0.928211 -3.5 -1.81853 -3.131218 -2.474874 -2.474874 
C -3.131218 -1.81853 -3.5 -0.928211 -3.5 0 
C -3.5 0.928211 -3.131218 1.81853 -2.474874 2.474874 
C -1.81853 3.131218 -0.928211 3.5 0 3.5 
z
" style="stroke: #2a9df4"/>
    </defs>
    <g clip-path="url(#p95177f61bf)">
     <use xlink:href="#m5a8f9153a9" x="151.723636" y="116.348602" style="fill: #ffffff; stroke: #2a9df4"/>
    </g>
   </g>
   <g id="PathCollection_5">
    <g clip-path="url(#p95177f61bf)">
     <use xlink:href="#m5a8f9153a9" x="198.850909" y="116.348602" style="fill: #ffffff; stroke: #2a9df4"/>
    </g>
   </g>
   <g id="matplotlib.axis_3"/>
   <g id="matplotlib.axis_4"/>
   <g id="line2d_1">
    <path d="M 58.254545 77.075875 
L 215.345455 77.075875 
" clip-path="url(#p95177f61bf)" style="fill: none; stroke: #000000; stroke-width: 5; stroke-linecap: square"/>
   </g>
   <g id="line2d_2">
    <path d="M 97.527273 77.075875 
L 97.527273 41.373396 
" clip-path="url(#p95177f61bf)" style="fill: none; stroke: #f45b69; stroke-width: 5; stroke-linecap: square"/>
   </g>
   <g id="line2d_3">
    <path d="M 113.236364 77.075875 
L 113.236364 41.373396 
" clip-path="url(#p95177f61bf)" style="fill: none; stroke: #f45b69; stroke-width: 5; stroke-linecap: square"/>
   </g>
   <g id="line2d_4">
    <path d="M 128.945455 77.075875 
L 128.945455 41.373396 
" clip-path="url(#p95177f61bf)" style="fill: none; stroke: #f45b69; stroke-width: 5; stroke-linecap: square"/>
   </g>
   <g id="line2d_5">
    <path d="M 147.796364 77.075875 
L 147.796364 112.778354 
" clip-path="url(#p95177f61bf)" style="fill: none; stroke: #2a9df4; stroke-width: 5; stroke-linecap: square"/>
   </g>
   <g id="line2d_6">
    <path d="M 163.505455 77.075875 
L 163.505455 41.373396 
" clip-path="url(#p95177f61bf)" style="fill: none; stroke: #f45b69; stroke-width: 5; stroke-linecap: square"/>
   </g>
   <g id="line2d_7">
    <path d="M 179.214545 77.075875 
L 179.214545 112.778354 
" clip-path="url(#p95177f61bf)" style="fill: none; stroke: #2a9df4; stroke-width: 5; stroke-linecap: square"/>
   </g>
   <g id="line2d_8">
    <path d="M 194.923636 77.075875 
L 194.923636 112.778354 
" clip-path="url(#p95177f61bf)" style="fill: none; stroke: #2a9df4; stroke-width: 5; stroke-linecap: square"/>
   </g>
   <g id="text_1">
    <!-- Stage 3A  -->
    <g transform="translate(106.918672 15.472344) scale(0.11 -0.11)">
     <defs>
      <path id="DejaVuSans-Bold-53" d="M 3834 4519 
L 3834 3531 
Q 3450 3703 3084 3790 
Q 2719 3878 2394 3878 
Q 1963 3878 1756 3759 
Q 1550 3641 1550 3391 
Q 1550 3203 1689 3098 
Q 1828 2994 2194 2919 
L 2706 2816 
Q 3484 2659 3812 2340 
Q 4141 2022 4141 1434 
Q 4141 663 3683 286 
Q 3225 -91 2284 -91 
Q 1841 -91 1394 -6 
Q 947 78 500 244 
L 500 1259 
Q 947 1022 1364 901 
Q 1781 781 2169 781 
Q 2563 781 2772 912 
Q 2981 1044 2981 1288 
Q 2981 1506 2839 1625 
Q 2697 1744 2272 1838 
L 1806 1941 
Q 1106 2091 782 2419 
Q 459 2747 459 3303 
Q 459 4000 909 4375 
Q 1359 4750 2203 4750 
Q 2588 4750 2994 4692 
Q 3400 4634 3834 4519 
z
" transform="scale(0.015625)"/>
      <path id="DejaVuSans-Bold-74" d="M 1759 4494 
L 1759 3500 
L 2913 3500 
L 2913 2700 
L 1759 2700 
L 1759 1216 
Q 1759 972 1856 886 
Q 1953 800 2241 800 
L 2816 800 
L 2816 0 
L 1856 0 
Q 1194 0 917 276 
Q 641 553 641 1216 
L 641 2700 
L 84 2700 
L 84 3500 
L 641 3500 
L 641 4494 
L 1759 4494 
z
" transform="scale(0.015625)"/>
      <path id="DejaVuSans-Bold-61" d="M 2106 1575 
Q 1756 1575 1579 1456 
Q 1403 1338 1403 1106 
Q 1403 894 1545 773 
Q 1688 653 1941 653 
Q 2256 653 2472 879 
Q 2688 1106 2688 1447 
L 2688 1575 
L 2106 1575 
z
M 3816 1997 
L 3816 0 
L 2688 0 
L 2688 519 
Q 2463 200 2181 54 
Q 1900 -91 1497 -91 
Q 953 -91 614 226 
Q 275 544 275 1050 
Q 275 1666 698 1953 
Q 1122 2241 2028 2241 
L 2688 2241 
L 2688 2328 
Q 2688 2594 2478 2717 
Q 2269 2841 1825 2841 
Q 1466 2841 1156 2769 
Q 847 2697 581 2553 
L 581 3406 
Q 941 3494 1303 3539 
Q 1666 3584 2028 3584 
Q 2975 3584 3395 3211 
Q 3816 2838 3816 1997 
z
" transform="scale(0.015625)"/>
      <path id="DejaVuSans-Bold-67" d="M 2919 594 
Q 2688 288 2409 144 
Q 2131 0 1766 0 
Q 1125 0 706 504 
Q 288 1009 288 1791 
Q 288 2575 706 3076 
Q 1125 3578 1766 3578 
Q 2131 3578 2409 3434 
Q 2688 3291 2919 2981 
L 2919 3500 
L 4044 3500 
L 4044 353 
Q 4044 -491 3511 -936 
Q 2978 -1381 1966 -1381 
Q 1638 -1381 1331 -1331 
Q 1025 -1281 716 -1178 
L 716 -306 
Q 1009 -475 1290 -558 
Q 1572 -641 1856 -641 
Q 2406 -641 2662 -400 
Q 2919 -159 2919 353 
L 2919 594 
z
M 2181 2772 
Q 1834 2772 1640 2515 
Q 1447 2259 1447 1791 
Q 1447 1309 1634 1061 
Q 1822 813 2181 813 
Q 2531 813 2725 1069 
Q 2919 1325 2919 1791 
Q 2919 2259 2725 2515 
Q 2531 2772 2181 2772 
z
" transform="scale(0.015625)"/>
      <path id="DejaVuSans-Bold-65" d="M 4031 1759 
L 4031 1441 
L 1416 1441 
Q 1456 1047 1700 850 
Q 1944 653 2381 653 
Q 2734 653 3104 758 
Q 3475 863 3866 1075 
L 3866 213 
Q 3469 63 3072 -14 
Q 2675 -91 2278 -91 
Q 1328 -91 801 392 
Q 275 875 275 1747 
Q 275 2603 792 3093 
Q 1309 3584 2216 3584 
Q 3041 3584 3536 3087 
Q 4031 2591 4031 1759 
z
M 2881 2131 
Q 2881 2450 2695 2645 
Q 2509 2841 2209 2841 
Q 1884 2841 1681 2658 
Q 1478 2475 1428 2131 
L 2881 2131 
z
" transform="scale(0.015625)"/>
      <path id="DejaVuSans-Bold-20" transform="scale(0.015625)"/>
      <path id="DejaVuSans-Bold-33" d="M 2981 2516 
Q 3453 2394 3698 2092 
Q 3944 1791 3944 1325 
Q 3944 631 3412 270 
Q 2881 -91 1863 -91 
Q 1503 -91 1142 -33 
Q 781 25 428 141 
L 428 1069 
Q 766 900 1098 814 
Q 1431 728 1753 728 
Q 2231 728 2486 893 
Q 2741 1059 2741 1369 
Q 2741 1688 2480 1852 
Q 2219 2016 1709 2016 
L 1228 2016 
L 1228 2791 
L 1734 2791 
Q 2188 2791 2409 2933 
Q 2631 3075 2631 3366 
Q 2631 3634 2415 3781 
Q 2200 3928 1806 3928 
Q 1516 3928 1219 3862 
Q 922 3797 628 3669 
L 628 4550 
Q 984 4650 1334 4700 
Q 1684 4750 2022 4750 
Q 2931 4750 3382 4451 
Q 3834 4153 3834 3553 
Q 3834 3144 3618 2883 
Q 3403 2622 2981 2516 
z
" transform="scale(0.015625)"/>
      <path id="DejaVuSans-Bold-41" d="M 3419 850 
L 1538 850 
L 1241 0 
L 31 0 
L 1759 4666 
L 3194 4666 
L 4922 0 
L 3713 0 
L 3419 850 
z
M 1838 1716 
L 3116 1716 
L 2478 3572 
L 1838 1716 
z
" transform="scale(0.015625)"/>
     </defs>
     <use xlink:href="#DejaVuSans-Bold-53"/>
     <use xlink:href="#DejaVuSans-Bold-74" transform="translate(72.021484 0)"/>
     <use xlink:href="#DejaVuSans-Bold-61" transform="translate(119.824219 0)"/>
     <use xlink:href="#DejaVuSans-Bold-67" transform="translate(187.304688 0)"/>
     <use xlink:href="#DejaVuSans-Bold-65" transform="translate(258.886719 0)"/>
     <use xlink:href="#DejaVuSans-Bold-20" transform="translate(326.708984 0)"/>
     <use xlink:href="#DejaVuSans-Bold-33" transform="translate(361.523438 0)"/>
     <use xlink:href="#DejaVuSans-Bold-41" transform="translate(431.103516 0)"/>
     <use xlink:href="#DejaVuSans-Bold-20" transform="translate(508.496094 0)"/>
    </g>
    <!--  Solo MP -->
    <g transform="translate(110.062266 27.875875) scale(0.11 -0.11)">
     <defs>
      <path id="DejaVuSans-Bold-6f" d="M 2203 2784 
Q 1831 2784 1636 2517 
Q 1441 2250 1441 1747 
Q 1441 1244 1636 976 
Q 1831 709 2203 709 
Q 2569 709 2762 976 
Q 2956 1244 2956 1747 
Q 2956 2250 2762 2517 
Q 2569 2784 2203 2784 
z
M 2203 3584 
Q 3106 3584 3614 3096 
Q 4122 2609 4122 1747 
Q 4122 884 3614 396 
Q 3106 -91 2203 -91 
Q 1297 -91 786 396 
Q 275 884 275 1747 
Q 275 2609 786 3096 
Q 1297 3584 2203 3584 
z
" transform="scale(0.015625)"/>
      <path id="DejaVuSans-Bold-6c" d="M 538 4863 
L 1656 4863 
L 1656 0 
L 538 0 
L 538 4863 
z
" transform="scale(0.015625)"/>
      <path id="DejaVuSans-Bold-4d" d="M 588 4666 
L 2119 4666 
L 3181 2169 
L 4250 4666 
L 5778 4666 
L 5778 0 
L 4641 0 
L 4641 3413 
L 3566 897 
L 2803 897 
L 1728 3413 
L 1728 0 
L 588 0 
L 588 4666 
z
" transform="scale(0.015625)"/>
      <path id="DejaVuSans-Bold-50" d="M 588 4666 
L 2584 4666 
Q 3475 4666 3951 4270 
Q 4428 3875 4428 3144 
Q 4428 2409 3951 2014 
Q 3475 1619 2584 1619 
L 1791 1619 
L 1791 0 
L 588 0 
L 588 4666 
z
M 1791 3794 
L 1791 2491 
L 2456 2491 
Q 2806 2491 2997 2661 
Q 3188 2831 3188 3144 
Q 3188 3456 2997 3625 
Q 2806 3794 2456 3794 
L 1791 3794 
z
" transform="scale(0.015625)"/>
     </defs>
     <use xlink:href="#DejaVuSans-Bold-20"/>
     <use xlink:href="#DejaVuSans-Bold-53" transform="translate(34.814453 0)"/>
     <use xlink:href="#DejaVuSans-Bold-6f" transform="translate(106.835938 0)"/>
     <use xlink:href="#DejaVuSans-Bold-6c" transform="translate(175.537109 0)"/>
     <use xlink:href="#DejaVuSans-Bold-6f" transform="translate(209.814453 0)"/>
     <use xlink:href="#DejaVuSans-Bold-20" transform="translate(278.515625 0)"/>
     <use xlink:href="#DejaVuSans-Bold-4d" transform="translate(313.330078 0)"/>
     <use xlink:href="#DejaVuSans-Bold-50" transform="translate(412.841797 0)"/>
    </g>
   </g>
  </g>
  <g id="axes_3">
   <g id="patch_6">
    <path d="M 50.4 235.475875 
L 223.2 235.475875 
L 223.2 149.075875 
L 50.4 149.075875 
L 50.4 235.475875 
z
" style="fill: none"/>
   </g>
   <g id="PathCollection_6">
    <g clip-path="url(#p235f74f37b)">
     <use xlink:href="#m94ff44eb8b" x="70.036364" y="153.003148" style="fill: #ffffff; stroke: #f45b69"/>
    </g>
   </g>
   <g id="PathCollection_7">
    <g clip-path="url(#p235f74f37b)">
     <use xlink:href="#m94ff44eb8b" x="81.032727" y="153.003148" style="fill: #ffffff; stroke: #f45b69"/>
    </g>
   </g>
   <g id="PathCollection_8">
    <g clip-path="url(#p235f74f37b)">
     <use xlink:href="#m94ff44eb8b" x="98.312727" y="153.003148" style="fill: #ffffff; stroke: #f45b69"/>
    </g>
   </g>
   <g id="PathCollection_9">
    <g clip-path="url(#p235f74f37b)">
     <use xlink:href="#m94ff44eb8b" x="172.145455" y="153.003148" style="fill: #ffffff; stroke: #f45b69"/>
    </g>
   </g>
   <g id="PathCollection_10">
    <g clip-path="url(#p235f74f37b)">
     <use xlink:href="#m94ff44eb8b" x="178.429091" y="153.003148" style="fill: #ffffff; stroke: #f45b69"/>
    </g>
   </g>
   <g id="PathCollection_11">
    <g clip-path="url(#p235f74f37b)">
     <use xlink:href="#m94ff44eb8b" x="203.563636" y="153.003148" style="fill: #ffffff; stroke: #f45b69"/>
    </g>
   </g>
   <g id="PathCollection_12">
    <g clip-path="url(#p235f74f37b)">
     <use xlink:href="#m5a8f9153a9" x="125.018182" y="231.548602" style="fill: #ffffff; stroke: #2a9df4"/>
    </g>
   </g>
   <g id="PathCollection_13">
    <g clip-path="url(#p235f74f37b)">
     <use xlink:href="#m5a8f9153a9" x="140.727273" y="231.548602" style="fill: #ffffff; stroke: #2a9df4"/>
    </g>
   </g>
   <g id="PathCollection_14">
    <g clip-path="url(#p235f74f37b)">
     <use xlink:href="#m5a8f9153a9" x="159.578182" y="231.548602" style="fill: #ffffff; stroke: #2a9df4"/>
    </g>
   </g>
   <g id="matplotlib.axis_5"/>
   <g id="matplotlib.axis_6"/>
   <g id="line2d_9">
    <path d="M 58.254545 192.275875 
L 215.345455 192.275875 
" clip-path="url(#p235f74f37b)" style="fill: none; stroke: #000000; stroke-width: 5; stroke-linecap: square"/>
   </g>
   <g id="line2d_10">
    <path d="M 66.109091 192.275875 
L 66.109091 156.573396 
" clip-path="url(#p235f74f37b)" style="fill: none; stroke: #f45b69; stroke-width: 5; stroke-linecap: square"/>
   </g>
   <g id="line2d_11">
    <path d="M 77.105455 192.275875 
L 77.105455 156.573396 
" clip-path="url(#p235f74f37b)" style="fill: none; stroke: #f45b69; stroke-width: 5; stroke-linecap: square"/>
   </g>
   <g id="line2d_12">
    <path d="M 94.385455 192.275875 
L 94.385455 156.573396 
" clip-path="url(#p235f74f37b)" style="fill: none; stroke: #f45b69; stroke-width: 5; stroke-linecap: square"/>
   </g>
   <g id="line2d_13">
    <path d="M 168.218182 192.275875 
L 168.218182 156.573396 
" clip-path="url(#p235f74f37b)" style="fill: none; stroke: #f45b69; stroke-width: 5; stroke-linecap: square"/>
   </g>
   <g id="line2d_14">
    <path d="M 174.501818 192.275875 
L 174.501818 156.573396 
" clip-path="url(#p235f74f37b)" style="fill: none; stroke: #f45b69; stroke-width: 5; stroke-linecap: square"/>
   </g>
   <g id="line2d_15">
    <path d="M 199.636364 192.275875 
L 199.636364 156.573396 
" clip-path="url(#p235f74f37b)" style="fill: none; stroke: #f45b69; stroke-width: 5; stroke-linecap: square"/>
   </g>
   <g id="line2d_16">
    <path d="M 121.090909 192.275875 
L 121.090909 227.978354 
" clip-path="url(#p235f74f37b)" style="fill: none; stroke: #2a9df4; stroke-width: 5; stroke-linecap: square"/>
   </g>
   <g id="line2d_17">
    <path d="M 136.8 192.275875 
L 136.8 227.978354 
" clip-path="url(#p235f74f37b)" style="fill: none; stroke: #2a9df4; stroke-width: 5; stroke-linecap: square"/>
   </g>
   <g id="line2d_18">
    <path d="M 155.650909 192.275875 
L 155.650909 227.978354 
" clip-path="url(#p235f74f37b)" style="fill: none; stroke: #2a9df4; stroke-width: 5; stroke-linecap: square"/>
   </g>
   <g id="text_2">
    <!-- Stage 3B  -->
    <g transform="translate(106.983125 130.672344) scale(0.11 -0.11)">
     <defs>
      <path id="DejaVuSans-Bold-42" d="M 2456 2859 
Q 2741 2859 2887 2984 
Q 3034 3109 3034 3353 
Q 3034 3594 2887 3720 
Q 2741 3847 2456 3847 
L 1791 3847 
L 1791 2859 
L 2456 2859 
z
M 2497 819 
Q 2859 819 3042 972 
Q 3225 1125 3225 1434 
Q 3225 1738 3044 1889 
Q 2863 2041 2497 2041 
L 1791 2041 
L 1791 819 
L 2497 819 
z
M 3616 2497 
Q 4003 2384 4215 2081 
Q 4428 1778 4428 1338 
Q 4428 663 3972 331 
Q 3516 0 2584 0 
L 588 0 
L 588 4666 
L 2394 4666 
Q 3366 4666 3802 4372 
Q 4238 4078 4238 3431 
Q 4238 3091 4078 2852 
Q 3919 2613 3616 2497 
z
" transform="scale(0.015625)"/>
     </defs>
     <use xlink:href="#DejaVuSans-Bold-53"/>
     <use xlink:href="#DejaVuSans-Bold-74" transform="translate(72.021484 0)"/>
     <use xlink:href="#DejaVuSans-Bold-61" transform="translate(119.824219 0)"/>
     <use xlink:href="#DejaVuSans-Bold-67" transform="translate(187.304688 0)"/>
     <use xlink:href="#DejaVuSans-Bold-65" transform="translate(258.886719 0)"/>
     <use xlink:href="#DejaVuSans-Bold-20" transform="translate(326.708984 0)"/>
     <use xlink:href="#DejaVuSans-Bold-33" transform="translate(361.523438 0)"/>
     <use xlink:href="#DejaVuSans-Bold-42" transform="translate(431.103516 0)"/>
     <use xlink:href="#DejaVuSans-Bold-20" transform="translate(507.324219 0)"/>
    </g>
    <!--  Two armed bandit -->
    <g transform="translate(79.211563 143.075875) scale(0.11 -0.11)">
     <defs>
      <path id="DejaVuSans-Bold-54" d="M 31 4666 
L 4331 4666 
L 4331 3756 
L 2784 3756 
L 2784 0 
L 1581 0 
L 1581 3756 
L 31 3756 
L 31 4666 
z
" transform="scale(0.015625)"/>
      <path id="DejaVuSans-Bold-77" d="M 225 3500 
L 1313 3500 
L 1900 1088 
L 2491 3500 
L 3425 3500 
L 4013 1113 
L 4603 3500 
L 5691 3500 
L 4769 0 
L 3547 0 
L 2956 2406 
L 2369 0 
L 1147 0 
L 225 3500 
z
" transform="scale(0.015625)"/>
      <path id="DejaVuSans-Bold-72" d="M 3138 2547 
Q 2991 2616 2845 2648 
Q 2700 2681 2553 2681 
Q 2122 2681 1889 2404 
Q 1656 2128 1656 1613 
L 1656 0 
L 538 0 
L 538 3500 
L 1656 3500 
L 1656 2925 
Q 1872 3269 2151 3426 
Q 2431 3584 2822 3584 
Q 2878 3584 2943 3579 
Q 3009 3575 3134 3559 
L 3138 2547 
z
" transform="scale(0.015625)"/>
      <path id="DejaVuSans-Bold-6d" d="M 3781 2919 
Q 3994 3244 4286 3414 
Q 4578 3584 4928 3584 
Q 5531 3584 5847 3212 
Q 6163 2841 6163 2131 
L 6163 0 
L 5038 0 
L 5038 1825 
Q 5041 1866 5042 1909 
Q 5044 1953 5044 2034 
Q 5044 2406 4934 2573 
Q 4825 2741 4581 2741 
Q 4263 2741 4089 2478 
Q 3916 2216 3909 1719 
L 3909 0 
L 2784 0 
L 2784 1825 
Q 2784 2406 2684 2573 
Q 2584 2741 2328 2741 
Q 2006 2741 1831 2477 
Q 1656 2213 1656 1722 
L 1656 0 
L 531 0 
L 531 3500 
L 1656 3500 
L 1656 2988 
Q 1863 3284 2130 3434 
Q 2397 3584 2719 3584 
Q 3081 3584 3359 3409 
Q 3638 3234 3781 2919 
z
" transform="scale(0.015625)"/>
      <path id="DejaVuSans-Bold-64" d="M 2919 2988 
L 2919 4863 
L 4044 4863 
L 4044 0 
L 2919 0 
L 2919 506 
Q 2688 197 2409 53 
Q 2131 -91 1766 -91 
Q 1119 -91 703 423 
Q 288 938 288 1747 
Q 288 2556 703 3070 
Q 1119 3584 1766 3584 
Q 2128 3584 2408 3439 
Q 2688 3294 2919 2988 
z
M 2181 722 
Q 2541 722 2730 984 
Q 2919 1247 2919 1747 
Q 2919 2247 2730 2509 
Q 2541 2772 2181 2772 
Q 1825 2772 1636 2509 
Q 1447 2247 1447 1747 
Q 1447 1247 1636 984 
Q 1825 722 2181 722 
z
" transform="scale(0.015625)"/>
      <path id="DejaVuSans-Bold-62" d="M 2400 722 
Q 2759 722 2948 984 
Q 3138 1247 3138 1747 
Q 3138 2247 2948 2509 
Q 2759 2772 2400 2772 
Q 2041 2772 1848 2508 
Q 1656 2244 1656 1747 
Q 1656 1250 1848 986 
Q 2041 722 2400 722 
z
M 1656 2988 
Q 1888 3294 2169 3439 
Q 2450 3584 2816 3584 
Q 3463 3584 3878 3070 
Q 4294 2556 4294 1747 
Q 4294 938 3878 423 
Q 3463 -91 2816 -91 
Q 2450 -91 2169 54 
Q 1888 200 1656 506 
L 1656 0 
L 538 0 
L 538 4863 
L 1656 4863 
L 1656 2988 
z
" transform="scale(0.015625)"/>
      <path id="DejaVuSans-Bold-6e" d="M 4056 2131 
L 4056 0 
L 2931 0 
L 2931 347 
L 2931 1631 
Q 2931 2084 2911 2256 
Q 2891 2428 2841 2509 
Q 2775 2619 2662 2680 
Q 2550 2741 2406 2741 
Q 2056 2741 1856 2470 
Q 1656 2200 1656 1722 
L 1656 0 
L 538 0 
L 538 3500 
L 1656 3500 
L 1656 2988 
Q 1909 3294 2193 3439 
Q 2478 3584 2822 3584 
Q 3428 3584 3742 3212 
Q 4056 2841 4056 2131 
z
" transform="scale(0.015625)"/>
      <path id="DejaVuSans-Bold-69" d="M 538 3500 
L 1656 3500 
L 1656 0 
L 538 0 
L 538 3500 
z
M 538 4863 
L 1656 4863 
L 1656 3950 
L 538 3950 
L 538 4863 
z
" transform="scale(0.015625)"/>
     </defs>
     <use xlink:href="#DejaVuSans-Bold-20"/>
     <use xlink:href="#DejaVuSans-Bold-54" transform="translate(34.814453 0)"/>
     <use xlink:href="#DejaVuSans-Bold-77" transform="translate(92.027344 0)"/>
     <use xlink:href="#DejaVuSans-Bold-6f" transform="translate(184.410156 0)"/>
     <use xlink:href="#DejaVuSans-Bold-20" transform="translate(253.111328 0)"/>
     <use xlink:href="#DejaVuSans-Bold-61" transform="translate(287.925781 0)"/>
     <use xlink:href="#DejaVuSans-Bold-72" transform="translate(355.40625 0)"/>
     <use xlink:href="#DejaVuSans-Bold-6d" transform="translate(404.722656 0)"/>
     <use xlink:href="#DejaVuSans-Bold-65" transform="translate(508.921875 0)"/>
     <use xlink:href="#DejaVuSans-Bold-64" transform="translate(576.744141 0)"/>
     <use xlink:href="#DejaVuSans-Bold-20" transform="translate(648.326172 0)"/>
     <use xlink:href="#DejaVuSans-Bold-62" transform="translate(683.140625 0)"/>
     <use xlink:href="#DejaVuSans-Bold-61" transform="translate(754.722656 0)"/>
     <use xlink:href="#DejaVuSans-Bold-6e" transform="translate(822.203125 0)"/>
     <use xlink:href="#DejaVuSans-Bold-64" transform="translate(893.394531 0)"/>
     <use xlink:href="#DejaVuSans-Bold-69" transform="translate(964.976562 0)"/>
     <use xlink:href="#DejaVuSans-Bold-74" transform="translate(999.253906 0)"/>
    </g>
   </g>
  </g>
  <g id="axes_4">
   <g id="patch_7">
    <path d="M 280.8 163.475875 
L 453.6 163.475875 
L 453.6 77.075875 
L 280.8 77.075875 
L 280.8 163.475875 
z
" style="fill: none"/>
   </g>
   <g id="PathCollection_15">
    <g clip-path="url(#pfbf525a35b)">
     <use xlink:href="#m94ff44eb8b" x="302.4" y="87.875875" style="fill: #ffffff; stroke: #f45b69"/>
    </g>
   </g>
   <g id="PathCollection_16">
    <g clip-path="url(#pfbf525a35b)">
     <use xlink:href="#m94ff44eb8b" x="383.616" y="87.875875" style="fill: #ffffff; stroke: #f45b69"/>
    </g>
   </g>
   <g id="PathCollection_17">
    <g clip-path="url(#pfbf525a35b)">
     <use xlink:href="#m5a8f9153a9" x="359.424" y="116.675875" style="fill: #ffffff; stroke: #2a9df4"/>
    </g>
   </g>
   <g id="PathCollection_18">
    <g clip-path="url(#pfbf525a35b)">
     <use xlink:href="#m5a8f9153a9" x="421.632" y="116.675875" style="fill: #ffffff; stroke: #2a9df4"/>
    </g>
   </g>
   <g id="PathCollection_19">
    <g clip-path="url(#pfbf525a35b)">
     <use xlink:href="#m5a8f9153a9" x="324.864" y="152.675875" style="fill: #ffffff; stroke: #2a9df4"/>
    </g>
   </g>
   <g id="PathCollection_20">
    <g clip-path="url(#pfbf525a35b)">
     <use xlink:href="#m94ff44eb8b" x="399.168" y="123.875875" style="fill: #ffffff; stroke: #f45b69"/>
    </g>
   </g>
   <g id="matplotlib.axis_7"/>
   <g id="matplotlib.axis_8"/>
   <g id="line2d_19">
    <path d="M 280.8 102.275875 
L 453.6 102.275875 
" clip-path="url(#pfbf525a35b)" style="fill: none; stroke: #000000; stroke-width: 5; stroke-linecap: square"/>
   </g>
   <g id="line2d_20">
    <path d="M 298.08 102.275875 
L 298.08 91.475875 
" clip-path="url(#pfbf525a35b)" style="fill: none; stroke: #f45b69; stroke-width: 5; stroke-linecap: square"/>
   </g>
   <g id="line2d_21">
    <path d="M 320.544 102.275875 
L 320.544 91.475875 
" clip-path="url(#pfbf525a35b)" style="fill: none; stroke: #f45b69; stroke-width: 5; stroke-linecap: square"/>
   </g>
   <g id="line2d_22">
    <path d="M 355.104 102.275875 
L 355.104 113.075875 
" clip-path="url(#pfbf525a35b)" style="fill: none; stroke: #2a9df4; stroke-width: 5; stroke-linecap: square"/>
   </g>
   <g id="line2d_23">
    <path d="M 379.296 102.275875 
L 379.296 91.475875 
" clip-path="url(#pfbf525a35b)" style="fill: none; stroke: #f45b69; stroke-width: 5; stroke-linecap: square"/>
   </g>
   <g id="line2d_24">
    <path d="M 394.848 102.275875 
L 394.848 113.075875 
" clip-path="url(#pfbf525a35b)" style="fill: none; stroke: #2a9df4; stroke-width: 5; stroke-linecap: square"/>
   </g>
   <g id="line2d_25">
    <path d="M 417.312 102.275875 
L 417.312 113.075875 
" clip-path="url(#pfbf525a35b)" style="fill: none; stroke: #2a9df4; stroke-width: 5; stroke-linecap: square"/>
   </g>
   <g id="line2d_26">
    <path d="M 280.8 138.275875 
L 453.6 138.275875 
" clip-path="url(#pfbf525a35b)" style="fill: none; stroke: #000000; stroke-width: 5; stroke-linecap: square"/>
   </g>
   <g id="line2d_27">
    <path d="M 298.08 138.275875 
L 298.08 127.475875 
" clip-path="url(#pfbf525a35b)" style="fill: none; stroke: #f45b69; stroke-width: 5; stroke-linecap: square"/>
   </g>
   <g id="line2d_28">
    <path d="M 320.544 138.275875 
L 320.544 149.075875 
" clip-path="url(#pfbf525a35b)" style="fill: none; stroke: #2a9df4; stroke-width: 5; stroke-linecap: square"/>
   </g>
   <g id="line2d_29">
    <path d="M 355.104 138.275875 
L 355.104 149.075875 
" clip-path="url(#pfbf525a35b)" style="fill: none; stroke: #2a9df4; stroke-width: 5; stroke-linecap: square"/>
   </g>
   <g id="line2d_30">
    <path d="M 379.296 138.275875 
L 379.296 127.475875 
" clip-path="url(#pfbf525a35b)" style="fill: none; stroke: #f45b69; stroke-width: 5; stroke-linecap: square"/>
   </g>
   <g id="line2d_31">
    <path d="M 394.848 138.275875 
L 394.848 127.475875 
" clip-path="url(#pfbf525a35b)" style="fill: none; stroke: #f45b69; stroke-width: 5; stroke-linecap: square"/>
   </g>
   <g id="line2d_32">
    <path d="M 417.312 138.275875 
L 417.312 149.075875 
" clip-path="url(#pfbf525a35b)" style="fill: none; stroke: #2a9df4; stroke-width: 5; stroke-linecap: square"/>
   </g>
   <g id="text_3">
    <!-- Stage 4  -->
    <g transform="translate(341.575156 58.672344) scale(0.11 -0.11)">
     <defs>
      <path id="DejaVuSans-Bold-34" d="M 2356 3675 
L 1038 1722 
L 2356 1722 
L 2356 3675 
z
M 2156 4666 
L 3494 4666 
L 3494 1722 
L 4159 1722 
L 4159 850 
L 3494 850 
L 3494 0 
L 2356 0 
L 2356 850 
L 288 850 
L 288 1881 
L 2156 4666 
z
" transform="scale(0.015625)"/>
     </defs>
     <use xlink:href="#DejaVuSans-Bold-53"/>
     <use xlink:href="#DejaVuSans-Bold-74" transform="translate(72.021484 0)"/>
     <use xlink:href="#DejaVuSans-Bold-61" transform="translate(119.824219 0)"/>
     <use xlink:href="#DejaVuSans-Bold-67" transform="translate(187.304688 0)"/>
     <use xlink:href="#DejaVuSans-Bold-65" transform="translate(258.886719 0)"/>
     <use xlink:href="#DejaVuSans-Bold-20" transform="translate(326.708984 0)"/>
     <use xlink:href="#DejaVuSans-Bold-34" transform="translate(361.523438 0)"/>
     <use xlink:href="#DejaVuSans-Bold-20" transform="translate(431.103516 0)"/>
    </g>
    <!--  Multiplayer MP -->
    <g transform="translate(318.687422 71.075875) scale(0.11 -0.11)">
     <defs>
      <path id="DejaVuSans-Bold-75" d="M 500 1363 
L 500 3500 
L 1625 3500 
L 1625 3150 
Q 1625 2866 1622 2436 
Q 1619 2006 1619 1863 
Q 1619 1441 1641 1255 
Q 1663 1069 1716 984 
Q 1784 875 1895 815 
Q 2006 756 2150 756 
Q 2500 756 2700 1025 
Q 2900 1294 2900 1772 
L 2900 3500 
L 4019 3500 
L 4019 0 
L 2900 0 
L 2900 506 
Q 2647 200 2364 54 
Q 2081 -91 1741 -91 
Q 1134 -91 817 281 
Q 500 653 500 1363 
z
" transform="scale(0.015625)"/>
      <path id="DejaVuSans-Bold-70" d="M 1656 506 
L 1656 -1331 
L 538 -1331 
L 538 3500 
L 1656 3500 
L 1656 2988 
Q 1888 3294 2169 3439 
Q 2450 3584 2816 3584 
Q 3463 3584 3878 3070 
Q 4294 2556 4294 1747 
Q 4294 938 3878 423 
Q 3463 -91 2816 -91 
Q 2450 -91 2169 54 
Q 1888 200 1656 506 
z
M 2400 2772 
Q 2041 2772 1848 2508 
Q 1656 2244 1656 1747 
Q 1656 1250 1848 986 
Q 2041 722 2400 722 
Q 2759 722 2948 984 
Q 3138 1247 3138 1747 
Q 3138 2247 2948 2509 
Q 2759 2772 2400 2772 
z
" transform="scale(0.015625)"/>
      <path id="DejaVuSans-Bold-79" d="M 78 3500 
L 1197 3500 
L 2138 1125 
L 2938 3500 
L 4056 3500 
L 2584 -331 
Q 2363 -916 2067 -1148 
Q 1772 -1381 1288 -1381 
L 641 -1381 
L 641 -647 
L 991 -647 
Q 1275 -647 1404 -556 
Q 1534 -466 1606 -231 
L 1638 -134 
L 78 3500 
z
" transform="scale(0.015625)"/>
     </defs>
     <use xlink:href="#DejaVuSans-Bold-20"/>
     <use xlink:href="#DejaVuSans-Bold-4d" transform="translate(34.814453 0)"/>
     <use xlink:href="#DejaVuSans-Bold-75" transform="translate(134.326172 0)"/>
     <use xlink:href="#DejaVuSans-Bold-6c" transform="translate(205.517578 0)"/>
     <use xlink:href="#DejaVuSans-Bold-74" transform="translate(239.794922 0)"/>
     <use xlink:href="#DejaVuSans-Bold-69" transform="translate(287.597656 0)"/>
     <use xlink:href="#DejaVuSans-Bold-70" transform="translate(321.875 0)"/>
     <use xlink:href="#DejaVuSans-Bold-6c" transform="translate(393.457031 0)"/>
     <use xlink:href="#DejaVuSans-Bold-61" transform="translate(427.734375 0)"/>
     <use xlink:href="#DejaVuSans-Bold-79" transform="translate(492.089844 0)"/>
     <use xlink:href="#DejaVuSans-Bold-65" transform="translate(557.275391 0)"/>
     <use xlink:href="#DejaVuSans-Bold-72" transform="translate(625.097656 0)"/>
     <use xlink:href="#DejaVuSans-Bold-20" transform="translate(674.414062 0)"/>
     <use xlink:href="#DejaVuSans-Bold-4d" transform="translate(709.228516 0)"/>
     <use xlink:href="#DejaVuSans-Bold-50" transform="translate(808.740234 0)"/>
    </g>
   </g>
  </g>
 </g>
 <defs>
  <clipPath id="p95177f61bf">
   <rect x="50.4" y="33.875875" width="172.8" height="86.4"/>
  </clipPath>
  <clipPath id="p235f74f37b">
   <rect x="50.4" y="149.075875" width="172.8" height="86.4"/>
  </clipPath>
  <clipPath id="pfbf525a35b">
   <rect x="280.8" y="77.075875" width="172.8" height="86.4"/>
  </clipPath>
 </defs>
</svg>
