<?xml version="1.0" encoding="utf-8" standalone="no"?>
<!DOCTYPE svg PUBLIC "-//W3C//DTD SVG 1.1//EN"
  "http://www.w3.org/Graphics/SVG/1.1/DTD/svg11.dtd">
<svg xmlns:xlink="http://www.w3.org/1999/xlink" width="394.679687pt" height="230.000233pt" viewBox="0 0 394.679687 230.000233" xmlns="http://www.w3.org/2000/svg" version="1.1">
 <metadata>
  <rdf:RDF xmlns:dc="http://purl.org/dc/elements/1.1/" xmlns:cc="http://creativecommons.org/ns#" xmlns:rdf="http://www.w3.org/1999/02/22-rdf-syntax-ns#">
   <cc:Work>
    <dc:type rdf:resource="http://purl.org/dc/dcmitype/StillImage"/>
    <dc:date>2025-10-11T13:42:44.246518</dc:date>
    <dc:format>image/svg+xml</dc:format>
    <dc:creator>
     <cc:Agent>
      <dc:title>Matplotlib v3.10.6, https://matplotlib.org/</dc:title>
     </cc:Agent>
    </dc:creator>
   </cc:Work>
  </rdf:RDF>
 </metadata>
 <defs>
  <style type="text/css">*{stroke-linejoin: round; stroke-linecap: butt}</style>
 </defs>
 <g id="figure_1">
  <g id="patch_1">
   <path d="M 0 230.000233 
L 394.679687 230.000233 
L 394.679687 0 
L 0 0 
L 0 230.000233 
z
" style="fill: none"/>
  </g>
  <g id="axes_1">
   <g id="patch_2">
    <path d="M 52.679688 184.790545 
L 387.479688 184.790545 
L 387.479688 18.470545 
L 52.679688 18.470545 
L 52.679688 184.790545 
z
" style="fill: none"/>
   </g>
   <g id="PathCollection_1">
    <defs>
     <path id="mb264af4376" d="M 0 3.5 
C 0.928211 3.5 1.81853 3.131218 2.474874 2.474874 
C 3.131218 1.81853 3.5 0.928211 3.5 0 
C 3.5 -0.928211 3.131218 -1.81853 2.474874 -2.474874 
C 1.81853 -3.131218 0.928211 -3.5 0 -3.5 
C -0.928211 -3.5 -1.81853 -3.131218 -2.474874 -2.474874 
C -3.131218 -1.81853 -3.5 -0.928211 -3.5 0 
C -3.5 0.928211 -3.131218 1.81853 -2.474874 2.474874 
C -1.81853 3.131218 -0.928211 3.5 0 3.5 
z
"/>
    </defs>
    <g clip-path="url(#p6483a9a275)">
     <use xlink:href="#mb264af4376" x="67.897869" y="161.635631" style="fill: #e64b35"/>
     <use xlink:href="#mb264af4376" x="78.043324" y="99.001554" style="fill: #e64b35"/>
     <use xlink:href="#mb264af4376" x="88.188778" y="93.592804" style="fill: #e64b35"/>
     <use xlink:href="#mb264af4376" x="98.334233" y="44.376949" style="fill: #e64b35"/>
     <use xlink:href="#mb264af4376" x="108.479688" y="128.005268" style="fill: #e64b35"/>
     <use xlink:href="#mb264af4376" x="118.625142" y="112.966305" style="fill: #e64b35"/>
     <use xlink:href="#mb264af4376" x="128.770597" y="108.989837" style="fill: #e64b35"/>
     <use xlink:href="#mb264af4376" x="138.916051" y="111.317296" style="fill: #e64b35"/>
     <use xlink:href="#mb264af4376" x="149.061506" y="106.907374" style="fill: #e64b35"/>
     <use xlink:href="#mb264af4376" x="159.20696" y="85.941401" style="fill: #e64b35"/>
     <use xlink:href="#mb264af4376" x="169.352415" y="104.551647" style="fill: #e64b35"/>
     <use xlink:href="#mb264af4376" x="179.497869" y="75.491395" style="fill: #e64b35"/>
     <use xlink:href="#mb264af4376" x="189.643324" y="119.581187" style="fill: #e64b35"/>
     <use xlink:href="#mb264af4376" x="199.788778" y="87.279455" style="fill: #e64b35"/>
     <use xlink:href="#mb264af4376" x="209.934233" y="64.070829" style="fill: #e64b35"/>
     <use xlink:href="#mb264af4376" x="220.079688" y="81.135718" style="fill: #e64b35"/>
     <use xlink:href="#mb264af4376" x="230.225142" y="66.897702" style="fill: #e64b35"/>
     <use xlink:href="#mb264af4376" x="240.370597" y="26.030545" style="fill: #e64b35"/>
     <use xlink:href="#mb264af4376" x="250.516051" y="102.808409" style="fill: #e64b35"/>
     <use xlink:href="#mb264af4376" x="260.661506" y="85.931979" style="fill: #e64b35"/>
     <use xlink:href="#mb264af4376" x="270.80696" y="92.735319" style="fill: #e64b35"/>
     <use xlink:href="#mb264af4376" x="280.952415" y="112.589389" style="fill: #e64b35"/>
     <use xlink:href="#mb264af4376" x="291.097869" y="139.331605" style="fill: #e64b35"/>
     <use xlink:href="#mb264af4376" x="301.243324" y="151.807536" style="fill: #e64b35"/>
     <use xlink:href="#mb264af4376" x="311.388778" y="153.107898" style="fill: #e64b35"/>
     <use xlink:href="#mb264af4376" x="321.534233" y="164.057318" style="fill: #e64b35"/>
     <use xlink:href="#mb264af4376" x="331.679688" y="166.658041" style="fill: #e64b35"/>
     <use xlink:href="#mb264af4376" x="341.825142" y="160.740454" style="fill: #e64b35"/>
     <use xlink:href="#mb264af4376" x="351.970597" y="150.16795" style="fill: #e64b35"/>
     <use xlink:href="#mb264af4376" x="362.116051" y="160.712185" style="fill: #e64b35"/>
     <use xlink:href="#mb264af4376" x="372.261506" y="154.332876" style="fill: #e64b35"/>
    </g>
   </g>
   <g id="PathCollection_2">
    <defs>
     <path id="m1ebeb65e13" d="M 0 3.5 
C 0.928211 3.5 1.81853 3.131218 2.474874 2.474874 
C 3.131218 1.81853 3.5 0.928211 3.5 0 
C 3.5 -0.928211 3.131218 -1.81853 2.474874 -2.474874 
C 1.81853 -3.131218 0.928211 -3.5 0 -3.5 
C -0.928211 -3.5 -1.81853 -3.131218 -2.474874 -2.474874 
C -3.131218 -1.81853 -3.5 -0.928211 -3.5 0 
C -3.5 0.928211 -3.131218 1.81853 -2.474874 2.474874 
C -1.81853 3.131218 -0.928211 3.5 0 3.5 
z
"/>
    </defs>
    <g clip-path="url(#p6483a9a275)">
     <use xlink:href="#m1ebeb65e13" x="67.897869" y="149.979492" style="fill: #4dbbd5"/>
     <use xlink:href="#m1ebeb65e13" x="78.043324" y="154.690947" style="fill: #4dbbd5"/>
     <use xlink:href="#m1ebeb65e13" x="88.188778" y="143.929984" style="fill: #4dbbd5"/>
     <use xlink:href="#m1ebeb65e13" x="98.334233" y="160.005467" style="fill: #4dbbd5"/>
     <use xlink:href="#m1ebeb65e13" x="108.479688" y="135.43052" style="fill: #4dbbd5"/>
     <use xlink:href="#m1ebeb65e13" x="118.625142" y="144.646125" style="fill: #4dbbd5"/>
     <use xlink:href="#m1ebeb65e13" x="128.770597" y="137.164336" style="fill: #4dbbd5"/>
     <use xlink:href="#m1ebeb65e13" x="138.916051" y="133.988815" style="fill: #4dbbd5"/>
     <use xlink:href="#m1ebeb65e13" x="149.061506" y="77.046175" style="fill: #4dbbd5"/>
     <use xlink:href="#m1ebeb65e13" x="159.20696" y="58.643234" style="fill: #4dbbd5"/>
     <use xlink:href="#m1ebeb65e13" x="169.352415" y="71.053205" style="fill: #4dbbd5"/>
     <use xlink:href="#m1ebeb65e13" x="179.497869" y="94.667015" style="fill: #4dbbd5"/>
     <use xlink:href="#m1ebeb65e13" x="189.643324" y="74.426607" style="fill: #4dbbd5"/>
     <use xlink:href="#m1ebeb65e13" x="199.788778" y="79.741127" style="fill: #4dbbd5"/>
     <use xlink:href="#m1ebeb65e13" x="209.934233" y="85.055648" style="fill: #4dbbd5"/>
     <use xlink:href="#m1ebeb65e13" x="220.079688" y="50.511263" style="fill: #4dbbd5"/>
     <use xlink:href="#m1ebeb65e13" x="230.225142" y="109.253679" style="fill: #4dbbd5"/>
     <use xlink:href="#m1ebeb65e13" x="240.370597" y="135.94878" style="fill: #4dbbd5"/>
     <use xlink:href="#m1ebeb65e13" x="250.516051" y="146.304557" style="fill: #4dbbd5"/>
     <use xlink:href="#m1ebeb65e13" x="260.661506" y="162.172736" style="fill: #4dbbd5"/>
     <use xlink:href="#m1ebeb65e13" x="270.80696" y="173.857144" style="fill: #4dbbd5"/>
     <use xlink:href="#m1ebeb65e13" x="280.952415" y="172.980813" style="fill: #4dbbd5"/>
     <use xlink:href="#m1ebeb65e13" x="291.097869" y="177.230545" style="fill: #4dbbd5"/>
     <use xlink:href="#m1ebeb65e13" x="301.243324" y="167.091495" style="fill: #4dbbd5"/>
     <use xlink:href="#m1ebeb65e13" x="311.388778" y="169.484914" style="fill: #4dbbd5"/>
     <use xlink:href="#m1ebeb65e13" x="321.534233" y="173.800606" style="fill: #4dbbd5"/>
     <use xlink:href="#m1ebeb65e13" x="331.679688" y="169.927791" style="fill: #4dbbd5"/>
     <use xlink:href="#m1ebeb65e13" x="341.825142" y="172.255249" style="fill: #4dbbd5"/>
     <use xlink:href="#m1ebeb65e13" x="351.970597" y="176.062104" style="fill: #4dbbd5"/>
    </g>
   </g>
   <g id="PathCollection_3">
    <defs>
     <path id="mbdd8f5b62f" d="M 0 3.5 
C 0.928211 3.5 1.81853 3.131218 2.474874 2.474874 
C 3.131218 1.81853 3.5 0.928211 3.5 0 
C 3.5 -0.928211 3.131218 -1.81853 2.474874 -2.474874 
C 1.81853 -3.131218 0.928211 -3.5 0 -3.5 
C -0.928211 -3.5 -1.81853 -3.131218 -2.474874 -2.474874 
C -3.131218 -1.81853 -3.5 -0.928211 -3.5 0 
C -3.5 0.928211 -3.131218 1.81853 -2.474874 2.474874 
C -1.81853 3.131218 -0.928211 3.5 0 3.5 
z
"/>
    </defs>
    <g clip-path="url(#p6483a9a275)">
     <use xlink:href="#mbdd8f5b62f" x="67.897869" y="163.652133" style="fill: #00a087"/>
     <use xlink:href="#mbdd8f5b62f" x="78.043324" y="164.377697" style="fill: #00a087"/>
     <use xlink:href="#mbdd8f5b62f" x="88.188778" y="168.957231" style="fill: #00a087"/>
     <use xlink:href="#mbdd8f5b62f" x="98.334233" y="164.764036" style="fill: #00a087"/>
     <use xlink:href="#mbdd8f5b62f" x="108.479688" y="171.369496" style="fill: #00a087"/>
     <use xlink:href="#mbdd8f5b62f" x="118.625142" y="168.976077" style="fill: #00a087"/>
     <use xlink:href="#mbdd8f5b62f" x="128.770597" y="170.031443" style="fill: #00a087"/>
     <use xlink:href="#mbdd8f5b62f" x="138.916051" y="165.414217" style="fill: #00a087"/>
     <use xlink:href="#mbdd8f5b62f" x="149.061506" y="163.812323" style="fill: #00a087"/>
     <use xlink:href="#mbdd8f5b62f" x="159.20696" y="143.835755" style="fill: #00a087"/>
     <use xlink:href="#mbdd8f5b62f" x="169.352415" y="140.236204" style="fill: #00a087"/>
     <use xlink:href="#mbdd8f5b62f" x="179.497869" y="133.508247" style="fill: #00a087"/>
     <use xlink:href="#mbdd8f5b62f" x="189.643324" y="133.819203" style="fill: #00a087"/>
     <use xlink:href="#mbdd8f5b62f" x="199.788778" y="123.256122" style="fill: #00a087"/>
    </g>
   </g>
   <g id="PathCollection_4">
    <defs>
     <path id="md8efd76276" d="M 0 3.5 
C 0.928211 3.5 1.81853 3.131218 2.474874 2.474874 
C 3.131218 1.81853 3.5 0.928211 3.5 0 
C 3.5 -0.928211 3.131218 -1.81853 2.474874 -2.474874 
C 1.81853 -3.131218 0.928211 -3.5 0 -3.5 
C -0.928211 -3.5 -1.81853 -3.131218 -2.474874 -2.474874 
C -3.131218 -1.81853 -3.5 -0.928211 -3.5 0 
C -3.5 0.928211 -3.131218 1.81853 -2.474874 2.474874 
C -1.81853 3.131218 -0.928211 3.5 0 3.5 
z
"/>
    </defs>
    <g clip-path="url(#p6483a9a275)">
     <use xlink:href="#md8efd76276" x="67.897869" y="158.026656" style="fill: #3c5488"/>
     <use xlink:href="#md8efd76276" x="78.043324" y="158.827604" style="fill: #3c5488"/>
     <use xlink:href="#md8efd76276" x="88.188778" y="164.236353" style="fill: #3c5488"/>
     <use xlink:href="#md8efd76276" x="98.334233" y="160.080851" style="fill: #3c5488"/>
     <use xlink:href="#md8efd76276" x="108.479688" y="156.632066" style="fill: #3c5488"/>
     <use xlink:href="#md8efd76276" x="118.625142" y="163.831168" style="fill: #3c5488"/>
     <use xlink:href="#md8efd76276" x="128.770597" y="147.981835" style="fill: #3c5488"/>
     <use xlink:href="#md8efd76276" x="138.916051" y="164.32116" style="fill: #3c5488"/>
     <use xlink:href="#md8efd76276" x="149.061506" y="163.28464" style="fill: #3c5488"/>
     <use xlink:href="#md8efd76276" x="159.20696" y="157.376476" style="fill: #3c5488"/>
     <use xlink:href="#md8efd76276" x="169.352415" y="138.31393" style="fill: #3c5488"/>
     <use xlink:href="#md8efd76276" x="179.497869" y="126.233761" style="fill: #3c5488"/>
     <use xlink:href="#md8efd76276" x="189.643324" y="139.105455" style="fill: #3c5488"/>
     <use xlink:href="#md8efd76276" x="199.788778" y="148.217408" style="fill: #3c5488"/>
     <use xlink:href="#md8efd76276" x="209.934233" y="136.62723" style="fill: #3c5488"/>
     <use xlink:href="#md8efd76276" x="220.079688" y="132.490573" style="fill: #3c5488"/>
    </g>
   </g>
   <g id="matplotlib.axis_1">
    <g id="xtick_1">
     <g id="line2d_1">
      <defs>
       <path id="m610a7a726c" d="M 0 0 
L 0 8.25 
" style="stroke: #000000; stroke-width: 1.4"/>
      </defs>
      <g>
       <use xlink:href="#m610a7a726c" x="67.897869" y="184.790545" style="stroke: #000000; stroke-width: 1.4"/>
      </g>
     </g>
     <g id="text_1">
      <!-- 1 -->
      <g transform="translate(64.080369 205.65867) scale(0.12 -0.12)">
       <defs>
        <path id="DejaVuSans-31" d="M 794 531 
L 1825 531 
L 1825 4091 
L 703 3866 
L 703 4441 
L 1819 4666 
L 2450 4666 
L 2450 531 
L 3481 531 
L 3481 0 
L 794 0 
L 794 531 
z
" transform="scale(0.015625)"/>
       </defs>
       <use xlink:href="#DejaVuSans-31"/>
      </g>
     </g>
    </g>
    <g id="xtick_2">
     <g id="line2d_2">
      <g>
       <use xlink:href="#m610a7a726c" x="108.479688" y="184.790545" style="stroke: #000000; stroke-width: 1.4"/>
      </g>
     </g>
     <g id="text_2">
      <!-- 5 -->
      <g transform="translate(104.662188 205.65867) scale(0.12 -0.12)">
       <defs>
        <path id="DejaVuSans-35" d="M 691 4666 
L 3169 4666 
L 3169 4134 
L 1269 4134 
L 1269 2991 
Q 1406 3038 1543 3061 
Q 1681 3084 1819 3084 
Q 2600 3084 3056 2656 
Q 3513 2228 3513 1497 
Q 3513 744 3044 326 
Q 2575 -91 1722 -91 
Q 1428 -91 1123 -41 
Q 819 9 494 109 
L 494 744 
Q 775 591 1075 516 
Q 1375 441 1709 441 
Q 2250 441 2565 725 
Q 2881 1009 2881 1497 
Q 2881 1984 2565 2268 
Q 2250 2553 1709 2553 
Q 1456 2553 1204 2497 
Q 953 2441 691 2322 
L 691 4666 
z
" transform="scale(0.015625)"/>
       </defs>
       <use xlink:href="#DejaVuSans-35"/>
      </g>
     </g>
    </g>
    <g id="xtick_3">
     <g id="line2d_3">
      <g>
       <use xlink:href="#m610a7a726c" x="159.20696" y="184.790545" style="stroke: #000000; stroke-width: 1.4"/>
      </g>
     </g>
     <g id="text_3">
      <!-- 10 -->
      <g transform="translate(151.57196 205.65867) scale(0.12 -0.12)">
       <defs>
        <path id="DejaVuSans-30" d="M 2034 4250 
Q 1547 4250 1301 3770 
Q 1056 3291 1056 2328 
Q 1056 1369 1301 889 
Q 1547 409 2034 409 
Q 2525 409 2770 889 
Q 3016 1369 3016 2328 
Q 3016 3291 2770 3770 
Q 2525 4250 2034 4250 
z
M 2034 4750 
Q 2819 4750 3233 4129 
Q 3647 3509 3647 2328 
Q 3647 1150 3233 529 
Q 2819 -91 2034 -91 
Q 1250 -91 836 529 
Q 422 1150 422 2328 
Q 422 3509 836 4129 
Q 1250 4750 2034 4750 
z
" transform="scale(0.015625)"/>
       </defs>
       <use xlink:href="#DejaVuSans-31"/>
       <use xlink:href="#DejaVuSans-30" transform="translate(63.623047 0)"/>
      </g>
     </g>
    </g>
    <g id="xtick_4">
     <g id="line2d_4">
      <g>
       <use xlink:href="#m610a7a726c" x="209.934233" y="184.790545" style="stroke: #000000; stroke-width: 1.4"/>
      </g>
     </g>
     <g id="text_4">
      <!-- 15 -->
      <g transform="translate(202.299233 205.65867) scale(0.12 -0.12)">
       <use xlink:href="#DejaVuSans-31"/>
       <use xlink:href="#DejaVuSans-35" transform="translate(63.623047 0)"/>
      </g>
     </g>
    </g>
    <g id="xtick_5">
     <g id="line2d_5">
      <g>
       <use xlink:href="#m610a7a726c" x="260.661506" y="184.790545" style="stroke: #000000; stroke-width: 1.4"/>
      </g>
     </g>
     <g id="text_5">
      <!-- 20 -->
      <g transform="translate(253.026506 205.65867) scale(0.12 -0.12)">
       <defs>
        <path id="DejaVuSans-32" d="M 1228 531 
L 3431 531 
L 3431 0 
L 469 0 
L 469 531 
Q 828 903 1448 1529 
Q 2069 2156 2228 2338 
Q 2531 2678 2651 2914 
Q 2772 3150 2772 3378 
Q 2772 3750 2511 3984 
Q 2250 4219 1831 4219 
Q 1534 4219 1204 4116 
Q 875 4013 500 3803 
L 500 4441 
Q 881 4594 1212 4672 
Q 1544 4750 1819 4750 
Q 2544 4750 2975 4387 
Q 3406 4025 3406 3419 
Q 3406 3131 3298 2873 
Q 3191 2616 2906 2266 
Q 2828 2175 2409 1742 
Q 1991 1309 1228 531 
z
" transform="scale(0.015625)"/>
       </defs>
       <use xlink:href="#DejaVuSans-32"/>
       <use xlink:href="#DejaVuSans-30" transform="translate(63.623047 0)"/>
      </g>
     </g>
    </g>
    <g id="xtick_6">
     <g id="line2d_6">
      <g>
       <use xlink:href="#m610a7a726c" x="311.388778" y="184.790545" style="stroke: #000000; stroke-width: 1.4"/>
      </g>
     </g>
     <g id="text_6">
      <!-- 25 -->
      <g transform="translate(303.753778 205.65867) scale(0.12 -0.12)">
       <use xlink:href="#DejaVuSans-32"/>
       <use xlink:href="#DejaVuSans-35" transform="translate(63.623047 0)"/>
      </g>
     </g>
    </g>
    <g id="xtick_7">
     <g id="line2d_7">
      <g>
       <use xlink:href="#m610a7a726c" x="362.116051" y="184.790545" style="stroke: #000000; stroke-width: 1.4"/>
      </g>
     </g>
     <g id="text_7">
      <!-- 30 -->
      <g transform="translate(354.481051 205.65867) scale(0.12 -0.12)">
       <defs>
        <path id="DejaVuSans-33" d="M 2597 2516 
Q 3050 2419 3304 2112 
Q 3559 1806 3559 1356 
Q 3559 666 3084 287 
Q 2609 -91 1734 -91 
Q 1441 -91 1130 -33 
Q 819 25 488 141 
L 488 750 
Q 750 597 1062 519 
Q 1375 441 1716 441 
Q 2309 441 2620 675 
Q 2931 909 2931 1356 
Q 2931 1769 2642 2001 
Q 2353 2234 1838 2234 
L 1294 2234 
L 1294 2753 
L 1863 2753 
Q 2328 2753 2575 2939 
Q 2822 3125 2822 3475 
Q 2822 3834 2567 4026 
Q 2313 4219 1838 4219 
Q 1578 4219 1281 4162 
Q 984 4106 628 3988 
L 628 4550 
Q 988 4650 1302 4700 
Q 1616 4750 1894 4750 
Q 2613 4750 3031 4423 
Q 3450 4097 3450 3541 
Q 3450 3153 3228 2886 
Q 3006 2619 2597 2516 
z
" transform="scale(0.015625)"/>
       </defs>
       <use xlink:href="#DejaVuSans-33"/>
       <use xlink:href="#DejaVuSans-30" transform="translate(63.623047 0)"/>
      </g>
     </g>
    </g>
    <g id="text_8">
     <!-- Days -->
     <g transform="translate(206.35375 220.512576) scale(0.11 -0.11)">
      <defs>
       <path id="DejaVuSans-44" d="M 1259 4147 
L 1259 519 
L 2022 519 
Q 2988 519 3436 956 
Q 3884 1394 3884 2338 
Q 3884 3275 3436 3711 
Q 2988 4147 2022 4147 
L 1259 4147 
z
M 628 4666 
L 1925 4666 
Q 3281 4666 3915 4102 
Q 4550 3538 4550 2338 
Q 4550 1131 3912 565 
Q 3275 0 1925 0 
L 628 0 
L 628 4666 
z
" transform="scale(0.015625)"/>
       <path id="DejaVuSans-61" d="M 2194 1759 
Q 1497 1759 1228 1600 
Q 959 1441 959 1056 
Q 959 750 1161 570 
Q 1363 391 1709 391 
Q 2188 391 2477 730 
Q 2766 1069 2766 1631 
L 2766 1759 
L 2194 1759 
z
M 3341 1997 
L 3341 0 
L 2766 0 
L 2766 531 
Q 2569 213 2275 61 
Q 1981 -91 1556 -91 
Q 1019 -91 701 211 
Q 384 513 384 1019 
Q 384 1609 779 1909 
Q 1175 2209 1959 2209 
L 2766 2209 
L 2766 2266 
Q 2766 2663 2505 2880 
Q 2244 3097 1772 3097 
Q 1472 3097 1187 3025 
Q 903 2953 641 2809 
L 641 3341 
Q 956 3463 1253 3523 
Q 1550 3584 1831 3584 
Q 2591 3584 2966 3190 
Q 3341 2797 3341 1997 
z
" transform="scale(0.015625)"/>
       <path id="DejaVuSans-79" d="M 2059 -325 
Q 1816 -950 1584 -1140 
Q 1353 -1331 966 -1331 
L 506 -1331 
L 506 -850 
L 844 -850 
Q 1081 -850 1212 -737 
Q 1344 -625 1503 -206 
L 1606 56 
L 191 3500 
L 800 3500 
L 1894 763 
L 2988 3500 
L 3597 3500 
L 2059 -325 
z
" transform="scale(0.015625)"/>
       <path id="DejaVuSans-73" d="M 2834 3397 
L 2834 2853 
Q 2591 2978 2328 3040 
Q 2066 3103 1784 3103 
Q 1356 3103 1142 2972 
Q 928 2841 928 2578 
Q 928 2378 1081 2264 
Q 1234 2150 1697 2047 
L 1894 2003 
Q 2506 1872 2764 1633 
Q 3022 1394 3022 966 
Q 3022 478 2636 193 
Q 2250 -91 1575 -91 
Q 1294 -91 989 -36 
Q 684 19 347 128 
L 347 722 
Q 666 556 975 473 
Q 1284 391 1588 391 
Q 1994 391 2212 530 
Q 2431 669 2431 922 
Q 2431 1156 2273 1281 
Q 2116 1406 1581 1522 
L 1381 1569 
Q 847 1681 609 1914 
Q 372 2147 372 2553 
Q 372 3047 722 3315 
Q 1072 3584 1716 3584 
Q 2034 3584 2315 3537 
Q 2597 3491 2834 3397 
z
" transform="scale(0.015625)"/>
      </defs>
      <use xlink:href="#DejaVuSans-44"/>
      <use xlink:href="#DejaVuSans-61" transform="translate(77.001953 0)"/>
      <use xlink:href="#DejaVuSans-79" transform="translate(138.28125 0)"/>
      <use xlink:href="#DejaVuSans-73" transform="translate(197.460938 0)"/>
     </g>
    </g>
   </g>
   <g id="matplotlib.axis_2">
    <g id="ytick_1">
     <g id="line2d_8">
      <defs>
       <path id="m810a6b0aff" d="M 0 0 
L -8.25 0 
" style="stroke: #000000; stroke-width: 1.4"/>
      </defs>
      <g>
       <use xlink:href="#m810a6b0aff" x="52.679688" y="165.564984" style="stroke: #000000; stroke-width: 1.4"/>
      </g>
     </g>
     <g id="text_9">
      <!-- 0.2 -->
      <g transform="translate(21.845938 170.124046) scale(0.12 -0.12)">
       <defs>
        <path id="DejaVuSans-2e" d="M 684 794 
L 1344 794 
L 1344 0 
L 684 0 
L 684 794 
z
" transform="scale(0.015625)"/>
       </defs>
       <use xlink:href="#DejaVuSans-30"/>
       <use xlink:href="#DejaVuSans-2e" transform="translate(63.623047 0)"/>
       <use xlink:href="#DejaVuSans-32" transform="translate(95.410156 0)"/>
      </g>
     </g>
    </g>
    <g id="ytick_2">
     <g id="line2d_9">
      <g>
       <use xlink:href="#m810a6b0aff" x="52.679688" y="127.873347" style="stroke: #000000; stroke-width: 1.4"/>
      </g>
     </g>
     <g id="text_10">
      <!-- 0.4 -->
      <g transform="translate(21.845938 132.43241) scale(0.12 -0.12)">
       <defs>
        <path id="DejaVuSans-34" d="M 2419 4116 
L 825 1625 
L 2419 1625 
L 2419 4116 
z
M 2253 4666 
L 3047 4666 
L 3047 1625 
L 3713 1625 
L 3713 1100 
L 3047 1100 
L 3047 0 
L 2419 0 
L 2419 1100 
L 313 1100 
L 313 1709 
L 2253 4666 
z
" transform="scale(0.015625)"/>
       </defs>
       <use xlink:href="#DejaVuSans-30"/>
       <use xlink:href="#DejaVuSans-2e" transform="translate(63.623047 0)"/>
       <use xlink:href="#DejaVuSans-34" transform="translate(95.410156 0)"/>
      </g>
     </g>
    </g>
    <g id="ytick_3">
     <g id="line2d_10">
      <g>
       <use xlink:href="#m810a6b0aff" x="52.679688" y="90.181711" style="stroke: #000000; stroke-width: 1.4"/>
      </g>
     </g>
     <g id="text_11">
      <!-- 0.6 -->
      <g transform="translate(21.845938 94.740773) scale(0.12 -0.12)">
       <defs>
        <path id="DejaVuSans-36" d="M 2113 2584 
Q 1688 2584 1439 2293 
Q 1191 2003 1191 1497 
Q 1191 994 1439 701 
Q 1688 409 2113 409 
Q 2538 409 2786 701 
Q 3034 994 3034 1497 
Q 3034 2003 2786 2293 
Q 2538 2584 2113 2584 
z
M 3366 4563 
L 3366 3988 
Q 3128 4100 2886 4159 
Q 2644 4219 2406 4219 
Q 1781 4219 1451 3797 
Q 1122 3375 1075 2522 
Q 1259 2794 1537 2939 
Q 1816 3084 2150 3084 
Q 2853 3084 3261 2657 
Q 3669 2231 3669 1497 
Q 3669 778 3244 343 
Q 2819 -91 2113 -91 
Q 1303 -91 875 529 
Q 447 1150 447 2328 
Q 447 3434 972 4092 
Q 1497 4750 2381 4750 
Q 2619 4750 2861 4703 
Q 3103 4656 3366 4563 
z
" transform="scale(0.015625)"/>
       </defs>
       <use xlink:href="#DejaVuSans-30"/>
       <use xlink:href="#DejaVuSans-2e" transform="translate(63.623047 0)"/>
       <use xlink:href="#DejaVuSans-36" transform="translate(95.410156 0)"/>
      </g>
     </g>
    </g>
    <g id="ytick_4">
     <g id="line2d_11">
      <g>
       <use xlink:href="#m810a6b0aff" x="52.679688" y="52.490074" style="stroke: #000000; stroke-width: 1.4"/>
      </g>
     </g>
     <g id="text_12">
      <!-- 0.8 -->
      <g transform="translate(21.845938 57.049137) scale(0.12 -0.12)">
       <defs>
        <path id="DejaVuSans-38" d="M 2034 2216 
Q 1584 2216 1326 1975 
Q 1069 1734 1069 1313 
Q 1069 891 1326 650 
Q 1584 409 2034 409 
Q 2484 409 2743 651 
Q 3003 894 3003 1313 
Q 3003 1734 2745 1975 
Q 2488 2216 2034 2216 
z
M 1403 2484 
Q 997 2584 770 2862 
Q 544 3141 544 3541 
Q 544 4100 942 4425 
Q 1341 4750 2034 4750 
Q 2731 4750 3128 4425 
Q 3525 4100 3525 3541 
Q 3525 3141 3298 2862 
Q 3072 2584 2669 2484 
Q 3125 2378 3379 2068 
Q 3634 1759 3634 1313 
Q 3634 634 3220 271 
Q 2806 -91 2034 -91 
Q 1263 -91 848 271 
Q 434 634 434 1313 
Q 434 1759 690 2068 
Q 947 2378 1403 2484 
z
M 1172 3481 
Q 1172 3119 1398 2916 
Q 1625 2713 2034 2713 
Q 2441 2713 2670 2916 
Q 2900 3119 2900 3481 
Q 2900 3844 2670 4047 
Q 2441 4250 2034 4250 
Q 1625 4250 1398 4047 
Q 1172 3844 1172 3481 
z
" transform="scale(0.015625)"/>
       </defs>
       <use xlink:href="#DejaVuSans-30"/>
       <use xlink:href="#DejaVuSans-2e" transform="translate(63.623047 0)"/>
       <use xlink:href="#DejaVuSans-38" transform="translate(95.410156 0)"/>
      </g>
     </g>
    </g>
    <g id="text_13">
     <!-- Median reaction time (s) -->
     <g transform="translate(15.558281 168.913592) rotate(-90) scale(0.11 -0.11)">
      <defs>
       <path id="DejaVuSans-4d" d="M 628 4666 
L 1569 4666 
L 2759 1491 
L 3956 4666 
L 4897 4666 
L 4897 0 
L 4281 0 
L 4281 4097 
L 3078 897 
L 2444 897 
L 1241 4097 
L 1241 0 
L 628 0 
L 628 4666 
z
" transform="scale(0.015625)"/>
       <path id="DejaVuSans-65" d="M 3597 1894 
L 3597 1613 
L 953 1613 
Q 991 1019 1311 708 
Q 1631 397 2203 397 
Q 2534 397 2845 478 
Q 3156 559 3463 722 
L 3463 178 
Q 3153 47 2828 -22 
Q 2503 -91 2169 -91 
Q 1331 -91 842 396 
Q 353 884 353 1716 
Q 353 2575 817 3079 
Q 1281 3584 2069 3584 
Q 2775 3584 3186 3129 
Q 3597 2675 3597 1894 
z
M 3022 2063 
Q 3016 2534 2758 2815 
Q 2500 3097 2075 3097 
Q 1594 3097 1305 2825 
Q 1016 2553 972 2059 
L 3022 2063 
z
" transform="scale(0.015625)"/>
       <path id="DejaVuSans-64" d="M 2906 2969 
L 2906 4863 
L 3481 4863 
L 3481 0 
L 2906 0 
L 2906 525 
Q 2725 213 2448 61 
Q 2172 -91 1784 -91 
Q 1150 -91 751 415 
Q 353 922 353 1747 
Q 353 2572 751 3078 
Q 1150 3584 1784 3584 
Q 2172 3584 2448 3432 
Q 2725 3281 2906 2969 
z
M 947 1747 
Q 947 1113 1208 752 
Q 1469 391 1925 391 
Q 2381 391 2643 752 
Q 2906 1113 2906 1747 
Q 2906 2381 2643 2742 
Q 2381 3103 1925 3103 
Q 1469 3103 1208 2742 
Q 947 2381 947 1747 
z
" transform="scale(0.015625)"/>
       <path id="DejaVuSans-69" d="M 603 3500 
L 1178 3500 
L 1178 0 
L 603 0 
L 603 3500 
z
M 603 4863 
L 1178 4863 
L 1178 4134 
L 603 4134 
L 603 4863 
z
" transform="scale(0.015625)"/>
       <path id="DejaVuSans-6e" d="M 3513 2113 
L 3513 0 
L 2938 0 
L 2938 2094 
Q 2938 2591 2744 2837 
Q 2550 3084 2163 3084 
Q 1697 3084 1428 2787 
Q 1159 2491 1159 1978 
L 1159 0 
L 581 0 
L 581 3500 
L 1159 3500 
L 1159 2956 
Q 1366 3272 1645 3428 
Q 1925 3584 2291 3584 
Q 2894 3584 3203 3211 
Q 3513 2838 3513 2113 
z
" transform="scale(0.015625)"/>
       <path id="DejaVuSans-20" transform="scale(0.015625)"/>
       <path id="DejaVuSans-72" d="M 2631 2963 
Q 2534 3019 2420 3045 
Q 2306 3072 2169 3072 
Q 1681 3072 1420 2755 
Q 1159 2438 1159 1844 
L 1159 0 
L 581 0 
L 581 3500 
L 1159 3500 
L 1159 2956 
Q 1341 3275 1631 3429 
Q 1922 3584 2338 3584 
Q 2397 3584 2469 3576 
Q 2541 3569 2628 3553 
L 2631 2963 
z
" transform="scale(0.015625)"/>
       <path id="DejaVuSans-63" d="M 3122 3366 
L 3122 2828 
Q 2878 2963 2633 3030 
Q 2388 3097 2138 3097 
Q 1578 3097 1268 2742 
Q 959 2388 959 1747 
Q 959 1106 1268 751 
Q 1578 397 2138 397 
Q 2388 397 2633 464 
Q 2878 531 3122 666 
L 3122 134 
Q 2881 22 2623 -34 
Q 2366 -91 2075 -91 
Q 1284 -91 818 406 
Q 353 903 353 1747 
Q 353 2603 823 3093 
Q 1294 3584 2113 3584 
Q 2378 3584 2631 3529 
Q 2884 3475 3122 3366 
z
" transform="scale(0.015625)"/>
       <path id="DejaVuSans-74" d="M 1172 4494 
L 1172 3500 
L 2356 3500 
L 2356 3053 
L 1172 3053 
L 1172 1153 
Q 1172 725 1289 603 
Q 1406 481 1766 481 
L 2356 481 
L 2356 0 
L 1766 0 
Q 1100 0 847 248 
Q 594 497 594 1153 
L 594 3053 
L 172 3053 
L 172 3500 
L 594 3500 
L 594 4494 
L 1172 4494 
z
" transform="scale(0.015625)"/>
       <path id="DejaVuSans-6f" d="M 1959 3097 
Q 1497 3097 1228 2736 
Q 959 2375 959 1747 
Q 959 1119 1226 758 
Q 1494 397 1959 397 
Q 2419 397 2687 759 
Q 2956 1122 2956 1747 
Q 2956 2369 2687 2733 
Q 2419 3097 1959 3097 
z
M 1959 3584 
Q 2709 3584 3137 3096 
Q 3566 2609 3566 1747 
Q 3566 888 3137 398 
Q 2709 -91 1959 -91 
Q 1206 -91 779 398 
Q 353 888 353 1747 
Q 353 2609 779 3096 
Q 1206 3584 1959 3584 
z
" transform="scale(0.015625)"/>
       <path id="DejaVuSans-6d" d="M 3328 2828 
Q 3544 3216 3844 3400 
Q 4144 3584 4550 3584 
Q 5097 3584 5394 3201 
Q 5691 2819 5691 2113 
L 5691 0 
L 5113 0 
L 5113 2094 
Q 5113 2597 4934 2840 
Q 4756 3084 4391 3084 
Q 3944 3084 3684 2787 
Q 3425 2491 3425 1978 
L 3425 0 
L 2847 0 
L 2847 2094 
Q 2847 2600 2669 2842 
Q 2491 3084 2119 3084 
Q 1678 3084 1418 2786 
Q 1159 2488 1159 1978 
L 1159 0 
L 581 0 
L 581 3500 
L 1159 3500 
L 1159 2956 
Q 1356 3278 1631 3431 
Q 1906 3584 2284 3584 
Q 2666 3584 2933 3390 
Q 3200 3197 3328 2828 
z
" transform="scale(0.015625)"/>
       <path id="DejaVuSans-28" d="M 1984 4856 
Q 1566 4138 1362 3434 
Q 1159 2731 1159 2009 
Q 1159 1288 1364 580 
Q 1569 -128 1984 -844 
L 1484 -844 
Q 1016 -109 783 600 
Q 550 1309 550 2009 
Q 550 2706 781 3412 
Q 1013 4119 1484 4856 
L 1984 4856 
z
" transform="scale(0.015625)"/>
       <path id="DejaVuSans-29" d="M 513 4856 
L 1013 4856 
Q 1481 4119 1714 3412 
Q 1947 2706 1947 2009 
Q 1947 1309 1714 600 
Q 1481 -109 1013 -844 
L 513 -844 
Q 928 -128 1133 580 
Q 1338 1288 1338 2009 
Q 1338 2731 1133 3434 
Q 928 4138 513 4856 
z
" transform="scale(0.015625)"/>
      </defs>
      <use xlink:href="#DejaVuSans-4d"/>
      <use xlink:href="#DejaVuSans-65" transform="translate(86.279297 0)"/>
      <use xlink:href="#DejaVuSans-64" transform="translate(147.802734 0)"/>
      <use xlink:href="#DejaVuSans-69" transform="translate(211.279297 0)"/>
      <use xlink:href="#DejaVuSans-61" transform="translate(239.0625 0)"/>
      <use xlink:href="#DejaVuSans-6e" transform="translate(300.341797 0)"/>
      <use xlink:href="#DejaVuSans-20" transform="translate(363.720703 0)"/>
      <use xlink:href="#DejaVuSans-72" transform="translate(395.507812 0)"/>
      <use xlink:href="#DejaVuSans-65" transform="translate(434.371094 0)"/>
      <use xlink:href="#DejaVuSans-61" transform="translate(495.894531 0)"/>
      <use xlink:href="#DejaVuSans-63" transform="translate(557.173828 0)"/>
      <use xlink:href="#DejaVuSans-74" transform="translate(612.154297 0)"/>
      <use xlink:href="#DejaVuSans-69" transform="translate(651.363281 0)"/>
      <use xlink:href="#DejaVuSans-6f" transform="translate(679.146484 0)"/>
      <use xlink:href="#DejaVuSans-6e" transform="translate(740.328125 0)"/>
      <use xlink:href="#DejaVuSans-20" transform="translate(803.707031 0)"/>
      <use xlink:href="#DejaVuSans-74" transform="translate(835.494141 0)"/>
      <use xlink:href="#DejaVuSans-69" transform="translate(874.703125 0)"/>
      <use xlink:href="#DejaVuSans-6d" transform="translate(902.486328 0)"/>
      <use xlink:href="#DejaVuSans-65" transform="translate(999.898438 0)"/>
      <use xlink:href="#DejaVuSans-20" transform="translate(1061.421875 0)"/>
      <use xlink:href="#DejaVuSans-28" transform="translate(1093.208984 0)"/>
      <use xlink:href="#DejaVuSans-73" transform="translate(1132.222656 0)"/>
      <use xlink:href="#DejaVuSans-29" transform="translate(1184.322266 0)"/>
     </g>
    </g>
   </g>
   <g id="line2d_12">
    <path d="M 67.897869 161.635631 
L 78.043324 99.001554 
L 88.188778 93.592804 
L 98.334233 44.376949 
L 108.479688 128.005268 
L 118.625142 112.966305 
L 128.770597 108.989837 
L 138.916051 111.317296 
L 149.061506 106.907374 
L 159.20696 85.941401 
L 169.352415 104.551647 
L 179.497869 75.491395 
L 189.643324 119.581187 
L 199.788778 87.279455 
L 209.934233 64.070829 
L 220.079688 81.135718 
L 230.225142 66.897702 
L 240.370597 26.030545 
L 250.516051 102.808409 
L 260.661506 85.931979 
L 270.80696 92.735319 
L 280.952415 112.589389 
L 291.097869 139.331605 
L 301.243324 151.807536 
L 311.388778 153.107898 
L 321.534233 164.057318 
L 331.679688 166.658041 
L 341.825142 160.740454 
L 351.970597 150.16795 
L 362.116051 160.712185 
L 372.261506 154.332876 
" clip-path="url(#p6483a9a275)" style="fill: none; stroke: #e64b35; stroke-width: 2; stroke-linecap: square"/>
   </g>
   <g id="line2d_13">
    <path d="M 67.897869 149.979492 
L 78.043324 154.690947 
L 88.188778 143.929984 
L 98.334233 160.005467 
L 108.479688 135.43052 
L 118.625142 144.646125 
L 128.770597 137.164336 
L 138.916051 133.988815 
L 149.061506 77.046175 
L 159.20696 58.643234 
L 169.352415 71.053205 
L 179.497869 94.667015 
L 189.643324 74.426607 
L 199.788778 79.741127 
L 209.934233 85.055648 
L 220.079688 50.511263 
L 230.225142 109.253679 
L 240.370597 135.94878 
L 250.516051 146.304557 
L 260.661506 162.172736 
L 270.80696 173.857144 
L 280.952415 172.980813 
L 291.097869 177.230545 
L 301.243324 167.091495 
L 311.388778 169.484914 
L 321.534233 173.800606 
L 331.679688 169.927791 
L 341.825142 172.255249 
L 351.970597 176.062104 
" clip-path="url(#p6483a9a275)" style="fill: none; stroke: #4dbbd5; stroke-width: 2; stroke-linecap: square"/>
   </g>
   <g id="line2d_14">
    <path d="M 67.897869 163.652133 
L 78.043324 164.377697 
L 88.188778 168.957231 
L 98.334233 164.764036 
L 108.479688 171.369496 
L 118.625142 168.976077 
L 128.770597 170.031443 
L 138.916051 165.414217 
L 149.061506 163.812323 
L 159.20696 143.835755 
L 169.352415 140.236204 
L 179.497869 133.508247 
L 189.643324 133.819203 
L 199.788778 123.256122 
" clip-path="url(#p6483a9a275)" style="fill: none; stroke: #00a087; stroke-width: 2; stroke-linecap: square"/>
   </g>
   <g id="line2d_15">
    <path d="M 67.897869 158.026656 
L 78.043324 158.827604 
L 88.188778 164.236353 
L 98.334233 160.080851 
L 108.479688 156.632066 
L 118.625142 163.831168 
L 128.770597 147.981835 
L 138.916051 164.32116 
L 149.061506 163.28464 
L 159.20696 157.376476 
L 169.352415 138.31393 
L 179.497869 126.233761 
L 189.643324 139.105455 
L 199.788778 148.217408 
L 209.934233 136.62723 
L 220.079688 132.490573 
" clip-path="url(#p6483a9a275)" style="fill: none; stroke: #3c5488; stroke-width: 2; stroke-linecap: square"/>
   </g>
   <g id="patch_3">
    <path d="M 52.679688 184.790545 
L 52.679688 18.470545 
" style="fill: none; stroke: #000000; stroke-width: 1.2; stroke-linejoin: miter; stroke-linecap: square"/>
   </g>
   <g id="patch_4">
    <path d="M 67.897869 184.790545 
L 382.40696 184.790545 
" style="fill: none; stroke: #000000; stroke-width: 1.2; stroke-linejoin: miter; stroke-linecap: square"/>
   </g>
   <g id="patch_5">
    <path d="M 101.277525 40.05575 
L 103.40754 40.99543 
Q 51.275472 76.27626 67.113889 141.554407 
L 68.277976 140.443353 
Q 68.16653 142.481441 67.354133 144.798051 
Q 65.464846 143.218007 64.396302 141.409073 
L 65.950933 141.850265 
Q 48.476278 76.181916 101.105199 37.724462 
L 101.277525 40.05575 
z
"/>
   </g>
   <g id="text_14">
    <!-- First day of delayed MP -->
    <g transform="translate(57.752415 33.644256) scale(0.1 -0.1)">
     <defs>
      <path id="DejaVuSans-46" d="M 628 4666 
L 3309 4666 
L 3309 4134 
L 1259 4134 
L 1259 2759 
L 3109 2759 
L 3109 2228 
L 1259 2228 
L 1259 0 
L 628 0 
L 628 4666 
z
" transform="scale(0.015625)"/>
      <path id="DejaVuSans-66" d="M 2375 4863 
L 2375 4384 
L 1825 4384 
Q 1516 4384 1395 4259 
Q 1275 4134 1275 3809 
L 1275 3500 
L 2222 3500 
L 2222 3053 
L 1275 3053 
L 1275 0 
L 697 0 
L 697 3053 
L 147 3053 
L 147 3500 
L 697 3500 
L 697 3744 
Q 697 4328 969 4595 
Q 1241 4863 1831 4863 
L 2375 4863 
z
" transform="scale(0.015625)"/>
      <path id="DejaVuSans-6c" d="M 603 4863 
L 1178 4863 
L 1178 0 
L 603 0 
L 603 4863 
z
" transform="scale(0.015625)"/>
      <path id="DejaVuSans-50" d="M 1259 4147 
L 1259 2394 
L 2053 2394 
Q 2494 2394 2734 2622 
Q 2975 2850 2975 3272 
Q 2975 3691 2734 3919 
Q 2494 4147 2053 4147 
L 1259 4147 
z
M 628 4666 
L 2053 4666 
Q 2838 4666 3239 4311 
Q 3641 3956 3641 3272 
Q 3641 2581 3239 2228 
Q 2838 1875 2053 1875 
L 1259 1875 
L 1259 0 
L 628 0 
L 628 4666 
z
" transform="scale(0.015625)"/>
     </defs>
     <use xlink:href="#DejaVuSans-46"/>
     <use xlink:href="#DejaVuSans-69" transform="translate(50.269531 0)"/>
     <use xlink:href="#DejaVuSans-72" transform="translate(78.052734 0)"/>
     <use xlink:href="#DejaVuSans-73" transform="translate(119.166016 0)"/>
     <use xlink:href="#DejaVuSans-74" transform="translate(171.265625 0)"/>
     <use xlink:href="#DejaVuSans-20" transform="translate(210.474609 0)"/>
     <use xlink:href="#DejaVuSans-64" transform="translate(242.261719 0)"/>
     <use xlink:href="#DejaVuSans-61" transform="translate(305.738281 0)"/>
     <use xlink:href="#DejaVuSans-79" transform="translate(367.017578 0)"/>
     <use xlink:href="#DejaVuSans-20" transform="translate(426.197266 0)"/>
     <use xlink:href="#DejaVuSans-6f" transform="translate(457.984375 0)"/>
     <use xlink:href="#DejaVuSans-66" transform="translate(519.166016 0)"/>
     <use xlink:href="#DejaVuSans-20" transform="translate(554.371094 0)"/>
     <use xlink:href="#DejaVuSans-64" transform="translate(586.158203 0)"/>
     <use xlink:href="#DejaVuSans-65" transform="translate(649.634766 0)"/>
     <use xlink:href="#DejaVuSans-6c" transform="translate(711.158203 0)"/>
     <use xlink:href="#DejaVuSans-61" transform="translate(738.941406 0)"/>
     <use xlink:href="#DejaVuSans-79" transform="translate(800.220703 0)"/>
     <use xlink:href="#DejaVuSans-65" transform="translate(859.400391 0)"/>
     <use xlink:href="#DejaVuSans-64" transform="translate(920.923828 0)"/>
     <use xlink:href="#DejaVuSans-20" transform="translate(984.400391 0)"/>
     <use xlink:href="#DejaVuSans-4d" transform="translate(1016.1875 0)"/>
     <use xlink:href="#DejaVuSans-50" transform="translate(1102.466797 0)"/>
    </g>
   </g>
   <g id="patch_6">
    <path d="M 196.557332 22.565377 
L 198.656416 21.559836 
Q 192.306127 75.774028 243.467836 100.183153 
L 243.340054 98.5797 
Q 244.840288 99.946514 246.139611 102.031463 
Q 243.720841 102.513475 241.641315 102.201065 
L 242.965284 101.272851 
Q 190.408039 77.848435 194.674626 21.178589 
L 196.557332 22.565377 
z
"/>
   </g>
   <g id="text_15">
    <!-- Removed delay -->
    <g transform="translate(159.20696 14.798437) scale(0.1 -0.1)">
     <defs>
      <path id="DejaVuSans-52" d="M 2841 2188 
Q 3044 2119 3236 1894 
Q 3428 1669 3622 1275 
L 4263 0 
L 3584 0 
L 2988 1197 
Q 2756 1666 2539 1819 
Q 2322 1972 1947 1972 
L 1259 1972 
L 1259 0 
L 628 0 
L 628 4666 
L 2053 4666 
Q 2853 4666 3247 4331 
Q 3641 3997 3641 3322 
Q 3641 2881 3436 2590 
Q 3231 2300 2841 2188 
z
M 1259 4147 
L 1259 2491 
L 2053 2491 
Q 2509 2491 2742 2702 
Q 2975 2913 2975 3322 
Q 2975 3731 2742 3939 
Q 2509 4147 2053 4147 
L 1259 4147 
z
" transform="scale(0.015625)"/>
      <path id="DejaVuSans-76" d="M 191 3500 
L 800 3500 
L 1894 563 
L 2988 3500 
L 3597 3500 
L 2284 0 
L 1503 0 
L 191 3500 
z
" transform="scale(0.015625)"/>
     </defs>
     <use xlink:href="#DejaVuSans-52"/>
     <use xlink:href="#DejaVuSans-65" transform="translate(64.982422 0)"/>
     <use xlink:href="#DejaVuSans-6d" transform="translate(126.505859 0)"/>
     <use xlink:href="#DejaVuSans-6f" transform="translate(223.917969 0)"/>
     <use xlink:href="#DejaVuSans-76" transform="translate(285.099609 0)"/>
     <use xlink:href="#DejaVuSans-65" transform="translate(344.279297 0)"/>
     <use xlink:href="#DejaVuSans-64" transform="translate(405.802734 0)"/>
     <use xlink:href="#DejaVuSans-20" transform="translate(469.279297 0)"/>
     <use xlink:href="#DejaVuSans-64" transform="translate(501.066406 0)"/>
     <use xlink:href="#DejaVuSans-65" transform="translate(564.542969 0)"/>
     <use xlink:href="#DejaVuSans-6c" transform="translate(626.066406 0)"/>
     <use xlink:href="#DejaVuSans-61" transform="translate(653.849609 0)"/>
     <use xlink:href="#DejaVuSans-79" transform="translate(715.128906 0)"/>
    </g>
   </g>
   <g id="patch_7">
    <path d="M 194.32377 22.432623 
L 196.581735 21.867828 
Q 179.957739 72.196399 223.813321 105.755945 
L 224.018519 104.160244 
Q 225.20296 105.806079 226.045416 108.113556 
Q 223.579254 108.087774 221.609134 107.353184 
L 223.096887 106.718609 
Q 177.682112 73.841268 192.757178 20.696179 
L 194.32377 22.432623 
z
"/>
   </g>
   <g id="text_16">
    <!-- Removed delay -->
    <g transform="translate(159.20696 14.798437) scale(0.1 -0.1)">
     <use xlink:href="#DejaVuSans-52"/>
     <use xlink:href="#DejaVuSans-65" transform="translate(64.982422 0)"/>
     <use xlink:href="#DejaVuSans-6d" transform="translate(126.505859 0)"/>
     <use xlink:href="#DejaVuSans-6f" transform="translate(223.917969 0)"/>
     <use xlink:href="#DejaVuSans-76" transform="translate(285.099609 0)"/>
     <use xlink:href="#DejaVuSans-65" transform="translate(344.279297 0)"/>
     <use xlink:href="#DejaVuSans-64" transform="translate(405.802734 0)"/>
     <use xlink:href="#DejaVuSans-20" transform="translate(469.279297 0)"/>
     <use xlink:href="#DejaVuSans-64" transform="translate(501.066406 0)"/>
     <use xlink:href="#DejaVuSans-65" transform="translate(564.542969 0)"/>
     <use xlink:href="#DejaVuSans-6c" transform="translate(626.066406 0)"/>
     <use xlink:href="#DejaVuSans-61" transform="translate(653.849609 0)"/>
     <use xlink:href="#DejaVuSans-79" transform="translate(715.128906 0)"/>
    </g>
   </g>
   <g id="legend_1">
    <g id="line2d_16">
     <path d="M 291.923437 31.568983 
L 301.923437 31.568983 
L 311.923437 31.568983 
" style="fill: none; stroke: #e64b35; stroke-width: 2; stroke-linecap: square"/>
    </g>
    <g id="text_17">
     <!-- JOA-M-0030 -->
     <g transform="translate(319.923437 35.068983) scale(0.1 -0.1)">
      <defs>
       <path id="DejaVuSans-4a" d="M 628 4666 
L 1259 4666 
L 1259 325 
Q 1259 -519 939 -900 
Q 619 -1281 -91 -1281 
L -331 -1281 
L -331 -750 
L -134 -750 
Q 284 -750 456 -515 
Q 628 -281 628 325 
L 628 4666 
z
" transform="scale(0.015625)"/>
       <path id="DejaVuSans-4f" d="M 2522 4238 
Q 1834 4238 1429 3725 
Q 1025 3213 1025 2328 
Q 1025 1447 1429 934 
Q 1834 422 2522 422 
Q 3209 422 3611 934 
Q 4013 1447 4013 2328 
Q 4013 3213 3611 3725 
Q 3209 4238 2522 4238 
z
M 2522 4750 
Q 3503 4750 4090 4092 
Q 4678 3434 4678 2328 
Q 4678 1225 4090 567 
Q 3503 -91 2522 -91 
Q 1538 -91 948 565 
Q 359 1222 359 2328 
Q 359 3434 948 4092 
Q 1538 4750 2522 4750 
z
" transform="scale(0.015625)"/>
       <path id="DejaVuSans-41" d="M 2188 4044 
L 1331 1722 
L 3047 1722 
L 2188 4044 
z
M 1831 4666 
L 2547 4666 
L 4325 0 
L 3669 0 
L 3244 1197 
L 1141 1197 
L 716 0 
L 50 0 
L 1831 4666 
z
" transform="scale(0.015625)"/>
       <path id="DejaVuSans-2d" d="M 313 2009 
L 1997 2009 
L 1997 1497 
L 313 1497 
L 313 2009 
z
" transform="scale(0.015625)"/>
      </defs>
      <use xlink:href="#DejaVuSans-4a"/>
      <use xlink:href="#DejaVuSans-4f" transform="translate(29.492188 0)"/>
      <use xlink:href="#DejaVuSans-41" transform="translate(106.453125 0)"/>
      <use xlink:href="#DejaVuSans-2d" transform="translate(172.611328 0)"/>
      <use xlink:href="#DejaVuSans-4d" transform="translate(208.695312 0)"/>
      <use xlink:href="#DejaVuSans-2d" transform="translate(294.974609 0)"/>
      <use xlink:href="#DejaVuSans-30" transform="translate(331.058594 0)"/>
      <use xlink:href="#DejaVuSans-30" transform="translate(394.681641 0)"/>
      <use xlink:href="#DejaVuSans-33" transform="translate(458.304688 0)"/>
      <use xlink:href="#DejaVuSans-30" transform="translate(521.927734 0)"/>
     </g>
    </g>
    <g id="line2d_17">
     <path d="M 291.923437 46.247108 
L 301.923437 46.247108 
L 311.923437 46.247108 
" style="fill: none; stroke: #4dbbd5; stroke-width: 2; stroke-linecap: square"/>
    </g>
    <g id="text_18">
     <!-- JOA-M-0031 -->
     <g transform="translate(319.923437 49.747108) scale(0.1 -0.1)">
      <use xlink:href="#DejaVuSans-4a"/>
      <use xlink:href="#DejaVuSans-4f" transform="translate(29.492188 0)"/>
      <use xlink:href="#DejaVuSans-41" transform="translate(106.453125 0)"/>
      <use xlink:href="#DejaVuSans-2d" transform="translate(172.611328 0)"/>
      <use xlink:href="#DejaVuSans-4d" transform="translate(208.695312 0)"/>
      <use xlink:href="#DejaVuSans-2d" transform="translate(294.974609 0)"/>
      <use xlink:href="#DejaVuSans-30" transform="translate(331.058594 0)"/>
      <use xlink:href="#DejaVuSans-30" transform="translate(394.681641 0)"/>
      <use xlink:href="#DejaVuSans-33" transform="translate(458.304688 0)"/>
      <use xlink:href="#DejaVuSans-31" transform="translate(521.927734 0)"/>
     </g>
    </g>
    <g id="line2d_18">
     <path d="M 291.923437 60.925233 
L 301.923437 60.925233 
L 311.923437 60.925233 
" style="fill: none; stroke: #00a087; stroke-width: 2; stroke-linecap: square"/>
    </g>
    <g id="text_19">
     <!-- JOA-M-0033 -->
     <g transform="translate(319.923437 64.425233) scale(0.1 -0.1)">
      <use xlink:href="#DejaVuSans-4a"/>
      <use xlink:href="#DejaVuSans-4f" transform="translate(29.492188 0)"/>
      <use xlink:href="#DejaVuSans-41" transform="translate(106.453125 0)"/>
      <use xlink:href="#DejaVuSans-2d" transform="translate(172.611328 0)"/>
      <use xlink:href="#DejaVuSans-4d" transform="translate(208.695312 0)"/>
      <use xlink:href="#DejaVuSans-2d" transform="translate(294.974609 0)"/>
      <use xlink:href="#DejaVuSans-30" transform="translate(331.058594 0)"/>
      <use xlink:href="#DejaVuSans-30" transform="translate(394.681641 0)"/>
      <use xlink:href="#DejaVuSans-33" transform="translate(458.304688 0)"/>
      <use xlink:href="#DejaVuSans-33" transform="translate(521.927734 0)"/>
     </g>
    </g>
    <g id="line2d_19">
     <path d="M 291.923437 75.603358 
L 301.923437 75.603358 
L 311.923437 75.603358 
" style="fill: none; stroke: #3c5488; stroke-width: 2; stroke-linecap: square"/>
    </g>
    <g id="text_20">
     <!-- JOA-M-0029 -->
     <g transform="translate(319.923437 79.103358) scale(0.1 -0.1)">
      <defs>
       <path id="DejaVuSans-39" d="M 703 97 
L 703 672 
Q 941 559 1184 500 
Q 1428 441 1663 441 
Q 2288 441 2617 861 
Q 2947 1281 2994 2138 
Q 2813 1869 2534 1725 
Q 2256 1581 1919 1581 
Q 1219 1581 811 2004 
Q 403 2428 403 3163 
Q 403 3881 828 4315 
Q 1253 4750 1959 4750 
Q 2769 4750 3195 4129 
Q 3622 3509 3622 2328 
Q 3622 1225 3098 567 
Q 2575 -91 1691 -91 
Q 1453 -91 1209 -44 
Q 966 3 703 97 
z
M 1959 2075 
Q 2384 2075 2632 2365 
Q 2881 2656 2881 3163 
Q 2881 3666 2632 3958 
Q 2384 4250 1959 4250 
Q 1534 4250 1286 3958 
Q 1038 3666 1038 3163 
Q 1038 2656 1286 2365 
Q 1534 2075 1959 2075 
z
" transform="scale(0.015625)"/>
      </defs>
      <use xlink:href="#DejaVuSans-4a"/>
      <use xlink:href="#DejaVuSans-4f" transform="translate(29.492188 0)"/>
      <use xlink:href="#DejaVuSans-41" transform="translate(106.453125 0)"/>
      <use xlink:href="#DejaVuSans-2d" transform="translate(172.611328 0)"/>
      <use xlink:href="#DejaVuSans-4d" transform="translate(208.695312 0)"/>
      <use xlink:href="#DejaVuSans-2d" transform="translate(294.974609 0)"/>
      <use xlink:href="#DejaVuSans-30" transform="translate(331.058594 0)"/>
      <use xlink:href="#DejaVuSans-30" transform="translate(394.681641 0)"/>
      <use xlink:href="#DejaVuSans-32" transform="translate(458.304688 0)"/>
      <use xlink:href="#DejaVuSans-39" transform="translate(521.927734 0)"/>
     </g>
    </g>
   </g>
  </g>
 </g>
 <defs>
  <clipPath id="p6483a9a275">
   <rect x="52.679688" y="18.470545" width="334.8" height="166.32"/>
  </clipPath>
 </defs>
</svg>
