<?xml version="1.0" encoding="utf-8" standalone="no"?>
<!DOCTYPE svg PUBLIC "-//W3C//DTD SVG 1.1//EN"
  "http://www.w3.org/Graphics/SVG/1.1/DTD/svg11.dtd">
<svg xmlns:xlink="http://www.w3.org/1999/xlink" width="376.163531pt" height="195.078281pt" viewBox="0 0 376.163531 195.078281" xmlns="http://www.w3.org/2000/svg" version="1.1">
 <metadata>
  <rdf:RDF xmlns:dc="http://purl.org/dc/elements/1.1/" xmlns:cc="http://creativecommons.org/ns#" xmlns:rdf="http://www.w3.org/1999/02/22-rdf-syntax-ns#">
   <cc:Work>
    <dc:type rdf:resource="http://purl.org/dc/dcmitype/StillImage"/>
    <dc:date>2025-10-22T11:58:54.562265</dc:date>
    <dc:format>image/svg+xml</dc:format>
    <dc:creator>
     <cc:Agent>
      <dc:title>Matplotlib v3.10.6, https://matplotlib.org/</dc:title>
     </cc:Agent>
    </dc:creator>
   </cc:Work>
  </rdf:RDF>
 </metadata>
 <defs>
  <style type="text/css">*{stroke-linejoin: round; stroke-linecap: butt}</style>
 </defs>
 <g id="figure_1">
  <g id="patch_1">
   <path d="M 0 195.078281 
L 376.163531 195.078281 
L 376.163531 0 
L 0 0 
L 0 195.078281 
z
" style="fill: none"/>
  </g>
  <g id="axes_1">
   <g id="patch_2">
    <path d="M 34.163531 97.158281 
L 368.963531 97.158281 
L 368.963531 21.558281 
L 34.163531 21.558281 
L 34.163531 97.158281 
z
" style="fill: none"/>
   </g>
   <g id="matplotlib.axis_1"/>
   <g id="matplotlib.axis_2">
    <g id="text_1">
     <!-- Computer  -->
     <g transform="translate(15.558281 88.448125) rotate(-90) scale(0.11 -0.11)">
      <defs>
       <path id="DejaVuSans-43" d="M 4122 4306 
L 4122 3641 
Q 3803 3938 3442 4084 
Q 3081 4231 2675 4231 
Q 1875 4231 1450 3742 
Q 1025 3253 1025 2328 
Q 1025 1406 1450 917 
Q 1875 428 2675 428 
Q 3081 428 3442 575 
Q 3803 722 4122 1019 
L 4122 359 
Q 3791 134 3420 21 
Q 3050 -91 2638 -91 
Q 1578 -91 968 557 
Q 359 1206 359 2328 
Q 359 3453 968 4101 
Q 1578 4750 2638 4750 
Q 3056 4750 3426 4639 
Q 3797 4528 4122 4306 
z
" transform="scale(0.015625)"/>
       <path id="DejaVuSans-6f" d="M 1959 3097 
Q 1497 3097 1228 2736 
Q 959 2375 959 1747 
Q 959 1119 1226 758 
Q 1494 397 1959 397 
Q 2419 397 2687 759 
Q 2956 1122 2956 1747 
Q 2956 2369 2687 2733 
Q 2419 3097 1959 3097 
z
M 1959 3584 
Q 2709 3584 3137 3096 
Q 3566 2609 3566 1747 
Q 3566 888 3137 398 
Q 2709 -91 1959 -91 
Q 1206 -91 779 398 
Q 353 888 353 1747 
Q 353 2609 779 3096 
Q 1206 3584 1959 3584 
z
" transform="scale(0.015625)"/>
       <path id="DejaVuSans-6d" d="M 3328 2828 
Q 3544 3216 3844 3400 
Q 4144 3584 4550 3584 
Q 5097 3584 5394 3201 
Q 5691 2819 5691 2113 
L 5691 0 
L 5113 0 
L 5113 2094 
Q 5113 2597 4934 2840 
Q 4756 3084 4391 3084 
Q 3944 3084 3684 2787 
Q 3425 2491 3425 1978 
L 3425 0 
L 2847 0 
L 2847 2094 
Q 2847 2600 2669 2842 
Q 2491 3084 2119 3084 
Q 1678 3084 1418 2786 
Q 1159 2488 1159 1978 
L 1159 0 
L 581 0 
L 581 3500 
L 1159 3500 
L 1159 2956 
Q 1356 3278 1631 3431 
Q 1906 3584 2284 3584 
Q 2666 3584 2933 3390 
Q 3200 3197 3328 2828 
z
" transform="scale(0.015625)"/>
       <path id="DejaVuSans-70" d="M 1159 525 
L 1159 -1331 
L 581 -1331 
L 581 3500 
L 1159 3500 
L 1159 2969 
Q 1341 3281 1617 3432 
Q 1894 3584 2278 3584 
Q 2916 3584 3314 3078 
Q 3713 2572 3713 1747 
Q 3713 922 3314 415 
Q 2916 -91 2278 -91 
Q 1894 -91 1617 61 
Q 1341 213 1159 525 
z
M 3116 1747 
Q 3116 2381 2855 2742 
Q 2594 3103 2138 3103 
Q 1681 3103 1420 2742 
Q 1159 2381 1159 1747 
Q 1159 1113 1420 752 
Q 1681 391 2138 391 
Q 2594 391 2855 752 
Q 3116 1113 3116 1747 
z
" transform="scale(0.015625)"/>
       <path id="DejaVuSans-75" d="M 544 1381 
L 544 3500 
L 1119 3500 
L 1119 1403 
Q 1119 906 1312 657 
Q 1506 409 1894 409 
Q 2359 409 2629 706 
Q 2900 1003 2900 1516 
L 2900 3500 
L 3475 3500 
L 3475 0 
L 2900 0 
L 2900 538 
Q 2691 219 2414 64 
Q 2138 -91 1772 -91 
Q 1169 -91 856 284 
Q 544 659 544 1381 
z
M 1991 3584 
L 1991 3584 
z
" transform="scale(0.015625)"/>
       <path id="DejaVuSans-74" d="M 1172 4494 
L 1172 3500 
L 2356 3500 
L 2356 3053 
L 1172 3053 
L 1172 1153 
Q 1172 725 1289 603 
Q 1406 481 1766 481 
L 2356 481 
L 2356 0 
L 1766 0 
Q 1100 0 847 248 
Q 594 497 594 1153 
L 594 3053 
L 172 3053 
L 172 3500 
L 594 3500 
L 594 4494 
L 1172 4494 
z
" transform="scale(0.015625)"/>
       <path id="DejaVuSans-65" d="M 3597 1894 
L 3597 1613 
L 953 1613 
Q 991 1019 1311 708 
Q 1631 397 2203 397 
Q 2534 397 2845 478 
Q 3156 559 3463 722 
L 3463 178 
Q 3153 47 2828 -22 
Q 2503 -91 2169 -91 
Q 1331 -91 842 396 
Q 353 884 353 1716 
Q 353 2575 817 3079 
Q 1281 3584 2069 3584 
Q 2775 3584 3186 3129 
Q 3597 2675 3597 1894 
z
M 3022 2063 
Q 3016 2534 2758 2815 
Q 2500 3097 2075 3097 
Q 1594 3097 1305 2825 
Q 1016 2553 972 2059 
L 3022 2063 
z
" transform="scale(0.015625)"/>
       <path id="DejaVuSans-72" d="M 2631 2963 
Q 2534 3019 2420 3045 
Q 2306 3072 2169 3072 
Q 1681 3072 1420 2755 
Q 1159 2438 1159 1844 
L 1159 0 
L 581 0 
L 581 3500 
L 1159 3500 
L 1159 2956 
Q 1341 3275 1631 3429 
Q 1922 3584 2338 3584 
Q 2397 3584 2469 3576 
Q 2541 3569 2628 3553 
L 2631 2963 
z
" transform="scale(0.015625)"/>
       <path id="DejaVuSans-20" transform="scale(0.015625)"/>
      </defs>
      <use xlink:href="#DejaVuSans-43"/>
      <use xlink:href="#DejaVuSans-6f" transform="translate(69.824219 0)"/>
      <use xlink:href="#DejaVuSans-6d" transform="translate(131.005859 0)"/>
      <use xlink:href="#DejaVuSans-70" transform="translate(228.417969 0)"/>
      <use xlink:href="#DejaVuSans-75" transform="translate(291.894531 0)"/>
      <use xlink:href="#DejaVuSans-74" transform="translate(355.273438 0)"/>
      <use xlink:href="#DejaVuSans-65" transform="translate(394.482422 0)"/>
      <use xlink:href="#DejaVuSans-72" transform="translate(456.005859 0)"/>
      <use xlink:href="#DejaVuSans-20" transform="translate(497.119141 0)"/>
     </g>
     <!--  opponent -->
     <g transform="translate(27.875875 87.331797) rotate(-90) scale(0.11 -0.11)">
      <defs>
       <path id="DejaVuSans-6e" d="M 3513 2113 
L 3513 0 
L 2938 0 
L 2938 2094 
Q 2938 2591 2744 2837 
Q 2550 3084 2163 3084 
Q 1697 3084 1428 2787 
Q 1159 2491 1159 1978 
L 1159 0 
L 581 0 
L 581 3500 
L 1159 3500 
L 1159 2956 
Q 1366 3272 1645 3428 
Q 1925 3584 2291 3584 
Q 2894 3584 3203 3211 
Q 3513 2838 3513 2113 
z
" transform="scale(0.015625)"/>
      </defs>
      <use xlink:href="#DejaVuSans-20"/>
      <use xlink:href="#DejaVuSans-6f" transform="translate(31.787109 0)"/>
      <use xlink:href="#DejaVuSans-70" transform="translate(92.96875 0)"/>
      <use xlink:href="#DejaVuSans-70" transform="translate(156.445312 0)"/>
      <use xlink:href="#DejaVuSans-6f" transform="translate(219.921875 0)"/>
      <use xlink:href="#DejaVuSans-6e" transform="translate(281.103516 0)"/>
      <use xlink:href="#DejaVuSans-65" transform="translate(344.482422 0)"/>
      <use xlink:href="#DejaVuSans-6e" transform="translate(406.005859 0)"/>
      <use xlink:href="#DejaVuSans-74" transform="translate(469.384766 0)"/>
     </g>
    </g>
   </g>
   <g id="line2d_1">
    <path d="M 49.381713 59.358281 
L 49.381713 86.358281 
" clip-path="url(#p2bf6836b55)" style="fill: none; stroke: #2a9df4; stroke-width: 3; stroke-linecap: square"/>
   </g>
   <g id="line2d_2">
    <path d="M 55.593216 59.358281 
L 55.593216 86.358281 
" clip-path="url(#p2bf6836b55)" style="fill: none; stroke: #2a9df4; stroke-width: 3; stroke-linecap: square"/>
   </g>
   <g id="line2d_3">
    <path d="M 61.804719 59.358281 
L 61.804719 86.358281 
" clip-path="url(#p2bf6836b55)" style="fill: none; stroke: #2a9df4; stroke-width: 3; stroke-linecap: square"/>
   </g>
   <g id="line2d_4">
    <path d="M 68.016221 59.358281 
L 68.016221 86.358281 
" clip-path="url(#p2bf6836b55)" style="fill: none; stroke: #2a9df4; stroke-width: 3; stroke-linecap: square"/>
   </g>
   <g id="line2d_5">
    <path d="M 74.227724 59.358281 
L 74.227724 86.358281 
" clip-path="url(#p2bf6836b55)" style="fill: none; stroke: #2a9df4; stroke-width: 3; stroke-linecap: square"/>
   </g>
   <g id="line2d_6">
    <path d="M 80.439227 59.358281 
L 80.439227 86.358281 
" clip-path="url(#p2bf6836b55)" style="fill: none; stroke: #2a9df4; stroke-width: 3; stroke-linecap: square"/>
   </g>
   <g id="line2d_7">
    <path d="M 86.65073 59.358281 
L 86.65073 86.358281 
" clip-path="url(#p2bf6836b55)" style="fill: none; stroke: #2a9df4; stroke-width: 3; stroke-linecap: square"/>
   </g>
   <g id="line2d_8">
    <path d="M 92.862233 59.358281 
L 92.862233 86.358281 
" clip-path="url(#p2bf6836b55)" style="fill: none; stroke: #2a9df4; stroke-width: 3; stroke-linecap: square"/>
   </g>
   <g id="line2d_9">
    <path d="M 99.073735 59.358281 
L 99.073735 86.358281 
" clip-path="url(#p2bf6836b55)" style="fill: none; stroke: #2a9df4; stroke-width: 3; stroke-linecap: square"/>
   </g>
   <g id="line2d_10">
    <path d="M 105.285238 59.358281 
L 105.285238 86.358281 
" clip-path="url(#p2bf6836b55)" style="fill: none; stroke: #2a9df4; stroke-width: 3; stroke-linecap: square"/>
   </g>
   <g id="line2d_11">
    <path d="M 111.496741 59.358281 
L 111.496741 32.358281 
" clip-path="url(#p2bf6836b55)" style="fill: none; stroke: #f45b69; stroke-width: 3; stroke-linecap: square"/>
   </g>
   <g id="line2d_12">
    <path d="M 117.708244 59.358281 
L 117.708244 32.358281 
" clip-path="url(#p2bf6836b55)" style="fill: none; stroke: #f45b69; stroke-width: 3; stroke-linecap: square"/>
   </g>
   <g id="line2d_13">
    <path d="M 123.919746 59.358281 
L 123.919746 32.358281 
" clip-path="url(#p2bf6836b55)" style="fill: none; stroke: #f45b69; stroke-width: 3; stroke-linecap: square"/>
   </g>
   <g id="line2d_14">
    <path d="M 130.131249 59.358281 
L 130.131249 32.358281 
" clip-path="url(#p2bf6836b55)" style="fill: none; stroke: #f45b69; stroke-width: 3; stroke-linecap: square"/>
   </g>
   <g id="line2d_15">
    <path d="M 136.342752 59.358281 
L 136.342752 32.358281 
" clip-path="url(#p2bf6836b55)" style="fill: none; stroke: #f45b69; stroke-width: 3; stroke-linecap: square"/>
   </g>
   <g id="line2d_16">
    <path d="M 142.554255 59.358281 
L 142.554255 32.358281 
" clip-path="url(#p2bf6836b55)" style="fill: none; stroke: #f45b69; stroke-width: 3; stroke-linecap: square"/>
   </g>
   <g id="line2d_17">
    <path d="M 148.765758 59.358281 
L 148.765758 32.358281 
" clip-path="url(#p2bf6836b55)" style="fill: none; stroke: #f45b69; stroke-width: 3; stroke-linecap: square"/>
   </g>
   <g id="line2d_18">
    <path d="M 154.97726 59.358281 
L 154.97726 32.358281 
" clip-path="url(#p2bf6836b55)" style="fill: none; stroke: #f45b69; stroke-width: 3; stroke-linecap: square"/>
   </g>
   <g id="line2d_19">
    <path d="M 161.188763 59.358281 
L 161.188763 32.358281 
" clip-path="url(#p2bf6836b55)" style="fill: none; stroke: #f45b69; stroke-width: 3; stroke-linecap: square"/>
   </g>
   <g id="line2d_20">
    <path d="M 167.400266 59.358281 
L 167.400266 32.358281 
" clip-path="url(#p2bf6836b55)" style="fill: none; stroke: #f45b69; stroke-width: 3; stroke-linecap: square"/>
   </g>
   <g id="line2d_21">
    <path d="M 173.611769 59.358281 
L 173.611769 86.358281 
" clip-path="url(#p2bf6836b55)" style="fill: none; stroke: #2a9df4; stroke-width: 3; stroke-linecap: square"/>
   </g>
   <g id="line2d_22">
    <path d="M 179.823272 59.358281 
L 179.823272 86.358281 
" clip-path="url(#p2bf6836b55)" style="fill: none; stroke: #2a9df4; stroke-width: 3; stroke-linecap: square"/>
   </g>
   <g id="line2d_23">
    <path d="M 186.034774 59.358281 
L 186.034774 86.358281 
" clip-path="url(#p2bf6836b55)" style="fill: none; stroke: #2a9df4; stroke-width: 3; stroke-linecap: square"/>
   </g>
   <g id="line2d_24">
    <path d="M 192.246277 59.358281 
L 192.246277 86.358281 
" clip-path="url(#p2bf6836b55)" style="fill: none; stroke: #2a9df4; stroke-width: 3; stroke-linecap: square"/>
   </g>
   <g id="line2d_25">
    <path d="M 198.45778 59.358281 
L 198.45778 86.358281 
" clip-path="url(#p2bf6836b55)" style="fill: none; stroke: #2a9df4; stroke-width: 3; stroke-linecap: square"/>
   </g>
   <g id="line2d_26">
    <path d="M 204.669283 59.358281 
L 204.669283 86.358281 
" clip-path="url(#p2bf6836b55)" style="fill: none; stroke: #2a9df4; stroke-width: 3; stroke-linecap: square"/>
   </g>
   <g id="line2d_27">
    <path d="M 210.880785 59.358281 
L 210.880785 86.358281 
" clip-path="url(#p2bf6836b55)" style="fill: none; stroke: #2a9df4; stroke-width: 3; stroke-linecap: square"/>
   </g>
   <g id="line2d_28">
    <path d="M 217.092288 59.358281 
L 217.092288 86.358281 
" clip-path="url(#p2bf6836b55)" style="fill: none; stroke: #2a9df4; stroke-width: 3; stroke-linecap: square"/>
   </g>
   <g id="line2d_29">
    <path d="M 223.303791 59.358281 
L 223.303791 86.358281 
" clip-path="url(#p2bf6836b55)" style="fill: none; stroke: #2a9df4; stroke-width: 3; stroke-linecap: square"/>
   </g>
   <g id="line2d_30">
    <path d="M 229.515294 59.358281 
L 229.515294 86.358281 
" clip-path="url(#p2bf6836b55)" style="fill: none; stroke: #2a9df4; stroke-width: 3; stroke-linecap: square"/>
   </g>
   <g id="line2d_31">
    <path d="M 235.726797 59.358281 
L 235.726797 32.358281 
" clip-path="url(#p2bf6836b55)" style="fill: none; stroke: #f45b69; stroke-width: 3; stroke-linecap: square"/>
   </g>
   <g id="line2d_32">
    <path d="M 241.938299 59.358281 
L 241.938299 32.358281 
" clip-path="url(#p2bf6836b55)" style="fill: none; stroke: #f45b69; stroke-width: 3; stroke-linecap: square"/>
   </g>
   <g id="line2d_33">
    <path d="M 248.149802 59.358281 
L 248.149802 32.358281 
" clip-path="url(#p2bf6836b55)" style="fill: none; stroke: #f45b69; stroke-width: 3; stroke-linecap: square"/>
   </g>
   <g id="line2d_34">
    <path d="M 254.361305 59.358281 
L 254.361305 32.358281 
" clip-path="url(#p2bf6836b55)" style="fill: none; stroke: #f45b69; stroke-width: 3; stroke-linecap: square"/>
   </g>
   <g id="line2d_35">
    <path d="M 260.572808 59.358281 
L 260.572808 32.358281 
" clip-path="url(#p2bf6836b55)" style="fill: none; stroke: #f45b69; stroke-width: 3; stroke-linecap: square"/>
   </g>
   <g id="line2d_36">
    <path d="M 266.78431 59.358281 
L 266.78431 32.358281 
" clip-path="url(#p2bf6836b55)" style="fill: none; stroke: #f45b69; stroke-width: 3; stroke-linecap: square"/>
   </g>
   <g id="line2d_37">
    <path d="M 272.995813 59.358281 
L 272.995813 32.358281 
" clip-path="url(#p2bf6836b55)" style="fill: none; stroke: #f45b69; stroke-width: 3; stroke-linecap: square"/>
   </g>
   <g id="line2d_38">
    <path d="M 279.207316 59.358281 
L 279.207316 32.358281 
" clip-path="url(#p2bf6836b55)" style="fill: none; stroke: #f45b69; stroke-width: 3; stroke-linecap: square"/>
   </g>
   <g id="line2d_39">
    <path d="M 285.418819 59.358281 
L 285.418819 32.358281 
" clip-path="url(#p2bf6836b55)" style="fill: none; stroke: #f45b69; stroke-width: 3; stroke-linecap: square"/>
   </g>
   <g id="line2d_40">
    <path d="M 291.630322 59.358281 
L 291.630322 32.358281 
" clip-path="url(#p2bf6836b55)" style="fill: none; stroke: #f45b69; stroke-width: 3; stroke-linecap: square"/>
   </g>
   <g id="line2d_41">
    <path d="M 297.841824 59.358281 
L 297.841824 86.358281 
" clip-path="url(#p2bf6836b55)" style="fill: none; stroke: #2a9df4; stroke-width: 3; stroke-linecap: square"/>
   </g>
   <g id="line2d_42">
    <path d="M 304.053327 59.358281 
L 304.053327 86.358281 
" clip-path="url(#p2bf6836b55)" style="fill: none; stroke: #2a9df4; stroke-width: 3; stroke-linecap: square"/>
   </g>
   <g id="line2d_43">
    <path d="M 310.26483 59.358281 
L 310.26483 86.358281 
" clip-path="url(#p2bf6836b55)" style="fill: none; stroke: #2a9df4; stroke-width: 3; stroke-linecap: square"/>
   </g>
   <g id="line2d_44">
    <path d="M 316.476333 59.358281 
L 316.476333 86.358281 
" clip-path="url(#p2bf6836b55)" style="fill: none; stroke: #2a9df4; stroke-width: 3; stroke-linecap: square"/>
   </g>
   <g id="line2d_45">
    <path d="M 322.687836 59.358281 
L 322.687836 86.358281 
" clip-path="url(#p2bf6836b55)" style="fill: none; stroke: #2a9df4; stroke-width: 3; stroke-linecap: square"/>
   </g>
   <g id="line2d_46">
    <path d="M 328.899338 59.358281 
L 328.899338 86.358281 
" clip-path="url(#p2bf6836b55)" style="fill: none; stroke: #2a9df4; stroke-width: 3; stroke-linecap: square"/>
   </g>
   <g id="line2d_47">
    <path d="M 335.110841 59.358281 
L 335.110841 86.358281 
" clip-path="url(#p2bf6836b55)" style="fill: none; stroke: #2a9df4; stroke-width: 3; stroke-linecap: square"/>
   </g>
   <g id="line2d_48">
    <path d="M 341.322344 59.358281 
L 341.322344 86.358281 
" clip-path="url(#p2bf6836b55)" style="fill: none; stroke: #2a9df4; stroke-width: 3; stroke-linecap: square"/>
   </g>
   <g id="line2d_49">
    <path d="M 347.533847 59.358281 
L 347.533847 86.358281 
" clip-path="url(#p2bf6836b55)" style="fill: none; stroke: #2a9df4; stroke-width: 3; stroke-linecap: square"/>
   </g>
   <g id="line2d_50">
    <path d="M 353.745349 59.358281 
L 353.745349 86.358281 
" clip-path="url(#p2bf6836b55)" style="fill: none; stroke: #2a9df4; stroke-width: 3; stroke-linecap: square"/>
   </g>
   <g id="line2d_51">
    <path d="M 49.381713 59.358281 
L 353.745349 59.358281 
" clip-path="url(#p2bf6836b55)" style="fill: none; stroke: #000000; stroke-width: 3; stroke-linecap: square"/>
   </g>
   <g id="text_2">
    <!-- Structured environment: two-armed bandit -->
    <g transform="translate(82.969781 15.558281) scale(0.11 -0.11)">
     <defs>
      <path id="DejaVuSans-53" d="M 3425 4513 
L 3425 3897 
Q 3066 4069 2747 4153 
Q 2428 4238 2131 4238 
Q 1616 4238 1336 4038 
Q 1056 3838 1056 3469 
Q 1056 3159 1242 3001 
Q 1428 2844 1947 2747 
L 2328 2669 
Q 3034 2534 3370 2195 
Q 3706 1856 3706 1288 
Q 3706 609 3251 259 
Q 2797 -91 1919 -91 
Q 1588 -91 1214 -16 
Q 841 59 441 206 
L 441 856 
Q 825 641 1194 531 
Q 1563 422 1919 422 
Q 2459 422 2753 634 
Q 3047 847 3047 1241 
Q 3047 1584 2836 1778 
Q 2625 1972 2144 2069 
L 1759 2144 
Q 1053 2284 737 2584 
Q 422 2884 422 3419 
Q 422 4038 858 4394 
Q 1294 4750 2059 4750 
Q 2388 4750 2728 4690 
Q 3069 4631 3425 4513 
z
" transform="scale(0.015625)"/>
      <path id="DejaVuSans-63" d="M 3122 3366 
L 3122 2828 
Q 2878 2963 2633 3030 
Q 2388 3097 2138 3097 
Q 1578 3097 1268 2742 
Q 959 2388 959 1747 
Q 959 1106 1268 751 
Q 1578 397 2138 397 
Q 2388 397 2633 464 
Q 2878 531 3122 666 
L 3122 134 
Q 2881 22 2623 -34 
Q 2366 -91 2075 -91 
Q 1284 -91 818 406 
Q 353 903 353 1747 
Q 353 2603 823 3093 
Q 1294 3584 2113 3584 
Q 2378 3584 2631 3529 
Q 2884 3475 3122 3366 
z
" transform="scale(0.015625)"/>
      <path id="DejaVuSans-64" d="M 2906 2969 
L 2906 4863 
L 3481 4863 
L 3481 0 
L 2906 0 
L 2906 525 
Q 2725 213 2448 61 
Q 2172 -91 1784 -91 
Q 1150 -91 751 415 
Q 353 922 353 1747 
Q 353 2572 751 3078 
Q 1150 3584 1784 3584 
Q 2172 3584 2448 3432 
Q 2725 3281 2906 2969 
z
M 947 1747 
Q 947 1113 1208 752 
Q 1469 391 1925 391 
Q 2381 391 2643 752 
Q 2906 1113 2906 1747 
Q 2906 2381 2643 2742 
Q 2381 3103 1925 3103 
Q 1469 3103 1208 2742 
Q 947 2381 947 1747 
z
" transform="scale(0.015625)"/>
      <path id="DejaVuSans-76" d="M 191 3500 
L 800 3500 
L 1894 563 
L 2988 3500 
L 3597 3500 
L 2284 0 
L 1503 0 
L 191 3500 
z
" transform="scale(0.015625)"/>
      <path id="DejaVuSans-69" d="M 603 3500 
L 1178 3500 
L 1178 0 
L 603 0 
L 603 3500 
z
M 603 4863 
L 1178 4863 
L 1178 4134 
L 603 4134 
L 603 4863 
z
" transform="scale(0.015625)"/>
      <path id="DejaVuSans-3a" d="M 750 794 
L 1409 794 
L 1409 0 
L 750 0 
L 750 794 
z
M 750 3309 
L 1409 3309 
L 1409 2516 
L 750 2516 
L 750 3309 
z
" transform="scale(0.015625)"/>
      <path id="DejaVuSans-77" d="M 269 3500 
L 844 3500 
L 1563 769 
L 2278 3500 
L 2956 3500 
L 3675 769 
L 4391 3500 
L 4966 3500 
L 4050 0 
L 3372 0 
L 2619 2869 
L 1863 0 
L 1184 0 
L 269 3500 
z
" transform="scale(0.015625)"/>
      <path id="DejaVuSans-2d" d="M 313 2009 
L 1997 2009 
L 1997 1497 
L 313 1497 
L 313 2009 
z
" transform="scale(0.015625)"/>
      <path id="DejaVuSans-61" d="M 2194 1759 
Q 1497 1759 1228 1600 
Q 959 1441 959 1056 
Q 959 750 1161 570 
Q 1363 391 1709 391 
Q 2188 391 2477 730 
Q 2766 1069 2766 1631 
L 2766 1759 
L 2194 1759 
z
M 3341 1997 
L 3341 0 
L 2766 0 
L 2766 531 
Q 2569 213 2275 61 
Q 1981 -91 1556 -91 
Q 1019 -91 701 211 
Q 384 513 384 1019 
Q 384 1609 779 1909 
Q 1175 2209 1959 2209 
L 2766 2209 
L 2766 2266 
Q 2766 2663 2505 2880 
Q 2244 3097 1772 3097 
Q 1472 3097 1187 3025 
Q 903 2953 641 2809 
L 641 3341 
Q 956 3463 1253 3523 
Q 1550 3584 1831 3584 
Q 2591 3584 2966 3190 
Q 3341 2797 3341 1997 
z
" transform="scale(0.015625)"/>
      <path id="DejaVuSans-62" d="M 3116 1747 
Q 3116 2381 2855 2742 
Q 2594 3103 2138 3103 
Q 1681 3103 1420 2742 
Q 1159 2381 1159 1747 
Q 1159 1113 1420 752 
Q 1681 391 2138 391 
Q 2594 391 2855 752 
Q 3116 1113 3116 1747 
z
M 1159 2969 
Q 1341 3281 1617 3432 
Q 1894 3584 2278 3584 
Q 2916 3584 3314 3078 
Q 3713 2572 3713 1747 
Q 3713 922 3314 415 
Q 2916 -91 2278 -91 
Q 1894 -91 1617 61 
Q 1341 213 1159 525 
L 1159 0 
L 581 0 
L 581 4863 
L 1159 4863 
L 1159 2969 
z
" transform="scale(0.015625)"/>
     </defs>
     <use xlink:href="#DejaVuSans-53"/>
     <use xlink:href="#DejaVuSans-74" transform="translate(63.476562 0)"/>
     <use xlink:href="#DejaVuSans-72" transform="translate(102.685547 0)"/>
     <use xlink:href="#DejaVuSans-75" transform="translate(143.798828 0)"/>
     <use xlink:href="#DejaVuSans-63" transform="translate(207.177734 0)"/>
     <use xlink:href="#DejaVuSans-74" transform="translate(262.158203 0)"/>
     <use xlink:href="#DejaVuSans-75" transform="translate(301.367188 0)"/>
     <use xlink:href="#DejaVuSans-72" transform="translate(364.746094 0)"/>
     <use xlink:href="#DejaVuSans-65" transform="translate(403.609375 0)"/>
     <use xlink:href="#DejaVuSans-64" transform="translate(465.132812 0)"/>
     <use xlink:href="#DejaVuSans-20" transform="translate(528.609375 0)"/>
     <use xlink:href="#DejaVuSans-65" transform="translate(560.396484 0)"/>
     <use xlink:href="#DejaVuSans-6e" transform="translate(621.919922 0)"/>
     <use xlink:href="#DejaVuSans-76" transform="translate(685.298828 0)"/>
     <use xlink:href="#DejaVuSans-69" transform="translate(744.478516 0)"/>
     <use xlink:href="#DejaVuSans-72" transform="translate(772.261719 0)"/>
     <use xlink:href="#DejaVuSans-6f" transform="translate(811.125 0)"/>
     <use xlink:href="#DejaVuSans-6e" transform="translate(872.306641 0)"/>
     <use xlink:href="#DejaVuSans-6d" transform="translate(935.685547 0)"/>
     <use xlink:href="#DejaVuSans-65" transform="translate(1033.097656 0)"/>
     <use xlink:href="#DejaVuSans-6e" transform="translate(1094.621094 0)"/>
     <use xlink:href="#DejaVuSans-74" transform="translate(1158 0)"/>
     <use xlink:href="#DejaVuSans-3a" transform="translate(1197.208984 0)"/>
     <use xlink:href="#DejaVuSans-20" transform="translate(1230.900391 0)"/>
     <use xlink:href="#DejaVuSans-74" transform="translate(1262.6875 0)"/>
     <use xlink:href="#DejaVuSans-77" transform="translate(1301.896484 0)"/>
     <use xlink:href="#DejaVuSans-6f" transform="translate(1383.683594 0)"/>
     <use xlink:href="#DejaVuSans-2d" transform="translate(1446.740234 0)"/>
     <use xlink:href="#DejaVuSans-61" transform="translate(1482.824219 0)"/>
     <use xlink:href="#DejaVuSans-72" transform="translate(1544.103516 0)"/>
     <use xlink:href="#DejaVuSans-6d" transform="translate(1583.466797 0)"/>
     <use xlink:href="#DejaVuSans-65" transform="translate(1680.878906 0)"/>
     <use xlink:href="#DejaVuSans-64" transform="translate(1742.402344 0)"/>
     <use xlink:href="#DejaVuSans-20" transform="translate(1805.878906 0)"/>
     <use xlink:href="#DejaVuSans-62" transform="translate(1837.666016 0)"/>
     <use xlink:href="#DejaVuSans-61" transform="translate(1901.142578 0)"/>
     <use xlink:href="#DejaVuSans-6e" transform="translate(1962.421875 0)"/>
     <use xlink:href="#DejaVuSans-64" transform="translate(2025.800781 0)"/>
     <use xlink:href="#DejaVuSans-69" transform="translate(2089.277344 0)"/>
     <use xlink:href="#DejaVuSans-74" transform="translate(2117.060547 0)"/>
    </g>
   </g>
  </g>
  <g id="axes_2">
   <g id="patch_3">
    <path d="M 34.163531 187.878281 
L 368.963531 187.878281 
L 368.963531 112.278281 
L 34.163531 112.278281 
L 34.163531 187.878281 
z
" style="fill: none"/>
   </g>
   <g id="PathCollection_1">
    <path d="M 49.381713 185.978281 
C 50.309924 185.978281 51.200243 185.609499 51.856587 184.953155 
C 52.512931 184.296811 52.881713 183.406492 52.881713 182.478281 
C 52.881713 181.55007 52.512931 180.659752 51.856587 180.003408 
C 51.200243 179.347063 50.309924 178.978281 49.381713 178.978281 
C 48.453502 178.978281 47.563184 179.347063 46.906839 180.003408 
C 46.250495 180.659752 45.881713 181.55007 45.881713 182.478281 
C 45.881713 183.406492 46.250495 184.296811 46.906839 184.953155 
C 47.563184 185.609499 48.453502 185.978281 49.381713 185.978281 
L 49.381713 185.978281 
z
" clip-path="url(#p99b4c3c061)" style="fill: none; stroke: #2a9df4; stroke-width: 2"/>
   </g>
   <g id="PathCollection_2">
    <path d="M 55.593216 185.978281 
C 56.521427 185.978281 57.411745 185.609499 58.06809 184.953155 
C 58.724434 184.296811 59.093216 183.406492 59.093216 182.478281 
C 59.093216 181.55007 58.724434 180.659752 58.06809 180.003408 
C 57.411745 179.347063 56.521427 178.978281 55.593216 178.978281 
C 54.665005 178.978281 53.774686 179.347063 53.118342 180.003408 
C 52.461998 180.659752 52.093216 181.55007 52.093216 182.478281 
C 52.093216 183.406492 52.461998 184.296811 53.118342 184.953155 
C 53.774686 185.609499 54.665005 185.978281 55.593216 185.978281 
L 55.593216 185.978281 
z
" clip-path="url(#p99b4c3c061)" style="fill: none; stroke: #2a9df4; stroke-width: 2"/>
   </g>
   <g id="PathCollection_3">
    <path d="M 61.804719 185.978281 
C 62.732929 185.978281 63.623248 185.609499 64.279592 184.953155 
C 64.935937 184.296811 65.304719 183.406492 65.304719 182.478281 
C 65.304719 181.55007 64.935937 180.659752 64.279592 180.003408 
C 63.623248 179.347063 62.732929 178.978281 61.804719 178.978281 
C 60.876508 178.978281 59.986189 179.347063 59.329845 180.003408 
C 58.673501 180.659752 58.304719 181.55007 58.304719 182.478281 
C 58.304719 183.406492 58.673501 184.296811 59.329845 184.953155 
C 59.986189 185.609499 60.876508 185.978281 61.804719 185.978281 
L 61.804719 185.978281 
z
" clip-path="url(#p99b4c3c061)" style="fill: none; stroke: #2a9df4; stroke-width: 2"/>
   </g>
   <g id="PathCollection_4">
    <path d="M 68.016221 185.978281 
C 68.944432 185.978281 69.834751 185.609499 70.491095 184.953155 
C 71.147439 184.296811 71.516221 183.406492 71.516221 182.478281 
C 71.516221 181.55007 71.147439 180.659752 70.491095 180.003408 
C 69.834751 179.347063 68.944432 178.978281 68.016221 178.978281 
C 67.088011 178.978281 66.197692 179.347063 65.541348 180.003408 
C 64.885003 180.659752 64.516221 181.55007 64.516221 182.478281 
C 64.516221 183.406492 64.885003 184.296811 65.541348 184.953155 
C 66.197692 185.609499 67.088011 185.978281 68.016221 185.978281 
L 68.016221 185.978281 
z
" clip-path="url(#p99b4c3c061)" style="fill: none; stroke: #2a9df4; stroke-width: 2"/>
   </g>
   <g id="PathCollection_5">
    <path d="M 74.227724 185.978281 
C 75.155935 185.978281 76.046254 185.609499 76.702598 184.953155 
C 77.358942 184.296811 77.727724 183.406492 77.727724 182.478281 
C 77.727724 181.55007 77.358942 180.659752 76.702598 180.003408 
C 76.046254 179.347063 75.155935 178.978281 74.227724 178.978281 
C 73.299513 178.978281 72.409195 179.347063 71.75285 180.003408 
C 71.096506 180.659752 70.727724 181.55007 70.727724 182.478281 
C 70.727724 183.406492 71.096506 184.296811 71.75285 184.953155 
C 72.409195 185.609499 73.299513 185.978281 74.227724 185.978281 
L 74.227724 185.978281 
z
" clip-path="url(#p99b4c3c061)" style="fill: none; stroke: #2a9df4; stroke-width: 2"/>
   </g>
   <g id="PathCollection_6">
    <path d="M 80.439227 185.978281 
C 81.367438 185.978281 82.257757 185.609499 82.914101 184.953155 
C 83.570445 184.296811 83.939227 183.406492 83.939227 182.478281 
C 83.939227 181.55007 83.570445 180.659752 82.914101 180.003408 
C 82.257757 179.347063 81.367438 178.978281 80.439227 178.978281 
C 79.511016 178.978281 78.620697 179.347063 77.964353 180.003408 
C 77.308009 180.659752 76.939227 181.55007 76.939227 182.478281 
C 76.939227 183.406492 77.308009 184.296811 77.964353 184.953155 
C 78.620697 185.609499 79.511016 185.978281 80.439227 185.978281 
L 80.439227 185.978281 
z
" clip-path="url(#p99b4c3c061)" style="fill: none; stroke: #2a9df4; stroke-width: 2"/>
   </g>
   <g id="PathCollection_7">
    <path d="M 86.65073 185.978281 
C 87.578941 185.978281 88.469259 185.609499 89.125603 184.953155 
C 89.781948 184.296811 90.15073 183.406492 90.15073 182.478281 
C 90.15073 181.55007 89.781948 180.659752 89.125603 180.003408 
C 88.469259 179.347063 87.578941 178.978281 86.65073 178.978281 
C 85.722519 178.978281 84.8322 179.347063 84.175856 180.003408 
C 83.519512 180.659752 83.15073 181.55007 83.15073 182.478281 
C 83.15073 183.406492 83.519512 184.296811 84.175856 184.953155 
C 84.8322 185.609499 85.722519 185.978281 86.65073 185.978281 
L 86.65073 185.978281 
z
" clip-path="url(#p99b4c3c061)" style="fill: none; stroke: #2a9df4; stroke-width: 2"/>
   </g>
   <g id="PathCollection_8">
    <path d="M 92.862233 185.978281 
C 93.790443 185.978281 94.680762 185.609499 95.337106 184.953155 
C 95.99345 184.296811 96.362233 183.406492 96.362233 182.478281 
C 96.362233 181.55007 95.99345 180.659752 95.337106 180.003408 
C 94.680762 179.347063 93.790443 178.978281 92.862233 178.978281 
C 91.934022 178.978281 91.043703 179.347063 90.387359 180.003408 
C 89.731015 180.659752 89.362233 181.55007 89.362233 182.478281 
C 89.362233 183.406492 89.731015 184.296811 90.387359 184.953155 
C 91.043703 185.609499 91.934022 185.978281 92.862233 185.978281 
L 92.862233 185.978281 
z
" clip-path="url(#p99b4c3c061)" style="fill: none; stroke: #2a9df4; stroke-width: 2"/>
   </g>
   <g id="PathCollection_9">
    <path d="M 99.073735 185.978281 
C 100.001946 185.978281 100.892265 185.609499 101.548609 184.953155 
C 102.204953 184.296811 102.573735 183.406492 102.573735 182.478281 
C 102.573735 181.55007 102.204953 180.659752 101.548609 180.003408 
C 100.892265 179.347063 100.001946 178.978281 99.073735 178.978281 
C 98.145524 178.978281 97.255206 179.347063 96.598862 180.003408 
C 95.942517 180.659752 95.573735 181.55007 95.573735 182.478281 
C 95.573735 183.406492 95.942517 184.296811 96.598862 184.953155 
C 97.255206 185.609499 98.145524 185.978281 99.073735 185.978281 
L 99.073735 185.978281 
z
" clip-path="url(#p99b4c3c061)" style="fill: none; stroke: #2a9df4; stroke-width: 2"/>
   </g>
   <g id="PathCollection_10">
    <path d="M 105.285238 185.978281 
C 106.213449 185.978281 107.103768 185.609499 107.760112 184.953155 
C 108.416456 184.296811 108.785238 183.406492 108.785238 182.478281 
C 108.785238 181.55007 108.416456 180.659752 107.760112 180.003408 
C 107.103768 179.347063 106.213449 178.978281 105.285238 178.978281 
C 104.357027 178.978281 103.466709 179.347063 102.810364 180.003408 
C 102.15402 180.659752 101.785238 181.55007 101.785238 182.478281 
C 101.785238 183.406492 102.15402 184.296811 102.810364 184.953155 
C 103.466709 185.609499 104.357027 185.978281 105.285238 185.978281 
L 105.285238 185.978281 
z
" clip-path="url(#p99b4c3c061)" style="fill: none; stroke: #2a9df4; stroke-width: 2"/>
   </g>
   <g id="PathCollection_11">
    <path d="M 111.496741 121.178281 
C 112.424952 121.178281 113.31527 120.809499 113.971615 120.153155 
C 114.627959 119.496811 114.996741 118.606492 114.996741 117.678281 
C 114.996741 116.75007 114.627959 115.859752 113.971615 115.203408 
C 113.31527 114.547063 112.424952 114.178281 111.496741 114.178281 
C 110.56853 114.178281 109.678211 114.547063 109.021867 115.203408 
C 108.365523 115.859752 107.996741 116.75007 107.996741 117.678281 
C 107.996741 118.606492 108.365523 119.496811 109.021867 120.153155 
C 109.678211 120.809499 110.56853 121.178281 111.496741 121.178281 
L 111.496741 121.178281 
z
" clip-path="url(#p99b4c3c061)" style="fill: none; stroke: #f45b69; stroke-width: 2"/>
   </g>
   <g id="PathCollection_12">
    <path d="M 117.708244 121.178281 
C 118.636455 121.178281 119.526773 120.809499 120.183117 120.153155 
C 120.839462 119.496811 121.208244 118.606492 121.208244 117.678281 
C 121.208244 116.75007 120.839462 115.859752 120.183117 115.203408 
C 119.526773 114.547063 118.636455 114.178281 117.708244 114.178281 
C 116.780033 114.178281 115.889714 114.547063 115.23337 115.203408 
C 114.577026 115.859752 114.208244 116.75007 114.208244 117.678281 
C 114.208244 118.606492 114.577026 119.496811 115.23337 120.153155 
C 115.889714 120.809499 116.780033 121.178281 117.708244 121.178281 
L 117.708244 121.178281 
z
" clip-path="url(#p99b4c3c061)" style="fill: none; stroke: #f45b69; stroke-width: 2"/>
   </g>
   <g id="PathCollection_13">
    <path d="M 123.919746 121.178281 
C 124.847957 121.178281 125.738276 120.809499 126.39462 120.153155 
C 127.050964 119.496811 127.419746 118.606492 127.419746 117.678281 
C 127.419746 116.75007 127.050964 115.859752 126.39462 115.203408 
C 125.738276 114.547063 124.847957 114.178281 123.919746 114.178281 
C 122.991536 114.178281 122.101217 114.547063 121.444873 115.203408 
C 120.788529 115.859752 120.419746 116.75007 120.419746 117.678281 
C 120.419746 118.606492 120.788529 119.496811 121.444873 120.153155 
C 122.101217 120.809499 122.991536 121.178281 123.919746 121.178281 
L 123.919746 121.178281 
z
" clip-path="url(#p99b4c3c061)" style="fill: none; stroke: #f45b69; stroke-width: 2"/>
   </g>
   <g id="PathCollection_14">
    <path d="M 130.131249 121.178281 
C 131.05946 121.178281 131.949779 120.809499 132.606123 120.153155 
C 133.262467 119.496811 133.631249 118.606492 133.631249 117.678281 
C 133.631249 116.75007 133.262467 115.859752 132.606123 115.203408 
C 131.949779 114.547063 131.05946 114.178281 130.131249 114.178281 
C 129.203038 114.178281 128.31272 114.547063 127.656376 115.203408 
C 127.000031 115.859752 126.631249 116.75007 126.631249 117.678281 
C 126.631249 118.606492 127.000031 119.496811 127.656376 120.153155 
C 128.31272 120.809499 129.203038 121.178281 130.131249 121.178281 
L 130.131249 121.178281 
z
" clip-path="url(#p99b4c3c061)" style="fill: none; stroke: #f45b69; stroke-width: 2"/>
   </g>
   <g id="PathCollection_15">
    <path d="M 136.342752 121.178281 
C 137.270963 121.178281 138.161282 120.809499 138.817626 120.153155 
C 139.47397 119.496811 139.842752 118.606492 139.842752 117.678281 
C 139.842752 116.75007 139.47397 115.859752 138.817626 115.203408 
C 138.161282 114.547063 137.270963 114.178281 136.342752 114.178281 
C 135.414541 114.178281 134.524222 114.547063 133.867878 115.203408 
C 133.211534 115.859752 132.842752 116.75007 132.842752 117.678281 
C 132.842752 118.606492 133.211534 119.496811 133.867878 120.153155 
C 134.524222 120.809499 135.414541 121.178281 136.342752 121.178281 
L 136.342752 121.178281 
z
" clip-path="url(#p99b4c3c061)" style="fill: none; stroke: #f45b69; stroke-width: 2"/>
   </g>
   <g id="PathCollection_16">
    <path d="M 142.554255 121.178281 
C 143.482466 121.178281 144.372784 120.809499 145.029129 120.153155 
C 145.685473 119.496811 146.054255 118.606492 146.054255 117.678281 
C 146.054255 116.75007 145.685473 115.859752 145.029129 115.203408 
C 144.372784 114.547063 143.482466 114.178281 142.554255 114.178281 
C 141.626044 114.178281 140.735725 114.547063 140.079381 115.203408 
C 139.423037 115.859752 139.054255 116.75007 139.054255 117.678281 
C 139.054255 118.606492 139.423037 119.496811 140.079381 120.153155 
C 140.735725 120.809499 141.626044 121.178281 142.554255 121.178281 
L 142.554255 121.178281 
z
" clip-path="url(#p99b4c3c061)" style="fill: none; stroke: #f45b69; stroke-width: 2"/>
   </g>
   <g id="PathCollection_17">
    <path d="M 148.765758 121.178281 
C 149.693968 121.178281 150.584287 120.809499 151.240631 120.153155 
C 151.896976 119.496811 152.265758 118.606492 152.265758 117.678281 
C 152.265758 116.75007 151.896976 115.859752 151.240631 115.203408 
C 150.584287 114.547063 149.693968 114.178281 148.765758 114.178281 
C 147.837547 114.178281 146.947228 114.547063 146.290884 115.203408 
C 145.63454 115.859752 145.265758 116.75007 145.265758 117.678281 
C 145.265758 118.606492 145.63454 119.496811 146.290884 120.153155 
C 146.947228 120.809499 147.837547 121.178281 148.765758 121.178281 
L 148.765758 121.178281 
z
" clip-path="url(#p99b4c3c061)" style="fill: none; stroke: #f45b69; stroke-width: 2"/>
   </g>
   <g id="PathCollection_18">
    <path d="M 154.97726 121.178281 
C 155.905471 121.178281 156.79579 120.809499 157.452134 120.153155 
C 158.108478 119.496811 158.47726 118.606492 158.47726 117.678281 
C 158.47726 116.75007 158.108478 115.859752 157.452134 115.203408 
C 156.79579 114.547063 155.905471 114.178281 154.97726 114.178281 
C 154.04905 114.178281 153.158731 114.547063 152.502387 115.203408 
C 151.846042 115.859752 151.47726 116.75007 151.47726 117.678281 
C 151.47726 118.606492 151.846042 119.496811 152.502387 120.153155 
C 153.158731 120.809499 154.04905 121.178281 154.97726 121.178281 
L 154.97726 121.178281 
z
" clip-path="url(#p99b4c3c061)" style="fill: none; stroke: #f45b69; stroke-width: 2"/>
   </g>
   <g id="PathCollection_19">
    <path d="M 161.188763 121.178281 
C 162.116974 121.178281 163.007293 120.809499 163.663637 120.153155 
C 164.319981 119.496811 164.688763 118.606492 164.688763 117.678281 
C 164.688763 116.75007 164.319981 115.859752 163.663637 115.203408 
C 163.007293 114.547063 162.116974 114.178281 161.188763 114.178281 
C 160.260552 114.178281 159.370234 114.547063 158.713889 115.203408 
C 158.057545 115.859752 157.688763 116.75007 157.688763 117.678281 
C 157.688763 118.606492 158.057545 119.496811 158.713889 120.153155 
C 159.370234 120.809499 160.260552 121.178281 161.188763 121.178281 
L 161.188763 121.178281 
z
" clip-path="url(#p99b4c3c061)" style="fill: none; stroke: #f45b69; stroke-width: 2"/>
   </g>
   <g id="PathCollection_20">
    <path d="M 167.400266 121.178281 
C 168.328477 121.178281 169.218795 120.809499 169.87514 120.153155 
C 170.531484 119.496811 170.900266 118.606492 170.900266 117.678281 
C 170.900266 116.75007 170.531484 115.859752 169.87514 115.203408 
C 169.218795 114.547063 168.328477 114.178281 167.400266 114.178281 
C 166.472055 114.178281 165.581736 114.547063 164.925392 115.203408 
C 164.269048 115.859752 163.900266 116.75007 163.900266 117.678281 
C 163.900266 118.606492 164.269048 119.496811 164.925392 120.153155 
C 165.581736 120.809499 166.472055 121.178281 167.400266 121.178281 
L 167.400266 121.178281 
z
" clip-path="url(#p99b4c3c061)" style="fill: none; stroke: #f45b69; stroke-width: 2"/>
   </g>
   <g id="PathCollection_21">
    <path d="M 173.611769 185.978281 
C 174.53998 185.978281 175.430298 185.609499 176.086642 184.953155 
C 176.742987 184.296811 177.111769 183.406492 177.111769 182.478281 
C 177.111769 181.55007 176.742987 180.659752 176.086642 180.003408 
C 175.430298 179.347063 174.53998 178.978281 173.611769 178.978281 
C 172.683558 178.978281 171.793239 179.347063 171.136895 180.003408 
C 170.480551 180.659752 170.111769 181.55007 170.111769 182.478281 
C 170.111769 183.406492 170.480551 184.296811 171.136895 184.953155 
C 171.793239 185.609499 172.683558 185.978281 173.611769 185.978281 
L 173.611769 185.978281 
z
" clip-path="url(#p99b4c3c061)" style="fill: none; stroke: #2a9df4; stroke-width: 2"/>
   </g>
   <g id="PathCollection_22">
    <path d="M 179.823272 185.978281 
C 180.751482 185.978281 181.641801 185.609499 182.298145 184.953155 
C 182.954489 184.296811 183.323272 183.406492 183.323272 182.478281 
C 183.323272 181.55007 182.954489 180.659752 182.298145 180.003408 
C 181.641801 179.347063 180.751482 178.978281 179.823272 178.978281 
C 178.895061 178.978281 178.004742 179.347063 177.348398 180.003408 
C 176.692054 180.659752 176.323272 181.55007 176.323272 182.478281 
C 176.323272 183.406492 176.692054 184.296811 177.348398 184.953155 
C 178.004742 185.609499 178.895061 185.978281 179.823272 185.978281 
L 179.823272 185.978281 
z
" clip-path="url(#p99b4c3c061)" style="fill: none; stroke: #2a9df4; stroke-width: 2"/>
   </g>
   <g id="PathCollection_23">
    <path d="M 186.034774 185.978281 
C 186.962985 185.978281 187.853304 185.609499 188.509648 184.953155 
C 189.165992 184.296811 189.534774 183.406492 189.534774 182.478281 
C 189.534774 181.55007 189.165992 180.659752 188.509648 180.003408 
C 187.853304 179.347063 186.962985 178.978281 186.034774 178.978281 
C 185.106563 178.978281 184.216245 179.347063 183.559901 180.003408 
C 182.903556 180.659752 182.534774 181.55007 182.534774 182.478281 
C 182.534774 183.406492 182.903556 184.296811 183.559901 184.953155 
C 184.216245 185.609499 185.106563 185.978281 186.034774 185.978281 
L 186.034774 185.978281 
z
" clip-path="url(#p99b4c3c061)" style="fill: none; stroke: #2a9df4; stroke-width: 2"/>
   </g>
   <g id="PathCollection_24">
    <path d="M 192.246277 185.978281 
C 193.174488 185.978281 194.064807 185.609499 194.721151 184.953155 
C 195.377495 184.296811 195.746277 183.406492 195.746277 182.478281 
C 195.746277 181.55007 195.377495 180.659752 194.721151 180.003408 
C 194.064807 179.347063 193.174488 178.978281 192.246277 178.978281 
C 191.318066 178.978281 190.427748 179.347063 189.771403 180.003408 
C 189.115059 180.659752 188.746277 181.55007 188.746277 182.478281 
C 188.746277 183.406492 189.115059 184.296811 189.771403 184.953155 
C 190.427748 185.609499 191.318066 185.978281 192.246277 185.978281 
L 192.246277 185.978281 
z
" clip-path="url(#p99b4c3c061)" style="fill: none; stroke: #2a9df4; stroke-width: 2"/>
   </g>
   <g id="PathCollection_25">
    <path d="M 198.45778 185.978281 
C 199.385991 185.978281 200.276309 185.609499 200.932654 184.953155 
C 201.588998 184.296811 201.95778 183.406492 201.95778 182.478281 
C 201.95778 181.55007 201.588998 180.659752 200.932654 180.003408 
C 200.276309 179.347063 199.385991 178.978281 198.45778 178.978281 
C 197.529569 178.978281 196.63925 179.347063 195.982906 180.003408 
C 195.326562 180.659752 194.95778 181.55007 194.95778 182.478281 
C 194.95778 183.406492 195.326562 184.296811 195.982906 184.953155 
C 196.63925 185.609499 197.529569 185.978281 198.45778 185.978281 
L 198.45778 185.978281 
z
" clip-path="url(#p99b4c3c061)" style="fill: none; stroke: #2a9df4; stroke-width: 2"/>
   </g>
   <g id="PathCollection_26">
    <path d="M 204.669283 185.978281 
C 205.597493 185.978281 206.487812 185.609499 207.144156 184.953155 
C 207.800501 184.296811 208.169283 183.406492 208.169283 182.478281 
C 208.169283 181.55007 207.800501 180.659752 207.144156 180.003408 
C 206.487812 179.347063 205.597493 178.978281 204.669283 178.978281 
C 203.741072 178.978281 202.850753 179.347063 202.194409 180.003408 
C 201.538065 180.659752 201.169283 181.55007 201.169283 182.478281 
C 201.169283 183.406492 201.538065 184.296811 202.194409 184.953155 
C 202.850753 185.609499 203.741072 185.978281 204.669283 185.978281 
L 204.669283 185.978281 
z
" clip-path="url(#p99b4c3c061)" style="fill: none; stroke: #2a9df4; stroke-width: 2"/>
   </g>
   <g id="PathCollection_27">
    <path d="M 210.880785 185.978281 
C 211.808996 185.978281 212.699315 185.609499 213.355659 184.953155 
C 214.012003 184.296811 214.380785 183.406492 214.380785 182.478281 
C 214.380785 181.55007 214.012003 180.659752 213.355659 180.003408 
C 212.699315 179.347063 211.808996 178.978281 210.880785 178.978281 
C 209.952575 178.978281 209.062256 179.347063 208.405912 180.003408 
C 207.749568 180.659752 207.380785 181.55007 207.380785 182.478281 
C 207.380785 183.406492 207.749568 184.296811 208.405912 184.953155 
C 209.062256 185.609499 209.952575 185.978281 210.880785 185.978281 
L 210.880785 185.978281 
z
" clip-path="url(#p99b4c3c061)" style="fill: none; stroke: #2a9df4; stroke-width: 2"/>
   </g>
   <g id="PathCollection_28">
    <path d="M 217.092288 185.978281 
C 218.020499 185.978281 218.910818 185.609499 219.567162 184.953155 
C 220.223506 184.296811 220.592288 183.406492 220.592288 182.478281 
C 220.592288 181.55007 220.223506 180.659752 219.567162 180.003408 
C 218.910818 179.347063 218.020499 178.978281 217.092288 178.978281 
C 216.164077 178.978281 215.273759 179.347063 214.617414 180.003408 
C 213.96107 180.659752 213.592288 181.55007 213.592288 182.478281 
C 213.592288 183.406492 213.96107 184.296811 214.617414 184.953155 
C 215.273759 185.609499 216.164077 185.978281 217.092288 185.978281 
L 217.092288 185.978281 
z
" clip-path="url(#p99b4c3c061)" style="fill: none; stroke: #2a9df4; stroke-width: 2"/>
   </g>
   <g id="PathCollection_29">
    <path d="M 223.303791 185.978281 
C 224.232002 185.978281 225.122321 185.609499 225.778665 184.953155 
C 226.435009 184.296811 226.803791 183.406492 226.803791 182.478281 
C 226.803791 181.55007 226.435009 180.659752 225.778665 180.003408 
C 225.122321 179.347063 224.232002 178.978281 223.303791 178.978281 
C 222.37558 178.978281 221.485261 179.347063 220.828917 180.003408 
C 220.172573 180.659752 219.803791 181.55007 219.803791 182.478281 
C 219.803791 183.406492 220.172573 184.296811 220.828917 184.953155 
C 221.485261 185.609499 222.37558 185.978281 223.303791 185.978281 
L 223.303791 185.978281 
z
" clip-path="url(#p99b4c3c061)" style="fill: none; stroke: #2a9df4; stroke-width: 2"/>
   </g>
   <g id="PathCollection_30">
    <path d="M 229.515294 185.978281 
C 230.443505 185.978281 231.333823 185.609499 231.990168 184.953155 
C 232.646512 184.296811 233.015294 183.406492 233.015294 182.478281 
C 233.015294 181.55007 232.646512 180.659752 231.990168 180.003408 
C 231.333823 179.347063 230.443505 178.978281 229.515294 178.978281 
C 228.587083 178.978281 227.696764 179.347063 227.04042 180.003408 
C 226.384076 180.659752 226.015294 181.55007 226.015294 182.478281 
C 226.015294 183.406492 226.384076 184.296811 227.04042 184.953155 
C 227.696764 185.609499 228.587083 185.978281 229.515294 185.978281 
L 229.515294 185.978281 
z
" clip-path="url(#p99b4c3c061)" style="fill: none; stroke: #2a9df4; stroke-width: 2"/>
   </g>
   <g id="PathCollection_31">
    <path d="M 235.726797 121.178281 
C 236.655007 121.178281 237.545326 120.809499 238.20167 120.153155 
C 238.858014 119.496811 239.226797 118.606492 239.226797 117.678281 
C 239.226797 116.75007 238.858014 115.859752 238.20167 115.203408 
C 237.545326 114.547063 236.655007 114.178281 235.726797 114.178281 
C 234.798586 114.178281 233.908267 114.547063 233.251923 115.203408 
C 232.595579 115.859752 232.226797 116.75007 232.226797 117.678281 
C 232.226797 118.606492 232.595579 119.496811 233.251923 120.153155 
C 233.908267 120.809499 234.798586 121.178281 235.726797 121.178281 
L 235.726797 121.178281 
z
" clip-path="url(#p99b4c3c061)" style="fill: none; stroke: #f45b69; stroke-width: 2"/>
   </g>
   <g id="PathCollection_32">
    <path d="M 241.938299 121.178281 
C 242.86651 121.178281 243.756829 120.809499 244.413173 120.153155 
C 245.069517 119.496811 245.438299 118.606492 245.438299 117.678281 
C 245.438299 116.75007 245.069517 115.859752 244.413173 115.203408 
C 243.756829 114.547063 242.86651 114.178281 241.938299 114.178281 
C 241.010088 114.178281 240.11977 114.547063 239.463426 115.203408 
C 238.807081 115.859752 238.438299 116.75007 238.438299 117.678281 
C 238.438299 118.606492 238.807081 119.496811 239.463426 120.153155 
C 240.11977 120.809499 241.010088 121.178281 241.938299 121.178281 
L 241.938299 121.178281 
z
" clip-path="url(#p99b4c3c061)" style="fill: none; stroke: #f45b69; stroke-width: 2"/>
   </g>
   <g id="PathCollection_33">
    <path d="M 248.149802 121.178281 
C 249.078013 121.178281 249.968332 120.809499 250.624676 120.153155 
C 251.28102 119.496811 251.649802 118.606492 251.649802 117.678281 
C 251.649802 116.75007 251.28102 115.859752 250.624676 115.203408 
C 249.968332 114.547063 249.078013 114.178281 248.149802 114.178281 
C 247.221591 114.178281 246.331273 114.547063 245.674928 115.203408 
C 245.018584 115.859752 244.649802 116.75007 244.649802 117.678281 
C 244.649802 118.606492 245.018584 119.496811 245.674928 120.153155 
C 246.331273 120.809499 247.221591 121.178281 248.149802 121.178281 
L 248.149802 121.178281 
z
" clip-path="url(#p99b4c3c061)" style="fill: none; stroke: #f45b69; stroke-width: 2"/>
   </g>
   <g id="PathCollection_34">
    <path d="M 254.361305 121.178281 
C 255.289516 121.178281 256.179834 120.809499 256.836179 120.153155 
C 257.492523 119.496811 257.861305 118.606492 257.861305 117.678281 
C 257.861305 116.75007 257.492523 115.859752 256.836179 115.203408 
C 256.179834 114.547063 255.289516 114.178281 254.361305 114.178281 
C 253.433094 114.178281 252.542775 114.547063 251.886431 115.203408 
C 251.230087 115.859752 250.861305 116.75007 250.861305 117.678281 
C 250.861305 118.606492 251.230087 119.496811 251.886431 120.153155 
C 252.542775 120.809499 253.433094 121.178281 254.361305 121.178281 
L 254.361305 121.178281 
z
" clip-path="url(#p99b4c3c061)" style="fill: none; stroke: #f45b69; stroke-width: 2"/>
   </g>
   <g id="PathCollection_35">
    <path d="M 260.572808 121.178281 
C 261.501019 121.178281 262.391337 120.809499 263.047681 120.153155 
C 263.704026 119.496811 264.072808 118.606492 264.072808 117.678281 
C 264.072808 116.75007 263.704026 115.859752 263.047681 115.203408 
C 262.391337 114.547063 261.501019 114.178281 260.572808 114.178281 
C 259.644597 114.178281 258.754278 114.547063 258.097934 115.203408 
C 257.44159 115.859752 257.072808 116.75007 257.072808 117.678281 
C 257.072808 118.606492 257.44159 119.496811 258.097934 120.153155 
C 258.754278 120.809499 259.644597 121.178281 260.572808 121.178281 
L 260.572808 121.178281 
z
" clip-path="url(#p99b4c3c061)" style="fill: none; stroke: #f45b69; stroke-width: 2"/>
   </g>
   <g id="PathCollection_36">
    <path d="M 266.78431 121.178281 
C 267.712521 121.178281 268.60284 120.809499 269.259184 120.153155 
C 269.915528 119.496811 270.28431 118.606492 270.28431 117.678281 
C 270.28431 116.75007 269.915528 115.859752 269.259184 115.203408 
C 268.60284 114.547063 267.712521 114.178281 266.78431 114.178281 
C 265.8561 114.178281 264.965781 114.547063 264.309437 115.203408 
C 263.653093 115.859752 263.28431 116.75007 263.28431 117.678281 
C 263.28431 118.606492 263.653093 119.496811 264.309437 120.153155 
C 264.965781 120.809499 265.8561 121.178281 266.78431 121.178281 
L 266.78431 121.178281 
z
" clip-path="url(#p99b4c3c061)" style="fill: none; stroke: #f45b69; stroke-width: 2"/>
   </g>
   <g id="PathCollection_37">
    <path d="M 272.995813 121.178281 
C 273.924024 121.178281 274.814343 120.809499 275.470687 120.153155 
C 276.127031 119.496811 276.495813 118.606492 276.495813 117.678281 
C 276.495813 116.75007 276.127031 115.859752 275.470687 115.203408 
C 274.814343 114.547063 273.924024 114.178281 272.995813 114.178281 
C 272.067602 114.178281 271.177284 114.547063 270.52094 115.203408 
C 269.864595 115.859752 269.495813 116.75007 269.495813 117.678281 
C 269.495813 118.606492 269.864595 119.496811 270.52094 120.153155 
C 271.177284 120.809499 272.067602 121.178281 272.995813 121.178281 
L 272.995813 121.178281 
z
" clip-path="url(#p99b4c3c061)" style="fill: none; stroke: #f45b69; stroke-width: 2"/>
   </g>
   <g id="PathCollection_38">
    <path d="M 279.207316 121.178281 
C 280.135527 121.178281 281.025846 120.809499 281.68219 120.153155 
C 282.338534 119.496811 282.707316 118.606492 282.707316 117.678281 
C 282.707316 116.75007 282.338534 115.859752 281.68219 115.203408 
C 281.025846 114.547063 280.135527 114.178281 279.207316 114.178281 
C 278.279105 114.178281 277.388786 114.547063 276.732442 115.203408 
C 276.076098 115.859752 275.707316 116.75007 275.707316 117.678281 
C 275.707316 118.606492 276.076098 119.496811 276.732442 120.153155 
C 277.388786 120.809499 278.279105 121.178281 279.207316 121.178281 
L 279.207316 121.178281 
z
" clip-path="url(#p99b4c3c061)" style="fill: none; stroke: #f45b69; stroke-width: 2"/>
   </g>
   <g id="PathCollection_39">
    <path d="M 285.418819 121.178281 
C 286.34703 121.178281 287.237348 120.809499 287.893693 120.153155 
C 288.550037 119.496811 288.918819 118.606492 288.918819 117.678281 
C 288.918819 116.75007 288.550037 115.859752 287.893693 115.203408 
C 287.237348 114.547063 286.34703 114.178281 285.418819 114.178281 
C 284.490608 114.178281 283.600289 114.547063 282.943945 115.203408 
C 282.287601 115.859752 281.918819 116.75007 281.918819 117.678281 
C 281.918819 118.606492 282.287601 119.496811 282.943945 120.153155 
C 283.600289 120.809499 284.490608 121.178281 285.418819 121.178281 
L 285.418819 121.178281 
z
" clip-path="url(#p99b4c3c061)" style="fill: none; stroke: #f45b69; stroke-width: 2"/>
   </g>
   <g id="PathCollection_40">
    <path d="M 291.630322 121.178281 
C 292.558532 121.178281 293.448851 120.809499 294.105195 120.153155 
C 294.76154 119.496811 295.130322 118.606492 295.130322 117.678281 
C 295.130322 116.75007 294.76154 115.859752 294.105195 115.203408 
C 293.448851 114.547063 292.558532 114.178281 291.630322 114.178281 
C 290.702111 114.178281 289.811792 114.547063 289.155448 115.203408 
C 288.499104 115.859752 288.130322 116.75007 288.130322 117.678281 
C 288.130322 118.606492 288.499104 119.496811 289.155448 120.153155 
C 289.811792 120.809499 290.702111 121.178281 291.630322 121.178281 
L 291.630322 121.178281 
z
" clip-path="url(#p99b4c3c061)" style="fill: none; stroke: #f45b69; stroke-width: 2"/>
   </g>
   <g id="PathCollection_41">
    <path d="M 297.841824 185.978281 
C 298.770035 185.978281 299.660354 185.609499 300.316698 184.953155 
C 300.973042 184.296811 301.341824 183.406492 301.341824 182.478281 
C 301.341824 181.55007 300.973042 180.659752 300.316698 180.003408 
C 299.660354 179.347063 298.770035 178.978281 297.841824 178.978281 
C 296.913614 178.978281 296.023295 179.347063 295.366951 180.003408 
C 294.710606 180.659752 294.341824 181.55007 294.341824 182.478281 
C 294.341824 183.406492 294.710606 184.296811 295.366951 184.953155 
C 296.023295 185.609499 296.913614 185.978281 297.841824 185.978281 
L 297.841824 185.978281 
z
" clip-path="url(#p99b4c3c061)" style="fill: none; stroke: #2a9df4; stroke-width: 2"/>
   </g>
   <g id="PathCollection_42">
    <path d="M 304.053327 185.978281 
C 304.981538 185.978281 305.871857 185.609499 306.528201 184.953155 
C 307.184545 184.296811 307.553327 183.406492 307.553327 182.478281 
C 307.553327 181.55007 307.184545 180.659752 306.528201 180.003408 
C 305.871857 179.347063 304.981538 178.978281 304.053327 178.978281 
C 303.125116 178.978281 302.234798 179.347063 301.578453 180.003408 
C 300.922109 180.659752 300.553327 181.55007 300.553327 182.478281 
C 300.553327 183.406492 300.922109 184.296811 301.578453 184.953155 
C 302.234798 185.609499 303.125116 185.978281 304.053327 185.978281 
L 304.053327 185.978281 
z
" clip-path="url(#p99b4c3c061)" style="fill: none; stroke: #2a9df4; stroke-width: 2"/>
   </g>
   <g id="PathCollection_43">
    <path d="M 310.26483 185.978281 
C 311.193041 185.978281 312.083359 185.609499 312.739704 184.953155 
C 313.396048 184.296811 313.76483 183.406492 313.76483 182.478281 
C 313.76483 181.55007 313.396048 180.659752 312.739704 180.003408 
C 312.083359 179.347063 311.193041 178.978281 310.26483 178.978281 
C 309.336619 178.978281 308.4463 179.347063 307.789956 180.003408 
C 307.133612 180.659752 306.76483 181.55007 306.76483 182.478281 
C 306.76483 183.406492 307.133612 184.296811 307.789956 184.953155 
C 308.4463 185.609499 309.336619 185.978281 310.26483 185.978281 
L 310.26483 185.978281 
z
" clip-path="url(#p99b4c3c061)" style="fill: none; stroke: #2a9df4; stroke-width: 2"/>
   </g>
   <g id="PathCollection_44">
    <path d="M 316.476333 185.978281 
C 317.404544 185.978281 318.294862 185.609499 318.951206 184.953155 
C 319.607551 184.296811 319.976333 183.406492 319.976333 182.478281 
C 319.976333 181.55007 319.607551 180.659752 318.951206 180.003408 
C 318.294862 179.347063 317.404544 178.978281 316.476333 178.978281 
C 315.548122 178.978281 314.657803 179.347063 314.001459 180.003408 
C 313.345115 180.659752 312.976333 181.55007 312.976333 182.478281 
C 312.976333 183.406492 313.345115 184.296811 314.001459 184.953155 
C 314.657803 185.609499 315.548122 185.978281 316.476333 185.978281 
L 316.476333 185.978281 
z
" clip-path="url(#p99b4c3c061)" style="fill: none; stroke: #2a9df4; stroke-width: 2"/>
   </g>
   <g id="PathCollection_45">
    <path d="M 322.687836 185.978281 
C 323.616046 185.978281 324.506365 185.609499 325.162709 184.953155 
C 325.819053 184.296811 326.187836 183.406492 326.187836 182.478281 
C 326.187836 181.55007 325.819053 180.659752 325.162709 180.003408 
C 324.506365 179.347063 323.616046 178.978281 322.687836 178.978281 
C 321.759625 178.978281 320.869306 179.347063 320.212962 180.003408 
C 319.556618 180.659752 319.187836 181.55007 319.187836 182.478281 
C 319.187836 183.406492 319.556618 184.296811 320.212962 184.953155 
C 320.869306 185.609499 321.759625 185.978281 322.687836 185.978281 
L 322.687836 185.978281 
z
" clip-path="url(#p99b4c3c061)" style="fill: none; stroke: #2a9df4; stroke-width: 2"/>
   </g>
   <g id="PathCollection_46">
    <path d="M 328.899338 185.978281 
C 329.827549 185.978281 330.717868 185.609499 331.374212 184.953155 
C 332.030556 184.296811 332.399338 183.406492 332.399338 182.478281 
C 332.399338 181.55007 332.030556 180.659752 331.374212 180.003408 
C 330.717868 179.347063 329.827549 178.978281 328.899338 178.978281 
C 327.971127 178.978281 327.080809 179.347063 326.424465 180.003408 
C 325.76812 180.659752 325.399338 181.55007 325.399338 182.478281 
C 325.399338 183.406492 325.76812 184.296811 326.424465 184.953155 
C 327.080809 185.609499 327.971127 185.978281 328.899338 185.978281 
L 328.899338 185.978281 
z
" clip-path="url(#p99b4c3c061)" style="fill: none; stroke: #2a9df4; stroke-width: 2"/>
   </g>
   <g id="PathCollection_47">
    <path d="M 335.110841 185.978281 
C 336.039052 185.978281 336.929371 185.609499 337.585715 184.953155 
C 338.242059 184.296811 338.610841 183.406492 338.610841 182.478281 
C 338.610841 181.55007 338.242059 180.659752 337.585715 180.003408 
C 336.929371 179.347063 336.039052 178.978281 335.110841 178.978281 
C 334.18263 178.978281 333.292312 179.347063 332.635967 180.003408 
C 331.979623 180.659752 331.610841 181.55007 331.610841 182.478281 
C 331.610841 183.406492 331.979623 184.296811 332.635967 184.953155 
C 333.292312 185.609499 334.18263 185.978281 335.110841 185.978281 
L 335.110841 185.978281 
z
" clip-path="url(#p99b4c3c061)" style="fill: none; stroke: #2a9df4; stroke-width: 2"/>
   </g>
   <g id="PathCollection_48">
    <path d="M 341.322344 185.978281 
C 342.250555 185.978281 343.140873 185.609499 343.797218 184.953155 
C 344.453562 184.296811 344.822344 183.406492 344.822344 182.478281 
C 344.822344 181.55007 344.453562 180.659752 343.797218 180.003408 
C 343.140873 179.347063 342.250555 178.978281 341.322344 178.978281 
C 340.394133 178.978281 339.503814 179.347063 338.84747 180.003408 
C 338.191126 180.659752 337.822344 181.55007 337.822344 182.478281 
C 337.822344 183.406492 338.191126 184.296811 338.84747 184.953155 
C 339.503814 185.609499 340.394133 185.978281 341.322344 185.978281 
L 341.322344 185.978281 
z
" clip-path="url(#p99b4c3c061)" style="fill: none; stroke: #2a9df4; stroke-width: 2"/>
   </g>
   <g id="PathCollection_49">
    <path d="M 347.533847 185.978281 
C 348.462057 185.978281 349.352376 185.609499 350.00872 184.953155 
C 350.665065 184.296811 351.033847 183.406492 351.033847 182.478281 
C 351.033847 181.55007 350.665065 180.659752 350.00872 180.003408 
C 349.352376 179.347063 348.462057 178.978281 347.533847 178.978281 
C 346.605636 178.978281 345.715317 179.347063 345.058973 180.003408 
C 344.402629 180.659752 344.033847 181.55007 344.033847 182.478281 
C 344.033847 183.406492 344.402629 184.296811 345.058973 184.953155 
C 345.715317 185.609499 346.605636 185.978281 347.533847 185.978281 
L 347.533847 185.978281 
z
" clip-path="url(#p99b4c3c061)" style="fill: none; stroke: #2a9df4; stroke-width: 2"/>
   </g>
   <g id="PathCollection_50">
    <path d="M 353.745349 185.978281 
C 354.67356 185.978281 355.563879 185.609499 356.220223 184.953155 
C 356.876567 184.296811 357.245349 183.406492 357.245349 182.478281 
C 357.245349 181.55007 356.876567 180.659752 356.220223 180.003408 
C 355.563879 179.347063 354.67356 178.978281 353.745349 178.978281 
C 352.817139 178.978281 351.92682 179.347063 351.270476 180.003408 
C 350.614132 180.659752 350.245349 181.55007 350.245349 182.478281 
C 350.245349 183.406492 350.614132 184.296811 351.270476 184.953155 
C 351.92682 185.609499 352.817139 185.978281 353.745349 185.978281 
L 353.745349 185.978281 
z
" clip-path="url(#p99b4c3c061)" style="fill: none; stroke: #2a9df4; stroke-width: 2"/>
   </g>
   <g id="matplotlib.axis_3"/>
   <g id="matplotlib.axis_4">
    <g id="text_3">
     <!-- Player 2 -->
     <g transform="translate(27.875875 172.440937) rotate(-90) scale(0.11 -0.11)">
      <defs>
       <path id="DejaVuSans-50" d="M 1259 4147 
L 1259 2394 
L 2053 2394 
Q 2494 2394 2734 2622 
Q 2975 2850 2975 3272 
Q 2975 3691 2734 3919 
Q 2494 4147 2053 4147 
L 1259 4147 
z
M 628 4666 
L 2053 4666 
Q 2838 4666 3239 4311 
Q 3641 3956 3641 3272 
Q 3641 2581 3239 2228 
Q 2838 1875 2053 1875 
L 1259 1875 
L 1259 0 
L 628 0 
L 628 4666 
z
" transform="scale(0.015625)"/>
       <path id="DejaVuSans-6c" d="M 603 4863 
L 1178 4863 
L 1178 0 
L 603 0 
L 603 4863 
z
" transform="scale(0.015625)"/>
       <path id="DejaVuSans-79" d="M 2059 -325 
Q 1816 -950 1584 -1140 
Q 1353 -1331 966 -1331 
L 506 -1331 
L 506 -850 
L 844 -850 
Q 1081 -850 1212 -737 
Q 1344 -625 1503 -206 
L 1606 56 
L 191 3500 
L 800 3500 
L 1894 763 
L 2988 3500 
L 3597 3500 
L 2059 -325 
z
" transform="scale(0.015625)"/>
       <path id="DejaVuSans-32" d="M 1228 531 
L 3431 531 
L 3431 0 
L 469 0 
L 469 531 
Q 828 903 1448 1529 
Q 2069 2156 2228 2338 
Q 2531 2678 2651 2914 
Q 2772 3150 2772 3378 
Q 2772 3750 2511 3984 
Q 2250 4219 1831 4219 
Q 1534 4219 1204 4116 
Q 875 4013 500 3803 
L 500 4441 
Q 881 4594 1212 4672 
Q 1544 4750 1819 4750 
Q 2544 4750 2975 4387 
Q 3406 4025 3406 3419 
Q 3406 3131 3298 2873 
Q 3191 2616 2906 2266 
Q 2828 2175 2409 1742 
Q 1991 1309 1228 531 
z
" transform="scale(0.015625)"/>
      </defs>
      <use xlink:href="#DejaVuSans-50"/>
      <use xlink:href="#DejaVuSans-6c" transform="translate(60.302734 0)"/>
      <use xlink:href="#DejaVuSans-61" transform="translate(88.085938 0)"/>
      <use xlink:href="#DejaVuSans-79" transform="translate(149.365234 0)"/>
      <use xlink:href="#DejaVuSans-65" transform="translate(208.544922 0)"/>
      <use xlink:href="#DejaVuSans-72" transform="translate(270.068359 0)"/>
      <use xlink:href="#DejaVuSans-20" transform="translate(311.181641 0)"/>
      <use xlink:href="#DejaVuSans-32" transform="translate(342.96875 0)"/>
     </g>
    </g>
   </g>
   <g id="line2d_52">
    <path d="M 49.381713 150.078281 
L 49.381713 177.078281 
" clip-path="url(#p99b4c3c061)" style="fill: none; stroke: #2a9df4; stroke-width: 3; stroke-linecap: square"/>
   </g>
   <g id="line2d_53">
    <path d="M 55.593216 150.078281 
L 55.593216 177.078281 
" clip-path="url(#p99b4c3c061)" style="fill: none; stroke: #2a9df4; stroke-width: 3; stroke-linecap: square"/>
   </g>
   <g id="line2d_54">
    <path d="M 61.804719 150.078281 
L 61.804719 177.078281 
" clip-path="url(#p99b4c3c061)" style="fill: none; stroke: #2a9df4; stroke-width: 3; stroke-linecap: square"/>
   </g>
   <g id="line2d_55">
    <path d="M 68.016221 150.078281 
L 68.016221 177.078281 
" clip-path="url(#p99b4c3c061)" style="fill: none; stroke: #2a9df4; stroke-width: 3; stroke-linecap: square"/>
   </g>
   <g id="line2d_56">
    <path d="M 74.227724 150.078281 
L 74.227724 177.078281 
" clip-path="url(#p99b4c3c061)" style="fill: none; stroke: #2a9df4; stroke-width: 3; stroke-linecap: square"/>
   </g>
   <g id="line2d_57">
    <path d="M 80.439227 150.078281 
L 80.439227 177.078281 
" clip-path="url(#p99b4c3c061)" style="fill: none; stroke: #2a9df4; stroke-width: 3; stroke-linecap: square"/>
   </g>
   <g id="line2d_58">
    <path d="M 86.65073 150.078281 
L 86.65073 177.078281 
" clip-path="url(#p99b4c3c061)" style="fill: none; stroke: #2a9df4; stroke-width: 3; stroke-linecap: square"/>
   </g>
   <g id="line2d_59">
    <path d="M 92.862233 150.078281 
L 92.862233 177.078281 
" clip-path="url(#p99b4c3c061)" style="fill: none; stroke: #2a9df4; stroke-width: 3; stroke-linecap: square"/>
   </g>
   <g id="line2d_60">
    <path d="M 99.073735 150.078281 
L 99.073735 177.078281 
" clip-path="url(#p99b4c3c061)" style="fill: none; stroke: #2a9df4; stroke-width: 3; stroke-linecap: square"/>
   </g>
   <g id="line2d_61">
    <path d="M 105.285238 150.078281 
L 105.285238 177.078281 
" clip-path="url(#p99b4c3c061)" style="fill: none; stroke: #2a9df4; stroke-width: 3; stroke-linecap: square"/>
   </g>
   <g id="line2d_62">
    <path d="M 111.496741 150.078281 
L 111.496741 123.078281 
" clip-path="url(#p99b4c3c061)" style="fill: none; stroke: #f45b69; stroke-width: 3; stroke-linecap: square"/>
   </g>
   <g id="line2d_63">
    <path d="M 117.708244 150.078281 
L 117.708244 123.078281 
" clip-path="url(#p99b4c3c061)" style="fill: none; stroke: #f45b69; stroke-width: 3; stroke-linecap: square"/>
   </g>
   <g id="line2d_64">
    <path d="M 123.919746 150.078281 
L 123.919746 123.078281 
" clip-path="url(#p99b4c3c061)" style="fill: none; stroke: #f45b69; stroke-width: 3; stroke-linecap: square"/>
   </g>
   <g id="line2d_65">
    <path d="M 130.131249 150.078281 
L 130.131249 123.078281 
" clip-path="url(#p99b4c3c061)" style="fill: none; stroke: #f45b69; stroke-width: 3; stroke-linecap: square"/>
   </g>
   <g id="line2d_66">
    <path d="M 136.342752 150.078281 
L 136.342752 123.078281 
" clip-path="url(#p99b4c3c061)" style="fill: none; stroke: #f45b69; stroke-width: 3; stroke-linecap: square"/>
   </g>
   <g id="line2d_67">
    <path d="M 142.554255 150.078281 
L 142.554255 123.078281 
" clip-path="url(#p99b4c3c061)" style="fill: none; stroke: #f45b69; stroke-width: 3; stroke-linecap: square"/>
   </g>
   <g id="line2d_68">
    <path d="M 148.765758 150.078281 
L 148.765758 123.078281 
" clip-path="url(#p99b4c3c061)" style="fill: none; stroke: #f45b69; stroke-width: 3; stroke-linecap: square"/>
   </g>
   <g id="line2d_69">
    <path d="M 154.97726 150.078281 
L 154.97726 123.078281 
" clip-path="url(#p99b4c3c061)" style="fill: none; stroke: #f45b69; stroke-width: 3; stroke-linecap: square"/>
   </g>
   <g id="line2d_70">
    <path d="M 161.188763 150.078281 
L 161.188763 123.078281 
" clip-path="url(#p99b4c3c061)" style="fill: none; stroke: #f45b69; stroke-width: 3; stroke-linecap: square"/>
   </g>
   <g id="line2d_71">
    <path d="M 167.400266 150.078281 
L 167.400266 123.078281 
" clip-path="url(#p99b4c3c061)" style="fill: none; stroke: #f45b69; stroke-width: 3; stroke-linecap: square"/>
   </g>
   <g id="line2d_72">
    <path d="M 173.611769 150.078281 
L 173.611769 177.078281 
" clip-path="url(#p99b4c3c061)" style="fill: none; stroke: #2a9df4; stroke-width: 3; stroke-linecap: square"/>
   </g>
   <g id="line2d_73">
    <path d="M 179.823272 150.078281 
L 179.823272 177.078281 
" clip-path="url(#p99b4c3c061)" style="fill: none; stroke: #2a9df4; stroke-width: 3; stroke-linecap: square"/>
   </g>
   <g id="line2d_74">
    <path d="M 186.034774 150.078281 
L 186.034774 177.078281 
" clip-path="url(#p99b4c3c061)" style="fill: none; stroke: #2a9df4; stroke-width: 3; stroke-linecap: square"/>
   </g>
   <g id="line2d_75">
    <path d="M 192.246277 150.078281 
L 192.246277 177.078281 
" clip-path="url(#p99b4c3c061)" style="fill: none; stroke: #2a9df4; stroke-width: 3; stroke-linecap: square"/>
   </g>
   <g id="line2d_76">
    <path d="M 198.45778 150.078281 
L 198.45778 177.078281 
" clip-path="url(#p99b4c3c061)" style="fill: none; stroke: #2a9df4; stroke-width: 3; stroke-linecap: square"/>
   </g>
   <g id="line2d_77">
    <path d="M 204.669283 150.078281 
L 204.669283 177.078281 
" clip-path="url(#p99b4c3c061)" style="fill: none; stroke: #2a9df4; stroke-width: 3; stroke-linecap: square"/>
   </g>
   <g id="line2d_78">
    <path d="M 210.880785 150.078281 
L 210.880785 177.078281 
" clip-path="url(#p99b4c3c061)" style="fill: none; stroke: #2a9df4; stroke-width: 3; stroke-linecap: square"/>
   </g>
   <g id="line2d_79">
    <path d="M 217.092288 150.078281 
L 217.092288 177.078281 
" clip-path="url(#p99b4c3c061)" style="fill: none; stroke: #2a9df4; stroke-width: 3; stroke-linecap: square"/>
   </g>
   <g id="line2d_80">
    <path d="M 223.303791 150.078281 
L 223.303791 177.078281 
" clip-path="url(#p99b4c3c061)" style="fill: none; stroke: #2a9df4; stroke-width: 3; stroke-linecap: square"/>
   </g>
   <g id="line2d_81">
    <path d="M 229.515294 150.078281 
L 229.515294 177.078281 
" clip-path="url(#p99b4c3c061)" style="fill: none; stroke: #2a9df4; stroke-width: 3; stroke-linecap: square"/>
   </g>
   <g id="line2d_82">
    <path d="M 235.726797 150.078281 
L 235.726797 123.078281 
" clip-path="url(#p99b4c3c061)" style="fill: none; stroke: #f45b69; stroke-width: 3; stroke-linecap: square"/>
   </g>
   <g id="line2d_83">
    <path d="M 241.938299 150.078281 
L 241.938299 123.078281 
" clip-path="url(#p99b4c3c061)" style="fill: none; stroke: #f45b69; stroke-width: 3; stroke-linecap: square"/>
   </g>
   <g id="line2d_84">
    <path d="M 248.149802 150.078281 
L 248.149802 123.078281 
" clip-path="url(#p99b4c3c061)" style="fill: none; stroke: #f45b69; stroke-width: 3; stroke-linecap: square"/>
   </g>
   <g id="line2d_85">
    <path d="M 254.361305 150.078281 
L 254.361305 123.078281 
" clip-path="url(#p99b4c3c061)" style="fill: none; stroke: #f45b69; stroke-width: 3; stroke-linecap: square"/>
   </g>
   <g id="line2d_86">
    <path d="M 260.572808 150.078281 
L 260.572808 123.078281 
" clip-path="url(#p99b4c3c061)" style="fill: none; stroke: #f45b69; stroke-width: 3; stroke-linecap: square"/>
   </g>
   <g id="line2d_87">
    <path d="M 266.78431 150.078281 
L 266.78431 123.078281 
" clip-path="url(#p99b4c3c061)" style="fill: none; stroke: #f45b69; stroke-width: 3; stroke-linecap: square"/>
   </g>
   <g id="line2d_88">
    <path d="M 272.995813 150.078281 
L 272.995813 123.078281 
" clip-path="url(#p99b4c3c061)" style="fill: none; stroke: #f45b69; stroke-width: 3; stroke-linecap: square"/>
   </g>
   <g id="line2d_89">
    <path d="M 279.207316 150.078281 
L 279.207316 123.078281 
" clip-path="url(#p99b4c3c061)" style="fill: none; stroke: #f45b69; stroke-width: 3; stroke-linecap: square"/>
   </g>
   <g id="line2d_90">
    <path d="M 285.418819 150.078281 
L 285.418819 123.078281 
" clip-path="url(#p99b4c3c061)" style="fill: none; stroke: #f45b69; stroke-width: 3; stroke-linecap: square"/>
   </g>
   <g id="line2d_91">
    <path d="M 291.630322 150.078281 
L 291.630322 123.078281 
" clip-path="url(#p99b4c3c061)" style="fill: none; stroke: #f45b69; stroke-width: 3; stroke-linecap: square"/>
   </g>
   <g id="line2d_92">
    <path d="M 297.841824 150.078281 
L 297.841824 177.078281 
" clip-path="url(#p99b4c3c061)" style="fill: none; stroke: #2a9df4; stroke-width: 3; stroke-linecap: square"/>
   </g>
   <g id="line2d_93">
    <path d="M 304.053327 150.078281 
L 304.053327 177.078281 
" clip-path="url(#p99b4c3c061)" style="fill: none; stroke: #2a9df4; stroke-width: 3; stroke-linecap: square"/>
   </g>
   <g id="line2d_94">
    <path d="M 310.26483 150.078281 
L 310.26483 177.078281 
" clip-path="url(#p99b4c3c061)" style="fill: none; stroke: #2a9df4; stroke-width: 3; stroke-linecap: square"/>
   </g>
   <g id="line2d_95">
    <path d="M 316.476333 150.078281 
L 316.476333 177.078281 
" clip-path="url(#p99b4c3c061)" style="fill: none; stroke: #2a9df4; stroke-width: 3; stroke-linecap: square"/>
   </g>
   <g id="line2d_96">
    <path d="M 322.687836 150.078281 
L 322.687836 177.078281 
" clip-path="url(#p99b4c3c061)" style="fill: none; stroke: #2a9df4; stroke-width: 3; stroke-linecap: square"/>
   </g>
   <g id="line2d_97">
    <path d="M 328.899338 150.078281 
L 328.899338 177.078281 
" clip-path="url(#p99b4c3c061)" style="fill: none; stroke: #2a9df4; stroke-width: 3; stroke-linecap: square"/>
   </g>
   <g id="line2d_98">
    <path d="M 335.110841 150.078281 
L 335.110841 177.078281 
" clip-path="url(#p99b4c3c061)" style="fill: none; stroke: #2a9df4; stroke-width: 3; stroke-linecap: square"/>
   </g>
   <g id="line2d_99">
    <path d="M 341.322344 150.078281 
L 341.322344 177.078281 
" clip-path="url(#p99b4c3c061)" style="fill: none; stroke: #2a9df4; stroke-width: 3; stroke-linecap: square"/>
   </g>
   <g id="line2d_100">
    <path d="M 347.533847 150.078281 
L 347.533847 177.078281 
" clip-path="url(#p99b4c3c061)" style="fill: none; stroke: #2a9df4; stroke-width: 3; stroke-linecap: square"/>
   </g>
   <g id="line2d_101">
    <path d="M 353.745349 150.078281 
L 353.745349 177.078281 
" clip-path="url(#p99b4c3c061)" style="fill: none; stroke: #2a9df4; stroke-width: 3; stroke-linecap: square"/>
   </g>
   <g id="line2d_102">
    <path d="M 49.381713 150.078281 
L 353.745349 150.078281 
" clip-path="url(#p99b4c3c061)" style="fill: none; stroke: #000000; stroke-width: 3; stroke-linecap: square"/>
   </g>
  </g>
 </g>
 <defs>
  <clipPath id="p2bf6836b55">
   <rect x="34.163531" y="21.558281" width="334.8" height="75.6"/>
  </clipPath>
  <clipPath id="p99b4c3c061">
   <rect x="34.163531" y="112.278281" width="334.8" height="75.6"/>
  </clipPath>
 </defs>
</svg>
