<?xml version="1.0" encoding="utf-8" standalone="no"?>
<!DOCTYPE svg PUBLIC "-//W3C//DTD SVG 1.1//EN"
  "http://www.w3.org/Graphics/SVG/1.1/DTD/svg11.dtd">
<svg xmlns:xlink="http://www.w3.org/1999/xlink" width="219.845455pt" height="218.596875pt" viewBox="0 0 219.845455 218.596875" xmlns="http://www.w3.org/2000/svg" version="1.1">
 <metadata>
  <rdf:RDF xmlns:dc="http://purl.org/dc/elements/1.1/" xmlns:cc="http://creativecommons.org/ns#" xmlns:rdf="http://www.w3.org/1999/02/22-rdf-syntax-ns#">
   <cc:Work>
    <dc:type rdf:resource="http://purl.org/dc/dcmitype/StillImage"/>
    <dc:date>2026-04-09T18:00:14.242019</dc:date>
    <dc:format>image/svg+xml</dc:format>
    <dc:creator>
     <cc:Agent>
      <dc:title>Matplotlib v3.10.8, https://matplotlib.org/</dc:title>
     </cc:Agent>
    </dc:creator>
   </cc:Work>
  </rdf:RDF>
 </metadata>
 <defs>
  <style type="text/css">*{stroke-linejoin: round; stroke-linecap: butt}</style>
 </defs>
 <g id="figure_1">
  <g id="patch_1">
   <path d="M 0 218.596875 
L 219.845455 218.596875 
L 219.845455 0 
L 0 0 
L 0 218.596875 
z
" style="fill: none"/>
  </g>
  <g id="axes_1">
   <g id="patch_2">
    <path d="M 45.245455 211.396875 
L 212.645455 211.396875 
L 212.645455 45.076875 
L 45.245455 45.076875 
L 45.245455 211.396875 
z
" style="fill: none"/>
   </g>
   <g id="patch_3">
    <path d="M 128.945455 52.636875 
L 128.945455 128.236875 
L 205.036364 128.236875 
z
" clip-path="url(#pd052bcfc6b)" style="fill: #f45b69; opacity: 0.5; stroke: #000000; stroke-width: 0.6; stroke-linejoin: miter"/>
   </g>
   <g id="patch_4">
    <path d="M 128.945455 52.636875 
L 205.036364 52.636875 
L 205.036364 128.236875 
z
" clip-path="url(#pd052bcfc6b)" style="fill: #2a9df4; opacity: 0.5; stroke: #000000; stroke-width: 0.6; stroke-linejoin: miter"/>
   </g>
   <g id="patch_5">
    <path d="M 52.854545 128.236875 
L 128.945455 128.236875 
L 128.945455 203.836875 
z
" clip-path="url(#pd052bcfc6b)" style="fill: #f45b69; opacity: 0.5; stroke: #000000; stroke-width: 0.6; stroke-linejoin: miter"/>
   </g>
   <g id="patch_6">
    <path d="M 52.854545 128.236875 
L 128.945455 203.836875 
L 52.854545 203.836875 
z
" clip-path="url(#pd052bcfc6b)" style="fill: #2a9df4; opacity: 0.5; stroke: #000000; stroke-width: 0.6; stroke-linejoin: miter"/>
   </g>
   <g id="matplotlib.axis_1"/>
   <g id="matplotlib.axis_2"/>
   <g id="line2d_1">
    <path d="M 52.854545 128.236875 
L 205.036364 128.236875 
" clip-path="url(#pd052bcfc6b)" style="fill: none; stroke: #000000; stroke-width: 2; stroke-linecap: square"/>
   </g>
   <g id="line2d_2">
    <path d="M 128.945455 203.836875 
L 128.945455 52.636875 
" clip-path="url(#pd052bcfc6b)" style="fill: none; stroke: #000000; stroke-width: 2; stroke-linecap: square"/>
   </g>
   <g id="line2d_3">
    <path d="M 52.854545 203.836875 
L 205.036364 203.836875 
" clip-path="url(#pd052bcfc6b)" style="fill: none; stroke: #000000; stroke-width: 2; stroke-linecap: square"/>
   </g>
   <g id="line2d_4">
    <path d="M 52.854545 52.636875 
L 205.036364 52.636875 
" clip-path="url(#pd052bcfc6b)" style="fill: none; stroke: #000000; stroke-width: 2; stroke-linecap: square"/>
   </g>
   <g id="line2d_5">
    <path d="M 52.854545 203.836875 
L 52.854545 52.636875 
" clip-path="url(#pd052bcfc6b)" style="fill: none; stroke: #000000; stroke-width: 2; stroke-linecap: square"/>
   </g>
   <g id="line2d_6">
    <path d="M 205.036364 203.836875 
L 205.036364 52.636875 
" clip-path="url(#pd052bcfc6b)" style="fill: none; stroke: #000000; stroke-width: 2; stroke-linecap: square"/>
   </g>
   <g id="text_1">
    <!-- 1 -->
    <g transform="translate(68.072727 97.996875) scale(0.2 -0.2)">
     <defs>
      <path id="DejaVuSans-Bold-31" d="M 750 831 
L 1813 831 
L 1813 3847 
L 722 3622 
L 722 4441 
L 1806 4666 
L 2950 4666 
L 2950 831 
L 4013 831 
L 4013 0 
L 750 0 
L 750 831 
z
" transform="scale(0.015625)"/>
     </defs>
     <use xlink:href="#DejaVuSans-Bold-31"/>
    </g>
   </g>
   <g id="text_2">
    <!-- 0 -->
    <g transform="translate(98.509091 97.996875) scale(0.2 -0.2)">
     <defs>
      <path id="DejaVuSans-ExtraLight-30" d="M 2016 4494 
Q 1444 4494 1166 3938 
Q 888 3378 888 2328 
Q 888 1278 1166 719 
Q 1444 163 2016 163 
Q 2606 163 2884 719 
Q 3163 1278 3163 2328 
Q 3163 3378 2884 3938 
Q 2606 4494 2016 4494 
z
M 2016 4750 
Q 2691 4750 3084 4200 
Q 3478 3647 3478 2328 
Q 3478 1009 3084 456 
Q 2691 -94 2016 -94 
Q 1359 -94 966 456 
Q 572 1009 572 2328 
Q 572 3647 966 4200 
Q 1359 4750 2016 4750 
z
" transform="scale(0.015625)"/>
     </defs>
     <use xlink:href="#DejaVuSans-ExtraLight-30"/>
    </g>
   </g>
   <g id="text_3">
    <!-- 1 -->
    <g transform="translate(144.163636 173.596875) scale(0.2 -0.2)">
     <use xlink:href="#DejaVuSans-Bold-31"/>
    </g>
   </g>
   <g id="text_4">
    <!-- 0 -->
    <g transform="translate(174.6 173.596875) scale(0.2 -0.2)">
     <use xlink:href="#DejaVuSans-ExtraLight-30"/>
    </g>
   </g>
   <g id="text_5">
    <!-- 0 -->
    <g transform="translate(68.072727 173.596875) scale(0.2 -0.2)">
     <defs>
      <path id="DejaVuSans-Bold-30" d="M 2944 2338 
Q 2944 3213 2780 3570 
Q 2616 3928 2228 3928 
Q 1841 3928 1675 3570 
Q 1509 3213 1509 2338 
Q 1509 1453 1675 1090 
Q 1841 728 2228 728 
Q 2613 728 2778 1090 
Q 2944 1453 2944 2338 
z
M 4147 2328 
Q 4147 1169 3647 539 
Q 3147 -91 2228 -91 
Q 1306 -91 806 539 
Q 306 1169 306 2328 
Q 306 3491 806 4120 
Q 1306 4750 2228 4750 
Q 3147 4750 3647 4120 
Q 4147 3491 4147 2328 
z
" transform="scale(0.015625)"/>
     </defs>
     <use xlink:href="#DejaVuSans-Bold-30"/>
    </g>
   </g>
   <g id="text_6">
    <!-- 1 -->
    <g transform="translate(98.509091 173.596875) scale(0.2 -0.2)">
     <defs>
      <path id="DejaVuSans-ExtraLight-31" d="M 950 256 
L 1981 256 
L 1981 4378 
L 703 3866 
L 703 4153 
L 1975 4666 
L 2294 4666 
L 2294 256 
L 3325 256 
L 3325 0 
L 950 0 
L 950 256 
z
" transform="scale(0.015625)"/>
     </defs>
     <use xlink:href="#DejaVuSans-ExtraLight-31"/>
    </g>
   </g>
   <g id="text_7">
    <!-- 0 -->
    <g transform="translate(144.163636 97.996875) scale(0.2 -0.2)">
     <use xlink:href="#DejaVuSans-Bold-30"/>
    </g>
   </g>
   <g id="text_8">
    <!-- 1 -->
    <g transform="translate(174.6 97.996875) scale(0.2 -0.2)">
     <use xlink:href="#DejaVuSans-ExtraLight-31"/>
    </g>
   </g>
   <g id="text_9">
    <!-- Left -->
    <g style="fill: #f45b69" transform="translate(45.994645 100.284531) rotate(-90) scale(0.11 -0.11)">
     <defs>
      <path id="DejaVuSans-4c" d="M 628 4666 
L 1259 4666 
L 1259 531 
L 3531 531 
L 3531 0 
L 628 0 
L 628 4666 
z
" transform="scale(0.015625)"/>
      <path id="DejaVuSans-65" d="M 3597 1894 
L 3597 1613 
L 953 1613 
Q 991 1019 1311 708 
Q 1631 397 2203 397 
Q 2534 397 2845 478 
Q 3156 559 3463 722 
L 3463 178 
Q 3153 47 2828 -22 
Q 2503 -91 2169 -91 
Q 1331 -91 842 396 
Q 353 884 353 1716 
Q 353 2575 817 3079 
Q 1281 3584 2069 3584 
Q 2775 3584 3186 3129 
Q 3597 2675 3597 1894 
z
M 3022 2063 
Q 3016 2534 2758 2815 
Q 2500 3097 2075 3097 
Q 1594 3097 1305 2825 
Q 1016 2553 972 2059 
L 3022 2063 
z
" transform="scale(0.015625)"/>
      <path id="DejaVuSans-66" d="M 2375 4863 
L 2375 4384 
L 1825 4384 
Q 1516 4384 1395 4259 
Q 1275 4134 1275 3809 
L 1275 3500 
L 2222 3500 
L 2222 3053 
L 1275 3053 
L 1275 0 
L 697 0 
L 697 3053 
L 147 3053 
L 147 3500 
L 697 3500 
L 697 3744 
Q 697 4328 969 4595 
Q 1241 4863 1831 4863 
L 2375 4863 
z
" transform="scale(0.015625)"/>
      <path id="DejaVuSans-74" d="M 1172 4494 
L 1172 3500 
L 2356 3500 
L 2356 3053 
L 1172 3053 
L 1172 1153 
Q 1172 725 1289 603 
Q 1406 481 1766 481 
L 2356 481 
L 2356 0 
L 1766 0 
Q 1100 0 847 248 
Q 594 497 594 1153 
L 594 3053 
L 172 3053 
L 172 3500 
L 594 3500 
L 594 4494 
L 1172 4494 
z
" transform="scale(0.015625)"/>
     </defs>
     <use xlink:href="#DejaVuSans-4c"/>
     <use xlink:href="#DejaVuSans-65" transform="translate(53.962891 0)"/>
     <use xlink:href="#DejaVuSans-66" transform="translate(115.486328 0)"/>
     <use xlink:href="#DejaVuSans-74" transform="translate(148.941406 0)"/>
    </g>
   </g>
   <g id="text_10">
    <!-- Right -->
    <g style="fill: #2a9df4" transform="translate(45.994645 175.884531) rotate(-90) scale(0.11 -0.11)">
     <defs>
      <path id="DejaVuSans-52" d="M 2841 2188 
Q 3044 2119 3236 1894 
Q 3428 1669 3622 1275 
L 4263 0 
L 3584 0 
L 2988 1197 
Q 2756 1666 2539 1819 
Q 2322 1972 1947 1972 
L 1259 1972 
L 1259 0 
L 628 0 
L 628 4666 
L 2053 4666 
Q 2853 4666 3247 4331 
Q 3641 3997 3641 3322 
Q 3641 2881 3436 2590 
Q 3231 2300 2841 2188 
z
M 1259 4147 
L 1259 2491 
L 2053 2491 
Q 2509 2491 2742 2702 
Q 2975 2913 2975 3322 
Q 2975 3731 2742 3939 
Q 2509 4147 2053 4147 
L 1259 4147 
z
" transform="scale(0.015625)"/>
      <path id="DejaVuSans-69" d="M 603 3500 
L 1178 3500 
L 1178 0 
L 603 0 
L 603 3500 
z
M 603 4863 
L 1178 4863 
L 1178 4134 
L 603 4134 
L 603 4863 
z
" transform="scale(0.015625)"/>
      <path id="DejaVuSans-67" d="M 2906 1791 
Q 2906 2416 2648 2759 
Q 2391 3103 1925 3103 
Q 1463 3103 1205 2759 
Q 947 2416 947 1791 
Q 947 1169 1205 825 
Q 1463 481 1925 481 
Q 2391 481 2648 825 
Q 2906 1169 2906 1791 
z
M 3481 434 
Q 3481 -459 3084 -895 
Q 2688 -1331 1869 -1331 
Q 1566 -1331 1297 -1286 
Q 1028 -1241 775 -1147 
L 775 -588 
Q 1028 -725 1275 -790 
Q 1522 -856 1778 -856 
Q 2344 -856 2625 -561 
Q 2906 -266 2906 331 
L 2906 616 
Q 2728 306 2450 153 
Q 2172 0 1784 0 
Q 1141 0 747 490 
Q 353 981 353 1791 
Q 353 2603 747 3093 
Q 1141 3584 1784 3584 
Q 2172 3584 2450 3431 
Q 2728 3278 2906 2969 
L 2906 3500 
L 3481 3500 
L 3481 434 
z
" transform="scale(0.015625)"/>
      <path id="DejaVuSans-68" d="M 3513 2113 
L 3513 0 
L 2938 0 
L 2938 2094 
Q 2938 2591 2744 2837 
Q 2550 3084 2163 3084 
Q 1697 3084 1428 2787 
Q 1159 2491 1159 1978 
L 1159 0 
L 581 0 
L 581 4863 
L 1159 4863 
L 1159 2956 
Q 1366 3272 1645 3428 
Q 1925 3584 2291 3584 
Q 2894 3584 3203 3211 
Q 3513 2838 3513 2113 
z
" transform="scale(0.015625)"/>
     </defs>
     <use xlink:href="#DejaVuSans-52"/>
     <use xlink:href="#DejaVuSans-69" transform="translate(69.482422 0)"/>
     <use xlink:href="#DejaVuSans-67" transform="translate(97.265625 0)"/>
     <use xlink:href="#DejaVuSans-68" transform="translate(160.742188 0)"/>
     <use xlink:href="#DejaVuSans-74" transform="translate(224.121094 0)"/>
    </g>
   </g>
   <g id="text_11">
    <!-- Left -->
    <g style="fill: #f45b69" transform="translate(80.247273 45.076875) scale(0.11 -0.11)">
     <use xlink:href="#DejaVuSans-4c"/>
     <use xlink:href="#DejaVuSans-65" transform="translate(53.962891 0)"/>
     <use xlink:href="#DejaVuSans-66" transform="translate(115.486328 0)"/>
     <use xlink:href="#DejaVuSans-74" transform="translate(148.941406 0)"/>
    </g>
   </g>
   <g id="text_12">
    <!-- Right -->
    <g style="fill: #2a9df4" transform="translate(151.772727 45.076875) scale(0.11 -0.11)">
     <use xlink:href="#DejaVuSans-52"/>
     <use xlink:href="#DejaVuSans-69" transform="translate(69.482422 0)"/>
     <use xlink:href="#DejaVuSans-67" transform="translate(97.265625 0)"/>
     <use xlink:href="#DejaVuSans-68" transform="translate(160.742188 0)"/>
     <use xlink:href="#DejaVuSans-74" transform="translate(224.121094 0)"/>
    </g>
   </g>
   <g id="text_13">
    <!-- Player 1 -->
    <g transform="translate(22.396875 162.7925) rotate(-90) scale(0.2 -0.2)">
     <defs>
      <path id="DejaVuSans-Bold-50" d="M 588 4666 
L 2584 4666 
Q 3475 4666 3951 4270 
Q 4428 3875 4428 3144 
Q 4428 2409 3951 2014 
Q 3475 1619 2584 1619 
L 1791 1619 
L 1791 0 
L 588 0 
L 588 4666 
z
M 1791 3794 
L 1791 2491 
L 2456 2491 
Q 2806 2491 2997 2661 
Q 3188 2831 3188 3144 
Q 3188 3456 2997 3625 
Q 2806 3794 2456 3794 
L 1791 3794 
z
" transform="scale(0.015625)"/>
      <path id="DejaVuSans-Bold-6c" d="M 538 4863 
L 1656 4863 
L 1656 0 
L 538 0 
L 538 4863 
z
" transform="scale(0.015625)"/>
      <path id="DejaVuSans-Bold-61" d="M 2106 1575 
Q 1756 1575 1579 1456 
Q 1403 1338 1403 1106 
Q 1403 894 1545 773 
Q 1688 653 1941 653 
Q 2256 653 2472 879 
Q 2688 1106 2688 1447 
L 2688 1575 
L 2106 1575 
z
M 3816 1997 
L 3816 0 
L 2688 0 
L 2688 519 
Q 2463 200 2181 54 
Q 1900 -91 1497 -91 
Q 953 -91 614 226 
Q 275 544 275 1050 
Q 275 1666 698 1953 
Q 1122 2241 2028 2241 
L 2688 2241 
L 2688 2328 
Q 2688 2594 2478 2717 
Q 2269 2841 1825 2841 
Q 1466 2841 1156 2769 
Q 847 2697 581 2553 
L 581 3406 
Q 941 3494 1303 3539 
Q 1666 3584 2028 3584 
Q 2975 3584 3395 3211 
Q 3816 2838 3816 1997 
z
" transform="scale(0.015625)"/>
      <path id="DejaVuSans-Bold-79" d="M 78 3500 
L 1197 3500 
L 2138 1125 
L 2938 3500 
L 4056 3500 
L 2584 -331 
Q 2363 -916 2067 -1148 
Q 1772 -1381 1288 -1381 
L 641 -1381 
L 641 -647 
L 991 -647 
Q 1275 -647 1404 -556 
Q 1534 -466 1606 -231 
L 1638 -134 
L 78 3500 
z
" transform="scale(0.015625)"/>
      <path id="DejaVuSans-Bold-65" d="M 4031 1759 
L 4031 1441 
L 1416 1441 
Q 1456 1047 1700 850 
Q 1944 653 2381 653 
Q 2734 653 3104 758 
Q 3475 863 3866 1075 
L 3866 213 
Q 3469 63 3072 -14 
Q 2675 -91 2278 -91 
Q 1328 -91 801 392 
Q 275 875 275 1747 
Q 275 2603 792 3093 
Q 1309 3584 2216 3584 
Q 3041 3584 3536 3087 
Q 4031 2591 4031 1759 
z
M 2881 2131 
Q 2881 2450 2695 2645 
Q 2509 2841 2209 2841 
Q 1884 2841 1681 2658 
Q 1478 2475 1428 2131 
L 2881 2131 
z
" transform="scale(0.015625)"/>
      <path id="DejaVuSans-Bold-72" d="M 3138 2547 
Q 2991 2616 2845 2648 
Q 2700 2681 2553 2681 
Q 2122 2681 1889 2404 
Q 1656 2128 1656 1613 
L 1656 0 
L 538 0 
L 538 3500 
L 1656 3500 
L 1656 2925 
Q 1872 3269 2151 3426 
Q 2431 3584 2822 3584 
Q 2878 3584 2943 3579 
Q 3009 3575 3134 3559 
L 3138 2547 
z
" transform="scale(0.015625)"/>
      <path id="DejaVuSans-Bold-20" transform="scale(0.015625)"/>
     </defs>
     <use xlink:href="#DejaVuSans-Bold-50"/>
     <use xlink:href="#DejaVuSans-Bold-6c" transform="translate(73.291016 0)"/>
     <use xlink:href="#DejaVuSans-Bold-61" transform="translate(107.568359 0)"/>
     <use xlink:href="#DejaVuSans-Bold-79" transform="translate(171.923828 0)"/>
     <use xlink:href="#DejaVuSans-Bold-65" transform="translate(237.109375 0)"/>
     <use xlink:href="#DejaVuSans-Bold-72" transform="translate(304.931641 0)"/>
     <use xlink:href="#DejaVuSans-Bold-20" transform="translate(354.248047 0)"/>
     <use xlink:href="#DejaVuSans-Bold-31" transform="translate(389.0625 0)"/>
    </g>
   </g>
   <g id="text_14">
    <!-- Matcher -->
    <g transform="translate(37.62358 145.8525) rotate(-90) scale(0.12 -0.12)">
     <defs>
      <path id="DejaVuSans-Bold-4d" d="M 588 4666 
L 2119 4666 
L 3181 2169 
L 4250 4666 
L 5778 4666 
L 5778 0 
L 4641 0 
L 4641 3413 
L 3566 897 
L 2803 897 
L 1728 3413 
L 1728 0 
L 588 0 
L 588 4666 
z
" transform="scale(0.015625)"/>
      <path id="DejaVuSans-Bold-74" d="M 1759 4494 
L 1759 3500 
L 2913 3500 
L 2913 2700 
L 1759 2700 
L 1759 1216 
Q 1759 972 1856 886 
Q 1953 800 2241 800 
L 2816 800 
L 2816 0 
L 1856 0 
Q 1194 0 917 276 
Q 641 553 641 1216 
L 641 2700 
L 84 2700 
L 84 3500 
L 641 3500 
L 641 4494 
L 1759 4494 
z
" transform="scale(0.015625)"/>
      <path id="DejaVuSans-Bold-63" d="M 3366 3391 
L 3366 2478 
Q 3138 2634 2908 2709 
Q 2678 2784 2431 2784 
Q 1963 2784 1702 2511 
Q 1441 2238 1441 1747 
Q 1441 1256 1702 982 
Q 1963 709 2431 709 
Q 2694 709 2930 787 
Q 3166 866 3366 1019 
L 3366 103 
Q 3103 6 2833 -42 
Q 2563 -91 2291 -91 
Q 1344 -91 809 395 
Q 275 881 275 1747 
Q 275 2613 809 3098 
Q 1344 3584 2291 3584 
Q 2566 3584 2833 3536 
Q 3100 3488 3366 3391 
z
" transform="scale(0.015625)"/>
      <path id="DejaVuSans-Bold-68" d="M 4056 2131 
L 4056 0 
L 2931 0 
L 2931 347 
L 2931 1625 
Q 2931 2084 2911 2256 
Q 2891 2428 2841 2509 
Q 2775 2619 2662 2680 
Q 2550 2741 2406 2741 
Q 2056 2741 1856 2470 
Q 1656 2200 1656 1722 
L 1656 0 
L 538 0 
L 538 4863 
L 1656 4863 
L 1656 2988 
Q 1909 3294 2193 3439 
Q 2478 3584 2822 3584 
Q 3428 3584 3742 3212 
Q 4056 2841 4056 2131 
z
" transform="scale(0.015625)"/>
     </defs>
     <use xlink:href="#DejaVuSans-Bold-4d"/>
     <use xlink:href="#DejaVuSans-Bold-61" transform="translate(99.511719 0)"/>
     <use xlink:href="#DejaVuSans-Bold-74" transform="translate(166.992188 0)"/>
     <use xlink:href="#DejaVuSans-Bold-63" transform="translate(214.794922 0)"/>
     <use xlink:href="#DejaVuSans-Bold-68" transform="translate(274.072266 0)"/>
     <use xlink:href="#DejaVuSans-Bold-65" transform="translate(345.263672 0)"/>
     <use xlink:href="#DejaVuSans-Bold-72" transform="translate(413.085938 0)"/>
    </g>
   </g>
   <g id="text_15">
    <!-- Player 2 -->
    <g transform="translate(83.290909 22.396875) scale(0.2 -0.2)">
     <defs>
      <path id="DejaVuSans-ExtraLight-50" d="M 1094 4406 
L 1094 2263 
L 2053 2263 
Q 2575 2263 2859 2541 
Q 3147 2819 3147 3338 
Q 3147 3847 2859 4128 
Q 2575 4406 2053 4406 
L 1094 4406 
z
M 781 4666 
L 2053 4666 
Q 2750 4666 3109 4328 
Q 3466 3991 3466 3338 
Q 3466 2681 3109 2344 
Q 2750 2006 2053 2006 
L 1094 2006 
L 1094 0 
L 781 0 
L 781 4666 
z
" transform="scale(0.015625)"/>
      <path id="DejaVuSans-ExtraLight-6c" d="M 725 4863 
L 1013 4863 
L 1013 0 
L 725 0 
L 725 4863 
z
" transform="scale(0.015625)"/>
      <path id="DejaVuSans-ExtraLight-61" d="M 2125 1975 
Q 1431 1975 1125 1728 
Q 819 1481 819 1006 
Q 819 544 1072 350 
Q 1325 156 1672 156 
Q 2328 156 2616 713 
Q 2906 1269 2906 1759 
L 2906 1975 
L 2125 1975 
z
M 3197 1997 
L 3197 0 
L 2913 0 
L 2913 950 
Q 2672 253 2275 63 
Q 1959 -91 1647 -91 
Q 1125 -91 825 188 
Q 525 469 525 1012 
Q 525 1556 916 1881 
Q 1306 2209 2194 2209 
L 2906 2209 
L 2906 2266 
Q 2906 2731 2641 3031 
Q 2378 3331 1772 3331 
Q 1472 3331 1159 3219 
Q 959 3147 641 2928 
L 641 3238 
Q 919 3409 1159 3481 
Q 1509 3584 1831 3584 
Q 2450 3584 2850 3209 
Q 3197 2888 3197 1997 
z
" transform="scale(0.015625)"/>
      <path id="DejaVuSans-ExtraLight-79" d="M 1906 -325 
Q 1719 -791 1503 -969 
Q 1213 -1209 934 -1209 
L 506 -1209 
L 506 -966 
L 872 -966 
Q 1100 -966 1272 -819 
Q 1494 -628 1638 -259 
L 1741 0 
L 344 3500 
L 650 3500 
L 1894 381 
L 3141 3500 
L 3444 3500 
L 1906 -325 
z
" transform="scale(0.015625)"/>
      <path id="DejaVuSans-ExtraLight-65" d="M 3453 1894 
L 3453 1713 
L 797 1713 
Q 797 869 1125 531 
Q 1488 156 2203 156 
Q 2391 156 2700 238 
Q 3013 319 3319 481 
L 3319 178 
Q 3009 47 2684 -22 
Q 2359 -91 2169 -91 
Q 1359 -91 950 347 
Q 506 813 506 1713 
Q 506 2647 913 3106 
Q 1328 3584 2069 3584 
Q 2756 3584 3106 3131 
Q 3453 2656 3453 1894 
z
M 3163 1956 
Q 3163 2694 2831 3031 
Q 2553 3331 2075 3331 
Q 1553 3331 1200 3019 
Q 875 2728 809 1956 
L 3163 1956 
z
" transform="scale(0.015625)"/>
      <path id="DejaVuSans-ExtraLight-72" d="M 2625 3253 
Q 2556 3288 2438 3313 
Q 2331 3331 2169 3331 
Q 1638 3331 1288 2938 
Q 1013 2619 1013 1844 
L 1013 0 
L 731 0 
L 731 3500 
L 1013 3500 
L 1013 2844 
Q 1153 3125 1406 3319 
Q 1756 3584 2231 3584 
Q 2353 3584 2444 3575 
Q 2538 3575 2625 3553 
L 2625 3253 
z
" transform="scale(0.015625)"/>
      <path id="DejaVuSans-ExtraLight-20" transform="scale(0.015625)"/>
      <path id="DejaVuSans-ExtraLight-32" d="M 769 253 
L 3431 253 
L 3431 0 
L 444 0 
L 444 328 
L 1606 1538 
Q 2038 1975 2388 2347 
Q 2713 2694 2822 2884 
Q 2931 3075 2931 3388 
Q 2931 3928 2600 4256 
Q 2359 4494 1825 4494 
Q 1513 4494 1106 4313 
Q 928 4231 500 3953 
L 500 4284 
Q 681 4413 1031 4569 
Q 1428 4747 1819 4750 
Q 2422 4750 2828 4441 
Q 3225 4131 3225 3419 
Q 3225 3131 3119 2875 
Q 2994 2575 2725 2266 
Q 2647 2175 2228 1744 
L 769 253 
z
" transform="scale(0.015625)"/>
     </defs>
     <use xlink:href="#DejaVuSans-ExtraLight-50"/>
     <use xlink:href="#DejaVuSans-ExtraLight-6c" transform="translate(60.302734 0)"/>
     <use xlink:href="#DejaVuSans-ExtraLight-61" transform="translate(88.085938 0)"/>
     <use xlink:href="#DejaVuSans-ExtraLight-79" transform="translate(149.365234 0)"/>
     <use xlink:href="#DejaVuSans-ExtraLight-65" transform="translate(208.544922 0)"/>
     <use xlink:href="#DejaVuSans-ExtraLight-72" transform="translate(270.068359 0)"/>
     <use xlink:href="#DejaVuSans-ExtraLight-20" transform="translate(311.181641 0)"/>
     <use xlink:href="#DejaVuSans-ExtraLight-32" transform="translate(342.96875 0)"/>
    </g>
   </g>
   <g id="text_16">
    <!-- Unmatcher -->
    <g transform="translate(92.421818 36.004875) scale(0.12 -0.12)">
     <defs>
      <path id="DejaVuSans-ExtraLight-55" d="M 716 4666 
L 1028 4666 
L 1028 1831 
Q 1028 944 1341 553 
Q 1650 166 2344 166 
Q 3034 166 3344 553 
Q 3656 944 3656 1831 
L 3656 4666 
L 3969 4666 
L 3969 1753 
Q 3969 841 3556 375 
Q 3147 -91 2344 -91 
Q 1538 -91 1128 375 
Q 716 841 716 1753 
L 716 4666 
z
" transform="scale(0.015625)"/>
      <path id="DejaVuSans-ExtraLight-6e" d="M 3369 2113 
L 3369 0 
L 3081 0 
L 3081 2094 
Q 3081 2775 2862 3053 
Q 2644 3331 2219 3331 
Q 1722 3331 1369 3031 
Q 1013 2728 1013 1978 
L 1013 0 
L 725 0 
L 725 3500 
L 1013 3500 
L 1013 2844 
Q 1166 3163 1416 3331 
Q 1784 3584 2231 3584 
Q 2750 3584 3059 3231 
Q 3369 2881 3369 2113 
z
" transform="scale(0.015625)"/>
      <path id="DejaVuSans-ExtraLight-6d" d="M 3244 2738 
Q 3406 3159 3756 3375 
Q 4088 3584 4544 3584 
Q 5000 3584 5275 3263 
Q 5553 2944 5553 2113 
L 5553 0 
L 5269 0 
L 5269 2094 
Q 5269 2819 5069 3075 
Q 4869 3331 4538 3331 
Q 4056 3331 3688 3034 
Q 3284 2713 3284 1978 
L 3284 0 
L 2997 0 
L 2997 2094 
Q 2997 2794 2803 3062 
Q 2609 3331 2266 3331 
Q 1784 3331 1416 3031 
Q 1013 2709 1013 1978 
L 1013 0 
L 725 0 
L 725 3500 
L 1013 3500 
L 1013 2844 
Q 1166 3188 1488 3388 
Q 1813 3584 2284 3584 
Q 2591 3584 2875 3378 
Q 3094 3219 3244 2738 
z
" transform="scale(0.015625)"/>
      <path id="DejaVuSans-ExtraLight-74" d="M 1028 4494 
L 1028 3500 
L 2213 3500 
L 2213 3256 
L 1028 3256 
L 1028 1153 
Q 1028 753 1131 594 
Q 1344 244 1750 244 
L 2213 244 
L 2213 0 
L 1766 0 
Q 1338 0 1038 250 
Q 738 500 738 1153 
L 738 3256 
L 319 3256 
L 319 3500 
L 738 3500 
L 738 4494 
L 1028 4494 
z
" transform="scale(0.015625)"/>
      <path id="DejaVuSans-ExtraLight-63" d="M 3122 3331 
L 3122 3025 
Q 2863 3184 2694 3241 
Q 2403 3331 2138 3331 
Q 1381 3331 1053 2943 
Q 725 2556 725 1747 
Q 725 931 1053 543 
Q 1381 156 2138 156 
Q 2388 156 2631 225 
Q 2878 291 3122 425 
L 3122 134 
Q 2881 22 2625 -34 
Q 2366 -91 2113 -91 
Q 1344 -91 891 325 
Q 438 744 438 1747 
Q 438 2750 891 3169 
Q 1344 3584 2113 3584 
Q 2363 3584 2644 3513 
Q 2925 3444 3122 3331 
z
" transform="scale(0.015625)"/>
      <path id="DejaVuSans-ExtraLight-68" d="M 3369 2113 
L 3369 0 
L 3081 0 
L 3081 2094 
Q 3081 2769 2853 3050 
Q 2625 3331 2163 3331 
Q 1631 3331 1322 3018 
Q 1013 2706 1013 1978 
L 1013 0 
L 725 0 
L 725 4863 
L 1013 4863 
L 1013 2853 
Q 1113 3122 1369 3331 
Q 1675 3584 2231 3584 
Q 2750 3584 3059 3213 
Q 3369 2838 3369 2113 
z
" transform="scale(0.015625)"/>
     </defs>
     <use xlink:href="#DejaVuSans-ExtraLight-55"/>
     <use xlink:href="#DejaVuSans-ExtraLight-6e" transform="translate(73.193359 0)"/>
     <use xlink:href="#DejaVuSans-ExtraLight-6d" transform="translate(136.572266 0)"/>
     <use xlink:href="#DejaVuSans-ExtraLight-61" transform="translate(233.984375 0)"/>
     <use xlink:href="#DejaVuSans-ExtraLight-74" transform="translate(295.263672 0)"/>
     <use xlink:href="#DejaVuSans-ExtraLight-63" transform="translate(334.472656 0)"/>
     <use xlink:href="#DejaVuSans-ExtraLight-68" transform="translate(389.453125 0)"/>
     <use xlink:href="#DejaVuSans-ExtraLight-65" transform="translate(452.832031 0)"/>
     <use xlink:href="#DejaVuSans-ExtraLight-72" transform="translate(514.355469 0)"/>
    </g>
   </g>
  </g>
 </g>
 <defs>
  <clipPath id="pd052bcfc6b">
   <rect x="45.245455" y="45.076875" width="167.4" height="166.32"/>
  </clipPath>
 </defs>
</svg>
