<?xml version="1.0" encoding="utf-8" standalone="no"?>
<!DOCTYPE svg PUBLIC "-//W3C//DTD SVG 1.1//EN"
  "http://www.w3.org/Graphics/SVG/1.1/DTD/svg11.dtd">
<svg xmlns:xlink="http://www.w3.org/1999/xlink" width="172.660443pt" height="163.289687pt" viewBox="0 0 172.660443 163.289687" xmlns="http://www.w3.org/2000/svg" version="1.1">
 <metadata>
  <rdf:RDF xmlns:dc="http://purl.org/dc/elements/1.1/" xmlns:cc="http://creativecommons.org/ns#" xmlns:rdf="http://www.w3.org/1999/02/22-rdf-syntax-ns#">
   <cc:Work>
    <dc:type rdf:resource="http://purl.org/dc/dcmitype/StillImage"/>
    <dc:date>2026-04-10T11:38:37.880602</dc:date>
    <dc:format>image/svg+xml</dc:format>
    <dc:creator>
     <cc:Agent>
      <dc:title>Matplotlib v3.10.8, https://matplotlib.org/</dc:title>
     </cc:Agent>
    </dc:creator>
   </cc:Work>
  </rdf:RDF>
 </metadata>
 <defs>
  <style type="text/css">*{stroke-linejoin: round; stroke-linecap: butt}</style>
 </defs>
 <g id="figure_1">
  <g id="patch_1">
   <path d="M 0 163.289687 
L 172.660443 163.289687 
L 172.660443 0 
L 0 0 
L 0 163.289687 
z
" style="fill: none"/>
  </g>
  <g id="axes_1">
   <g id="patch_2">
    <path d="M 52.679688 118.08 
L 164.279687 118.08 
L 164.279687 7.2 
L 52.679688 7.2 
L 52.679688 118.08 
z
" style="fill: none"/>
   </g>
   <g id="line2d_1">
    <path d="M 52.679688 31.13194 
L 164.279687 31.13194 
" clip-path="url(#p224ca16f4d)" style="fill: none; stroke-dasharray: 7.4,3.2; stroke-dashoffset: 0; stroke: #808080; stroke-width: 2"/>
   </g>
   <g id="PathCollection_1">
    <defs>
     <path id="m088bc8997d" d="M 0 2.236068 
C 0.593012 2.236068 1.161816 2.000462 1.581139 1.581139 
C 2.000462 1.161816 2.236068 0.593012 2.236068 0 
C 2.236068 -0.593012 2.000462 -1.161816 1.581139 -1.581139 
C 1.161816 -2.000462 0.593012 -2.236068 0 -2.236068 
C -0.593012 -2.236068 -1.161816 -2.000462 -1.581139 -1.581139 
C -2.000462 -1.161816 -2.236068 -0.593012 -2.236068 0 
C -2.236068 0.593012 -2.000462 1.161816 -1.581139 1.581139 
C -1.161816 2.000462 -0.593012 2.236068 0 2.236068 
z
"/>
    </defs>
    <g clip-path="url(#p224ca16f4d)">
     <use xlink:href="#m088bc8997d" x="98.340844" y="64.888211" style="fill: #6e6e6e"/>
     <use xlink:href="#m088bc8997d" x="126.507687" y="31.13194" style="fill: #6e6e6e"/>
     <use xlink:href="#m088bc8997d" x="118.195098" y="49.526724" style="fill: #6e6e6e"/>
     <use xlink:href="#m088bc8997d" x="152.499065" y="26.971215" style="fill: #6e6e6e"/>
     <use xlink:href="#m088bc8997d" x="117.635063" y="67.681054" style="fill: #6e6e6e"/>
     <use xlink:href="#m088bc8997d" x="148.907537" y="28.25539" style="fill: #6e6e6e"/>
     <use xlink:href="#m088bc8997d" x="156.21411" y="16.338252" style="fill: #6e6e6e"/>
     <use xlink:href="#m088bc8997d" x="140.794988" y="54.813968" style="fill: #6e6e6e"/>
     <use xlink:href="#m088bc8997d" x="135.975966" y="32.924253" style="fill: #6e6e6e"/>
     <use xlink:href="#m088bc8997d" x="153.145563" y="21.286845" style="fill: #6e6e6e"/>
     <use xlink:href="#m088bc8997d" x="145.459557" y="41.835148" style="fill: #6e6e6e"/>
     <use xlink:href="#m088bc8997d" x="118.119416" y="22.283816" style="fill: #6e6e6e"/>
     <use xlink:href="#m088bc8997d" x="110.160092" y="51.434897" style="fill: #6e6e6e"/>
     <use xlink:href="#m088bc8997d" x="100.712838" y="64.103723" style="fill: #6e6e6e"/>
     <use xlink:href="#m088bc8997d" x="143.378144" y="42.865783" style="fill: #6e6e6e"/>
     <use xlink:href="#m088bc8997d" x="108.815311" y="49.218745" style="fill: #6e6e6e"/>
     <use xlink:href="#m088bc8997d" x="97.9755" y="43.726567" style="fill: #6e6e6e"/>
     <use xlink:href="#m088bc8997d" x="133.521068" y="55.163392" style="fill: #6e6e6e"/>
     <use xlink:href="#m088bc8997d" x="98.372988" y="43.080689" style="fill: #6e6e6e"/>
     <use xlink:href="#m088bc8997d" x="117.596577" y="17.652567" style="fill: #6e6e6e"/>
     <use xlink:href="#m088bc8997d" x="95.634901" y="65.305361" style="fill: #6e6e6e"/>
     <use xlink:href="#m088bc8997d" x="113.298318" y="54.050032" style="fill: #6e6e6e"/>
     <use xlink:href="#m088bc8997d" x="113.313133" y="62.011537" style="fill: #6e6e6e"/>
     <use xlink:href="#m088bc8997d" x="137.340435" y="27.072696" style="fill: #6e6e6e"/>
     <use xlink:href="#m088bc8997d" x="69.602886" y="53.113129" style="fill: #6e6e6e"/>
     <use xlink:href="#m088bc8997d" x="131.650681" y="23.850672" style="fill: #6e6e6e"/>
     <use xlink:href="#m088bc8997d" x="131.841929" y="37.24057" style="fill: #6e6e6e"/>
     <use xlink:href="#m088bc8997d" x="102.150934" y="52.939878" style="fill: #6e6e6e"/>
     <use xlink:href="#m088bc8997d" x="156.330916" y="28.729872" style="fill: #6e6e6e"/>
     <use xlink:href="#m088bc8997d" x="112.91453" y="44.320653" style="fill: #6e6e6e"/>
     <use xlink:href="#m088bc8997d" x="78.450508" y="76.021964" style="fill: #6e6e6e"/>
     <use xlink:href="#m088bc8997d" x="145.726389" y="28.99432" style="fill: #6e6e6e"/>
     <use xlink:href="#m088bc8997d" x="97.052456" y="73.962932" style="fill: #6e6e6e"/>
     <use xlink:href="#m088bc8997d" x="57.752415" y="53.743813" style="fill: #6e6e6e"/>
     <use xlink:href="#m088bc8997d" x="78.180999" y="66.366177" style="fill: #6e6e6e"/>
     <use xlink:href="#m088bc8997d" x="157.022404" y="42.174623" style="fill: #6e6e6e"/>
     <use xlink:href="#m088bc8997d" x="134.17545" y="36.895206" style="fill: #6e6e6e"/>
     <use xlink:href="#m088bc8997d" x="106.516555" y="21.754207" style="fill: #6e6e6e"/>
     <use xlink:href="#m088bc8997d" x="146.745857" y="35.612721" style="fill: #6e6e6e"/>
     <use xlink:href="#m088bc8997d" x="152.891966" y="38.898627" style="fill: #6e6e6e"/>
     <use xlink:href="#m088bc8997d" x="131.720995" y="56.585787" style="fill: #6e6e6e"/>
     <use xlink:href="#m088bc8997d" x="109.21271" y="29.032836" style="fill: #6e6e6e"/>
     <use xlink:href="#m088bc8997d" x="135.074788" y="33.231045" style="fill: #6e6e6e"/>
    </g>
   </g>
   <g id="PathCollection_2">
    <defs>
     <path id="m50d0abc079" d="M 0 2.236068 
C 0.593012 2.236068 1.161816 2.000462 1.581139 1.581139 
C 2.000462 1.161816 2.236068 0.593012 2.236068 0 
C 2.236068 -0.593012 2.000462 -1.161816 1.581139 -1.581139 
C 1.161816 -2.000462 0.593012 -2.236068 0 -2.236068 
C -0.593012 -2.236068 -1.161816 -2.000462 -1.581139 -1.581139 
C -2.000462 -1.161816 -2.236068 -0.593012 -2.236068 0 
C -2.236068 0.593012 -2.000462 1.161816 -1.581139 1.581139 
C -1.161816 2.000462 -0.593012 2.236068 0 2.236068 
z
"/>
    </defs>
    <g clip-path="url(#p224ca16f4d)">
     <use xlink:href="#m50d0abc079" x="90.706587" y="113.04" style="fill: #8b5a2b"/>
     <use xlink:href="#m50d0abc079" x="109.686465" y="50.548657" style="fill: #8b5a2b"/>
     <use xlink:href="#m50d0abc079" x="151.47474" y="50.370522" style="fill: #8b5a2b"/>
     <use xlink:href="#m50d0abc079" x="151.230651" y="29.222099" style="fill: #8b5a2b"/>
     <use xlink:href="#m50d0abc079" x="152.741441" y="20.378067" style="fill: #8b5a2b"/>
     <use xlink:href="#m50d0abc079" x="149.09604" y="55.35064" style="fill: #8b5a2b"/>
     <use xlink:href="#m50d0abc079" x="148.538961" y="12.24" style="fill: #8b5a2b"/>
     <use xlink:href="#m50d0abc079" x="145.052121" y="44.574282" style="fill: #8b5a2b"/>
     <use xlink:href="#m50d0abc079" x="154.322333" y="37.080892" style="fill: #8b5a2b"/>
     <use xlink:href="#m50d0abc079" x="150.693409" y="57.589884" style="fill: #8b5a2b"/>
     <use xlink:href="#m50d0abc079" x="155.780034" y="24.550003" style="fill: #8b5a2b"/>
     <use xlink:href="#m50d0abc079" x="155.528705" y="28.626558" style="fill: #8b5a2b"/>
     <use xlink:href="#m50d0abc079" x="153.561352" y="41.216249" style="fill: #8b5a2b"/>
     <use xlink:href="#m50d0abc079" x="144.491153" y="66.978186" style="fill: #8b5a2b"/>
     <use xlink:href="#m50d0abc079" x="147.819336" y="14.441353" style="fill: #8b5a2b"/>
     <use xlink:href="#m50d0abc079" x="154.344263" y="26.06671" style="fill: #8b5a2b"/>
     <use xlink:href="#m50d0abc079" x="139.026732" y="57.676312" style="fill: #8b5a2b"/>
     <use xlink:href="#m50d0abc079" x="145.575288" y="66.87635" style="fill: #8b5a2b"/>
     <use xlink:href="#m50d0abc079" x="151.677395" y="27.353552" style="fill: #8b5a2b"/>
     <use xlink:href="#m50d0abc079" x="155.032965" y="34.662252" style="fill: #8b5a2b"/>
     <use xlink:href="#m50d0abc079" x="153.536734" y="48.09367" style="fill: #8b5a2b"/>
     <use xlink:href="#m50d0abc079" x="154.114086" y="39.948179" style="fill: #8b5a2b"/>
     <use xlink:href="#m50d0abc079" x="155.535637" y="45.895064" style="fill: #8b5a2b"/>
     <use xlink:href="#m50d0abc079" x="152.410817" y="39.924416" style="fill: #8b5a2b"/>
     <use xlink:href="#m50d0abc079" x="147.799789" y="55.882919" style="fill: #8b5a2b"/>
     <use xlink:href="#m50d0abc079" x="157.594857" y="45.835861" style="fill: #8b5a2b"/>
     <use xlink:href="#m50d0abc079" x="138.925775" y="56.53699" style="fill: #8b5a2b"/>
     <use xlink:href="#m50d0abc079" x="144.96765" y="59.707485" style="fill: #8b5a2b"/>
     <use xlink:href="#m50d0abc079" x="152.533287" y="28.855062" style="fill: #8b5a2b"/>
     <use xlink:href="#m50d0abc079" x="152.977036" y="48.935973" style="fill: #8b5a2b"/>
     <use xlink:href="#m50d0abc079" x="152.902638" y="38.013814" style="fill: #8b5a2b"/>
     <use xlink:href="#m50d0abc079" x="147.088139" y="20.44384" style="fill: #8b5a2b"/>
     <use xlink:href="#m50d0abc079" x="152.83724" y="28.790226" style="fill: #8b5a2b"/>
     <use xlink:href="#m50d0abc079" x="152.58519" y="39.45339" style="fill: #8b5a2b"/>
     <use xlink:href="#m50d0abc079" x="143.640786" y="45.755409" style="fill: #8b5a2b"/>
     <use xlink:href="#m50d0abc079" x="150.009117" y="24.329003" style="fill: #8b5a2b"/>
     <use xlink:href="#m50d0abc079" x="148.097015" y="31.13194" style="fill: #8b5a2b"/>
     <use xlink:href="#m50d0abc079" x="149.142069" y="36.623537" style="fill: #8b5a2b"/>
     <use xlink:href="#m50d0abc079" x="149.514037" y="47.034058" style="fill: #8b5a2b"/>
     <use xlink:href="#m50d0abc079" x="142.708994" y="50.370522" style="fill: #8b5a2b"/>
     <use xlink:href="#m50d0abc079" x="157.19922" y="43.194642" style="fill: #8b5a2b"/>
     <use xlink:href="#m50d0abc079" x="141.199663" y="37.624217" style="fill: #8b5a2b"/>
     <use xlink:href="#m50d0abc079" x="150.479711" y="55.625265" style="fill: #8b5a2b"/>
     <use xlink:href="#m50d0abc079" x="153.291891" y="29.105848" style="fill: #8b5a2b"/>
     <use xlink:href="#m50d0abc079" x="153.565718" y="47.579041" style="fill: #8b5a2b"/>
     <use xlink:href="#m50d0abc079" x="151.256393" y="31.13194" style="fill: #8b5a2b"/>
     <use xlink:href="#m50d0abc079" x="149.275385" y="50.548657" style="fill: #8b5a2b"/>
     <use xlink:href="#m50d0abc079" x="144.265605" y="35.591282" style="fill: #8b5a2b"/>
     <use xlink:href="#m50d0abc079" x="142.575271" y="34.302016" style="fill: #8b5a2b"/>
     <use xlink:href="#m50d0abc079" x="141.353319" y="72.794299" style="fill: #8b5a2b"/>
     <use xlink:href="#m50d0abc079" x="138.347825" y="39.105345" style="fill: #8b5a2b"/>
     <use xlink:href="#m50d0abc079" x="149.750556" y="42.546955" style="fill: #8b5a2b"/>
     <use xlink:href="#m50d0abc079" x="149.372836" y="40.720442" style="fill: #8b5a2b"/>
    </g>
   </g>
   <g id="PathCollection_3">
    <defs>
     <path id="mf194638ad5" d="M 0 2.236068 
C 0.593012 2.236068 1.161816 2.000462 1.581139 1.581139 
C 2.000462 1.161816 2.236068 0.593012 2.236068 0 
C 2.236068 -0.593012 2.000462 -1.161816 1.581139 -1.581139 
C 1.161816 -2.000462 0.593012 -2.236068 0 -2.236068 
C -0.593012 -2.236068 -1.161816 -2.000462 -1.581139 -1.581139 
C -2.000462 -1.161816 -2.236068 -0.593012 -2.236068 0 
C -2.236068 0.593012 -2.000462 1.161816 -1.581139 1.581139 
C -1.161816 2.000462 -0.593012 2.236068 0 2.236068 
z
" style="stroke: #000000"/>
    </defs>
    <g clip-path="url(#p224ca16f4d)">
     <use xlink:href="#mf194638ad5" x="150.268451" y="40.451964" style="stroke: #000000"/>
     <use xlink:href="#mf194638ad5" x="153.599077" y="22.976919" style="stroke: #000000"/>
     <use xlink:href="#mf194638ad5" x="134.411821" y="56.762006" style="stroke: #000000"/>
     <use xlink:href="#mf194638ad5" x="157.399484" y="26.471928" style="stroke: #000000"/>
     <use xlink:href="#mf194638ad5" x="137.770572" y="49.771988" style="stroke: #000000"/>
     <use xlink:href="#mf194638ad5" x="145.14094" y="42.78197" style="stroke: #000000"/>
     <use xlink:href="#mf194638ad5" x="159.20696" y="39.286961" style="stroke: #000000"/>
     <use xlink:href="#mf194638ad5" x="139.162936" y="47.441982" style="stroke: #000000"/>
     <use xlink:href="#mf194638ad5" x="155.938507" y="41.616967" style="stroke: #000000"/>
     <use xlink:href="#mf194638ad5" x="142.006275" y="59.092012" style="stroke: #000000"/>
     <use xlink:href="#mf194638ad5" x="142.711753" y="42.78197" style="stroke: #000000"/>
     <use xlink:href="#mf194638ad5" x="150.409729" y="38.121958" style="stroke: #000000"/>
     <use xlink:href="#mf194638ad5" x="121.811356" y="64.917027" style="stroke: #000000"/>
     <use xlink:href="#mf194638ad5" x="149.878135" y="32.296943" style="stroke: #000000"/>
    </g>
   </g>
   <g id="matplotlib.axis_1">
    <g id="xtick_1">
     <g id="line2d_2">
      <defs>
       <path id="m2daeec1479" d="M 0 0 
L 0 8.25 
" style="stroke: #000000; stroke-width: 1.4"/>
      </defs>
      <g>
       <use xlink:href="#m2daeec1479" x="96.347382" y="118.08" style="stroke: #000000; stroke-width: 1.4"/>
      </g>
     </g>
     <g id="text_1">
      <!-- 4 -->
      <g transform="translate(92.529882 138.948125) scale(0.12 -0.12)">
       <defs>
        <path id="DejaVuSans-34" d="M 2419 4116 
L 825 1625 
L 2419 1625 
L 2419 4116 
z
M 2253 4666 
L 3047 4666 
L 3047 1625 
L 3713 1625 
L 3713 1100 
L 3047 1100 
L 3047 0 
L 2419 0 
L 2419 1100 
L 313 1100 
L 313 1709 
L 2253 4666 
z
" transform="scale(0.015625)"/>
       </defs>
       <use xlink:href="#DejaVuSans-34"/>
      </g>
     </g>
    </g>
    <g id="xtick_2">
     <g id="line2d_3">
      <g>
       <use xlink:href="#m2daeec1479" x="161.642943" y="118.08" style="stroke: #000000; stroke-width: 1.4"/>
      </g>
     </g>
     <g id="text_2">
      <!-- 5 -->
      <g transform="translate(157.825443 138.948125) scale(0.12 -0.12)">
       <defs>
        <path id="DejaVuSans-35" d="M 691 4666 
L 3169 4666 
L 3169 4134 
L 1269 4134 
L 1269 2991 
Q 1406 3038 1543 3061 
Q 1681 3084 1819 3084 
Q 2600 3084 3056 2656 
Q 3513 2228 3513 1497 
Q 3513 744 3044 326 
Q 2575 -91 1722 -91 
Q 1428 -91 1123 -41 
Q 819 9 494 109 
L 494 744 
Q 775 591 1075 516 
Q 1375 441 1709 441 
Q 2250 441 2565 725 
Q 2881 1009 2881 1497 
Q 2881 1984 2565 2268 
Q 2250 2553 1709 2553 
Q 1456 2553 1204 2497 
Q 953 2441 691 2322 
L 691 4666 
z
" transform="scale(0.015625)"/>
       </defs>
       <use xlink:href="#DejaVuSans-35"/>
      </g>
     </g>
    </g>
    <g id="text_3">
     <!-- Entropy (5 bit max) -->
     <g transform="translate(54.919141 153.802031) scale(0.11 -0.11)">
      <defs>
       <path id="DejaVuSans-45" d="M 628 4666 
L 3578 4666 
L 3578 4134 
L 1259 4134 
L 1259 2753 
L 3481 2753 
L 3481 2222 
L 1259 2222 
L 1259 531 
L 3634 531 
L 3634 0 
L 628 0 
L 628 4666 
z
" transform="scale(0.015625)"/>
       <path id="DejaVuSans-6e" d="M 3513 2113 
L 3513 0 
L 2938 0 
L 2938 2094 
Q 2938 2591 2744 2837 
Q 2550 3084 2163 3084 
Q 1697 3084 1428 2787 
Q 1159 2491 1159 1978 
L 1159 0 
L 581 0 
L 581 3500 
L 1159 3500 
L 1159 2956 
Q 1366 3272 1645 3428 
Q 1925 3584 2291 3584 
Q 2894 3584 3203 3211 
Q 3513 2838 3513 2113 
z
" transform="scale(0.015625)"/>
       <path id="DejaVuSans-74" d="M 1172 4494 
L 1172 3500 
L 2356 3500 
L 2356 3053 
L 1172 3053 
L 1172 1153 
Q 1172 725 1289 603 
Q 1406 481 1766 481 
L 2356 481 
L 2356 0 
L 1766 0 
Q 1100 0 847 248 
Q 594 497 594 1153 
L 594 3053 
L 172 3053 
L 172 3500 
L 594 3500 
L 594 4494 
L 1172 4494 
z
" transform="scale(0.015625)"/>
       <path id="DejaVuSans-72" d="M 2631 2963 
Q 2534 3019 2420 3045 
Q 2306 3072 2169 3072 
Q 1681 3072 1420 2755 
Q 1159 2438 1159 1844 
L 1159 0 
L 581 0 
L 581 3500 
L 1159 3500 
L 1159 2956 
Q 1341 3275 1631 3429 
Q 1922 3584 2338 3584 
Q 2397 3584 2469 3576 
Q 2541 3569 2628 3553 
L 2631 2963 
z
" transform="scale(0.015625)"/>
       <path id="DejaVuSans-6f" d="M 1959 3097 
Q 1497 3097 1228 2736 
Q 959 2375 959 1747 
Q 959 1119 1226 758 
Q 1494 397 1959 397 
Q 2419 397 2687 759 
Q 2956 1122 2956 1747 
Q 2956 2369 2687 2733 
Q 2419 3097 1959 3097 
z
M 1959 3584 
Q 2709 3584 3137 3096 
Q 3566 2609 3566 1747 
Q 3566 888 3137 398 
Q 2709 -91 1959 -91 
Q 1206 -91 779 398 
Q 353 888 353 1747 
Q 353 2609 779 3096 
Q 1206 3584 1959 3584 
z
" transform="scale(0.015625)"/>
       <path id="DejaVuSans-70" d="M 1159 525 
L 1159 -1331 
L 581 -1331 
L 581 3500 
L 1159 3500 
L 1159 2969 
Q 1341 3281 1617 3432 
Q 1894 3584 2278 3584 
Q 2916 3584 3314 3078 
Q 3713 2572 3713 1747 
Q 3713 922 3314 415 
Q 2916 -91 2278 -91 
Q 1894 -91 1617 61 
Q 1341 213 1159 525 
z
M 3116 1747 
Q 3116 2381 2855 2742 
Q 2594 3103 2138 3103 
Q 1681 3103 1420 2742 
Q 1159 2381 1159 1747 
Q 1159 1113 1420 752 
Q 1681 391 2138 391 
Q 2594 391 2855 752 
Q 3116 1113 3116 1747 
z
" transform="scale(0.015625)"/>
       <path id="DejaVuSans-79" d="M 2059 -325 
Q 1816 -950 1584 -1140 
Q 1353 -1331 966 -1331 
L 506 -1331 
L 506 -850 
L 844 -850 
Q 1081 -850 1212 -737 
Q 1344 -625 1503 -206 
L 1606 56 
L 191 3500 
L 800 3500 
L 1894 763 
L 2988 3500 
L 3597 3500 
L 2059 -325 
z
" transform="scale(0.015625)"/>
       <path id="DejaVuSans-20" transform="scale(0.015625)"/>
       <path id="DejaVuSans-28" d="M 1984 4856 
Q 1566 4138 1362 3434 
Q 1159 2731 1159 2009 
Q 1159 1288 1364 580 
Q 1569 -128 1984 -844 
L 1484 -844 
Q 1016 -109 783 600 
Q 550 1309 550 2009 
Q 550 2706 781 3412 
Q 1013 4119 1484 4856 
L 1984 4856 
z
" transform="scale(0.015625)"/>
       <path id="DejaVuSans-62" d="M 3116 1747 
Q 3116 2381 2855 2742 
Q 2594 3103 2138 3103 
Q 1681 3103 1420 2742 
Q 1159 2381 1159 1747 
Q 1159 1113 1420 752 
Q 1681 391 2138 391 
Q 2594 391 2855 752 
Q 3116 1113 3116 1747 
z
M 1159 2969 
Q 1341 3281 1617 3432 
Q 1894 3584 2278 3584 
Q 2916 3584 3314 3078 
Q 3713 2572 3713 1747 
Q 3713 922 3314 415 
Q 2916 -91 2278 -91 
Q 1894 -91 1617 61 
Q 1341 213 1159 525 
L 1159 0 
L 581 0 
L 581 4863 
L 1159 4863 
L 1159 2969 
z
" transform="scale(0.015625)"/>
       <path id="DejaVuSans-69" d="M 603 3500 
L 1178 3500 
L 1178 0 
L 603 0 
L 603 3500 
z
M 603 4863 
L 1178 4863 
L 1178 4134 
L 603 4134 
L 603 4863 
z
" transform="scale(0.015625)"/>
       <path id="DejaVuSans-6d" d="M 3328 2828 
Q 3544 3216 3844 3400 
Q 4144 3584 4550 3584 
Q 5097 3584 5394 3201 
Q 5691 2819 5691 2113 
L 5691 0 
L 5113 0 
L 5113 2094 
Q 5113 2597 4934 2840 
Q 4756 3084 4391 3084 
Q 3944 3084 3684 2787 
Q 3425 2491 3425 1978 
L 3425 0 
L 2847 0 
L 2847 2094 
Q 2847 2600 2669 2842 
Q 2491 3084 2119 3084 
Q 1678 3084 1418 2786 
Q 1159 2488 1159 1978 
L 1159 0 
L 581 0 
L 581 3500 
L 1159 3500 
L 1159 2956 
Q 1356 3278 1631 3431 
Q 1906 3584 2284 3584 
Q 2666 3584 2933 3390 
Q 3200 3197 3328 2828 
z
" transform="scale(0.015625)"/>
       <path id="DejaVuSans-61" d="M 2194 1759 
Q 1497 1759 1228 1600 
Q 959 1441 959 1056 
Q 959 750 1161 570 
Q 1363 391 1709 391 
Q 2188 391 2477 730 
Q 2766 1069 2766 1631 
L 2766 1759 
L 2194 1759 
z
M 3341 1997 
L 3341 0 
L 2766 0 
L 2766 531 
Q 2569 213 2275 61 
Q 1981 -91 1556 -91 
Q 1019 -91 701 211 
Q 384 513 384 1019 
Q 384 1609 779 1909 
Q 1175 2209 1959 2209 
L 2766 2209 
L 2766 2266 
Q 2766 2663 2505 2880 
Q 2244 3097 1772 3097 
Q 1472 3097 1187 3025 
Q 903 2953 641 2809 
L 641 3341 
Q 956 3463 1253 3523 
Q 1550 3584 1831 3584 
Q 2591 3584 2966 3190 
Q 3341 2797 3341 1997 
z
" transform="scale(0.015625)"/>
       <path id="DejaVuSans-78" d="M 3513 3500 
L 2247 1797 
L 3578 0 
L 2900 0 
L 1881 1375 
L 863 0 
L 184 0 
L 1544 1831 
L 300 3500 
L 978 3500 
L 1906 2253 
L 2834 3500 
L 3513 3500 
z
" transform="scale(0.015625)"/>
       <path id="DejaVuSans-29" d="M 513 4856 
L 1013 4856 
Q 1481 4119 1714 3412 
Q 1947 2706 1947 2009 
Q 1947 1309 1714 600 
Q 1481 -109 1013 -844 
L 513 -844 
Q 928 -128 1133 580 
Q 1338 1288 1338 2009 
Q 1338 2731 1133 3434 
Q 928 4138 513 4856 
z
" transform="scale(0.015625)"/>
      </defs>
      <use xlink:href="#DejaVuSans-45"/>
      <use xlink:href="#DejaVuSans-6e" transform="translate(63.183594 0)"/>
      <use xlink:href="#DejaVuSans-74" transform="translate(126.5625 0)"/>
      <use xlink:href="#DejaVuSans-72" transform="translate(165.771484 0)"/>
      <use xlink:href="#DejaVuSans-6f" transform="translate(204.634766 0)"/>
      <use xlink:href="#DejaVuSans-70" transform="translate(265.816406 0)"/>
      <use xlink:href="#DejaVuSans-79" transform="translate(329.292969 0)"/>
      <use xlink:href="#DejaVuSans-20" transform="translate(388.472656 0)"/>
      <use xlink:href="#DejaVuSans-28" transform="translate(420.259766 0)"/>
      <use xlink:href="#DejaVuSans-35" transform="translate(459.273438 0)"/>
      <use xlink:href="#DejaVuSans-20" transform="translate(522.896484 0)"/>
      <use xlink:href="#DejaVuSans-62" transform="translate(554.683594 0)"/>
      <use xlink:href="#DejaVuSans-69" transform="translate(618.160156 0)"/>
      <use xlink:href="#DejaVuSans-74" transform="translate(645.943359 0)"/>
      <use xlink:href="#DejaVuSans-20" transform="translate(685.152344 0)"/>
      <use xlink:href="#DejaVuSans-6d" transform="translate(716.939453 0)"/>
      <use xlink:href="#DejaVuSans-61" transform="translate(814.351562 0)"/>
      <use xlink:href="#DejaVuSans-78" transform="translate(875.630859 0)"/>
      <use xlink:href="#DejaVuSans-29" transform="translate(934.810547 0)"/>
     </g>
    </g>
   </g>
   <g id="matplotlib.axis_2">
    <g id="ytick_1">
     <g id="line2d_4">
      <defs>
       <path id="mcbb06afc45" d="M 0 0 
L -8.25 0 
" style="stroke: #000000; stroke-width: 1.4"/>
      </defs>
      <g>
       <use xlink:href="#mcbb06afc45" x="52.679688" y="77.73206" style="stroke: #000000; stroke-width: 1.4"/>
      </g>
     </g>
     <g id="text_4">
      <!-- 0.4 -->
      <g transform="translate(21.845938 82.291122) scale(0.12 -0.12)">
       <defs>
        <path id="DejaVuSans-30" d="M 2034 4250 
Q 1547 4250 1301 3770 
Q 1056 3291 1056 2328 
Q 1056 1369 1301 889 
Q 1547 409 2034 409 
Q 2525 409 2770 889 
Q 3016 1369 3016 2328 
Q 3016 3291 2770 3770 
Q 2525 4250 2034 4250 
z
M 2034 4750 
Q 2819 4750 3233 4129 
Q 3647 3509 3647 2328 
Q 3647 1150 3233 529 
Q 2819 -91 2034 -91 
Q 1250 -91 836 529 
Q 422 1150 422 2328 
Q 422 3509 836 4129 
Q 1250 4750 2034 4750 
z
" transform="scale(0.015625)"/>
        <path id="DejaVuSans-2e" d="M 684 794 
L 1344 794 
L 1344 0 
L 684 0 
L 684 794 
z
" transform="scale(0.015625)"/>
       </defs>
       <use xlink:href="#DejaVuSans-30"/>
       <use xlink:href="#DejaVuSans-2e" transform="translate(63.623047 0)"/>
       <use xlink:href="#DejaVuSans-34" transform="translate(95.410156 0)"/>
      </g>
     </g>
    </g>
    <g id="ytick_2">
     <g id="line2d_5">
      <g>
       <use xlink:href="#mcbb06afc45" x="52.679688" y="31.13194" style="stroke: #000000; stroke-width: 1.4"/>
      </g>
     </g>
     <g id="text_5">
      <!-- 0.5 -->
      <g transform="translate(21.845938 35.691003) scale(0.12 -0.12)">
       <use xlink:href="#DejaVuSans-30"/>
       <use xlink:href="#DejaVuSans-2e" transform="translate(63.623047 0)"/>
       <use xlink:href="#DejaVuSans-35" transform="translate(95.410156 0)"/>
      </g>
     </g>
    </g>
    <g id="text_6">
     <!-- Reward rate -->
     <g transform="translate(15.558281 96.043047) rotate(-90) scale(0.11 -0.11)">
      <defs>
       <path id="DejaVuSans-52" d="M 2841 2188 
Q 3044 2119 3236 1894 
Q 3428 1669 3622 1275 
L 4263 0 
L 3584 0 
L 2988 1197 
Q 2756 1666 2539 1819 
Q 2322 1972 1947 1972 
L 1259 1972 
L 1259 0 
L 628 0 
L 628 4666 
L 2053 4666 
Q 2853 4666 3247 4331 
Q 3641 3997 3641 3322 
Q 3641 2881 3436 2590 
Q 3231 2300 2841 2188 
z
M 1259 4147 
L 1259 2491 
L 2053 2491 
Q 2509 2491 2742 2702 
Q 2975 2913 2975 3322 
Q 2975 3731 2742 3939 
Q 2509 4147 2053 4147 
L 1259 4147 
z
" transform="scale(0.015625)"/>
       <path id="DejaVuSans-65" d="M 3597 1894 
L 3597 1613 
L 953 1613 
Q 991 1019 1311 708 
Q 1631 397 2203 397 
Q 2534 397 2845 478 
Q 3156 559 3463 722 
L 3463 178 
Q 3153 47 2828 -22 
Q 2503 -91 2169 -91 
Q 1331 -91 842 396 
Q 353 884 353 1716 
Q 353 2575 817 3079 
Q 1281 3584 2069 3584 
Q 2775 3584 3186 3129 
Q 3597 2675 3597 1894 
z
M 3022 2063 
Q 3016 2534 2758 2815 
Q 2500 3097 2075 3097 
Q 1594 3097 1305 2825 
Q 1016 2553 972 2059 
L 3022 2063 
z
" transform="scale(0.015625)"/>
       <path id="DejaVuSans-77" d="M 269 3500 
L 844 3500 
L 1563 769 
L 2278 3500 
L 2956 3500 
L 3675 769 
L 4391 3500 
L 4966 3500 
L 4050 0 
L 3372 0 
L 2619 2869 
L 1863 0 
L 1184 0 
L 269 3500 
z
" transform="scale(0.015625)"/>
       <path id="DejaVuSans-64" d="M 2906 2969 
L 2906 4863 
L 3481 4863 
L 3481 0 
L 2906 0 
L 2906 525 
Q 2725 213 2448 61 
Q 2172 -91 1784 -91 
Q 1150 -91 751 415 
Q 353 922 353 1747 
Q 353 2572 751 3078 
Q 1150 3584 1784 3584 
Q 2172 3584 2448 3432 
Q 2725 3281 2906 2969 
z
M 947 1747 
Q 947 1113 1208 752 
Q 1469 391 1925 391 
Q 2381 391 2643 752 
Q 2906 1113 2906 1747 
Q 2906 2381 2643 2742 
Q 2381 3103 1925 3103 
Q 1469 3103 1208 2742 
Q 947 2381 947 1747 
z
" transform="scale(0.015625)"/>
      </defs>
      <use xlink:href="#DejaVuSans-52"/>
      <use xlink:href="#DejaVuSans-65" transform="translate(64.982422 0)"/>
      <use xlink:href="#DejaVuSans-77" transform="translate(126.505859 0)"/>
      <use xlink:href="#DejaVuSans-61" transform="translate(208.292969 0)"/>
      <use xlink:href="#DejaVuSans-72" transform="translate(269.572266 0)"/>
      <use xlink:href="#DejaVuSans-64" transform="translate(308.935547 0)"/>
      <use xlink:href="#DejaVuSans-20" transform="translate(372.412109 0)"/>
      <use xlink:href="#DejaVuSans-72" transform="translate(404.199219 0)"/>
      <use xlink:href="#DejaVuSans-61" transform="translate(445.3125 0)"/>
      <use xlink:href="#DejaVuSans-74" transform="translate(506.591797 0)"/>
      <use xlink:href="#DejaVuSans-65" transform="translate(545.800781 0)"/>
     </g>
    </g>
   </g>
   <g id="patch_3">
    <path d="M 52.679688 118.08 
L 52.679688 7.2 
" style="fill: none; stroke: #000000; stroke-width: 1.2; stroke-linejoin: miter; stroke-linecap: square"/>
   </g>
   <g id="patch_4">
    <path d="M 52.679688 118.08 
L 164.279688 118.08 
" style="fill: none; stroke: #000000; stroke-width: 1.2; stroke-linejoin: miter; stroke-linecap: square"/>
   </g>
  </g>
 </g>
 <defs>
  <clipPath id="p224ca16f4d">
   <rect x="52.679688" y="7.2" width="111.6" height="110.88"/>
  </clipPath>
 </defs>
</svg>
